<?xml version="1.0" standalone="no"?>
<!DOCTYPE svg PUBLIC "-//W3C//DTD SVG 20010904//EN"
 "http://www.w3.org/TR/2001/REC-SVG-20010904/DTD/svg10.dtd">
<svg version="1.0" xmlns="http://www.w3.org/2000/svg"
 width="736.000000pt" height="772.000000pt" viewBox="0 0 736.000000 772.000000"
 preserveAspectRatio="xMidYMid meet">
<metadata>
Created by potrace 1.16, written by Peter Selinger 2001-2019
</metadata>
<g transform="translate(0.000000,772.000000) scale(0.100000,-0.100000)"
fill="#000000" stroke="none">
<path d="M3190 7516 c0 -30 -27 -96 -40 -96 -5 0 -17 14 -27 30 -23 40 -31 38
-29 -10 1 -59 -17 -71 -55 -34 -17 16 -39 44 -51 62 -11 17 -23 32 -28 32 -4
0 -6 -27 -3 -60 3 -33 2 -60 -2 -60 -18 0 -66 45 -86 80 -13 22 -26 40 -31 40
-4 0 -8 -29 -8 -65 0 -36 -3 -65 -6 -65 -3 0 -28 19 -55 42 -27 22 -51 39 -54
36 -6 -5 8 -79 21 -111 12 -31 -16 -17 -37 18 -21 34 -48 41 -30 7 13 -26 23
-132 12 -132 -5 0 -12 8 -16 18 -8 26 -135 100 -135 79 0 -1 9 -20 20 -42 22
-42 26 -75 10 -75 -5 0 -33 9 -62 20 -28 11 -54 18 -56 16 -2 -3 7 -36 19 -75
24 -76 21 -95 -11 -66 -22 20 -40 14 -23 -7 6 -7 14 -28 18 -47 l7 -33 -81 3
c-45 2 -81 1 -81 -3 0 -3 11 -19 23 -35 13 -15 27 -41 31 -57 l7 -29 -40 7
c-23 3 -41 4 -41 2 0 -3 14 -18 30 -34 34 -34 38 -60 13 -69 -10 -3 -43 -17
-73 -30 -51 -24 -53 -26 -30 -33 37 -10 70 -33 70 -47 0 -7 -18 -23 -40 -35
-22 -13 -40 -26 -40 -30 0 -4 16 -14 35 -22 38 -16 47 -36 16 -36 -26 0 -36
-16 -17 -27 16 -9 11 -53 -5 -53 -5 0 -9 -7 -9 -15 0 -8 8 -15 19 -15 10 0 24
-7 31 -15 10 -12 10 -15 -3 -15 -28 0 -29 -20 -3 -30 30 -11 33 -22 11 -40
-20 -17 -19 -30 3 -30 29 0 51 -31 41 -57 -4 -13 -13 -23 -19 -23 -22 0 -8
-20 35 -47 47 -29 57 -55 28 -72 -10 -5 -16 -11 -13 -13 3 -2 22 -16 43 -32
27 -19 36 -33 32 -45 -3 -11 5 -28 20 -45 14 -15 41 -53 61 -84 28 -42 34 -60
26 -72 -6 -8 -15 -14 -21 -12 -14 3 -14 -25 -1 -33 13 -8 80 -140 80 -158 0
-8 25 -38 55 -66 30 -29 55 -53 55 -55 0 -1 -102 0 -227 1 -187 3 -241 7 -299
23 -61 17 -84 18 -155 10 -45 -5 -96 -14 -113 -19 -17 -6 -67 -15 -110 -21
-118 -15 -186 -68 -186 -145 0 -69 -4 -72 -95 -78 -88 -6 -240 -43 -318 -76
-61 -26 -134 -81 -269 -201 -107 -95 -112 -101 -149 -188 -47 -110 -78 -227
-93 -349 l-11 -92 -150 -73 c-83 -40 -191 -92 -241 -115 -50 -22 -107 -53
-128 -66 -20 -14 -64 -36 -96 -49 -33 -13 -60 -28 -60 -35 0 -11 88 26 265
115 44 21 114 54 155 72 41 18 114 52 162 76 48 24 91 44 96 44 15 0 32 -88
22 -114 -9 -26 -25 -33 -77 -35 -19 -1 -151 -59 -318 -141 -157 -77 -290 -140
-295 -140 -6 0 -10 -39 -9 -92 0 -64 3 -86 9 -71 5 12 19 24 32 28 13 3 32 10
43 15 11 5 61 26 110 46 50 20 101 42 115 49 91 46 124 49 81 8 -22 -22 -91
-124 -91 -136 0 -35 -82 -147 -107 -147 -6 0 -44 -16 -86 -35 -42 -19 -83 -35
-91 -35 -14 0 -16 -171 -16 -1775 l0 -1775 1330 0 c1323 0 1330 0 1330 20 0
11 5 20 11 20 6 0 8 -9 4 -20 -5 -17 -2 -20 24 -20 23 0 29 4 25 15 -4 8 -1
15 5 15 6 0 11 -7 11 -15 0 -12 17 -15 97 -15 l97 0 -28 29 c-29 30 -30 54 -7
90 19 29 92 -17 146 -91 l20 -28 323 0 324 0 -7 38 c-3 20 -13 47 -21 60 -8
13 -12 32 -9 42 7 21 25 28 25 10 0 -5 -4 -10 -10 -10 -14 0 -12 -16 3 -32 7
-7 17 -33 23 -58 6 -30 15 -46 27 -48 10 -2 17 3 17 12 0 20 2 20 47 1 19 -8
56 -15 80 -15 60 0 49 12 -67 80 -77 45 -124 80 -107 80 3 0 32 -13 65 -30 34
-16 63 -30 66 -30 4 0 33 -17 66 -37 49 -31 57 -40 47 -52 -10 -12 -8 -13 18
-7 17 4 37 13 45 20 8 7 49 30 90 51 41 20 83 41 93 46 12 7 17 5 17 -5 0 -17
-34 -42 -110 -82 l-55 -29 42 -3 c23 -2 52 2 65 9 16 9 23 9 26 0 2 -6 17 -11
33 -11 28 0 29 2 29 46 0 27 4 43 10 39 6 -3 10 -24 10 -46 0 -38 12 -52 24
-26 5 9 7 9 12 0 4 -10 92 -13 390 -13 l384 0 0 21 c0 43 -24 101 -46 111 -24
11 -51 54 -41 64 3 4 14 -1 23 -10 12 -12 25 -15 46 -11 24 6 34 1 63 -31 19
-20 41 -52 50 -71 16 -33 16 -34 -7 -53 -23 -19 -14 -19 796 -20 l818 0 -5 22
c-3 13 -9 36 -13 52 -6 26 -5 28 17 21 13 -4 28 -11 34 -16 5 -5 16 -9 25 -9
9 0 42 -16 74 -35 54 -32 65 -35 137 -35 44 0 79 4 79 9 0 9 -89 92 -144 134
-20 16 -51 47 -67 70 -16 22 -46 50 -66 62 -46 25 -94 86 -112 143 -13 39 -13
43 4 56 18 13 18 16 -17 54 -44 49 -58 75 -89 167 -20 60 -23 90 -24 209 l0
139 50 14 c77 23 163 90 212 167 l26 40 14 -27 c28 -54 117 -26 153 48 17 35
27 45 46 45 30 0 61 30 70 67 3 16 22 63 41 105 48 109 64 199 67 368 2 139 1
148 -26 208 -15 34 -34 65 -43 68 -10 4 -15 20 -15 48 0 47 -23 143 -46 191
-8 18 -32 49 -53 71 -34 34 -39 46 -44 99 -7 85 -45 249 -73 322 -19 46 -22
66 -15 80 6 10 19 49 31 86 11 37 37 104 59 147 21 44 42 101 46 127 8 60 -9
138 -39 178 -13 16 -26 40 -30 51 -3 12 -15 29 -26 39 -11 10 -20 31 -20 47 0
39 -42 113 -96 168 -29 30 -44 54 -44 72 0 36 -26 106 -57 152 -33 50 -39 97
-20 150 9 22 17 50 20 61 5 29 -47 129 -96 182 -58 63 -104 83 -199 83 -94 0
-153 21 -173 61 -10 18 -15 59 -15 119 0 111 -14 145 -75 189 -24 17 -46 31
-49 31 -3 0 -32 17 -63 38 -52 33 -65 37 -119 36 -63 -1 -91 -10 -272 -85 -51
-22 -106 -39 -122 -39 -42 0 -85 42 -112 110 -25 65 -49 84 -149 115 -55 17
-59 17 -141 -4 -46 -11 -95 -21 -108 -21 -24 0 -24 1 12 33 20 17 47 41 61 52
29 25 131 164 124 171 -2 3 -1 22 4 42 26 104 31 145 34 234 2 54 6 102 9 106
3 5 110 53 238 106 128 54 247 104 263 111 153 68 285 118 330 125 53 9 57 8
120 -31 35 -21 72 -39 81 -39 9 0 62 18 116 40 55 22 107 40 114 40 23 0 96
40 138 76 22 19 45 34 52 34 29 0 29 74 3 275 -13 99 -24 119 -118 224 -102
112 -115 117 -205 79 -152 -64 -263 -123 -312 -165 -44 -38 -52 -51 -58 -90
-14 -101 -76 -144 -445 -302 l-163 -70 -57 37 c-31 20 -66 45 -78 55 -21 19
-22 19 -62 -4 -23 -12 -43 -31 -47 -41 -7 -23 -17 -23 -38 1 -29 32 -68 35
-117 10 -24 -12 -51 -28 -60 -36 -12 -10 -23 -11 -48 -2 -28 10 -40 7 -104
-23 -63 -31 -80 -34 -129 -30 -47 4 -61 1 -83 -16 -14 -11 -56 -31 -92 -43
-117 -39 -157 -73 -188 -161 -20 -57 -19 -68 6 -68 11 0 17 -4 14 -10 -3 -5 1
-34 10 -63 19 -64 10 -108 -11 -58 -7 18 -15 48 -16 67 -3 54 -18 51 -18 -3 0
-51 -12 -73 -40 -73 -13 0 -21 20 -34 83 -10 45 -29 109 -42 142 -58 140 -74
198 -74 271 0 40 4 76 10 79 6 3 10 37 10 76 0 64 -2 71 -30 96 -64 57 -86
119 -55 159 20 26 19 29 -11 43 -26 11 -27 20 -9 63 5 13 0 20 -19 28 -23 8
-25 13 -16 29 5 11 15 23 20 26 15 9 12 25 -4 25 -8 0 -24 9 -37 19 -19 16
-22 22 -11 32 17 18 15 42 -3 35 -25 -9 -18 28 10 54 39 37 32 50 -25 50 -45
0 -52 3 -60 26 -6 14 -10 40 -10 58 0 30 -2 33 -25 28 -29 -5 -32 6 -9 49 8
17 13 33 10 36 -5 5 -62 -32 -81 -52 -5 -6 -23 -19 -38 -29 -33 -20 -30 -34 3
-16 40 22 44 4 5 -23 -41 -28 -118 -40 -82 -13 25 20 22 22 -33 22 -27 0 -52
3 -55 6 -8 8 56 78 88 94 41 22 33 1 -15 -40 l-43 -36 45 6 c25 3 61 14 80 23
32 15 35 19 33 56 -1 22 -2 56 -2 74 l-1 35 -34 -33 c-32 -31 -35 -32 -44 -14
-6 11 -8 38 -5 61 6 44 -5 54 -27 27 -22 -26 -34 -11 -31 38 1 26 0 47 -3 47
-17 0 -86 -83 -86 -102 0 -45 -52 -168 -70 -168 -14 0 -13 4 12 52 12 23 23
62 25 86 1 25 9 53 18 62 13 14 14 23 6 39 -6 11 -11 36 -11 55 0 29 -4 36
-20 36 -11 0 -25 -9 -32 -20 -7 -11 -17 -20 -23 -20 -6 0 -16 9 -23 20 -19 30
-32 24 -32 -16 0 -44 -22 -42 -31 3 -7 36 -46 103 -60 103 -5 0 -12 -18 -15
-40 -8 -49 -19 -51 -35 -5 -14 38 -29 46 -29 16 0 -24 -10 -51 -19 -51 -4 0
-13 17 -20 38 -23 64 -61 94 -61 48z m-241 -271 c1 -58 -15 -78 -27 -34 l-9
34 -9 -40 c-11 -47 -12 -245 -1 -295 l7 -35 -26 30 c-14 17 -33 46 -43 65 -21
40 -45 204 -40 265 4 38 5 37 16 -25 7 -36 17 -66 23 -68 5 -2 10 -18 11 -35
1 -18 4 -43 8 -57 7 -25 8 -25 15 -3 4 12 7 51 7 85 0 35 1 100 2 146 l2 82
32 -37 c25 -29 32 -48 32 -78z m-228 -167 c9 -100 18 -131 60 -204 43 -75 28
-90 -39 -40 -27 20 -53 36 -58 36 -4 0 -21 12 -36 27 -40 38 -36 10 7 -54 38
-56 40 -63 25 -63 -22 0 -160 225 -160 261 0 6 15 -9 33 -32 40 -53 66 -65 43
-20 -23 44 -9 39 51 -21 55 -55 82 -62 38 -10 -25 30 -35 56 -13 34 25 -25 31
-11 24 58 -4 38 -11 82 -16 99 -10 35 -2 47 18 27 9 -9 18 -47 23 -98z m832
-42 c3 3 11 -5 18 -18 6 -12 31 -42 55 -65 24 -24 44 -52 44 -62 0 -11 8 -25
18 -31 12 -8 13 -13 5 -16 -18 -8 -16 -18 12 -80 14 -30 31 -54 39 -54 20 0
92 -83 117 -135 12 -25 30 -50 41 -56 12 -7 17 -17 13 -29 -3 -10 -1 -21 5
-25 5 -3 10 -15 10 -26 0 -11 7 -22 15 -25 8 -4 15 -15 15 -25 0 -10 9 -24 20
-31 11 -7 20 -16 20 -20 0 -18 45 -108 53 -108 5 0 7 14 5 30 -5 32 1 37 20
18 9 -9 15 -8 27 8 24 31 19 63 -12 76 -22 9 -24 12 -10 15 23 6 22 20 -3 35
-11 7 -20 18 -20 24 0 19 67 -20 100 -58 36 -41 46 -87 31 -140 -7 -22 -15
-71 -18 -108 -4 -49 -10 -71 -21 -75 -20 -7 -28 2 -36 41 -5 23 -1 37 15 58
15 19 20 37 17 61 -2 20 1 36 8 39 21 8 26 67 7 88 -21 24 -27 17 -12 -15 10
-22 9 -31 -5 -52 -9 -14 -25 -25 -35 -25 -30 0 -33 -13 -6 -34 l26 -21 -26
-35 c-24 -35 -24 -36 -9 -90 16 -57 23 -108 15 -124 -2 -5 -4 -28 -4 -50 0
-53 -5 -61 -28 -40 -24 22 -25 7 -1 -20 16 -18 17 -25 7 -44 -12 -22 -13 -22
-29 -6 -9 9 -19 14 -22 12 -2 -3 2 -11 11 -18 22 -18 19 -32 -17 -87 -50 -75
-57 -86 -75 -120 -13 -25 -19 -30 -30 -22 -9 8 -13 8 -13 1 0 -6 5 -14 10 -17
6 -4 7 -11 4 -17 -4 -6 -10 -5 -16 3 -7 10 -8 6 -4 -12 7 -31 -2 -43 -21 -28
-16 14 -17 -3 -1 -19 9 -9 9 -12 1 -12 -7 0 -15 5 -18 10 -12 20 -26 10 -14
-11 8 -17 8 -20 -1 -14 -9 5 -10 1 -5 -14 4 -13 2 -21 -5 -21 -6 0 -9 -3 -7
-7 3 -5 -8 -23 -24 -42 l-28 -34 -183 2 c-101 1 -207 -3 -236 -7 -63 -11 -68
-5 -56 66 9 45 12 49 69 79 33 18 83 40 110 49 67 22 73 30 46 53 -13 11 -20
24 -17 30 13 20 -11 18 -84 -8 l-74 -27 -38 20 c-39 21 -39 21 -53 2 -21 -28
-18 1 4 39 13 23 27 31 59 37 24 4 49 14 58 23 8 8 16 15 17 16 20 6 205 25
214 22 14 -6 18 13 5 21 -7 4 -97 -3 -219 -17 -24 -3 -33 0 -33 10 0 11 -7 13
-29 8 -52 -11 -47 20 14 92 53 62 66 95 45 108 -5 3 -10 -2 -10 -12 0 -11 -6
-27 -13 -37 -12 -17 -15 -17 -51 8 -44 29 -56 32 -56 12 0 -7 9 -16 20 -19 30
-8 36 -36 12 -59 -25 -25 -38 -18 -47 25 -5 19 -24 48 -49 70 -41 38 -41 39
-45 119 l-3 81 31 -6 c17 -4 31 -2 31 3 0 11 -39 25 -61 22 -9 -2 -24 15 -38
42 -12 25 -37 54 -56 66 -23 14 -35 29 -35 43 0 30 -30 73 -81 117 -43 37 -43
38 -47 113 -4 77 9 184 30 235 10 25 12 19 29 -66 18 -93 48 -160 87 -195 11
-11 18 -25 15 -33 -15 -40 43 -117 98 -128 24 -5 29 -10 29 -36 0 -19 5 -30
14 -30 8 0 24 -13 36 -30 12 -17 26 -27 35 -24 8 3 44 -4 79 -16 76 -25 122
-24 119 3 -2 9 -4 25 -5 34 -2 12 8 20 33 27 21 7 34 16 32 23 -3 7 8 15 24
19 15 4 33 11 39 16 6 4 18 6 26 3 29 -11 53 21 53 72 0 26 4 53 7 59 16 24
-60 68 -114 66 l-38 -2 19 31 c24 39 59 57 98 52 17 -3 34 0 38 7 9 14 -25 52
-41 46 -7 -3 -20 4 -30 15 -13 14 -29 18 -68 17 -46 -2 -57 -7 -104 -50 -30
-26 -58 -48 -62 -48 -5 0 -40 -14 -77 -32 -66 -32 -123 -78 -136 -111 -4 -10
-13 -17 -21 -17 -29 0 -28 40 3 165 25 95 27 201 6 252 -8 20 -13 38 -11 41
11 10 26 -11 41 -59 17 -52 17 -147 0 -194 -6 -15 -5 -17 4 -9 29 27 41 173
20 247 -6 22 -8 42 -4 45 3 3 21 -10 40 -29 42 -41 75 -126 75 -191 0 -61 15
-62 24 -2 11 83 6 158 -15 214 -32 89 -33 90 -17 90 9 0 35 -22 60 -48 58 -62
83 -132 74 -210 l-7 -57 19 30 c35 57 14 243 -34 296 -9 10 -14 23 -12 30 6
18 98 -80 119 -126 10 -22 19 -53 19 -69 0 -16 3 -27 6 -23 10 9 6 81 -6 126
-6 22 -22 53 -35 69 -33 39 -31 46 4 28 16 -9 31 -13 34 -10z m-500 -312 c13
-42 17 -78 14 -126 -2 -38 -1 -68 3 -68 13 0 22 96 15 153 -6 42 -5 50 6 40 8
-8 14 -47 17 -103 4 -76 2 -90 -11 -90 -8 0 -17 -6 -20 -12 -7 -23 -35 10 -51
60 -23 72 -29 118 -21 168 9 60 25 53 48 -22z m3619 -96 c43 -45 78 -86 78
-91 0 -14 -78 52 -107 90 -23 31 -31 34 -60 30 -33 -6 -103 -54 -103 -72 0 -5
-13 -27 -29 -48 -24 -31 -28 -46 -25 -80 5 -51 32 -165 47 -192 10 -20 10 -20
-12 0 -13 11 -28 29 -34 40 -11 21 -28 270 -19 293 7 21 143 112 166 112 12 0
50 -32 98 -82z m-3808 -162 c48 -67 58 -79 81 -92 10 -6 20 -15 22 -20 4 -11
-112 -59 -139 -57 -11 1 -36 -7 -56 -19 -28 -16 -152 -58 -169 -58 -8 0 -1 58
8 67 8 8 3 24 -16 59 -38 68 -43 142 -15 216 12 32 24 60 28 62 4 2 5 -38 4
-88 -4 -84 -1 -98 22 -145 15 -28 32 -51 40 -51 7 0 19 -7 26 -15 7 -8 17 -15
23 -15 6 0 -1 13 -16 28 -15 15 -27 39 -27 52 0 13 -6 31 -14 39 -17 20 -31
111 -18 111 6 0 14 -24 18 -52 l8 -53 8 60 c9 71 36 155 49 155 5 0 9 -18 9
-40 0 -54 60 -180 85 -180 3 0 -4 14 -16 31 -18 26 -22 45 -22 103 0 39 6 85
13 101 13 29 14 26 21 -59 7 -80 11 -94 43 -140z m3450 -21 c-16 -30 -16 -33
10 -81 14 -27 26 -52 26 -57 0 -4 -42 -27 -94 -52 -52 -24 -96 -50 -99 -57
-10 -30 -17 7 -23 131 -7 133 -7 133 13 120 18 -11 30 -9 79 10 32 12 64 31
72 43 l15 21 9 -23 c6 -17 4 -33 -8 -55z m-943 -281 c7 -8 30 -24 51 -35 41
-21 45 -28 26 -47 -15 -15 -58 -16 -58 -2 0 6 -4 10 -10 10 -5 0 -10 -14 -10
-30 0 -17 -7 -44 -15 -61 l-16 -30 -25 30 c-13 16 -38 32 -54 36 l-29 6 31 52
c49 83 82 104 109 71z m-166 -29 l30 -25 -33 -32 c-29 -30 -39 -34 -110 -39
-75 -5 -114 3 -74 15 10 4 40 29 66 56 54 57 76 61 121 25z m-2250 -86 c6 -18
-4 -32 -51 -75 -57 -52 -60 -53 -104 -47 -25 3 -47 7 -49 9 -2 2 1 22 8 44 12
39 33 57 90 75 20 6 23 4 18 -10 -8 -19 8 -55 25 -55 6 0 8 9 5 22 -7 24 17
58 39 58 7 0 16 -10 19 -21z m1259 -106 c35 -91 52 -154 71 -248 20 -101 29
-270 15 -296 -13 -24 -2 -25 16 -2 7 10 15 15 18 12 4 -3 -3 -18 -15 -33 -22
-28 -21 -48 1 -21 27 32 30 13 3 -22 -21 -28 -24 -35 -10 -30 15 6 16 4 7 -13
-13 -24 -8 -24 -106 -6 -44 8 -126 18 -184 21 -143 9 -144 9 -111 46 14 16 35
46 46 67 39 71 98 162 106 162 4 0 7 -36 5 -79 -2 -58 1 -81 10 -85 15 -6 2
-75 -18 -87 -10 -7 -9 -9 4 -9 11 0 20 10 24 28 3 15 10 38 15 52 5 14 11 45
13 70 2 25 9 59 14 76 11 36 28 172 23 194 -1 8 -4 58 -5 110 -1 52 -6 105
-10 118 -7 17 -5 22 8 22 9 0 16 5 16 10 0 30 21 2 44 -57z m868 55 c-7 -7
-12 -24 -12 -40 0 -19 -9 -34 -30 -50 -16 -12 -30 -29 -30 -39 0 -23 -18 -35
-67 -43 -41 -6 -43 -5 -43 19 0 52 23 120 47 143 19 18 36 22 86 22 47 0 58
-3 49 -12z m172 -23 c31 -24 46 -43 46 -58 0 -13 5 -28 10 -33 6 -6 7 -30 4
-57 -7 -47 -19 -60 -30 -32 -4 8 -11 15 -18 15 -6 1 -29 9 -51 19 -25 12 -51
17 -72 14 l-33 -6 1 60 c1 49 6 65 25 87 33 35 62 33 118 -9z m-424 10 c0 -8
9 -15 20 -15 23 0 24 -2 9 -49 -31 -98 -32 -98 -101 -114 -25 -7 -26 -5 -34
46 -10 66 -7 84 19 119 15 21 29 28 54 28 23 0 33 -5 33 -15z m-1836 -17 c9
-36 7 -76 -5 -84 -6 -3 -9 -18 -6 -33 10 -49 -59 -157 -81 -126 -4 6 -26 16
-48 23 -53 15 -65 49 -34 92 11 15 20 32 20 37 0 6 22 22 49 36 27 15 56 38
65 52 20 31 32 32 40 3z m1625 -52 c-5 -26 -6 -53 -2 -60 4 -6 6 -19 5 -29 -2
-10 2 -25 8 -33 10 -11 6 -17 -24 -29 -20 -9 -41 -13 -47 -10 -5 4 -12 -1 -15
-9 -9 -24 -23 -19 -34 12 -6 15 -14 36 -19 47 -5 11 -12 35 -15 54 -5 30 -2
39 24 62 30 28 81 45 99 35 5 -4 13 -1 16 5 12 19 14 5 4 -45z m563 -122 c29
-14 60 -29 68 -33 16 -8 55 -79 48 -87 -3 -2 -21 3 -41 11 -20 8 -41 15 -47
15 -19 0 -10 -21 14 -29 24 -10 78 -72 90 -105 7 -21 -15 -176 -25 -176 -4 0
-11 12 -17 28 -14 38 -41 64 -90 86 -40 18 -72 17 -72 -3 0 -5 22 -22 48 -36
52 -28 81 -77 96 -156 7 -42 -13 -70 -37 -50 -10 8 -23 6 -51 -9 -37 -19 -66
-18 -66 3 0 22 -56 81 -111 117 -49 31 -74 40 -146 51 -49 6 -92 15 -98 20
-11 8 -180 -16 -199 -29 -6 -3 -14 -7 -18 -8 -5 -1 -10 -3 -13 -4 -3 -1 -8 -3
-12 -5 -29 -8 -43 -20 -43 -36 0 -25 18 -24 115 7 65 21 101 25 206 27 l127 2
59 -40 c62 -42 98 -97 90 -137 -3 -20 -7 -17 -22 20 -20 48 -35 54 -35 16 0
-14 -8 -40 -17 -57 -10 -18 -19 -33 -20 -35 0 -2 -20 17 -43 42 -26 28 -57 50
-81 58 -22 6 -39 15 -39 19 0 5 -20 18 -45 29 -40 18 -57 19 -167 14 -68 -4
-131 -10 -140 -15 -14 -8 -16 -3 -13 34 2 23 4 45 4 49 2 15 131 77 191 92
162 38 371 52 431 28 25 -10 27 -8 32 16 3 15 4 29 2 31 -2 2 -48 5 -102 8
-54 2 -107 6 -118 8 -11 2 -26 4 -32 4 -17 1 -16 21 2 58 21 42 93 58 278 62
80 1 81 17 2 26 -56 7 -62 13 -46 43 5 9 12 25 15 35 7 23 25 22 88 -9z m-371
-556 c86 -55 130 -118 83 -118 -8 0 -22 -9 -31 -20 -10 -11 -23 -20 -29 -20
-6 0 -17 -6 -23 -13 -9 -12 -21 -9 -68 15 -32 15 -70 39 -86 53 -15 14 -33 25
-40 25 -6 0 -34 11 -62 25 -49 24 -95 32 -108 18 -9 -9 -107 -12 -107 -3 0 40
175 81 325 76 84 -2 95 -5 146 -38z m-295 -99 c32 -6 77 -19 99 -29 22 -10 54
-24 72 -30 37 -14 68 -44 59 -59 -4 -5 -23 -15 -43 -22 -21 -7 -43 -17 -49
-23 -6 -6 -24 -22 -39 -34 l-27 -24 -32 31 c-18 17 -35 31 -40 31 -4 0 -26 9
-49 19 -23 11 -45 18 -48 18 -3 -1 -13 4 -21 10 -21 18 -113 36 -180 36 -32
-1 -58 2 -58 6 0 4 18 18 41 33 31 20 59 28 117 33 42 4 82 8 87 10 19 7 52 5
111 -6z m-120 -137 c11 -6 39 -20 64 -32 56 -27 80 -48 80 -70 0 -20 -19 -40
-38 -40 -7 0 -32 -15 -55 -33 -23 -19 -49 -37 -57 -40 -8 -4 -22 -11 -30 -17
-50 -31 -182 -100 -193 -100 -8 0 -20 -7 -27 -15 -7 -8 -20 -15 -30 -15 -10 0
-23 -7 -30 -15 -7 -9 -19 -14 -26 -11 -7 3 -18 -2 -24 -9 -7 -8 -16 -13 -20
-10 -4 3 -19 -4 -33 -15 -14 -11 -32 -20 -40 -20 -8 0 -26 -9 -40 -20 -14 -11
-30 -20 -36 -20 -6 0 -19 -4 -29 -9 -39 -20 -70 -30 -130 -42 -34 -6 -65 -15
-67 -20 -3 -4 -27 -15 -54 -24 -27 -9 -52 -22 -54 -29 -3 -8 -21 -16 -39 -20
-19 -3 -52 -15 -73 -26 -22 -11 -47 -20 -55 -20 -9 0 -20 -3 -24 -7 -4 -4 -19
-8 -34 -9 -15 -1 -74 -7 -132 -13 -58 -6 -115 -10 -127 -7 -28 6 -134 -22
-155 -41 -10 -9 -51 -32 -92 -52 -86 -42 -205 -134 -180 -139 8 -2 23 3 32 11
25 23 212 108 250 114 20 4 32 2 32 -6 0 -6 7 -11 16 -11 15 0 238 52 369 86
178 47 426 148 640 261 77 41 217 111 310 157 94 46 201 107 239 135 37 28 72
48 77 45 5 -3 9 -20 9 -38 0 -35 -40 -83 -59 -71 -6 3 -11 -1 -11 -9 0 -8 -19
-29 -43 -45 -23 -17 -51 -42 -61 -56 -10 -14 -25 -25 -32 -25 -8 0 -14 -4 -14
-10 0 -5 -9 -10 -20 -10 -11 0 -20 -4 -20 -10 0 -5 -7 -10 -15 -10 -8 0 -15
-4 -15 -8 0 -4 -33 -33 -72 -62 -40 -30 -95 -74 -123 -97 -27 -24 -55 -43 -61
-43 -6 0 -19 -9 -29 -20 -10 -12 -25 -18 -32 -16 -8 3 -18 -5 -25 -19 -10 -23
-42 -42 -61 -37 -5 1 -17 -8 -27 -20 -11 -13 -19 -19 -20 -14 0 5 -10 0 -22
-11 -13 -11 -66 -35 -118 -52 -52 -17 -104 -36 -115 -41 -39 -17 -65 -21 -65
-10 0 6 -10 4 -24 -6 -14 -8 -29 -16 -33 -16 -15 -1 -38 -9 -66 -24 -16 -8
-33 -12 -38 -8 -5 3 -45 6 -89 7 -44 1 -80 4 -80 8 0 13 -44 18 -64 6 -29 -16
-57 -17 -63 -1 -4 10 -9 9 -24 -5 -11 -10 -41 -21 -67 -25 -34 -5 -58 -16 -87
-42 l-40 -36 38 7 c93 16 279 21 450 14 26 -1 57 3 70 9 12 5 58 23 102 38 44
15 127 47 184 70 65 28 126 46 163 49 59 6 136 40 170 75 9 10 43 30 75 46 32
15 82 39 112 53 29 14 58 36 64 49 11 23 175 157 183 149 7 -7 -49 -73 -168
-196 -145 -151 -195 -207 -225 -253 -14 -20 -50 -53 -82 -73 -31 -20 -68 -53
-81 -73 -33 -49 -80 -92 -101 -92 -9 0 -22 -7 -29 -15 -14 -17 -136 -20 -146
-4 -9 15 -21 10 -50 -16 -15 -14 -44 -30 -65 -35 -25 -7 -44 -21 -58 -43 -41
-67 -97 -108 -68 -49 16 31 42 160 34 168 -3 3 -59 7 -124 8 -123 2 -143 7
-143 33 0 10 -6 13 -16 9 -9 -3 -22 -6 -29 -6 -7 0 -16 -11 -19 -24 -3 -13
-13 -26 -21 -30 -11 -4 -15 2 -15 24 0 23 -4 30 -20 30 -11 0 -20 -6 -20 -13
0 -8 -15 -22 -32 -32 -18 -9 -46 -37 -61 -61 -16 -24 -36 -44 -45 -45 -9 0
-43 -36 -76 -81 -32 -44 -61 -76 -65 -71 -3 5 -21 15 -38 22 -18 8 -33 16 -33
20 0 3 25 24 55 45 65 47 98 81 94 95 -2 6 -19 -2 -37 -19 -19 -17 -44 -30
-59 -30 -13 0 -36 -9 -50 -19 -19 -16 -30 -18 -50 -10 -20 7 -30 6 -40 -4 -12
-12 -19 -9 -50 19 -20 18 -39 31 -43 29 -22 -13 -43 169 -26 235 l8 35 -31
-29 c-17 -16 -34 -26 -38 -23 -12 12 38 55 101 87 68 35 126 72 126 81 0 11
-97 1 -121 -12 -13 -7 -27 -13 -31 -14 -3 0 -10 -3 -14 -7 -14 -15 -70 -8 -90
11 -11 10 -42 30 -70 45 -52 30 -85 56 -68 56 6 0 19 8 30 18 40 37 131 56
274 58 128 1 139 2 210 33 41 18 96 39 122 47 26 8 50 19 53 24 3 6 15 10 25
10 24 0 232 130 238 149 3 10 -6 8 -30 -7 -28 -17 -51 -22 -107 -22 -44 0 -83
-6 -101 -15 -27 -14 -63 -16 -75 -3 -9 8 -97 -13 -120 -28 -23 -17 -35 -18
-35 -4 0 6 -9 23 -20 39 -18 23 -20 33 -11 70 8 36 7 44 -10 54 -17 11 -17 12
-1 30 10 11 12 21 6 25 -5 4 -10 19 -10 33 -1 22 7 30 61 57 34 18 71 32 81
32 10 0 41 7 68 15 55 17 173 19 495 8 l203 -6 -41 -34 c-22 -19 -41 -40 -41
-47 0 -6 -22 -34 -50 -61 -45 -45 -65 -85 -41 -85 6 0 31 18 56 40 25 22 55
40 66 40 16 0 69 35 136 90 7 6 16 10 20 11 4 0 35 20 68 45 85 62 206 134
228 134 10 0 37 10 60 23 23 12 69 25 102 28 79 9 228 3 251 -9z m-1864 -11
c13 -5 41 -14 63 -21 36 -11 195 -97 195 -105 0 -2 -38 -29 -85 -61 -46 -31
-92 -65 -101 -75 -12 -13 -31 -19 -63 -19 -70 0 -200 -26 -256 -51 -71 -31
-159 -30 -195 2 -32 28 -66 49 -81 49 -18 0 -41 28 -28 36 7 4 9 21 5 44 -5
32 -3 39 17 48 16 8 17 11 6 11 -21 1 -109 -37 -131 -56 -10 -9 -18 -11 -22
-4 -9 14 103 96 179 132 110 52 227 77 357 78 64 1 127 -3 140 -8z m-802 -280
c0 -4 20 -11 45 -14 25 -4 56 -13 68 -22 15 -10 41 -14 76 -12 28 2 54 0 56
-3 3 -4 28 -10 57 -14 29 -4 58 -12 65 -18 7 -6 24 -7 38 -4 31 8 106 -4 99
-15 -7 -12 13 -11 37 1 33 18 229 58 229 47 0 -6 -17 -33 -38 -61 -63 -83
-111 -177 -114 -223 -2 -18 -33 -16 -52 2 -16 16 -40 15 -90 -4 -24 -10 -31
-9 -42 6 -7 10 -14 21 -14 24 0 14 -55 5 -74 -12 -11 -11 -28 -19 -39 -19 -10
0 -30 -9 -44 -20 -21 -17 -27 -17 -39 -5 -8 7 -14 17 -14 22 0 4 -11 20 -23
35 -18 20 -35 28 -70 32 -25 2 -50 7 -56 10 -13 8 -51 -29 -51 -49 0 -18 18
-52 45 -83 33 -39 23 -163 -16 -198 -23 -20 -24 -13 -5 24 7 15 17 43 20 62 7
35 7 35 -8 10 -9 -14 -15 -32 -16 -41 0 -8 -11 -26 -25 -39 -27 -26 -34 -16
-10 16 8 10 14 33 14 49 0 28 -1 26 -21 -17 -11 -27 -24 -48 -29 -48 -11 0
-11 -2 1 40 8 32 8 33 -5 16 -18 -24 -30 -15 -16 12 14 26 15 54 1 32 -11 -20
-77 -90 -84 -90 -3 0 4 21 14 48 l20 47 -25 -30 c-14 -16 -25 -33 -25 -37 0
-5 -5 -8 -11 -8 -7 0 -8 7 -4 18 17 42 15 45 -9 17 -34 -40 -45 -24 -12 19 35
47 33 58 -3 18 -43 -46 -48 -22 -6 28 45 53 45 67 1 17 -20 -22 -37 -34 -41
-28 -7 13 10 46 41 80 13 14 24 30 24 36 0 5 -14 -6 -29 -25 -16 -19 -33 -32
-36 -28 -9 8 16 68 28 68 5 0 5 5 2 10 -4 6 0 22 9 35 9 13 16 29 16 35 0 6
11 26 25 44 14 18 25 38 25 44 0 6 5 12 10 14 6 2 12 18 14 36 3 23 18 45 53
77 48 44 63 53 63 36z m-280 -326 c-17 -20 -15 -95 3 -129 9 -16 22 -49 29
-74 8 -28 20 -47 31 -50 19 -5 18 -27 0 -27 -11 0 -58 41 -102 90 -13 14 -25
37 -26 50 -2 13 -6 28 -9 34 -4 5 -2 12 3 15 6 4 6 18 0 38 -10 37 1 55 39 61
15 2 31 5 36 6 5 0 3 -6 -4 -14z m3857 -621 c3 -8 12 -13 19 -10 8 3 14 1 14
-5 0 -6 4 -8 9 -4 5 3 17 -2 26 -11 9 -9 19 -14 22 -11 3 4 15 -5 26 -19 l19
-25 -21 -20 c-11 -11 -21 -24 -21 -29 0 -6 -7 -10 -16 -10 -15 0 -16 -9 -10
-61 3 -33 9 -66 13 -72 4 -7 8 -16 9 -22 0 -5 2 -16 2 -22 1 -7 9 -13 17 -13
9 0 12 -6 8 -16 -4 -12 -2 -15 8 -12 8 2 15 14 17 26 2 12 9 22 16 22 17 0 53
40 58 65 3 17 7 15 22 -14 13 -25 18 -55 17 -114 -1 -61 3 -85 15 -99 24 -26
13 -106 -26 -199 -30 -74 -95 -159 -120 -159 -7 0 6 18 28 39 47 46 74 93 66
115 -3 8 1 25 10 38 18 25 21 58 7 58 -5 0 -11 -5 -13 -12 -8 -24 -24 2 -23
38 0 41 19 57 28 24 3 -11 11 -20 17 -20 19 0 3 52 -22 73 -20 17 -22 17 -43
-3 l-22 -21 -6 38 c-9 52 -45 93 -74 82 -18 -6 -23 -3 -31 21 -14 40 -48 57
-72 35 -11 -10 -20 -12 -24 -6 -4 5 4 17 16 26 l23 17 -22 -5 c-16 -3 -23 -1
-23 9 0 8 10 14 23 14 33 0 49 15 45 41 -3 25 -21 28 -80 14 -36 -9 -36 7 -1
58 29 42 24 68 -13 76 -25 5 -34 19 -34 59 0 34 23 45 34 17 8 -23 29 -18 23
5 -4 17 0 20 24 20 18 0 32 -6 36 -16z m-2136 -384 c-12 -16 -29 -42 -40 -58
-15 -22 -19 -48 -20 -131 -1 -120 -14 -157 -51 -154 -14 2 -71 6 -127 9 -66 5
-101 11 -100 18 1 6 -4 10 -12 8 -12 -3 -12 0 -1 12 10 13 10 16 -4 16 -21 0
-47 24 -51 48 -2 12 -11 16 -31 15 -24 -2 -26 0 -11 8 24 14 13 27 -19 21 -24
-4 -25 -2 -19 18 7 22 5 23 -26 17 -26 -5 -30 -4 -16 4 26 15 21 32 -8 27 -22
-5 -25 -2 -19 14 5 17 3 19 -18 13 l-23 -7 23 17 c43 31 25 43 -32 20 -16 -7
-17 -6 -6 14 12 24 73 53 160 78 73 21 463 34 468 16 2 -7 -6 -26 -17 -43z
m3403 -234 c25 -37 46 -74 46 -81 0 -7 3 -15 8 -17 9 -4 68 -116 82 -155 8
-23 8 -25 -3 -10 -34 52 -36 54 -37 30 0 -12 5 -25 10 -28 13 -8 13 -25 0 -25
-6 0 -16 11 -22 25 -6 14 -20 25 -31 25 -10 0 -30 10 -42 22 -19 18 -21 26
-13 41 12 23 -7 40 -33 31 -12 -3 -18 3 -22 21 -3 19 -1 23 6 16 17 -17 26
-13 20 8 -3 11 2 30 10 42 17 24 11 51 -23 99 -20 28 -28 53 -11 35 4 -6 29
-41 55 -79z m190 -12 c14 -31 26 -58 26 -60 0 -2 -16 -4 -35 -4 -50 0 -43 -16
15 -35 35 -12 50 -22 50 -34 0 -10 3 -21 8 -25 11 -11 9 -76 -3 -76 -16 1 -84
86 -102 127 -9 21 -19 53 -23 71 -7 28 -5 32 12 32 14 0 18 5 14 15 -5 14 1
45 9 45 2 0 15 -25 29 -56z m-2949 36 c-121 -32 -150 -51 -99 -64 19 -5 31 -2
44 12 38 41 325 71 437 47 16 -4 25 -17 34 -48 6 -23 26 -86 45 -140 34 -98
45 -189 24 -202 -5 -3 -10 3 -10 14 0 25 -15 28 -24 5 -5 -12 -9 -14 -20 -5
-10 8 -16 8 -25 -3 -7 -8 -26 -18 -42 -21 -16 -4 -29 -11 -29 -16 0 -6 -6 -9
-12 -8 -22 2 -58 -13 -58 -25 0 -6 -5 -4 -10 4 -7 12 -12 12 -22 2 -16 -16
-60 -16 -77 1 -11 10 -14 10 -18 0 -6 -18 -23 -16 -23 2 0 8 -9 15 -20 15 -11
0 -23 6 -26 14 -3 8 -12 12 -20 9 -9 -3 -14 1 -14 12 0 11 -7 15 -22 13 -16
-2 -26 4 -33 20 -10 23 -25 30 -25 12 0 -5 -4 -10 -10 -10 -5 0 -10 16 -10 35
0 19 -4 35 -10 35 -5 0 -10 -6 -10 -12 -1 -7 -6 -4 -13 8 -7 12 -18 19 -24 17
-9 -3 -13 7 -13 31 0 29 -4 36 -20 36 -15 0 -20 7 -20 26 0 18 -4 25 -14 21
-9 -4 -16 3 -21 20 -3 14 -5 26 -3 27 2 2 20 13 41 25 28 17 35 26 27 36 -15
18 9 34 72 50 61 15 126 19 73 5z m2186 -74 c-12 -13 -18 -27 -13 -30 5 -3 17
3 27 14 10 11 21 20 25 20 9 0 122 -172 151 -230 12 -25 25 -58 28 -75 5 -21
16 -34 39 -44 29 -13 32 -19 32 -57 0 -24 5 -46 10 -49 26 -16 3 -25 -65 -25
-70 0 -141 -11 -192 -31 -15 -6 -23 -5 -23 2 0 16 -29 41 -40 34 -5 -3 -10 1
-10 9 0 19 -11 21 -28 4 -9 -9 -12 -8 -12 6 0 12 -5 16 -15 12 -10 -4 -15 1
-15 16 0 17 -2 18 -15 8 -11 -9 -15 -9 -15 -1 0 20 29 81 38 81 5 0 29 19 53
43 41 40 88 70 74 47 -10 -16 2 -12 42 16 l38 26 -45 -7 c-47 -8 -75 -25 -155
-92 -27 -24 -54 -43 -59 -43 -5 0 -15 -8 -23 -17 -10 -13 -9 -7 3 22 9 22 19
49 22 60 5 18 4 18 -12 6 -15 -13 -16 -12 -6 13 13 35 13 39 -1 30 -9 -5 -10
3 -5 30 5 23 3 36 -4 36 -11 0 -6 56 7 90 7 16 9 25 12 38 1 4 8 -2 16 -13 15
-19 15 -19 31 3 20 29 37 28 29 0 -5 -17 5 -11 37 23 24 26 47 47 52 48 5 1
-1 -10 -13 -23z m-405 -145 c-3 -125 -8 -144 -31 -134 -17 6 -19 -1 -5 -27 8
-15 6 -17 -10 -13 -23 6 -25 0 -9 -29 8 -15 8 -19 0 -14 -7 4 -11 -1 -11 -13
0 -12 -5 -21 -10 -21 -6 0 -17 -14 -24 -31 -8 -19 -16 -27 -20 -20 -10 16 -26
14 -26 -4 0 -8 4 -15 9 -15 5 0 12 -7 15 -15 10 -28 -23 -28 -64 -1 -22 14
-45 26 -51 26 -21 0 -67 60 -74 97 -5 26 -2 40 11 54 9 10 19 41 22 68 l4 50
24 -16 c71 -46 154 -3 214 110 19 37 36 67 37 67 1 0 1 -53 -1 -119z m-3292
40 c9 -13 103 -61 122 -61 11 0 15 -6 11 -20 -3 -11 -1 -23 4 -26 35 -21 -32
-48 -89 -36 -60 14 -123 96 -107 140 5 14 51 17 59 3z m484 -69 c2 -7 -9 -15
-27 -18 -17 -4 -33 -9 -35 -13 -9 -14 24 -71 41 -71 15 0 15 -2 4 -9 -8 -5
-30 -8 -48 -5 -18 2 -33 0 -33 -5 0 -14 -34 -8 -44 8 -5 8 -11 10 -15 3 -3 -6
-28 -12 -56 -13 l-50 -3 -6 34 c-3 19 -11 46 -18 58 -7 13 -11 25 -9 27 8 7
159 21 222 21 46 -1 71 -5 74 -14z m-1274 -21 c3 -4 28 -11 55 -15 52 -7 61
-17 61 -67 0 -16 5 -29 11 -29 6 0 9 -7 5 -15 -3 -8 -1 -15 5 -15 6 0 8 -9 4
-20 -4 -11 -2 -20 4 -20 6 0 11 -6 11 -14 0 -13 27 -31 42 -28 4 1 5 -5 2 -13
-4 -8 -1 -15 5 -15 6 0 8 -7 4 -17 -5 -12 -2 -15 10 -10 11 4 17 1 17 -8 0 -8
5 -15 11 -15 6 0 8 -8 4 -19 -5 -16 -2 -18 15 -14 14 4 20 1 18 -8 -2 -8 3
-13 10 -11 6 1 12 -5 12 -13 0 -8 5 -15 10 -15 6 0 10 -8 10 -18 0 -10 5 -23
12 -30 10 -9 8 -16 -5 -29 -16 -16 -19 -14 -51 23 -20 21 -35 45 -36 52 0 14
-40 75 -53 81 -16 6 -87 124 -87 142 0 23 -19 48 -87 117 -29 28 -46 52 -38
52 7 0 16 -4 19 -9z m943 -86 c-9 -7 -15 -14 -13 -16 2 -2 6 -24 9 -49 l6 -45
-17 43 c-18 42 -40 58 -34 24 5 -30 25 -77 40 -94 16 -20 8 -38 -17 -38 -10 0
-24 -7 -31 -15 -7 -8 -29 -15 -50 -15 -20 0 -50 -4 -66 -9 -16 -5 -41 -12 -57
-15 -15 -4 -36 -15 -47 -26 -29 -29 -168 -100 -196 -100 -37 0 -29 18 14 30
62 17 65 22 57 76 -4 27 -11 54 -16 60 -12 15 170 133 217 141 20 3 73 20 118
38 77 31 118 36 83 10z m-1473 -40 c8 -8 23 -12 33 -9 15 5 15 4 3 -5 -10 -7
-11 -11 -2 -11 24 0 11 -30 -20 -47 -30 -16 -31 -18 -11 -21 12 -2 37 5 55 14
29 15 31 15 20 1 -8 -9 -22 -19 -33 -22 -37 -12 -19 -25 26 -18 25 3 45 3 45
0 0 -21 -16 -37 -36 -37 -15 0 -24 -6 -24 -15 0 -8 -4 -15 -10 -15 -5 0 -10
-6 -10 -14 0 -8 -9 -18 -20 -21 -33 -11 -23 -23 21 -23 37 -1 136 -39 126 -49
-3 -2 -22 0 -44 6 -21 6 -73 13 -117 15 -77 5 -142 20 -160 37 -6 5 -17 9 -25
9 -20 0 -81 60 -81 80 0 9 11 23 25 30 14 8 23 20 21 27 -3 7 1 13 10 13 11 0
14 6 9 23 -6 19 -3 18 18 -8 27 -32 50 -28 29 5 -18 29 -15 36 7 16 12 -11 21
-13 25 -7 13 20 63 38 80 29 23 -13 32 -3 16 17 -16 20 4 20 24 0z m2075 -55
c20 0 91 -37 102 -54 4 -5 23 -6 42 -3 l35 5 36 -146 c37 -156 52 -244 60
-357 5 -56 3 -65 -5 -42 -11 29 -36 33 -55 8 -17 -22 -60 -22 -85 0 -14 12
-30 17 -44 13 -21 -5 -23 0 -40 93 -15 87 -65 325 -76 362 -2 8 6 15 21 17 35
6 46 20 30 39 -16 19 -34 19 -50 0 -12 -14 -15 -14 -31 1 -21 19 -24 37 -9 65
9 15 15 17 30 9 10 -5 28 -10 39 -10z m-172 -118 c-10 -10 -17 -22 -17 -26 0
-11 23 -31 45 -40 30 -11 3 -23 -70 -30 -33 -4 -86 -12 -117 -18 -44 -8 -61
-8 -72 1 -20 17 -25 3 -20 -61 2 -36 -1 -60 -9 -66 -9 -8 -12 7 -13 66 -1 43
-7 90 -13 106 -7 16 -8 33 -3 38 4 4 71 17 147 29 77 11 142 23 144 25 2 2 7
2 9 -1 3 -3 -2 -13 -11 -23z m3566 -42 c32 -12 61 -29 64 -38 3 -10 20 -30 37
-46 l31 -28 -29 17 c-18 11 -39 15 -57 11 -15 -3 -31 -1 -35 5 -4 8 -9 8 -17
0 -7 -7 -14 -7 -24 0 -10 9 -13 8 -13 -2 0 -10 -16 -14 -59 -15 -52 0 -61 2
-72 23 -19 35 -43 30 -35 -7 4 -21 2 -29 -5 -24 -6 3 -59 6 -118 6 -66 0 -111
4 -120 11 -11 9 -15 9 -19 -1 -3 -10 -8 -9 -23 4 -18 16 -19 16 -19 -1 0 -14
-3 -15 -14 -6 -10 9 -16 9 -21 1 -4 -6 -13 -9 -20 -6 -7 2 -16 2 -19 -2 -8 -7
-56 -15 -56 -8 0 7 83 43 165 70 44 15 89 31 100 36 58 25 89 29 200 26 94 -3
133 -8 178 -26z m-2476 0 c26 -17 72 -90 72 -115 0 -11 9 -63 20 -115 31 -138
53 -354 46 -430 -8 -77 -32 -167 -47 -176 -8 -5 -9 1 -4 17 33 105 38 148 33
262 -3 64 -11 125 -17 135 -9 13 -10 -3 -6 -68 l5 -85 -82 3 c-45 2 -89 6 -97
9 -8 3 -19 5 -24 4 -4 -1 -15 4 -23 11 -11 9 -16 9 -23 -1 -10 -18 -16 -4 -19
43 -2 50 -45 233 -66 282 -19 47 -20 71 -2 55 8 -6 16 -8 20 -5 3 3 28 8 56
11 36 3 51 1 51 -7 0 -9 4 -9 13 -2 9 8 19 8 34 -1 11 -7 38 -22 59 -34 37
-20 47 -35 74 -107 7 -19 14 -26 20 -20 6 6 1 48 -15 114 -51 210 -63 222
-199 200 -45 -7 -99 -19 -121 -26 -28 -9 -43 -10 -52 -2 -23 19 -14 24 70 42
45 10 87 20 92 22 20 7 113 -4 132 -16z m323 -35 c-7 -9 -10 -18 -6 -22 3 -3
6 -1 6 5 0 7 4 12 9 12 6 0 9 -17 7 -37 l-2 -38 -89 1 c-148 3 -140 1 -158 39
-10 20 -12 37 -7 40 6 3 10 0 10 -8 0 -16 48 -20 66 -6 14 11 36 8 46 -6 4 -5
14 -3 25 7 26 23 63 32 63 17 0 -9 5 -8 17 4 20 20 31 14 13 -8z m-1725 -42
c4 -21 9 -58 11 -83 3 -41 1 -46 -23 -57 -15 -7 -37 -13 -49 -13 -12 0 -34 -6
-49 -14 -15 -8 -50 -18 -77 -21 -27 -4 -70 -19 -95 -33 -25 -14 -69 -31 -97
-38 -28 -7 -76 -22 -106 -33 -56 -22 -116 -28 -105 -12 3 5 19 12 35 16 17 4
30 13 30 21 0 18 -6 18 -75 -6 -63 -22 -75 -17 -75 26 0 35 66 84 114 84 22 0
26 -5 26 -27 0 -45 12 -55 64 -51 50 3 60 23 12 24 -19 0 -36 10 -52 30 -32
39 -30 48 14 64 20 8 40 16 44 18 4 2 12 -15 19 -37 17 -56 39 -54 39 4 0 26
-5 45 -11 45 -7 0 -9 -10 -5 -25 8 -32 -7 -32 -22 0 -10 20 -9 26 6 34 34 17
295 102 305 98 6 -2 27 2 46 9 58 21 68 18 76 -23z m822 24 c42 4 42 4 48 -34
9 -52 27 -103 37 -103 11 0 10 17 -3 63 -6 21 -8 44 -6 50 7 22 77 -236 77
-286 0 -16 4 -37 10 -47 6 -11 7 -50 3 -96 -5 -59 -8 -72 -15 -54 -5 12 -6 37
-3 54 3 17 1 45 -4 61 l-8 30 -11 -27 c-13 -33 -51 -38 -77 -11 -9 9 -20 12
-23 7 -4 -5 -16 -9 -27 -9 -17 0 -20 8 -23 55 -2 59 -28 279 -39 333 -5 27 -4
30 8 21 8 -7 33 -10 56 -7z m820 -109 c17 -8 20 -15 12 -24 -7 -8 -7 -14 1
-19 13 -8 34 -55 31 -72 -1 -6 3 -14 9 -18 5 -3 10 -15 10 -26 0 -11 11 -24
25 -31 23 -10 29 -20 26 -40 0 -5 3 -8 8 -8 5 0 11 -13 13 -30 3 -16 0 -30 -5
-30 -5 0 -7 -7 -4 -15 4 -8 2 -17 -4 -21 -7 -4 -6 -10 0 -18 6 -7 8 -15 5 -19
-3 -3 -7 -32 -9 -65 -3 -65 -14 -124 -24 -132 -9 -8 -61 -114 -61 -126 0 -6
-13 -23 -30 -39 -16 -16 -30 -37 -30 -47 0 -10 -7 -18 -15 -18 -8 0 -15 -7
-15 -15 0 -22 -27 -18 -33 5 -3 13 0 20 9 20 8 0 14 7 14 15 0 8 7 15 15 15 8
0 15 7 15 15 0 8 5 15 10 15 6 0 10 9 10 21 0 17 4 19 22 13 20 -6 21 -5 10 8
-10 13 -9 17 5 22 14 6 15 9 3 16 -11 7 -11 11 -1 24 7 8 10 20 6 26 -3 6 3
10 17 10 22 1 22 1 4 15 -19 15 -19 15 3 15 20 0 21 2 11 15 -10 12 -10 15 3
15 12 0 15 9 13 35 -1 19 2 37 8 39 6 2 -3 10 -20 17 -30 12 -32 16 -33 68 0
31 -5 71 -11 90 -5 19 -7 38 -4 43 3 5 -2 18 -11 28 -9 10 -14 23 -11 28 3 5
-3 17 -14 27 -11 10 -20 24 -20 30 0 7 -20 42 -45 79 l-44 67 52 -6 c29 -4 62
-11 74 -17z m170 1 c12 -4 23 -15 23 -23 0 -7 7 -17 16 -20 9 -4 14 -13 10
-21 -6 -17 10 -53 32 -70 23 -19 32 -297 11 -355 -1 -3 -1 -8 0 -12 4 -29 -37
-167 -56 -188 -13 -14 -23 -28 -23 -32 0 -25 -82 -118 -105 -118 -9 0 -12 -6
-9 -15 7 -16 -4 -19 -24 -7 -16 10 -5 42 14 42 8 0 14 5 14 10 0 6 7 10 16 10
10 0 14 6 10 15 -3 9 0 15 9 15 8 0 15 5 15 10 0 6 10 10 21 10 17 0 19 3 10
14 -9 10 -9 16 -1 21 8 5 8 11 -1 21 -8 10 -8 14 0 14 6 0 13 11 17 25 3 14
10 25 15 25 5 0 9 7 9 15 0 8 5 15 11 15 6 0 9 7 5 15 -3 8 -1 15 4 15 6 0 10
11 10 25 0 17 -8 29 -25 37 -25 11 -25 11 -19 117 5 96 4 114 -20 186 -14 44
-43 110 -66 147 -22 37 -40 70 -40 74 0 8 83 -4 117 -17z m-666 -76 c30 -96
49 -200 47 -258 -1 -44 -2 -46 -5 -12 -5 44 -26 46 -31 3 -3 -27 -5 -28 -52
-23 -31 3 -50 1 -53 -6 -2 -6 -8 -8 -14 -4 -5 3 -13 48 -16 99 -4 51 -15 129
-27 172 -11 44 -20 81 -20 83 0 1 9 -6 20 -17 11 -11 26 -17 35 -14 8 4 22 1
30 -6 13 -10 15 -9 15 11 0 46 22 2 46 -92 13 -51 28 -97 35 -103 18 -18 3 72
-37 212 -3 12 -4 22 -1 22 4 0 16 -30 28 -67z m3316 55 c4 -7 9 -22 10 -33 2
-10 7 -22 12 -25 5 -3 11 -15 15 -27 4 -13 14 -30 22 -38 13 -13 12 -19 -13
-50 -24 -30 -29 -32 -35 -17 -3 9 -7 13 -8 7 0 -5 -10 10 -22 35 -12 25 -21
48 -20 53 1 4 -2 7 -8 7 -5 0 -10 7 -10 16 0 8 -4 12 -10 9 -21 -13 -9 20 17
47 30 31 38 34 50 16z m-4119 -19 c-18 -10 -24 -45 -10 -65 4 -5 23 -15 42
-20 23 -6 36 -17 38 -29 2 -15 1 -17 -6 -6 -8 10 -14 11 -32 1 -33 -18 -238
-15 -257 3 -15 15 -22 5 -26 -35 -3 -39 -4 -38 -5 12 -1 30 -9 68 -17 84 -8
15 -15 30 -15 31 0 10 163 30 265 33 32 1 36 -1 23 -9z m2032 -52 c0 -12 -4
-29 -10 -37 -6 -9 -5 -17 3 -22 8 -5 6 -8 -5 -8 -10 0 -18 -6 -18 -14 0 -14
-2 -14 -171 -8 -50 2 -57 5 -68 29 -10 23 -10 29 3 39 20 14 10 24 -28 26 -51
2 81 13 192 15 99 2 102 1 102 -20z m1325 8 c77 -5 158 -14 180 -21 39 -12 39
-12 -26 -7 -43 4 -74 1 -90 -7 -37 -20 -78 -64 -69 -75 4 -5 11 -21 15 -34 l7
-23 -73 6 c-41 3 -143 8 -226 12 -84 4 -153 10 -153 15 0 5 -8 9 -19 9 -18 0
-52 30 -35 30 5 0 2 6 -7 13 -17 13 -33 47 -30 61 1 5 -3 12 -9 16 -6 4 19 8
56 8 36 1 69 3 71 6 6 6 224 1 408 -9z m-3658 -98 c6 -70 -3 -85 -37 -67 -15
8 -20 21 -20 50 0 21 -5 42 -11 46 -7 4 -10 -7 -9 -32 3 -53 -1 -64 -10 -34
l-8 25 -1 -25 c-1 -42 17 -56 76 -59 7 -1 17 -10 23 -21 9 -17 7 -19 -17 -19
-16 0 -41 -2 -58 -4 -16 -3 -68 -8 -114 -11 -54 -4 -91 -12 -101 -21 -35 -32
-84 -7 -88 45 -1 19 -7 39 -13 45 -7 7 -10 -4 -7 -35 3 -44 2 -45 -27 -45 -25
0 -32 5 -40 33 -5 17 -15 32 -22 32 -55 0 88 84 161 95 27 4 90 20 140 36 115
38 159 48 170 38 4 -4 10 -36 13 -72z m2667 -87 c120 -7 161 -13 170 -24 9
-13 63 -16 321 -21 195 -4 314 -10 320 -17 7 -7 -72 -9 -260 -5 -318 8 -343 5
-347 -32 l-3 -26 -18 32 c-14 26 -26 33 -71 43 -30 6 -87 11 -128 12 -40 0
-115 3 -165 5 -83 4 -93 7 -93 24 0 23 27 24 274 9z m-2294 -9 c0 -6 -4 -13
-10 -16 -5 -3 -10 -23 -10 -44 0 -36 -2 -39 -60 -64 -33 -15 -70 -27 -84 -27
-13 0 -40 -7 -59 -15 l-36 -15 17 -42 c9 -24 20 -45 24 -46 9 -4 1 -22 -10
-22 -11 0 -46 91 -57 150 -6 34 7 45 88 76 40 15 90 35 112 44 74 32 85 35 85
21z m2080 -71 l25 -8 -27 -1 c-27 -1 -41 -21 -15 -21 10 0 11 -12 7 -47 -4
-34 -10 -47 -19 -45 -12 3 -12 0 0 -14 8 -10 9 -15 3 -11 -7 4 -14 0 -18 -8
-7 -19 -26 -19 -62 0 -16 8 -39 15 -52 15 -14 0 -20 4 -17 10 4 6 15 8 25 5
18 -6 38 11 27 22 -4 3 -21 8 -39 12 -18 4 -34 12 -34 19 -1 7 -2 19 -3 27 -1
9 -12 15 -28 16 -17 1 -21 3 -10 6 24 6 21 21 -5 26 -13 2 31 4 97 5 66 0 131
-4 145 -8z m945 -25 c209 -10 488 -32 423 -34 -62 -1 -76 -14 -30 -27 19 -5
22 -8 10 -11 -9 -2 -20 -13 -23 -24 -4 -12 -19 -22 -36 -26 -16 -3 -29 -9 -29
-14 0 -5 -8 -9 -18 -9 -10 0 -28 -7 -40 -16 -12 -8 -27 -12 -33 -8 -8 4 -9 0
-4 -15 4 -14 2 -21 -7 -21 -8 0 -25 30 -38 66 -24 64 -51 97 -66 81 -4 -4 5
-42 19 -85 40 -114 43 -108 -70 -110 -83 -1 -224 13 -170 17 17 1 25 21 8 21
-5 0 -13 14 -16 31 -4 18 -22 47 -41 66 -36 35 -43 53 -21 53 7 1 5 6 -6 14
-12 9 -14 16 -7 21 17 11 1 25 -30 25 -16 0 -31 4 -34 9 -3 5 22 7 57 5 34 -2
125 -6 202 -9z m922 -73 c26 -88 24 -295 -5 -451 -13 -68 -28 -133 -35 -145
-6 -12 -12 -30 -13 -41 -4 -35 -74 -148 -74 -119 0 4 17 44 39 88 26 55 40
101 45 144 5 58 -5 86 -17 42 -6 -22 -36 -28 -38 -7 -3 38 5 83 17 103 8 12
21 55 29 96 l14 73 -3 -82 c-4 -86 7 -111 21 -45 12 54 8 331 -4 375 -7 20 -7
35 -2 32 5 -3 16 -32 26 -63z m293 12 c0 -18 6 -28 21 -31 21 -6 22 -10 16
-107 -4 -56 -15 -134 -26 -174 -21 -78 -68 -182 -83 -182 -5 0 -7 4 -4 8 3 4
7 28 10 51 3 24 12 51 21 61 22 24 19 51 -11 85 -25 29 -26 29 -40 11 -14 -19
-14 -19 -14 2 0 11 6 25 13 29 35 20 49 62 45 126 -4 46 -1 66 9 76 8 7 12 20
9 28 -4 10 -2 13 8 10 10 -4 12 0 9 14 -3 10 0 19 6 19 6 0 11 -12 11 -26z
m-4545 -46 c9 -29 21 -61 26 -71 8 -15 6 -17 -8 -15 -12 2 -17 -2 -15 -13 2
-12 -8 -16 -42 -17 -25 -1 -72 -9 -106 -18 -34 -9 -64 -13 -67 -10 -3 3 -15
-1 -27 -9 -30 -22 -33 -20 -51 34 -19 57 -29 64 -69 44 -23 -12 -27 -12 -24
-1 3 7 52 29 110 48 58 20 112 41 119 47 17 14 75 31 111 32 23 1 28 -5 43
-51z m3436 -309 c17 -11 32 -13 54 -8 17 5 37 6 46 4 26 -9 40 -81 17 -83 -85
-8 -132 -18 -179 -39 -46 -20 -61 -23 -78 -14 -12 7 -21 16 -21 22 0 6 -7 17
-16 26 -8 9 -13 22 -10 30 3 8 -3 17 -16 22 -19 7 -19 8 -4 14 10 4 14 11 11
17 -4 6 9 10 32 10 21 0 45 5 53 10 21 13 82 7 111 -11z m-1624 -512 c-25
-154 -27 -187 -32 -382 -2 -99 -4 -182 -5 -185 0 -3 -8 -7 -17 -7 -10 -1 -54
-9 -98 -18 -143 -29 -461 0 -602 54 -57 23 -80 28 -90 19 -10 -8 -13 -6 -13 6
0 9 5 16 10 16 7 0 9 27 5 78 -15 216 -27 354 -35 421 -10 71 -8 92 7 78 3 -4
12 -80 19 -169 31 -376 36 -414 55 -402 6 3 29 -3 52 -14 84 -40 152 -54 296
-63 255 -17 364 2 367 62 1 13 2 26 3 29 10 22 30 226 30 315 1 88 23 253 36
276 5 8 10 8 18 0 8 -8 6 -40 -6 -114z"/>
<path d="M2955 3312 c-5 -4 -16 -15 -24 -24 -11 -15 -11 -21 0 -35 12 -14 12
-16 -1 -11 -12 4 -16 -5 -18 -42 -4 -70 11 -100 48 -100 65 0 90 38 90 136 0
43 -4 56 -22 68 -24 17 -56 21 -73 8z"/>
</g>
</svg>
