<?xml version="1.0" standalone="no"?>
<!DOCTYPE svg PUBLIC "-//W3C//DTD SVG 20010904//EN"
 "http://www.w3.org/TR/2001/REC-SVG-20010904/DTD/svg10.dtd">
<svg version="1.0" xmlns="http://www.w3.org/2000/svg"
 width="736.000000pt" height="772.000000pt" viewBox="0 0 736.000000 772.000000"
 preserveAspectRatio="xMidYMid meet">
<metadata>
Created by potrace 1.16, written by Peter Selinger 2001-2019
</metadata>
<g transform="translate(0.000000,772.000000) scale(0.100000,-0.100000)"
fill="#000000" stroke="none">
<path d="M4134 7625 c8 -32 10 -144 3 -152 -4 -3 -7 17 -7 45 0 62 -14 74 -27
24 -13 -47 -11 -167 2 -167 12 0 22 -45 24 -107 1 -56 21 -77 21 -23 0 25 4
35 13 32 6 -2 12 -16 12 -30 1 -14 4 -29 8 -33 4 -4 7 12 7 35 0 28 -5 44 -15
47 -8 4 -12 10 -9 15 7 12 44 11 44 -1 0 -5 5 -10 10 -10 6 0 10 7 10 15 0 8
7 15 16 15 12 0 14 5 8 18 -8 19 -16 142 -8 142 20 0 36 -169 20 -217 -6 -19
-4 -22 10 -16 13 5 15 2 10 -15 -6 -17 -3 -19 13 -15 25 7 34 29 20 55 -6 11
-9 34 -6 51 2 17 -2 53 -9 79 -12 46 -4 124 9 88 15 -40 20 -84 24 -185 4
-116 -5 -165 -32 -165 -11 0 -15 -8 -13 -26 2 -16 -3 -29 -11 -32 -11 -4 -13
4 -8 42 5 37 4 46 -8 46 -8 0 -17 -12 -21 -27 -12 -52 -29 -83 -46 -83 -13 0
-18 -8 -18 -30 0 -29 21 -42 34 -21 3 5 14 7 25 4 21 -5 71 36 71 59 0 9 16
27 35 42 34 26 34 27 29 90 -4 40 -2 66 5 71 7 4 11 -3 11 -17 0 -13 4 -28 8
-34 10 -16 48 0 61 25 9 16 8 20 -7 24 -16 4 -16 5 1 6 12 1 17 10 17 31 0 17
-3 30 -6 30 -17 0 -44 -23 -44 -37 0 -9 -3 -13 -6 -10 -4 3 -8 64 -10 135 -2
70 -7 139 -13 152 -9 25 -9 25 -17 -8 -3 -18 -10 -34 -13 -37 -4 -2 -1 -51 7
-110 13 -93 12 -129 -3 -114 -9 10 -25 145 -25 217 0 57 -3 72 -15 72 -11 0
-15 -11 -15 -40 0 -42 -16 -56 -22 -18 -4 31 -25 33 -32 3 -4 -16 -13 -25 -26
-25 -11 0 -20 -4 -20 -10 0 -5 -4 -10 -10 -10 -5 0 -10 19 -11 43 0 39 -1 40
-11 17 l-11 -25 -7 30 c-3 17 -12 40 -19 50 -12 20 -12 20 -7 0z"/>
<path d="M2890 7594 c0 -14 -5 -45 -11 -69 -10 -39 -9 -48 9 -76 11 -18 22
-27 26 -21 4 6 13 9 21 6 8 -4 15 3 18 18 2 13 5 2 6 -24 0 -27 -2 -48 -5 -48
-17 0 -66 46 -85 80 -13 22 -26 40 -31 40 -4 0 -8 -29 -8 -65 0 -36 -3 -65 -7
-65 -5 1 -28 19 -53 42 -41 37 -39 45 2 10 16 -13 18 -13 24 2 9 22 -4 66 -19
66 -7 0 -20 -8 -29 -19 -8 -10 -21 -20 -28 -23 -9 -3 -9 -17 3 -63 8 -33 14
-62 12 -64 -7 -6 -25 10 -37 32 -11 21 -10 21 7 7 17 -14 18 -13 12 3 -4 10
-7 25 -7 33 0 8 -7 14 -16 14 -10 0 -14 -6 -11 -14 4 -9 -2 -13 -16 -12 -20 1
-22 -4 -20 -44 2 -52 22 -97 35 -78 5 9 8 6 8 -9 0 -27 -16 -30 -25 -5 -3 9
-29 32 -58 50 -70 43 -96 43 -62 -2 8 -11 12 -29 9 -39 -4 -13 -2 -17 5 -13 7
4 11 -1 11 -13 0 -26 -7 -26 -72 -1 -28 11 -54 18 -56 16 -2 -3 7 -36 19 -75
24 -76 21 -95 -11 -66 -22 20 -40 14 -23 -7 6 -7 14 -28 18 -47 l7 -33 -81 3
c-45 2 -81 1 -81 -3 0 -3 11 -19 23 -35 13 -15 27 -40 31 -55 6 -26 4 -28 -21
-27 -24 1 -25 2 -7 7 16 6 19 12 13 27 l-8 20 -1 -20 -1 -20 -8 20 c-5 11 -7
23 -4 27 2 4 -4 19 -13 33 -12 18 -13 29 -6 38 12 14 7 160 -9 265 -9 56 -9
76 0 85 22 22 29 -11 36 -162 7 -164 11 -191 27 -191 8 0 9 26 3 93 -4 50 -9
124 -11 162 -3 75 -12 149 -21 171 -6 17 -23 8 -23 -13 0 -9 -8 -22 -17 -29
-19 -13 -20 -36 -10 -169 3 -33 6 -120 7 -192 1 -92 6 -133 14 -133 7 0 6 -3
-2 -9 -10 -6 -6 -16 18 -39 31 -32 37 -61 13 -70 -7 -2 -13 1 -13 8 0 6 5 8
10 5 17 -10 11 19 -10 45 -17 22 -19 23 -25 7 -4 -9 -2 -23 4 -30 8 -10 7 -17
-1 -25 -9 -9 -9 -12 3 -12 7 0 -11 -12 -41 -26 -52 -25 -53 -27 -30 -34 37
-10 70 -33 70 -47 0 -7 -18 -23 -40 -35 -22 -13 -40 -26 -40 -30 0 -4 16 -14
35 -22 38 -16 47 -36 16 -36 -26 0 -36 -16 -17 -27 16 -9 11 -53 -5 -53 -5 0
-9 -7 -9 -15 0 -8 8 -15 19 -15 10 0 24 -7 31 -15 10 -12 10 -15 -3 -15 -28 0
-29 -20 -3 -30 30 -11 33 -22 11 -40 -20 -17 -19 -30 3 -30 29 0 51 -31 41
-57 -4 -13 -13 -23 -19 -23 -22 0 -8 -20 35 -47 47 -29 57 -55 28 -72 -10 -5
-16 -11 -13 -13 3 -2 22 -16 43 -32 27 -19 36 -33 32 -45 -3 -11 5 -28 20 -45
14 -15 41 -53 61 -84 28 -42 34 -60 26 -72 -6 -8 -15 -14 -21 -12 -14 3 -15
-25 -1 -33 18 -11 51 -85 44 -97 -4 -6 -3 -8 3 -5 10 6 33 -33 33 -56 0 -6 21
-34 48 -61 l47 -50 -55 49 c-30 28 -55 55 -55 62 0 7 -6 18 -13 25 -9 9 -12 5
-12 -20 0 -48 -20 -38 -21 11 -1 24 -3 31 -6 17 -8 -55 -14 -71 -23 -65 -6 3
-10 15 -10 26 0 10 -4 19 -10 19 -5 0 -10 -7 -10 -15 0 -8 -7 -16 -15 -16 -8
-1 -21 -2 -27 -3 -17 -1 -11 43 8 61 8 8 14 23 14 33 0 12 9 19 31 22 26 4 33
1 37 -16 5 -19 6 -19 12 0 11 31 0 44 -37 44 -24 0 -40 -7 -56 -26 -25 -29
-57 -25 -57 8 0 15 -5 18 -19 13 -11 -3 -22 -1 -26 5 -5 7 -22 9 -49 5 -64
-10 -73 -14 -79 -35 -6 -24 -35 -26 -44 -4 -6 16 28 54 49 54 10 0 12 28 9
125 -3 112 -1 124 13 119 19 -7 22 11 4 23 -16 10 -24 74 -19 138 4 38 -25
145 -44 164 -12 13 -15 12 -21 -2 -5 -13 -10 -15 -20 -7 -7 7 -10 18 -7 26 3
8 1 20 -5 27 -5 6 -15 29 -22 50 -6 21 -27 60 -46 88 -19 28 -34 55 -34 60 0
5 -5 9 -10 9 -6 0 -18 8 -28 18 -45 44 -133 102 -154 102 -10 0 -31 8 -131 54
-64 29 -92 33 -100 13 -5 -14 -119 -57 -149 -57 -9 0 -18 -3 -20 -8 -1 -4 -22
-22 -45 -40 -22 -18 -50 -49 -60 -70 -12 -22 -28 -38 -41 -40 -14 -2 -24 -13
-28 -30 -10 -49 -34 -127 -44 -142 -8 -12 -11 -13 -19 -1 -6 9 -11 10 -15 2
-4 -6 -2 -11 3 -11 22 0 10 -29 -16 -42 -25 -12 -29 -20 -33 -73 l-5 -60 -39
-6 c-23 -4 -46 -15 -56 -29 -16 -21 -18 -21 -46 -7 -25 13 -40 13 -94 3 -58
-10 -65 -14 -68 -36 -2 -14 -11 -30 -19 -37 -13 -10 -21 -8 -46 13 -25 21 -36
24 -76 19 -77 -11 -111 -25 -111 -46 0 -22 0 -22 -34 -9 -31 12 -34 30 -5 30
30 0 20 34 -32 109 -34 50 -103 111 -125 111 -3 0 -17 9 -31 20 -14 11 -34 20
-45 20 -10 0 -21 7 -24 15 -4 11 -11 12 -24 5 -13 -7 -24 -5 -41 9 -40 30 -58
32 -100 10 -22 -11 -48 -19 -57 -17 -9 2 -24 -3 -33 -11 -15 -12 -16 -64 -13
-554 3 -497 7 -578 28 -556 6 6 9 166 7 452 -1 136 0 251 2 255 3 4 1 30 -3
57 -8 52 3 83 20 55 5 -8 10 -139 11 -290 1 -151 2 -304 2 -340 0 -36 -3 -83
-7 -105 -9 -45 10 -78 52 -90 21 -6 22 -5 16 34 -4 28 -3 41 5 41 6 0 11 -11
11 -25 0 -26 25 -35 33 -12 4 10 7 10 18 0 15 -15 49 -17 49 -3 0 5 -9 14 -20
20 -26 14 -25 27 1 35 l21 7 -23 24 c-15 17 -19 27 -12 36 17 21 23 60 12 80
-14 27 -39 23 -39 -7 0 -14 -3 -25 -8 -25 -4 0 -6 18 -4 40 5 46 4 45 36 24
20 -12 26 -13 32 -2 5 7 9 18 9 23 0 14 37 17 55 5 13 -9 11 -13 -10 -31 -24
-20 -24 -21 -5 -35 19 -14 19 -14 -1 -29 -16 -12 -17 -14 -2 -15 23 0 27 -20
25 -123 -1 -50 2 -92 8 -95 6 -4 22 -7 38 -8 21 -1 27 3 27 19 0 16 3 18 12 9
18 -18 -7 -57 -45 -68 -26 -7 -33 -15 -35 -41 -3 -27 -8 -33 -26 -33 -18 0
-25 7 -29 28 -5 22 -17 33 -59 51 -126 55 -118 53 -165 39 -23 -7 -43 -18 -43
-25 0 -7 5 -13 10 -13 6 0 10 -20 10 -45 0 -25 -4 -45 -8 -45 -11 0 -9 -112 2
-129 7 -11 10 -11 18 3 5 9 17 16 27 16 15 0 18 -9 19 -47 0 -27 2 -69 5 -96
2 -26 2 -49 -2 -51 -8 -5 -5 -162 4 -176 7 -12 -2 -30 -16 -30 -5 0 -9 9 -9
21 0 11 -4 17 -10 14 -19 -12 -11 -44 13 -47 14 -2 23 -11 25 -27 4 -26 -12
-41 -45 -41 -13 0 -23 -4 -23 -8 0 -17 13 -21 31 -9 22 14 36 3 20 -17 -7 -9
-8 -17 -2 -20 6 -4 8 -72 6 -170 -2 -162 4 -208 25 -176 5 8 10 11 10 7 0 -5
16 0 36 12 19 12 32 16 29 11 -11 -18 -89 -54 -120 -54 -18 -1 -29 -6 -28 -13
2 -7 -4 -13 -12 -13 -8 0 -15 -6 -15 -14 0 -15 70 14 265 112 44 21 114 54
155 72 41 18 114 52 162 76 48 24 91 44 96 44 15 0 32 -88 22 -114 -9 -26 -25
-33 -77 -35 -19 -1 -151 -59 -318 -141 -157 -77 -290 -140 -295 -140 -6 0 -10
-39 -9 -92 0 -64 3 -86 9 -71 5 12 19 24 32 28 13 3 32 10 43 15 11 5 61 26
110 46 50 20 101 42 115 49 91 46 124 49 81 8 -22 -22 -91 -124 -91 -136 0
-35 -82 -147 -107 -147 -6 0 -44 -16 -86 -35 -42 -19 -83 -35 -91 -35 -14 0
-16 -171 -16 -1775 l0 -1775 1330 0 c1323 0 1330 0 1330 20 0 11 5 20 11 20 6
0 8 -9 4 -20 -5 -17 -2 -20 24 -20 23 0 29 4 25 15 -4 8 -1 15 5 15 6 0 11 -7
11 -15 0 -12 17 -15 97 -15 l97 0 -28 29 c-29 30 -30 54 -7 90 19 29 92 -17
146 -91 l20 -28 323 0 324 0 -7 38 c-3 20 -13 47 -21 60 -8 13 -12 32 -9 42 7
21 25 28 25 10 0 -5 -4 -10 -10 -10 -14 0 -12 -16 3 -32 7 -7 17 -33 23 -58 6
-30 15 -46 27 -48 10 -2 17 3 17 12 0 20 2 20 47 1 19 -8 56 -15 80 -15 60 0
49 12 -67 80 -77 45 -124 80 -107 80 3 0 32 -14 65 -30 34 -17 63 -30 66 -30
4 0 33 -17 66 -37 49 -31 57 -40 47 -52 -10 -12 -8 -13 18 -7 17 4 37 13 45
20 8 7 49 30 90 51 41 20 83 41 93 46 12 7 17 5 17 -5 0 -17 -34 -42 -110 -82
l-55 -29 42 -3 c23 -2 52 2 65 9 16 9 23 9 26 0 2 -6 17 -11 33 -11 28 0 29 2
29 46 0 27 4 43 10 39 6 -3 10 -24 10 -46 0 -38 12 -52 24 -26 5 9 7 9 12 0 4
-10 92 -13 390 -13 l384 0 0 21 c0 43 -24 101 -46 111 -24 11 -51 54 -41 64 3
4 14 -1 23 -10 12 -12 25 -15 46 -11 24 6 34 1 63 -31 19 -20 41 -52 50 -71
16 -33 16 -34 -7 -53 -23 -19 -14 -19 796 -20 l818 0 -6 25 c-3 14 -9 36 -12
50 -4 16 -2 25 6 25 6 0 9 -4 6 -9 -4 -5 2 -7 13 -4 10 3 22 0 25 -6 4 -6 15
-11 25 -11 9 0 43 -16 75 -35 54 -32 65 -35 137 -35 44 0 79 4 79 9 0 9 -89
92 -144 134 -20 16 -51 47 -67 70 -16 22 -46 50 -66 62 -46 25 -94 86 -112
143 -13 39 -13 43 4 56 18 13 18 16 -17 54 -44 49 -58 75 -89 167 -20 60 -23
90 -24 209 l0 139 50 14 c77 23 163 90 212 167 l26 40 14 -27 c28 -54 117 -26
153 48 17 35 27 45 46 45 30 0 61 30 70 67 3 16 22 63 41 105 37 84 63 188 63
256 0 35 3 42 20 42 11 0 20 7 20 15 0 8 -7 15 -15 15 -18 0 -18 8 0 40 18 32
18 40 1 40 -8 0 -17 -8 -20 -18 -3 -9 -4 14 -2 53 2 38 0 79 -5 90 -8 16 -6
16 7 -3 9 -12 25 -22 35 -22 26 0 24 -26 -2 -33 -18 -5 -19 -8 -7 -26 36 -58
38 -42 38 312 0 188 -4 337 -8 330 -6 -10 -42 -12 -71 -4 -13 3 37 30 57 31
20 0 22 4 22 63 0 34 -4 57 -8 51 -4 -6 -26 -13 -49 -16 -31 -5 -43 -2 -47 9
-9 23 -7 25 13 18 13 -4 20 0 24 15 4 15 13 20 36 20 24 0 31 4 31 20 0 13 -7
20 -20 20 -11 0 -20 -4 -20 -10 0 -5 -4 -10 -10 -10 -17 0 -11 33 11 56 14 15
18 29 13 48 -3 14 -11 26 -16 26 -6 0 -7 -11 -4 -25 5 -21 3 -25 -17 -25 -13
0 -28 -5 -34 -11 -16 -16 -28 8 -13 26 6 8 9 19 5 25 -3 5 0 10 8 10 26 0 50
39 51 83 1 37 3 42 24 40 l22 -3 -2 363 c-2 235 -7 361 -13 359 -6 -1 -10 -61
-10 -155 l0 -152 -35 -12 c-46 -15 -60 -1 -29 31 18 19 23 33 20 64 -1 23 3
51 9 63 11 20 10 21 -6 14 -11 -4 -28 -10 -39 -13 -18 -5 -18 -4 -6 11 9 11
10 17 2 17 -21 0 -11 20 20 39 19 12 26 21 19 26 -6 4 -18 1 -26 -6 -20 -16
-30 -4 -14 17 11 13 11 17 1 24 -11 6 -9 10 7 19 29 16 32 14 32 -16 0 -33 5
-28 13 15 6 29 4 32 -19 32 -19 0 -25 4 -20 15 3 8 1 15 -4 15 -6 0 -10 5 -10
10 0 6 5 10 11 10 6 0 20 12 31 26 15 18 28 24 44 21 20 -3 24 0 24 19 0 31
-17 40 -39 20 -29 -26 -41 -19 -41 23 0 33 3 39 25 43 19 4 25 1 25 -13 0 -32
17 -21 23 15 6 39 -1 76 -14 76 -5 0 -9 -11 -9 -25 0 -27 -15 -34 -24 -10 -3
8 -13 15 -22 15 -16 0 -16 2 1 20 12 14 25 17 46 13 25 -5 29 -2 29 15 0 12
-4 23 -9 26 -11 7 -11 246 0 246 5 0 9 11 9 25 0 24 -24 36 -32 16 -1 -4 -33
-24 -70 -44 l-68 -35 -40 29 c-34 25 -43 27 -64 17 -22 -9 -28 -8 -45 13 -24
29 -26 52 -6 69 18 15 34 6 30 -18 -1 -9 0 -11 2 -4 8 22 43 14 43 -10 0 -19
2 -20 11 -8 8 11 12 12 16 3 2 -7 10 -13 16 -13 6 0 18 -7 28 -15 15 -15 17
-14 24 12 4 17 2 29 -4 31 -25 8 -8 18 25 14 34 -4 36 -3 31 17 -6 26 9 37 28
21 9 -7 13 -21 9 -35 -3 -14 0 -24 9 -28 11 -4 13 0 9 15 -4 18 -2 20 21 14
37 -9 34 10 -3 29 -31 16 -39 27 -17 24 6 -1 20 1 30 6 15 6 16 10 5 16 -10 7
-10 9 0 9 6 0 12 9 12 20 0 11 -6 20 -13 20 -7 0 -17 10 -22 22 -14 31 -80 66
-137 74 -27 4 -48 12 -48 18 0 23 -73 70 -107 69 -22 -1 -33 4 -33 13 0 17
-74 56 -93 48 -8 -3 -17 1 -20 9 -3 8 -32 28 -66 45 -53 29 -61 30 -69 16 -5
-9 -14 -14 -19 -11 -13 8 -6 157 8 173 9 11 9 18 0 28 -11 13 -14 52 -9 106 4
31 24 46 44 30 11 -10 14 -9 14 3 0 9 -10 17 -21 19 -27 4 -50 38 -31 45 22 8
12 23 -16 23 -20 0 -32 8 -45 30 -10 17 -22 30 -28 30 -5 0 -9 8 -9 18 -1 60
-115 103 -179 68 -19 -10 -29 -11 -43 -3 -14 9 -24 8 -48 -7 -36 -21 -51 -14
-27 12 13 14 14 21 5 30 -7 7 -13 41 -13 80 -1 67 -1 68 -48 111 -36 33 -50
41 -60 33 -20 -17 -173 -10 -169 7 10 47 -35 98 -76 84 -45 -14 -92 -42 -143
-85 -55 -46 -57 -47 -80 -30 -13 9 -35 18 -49 18 -71 5 -112 18 -130 42 -18
22 -23 24 -46 13 -15 -6 -28 -10 -31 -8 -2 3 33 20 79 38 96 40 108 44 89 31
-10 -7 -10 -11 -1 -17 7 -4 13 1 17 13 6 24 95 64 120 55 9 -4 14 -2 10 3 -3
5 6 15 21 21 15 7 54 23 86 38 34 14 68 23 80 20 15 -5 17 -4 8 3 -17 12 100
60 175 72 50 9 56 7 118 -31 35 -21 71 -39 80 -39 8 0 38 9 67 20 28 11 54 18
56 16 4 -4 -103 -46 -118 -46 -6 0 -10 -18 -10 -40 0 -22 4 -40 9 -40 28 0 41
15 41 45 0 20 6 35 15 38 19 8 24 -2 19 -38 -8 -59 -13 -210 -8 -227 2 -9 11
-18 18 -21 10 -4 12 6 8 45 -5 49 -4 50 19 43 38 -12 43 -22 44 -86 0 -51 -4
-64 -22 -79 -29 -23 -29 -30 -1 -22 38 10 57 41 44 73 -13 36 -3 46 29 29 16
-9 29 -10 35 -4 14 14 -3 34 -33 36 -15 1 -27 3 -28 3 0 0 -3 44 -5 99 l-5 99
30 -6 c34 -7 49 7 31 28 -9 11 -9 15 -1 15 6 0 11 -5 11 -10 0 -6 8 -10 18 -8
14 3 17 -4 15 -44 -1 -39 2 -47 19 -52 18 -4 20 -10 15 -43 -4 -21 -13 -43
-22 -49 -18 -13 -20 -38 -2 -31 6 2 11 10 10 16 -2 6 3 11 10 11 17 0 35 51
31 87 -2 15 -1 22 2 16 3 -7 13 -13 22 -12 11 0 12 2 5 6 -7 2 -13 14 -13 24
0 11 -4 18 -9 14 -5 -3 -12 -2 -14 3 -3 4 6 12 19 19 22 10 24 9 24 -14 0 -13
5 -33 11 -44 7 -15 7 -24 -1 -34 -7 -9 -8 -26 -1 -56 6 -28 6 -48 0 -53 -6 -6
-9 -6 -9 2 0 7 -7 12 -15 12 -22 0 -18 -18 7 -31 14 -8 18 -14 10 -17 -20 -6
-14 -29 10 -35 31 -9 38 -1 38 44 0 28 4 39 15 39 18 0 20 -52 5 -118 -9 -36
-7 -47 7 -67 10 -13 20 -25 23 -25 3 0 6 24 6 53 1 28 8 67 17 84 21 39 10 70
-33 95 -25 14 -28 20 -21 45 4 16 14 28 24 28 9 0 16 5 15 10 0 6 -9 9 -20 7
-20 -4 -24 18 -7 35 8 8 8 21 -1 47 -11 35 -9 83 5 117 3 10 2 20 -4 24 -6 3
-11 17 -11 31 0 31 -17 31 -32 -1 -13 -30 -28 -33 -28 -6 0 30 11 51 26 51 8
0 14 7 14 15 0 21 -8 19 -44 -13 -23 -20 -31 -35 -30 -57 2 -57 3 -58 18 -46
11 9 15 7 19 -9 3 -13 10 -18 21 -14 12 5 16 0 16 -19 0 -19 -9 -30 -31 -41
l-31 -15 7 27 c11 44 11 46 -7 49 -11 3 -18 -3 -20 -19 -2 -15 -11 -24 -25
-26 -29 -4 -29 5 -2 26 13 11 18 23 14 35 -9 22 -24 22 -41 0 -12 -16 -13 -15
-14 10 0 15 -4 27 -10 27 -5 0 -10 -4 -10 -9 0 -4 -11 -6 -24 -4 -32 6 -56
-29 -56 -81 0 -31 -3 -37 -12 -28 -6 6 -12 27 -12 47 -1 19 -5 35 -11 36 -16
1 68 38 88 39 26 0 97 38 141 76 22 19 45 34 52 34 21 0 27 66 16 168 -6 53
-9 98 -7 101 3 2 5 -3 5 -12 0 -10 5 -17 10 -17 6 0 10 -11 10 -25 0 -14 5
-25 10 -25 6 0 10 12 10 26 0 19 4 25 14 21 25 -10 31 33 8 55 -17 18 -25 19
-51 10 l-31 -11 0 38 c0 20 -5 42 -11 48 -19 19 32 5 108 -30 12 -5 30 -6 40
-2 10 4 24 9 31 11 26 5 44 28 39 51 -2 13 0 26 4 29 5 3 10 -7 11 -23 0 -15
1 -35 2 -43 1 -21 34 -25 55 -6 12 11 16 25 13 41 -5 29 -25 34 -20 5 2 -10
-1 -19 -7 -19 -5 0 -9 9 -7 19 2 11 -2 20 -8 20 -8 0 -10 9 -6 26 6 21 4 25
-11 22 -10 -2 -24 -16 -31 -31 -7 -15 -20 -27 -28 -27 -11 0 -13 -6 -9 -19 5
-16 2 -18 -15 -14 -21 6 -28 37 -10 48 6 3 10 13 10 21 0 17 -41 10 -78 -14
-12 -8 -38 -20 -58 -27 -35 -12 -36 -11 -79 34 -35 37 -41 49 -32 61 9 12 9
13 -3 3 -11 -10 -20 -5 -49 29 -19 22 -48 46 -65 53 -26 11 -37 9 -100 -17
-240 -101 -366 -184 -366 -240 0 -18 -5 -28 -15 -28 -8 0 -15 -5 -15 -11 0 -5
5 -7 10 -4 22 14 8 -20 -25 -61 -40 -48 -128 -95 -404 -213 l-163 -70 -57 37
c-31 20 -66 45 -78 55 -21 19 -22 19 -62 -4 -23 -12 -43 -31 -47 -41 -7 -23
-17 -23 -38 1 -29 32 -68 35 -117 10 -24 -12 -51 -28 -60 -36 -12 -10 -23 -11
-48 -2 -28 10 -40 7 -104 -23 -64 -31 -80 -34 -130 -30 -42 3 -62 0 -75 -10
-9 -8 -22 -18 -28 -21 -13 -8 -15 24 -1 41 7 8 5 12 -7 12 -10 0 -16 8 -16 21
0 15 -5 19 -16 15 -18 -7 -70 17 -77 36 -3 7 -5 -15 -4 -49 1 -70 9 -80 26
-31 9 24 14 29 23 20 7 -7 20 -12 31 -12 15 0 18 -6 15 -32 -2 -27 -9 -35 -38
-46 -29 -11 -35 -10 -43 3 -4 8 -12 13 -18 10 -5 -4 -9 -3 -9 2 0 4 -7 17 -15
27 -12 16 -17 17 -31 5 -14 -11 -17 -11 -26 4 -5 10 -13 15 -19 12 -14 -9 -11
-25 5 -25 10 0 13 -12 10 -51 -3 -51 -3 -51 16 -34 14 12 18 25 14 41 -7 27 7
32 26 9 7 -8 20 -15 29 -15 8 0 -4 -11 -28 -23 -24 -13 -56 -40 -70 -59 l-27
-36 -1 39 c-2 29 2 39 13 39 9 0 14 6 11 13 -2 6 -17 12 -33 12 -25 -1 -30 -5
-34 -33 -3 -18 -9 -31 -15 -30 -5 2 -9 12 -7 23 2 11 6 37 9 58 5 38 19 49 29
22 8 -19 24 -19 24 0 0 8 -11 22 -25 31 -25 16 -25 40 1 30 8 -3 14 1 14 9 0
8 -4 15 -10 15 -5 0 -10 14 -10 30 0 18 -6 33 -15 36 -8 4 -18 24 -21 45 -7
44 -34 55 -34 14 0 -14 -4 -25 -9 -25 -5 0 -8 -14 -7 -32 1 -23 -4 -33 -16
-36 -11 -2 -18 3 -18 12 0 21 -13 20 -34 -3 -14 -15 -16 -31 -12 -78 3 -38 2
-51 -4 -38 -12 28 -12 172 0 180 6 3 10 35 10 70 0 58 2 63 20 58 11 -3 20 0
20 6 0 10 -14 15 -33 12 -12 -2 -66 51 -87 85 -24 38 -25 72 -4 103 13 18 14
25 4 31 -10 6 -9 9 1 13 8 3 3 5 -11 4 -26 -2 -32 17 -15 55 5 13 0 20 -19 28
-23 8 -25 13 -16 29 5 11 15 23 20 26 15 9 12 25 -4 25 -8 0 -24 9 -37 19 -19
16 -22 22 -11 32 17 18 15 42 -3 35 -25 -9 -18 28 10 54 29 27 31 36 10 56 -8
9 -15 11 -15 5 0 -6 -16 -11 -35 -11 -40 0 -55 23 -55 84 0 30 -2 33 -25 28
-29 -5 -32 6 -9 49 8 17 13 33 10 36 -5 5 -62 -32 -81 -52 -5 -6 -23 -19 -38
-29 -33 -20 -30 -34 3 -16 40 22 44 4 5 -23 -41 -28 -118 -40 -82 -13 25 20
22 22 -33 22 -27 0 -52 3 -55 6 -8 8 56 78 88 94 41 22 33 1 -15 -40 l-43 -36
45 6 c25 3 61 14 80 23 34 16 35 18 33 71 -2 102 1 98 -38 60 l-34 -33 -13 28
c-9 19 -9 30 -2 32 12 4 6 63 -6 63 -4 0 -13 -7 -20 -15 -22 -26 -34 -11 -31
38 1 26 0 47 -3 47 -17 0 -86 -83 -86 -102 0 -45 -52 -168 -70 -168 -14 0 -13
4 12 52 12 23 23 62 25 86 1 25 9 53 18 62 13 14 14 23 6 39 -6 11 -11 36 -11
55 0 29 -4 36 -19 36 -12 0 -21 8 -24 23 -4 20 -4 20 -4 -3 0 -30 -12 -60 -24
-60 -22 0 -59 53 -59 85 0 19 -6 38 -14 42 -8 4 -16 24 -19 43 l-4 35 -1 -37
c-2 -42 -24 -52 -48 -20 -9 10 -17 13 -21 7 -5 -5 -16 -15 -27 -20 -24 -14
-23 -26 3 -44 19 -12 21 -11 21 13 0 14 4 26 8 26 12 0 47 -40 65 -75 9 -16
16 -24 17 -17 1 31 20 -2 20 -34 0 -44 -22 -41 -31 3 -7 36 -46 103 -60 103
-5 0 -12 -18 -15 -40 -4 -22 -10 -40 -14 -40 -5 0 -6 10 -3 23 4 17 2 19 -5 8
-9 -12 -12 -10 -17 12 -9 33 -22 35 -28 5 -2 -13 -4 -5 -4 17 1 68 -3 86 -13
80 -6 -4 -10 -29 -9 -56 3 -54 -5 -73 -16 -37 -8 26 -34 58 -47 58 -4 0 -8
-11 -8 -24 0 -29 -27 -96 -39 -96 -15 0 -45 54 -33 58 7 2 4 10 -6 21 -9 10
-22 16 -29 13 -7 -2 -15 10 -20 27 -4 17 -12 31 -17 30 -5 0 -13 6 -18 15 -15
27 -26 8 -21 -34 4 -26 2 -40 -6 -40 -6 0 -11 14 -11 31 0 17 -4 28 -10 24
-27 -16 6 -110 35 -99 7 3 27 -1 43 -10 16 -8 33 -12 37 -8 11 10 -5 -51 -16
-63 -10 -10 -64 41 -101 95 -15 21 -19 23 -27 10 -8 -12 -10 -8 -8 15 2 17 7
38 11 47 4 9 1 28 -7 44 l-14 27 -7 -35 c-3 -19 -4 -44 0 -54 5 -16 4 -16 -5
-4 -6 8 -11 32 -11 53 0 20 -4 37 -10 37 -5 0 -10 -12 -10 -26z m59 -349 c1
-58 -15 -78 -27 -34 l-9 34 -9 -40 c-11 -47 -12 -245 -1 -295 l7 -35 -26 30
c-14 17 -33 46 -43 65 -21 40 -45 204 -40 265 4 38 5 37 16 -25 7 -36 17 -66
23 -68 5 -2 10 -18 11 -35 1 -18 4 -43 8 -57 7 -25 8 -25 15 -3 4 12 7 51 7
85 0 35 1 100 2 146 l2 82 32 -37 c25 -29 32 -48 32 -78z m-228 -167 c9 -100
18 -131 60 -204 43 -75 28 -90 -39 -40 -27 20 -53 36 -58 36 -4 0 -21 12 -36
27 -40 38 -36 10 7 -54 38 -56 40 -63 25 -63 -22 0 -160 225 -160 261 0 6 15
-9 33 -32 40 -53 66 -65 43 -20 -23 44 -9 39 51 -21 55 -55 82 -62 38 -10 -25
30 -35 56 -13 34 25 -25 31 -11 24 58 -4 38 -11 82 -16 99 -10 35 -2 47 18 27
9 -9 18 -47 23 -98z m832 -42 c3 3 11 -5 18 -18 6 -12 31 -42 55 -65 24 -24
44 -52 44 -62 0 -11 8 -25 18 -31 12 -8 13 -13 5 -16 -18 -8 -16 -18 12 -80
14 -30 31 -54 39 -54 20 0 92 -83 117 -135 12 -25 30 -50 41 -56 12 -7 17 -17
13 -29 -3 -10 -1 -21 5 -25 5 -3 10 -15 10 -26 0 -11 7 -22 15 -25 8 -4 15
-15 15 -25 0 -10 9 -24 20 -31 11 -7 20 -16 20 -20 0 -18 45 -108 53 -108 5 0
7 14 5 30 -5 32 1 37 20 18 9 -9 15 -8 27 8 24 31 19 63 -12 76 -22 9 -24 12
-10 15 23 6 22 20 -3 35 -11 7 -20 18 -20 24 0 19 67 -20 100 -58 36 -41 46
-87 31 -140 -7 -22 -15 -71 -18 -108 -4 -49 -10 -71 -21 -75 -20 -7 -28 2 -36
41 -5 23 -1 37 15 58 15 19 20 37 17 61 -2 20 1 36 8 39 21 8 26 67 7 88 -21
24 -27 17 -12 -15 10 -22 9 -31 -5 -52 -9 -14 -25 -25 -35 -25 -30 0 -33 -13
-6 -34 l26 -21 -26 -35 c-24 -35 -24 -36 -9 -90 16 -57 23 -108 15 -124 -2 -5
-4 -28 -4 -50 0 -53 -5 -61 -28 -40 -24 22 -25 7 -1 -20 16 -18 17 -25 7 -44
-12 -22 -13 -22 -29 -6 -9 9 -19 14 -22 12 -2 -3 2 -11 11 -18 22 -18 19 -32
-17 -87 -50 -75 -57 -86 -75 -120 -13 -25 -19 -30 -30 -22 -9 8 -13 8 -13 1 0
-6 5 -14 10 -17 6 -4 7 -11 4 -17 -4 -6 -10 -5 -16 3 -7 10 -8 6 -4 -12 7 -31
-2 -43 -21 -28 -16 14 -17 -3 -1 -19 9 -9 9 -12 1 -12 -7 0 -15 5 -18 10 -12
20 -26 10 -14 -11 8 -17 8 -20 -1 -14 -9 5 -10 1 -5 -14 4 -13 2 -21 -5 -21
-6 0 -9 -3 -7 -7 3 -5 -8 -23 -24 -42 l-28 -34 -183 2 c-101 1 -207 -3 -236
-7 -63 -11 -68 -5 -56 66 9 45 12 49 69 79 33 18 83 40 110 49 67 22 73 30 46
53 -13 11 -20 24 -17 30 13 20 -11 18 -84 -8 l-74 -27 -38 20 c-39 21 -39 21
-53 2 -21 -28 -18 1 4 39 13 23 27 31 59 37 24 4 49 14 58 23 8 8 16 15 17 16
20 6 205 25 214 22 14 -6 18 13 5 21 -7 4 -97 -3 -219 -17 -24 -3 -33 0 -33
10 0 11 -7 13 -29 8 -52 -11 -47 20 14 92 53 62 66 95 45 108 -5 3 -10 -2 -10
-12 0 -11 -6 -27 -13 -37 -12 -17 -15 -17 -51 8 -44 29 -56 32 -56 12 0 -7 9
-16 20 -19 30 -8 36 -36 12 -59 -25 -25 -38 -18 -47 25 -5 19 -24 48 -49 70
-41 38 -41 39 -45 119 l-3 81 31 -6 c17 -4 31 -2 31 3 0 11 -39 25 -61 22 -9
-2 -24 15 -38 42 -12 25 -37 54 -56 66 -23 14 -35 29 -35 43 0 30 -30 73 -81
117 -43 37 -43 38 -47 113 -4 77 9 184 30 235 10 25 12 19 29 -66 18 -93 48
-160 87 -195 11 -11 18 -25 15 -33 -15 -40 43 -117 98 -128 24 -5 29 -10 29
-36 0 -19 5 -30 14 -30 8 0 24 -13 36 -30 12 -17 26 -27 35 -24 8 3 44 -4 79
-16 76 -25 122 -24 119 3 -2 9 -4 25 -5 34 -2 12 8 20 33 27 21 7 34 16 32 23
-3 7 8 15 24 19 15 4 33 11 39 16 6 4 18 6 26 3 29 -11 53 21 53 72 0 26 4 53
7 59 16 24 -60 68 -114 66 l-38 -2 19 31 c24 39 59 57 98 52 17 -3 34 0 38 7
9 14 -25 52 -41 46 -7 -3 -20 4 -30 15 -13 14 -29 18 -68 17 -46 -2 -57 -7
-104 -50 -30 -26 -58 -48 -62 -48 -5 0 -40 -14 -77 -32 -66 -32 -123 -78 -136
-111 -4 -10 -13 -17 -21 -17 -29 0 -28 40 3 165 25 95 27 201 6 252 -8 20 -13
38 -11 41 11 10 26 -11 41 -59 17 -52 17 -147 0 -194 -6 -15 -5 -17 4 -9 29
27 41 173 20 247 -6 22 -8 42 -4 45 3 3 21 -10 40 -29 42 -41 75 -126 75 -191
0 -61 15 -62 24 -2 11 83 6 158 -15 214 -32 89 -33 90 -17 90 9 0 35 -22 60
-48 58 -62 83 -132 74 -210 l-7 -57 19 30 c35 57 14 243 -34 296 -9 10 -14 23
-12 30 6 18 98 -80 119 -126 10 -22 19 -53 19 -69 0 -16 3 -27 6 -23 10 9 6
81 -6 126 -6 22 -22 53 -35 69 -33 39 -31 46 4 28 16 -9 31 -13 34 -10z m-500
-312 c13 -42 17 -78 14 -126 -2 -38 -1 -68 3 -68 13 0 22 96 15 153 -6 42 -5
50 6 40 8 -8 14 -47 17 -103 4 -76 2 -90 -11 -90 -8 0 -17 -6 -20 -12 -7 -23
-35 10 -51 60 -23 72 -29 118 -21 168 9 60 25 53 48 -22z m3619 -96 c43 -45
78 -86 78 -91 0 -14 -78 52 -107 90 -23 31 -31 34 -60 30 -33 -6 -103 -54
-103 -72 0 -5 -13 -27 -29 -48 -24 -31 -28 -46 -25 -80 5 -51 32 -165 47 -192
10 -20 10 -20 -12 0 -13 11 -28 29 -34 40 -11 21 -28 270 -19 293 7 21 143
112 166 112 12 0 50 -32 98 -82z m-3808 -162 c48 -67 58 -79 81 -92 10 -6 20
-15 22 -20 4 -11 -112 -59 -139 -57 -11 1 -36 -7 -56 -19 -28 -16 -152 -58
-169 -58 -8 0 -1 58 8 67 8 8 3 24 -16 59 -38 68 -43 142 -15 216 12 32 24 60
28 62 4 2 5 -38 4 -88 -4 -84 -1 -98 22 -145 15 -28 32 -51 40 -51 7 0 19 -7
26 -15 7 -8 17 -15 23 -15 6 0 -1 13 -16 28 -15 15 -27 39 -27 52 0 13 -6 31
-14 39 -17 20 -31 111 -18 111 6 0 14 -24 18 -52 l8 -53 8 60 c9 71 36 155 49
155 5 0 9 -18 9 -40 0 -54 60 -180 85 -180 3 0 -4 14 -16 31 -18 26 -22 45
-22 103 0 39 6 85 13 101 13 29 14 26 21 -59 7 -80 11 -94 43 -140z m-1185
-413 c2 -258 3 -481 4 -497 2 -29 27 -51 27 -23 0 16 50 28 82 19 15 -4 16 -7
6 -20 -11 -13 -9 -14 15 -8 16 4 26 3 23 -2 -3 -5 -30 -12 -61 -15 -64 -7
-119 -37 -146 -81 -10 -17 -19 -26 -19 -19 0 7 14 28 31 48 31 34 31 36 13 50
-32 24 -121 39 -153 25 -15 -6 -39 -8 -54 -5 -26 7 -49 -9 -73 -51 -10 -18
-13 -17 -42 12 -27 28 -32 29 -46 16 -8 -8 -41 -19 -72 -23 -57 -8 -77 -21
-67 -46 7 -18 -12 -17 -27 2 -7 8 -23 15 -36 15 -13 0 -28 9 -34 19 -14 27
-13 36 5 21 8 -6 19 -8 26 -4 17 10 -31 33 -86 41 -39 5 -49 3 -66 -16 -21
-23 -35 -26 -44 -11 -3 5 -14 6 -24 2 -29 -11 -89 -68 -93 -88 -2 -10 -10 -20
-19 -22 -23 -4 -32 26 -14 44 15 16 21 44 8 44 -4 0 -16 -11 -28 -25 l-20 -26
-27 26 c-17 16 -33 22 -44 18 -14 -5 -16 -2 -10 20 5 20 3 27 -8 27 -8 0 -18
-4 -21 -10 -3 -5 -15 -10 -26 -10 -16 0 -18 5 -13 26 6 24 5 25 -13 15 -11 -5
-23 -7 -27 -4 -8 9 14 33 30 33 19 0 18 19 -1 26 -8 4 -12 10 -9 16 3 5 13 7
21 4 9 -4 21 -2 27 3 15 12 96 19 96 8 0 -5 11 -2 25 7 14 9 46 19 73 21 120
12 232 30 232 37 0 14 30 8 36 -7 4 -8 12 -15 20 -15 8 0 14 -4 14 -10 0 -5 5
-10 10 -10 18 0 10 22 -10 27 -11 3 -20 9 -20 14 0 12 14 11 41 -3 19 -10 24
-21 24 -53 0 -22 4 -46 9 -52 4 -7 6 -20 2 -29 -9 -22 11 -54 34 -54 19 0 20
7 20 99 0 70 4 101 13 104 9 4 9 8 -2 16 -14 9 -16 36 -11 220 0 18 10 45 21
60 18 22 19 26 5 29 -25 5 -33 52 -11 69 12 8 14 13 6 13 -10 0 -11 10 -7 38
4 20 7 46 8 57 2 18 36 65 39 54 7 -21 5 -340 -2 -345 -5 -3 -5 -12 0 -23 10
-18 6 -354 -4 -371 -3 -5 -1 -11 4 -14 10 -6 36 15 44 36 4 10 8 10 15 -1 28
-40 32 5 32 360 l0 359 25 -6 c24 -6 25 -4 25 35 0 35 -4 43 -25 51 -20 8 -25
16 -25 43 l0 34 71 12 c38 6 74 9 79 6 4 -3 10 2 14 10 6 17 37 9 33 -8 -2
-12 36 -11 41 1 27 67 38 31 38 -120 -1 -138 -2 -143 -23 -153 -13 -5 -23 -13
-23 -17 0 -11 18 -10 25 2 3 6 10 10 16 10 14 0 11 -28 -3 -33 -10 -3 -10 -7
-1 -18 17 -21 12 -185 -5 -181 -14 3 -8 -34 9 -52 14 -16 10 -29 -6 -22 -9 3
-15 0 -15 -8 0 -8 6 -16 14 -19 9 -4 14 -22 14 -56 0 -45 -3 -51 -22 -53 -11
0 -25 -2 -31 -3 -5 -2 -16 -3 -22 -4 -39 -3 7 -81 47 -81 16 0 28 -5 27 -12
-2 -52 4 -68 24 -68 16 0 19 4 14 20 -3 10 -2 35 4 55 5 19 6 37 1 40 -12 7
-10 408 2 423 7 8 7 16 0 25 -6 7 -11 89 -11 210 -1 185 0 197 18 197 17 0 18
-20 20 -467z m4635 392 c-16 -30 -16 -33 10 -81 14 -27 26 -52 26 -57 0 -4
-42 -27 -94 -52 -52 -24 -96 -50 -99 -57 -10 -30 -17 7 -23 131 -7 133 -7 133
13 120 18 -11 30 -9 79 10 32 12 64 31 72 43 l15 21 9 -23 c6 -17 4 -33 -8
-55z m-943 -281 c7 -8 30 -24 51 -35 41 -21 45 -28 26 -47 -15 -15 -58 -16
-58 -2 0 6 -4 10 -10 10 -5 0 -10 -14 -10 -30 0 -17 -7 -44 -15 -61 l-16 -30
-25 30 c-13 16 -38 32 -54 36 l-29 6 31 52 c49 83 82 104 109 71z m-166 -29
l30 -25 -33 -32 c-29 -30 -39 -34 -110 -39 -75 -5 -114 3 -74 15 10 4 40 29
66 56 54 57 76 61 121 25z m-2250 -86 c6 -18 -4 -32 -51 -75 -57 -52 -60 -53
-104 -47 -25 3 -47 7 -49 9 -2 2 1 22 8 44 12 39 33 57 90 75 20 6 23 4 18
-10 -8 -19 8 -55 25 -55 6 0 8 9 5 22 -7 24 17 58 39 58 7 0 16 -10 19 -21z
m1356 -72 c1 -56 5 -191 8 -219 1 -21 21 -25 21 -5 0 8 9 22 20 32 11 10 20
26 20 37 0 10 5 18 10 18 6 0 10 8 10 17 0 9 2 14 5 11 8 -7 -18 -88 -27 -88
-5 0 -8 -7 -8 -15 0 -8 -5 -15 -11 -15 -7 0 -9 -12 -5 -35 5 -23 2 -42 -7 -55
-12 -17 -15 -10 -34 75 -12 52 -35 124 -51 162 -31 72 -55 146 -29 92 10 -22
14 -24 25 -13 6 7 12 22 12 33 0 19 18 32 33 24 4 -3 8 -28 8 -56z m-3406 11
c-4 -13 -11 -27 -16 -32 -15 -16 -10 -26 10 -26 13 0 21 8 23 22 2 13 11 24
21 26 12 3 17 -1 15 -12 -2 -8 5 -21 14 -28 21 -16 35 -68 19 -68 -6 0 -11 9
-11 21 0 21 -15 21 -82 3 -9 -3 -19 0 -23 6 -10 17 -25 11 -25 -9 0 -29 -17
-35 -45 -17 -13 9 -30 16 -37 16 -17 -1 -58 -35 -58 -49 0 -15 -11 -14 -48 5
-36 17 -41 31 -14 41 9 4 31 21 49 40 35 37 49 43 31 13 -7 -10 -9 -22 -6 -25
9 -9 48 4 48 16 0 11 62 71 67 65 3 -2 -3 -21 -12 -41 -10 -19 -15 -38 -13
-41 9 -9 38 8 38 22 0 18 40 74 53 74 4 0 5 -10 2 -22z m3309 -45 c35 -91 52
-154 71 -248 20 -101 29 -270 15 -296 -13 -24 -2 -25 16 -2 7 10 15 15 18 12
4 -3 -3 -18 -15 -33 -22 -28 -21 -48 1 -21 27 32 30 13 3 -22 -21 -28 -24 -35
-10 -30 15 6 16 4 7 -13 -13 -24 -8 -24 -106 -6 -44 8 -126 18 -184 21 -143 9
-144 9 -111 46 14 16 35 46 46 67 39 71 98 162 106 162 4 0 7 -36 5 -79 -2
-58 1 -81 10 -85 15 -6 2 -75 -18 -87 -10 -7 -9 -9 4 -9 11 0 20 10 24 28 3
15 10 38 15 52 5 14 11 45 13 70 2 25 9 59 14 76 11 36 28 172 23 194 -1 8 -4
58 -5 110 -1 52 -6 105 -10 118 -7 17 -5 22 8 22 9 0 16 5 16 10 0 30 21 2 44
-57z m868 55 c-7 -7 -12 -24 -12 -40 0 -19 -9 -34 -30 -50 -16 -12 -30 -29
-30 -39 0 -23 -18 -35 -67 -43 -41 -6 -43 -5 -43 19 0 52 23 120 47 143 19 18
36 22 86 22 47 0 58 -3 49 -12z m172 -23 c31 -24 46 -43 46 -58 0 -13 5 -28
10 -33 6 -6 7 -30 4 -57 -7 -47 -19 -60 -30 -32 -4 8 -11 15 -18 15 -6 1 -29
9 -51 19 -25 12 -51 17 -72 14 l-33 -6 1 60 c1 49 6 65 25 87 33 35 62 33 118
-9z m-424 10 c0 -8 9 -15 20 -15 23 0 24 -2 9 -49 -31 -98 -32 -98 -101 -114
-25 -7 -26 -5 -34 46 -10 66 -7 84 19 119 15 21 29 28 54 28 23 0 33 -5 33
-15z m-1836 -17 c9 -36 7 -76 -5 -84 -6 -3 -9 -18 -6 -33 10 -49 -59 -157 -81
-126 -4 6 -26 16 -48 23 -53 15 -65 49 -34 92 11 15 20 32 20 37 0 6 22 22 49
36 27 15 56 38 65 52 20 31 32 32 40 3z m1625 -52 c-5 -26 -6 -53 -2 -60 4 -6
6 -19 5 -29 -2 -10 2 -25 8 -33 10 -11 6 -17 -24 -29 -20 -9 -41 -13 -47 -10
-5 4 -12 -1 -15 -9 -9 -24 -23 -19 -34 12 -6 15 -14 36 -19 47 -5 11 -12 35
-15 54 -5 30 -2 39 24 62 30 28 81 45 99 35 5 -4 13 -1 16 5 12 19 14 5 4 -45z
m-2773 -120 c3 -15 14 -30 23 -33 23 -9 51 -40 43 -47 -3 -4 1 -4 10 -1 13 5
14 13 7 37 -4 17 -10 31 -11 32 -2 1 -14 8 -28 14 l-25 13 24 -5 c13 -3 32 -1
43 5 15 8 18 6 18 -13 0 -13 1 -47 3 -76 3 -45 1 -55 -17 -68 -20 -14 -20 -16
-3 -28 21 -16 23 -48 2 -40 -10 4 -15 0 -15 -15 0 -16 6 -21 28 -22 19 0 10
-5 -27 -15 -30 -8 -59 -12 -65 -10 -6 2 -1 5 12 5 27 1 28 12 2 36 -21 19 -27
55 -10 55 6 0 10 -7 10 -15 0 -8 7 -15 15 -15 17 0 20 16 5 25 -8 5 -7 11 0
20 16 20 7 29 -39 45 -23 7 -41 19 -41 27 0 7 -7 13 -15 13 -8 0 -15 5 -15 11
0 6 10 9 23 7 14 -2 21 -9 21 -21 -1 -10 5 -17 17 -17 12 0 19 7 19 19 0 11 6
22 13 24 6 3 -4 6 -22 6 -27 1 -32 4 -23 13 20 20 13 30 -18 26 -34 -5 -37 2
-13 42 16 27 18 28 29 11 7 -10 16 -30 20 -45z m3336 -2 c29 -14 60 -29 68
-33 16 -8 55 -79 48 -87 -3 -2 -21 3 -41 11 -20 8 -41 15 -47 15 -19 0 -10
-21 14 -29 24 -10 78 -72 90 -105 7 -21 -15 -176 -25 -176 -4 0 -11 12 -17 28
-14 38 -41 64 -90 86 -40 18 -72 17 -72 -3 0 -5 22 -22 48 -36 52 -28 81 -77
96 -156 7 -42 -13 -70 -37 -50 -10 8 -23 6 -51 -9 -37 -19 -66 -18 -66 3 0 22
-56 81 -111 117 -49 31 -74 40 -146 51 -49 6 -92 15 -98 20 -11 8 -180 -16
-199 -29 -6 -3 -14 -7 -18 -8 -5 -1 -10 -3 -13 -4 -3 -1 -8 -3 -12 -5 -29 -8
-43 -20 -43 -36 0 -25 18 -24 115 7 65 21 101 25 206 27 l127 2 59 -40 c62
-42 98 -97 90 -137 -3 -20 -7 -17 -22 20 -20 48 -35 54 -35 16 0 -14 -8 -40
-17 -57 -10 -18 -19 -33 -20 -35 0 -2 -20 17 -43 42 -26 28 -57 50 -81 58 -22
6 -39 15 -39 19 0 5 -20 18 -45 29 -40 18 -57 19 -167 14 -68 -4 -131 -10
-140 -15 -14 -8 -16 -3 -13 34 2 23 4 45 4 49 2 15 131 77 191 92 162 38 371
52 431 28 25 -10 27 -8 32 16 3 15 4 29 2 31 -2 2 -48 5 -102 8 -54 2 -107 6
-118 8 -11 2 -26 4 -32 4 -17 1 -16 21 2 58 21 42 93 58 278 62 80 1 81 17 2
26 -56 7 -62 13 -46 43 5 9 12 25 15 35 7 23 25 22 88 -9z m844 -35 c3 -6 8
-42 9 -80 2 -38 7 -74 11 -80 11 -19 23 12 17 43 -4 21 -2 28 10 28 16 0 27
-29 27 -73 0 -16 4 -26 10 -22 6 3 10 28 10 56 0 27 5 49 10 49 6 0 10 -7 10
-15 0 -8 5 -23 11 -34 7 -11 9 -32 5 -54 l-7 -37 -42 7 c-23 3 -47 13 -53 21
-9 13 -12 12 -17 -7 -3 -11 -12 -21 -20 -21 -11 0 -15 22 -16 115 -1 106 5
135 25 104z m-655 -178 c-5 -9 -11 -35 -14 -58 l-5 -43 36 0 c73 0 108 -21 57
-34 -24 -6 -36 -36 -15 -36 6 0 10 7 10 15 0 8 6 15 13 15 21 0 27 -11 17 -31
-7 -12 -7 -20 0 -24 8 -5 8 -11 0 -20 -6 -7 -8 -20 -4 -29 4 -10 1 -16 -7 -16
-11 0 -11 -2 -1 -8 13 -9 20 -150 8 -170 -4 -6 -1 -21 6 -32 11 -19 10 -24 -9
-39 l-22 -18 25 -12 c23 -10 50 -58 40 -69 -3 -2 -8 7 -11 21 -5 19 -22 34
-58 52 -28 14 -58 25 -66 25 -14 0 -14 2 -1 10 11 8 9 9 -11 5 -23 -6 -27 -3
-33 25 -4 21 -13 34 -27 37 -16 4 -19 11 -15 29 6 22 -1 28 -21 22 -4 -2 -6
-14 -4 -27 2 -20 -1 -23 -18 -18 -12 3 -21 1 -21 -4 0 -5 16 -9 35 -9 25 0 37
-6 45 -21 15 -26 5 -37 -20 -21 -24 15 -50 16 -50 2 0 -5 10 -10 22 -10 27 0
21 -5 -14 -14 -23 -5 -27 -3 -25 11 1 10 -2 19 -8 21 -5 1 -10 -8 -10 -20 0
-24 -23 -35 -80 -37 l-30 -1 40 35 c81 71 92 82 134 143 24 34 48 59 52 56 5
-3 9 4 9 16 0 12 -4 19 -9 16 -5 -4 -5 10 0 32 28 119 38 182 34 224 -4 45 -4
47 14 36 13 -8 17 -17 12 -27z m749 -143 c0 -5 -5 -19 -11 -30 -10 -19 -9 -20
14 -14 34 8 37 0 26 -59 -6 -33 -6 -51 2 -55 5 -4 10 -31 10 -61 -1 -30 0 -88
2 -129 3 -54 0 -82 -11 -99 -13 -21 -13 -25 2 -33 9 -5 16 -16 16 -24 0 -14
42 -37 70 -38 8 -1 15 -7 15 -13 0 -7 10 -19 21 -27 34 -24 54 -78 53 -143
l-2 -58 -6 70 c-9 91 -29 120 -121 172 -103 59 -111 65 -99 79 11 14 5 34 -12
34 -5 0 -9 -9 -9 -20 0 -23 -18 -27 -26 -5 -4 8 -12 15 -20 15 -8 0 -14 9 -14
20 0 21 24 28 35 10 11 -18 25 -10 25 15 0 29 -29 35 -50 10 -7 -8 -19 -15
-26 -15 -17 0 -17 -1 -4 -34 8 -23 6 -26 -15 -32 -13 -3 -30 -4 -37 -1 -8 3
-6 6 5 6 14 1 16 5 8 20 -7 12 -7 30 -1 52 7 22 6 35 0 39 -6 4 -8 14 -5 22 7
16 -11 35 -23 24 -3 -4 -5 -44 -3 -90 l2 -83 -48 -17 c-26 -9 -68 -26 -92 -37
-24 -11 -45 -18 -47 -16 -2 2 13 12 35 22 23 10 37 23 35 30 -3 7 2 15 10 18
24 10 19 29 -5 22 -16 -5 -20 -3 -18 12 2 10 1 23 -3 28 -10 17 3 65 18 65 8
0 14 7 14 16 0 11 6 15 20 11 26 -7 27 19 1 33 -16 8 -22 6 -30 -7 -8 -15 -12
-16 -23 -5 -10 10 -9 14 9 18 28 8 39 35 19 50 -9 6 -16 16 -16 23 0 6 -5 11
-10 11 -7 0 -7 6 -1 18 7 13 6 23 -2 31 -8 8 -7 15 6 28 16 16 17 16 17 -4 0
-12 8 -26 18 -32 16 -9 16 -11 -3 -25 -11 -8 -16 -18 -12 -23 5 -4 14 0 21 10
7 9 17 17 23 17 5 0 9 15 9 34 0 27 -3 32 -18 28 -24 -6 -23 9 2 41 11 14 20
32 20 41 0 24 14 19 38 -14 15 -20 27 -27 39 -23 12 5 15 2 10 -10 -5 -12 -1
-17 13 -17 11 0 20 7 20 15 0 8 7 15 15 15 11 0 14 -7 9 -25 -3 -14 -2 -25 4
-25 16 0 32 25 36 56 7 51 24 84 41 78 8 -3 15 -10 15 -16z m-5431 -94 c11
-14 23 -35 27 -47 l7 -22 8 23 c10 27 33 19 24 -7 -3 -10 1 -24 10 -31 13 -11
15 -9 15 14 0 28 14 35 23 12 3 -7 3 -32 0 -55 l-6 -41 -29 25 c-24 20 -40 25
-81 24 -72 -1 -120 -20 -128 -50 -7 -27 -24 -27 -55 2 -11 10 -26 19 -33 19
-11 0 -11 3 -1 15 9 11 22 14 43 9 20 -4 32 -2 38 7 13 20 11 29 -6 29 -8 0
-15 5 -15 11 0 7 10 9 25 7 29 -6 32 7 9 40 -14 21 -14 22 6 22 13 0 24 -8 27
-20 6 -23 23 -27 23 -5 0 8 -4 15 -10 15 -5 0 -10 7 -10 15 0 27 65 19 89 -11z
m4122 -106 c86 -55 130 -118 83 -118 -8 0 -22 -9 -31 -20 -10 -11 -23 -20 -29
-20 -6 0 -17 -6 -23 -13 -9 -12 -21 -9 -68 15 -32 15 -70 39 -86 53 -15 14
-33 25 -40 25 -6 0 -34 11 -62 25 -49 24 -95 32 -108 18 -9 -9 -107 -12 -107
-3 0 40 175 81 325 76 84 -2 95 -5 146 -38z m-3621 -4 c0 -11 6 -14 23 -10 12
3 3 -3 -21 -14 -42 -19 -186 -122 -198 -141 -3 -5 -10 -7 -15 -3 -5 3 -8 1 -7
-4 2 -5 -32 -41 -76 -80 -71 -64 -82 -79 -117 -160 -21 -49 -43 -110 -50 -136
-13 -52 -20 -56 -34 -23 -6 12 -17 22 -25 22 -12 0 -15 -17 -17 -82 -2 -80 9
-112 28 -82 10 17 11 -22 1 -93 l-7 -47 -143 -70 c-117 -58 -147 -69 -163 -61
-10 6 -19 15 -19 20 0 6 -9 10 -21 10 -15 0 -19 -4 -15 -16 4 -9 1 -23 -6 -32
-11 -13 -9 -14 17 -8 37 9 30 1 -16 -18 l-35 -15 2 45 c2 24 5 48 8 52 2 4 -2
22 -11 40 -12 24 -13 35 -4 46 6 7 9 21 5 30 -4 12 0 16 15 16 23 0 29 -15 9
-23 -10 -4 -10 -8 -1 -14 6 -5 11 -15 11 -23 -3 -40 3 -60 17 -60 17 0 20 21
5 36 -18 18 9 64 37 64 14 0 23 -6 23 -15 0 -8 6 -15 14 -15 9 0 12 8 8 26 -3
16 -9 23 -18 20 -18 -7 -27 9 -11 22 6 6 23 12 37 15 l25 4 -27 2 c-35 1 -47
21 -18 28 21 6 22 9 15 77 -7 72 -17 96 -41 96 -9 0 -14 -18 -16 -57 -3 -55
-4 -58 -27 -55 -18 3 -22 0 -18 -12 3 -8 2 -18 -3 -21 -16 -10 -12 -25 6 -25
14 0 14 -3 4 -15 -7 -8 -20 -15 -30 -15 -15 0 -17 10 -17 68 0 61 8 81 30 82
4 0 7 -7 7 -15 0 -8 -5 -15 -12 -15 -9 0 -9 -3 -1 -11 18 -18 38 3 38 38 0 32
-18 52 -30 33 -9 -14 -37 -12 -33 1 2 7 25 19 51 27 38 12 47 19 47 38 0 12
-6 25 -12 27 -10 4 -9 8 2 16 13 9 13 11 -2 11 -10 0 -18 7 -18 15 0 8 7 15
15 15 8 0 15 5 15 10 0 6 -4 10 -10 10 -21 0 -9 18 20 30 37 15 38 25 2 44
-23 12 -25 15 -9 21 25 10 22 38 -3 30 -20 -6 -20 -6 -1 42 13 34 25 49 41 51
19 3 21 0 15 -20 -4 -13 -14 -27 -21 -31 -8 -4 -14 -15 -14 -22 0 -28 25 -14
55 30 37 55 58 67 49 27 -4 -15 -10 -29 -13 -32 -16 -13 -31 -50 -20 -50 14 0
48 41 49 58 0 7 7 15 15 18 8 4 15 15 15 25 0 23 18 25 26 4 10 -24 -17 -76
-45 -89 -27 -11 -44 -62 -19 -54 7 3 13 11 13 19 0 8 9 14 20 15 31 0 75 15
75 25 0 5 -4 9 -10 9 -18 0 -10 56 11 79 36 38 60 10 32 -36 -12 -21 -12 -23
7 -23 11 0 23 8 26 18 16 47 30 72 40 72 14 0 6 -47 -14 -78 -8 -12 -12 -25
-8 -29 3 -3 6 -1 6 5 0 7 6 12 13 12 18 0 72 62 68 79 -1 7 4 11 11 9 18 -6
23 -38 5 -38 -19 0 -29 -25 -31 -71 -2 -29 1 -34 10 -24 7 7 10 23 7 35 -4 17
-2 21 8 18 8 -3 15 -13 15 -24 1 -10 2 -25 3 -33 1 -11 4 -11 17 0 10 8 14 23
12 41 -3 16 1 33 9 39 7 6 13 17 13 24 0 7 7 18 15 25 10 8 15 31 15 71 0 33
4 59 9 59 5 0 17 7 26 16 9 9 18 14 21 12 6 -6 -27 -71 -40 -80 -8 -5 -7 -13
2 -28 6 -11 12 -36 12 -57 0 -51 18 -30 22 26 2 25 9 46 16 49 6 2 12 -3 12
-11 0 -18 24 -39 34 -30 3 4 -5 19 -20 34 -17 18 -24 33 -20 46 8 24 43 63 57
63 13 0 0 -50 -18 -71 -12 -14 -11 -17 8 -22 11 -3 18 -10 14 -16 -3 -6 -2
-11 4 -11 16 0 25 23 22 56 -1 21 3 33 13 37 9 4 16 13 16 22 0 8 5 15 10 15
6 0 10 -13 10 -29 0 -17 -4 -33 -10 -36 -5 -3 -10 -11 -10 -16 0 -5 11 -2 25
7 14 9 25 25 25 35 0 10 10 25 22 33 28 20 38 20 38 0z m5310 -84 c0 -11 6
-20 14 -20 8 0 14 -10 15 -22 0 -13 3 -65 5 -117 5 -86 4 -93 -14 -98 -25 -7
-26 -21 -3 -19 14 1 17 -7 18 -37 0 -22 -3 -41 -6 -43 -4 -2 -3 -20 1 -39 5
-21 4 -38 -2 -41 -5 -3 -6 -13 -3 -23 9 -21 9 -150 1 -159 -4 -3 -10 -2 -14 3
-7 10 -48 35 -57 35 -3 0 -5 -7 -5 -16 0 -9 -8 -23 -17 -30 -16 -12 -8 -14 57
-16 l75 -2 -65 -3 c-81 -5 -144 17 -165 57 -22 43 -18 48 8 9 25 -37 57 -51
57 -24 0 9 7 15 17 13 22 -4 29 48 8 56 -8 3 -12 12 -9 20 3 9 -2 16 -13 19
-10 2 1 2 25 0 44 -4 61 14 22 24 -26 7 -26 29 1 43 11 7 18 18 15 25 -3 8 2
22 11 30 12 13 13 19 4 28 -10 9 -14 8 -22 -5 -12 -21 -27 -24 -26 -5 1 33 -5
45 -25 52 l-23 8 23 4 c15 3 22 10 18 18 -3 8 0 15 6 17 13 5 3 38 -11 38 -5
0 -11 -9 -14 -20 -3 -11 -13 -20 -22 -20 -10 0 -15 5 -12 14 3 7 1 18 -3 22
-5 5 -5 15 0 24 7 10 10 11 10 3 0 -17 35 -16 49 1 9 11 9 16 0 22 -9 5 -6 10
10 16 32 11 18 25 -21 21 -26 -3 -29 -1 -13 6 26 11 50 55 42 75 -4 9 -16 16
-27 16 -12 0 -19 4 -16 9 3 4 17 6 30 4 20 -4 26 0 32 21 7 30 34 35 34 6z
m-1984 -11 c32 -6 77 -19 99 -29 22 -10 54 -24 72 -30 37 -14 68 -44 59 -59
-4 -5 -23 -15 -43 -22 -21 -7 -43 -17 -49 -23 -6 -6 -24 -22 -39 -34 l-27 -24
-32 31 c-18 17 -35 31 -40 31 -4 0 -26 9 -49 19 -23 11 -45 18 -48 18 -3 -1
-13 4 -21 10 -21 18 -113 36 -180 36 -32 -1 -58 2 -58 6 0 4 18 18 41 33 31
20 59 28 117 33 42 4 82 8 87 10 19 7 52 5 111 -6z m-120 -137 c11 -6 39 -20
64 -32 56 -27 80 -48 80 -70 0 -20 -19 -40 -38 -40 -7 0 -32 -15 -55 -33 -23
-19 -49 -37 -57 -40 -8 -4 -22 -11 -30 -17 -50 -31 -182 -100 -193 -100 -8 0
-20 -7 -27 -15 -7 -8 -20 -15 -30 -15 -10 0 -23 -7 -30 -15 -7 -9 -19 -14 -26
-11 -7 3 -18 -2 -24 -9 -7 -8 -16 -13 -20 -10 -4 3 -19 -4 -33 -15 -14 -11
-32 -20 -40 -20 -8 0 -26 -9 -40 -20 -14 -11 -30 -20 -36 -20 -6 0 -19 -4 -29
-9 -39 -20 -70 -30 -130 -42 -34 -6 -65 -15 -67 -20 -3 -4 -27 -15 -54 -24
-27 -9 -52 -22 -54 -29 -3 -8 -21 -16 -39 -20 -19 -3 -52 -15 -73 -26 -22 -11
-47 -20 -55 -20 -9 0 -20 -3 -24 -7 -4 -4 -19 -8 -34 -9 -15 -1 -74 -7 -132
-13 -58 -6 -115 -10 -127 -7 -28 6 -134 -22 -155 -41 -10 -9 -51 -32 -92 -52
-86 -42 -205 -134 -180 -139 8 -2 23 3 32 11 25 23 212 108 250 114 20 4 32 2
32 -6 0 -6 7 -11 16 -11 15 0 238 52 369 86 178 47 426 148 640 261 77 41 217
111 310 157 94 46 201 107 239 135 37 28 72 48 77 45 5 -3 9 -20 9 -38 0 -35
-40 -83 -59 -71 -6 3 -11 -1 -11 -9 0 -8 -19 -29 -43 -45 -23 -17 -51 -42 -61
-56 -10 -14 -25 -25 -32 -25 -8 0 -14 -4 -14 -10 0 -5 -9 -10 -20 -10 -11 0
-20 -4 -20 -10 0 -5 -7 -10 -15 -10 -8 0 -15 -4 -15 -8 0 -4 -33 -33 -72 -62
-40 -30 -95 -74 -123 -97 -27 -24 -55 -43 -61 -43 -6 0 -19 -9 -29 -20 -10
-12 -25 -18 -32 -16 -8 3 -18 -5 -25 -19 -10 -23 -42 -42 -61 -37 -5 1 -17 -8
-27 -20 -11 -13 -19 -19 -20 -14 0 5 -10 0 -22 -11 -13 -11 -66 -35 -118 -52
-52 -17 -104 -36 -115 -41 -39 -17 -65 -21 -65 -10 0 6 -10 4 -24 -6 -14 -8
-29 -16 -33 -16 -15 -1 -38 -9 -66 -24 -16 -8 -33 -12 -38 -8 -5 3 -45 6 -89
7 -44 1 -80 4 -80 8 0 13 -44 18 -64 6 -29 -16 -57 -17 -63 -1 -4 10 -9 9 -24
-5 -11 -10 -41 -21 -67 -25 -34 -5 -58 -16 -87 -42 l-40 -36 38 7 c93 16 279
21 450 14 26 -1 57 3 70 9 12 5 58 23 102 38 44 15 127 47 184 70 65 28 126
46 163 49 59 6 136 40 170 75 9 10 43 30 75 46 32 15 82 39 112 53 29 14 58
36 64 49 11 23 175 157 183 149 7 -7 -49 -73 -168 -196 -145 -151 -195 -207
-225 -253 -14 -20 -50 -53 -82 -73 -31 -20 -68 -53 -81 -73 -33 -49 -80 -92
-101 -92 -9 0 -22 -7 -29 -15 -14 -17 -136 -20 -146 -4 -9 15 -21 10 -50 -16
-15 -14 -44 -30 -65 -35 -25 -7 -44 -21 -58 -43 -41 -67 -97 -108 -68 -49 16
31 42 160 34 168 -3 3 -59 7 -124 8 -123 2 -143 7 -143 33 0 10 -6 13 -16 9
-9 -3 -22 -6 -29 -6 -7 0 -16 -11 -19 -24 -3 -13 -13 -26 -21 -30 -11 -4 -15
2 -15 24 0 23 -4 30 -20 30 -11 0 -20 -6 -20 -13 0 -8 -15 -22 -32 -32 -18 -9
-46 -37 -61 -61 -16 -24 -36 -44 -45 -45 -9 0 -43 -36 -76 -81 -32 -44 -61
-76 -65 -71 -3 5 -21 15 -38 22 -18 8 -33 16 -33 20 0 3 25 24 55 45 65 47 98
81 94 95 -2 6 -19 -2 -37 -19 -19 -17 -44 -30 -59 -30 -13 0 -36 -9 -50 -19
-19 -16 -30 -18 -50 -10 -20 7 -30 6 -40 -4 -12 -12 -19 -9 -50 19 -20 18 -39
31 -43 29 -22 -13 -43 169 -26 235 l8 35 -31 -29 c-17 -16 -34 -26 -38 -23
-12 12 38 55 101 87 68 35 126 72 126 81 0 11 -97 1 -121 -12 -13 -7 -27 -13
-31 -14 -3 0 -10 -3 -14 -7 -14 -15 -70 -8 -90 11 -11 10 -42 30 -70 45 -52
30 -85 56 -68 56 6 0 19 8 30 18 40 37 131 56 274 58 128 1 139 2 210 33 41
18 96 39 122 47 26 8 50 19 53 24 3 6 15 10 25 10 24 0 232 130 238 149 3 10
-6 8 -30 -7 -28 -17 -51 -22 -107 -22 -44 0 -83 -6 -101 -15 -27 -14 -63 -16
-75 -3 -9 8 -97 -13 -120 -28 -23 -17 -35 -18 -35 -4 0 6 -9 23 -20 39 -18 23
-20 33 -11 70 8 36 7 44 -10 54 -17 11 -17 12 -1 30 10 11 12 21 6 25 -5 4
-10 19 -10 33 -1 22 7 30 61 57 34 18 71 32 81 32 10 0 41 7 68 15 55 17 173
19 495 8 l203 -6 -41 -34 c-22 -19 -41 -40 -41 -47 0 -6 -22 -34 -50 -61 -45
-45 -65 -85 -41 -85 6 0 31 18 56 40 25 22 55 40 66 40 16 0 69 35 136 90 7 6
16 10 20 11 4 0 35 20 68 45 85 62 206 134 228 134 10 0 37 10 60 23 23 12 69
25 102 28 79 9 228 3 251 -9z m-1864 -11 c13 -5 41 -14 63 -21 36 -11 195 -97
195 -105 0 -2 -38 -29 -85 -61 -46 -31 -92 -65 -101 -75 -12 -13 -31 -19 -63
-19 -70 0 -200 -26 -256 -51 -71 -31 -159 -30 -195 2 -32 28 -66 49 -81 49
-18 0 -41 28 -28 36 7 4 9 21 5 44 -5 32 -3 39 17 48 16 8 17 11 6 11 -21 1
-109 -37 -131 -56 -10 -9 -18 -11 -22 -4 -9 14 103 96 179 132 110 52 227 77
357 78 64 1 127 -3 140 -8z m-802 -280 c0 -4 20 -11 45 -14 25 -4 56 -13 68
-22 15 -10 41 -14 76 -12 28 2 54 0 56 -3 3 -4 28 -10 57 -14 29 -4 58 -12 65
-18 7 -6 24 -7 38 -4 31 8 106 -4 99 -15 -7 -12 13 -11 37 1 33 18 229 58 229
47 0 -6 -17 -33 -38 -61 -63 -83 -111 -177 -114 -223 -2 -18 -33 -16 -52 2
-16 16 -40 15 -90 -4 -24 -10 -31 -9 -42 6 -7 10 -14 21 -14 24 0 14 -55 5
-74 -12 -11 -11 -28 -19 -39 -19 -10 0 -30 -9 -44 -20 -21 -17 -27 -17 -39 -5
-8 7 -14 17 -14 22 0 4 -11 20 -23 35 -18 20 -35 28 -70 32 -25 2 -50 7 -56
10 -13 8 -51 -29 -51 -49 0 -18 18 -52 45 -83 33 -39 23 -163 -16 -198 -23
-20 -24 -13 -5 24 7 15 17 43 20 62 7 35 7 35 -8 10 -9 -14 -15 -32 -16 -41 0
-8 -11 -26 -25 -39 -27 -26 -34 -16 -10 16 8 10 14 33 14 49 0 28 -1 26 -21
-17 -11 -27 -24 -48 -29 -48 -11 0 -11 -2 1 40 8 32 8 33 -5 16 -18 -24 -30
-15 -16 12 14 26 15 54 1 32 -11 -20 -77 -90 -84 -90 -3 0 4 21 14 48 l20 47
-25 -30 c-14 -16 -25 -33 -25 -37 0 -5 -5 -8 -11 -8 -7 0 -8 7 -4 18 17 42 15
45 -9 17 -34 -40 -45 -24 -12 19 35 47 33 58 -3 18 -43 -46 -48 -22 -6 28 45
53 45 67 1 17 -20 -22 -37 -34 -41 -28 -7 13 10 46 41 80 13 14 24 30 24 36 0
5 -14 -6 -29 -25 -16 -19 -33 -32 -36 -28 -9 8 16 68 28 68 5 0 5 5 2 10 -4 6
0 22 9 35 9 13 16 29 16 35 0 6 11 26 25 44 14 18 25 38 25 44 0 6 5 12 10 14
6 2 12 18 14 36 3 23 18 45 53 77 48 44 63 53 63 36z m4907 -223 c15 -7 46
-30 68 -52 22 -22 43 -41 48 -42 4 -1 12 -2 17 -3 6 0 10 -15 10 -31 0 -48 25
-89 51 -83 30 8 39 -12 39 -95 0 -66 -2 -73 -22 -81 -31 -12 -39 -5 -37 32 2
69 -11 137 -36 187 -34 68 -100 138 -150 161 -44 20 -33 26 12 7z m-5187 -103
c-17 -20 -15 -95 3 -129 9 -16 22 -49 29 -74 8 -28 20 -47 31 -50 19 -5 18
-27 0 -27 -11 0 -58 41 -102 90 -13 14 -25 37 -26 50 -2 13 -6 28 -9 34 -4 5
-2 12 3 15 6 4 6 18 0 38 -10 37 1 55 39 61 15 2 31 5 36 6 5 0 3 -6 -4 -14z
m5501 -67 c2 -102 7 -184 10 -198 3 -11 -5 -15 -31 -15 l-35 0 -3 83 c-2 68 0
82 13 82 8 0 15 7 15 15 0 8 -7 15 -15 15 -10 0 -15 10 -15 30 0 27 3 30 30
30 28 0 30 -2 31 -42z m77 -257 c11 -7 11 -9 -2 -14 -12 -5 -16 -21 -16 -66
l0 -59 -49 -7 c-28 -4 -55 -13 -62 -21 -10 -12 -3 -14 39 -14 28 0 54 -4 57
-10 3 -5 15 -10 25 -10 13 0 20 -10 25 -39 4 -27 13 -41 26 -44 13 -3 19 -14
19 -31 0 -31 -21 -34 -69 -10 -37 18 -39 50 -4 47 21 -2 21 -2 -3 24 -13 14
-24 30 -24 34 0 5 -4 9 -10 9 -5 0 -10 -6 -10 -14 0 -8 -10 -16 -22 -18 -12
-2 -23 -9 -26 -16 -3 -9 3 -13 19 -10 20 3 24 -2 29 -32 8 -46 17 -60 35 -53
8 3 15 0 15 -6 0 -6 -5 -11 -11 -11 -5 0 -7 -4 -4 -10 3 -5 15 -10 26 -10 10
0 19 -4 19 -10 0 -5 -9 -10 -20 -10 -11 0 -20 -4 -20 -10 0 -5 4 -10 9 -10 6
0 22 -11 37 -25 14 -13 30 -22 34 -20 5 3 13 -9 19 -25 8 -24 7 -30 -4 -30 -7
0 -15 6 -18 13 -3 9 -7 9 -17 0 -10 -9 -7 -17 16 -38 22 -21 30 -23 41 -13 7
7 14 24 16 37 3 19 11 25 36 27 28 4 32 1 26 -15 -3 -11 -1 -22 5 -26 14 -9 9
-63 -7 -77 -10 -8 -13 -6 -13 8 0 11 -8 28 -17 39 -15 19 -15 19 -9 -12 5 -32
5 -33 -29 -30 -19 1 -35 6 -35 11 0 5 -11 23 -24 40 -13 17 -26 41 -30 52 -3
12 -15 29 -26 39 -11 10 -20 31 -20 47 0 40 -42 113 -98 171 -42 43 -45 49
-34 68 8 12 9 18 4 15 -6 -3 -13 5 -16 18 -3 13 -9 32 -12 43 -4 11 -3 14 3 7
5 -8 16 -8 32 -2 23 8 23 9 6 22 -14 10 -15 15 -5 21 8 5 18 2 25 -8 18 -25
35 -21 35 8 0 14 5 25 10 25 9 0 11 -5 14 -37 1 -7 6 -13 11 -13 6 0 10 17 10
38 1 55 14 72 43 53z m-1721 -297 c3 -8 12 -13 19 -10 8 3 14 1 14 -5 0 -6 4
-8 9 -4 5 3 17 -2 26 -11 9 -9 19 -14 22 -11 3 4 15 -5 26 -19 l19 -25 -21
-20 c-11 -11 -21 -24 -21 -29 0 -6 -7 -10 -16 -10 -15 0 -16 -9 -10 -61 3 -33
9 -66 13 -72 4 -7 8 -16 9 -22 0 -5 2 -16 2 -22 1 -7 9 -13 17 -13 9 0 12 -6
8 -16 -4 -12 -2 -15 8 -12 8 2 15 14 17 26 2 12 9 22 16 22 17 0 53 40 58 65
3 17 7 15 22 -14 13 -25 18 -55 17 -114 -1 -61 3 -85 15 -99 24 -26 13 -106
-26 -199 -30 -74 -95 -159 -120 -159 -7 0 6 18 28 39 47 46 74 93 66 115 -3 8
1 25 10 38 18 25 21 58 7 58 -5 0 -11 -5 -13 -12 -8 -24 -24 2 -23 38 0 41 19
57 28 24 3 -11 11 -20 17 -20 19 0 3 52 -22 73 -20 17 -22 17 -43 -3 l-22 -21
-6 38 c-9 52 -45 93 -74 82 -18 -6 -23 -3 -31 21 -14 40 -48 57 -72 35 -11
-10 -20 -12 -24 -6 -4 5 4 17 16 26 l23 17 -22 -5 c-16 -3 -23 -1 -23 9 0 8
10 14 23 14 33 0 49 15 45 41 -3 25 -21 28 -80 14 -36 -9 -36 7 -1 58 29 42
24 68 -13 76 -25 5 -34 19 -34 59 0 34 23 45 34 17 8 -23 29 -18 23 5 -4 17 0
20 24 20 18 0 32 -6 36 -16z m-2136 -384 c-12 -16 -29 -42 -40 -58 -15 -22
-19 -48 -20 -131 -1 -120 -14 -157 -51 -154 -14 2 -71 6 -127 9 -66 5 -101 11
-100 18 1 6 -4 10 -12 8 -12 -3 -12 0 -1 12 10 13 10 16 -4 16 -21 0 -47 24
-51 48 -2 12 -11 16 -31 15 -24 -2 -26 0 -11 8 24 14 13 27 -19 21 -24 -4 -25
-2 -19 18 7 22 5 23 -26 17 -26 -5 -30 -4 -16 4 26 15 21 32 -8 27 -22 -5 -25
-2 -19 14 5 17 3 19 -18 13 l-23 -7 23 17 c43 31 25 43 -32 20 -16 -7 -17 -6
-6 14 12 24 73 53 160 78 73 21 463 34 468 16 2 -7 -6 -26 -17 -43z m3403
-234 c25 -37 46 -74 46 -81 0 -7 3 -15 8 -17 9 -4 68 -116 82 -155 8 -23 8
-25 -3 -10 -34 52 -36 54 -37 30 0 -12 5 -25 10 -28 13 -8 13 -25 0 -25 -6 0
-16 11 -22 25 -6 14 -20 25 -31 25 -10 0 -30 10 -42 22 -19 18 -21 26 -13 41
12 23 -7 40 -33 31 -12 -3 -18 3 -22 21 -3 19 -1 23 6 16 17 -17 26 -13 20 8
-3 11 2 30 10 42 17 24 11 51 -23 99 -20 28 -28 53 -11 35 4 -6 29 -41 55 -79z
m190 -12 c14 -31 26 -58 26 -60 0 -2 -16 -4 -35 -4 -50 0 -43 -16 15 -35 35
-12 50 -22 50 -34 0 -10 3 -21 8 -25 11 -11 9 -76 -3 -76 -16 1 -84 86 -102
127 -9 21 -19 53 -23 71 -7 28 -5 32 12 32 14 0 18 5 14 15 -5 14 1 45 9 45 2
0 15 -25 29 -56z m-2949 36 c-121 -32 -150 -51 -99 -64 19 -5 31 -2 44 12 38
41 325 71 437 47 16 -4 25 -17 34 -48 6 -23 26 -86 45 -140 34 -98 45 -189 24
-202 -5 -3 -10 3 -10 14 0 25 -15 28 -24 5 -5 -12 -9 -14 -20 -5 -10 8 -16 8
-25 -3 -7 -8 -26 -18 -42 -21 -16 -4 -29 -11 -29 -16 0 -6 -6 -9 -12 -8 -22 2
-58 -13 -58 -25 0 -6 -5 -4 -10 4 -7 12 -12 12 -22 2 -16 -16 -60 -16 -77 1
-11 10 -14 10 -18 0 -6 -18 -23 -16 -23 2 0 8 -9 15 -20 15 -11 0 -23 6 -26
14 -3 8 -12 12 -20 9 -9 -3 -14 1 -14 12 0 11 -7 15 -22 13 -16 -2 -26 4 -33
20 -10 23 -25 30 -25 12 0 -5 -4 -10 -10 -10 -5 0 -10 16 -10 35 0 19 -4 35
-10 35 -5 0 -10 -6 -10 -12 -1 -7 -6 -4 -13 8 -7 12 -18 19 -24 17 -9 -3 -13
7 -13 31 0 29 -4 36 -20 36 -15 0 -20 7 -20 26 0 18 -4 25 -14 21 -9 -4 -16 3
-21 20 -3 14 -5 26 -3 27 2 2 20 13 41 25 28 17 35 26 27 36 -15 18 9 34 72
50 61 15 126 19 73 5z m2186 -74 c-12 -13 -18 -27 -13 -30 5 -3 17 3 27 14 10
11 21 20 25 20 9 0 122 -172 151 -230 12 -25 25 -58 28 -75 5 -21 16 -34 39
-44 29 -13 32 -19 32 -57 0 -24 5 -46 10 -49 26 -16 3 -25 -65 -25 -70 0 -141
-11 -192 -31 -15 -6 -23 -5 -23 2 0 16 -29 41 -40 34 -5 -3 -10 1 -10 9 0 19
-11 21 -28 4 -9 -9 -12 -8 -12 6 0 12 -5 16 -15 12 -10 -4 -15 1 -15 16 0 17
-2 18 -15 8 -11 -9 -15 -9 -15 -1 0 20 29 81 38 81 5 0 29 19 53 43 41 40 88
70 74 47 -10 -16 2 -12 42 16 l38 26 -45 -7 c-47 -8 -75 -25 -155 -92 -27 -24
-54 -43 -59 -43 -5 0 -15 -8 -23 -17 -10 -13 -9 -7 3 22 9 22 19 49 22 60 5
18 4 18 -12 6 -15 -13 -16 -12 -6 13 13 35 13 39 -1 30 -9 -5 -10 3 -5 30 5
23 3 36 -4 36 -11 0 -6 56 7 90 7 16 9 25 12 38 1 4 8 -2 16 -13 15 -19 15
-19 31 3 20 29 37 28 29 0 -5 -17 5 -11 37 23 24 26 47 47 52 48 5 1 -1 -10
-13 -23z m-405 -145 c-3 -125 -8 -144 -31 -134 -17 6 -19 -1 -5 -27 8 -15 6
-17 -10 -13 -23 6 -25 0 -9 -29 8 -15 8 -19 0 -14 -7 4 -11 -1 -11 -13 0 -12
-5 -21 -10 -21 -6 0 -17 -14 -24 -31 -8 -19 -16 -27 -20 -20 -10 16 -26 14
-26 -4 0 -8 4 -15 9 -15 5 0 12 -7 15 -15 10 -28 -23 -28 -64 -1 -22 14 -45
26 -51 26 -21 0 -67 60 -74 97 -5 26 -2 40 11 54 9 10 19 41 22 68 l4 50 24
-16 c71 -46 154 -3 214 110 19 37 36 67 37 67 1 0 1 -53 -1 -119z m-3292 40
c9 -13 103 -61 122 -61 11 0 15 -6 11 -20 -3 -11 -1 -23 4 -26 35 -21 -32 -48
-89 -36 -60 14 -123 96 -107 140 5 14 51 17 59 3z m484 -69 c2 -7 -9 -15 -27
-18 -17 -4 -33 -9 -35 -13 -9 -14 24 -71 41 -71 15 0 15 -2 4 -9 -8 -5 -30 -8
-48 -5 -18 2 -33 0 -33 -5 0 -14 -34 -8 -44 8 -5 8 -11 10 -15 3 -3 -6 -28
-12 -56 -13 l-50 -3 -6 34 c-3 19 -11 46 -18 58 -7 13 -11 25 -9 27 8 7 159
21 222 21 46 -1 71 -5 74 -14z m-1274 -21 c3 -4 28 -11 55 -15 52 -7 61 -17
61 -67 0 -16 5 -29 11 -29 6 0 9 -7 5 -15 -3 -8 -1 -15 5 -15 6 0 8 -9 4 -20
-4 -11 -2 -20 4 -20 6 0 11 -6 11 -14 0 -13 27 -31 42 -28 4 1 5 -5 2 -13 -4
-8 -1 -15 5 -15 6 0 8 -7 4 -17 -5 -12 -2 -15 10 -10 11 4 17 1 17 -8 0 -8 5
-15 11 -15 6 0 8 -8 4 -19 -5 -16 -2 -18 15 -14 14 4 20 1 18 -8 -2 -8 3 -13
10 -11 6 1 12 -5 12 -13 0 -8 5 -15 10 -15 6 0 10 -8 10 -18 0 -10 5 -23 12
-30 10 -9 8 -16 -5 -29 -16 -16 -19 -14 -51 23 -20 21 -35 45 -36 52 0 14 -40
75 -53 81 -16 6 -87 124 -87 142 0 23 -19 48 -87 117 -29 28 -46 52 -38 52 7
0 16 -4 19 -9z m943 -86 c-9 -7 -15 -14 -13 -16 2 -2 6 -24 9 -49 l6 -45 -17
43 c-18 42 -40 58 -34 24 5 -30 25 -77 40 -94 16 -20 8 -38 -17 -38 -10 0 -24
-7 -31 -15 -7 -8 -29 -15 -50 -15 -20 0 -50 -4 -66 -9 -16 -5 -41 -12 -57 -15
-15 -4 -36 -15 -47 -26 -29 -29 -168 -100 -196 -100 -37 0 -29 18 14 30 62 17
65 22 57 76 -4 27 -11 54 -16 60 -12 15 170 133 217 141 20 3 73 20 118 38 77
31 118 36 83 10z m-1473 -40 c8 -8 23 -12 33 -9 15 5 15 4 3 -5 -10 -7 -11
-11 -2 -11 24 0 11 -30 -20 -47 -30 -16 -31 -18 -11 -21 12 -2 37 5 55 14 29
15 31 15 20 1 -8 -9 -22 -19 -33 -22 -37 -12 -19 -25 26 -18 25 3 45 3 45 0 0
-21 -16 -37 -36 -37 -15 0 -24 -6 -24 -15 0 -8 -4 -15 -10 -15 -5 0 -10 -6
-10 -14 0 -8 -9 -18 -20 -21 -33 -11 -23 -23 21 -23 37 -1 136 -39 126 -49 -3
-2 -22 0 -44 6 -21 6 -73 13 -117 15 -77 5 -142 20 -160 37 -6 5 -17 9 -25 9
-20 0 -81 60 -81 80 0 9 11 23 25 30 14 8 23 20 21 27 -3 7 1 13 10 13 11 0
14 6 9 23 -6 19 -3 18 18 -8 27 -32 50 -28 29 5 -18 29 -15 36 7 16 12 -11 21
-13 25 -7 13 20 63 38 80 29 23 -13 32 -3 16 17 -16 20 4 20 24 0z m2075 -55
c20 0 91 -37 102 -54 4 -5 23 -6 42 -3 l35 5 36 -146 c37 -156 52 -244 60
-357 5 -56 3 -65 -5 -42 -11 29 -36 33 -55 8 -17 -22 -60 -22 -85 0 -14 12
-30 17 -44 13 -21 -5 -23 0 -40 93 -15 87 -65 325 -76 362 -2 8 6 15 21 17 35
6 46 20 30 39 -16 19 -34 19 -50 0 -12 -14 -15 -14 -31 1 -21 19 -24 37 -9 65
9 15 15 17 30 9 10 -5 28 -10 39 -10z m-172 -118 c-10 -10 -17 -22 -17 -26 0
-11 23 -31 45 -40 30 -11 3 -23 -70 -30 -33 -4 -86 -12 -117 -18 -44 -8 -61
-8 -72 1 -20 17 -25 3 -20 -61 2 -36 -1 -60 -9 -66 -9 -8 -12 7 -13 66 -1 43
-7 90 -13 106 -7 16 -8 33 -3 38 4 4 71 17 147 29 77 11 142 23 144 25 2 2 7
2 9 -1 3 -3 -2 -13 -11 -23z m3566 -42 c32 -12 61 -29 64 -38 3 -10 20 -30 37
-46 l31 -28 -29 17 c-18 11 -39 15 -57 11 -15 -3 -31 -1 -35 5 -4 8 -9 8 -17
0 -7 -7 -14 -7 -24 0 -10 9 -13 8 -13 -2 0 -10 -16 -14 -59 -15 -52 0 -61 2
-72 23 -19 35 -43 30 -35 -7 4 -21 2 -29 -5 -24 -6 3 -59 6 -118 6 -66 0 -111
4 -120 11 -11 9 -15 9 -19 -1 -3 -10 -8 -9 -23 4 -18 16 -19 16 -19 -1 0 -14
-3 -15 -14 -6 -10 9 -16 9 -21 1 -4 -6 -13 -9 -20 -6 -7 2 -16 2 -19 -2 -8 -7
-56 -15 -56 -8 0 7 83 43 165 70 44 15 89 31 100 36 58 25 89 29 200 26 94 -3
133 -8 178 -26z m-2476 0 c26 -17 72 -90 72 -115 0 -11 9 -63 20 -115 31 -138
53 -354 46 -430 -8 -77 -32 -167 -47 -176 -8 -5 -9 1 -4 17 33 105 38 148 33
262 -3 64 -11 125 -17 135 -9 13 -10 -3 -6 -68 l5 -85 -82 3 c-45 2 -89 6 -97
9 -8 3 -19 5 -24 4 -4 -1 -15 4 -23 11 -11 9 -16 9 -23 -1 -10 -18 -16 -4 -19
43 -2 50 -45 233 -66 282 -19 47 -20 71 -2 55 8 -6 16 -8 20 -5 3 3 28 8 56
11 36 3 51 1 51 -7 0 -9 4 -9 13 -2 9 8 19 8 34 -1 11 -7 38 -22 59 -34 37
-20 47 -35 74 -107 7 -19 14 -26 20 -20 6 6 1 48 -15 114 -51 210 -63 222
-199 200 -45 -7 -99 -19 -121 -26 -28 -9 -43 -10 -52 -2 -23 19 -14 24 70 42
45 10 87 20 92 22 20 7 113 -4 132 -16z m323 -35 c-7 -9 -10 -18 -6 -22 3 -3
6 -1 6 5 0 7 4 12 9 12 6 0 9 -17 7 -37 l-2 -38 -89 1 c-148 3 -140 1 -158 39
-10 20 -12 37 -7 40 6 3 10 0 10 -8 0 -16 48 -20 66 -6 14 11 36 8 46 -6 4 -5
14 -3 25 7 26 23 63 32 63 17 0 -9 5 -8 17 4 20 20 31 14 13 -8z m-1725 -42
c4 -21 9 -58 11 -83 3 -41 1 -46 -23 -57 -15 -7 -37 -13 -49 -13 -12 0 -34 -6
-49 -14 -15 -8 -50 -18 -77 -21 -27 -4 -70 -19 -95 -33 -25 -14 -69 -31 -97
-38 -28 -7 -76 -22 -106 -33 -56 -22 -116 -28 -105 -12 3 5 19 12 35 16 17 4
30 13 30 21 0 18 -6 18 -75 -6 -63 -22 -75 -17 -75 26 0 35 66 84 114 84 22 0
26 -5 26 -27 0 -45 12 -55 64 -51 50 3 60 23 12 24 -19 0 -36 10 -52 30 -32
39 -30 48 14 64 20 8 40 16 44 18 4 2 12 -15 19 -37 17 -56 39 -54 39 4 0 26
-5 45 -11 45 -7 0 -9 -10 -5 -25 8 -32 -7 -32 -22 0 -10 20 -9 26 6 34 34 17
295 102 305 98 6 -2 27 2 46 9 58 21 68 18 76 -23z m822 24 c42 4 42 4 48 -34
9 -52 27 -103 37 -103 11 0 10 17 -3 63 -6 21 -8 44 -6 50 7 22 77 -236 77
-286 0 -16 4 -37 10 -47 6 -11 7 -50 3 -96 -5 -59 -8 -72 -15 -54 -5 12 -6 37
-3 54 3 17 1 45 -4 61 l-8 30 -11 -27 c-13 -33 -51 -38 -77 -11 -9 9 -20 12
-23 7 -4 -5 -16 -9 -27 -9 -17 0 -20 8 -23 55 -2 59 -28 279 -39 333 -5 27 -4
30 8 21 8 -7 33 -10 56 -7z m820 -109 c17 -8 20 -15 12 -24 -7 -8 -7 -14 1
-19 13 -8 34 -55 31 -72 -1 -6 3 -14 9 -18 5 -3 10 -15 10 -26 0 -11 11 -24
25 -31 23 -10 29 -20 26 -40 0 -5 3 -8 8 -8 5 0 11 -13 13 -30 3 -16 0 -30 -5
-30 -5 0 -7 -7 -4 -15 4 -8 2 -17 -4 -21 -7 -4 -6 -10 0 -18 6 -7 8 -15 5 -19
-3 -3 -7 -32 -9 -65 -3 -65 -14 -124 -24 -132 -9 -8 -61 -114 -61 -126 0 -6
-13 -23 -30 -39 -16 -16 -30 -37 -30 -47 0 -10 -7 -18 -15 -18 -8 0 -15 -7
-15 -15 0 -22 -27 -18 -33 5 -3 13 0 20 9 20 8 0 14 7 14 15 0 8 7 15 15 15 8
0 15 7 15 15 0 8 5 15 10 15 6 0 10 9 10 21 0 17 4 19 22 13 20 -6 21 -5 10 8
-10 13 -9 17 5 22 14 6 15 9 3 16 -11 7 -11 11 -1 24 7 8 10 20 6 26 -3 6 3
10 17 10 22 1 22 1 4 15 -19 15 -19 15 3 15 20 0 21 2 11 15 -10 12 -10 15 3
15 12 0 15 9 13 35 -1 19 2 37 8 39 6 2 -3 10 -20 17 -30 12 -32 16 -33 68 0
31 -5 71 -11 90 -5 19 -7 38 -4 43 3 5 -2 18 -11 28 -9 10 -14 23 -11 28 3 5
-3 17 -14 27 -11 10 -20 24 -20 30 0 7 -20 42 -45 79 l-44 67 52 -6 c29 -4 62
-11 74 -17z m170 1 c12 -4 23 -15 23 -23 0 -7 7 -17 16 -20 9 -4 14 -13 10
-21 -6 -17 10 -53 32 -70 23 -19 32 -297 11 -355 -1 -3 -1 -8 0 -12 4 -29 -37
-167 -56 -188 -13 -14 -23 -28 -23 -32 0 -25 -82 -118 -105 -118 -9 0 -12 -6
-9 -15 7 -16 -4 -19 -24 -7 -16 10 -5 42 14 42 8 0 14 5 14 10 0 6 7 10 16 10
10 0 14 6 10 15 -3 9 0 15 9 15 8 0 15 5 15 10 0 6 10 10 21 10 17 0 19 3 10
14 -9 10 -9 16 -1 21 8 5 8 11 -1 21 -8 10 -8 14 0 14 6 0 13 11 17 25 3 14
10 25 15 25 5 0 9 7 9 15 0 8 5 15 11 15 6 0 9 7 5 15 -3 8 -1 15 4 15 6 0 10
11 10 25 0 17 -8 29 -25 37 -25 11 -25 11 -19 117 5 96 4 114 -20 186 -14 44
-43 110 -66 147 -22 37 -40 70 -40 74 0 8 83 -4 117 -17z m-666 -76 c30 -96
49 -200 47 -258 -1 -44 -2 -46 -5 -12 -5 44 -26 46 -31 3 -3 -27 -5 -28 -52
-23 -31 3 -50 1 -53 -6 -2 -6 -8 -8 -14 -4 -5 3 -13 48 -16 99 -4 51 -15 129
-27 172 -11 44 -20 81 -20 83 0 1 9 -6 20 -17 11 -11 26 -17 35 -14 8 4 22 1
30 -6 13 -10 15 -9 15 11 0 46 22 2 46 -92 13 -51 28 -97 35 -103 18 -18 3 72
-37 212 -3 12 -4 22 -1 22 4 0 16 -30 28 -67z m3316 55 c4 -7 9 -22 10 -33 2
-10 7 -22 12 -25 5 -3 11 -15 15 -27 4 -13 14 -30 22 -38 13 -13 12 -19 -13
-50 -24 -30 -29 -32 -35 -17 -3 9 -7 13 -8 7 0 -5 -10 10 -22 35 -12 25 -21
48 -20 53 1 4 -2 7 -8 7 -5 0 -10 7 -10 16 0 8 -4 12 -10 9 -21 -13 -9 20 17
47 30 31 38 34 50 16z m-4119 -19 c-18 -10 -24 -45 -10 -65 4 -5 23 -15 42
-20 23 -6 36 -17 38 -29 2 -15 1 -17 -6 -6 -8 10 -14 11 -32 1 -33 -18 -238
-15 -257 3 -15 15 -22 5 -26 -35 -3 -39 -4 -38 -5 12 -1 30 -9 68 -17 84 -8
15 -15 30 -15 31 0 10 163 30 265 33 32 1 36 -1 23 -9z m2032 -52 c0 -12 -4
-29 -10 -37 -6 -9 -5 -17 3 -22 8 -5 6 -8 -5 -8 -10 0 -18 -6 -18 -14 0 -14
-2 -14 -171 -8 -50 2 -57 5 -68 29 -10 23 -10 29 3 39 20 14 10 24 -28 26 -51
2 81 13 192 15 99 2 102 1 102 -20z m1325 8 c77 -5 158 -14 180 -21 39 -12 39
-12 -26 -7 -43 4 -74 1 -90 -7 -37 -20 -78 -64 -69 -75 4 -5 11 -21 15 -34 l7
-23 -73 6 c-41 3 -143 8 -226 12 -84 4 -153 10 -153 15 0 5 -8 9 -19 9 -18 0
-52 30 -35 30 5 0 2 6 -7 13 -17 13 -33 47 -30 61 1 5 -3 12 -9 16 -6 4 19 8
56 8 36 1 69 3 71 6 6 6 224 1 408 -9z m-3658 -98 c6 -70 -3 -85 -37 -67 -15
8 -20 21 -20 50 0 21 -5 42 -11 46 -7 4 -10 -7 -9 -32 3 -53 -1 -64 -10 -34
l-8 25 -1 -25 c-1 -42 17 -56 76 -59 7 -1 17 -10 23 -21 9 -17 7 -19 -17 -19
-16 0 -41 -2 -58 -4 -16 -3 -68 -8 -114 -11 -54 -4 -91 -12 -101 -21 -35 -32
-84 -7 -88 45 -1 19 -7 39 -13 45 -7 7 -10 -4 -7 -35 3 -44 2 -45 -27 -45 -25
0 -32 5 -40 33 -5 17 -15 32 -22 32 -55 0 88 84 161 95 27 4 90 20 140 36 115
38 159 48 170 38 4 -4 10 -36 13 -72z m2667 -87 c120 -7 161 -13 170 -24 9
-13 63 -16 321 -21 195 -4 314 -10 320 -17 7 -7 -72 -9 -260 -5 -318 8 -343 5
-347 -32 l-3 -26 -18 32 c-14 26 -26 33 -71 43 -30 6 -87 11 -128 12 -40 0
-115 3 -165 5 -83 4 -93 7 -93 24 0 23 27 24 274 9z m-2294 -9 c0 -6 -4 -13
-10 -16 -5 -3 -10 -23 -10 -44 0 -36 -2 -39 -60 -64 -33 -15 -70 -27 -84 -27
-13 0 -40 -7 -59 -15 l-36 -15 17 -42 c9 -24 20 -45 24 -46 9 -4 1 -22 -10
-22 -11 0 -46 91 -57 150 -6 34 7 45 88 76 40 15 90 35 112 44 74 32 85 35 85
21z m2080 -71 l25 -8 -27 -1 c-27 -1 -41 -21 -15 -21 10 0 11 -12 7 -47 -4
-34 -10 -47 -19 -45 -12 3 -12 0 0 -14 8 -10 9 -15 3 -11 -7 4 -14 0 -18 -8
-7 -19 -26 -19 -62 0 -16 8 -39 15 -52 15 -14 0 -20 4 -17 10 4 6 15 8 25 5
18 -6 38 11 27 22 -4 3 -21 8 -39 12 -18 4 -34 12 -34 19 -1 7 -2 19 -3 27 -1
9 -12 15 -28 16 -17 1 -21 3 -10 6 24 6 21 21 -5 26 -13 2 31 4 97 5 66 0 131
-4 145 -8z m945 -25 c209 -10 488 -32 423 -34 -62 -1 -76 -14 -30 -27 19 -5
22 -8 10 -11 -9 -2 -20 -13 -23 -24 -4 -12 -19 -22 -36 -26 -16 -3 -29 -9 -29
-14 0 -5 -8 -9 -18 -9 -10 0 -28 -7 -40 -16 -12 -8 -27 -12 -33 -8 -8 4 -9 0
-4 -15 4 -14 2 -21 -7 -21 -8 0 -25 30 -38 66 -24 64 -51 97 -66 81 -4 -4 5
-42 19 -85 40 -114 43 -108 -70 -110 -83 -1 -224 13 -170 17 17 1 25 21 8 21
-5 0 -13 14 -16 31 -4 18 -22 47 -41 66 -36 35 -43 53 -21 53 7 1 5 6 -6 14
-12 9 -14 16 -7 21 17 11 1 25 -30 25 -16 0 -31 4 -34 9 -3 5 22 7 57 5 34 -2
125 -6 202 -9z m922 -73 c26 -88 24 -295 -5 -451 -13 -68 -28 -133 -35 -145
-6 -12 -12 -30 -13 -41 -4 -35 -74 -148 -74 -119 0 4 17 44 39 88 26 55 40
101 45 144 5 58 -5 86 -17 42 -6 -22 -36 -28 -38 -7 -3 38 5 83 17 103 8 12
21 55 29 96 l14 73 -3 -82 c-4 -86 7 -111 21 -45 12 54 8 331 -4 375 -7 20 -7
35 -2 32 5 -3 16 -32 26 -63z m293 12 c0 -18 6 -28 21 -31 21 -6 22 -10 16
-107 -4 -56 -15 -134 -26 -174 -21 -78 -68 -182 -83 -182 -5 0 -7 4 -4 8 3 4
7 28 10 51 3 24 12 51 21 61 22 24 19 51 -11 85 -25 29 -26 29 -40 11 -14 -19
-14 -19 -14 2 0 11 6 25 13 29 35 20 49 62 45 126 -4 46 -1 66 9 76 8 7 12 20
9 28 -4 10 -2 13 8 10 10 -4 12 0 9 14 -3 10 0 19 6 19 6 0 11 -12 11 -26z
m-4545 -46 c9 -29 21 -61 26 -71 8 -15 6 -17 -8 -15 -12 2 -17 -2 -15 -13 2
-12 -8 -16 -42 -17 -25 -1 -72 -9 -106 -18 -34 -9 -64 -13 -67 -10 -3 3 -15
-1 -27 -9 -30 -22 -33 -20 -51 34 -19 57 -29 64 -69 44 -23 -12 -27 -12 -24
-1 3 7 52 29 110 48 58 20 112 41 119 47 17 14 75 31 111 32 23 1 28 -5 43
-51z m3436 -309 c17 -11 32 -13 54 -8 17 5 37 6 46 4 26 -9 40 -81 17 -83 -85
-8 -132 -18 -179 -39 -46 -20 -61 -23 -78 -14 -12 7 -21 16 -21 22 0 6 -7 17
-16 26 -8 9 -13 22 -10 30 3 8 -3 17 -16 22 -19 7 -19 8 -4 14 10 4 14 11 11
17 -4 6 9 10 32 10 21 0 45 5 53 10 21 13 82 7 111 -11z m-1624 -512 c-25
-154 -27 -187 -32 -382 -2 -99 -4 -182 -5 -185 0 -3 -8 -7 -17 -7 -10 -1 -54
-9 -98 -18 -143 -29 -461 0 -602 54 -57 23 -80 28 -90 19 -10 -8 -13 -6 -13 6
0 9 5 16 10 16 7 0 9 27 5 78 -15 216 -27 354 -35 421 -10 71 -8 92 7 78 3 -4
12 -80 19 -169 31 -376 36 -414 55 -402 6 3 29 -3 52 -14 84 -40 152 -54 296
-63 255 -17 364 2 367 62 1 13 2 26 3 29 10 22 30 226 30 315 1 88 23 253 36
276 5 8 10 8 18 0 8 -8 6 -40 -6 -114z"/>
<path d="M2955 3312 c-5 -4 -16 -15 -24 -24 -11 -15 -11 -21 0 -35 12 -14 12
-16 -1 -11 -12 4 -16 -5 -18 -42 -4 -70 11 -100 48 -100 65 0 90 38 90 136 0
43 -4 56 -22 68 -24 17 -56 21 -73 8z"/>
<path d="M3860 7578 c-1 -34 -3 -39 -11 -25 -17 30 -27 19 -22 -24 5 -33 3
-41 -8 -37 -8 3 -13 11 -12 17 2 6 -4 29 -14 52 -13 33 -18 38 -25 25 -5 -9
-6 -21 -2 -28 4 -6 7 -34 6 -62 -2 -37 0 -47 8 -36 8 12 10 11 10 -7 0 -13 -5
-22 -12 -20 -10 1 -13 -17 -13 -68 1 -88 11 -133 28 -116 9 9 8 16 -2 32 -9
15 -10 24 -2 32 6 6 11 30 11 54 0 47 6 52 26 26 12 -17 13 -16 22 6 l9 24 22
-32 c29 -40 42 -32 35 22 -7 49 9 97 31 97 8 0 15 9 15 20 0 11 -6 20 -14 20
-8 0 -16 10 -19 23 -3 19 -4 20 -10 5 -4 -10 -10 -26 -14 -35 -5 -13 -9 -4
-16 30 -13 58 -27 61 -27 5z"/>
<path d="M6244 7607 c-3 -9 1 -23 10 -32 13 -13 16 -39 16 -121 0 -68 -4 -103
-10 -99 -5 3 -10 16 -10 28 0 27 -10 42 -32 50 -14 5 -18 1 -18 -19 0 -14 -9
-37 -21 -53 l-20 -28 20 -54 c21 -54 31 -121 11 -71 -5 12 -14 22 -20 22 -12
0 -12 -46 -1 -110 l8 -45 2 37 c1 45 18 59 27 22 7 -27 -1 -162 -10 -171 -3
-3 -10 -2 -16 2 -8 5 -10 22 -5 51 5 33 3 44 -6 42 -7 -2 -13 4 -14 12 0 22
-39 24 -69 5 -14 -10 -32 -15 -40 -12 -17 7 -25 47 -14 77 5 13 6 30 3 38 -4
11 -10 9 -31 -7 -49 -39 -53 -32 -47 93 6 113 6 114 -23 155 -16 22 -32 41
-36 41 -11 0 3 -62 19 -85 19 -28 16 -44 -7 -38 -11 3 -20 11 -20 18 0 16 -35
47 -43 38 -4 -3 -7 -24 -7 -46 0 -27 -8 -51 -25 -73 -19 -25 -24 -40 -19 -60
6 -23 4 -26 -10 -21 -23 9 -26 -4 -29 -116 -2 -53 -6 -99 -10 -103 -4 -4 -7 0
-7 9 0 27 -19 20 -31 -10 -6 -16 -18 -40 -26 -55 -9 -17 -10 -28 -4 -28 6 0
11 -4 11 -10 0 -5 -6 -10 -14 -10 -8 0 -16 -6 -19 -12 -2 -8 -8 -9 -13 -4 -5
5 -4 11 4 13 13 5 17 33 4 33 -5 0 -9 14 -10 30 -1 35 4 37 30 13 19 -17 19
-16 17 60 -2 42 -9 87 -17 99 -12 20 -13 14 -8 -54 4 -49 2 -78 -4 -78 -6 0
-10 7 -10 15 0 8 -4 15 -10 15 -5 0 -10 -13 -10 -29 0 -17 -6 -31 -16 -35 -10
-4 -12 -11 -6 -22 5 -9 4 -42 -4 -82 -7 -37 -13 -87 -13 -112 0 -40 1 -43 13
-27 7 9 18 17 23 17 6 0 16 14 23 30 7 17 15 30 19 30 11 0 87 78 114 117 15
22 28 54 30 73 1 18 8 35 15 38 9 3 11 -12 7 -56 -6 -77 -16 -101 -58 -138
-23 -20 -39 -46 -47 -75 -7 -24 -19 -52 -28 -62 -9 -10 -16 -32 -16 -50 -1
-30 -3 -32 -49 -39 -58 -8 -77 -22 -77 -57 0 -15 -5 -32 -12 -39 -6 -6 -9 -15
-5 -19 10 -10 50 21 162 122 33 30 66 55 72 55 11 0 79 42 171 105 29 21 28
53 -3 85 -23 24 -24 29 -14 60 9 25 9 37 0 51 -6 10 -11 32 -11 48 0 16 -6 34
-14 40 -11 9 -15 5 -21 -25 -5 -29 -3 -39 9 -46 12 -6 15 -18 11 -40 -10 -53
4 -116 27 -121 11 -3 18 -11 16 -18 -7 -20 -28 -22 -28 -3 0 24 -13 9 -16 -19
-1 -12 -3 -24 -3 -27 -1 -3 -10 6 -20 20 l-19 25 -7 -27 c-4 -15 -13 -29 -21
-32 -8 -3 -14 -12 -14 -21 0 -28 -19 -16 -35 22 -9 22 -12 40 -6 46 5 5 12 1
16 -12 3 -12 10 -21 14 -21 16 0 19 13 9 35 -7 16 -7 29 1 44 14 25 31 19 31
-10 0 -10 6 -19 14 -19 18 0 30 17 17 24 -5 3 -7 15 -4 25 4 16 1 19 -17 14
-21 -6 -22 -4 -15 23 4 16 9 57 10 92 2 35 6 66 9 69 3 4 6 29 6 57 0 28 4 66
10 84 7 27 6 33 -5 29 -19 -8 -25 15 -18 73 5 39 9 48 19 39 9 -7 19 -7 33 1
18 9 21 7 27 -16 4 -14 4 -55 0 -90 -5 -52 -4 -64 8 -64 23 0 31 -39 11 -54
-12 -9 -15 -25 -13 -71 l3 -60 19 40 c10 22 22 60 26 85 l7 45 2 -40 c1 -34 7
-44 36 -64 19 -13 32 -27 29 -32 -3 -5 -10 -7 -15 -4 -5 4 -7 -8 -4 -27 l5
-33 -11 30 c-22 58 -49 69 -49 20 0 -13 -6 -25 -12 -28 -7 -2 -5 -3 4 -2 19 3
42 -18 31 -29 -4 -4 -1 -11 7 -16 8 -5 11 -13 6 -17 -5 -4 -11 -2 -13 5 -10
26 -21 10 -25 -32 -3 -41 -2 -43 14 -30 15 14 17 14 20 -3 3 -13 12 -3 32 35
20 40 31 52 43 48 9 -4 25 1 35 11 15 14 21 15 27 4 7 -10 13 -10 29 -2 12 6
25 10 29 9 14 -5 104 63 113 85 6 12 20 35 32 50 19 24 20 29 8 37 -24 15 -29
12 -27 -17 1 -19 -3 -28 -13 -28 -9 0 -15 10 -15 25 0 18 -5 24 -17 22 -19 -3
-22 6 -12 33 5 12 9 13 14 5 5 -7 11 11 15 41 l8 54 17 -45 c22 -55 36 -61 44
-17 8 40 -3 72 -24 72 -11 0 -15 12 -16 45 -3 74 -12 161 -18 168 -3 3 -6 -33
-6 -80 0 -141 -14 -110 -26 57 -8 120 -14 160 -27 172 -15 15 -17 15 -23 0z"/>
<path d="M6923 7540 c-6 -47 -9 -97 -6 -111 3 -19 -2 -33 -21 -52 -14 -14 -27
-38 -28 -52 -1 -14 -2 -33 -2 -42 -1 -13 8 -18 31 -19 34 -2 78 23 57 32 -8 3
-9 14 -4 32 12 37 31 242 24 254 -3 5 -11 4 -19 -2 -11 -9 -14 -5 -17 17 -2
15 -9 -10 -15 -57z"/>
<path d="M1406 7585 c-4 -14 -4 -31 0 -36 5 -9 9 -91 5 -124 -3 -21 -21 21
-21 48 0 15 -4 27 -10 27 -13 0 -12 -31 4 -150 7 -52 11 -103 8 -112 -2 -9 3
-27 12 -39 21 -30 27 -12 23 74 -2 46 1 71 10 79 21 17 16 40 -7 33 -14 -5
-20 -2 -20 9 0 9 7 16 15 16 13 0 15 7 9 35 -5 26 -3 35 7 35 22 -1 51 -47 42
-67 -4 -10 -7 -38 -5 -63 2 -25 4 -99 5 -165 2 -102 4 -117 14 -98 7 13 12 53
12 90 -1 86 30 123 33 39 2 -62 25 -43 30 27 6 69 2 83 -16 67 -10 -8 -14 5
-19 62 -4 47 -2 75 4 79 8 5 8 9 0 13 -16 10 -14 36 3 36 9 0 15 15 18 48 5
55 4 59 -16 43 -11 -9 -17 -8 -29 4 -20 19 -27 19 -27 -2 0 -15 -2 -14 -15 3
-13 17 -14 15 -15 -33 0 -31 -4 -53 -11 -53 -6 0 -9 16 -8 38 4 59 -23 87 -35
37z"/>
<path d="M4661 7537 c-7 -34 -17 -84 -23 -111 -6 -34 -6 -52 1 -59 8 -8 11 -6
11 6 0 9 5 17 10 17 6 0 10 -11 10 -24 0 -30 33 -40 69 -22 14 7 34 11 44 9
12 -3 17 2 17 16 0 17 -6 20 -40 18 l-40 -3 0 47 c0 29 6 51 15 59 11 9 12 17
4 31 -5 11 -8 23 -5 27 3 4 1 14 -3 21 -5 8 -11 -3 -16 -31 l-7 -43 -12 48
c-7 26 -15 49 -18 52 -2 3 -10 -23 -17 -58z"/>
<path d="M6578 7561 c-20 -19 -26 -87 -7 -75 6 3 9 14 6 24 -5 21 9 48 19 37
5 -4 11 -36 15 -70 4 -34 10 -70 14 -79 4 -11 3 -18 -4 -18 -6 0 -11 8 -12 18
-1 11 -4 8 -8 -8 -8 -28 -2 -82 8 -76 3 2 15 -2 25 -10 15 -10 16 -16 7 -27
-6 -8 -9 -22 -5 -30 3 -9 -1 -30 -9 -47 -14 -26 -14 -30 -1 -30 42 0 50 17 53
101 1 69 -1 80 -14 75 -10 -3 -15 0 -15 11 0 9 3 13 7 10 3 -4 15 0 25 10 10
9 21 13 24 10 4 -3 15 -2 25 3 22 12 27 -3 27 -77 0 -54 -5 -62 -26 -41 -9 9
-15 9 -24 -1 -8 -9 -8 -11 -2 -8 7 4 18 -9 28 -33 11 -28 20 -38 31 -34 8 4
15 12 15 20 0 7 7 17 15 21 8 5 15 20 15 33 1 58 -6 146 -13 157 -4 6 -3 15 3
18 20 12 8 93 -17 117 l-23 21 0 -22 c0 -12 7 -24 15 -27 9 -4 15 -19 15 -40
0 -27 -4 -34 -20 -34 -13 0 -20 7 -20 19 0 26 -13 33 -45 25 -23 -6 -25 -10
-25 -66 0 -43 -3 -59 -12 -55 -9 2 -12 19 -10 48 2 39 1 42 -10 24 -11 -18
-14 -12 -18 50 -5 75 -19 90 -52 56z"/>
<path d="M2454 7502 c-12 -54 -2 -262 11 -224 4 12 16 22 26 22 12 0 23 10 29
26 13 33 13 101 0 109 -5 3 -11 27 -11 53 -1 27 -4 36 -6 22 -8 -42 -23 -47
-23 -8 0 54 -14 53 -26 0z"/>
<path d="M5735 7511 c4 -20 2 -30 -9 -34 -8 -3 -16 -20 -18 -38 -2 -18 -8 -34
-14 -36 -17 -6 -12 56 5 66 20 13 7 38 -24 43 -39 8 -65 -2 -65 -23 0 -10 -5
-21 -11 -24 -6 -4 -8 -38 -4 -93 3 -48 7 -109 8 -137 2 -29 -2 -58 -9 -69 -13
-18 -14 -18 -24 8 -5 15 -10 32 -10 37 0 15 -17 10 -24 -6 -13 -34 -23 -13
-15 32 6 30 5 51 -1 57 -5 5 -10 44 -10 87 l0 76 -40 28 c-66 46 -71 37 -65
-122 3 -75 9 -141 14 -146 15 -15 29 1 23 29 -3 16 1 29 9 35 11 6 10 9 -4 15
-23 9 -23 66 1 87 35 31 38 18 15 -57 -4 -15 -1 -18 11 -13 21 8 21 -16 1 -33
-9 -7 -15 -28 -14 -49 l1 -36 13 35 14 35 0 -60 c1 -72 5 -102 14 -111 4 -4 7
2 7 14 0 12 5 22 11 22 7 0 9 -9 5 -22 -3 -13 -6 -30 -6 -40 0 -14 -4 -14 -25
-5 -14 7 -25 17 -25 22 0 11 -64 55 -79 55 -14 0 -21 -42 -12 -80 l8 -35 7 32
c4 18 5 37 2 42 -4 5 -1 13 5 16 7 5 10 -25 8 -100 -2 -82 -6 -108 -17 -112
-8 -3 -18 0 -22 7 -4 7 -13 9 -19 6 -16 -10 -4 -26 19 -26 30 0 30 -26 0 -57
-19 -18 -30 -38 -30 -58 -1 -83 -24 -135 -37 -85 -3 11 -12 20 -20 20 -12 0
-14 -7 -9 -32 4 -18 7 -48 7 -67 -1 -29 1 -32 14 -21 13 10 15 9 15 -9 0 -14
-4 -20 -11 -15 -9 5 -10 -8 -7 -45 3 -29 1 -54 -5 -58 -5 -3 -7 -28 -3 -58 4
-39 2 -56 -8 -65 -12 -10 -15 -4 -19 32 -3 35 -5 39 -11 21 -5 -13 -13 -23
-18 -23 -5 0 -7 -4 -4 -9 3 -5 -5 -16 -19 -25 -17 -11 -25 -26 -25 -45 0 -47
49 -69 50 -23 1 15 2 15 13 1 10 -14 16 -14 45 -2 34 14 54 44 34 51 -20 6
-13 29 13 46 24 16 25 16 25 -4 0 -11 -4 -20 -10 -20 -5 0 -10 -7 -10 -15 0
-22 31 -18 37 4 3 11 10 18 16 16 24 -9 77 57 77 94 0 11 5 23 11 27 6 3 9 16
7 29 -4 17 -1 21 11 18 17 -4 41 54 41 98 0 18 -2 19 -15 9 -9 -8 -15 -9 -15
-2 0 6 4 13 9 16 4 3 6 17 3 31 -2 14 1 32 8 40 7 8 13 57 15 123 1 60 8 118
14 130 6 11 11 33 11 48 0 14 16 74 36 133 25 74 37 127 39 176 1 39 3 72 4
74 3 11 41 -35 41 -50 0 -36 19 -28 31 13 7 24 19 51 27 60 8 10 12 24 9 33
-4 8 -2 15 3 15 6 0 10 18 10 40 0 34 -3 40 -21 40 -17 0 -20 -4 -14 -29z"/>
<path d="M374 7518 c-3 -4 -16 -8 -30 -8 -28 0 -81 -52 -86 -83 -2 -14 -11
-23 -25 -25 -38 -6 -42 -72 -4 -72 30 0 71 24 66 38 -3 8 4 25 15 39 11 14 20
32 20 39 0 8 10 14 24 14 13 0 29 7 36 15 7 8 21 15 31 15 24 0 32 15 16 28
-14 12 -56 12 -63 0z"/>
<path d="M3950 7418 c0 -40 -8 -53 -36 -62 -15 -5 -24 -2 -28 9 -9 25 -41 14
-41 -15 0 -15 -6 -25 -14 -25 -21 0 -26 -24 -7 -31 11 -4 24 3 37 21 23 29 48
21 34 -12 -9 -22 -11 -34 -13 -96 -1 -29 -6 -46 -12 -42 -11 7 -26 -22 -16
-32 3 -3 12 -1 19 5 8 7 17 9 21 5 15 -15 23 21 19 92 -2 48 0 75 7 75 5 0 10
-17 10 -38 0 -20 7 -69 16 -107 8 -39 18 -94 21 -123 5 -44 8 -51 20 -40 10 8
14 27 11 63 -2 32 2 58 10 67 10 13 10 17 -2 21 -16 6 -26 79 -29 211 -2 53
-6 81 -15 84 -8 2 -12 -8 -12 -30z"/>
<path d="M1983 7391 c-4 -15 -8 -19 -13 -11 -5 8 -31 -11 -75 -54 -63 -61 -67
-67 -52 -84 8 -9 18 -30 22 -47 13 -57 26 -84 41 -78 11 4 14 -9 14 -66 0 -65
10 -90 24 -58 3 6 4 -19 3 -57 -1 -52 1 -70 12 -74 10 -3 12 1 8 18 -4 15 1
33 14 51 14 20 17 33 10 51 -9 25 -9 254 1 263 3 4 9 -29 12 -72 4 -43 10 -98
15 -123 5 -25 7 -57 4 -72 -3 -18 -1 -28 7 -28 9 0 10 -10 6 -32 -4 -18 -8
-48 -9 -66 -1 -19 -10 -39 -21 -47 -10 -8 -16 -19 -14 -26 3 -8 9 -7 20 5 9 9
21 16 27 16 10 0 12 16 16 102 1 15 4 31 8 34 4 4 7 29 7 56 0 35 -4 50 -15
55 -12 4 -16 19 -15 57 0 28 -1 72 -3 98 -3 40 -1 47 16 52 27 7 33 2 41 -35
4 -22 10 -30 21 -25 9 3 15 0 15 -9 0 -18 16 -20 26 -3 4 6 0 17 -10 23 -9 7
-15 21 -15 31 5 45 -1 54 -32 54 -22 0 -32 5 -36 19 -3 11 -13 21 -24 24 -12
3 -19 14 -19 30 0 13 -7 30 -16 37 -13 11 -16 10 -21 -9z"/>
<path d="M2198 7373 c-10 -11 -18 -24 -18 -30 0 -6 -7 -13 -15 -17 -17 -6 -20
-42 -5 -51 6 -3 10 -1 10 6 0 8 4 8 15 -1 9 -8 13 -21 9 -32 -3 -12 1 -27 11
-38 11 -12 15 -26 11 -37 -6 -14 -9 -15 -15 -4 -14 21 -31 -20 -31 -72 0 -36
4 -46 20 -50 11 -3 20 -12 20 -20 0 -10 -7 -13 -20 -10 -15 4 -20 0 -20 -15 0
-25 19 -39 30 -22 10 16 17 1 15 -32 -2 -37 -15 -49 -15 -13 0 24 -2 26 -15
15 -10 -9 -14 -22 -10 -39 3 -14 6 -51 7 -81 1 -30 3 -58 5 -62 2 -5 18 -1 35
8 l30 16 -5 206 c-3 114 -7 214 -10 222 -4 8 -10 50 -14 94 -8 75 -9 78 -25
59z"/>
<path d="M5217 7369 c-10 -13 -17 -27 -17 -32 0 -10 -60 -71 -72 -73 -4 -1
-14 -2 -22 -3 -22 -2 -46 -30 -46 -53 0 -11 -7 -35 -16 -54 -16 -32 -15 -36 1
-54 27 -29 35 -25 35 20 0 22 5 40 10 40 12 0 13 -16 1 -58 -7 -24 -6 -35 5
-47 25 -25 30 -18 27 43 l-2 57 14 -33 c8 -18 12 -39 9 -47 -7 -17 21 -21 31
-5 3 6 15 10 25 10 13 0 21 9 25 28 3 15 12 39 20 55 14 27 11 57 -6 57 -5 0
-9 -16 -9 -35 0 -19 -5 -35 -11 -35 -22 0 0 93 27 113 18 14 22 23 14 36 -5
10 -7 26 -4 37 3 10 -1 28 -9 38 -13 18 -14 18 -30 -5z"/>
<path d="M6410 7298 c-1 -29 -2 -89 -3 -133 -2 -80 -2 -80 25 -83 29 -3 96 27
118 53 7 9 13 31 12 50 -1 19 3 37 8 40 6 3 10 11 10 17 0 7 -5 7 -14 -1 -15
-13 -26 4 -26 39 0 10 -9 22 -20 25 -11 3 -20 13 -20 21 0 8 -4 14 -10 14 -13
0 -13 -17 0 -25 12 -8 5 -134 -9 -148 -13 -13 -47 25 -47 54 0 82 -5 129 -14
129 -5 0 -10 -24 -10 -52z"/>
<path d="M1681 7323 c-5 -10 -8 -51 -7 -91 1 -60 -2 -75 -16 -83 -13 -7 -18
-23 -18 -54 0 -25 5 -45 10 -45 6 0 10 18 10 41 0 24 4 38 10 34 6 -3 10 -15
10 -25 0 -10 5 -20 10 -22 6 -2 15 -34 21 -73 10 -76 16 -87 29 -65 10 17 4
87 -11 127 -7 18 -6 30 1 37 7 7 10 6 10 -2 0 -7 4 -12 9 -12 5 0 7 9 4 20 -3
11 0 27 7 35 6 8 9 19 5 25 -10 17 -25 11 -25 -10 0 -11 -4 -20 -10 -20 -5 0
-10 12 -10 28 0 15 -3 37 -6 50 -5 18 -2 22 15 22 14 0 21 6 21 20 0 11 -3 19
-7 19 -25 -4 -33 4 -33 31 0 33 -14 39 -29 13z"/>
<path d="M4789 7100 l-61 -59 -23 25 c-18 19 -29 24 -46 19 -18 -6 -21 -4 -16
9 10 25 -3 19 -37 -19 -18 -19 -52 -45 -77 -58 -24 -13 -46 -32 -48 -43 -4
-25 -30 -54 -48 -54 -11 0 -13 -12 -6 -62 12 -106 11 -123 -12 -123 -14 0 -20
6 -19 21 0 15 -4 20 -14 16 -12 -4 -14 0 -9 20 6 22 3 26 -20 31 -15 3 -33 3
-40 0 -16 -6 -17 -29 -2 -38 6 -5 4 -12 -7 -20 -18 -13 -13 -51 6 -40 5 3 10
2 10 -4 0 -5 -9 -13 -20 -16 -11 -3 -20 -15 -20 -25 0 -10 -5 -22 -10 -25 -7
-4 -7 -13 0 -26 8 -13 7 -37 -2 -79 -9 -48 -9 -67 0 -94 10 -27 10 -39 1 -54
-11 -17 -8 -24 20 -51 28 -27 32 -29 38 -13 3 9 15 24 26 33 19 16 19 16 -2
22 -14 3 -21 0 -21 -10 0 -8 -7 -13 -17 -11 -15 3 -18 15 -19 78 -3 121 20
130 30 12 2 -23 6 -46 10 -50 7 -6 8 67 6 243 -1 76 7 78 32 5 16 -44 18 -206
3 -230 -4 -6 4 -19 17 -29 22 -19 22 -20 5 -39 -16 -18 -16 -21 -3 -24 11 -2
13 -7 6 -17 -7 -12 -11 -12 -23 -2 -9 7 -18 8 -21 2 -10 -16 5 -41 24 -41 10
0 25 -3 34 -6 11 -4 16 0 16 14 0 26 23 44 46 35 15 -5 17 -4 8 8 -14 17 -26
79 -16 79 4 0 8 18 8 39 2 55 13 92 27 90 30 -4 47 2 47 17 0 13 -7 15 -30 11
-22 -5 -30 -3 -30 8 0 9 9 13 27 12 22 -2 30 6 52 50 20 39 30 51 43 47 10 -3
27 4 40 16 12 11 28 18 35 16 7 -3 13 1 13 9 0 8 -7 15 -15 15 -12 0 -15 14
-15 64 0 35 -3 84 -6 110 -6 39 -4 45 8 41 10 -4 17 -27 21 -72 4 -36 9 -68
12 -72 12 -12 25 26 25 76 0 52 16 103 32 103 4 0 8 -9 8 -20 0 -30 20 -24 33
10 10 26 15 30 44 26 23 -2 33 1 33 10 0 8 -6 14 -14 14 -17 0 -28 24 -20 45
7 17 34 21 34 5 0 -17 15 -11 29 12 12 20 11 24 -13 45 -15 13 -32 23 -37 23
-5 0 -37 -27 -70 -60z"/>
<path d="M4352 7048 c-7 -7 -12 -19 -12 -28 0 -17 -38 -40 -65 -40 -9 0 -12
-6 -9 -15 4 -8 1 -22 -6 -30 -10 -12 -9 -15 9 -15 22 0 30 -20 9 -20 -26 -1
-60 -39 -53 -60 3 -11 2 -20 -3 -20 -9 0 -13 -27 -12 -95 0 -16 0 -51 -1 -77
0 -35 4 -48 14 -48 11 0 15 15 16 57 0 33 8 67 17 81 9 14 12 27 7 31 -11 7
-11 101 0 101 4 0 7 -7 7 -15 0 -22 17 -18 30 6 7 12 18 18 26 15 14 -5 16 0
32 78 7 39 32 63 32 32 0 -9 -4 -16 -10 -16 -5 0 -10 -13 -10 -30 0 -35 9 -38
33 -9 15 17 16 26 8 52 -8 23 -8 33 0 38 7 4 9 14 6 23 -7 19 -48 21 -65 4z"/>
<path d="M5186 6994 c-20 -20 -36 -45 -36 -55 0 -10 -11 -26 -25 -37 -25 -20
-33 -42 -16 -42 5 0 14 7 21 15 7 8 19 15 27 15 10 0 14 7 10 20 -3 10 1 24 8
30 10 8 14 2 17 -27 3 -21 1 -46 -4 -56 -6 -12 -5 -23 2 -32 6 -8 9 -23 5 -35
-3 -11 -2 -20 3 -20 10 0 22 47 22 89 0 31 27 74 41 66 5 -4 10 -27 10 -53 1
-28 4 -36 6 -20 3 18 9 25 19 21 8 -3 14 1 14 11 0 9 -7 16 -15 16 -18 0 -20
41 -3 58 10 10 10 15 -2 22 -11 7 -19 4 -29 -10 -15 -22 -46 -27 -56 -9 -4 6
2 13 14 16 22 6 26 19 12 41 -6 11 -17 5 -45 -24z"/>
<path d="M6763 6972 c3 -28 0 -35 -19 -42 -12 -5 -25 -19 -29 -31 -7 -22 -8
-22 -21 -4 -11 14 -17 16 -26 7 -8 -8 -8 -15 2 -26 8 -10 10 -28 6 -50 -7 -38
8 -59 17 -24 6 21 7 22 27 3 24 -22 33 -15 55 40 l15 40 -3 -47 c-3 -60 18
-65 28 -8 4 22 11 40 16 40 20 0 7 31 -17 40 -33 13 -34 13 -34 -5 0 -8 -4
-15 -10 -15 -19 0 -10 30 15 46 26 17 33 34 14 34 -7 0 -18 8 -26 18 -13 15
-14 14 -10 -16z"/>
<path d="M4908 6978 c-3 -7 -4 -39 -2 -70 2 -51 0 -58 -17 -58 -11 0 -19 -7
-19 -16 0 -10 7 -14 23 -12 20 3 22 -1 23 -53 0 -31 4 -61 8 -67 4 -7 3 -12
-3 -12 -5 0 -13 24 -18 53 -4 28 -13 52 -18 52 -26 1 -35 19 -35 73 -1 56 -1
56 -14 27 -8 -19 -10 -38 -5 -53 12 -30 11 -32 -4 -32 -7 0 -18 -9 -25 -20 -7
-11 -18 -20 -25 -20 -24 0 -35 -43 -29 -119 3 -48 9 -74 18 -78 8 -3 14 -16
14 -29 0 -12 8 -27 18 -33 14 -8 15 -13 5 -30 -7 -12 -13 -26 -13 -33 0 -9 3
-8 10 2 17 28 28 -3 20 -55 -9 -59 5 -100 16 -47 5 24 9 30 15 20 5 -7 6 -26
3 -42 -5 -23 -3 -28 9 -23 10 4 17 -2 20 -15 8 -27 23 -16 31 23 5 27 8 30 21
19 8 -7 15 -28 15 -46 0 -33 19 -49 21 -19 2 19 4 25 13 48 5 10 3 23 -3 31
-7 8 -11 37 -10 65 2 29 -3 57 -9 63 -7 7 -12 18 -12 26 0 12 3 12 15 2 13
-10 15 -9 15 9 0 13 -6 28 -13 35 -8 8 -11 32 -10 62 2 27 3 68 3 92 0 30 4
42 14 42 8 0 18 5 22 11 5 9 -1 10 -20 5 -20 -5 -26 -3 -26 9 0 9 7 18 15 21
13 6 14 8 1 18 -17 14 -30 66 -16 66 13 0 13 27 0 32 -5 2 -11 21 -13 43 -4
39 -20 58 -29 33z"/>
<path d="M7270 6894 c-30 -14 -68 -38 -85 -53 -20 -19 -45 -30 -74 -34 -34 -4
-50 -13 -71 -39 -29 -36 -93 -63 -140 -60 -28 2 -53 -14 -63 -41 -4 -11 -16
-21 -27 -24 -12 -3 -20 -14 -20 -27 0 -12 -5 -27 -12 -34 -21 -21 6 -12 34 11
15 12 31 34 37 50 13 35 36 37 27 2 -5 -18 -2 -25 9 -25 8 0 15 4 15 9 0 13
59 41 87 41 14 0 23 6 23 15 0 8 5 15 11 15 5 0 7 -4 4 -10 -14 -23 15 -7 33
18 11 15 33 34 49 42 15 8 30 17 33 20 3 3 22 11 43 17 30 9 37 9 37 -3 0 -8
-6 -14 -13 -14 -19 0 -77 -57 -77 -76 0 -16 1 -16 19 0 10 9 25 14 33 11 10
-4 24 5 39 27 13 18 31 39 41 46 10 7 18 22 18 33 0 10 5 19 12 19 19 0 68 52
68 72 0 24 -23 22 -90 -8z"/>
<path d="M172 6870 c-21 -20 -62 -23 -78 -7 -4 4 -13 7 -20 7 -11 0 -12 -17
-8 -72 3 -40 6 -82 7 -93 0 -11 -2 -30 -7 -42 -5 -18 -4 -23 8 -23 14 0 16 16
16 100 0 89 9 123 23 88 4 -10 8 -10 15 1 14 20 24 -2 29 -62 2 -28 9 -59 14
-70 8 -13 8 -22 0 -30 -15 -15 -14 -23 5 -42 19 -18 27 -84 12 -102 -6 -7 -5
-14 2 -18 5 -3 14 4 18 17 12 35 6 156 -8 173 -8 9 -10 26 -5 47 6 31 8 69 4
126 -1 27 0 27 -27 2z"/>
<path d="M5933 6609 c-18 -12 -33 -26 -33 -32 0 -7 -11 -25 -25 -42 -22 -26
-55 -88 -55 -102 0 -2 10 -1 22 2 18 6 20 4 13 -11 -25 -60 -28 -74 -22 -80 3
-4 13 -1 22 6 12 10 15 10 15 -3 0 -9 -4 -19 -10 -22 -13 -8 -13 -25 -1 -25
18 0 41 31 41 55 0 18 -4 23 -15 19 -18 -7 -22 31 -5 41 6 4 10 14 9 23 -3 33
1 41 21 39 14 -1 19 -6 14 -17 -4 -8 -9 -26 -12 -40 l-5 -25 20 25 c19 24 37
124 21 113 -5 -2 -8 1 -8 6 0 6 7 11 15 11 20 0 27 19 17 52 l-7 27 -32 -20z"/>
<path d="M4660 6585 c-9 -11 -10 -23 -4 -38 12 -27 6 -77 -8 -77 -6 0 -8 11
-6 25 3 14 1 28 -3 31 -5 3 -6 17 -3 31 6 22 4 25 -10 20 -10 -4 -21 -7 -26
-7 -4 0 -11 -24 -14 -52 -3 -29 -8 -66 -10 -83 -5 -38 -9 -117 -6 -130 1 -5 3
-14 4 -20 2 -20 21 -9 21 12 1 12 4 25 8 29 4 4 7 15 7 24 0 10 7 23 15 30 8
7 15 21 15 31 0 11 4 19 9 19 19 0 23 -21 11 -51 -12 -28 -8 -50 7 -35 13 12
40 171 31 181 -4 5 -8 21 -8 36 0 34 -13 44 -30 24z"/>
<path d="M7291 6346 c-13 -7 -32 -11 -42 -9 -14 4 -16 0 -12 -16 4 -16 1 -21
-15 -21 -12 0 -24 -5 -27 -11 -4 -6 -13 -8 -20 -5 -7 2 -16 -2 -19 -10 -4 -10
-13 -13 -26 -9 -11 4 -20 2 -20 -4 0 -6 -10 -10 -22 -8 -19 2 -24 -4 -26 -28
-2 -23 2 -32 20 -40 21 -9 23 -17 24 -80 1 -89 12 -147 27 -142 7 2 11 25 9
60 -1 31 3 57 8 57 6 0 10 -11 10 -25 0 -38 28 -32 33 8 l4 32 1 -31 c1 -17
11 -39 21 -49 20 -17 20 -16 19 54 0 40 2 75 6 78 3 4 6 -8 6 -25 0 -18 5 -32
10 -32 6 0 10 -7 10 -15 0 -8 5 -15 10 -15 6 0 10 7 10 15 0 8 5 23 11 34 9
13 9 23 1 37 -11 18 -11 18 -12 -3 0 -13 -4 -23 -10 -23 -5 0 -10 14 -10 31 0
24 4 30 15 25 12 -4 15 2 15 28 0 33 23 56 35 36 4 -6 1 -10 -4 -10 -6 0 -11
-9 -11 -20 0 -11 5 -20 11 -20 5 0 7 -5 3 -12 -4 -7 -7 -27 -6 -45 2 -22 -2
-35 -13 -39 -10 -4 -15 -20 -15 -53 0 -26 -4 -51 -9 -56 -5 -6 -11 -30 -13
-54 -3 -41 -1 -45 23 -52 25 -6 27 -4 33 30 3 20 6 52 6 71 0 26 3 31 10 20 6
-10 10 48 10 173 l0 187 -22 0 c-13 -1 -34 -7 -47 -14z"/>
<path d="M7004 5992 c-4 -15 -17 -25 -35 -29 -27 -5 -28 -8 -23 -43 4 -23 2
-40 -5 -44 -15 -10 -14 -26 2 -26 18 0 36 -106 25 -154 -5 -21 -7 -41 -4 -43
10 -10 26 9 26 30 0 12 5 29 10 37 8 13 11 13 19 1 13 -20 -17 -101 -36 -101
-19 0 -42 -29 -43 -52 0 -10 -5 -18 -11 -18 -5 0 -7 -5 -4 -10 4 -6 2 -16 -3
-23 -6 -7 -12 -46 -13 -87 -2 -65 0 -75 15 -78 20 -4 46 26 39 45 -3 7 0 19 5
26 7 8 7 18 2 27 -5 8 -6 18 -3 23 3 4 5 31 5 58 -1 42 2 50 16 47 14 -3 17
-14 16 -58 -1 -30 -4 -73 -8 -95 -4 -22 -7 -49 -7 -59 0 -30 -17 -54 -36 -52
-10 2 -13 1 -7 -1 17 -6 34 -51 27 -69 -5 -13 -2 -15 18 -9 13 4 27 13 31 19
22 36 34 45 47 37 12 -8 12 -13 3 -24 -7 -8 -14 -54 -16 -103 -2 -49 -4 -97
-5 -108 -1 -12 -6 -16 -16 -12 -8 3 -21 9 -29 12 -9 4 -20 -5 -30 -24 -17 -32
-13 -42 17 -42 14 0 17 5 13 17 -4 10 -4 14 0 11 4 -4 15 -3 25 3 15 7 19 6
19 -6 0 -8 9 -15 20 -15 14 0 20 7 20 21 0 18 5 20 52 17 46 -3 53 -6 58 -28
7 -30 40 -41 40 -13 0 11 -4 23 -9 28 -6 6 -1 19 15 34 18 17 24 19 24 8 0 -9
-5 -19 -10 -22 -13 -8 6 -45 22 -45 6 0 20 8 31 18 20 17 20 16 13 -40 -5 -46
-3 -58 8 -58 22 0 26 48 26 326 0 230 -2 265 -16 279 -16 15 -19 12 -46 -44
-31 -64 -41 -76 -59 -65 -8 4 -7 9 2 14 10 7 10 12 -2 26 -11 13 -11 18 -1 21
6 3 12 13 12 24 0 12 7 19 18 19 11 0 24 13 33 33 8 17 24 36 37 42 21 9 22
16 21 92 -1 46 -4 83 -8 83 -11 -1 -40 -69 -31 -72 6 -2 6 -9 0 -18 -8 -12
-13 -11 -32 10 l-23 25 -3 -24 c-2 -13 2 -28 10 -33 10 -7 10 -11 1 -15 -7 -2
-13 -19 -13 -37 0 -42 -8 -49 -33 -31 -14 10 -21 26 -21 47 -1 25 -5 32 -18
30 -15 -2 -16 4 -11 47 4 33 2 56 -6 65 -7 8 -13 27 -14 42 -2 26 -13 37 -49
48 -10 3 -18 15 -18 27 0 41 -23 89 -42 89 -10 0 -23 10 -28 23 l-9 22 -7 -23z
m153 -679 c-5 -48 5 -83 24 -83 5 0 7 11 3 24 -6 25 11 45 26 30 11 -11 19
-194 9 -219 -6 -19 -7 -19 -14 -2 -4 10 -5 21 -2 24 4 3 -2 18 -13 33 -11 16
-20 32 -20 38 0 16 -41 22 -46 7 -3 -8 -12 -11 -20 -8 -8 3 -14 -1 -14 -11 0
-16 22 -13 48 7 7 5 12 6 12 0 0 -5 -6 -15 -12 -22 -11 -10 -9 -15 5 -26 11
-7 25 -11 33 -8 22 8 17 -11 -7 -25 -17 -11 -23 -11 -32 2 -7 8 -21 16 -32 18
-23 3 -34 39 -27 86 4 28 6 30 30 21 18 -7 27 -6 33 3 6 9 13 5 27 -12 12 -15
23 -20 32 -15 10 6 7 12 -11 26 -13 10 -30 19 -36 19 -7 0 -13 4 -13 10 0 5
-6 7 -14 4 -21 -8 -32 17 -13 31 13 9 14 14 4 24 -9 10 -9 12 2 9 8 -2 16 6
18 17 12 62 27 61 20 -2z"/>
<path d="M7114 451 c-39 -24 -84 -78 -84 -101 0 -14 -5 -18 -17 -14 -14 5 -15
4 -5 -4 27 -19 8 -46 -42 -63 -28 -8 -51 -20 -53 -25 -4 -12 64 -94 78 -94 5
0 9 8 9 19 0 10 6 24 14 31 8 6 16 21 18 32 5 32 28 35 28 4 0 -14 -4 -26 -9
-26 -7 0 -3 -100 5 -109 9 -10 18 11 20 47 6 70 16 127 25 138 6 7 31 15 57
18 68 10 115 26 129 44 12 14 16 13 38 -8 24 -22 24 -24 7 -43 -16 -19 -16
-19 3 -16 18 4 20 12 20 74 0 67 -1 69 -32 87 -47 28 -169 33 -209 9z"/>
</g>
</svg>
