<?xml version="1.0" standalone="no"?>
<!DOCTYPE svg PUBLIC "-//W3C//DTD SVG 20010904//EN"
 "http://www.w3.org/TR/2001/REC-SVG-20010904/DTD/svg10.dtd">
<svg version="1.0" xmlns="http://www.w3.org/2000/svg"
 width="202.000000pt" height="192.000000pt" viewBox="0 0 202.000000 192.000000"
 preserveAspectRatio="xMidYMid meet">
<metadata>
Created by potrace 1.16, written by Peter Selinger 2001-2019
</metadata>
<g transform="translate(0.000000,192.000000) scale(0.100000,-0.100000)"
fill="#000000" stroke="none">
<path d="M1290 1849 c-18 -58 -18 -58 -41 -29 l-19 25 2 -30 c2 -22 -1 -29
-12 -26 -33 8 -60 9 -60 1 0 -4 7 -10 15 -14 8 -3 15 -10 15 -15 0 -7 -9 -7
-26 -1 -38 15 -49 12 -31 -8 22 -24 21 -31 -1 -26 -9 3 -28 1 -42 -5 -14 -5
-19 -10 -12 -10 6 -1 12 -6 12 -12 0 -6 -7 -8 -15 -5 -53 21 -50 22 -32 -4 23
-33 22 -37 -12 -45 -31 -7 -51 -35 -26 -35 12 0 11 -4 -4 -19 -12 -12 -18 -30
-17 -45 4 -30 -1 -32 -26 -9 -14 13 -18 13 -18 2 -1 -10 -6 -8 -17 6 -15 19
-15 19 -9 -9 l7 -29 -25 17 c-19 12 -26 13 -26 4 -1 -8 -7 -5 -17 7 -15 19
-15 19 -9 -7 5 -21 3 -26 -8 -22 -10 4 -13 -4 -10 -38 3 -31 1 -39 -6 -28 -8
12 -12 13 -19 2 -7 -12 -12 -12 -30 -1 -11 8 -21 19 -21 25 0 20 -38 46 -57
40 -11 -3 -28 -22 -40 -42 l-20 -36 23 -25 c36 -39 30 -83 -6 -50 -8 6 -7 3 3
-9 9 -11 17 -31 17 -43 0 -18 -3 -20 -19 -11 -35 18 -37 10 -2 -11 24 -15 32
-25 28 -39 -3 -14 -1 -18 6 -13 7 4 7 0 -1 -9 -11 -14 -10 -17 8 -23 12 -4 19
-9 17 -12 -3 -2 -22 5 -44 17 -21 11 -28 18 -15 15 35 -10 26 3 -14 20 l-37
15 6 58 c4 36 3 50 -3 37 -5 -11 -9 -35 -9 -52 -1 -18 -3 -33 -6 -33 -3 0 -43
22 -89 48 -100 57 -180 79 -231 62 -19 -6 -37 -20 -40 -31 -8 -23 -24 -24 -89
-4 -56 17 -136 20 -136 5 0 -5 21 -10 47 -10 26 0 73 -5 104 -12 57 -12 58
-12 52 -42 -3 -18 -2 -27 3 -23 5 5 9 16 9 25 0 9 6 16 14 14 7 -1 42 -4 77
-7 46 -3 79 -12 116 -32 l52 -28 -39 -3 c-24 -2 -41 2 -46 10 -6 10 -9 10 -9
1 0 -8 -10 -11 -28 -9 -15 2 -47 7 -72 11 -60 9 -159 -8 -227 -40 -31 -14 -54
-28 -51 -30 3 -3 30 6 61 20 31 14 80 28 109 31 29 2 69 6 88 9 l35 4 -35 -17
c-19 -9 -66 -49 -104 -89 -37 -40 -72 -70 -77 -67 -5 3 -8 0 -7 -8 2 -7 -3
-12 -9 -11 -7 2 -20 -8 -29 -22 -9 -14 -19 -23 -23 -21 -4 3 -7 -6 -7 -19 0
-19 3 -22 13 -13 7 5 10 15 6 20 -3 6 0 8 8 6 8 -3 21 1 30 9 18 15 53 7 42
-11 -4 -6 1 -5 10 3 19 15 13 33 -8 24 -20 -7 -19 2 4 29 11 13 38 47 60 76
44 55 57 62 64 35 3 -11 5 -8 6 9 1 22 7 29 39 37 50 15 99 14 105 -1 4 -10 6
-10 6 0 1 17 95 15 146 -3 51 -19 60 -19 45 0 -10 13 -11 18 -1 28 7 7 11 8
10 2 -1 -5 4 -24 10 -42 11 -29 16 -32 44 -26 l32 5 -23 -23 c-18 -19 -33 -24
-75 -24 -77 1 -123 13 -157 41 -16 14 -30 22 -30 17 0 -5 -27 -22 -60 -38 -33
-16 -58 -30 -56 -32 2 -3 30 9 63 25 l59 30 38 -23 38 -23 -28 -16 c-16 -8
-24 -15 -19 -15 6 0 21 6 35 14 14 8 38 14 54 15 25 0 27 -2 15 -17 -11 -15
-11 -16 1 -5 19 16 64 16 54 0 -4 -7 2 -5 13 5 32 28 45 19 20 -14 -16 -21
-63 -37 -52 -18 6 9 2 8 -11 -2 -21 -18 -84 -42 -84 -32 0 4 6 14 12 23 7 9 2
4 -12 -10 -30 -31 -84 -55 -101 -44 -7 4 -10 3 -6 -4 4 -6 -16 -23 -46 -40
-66 -37 -80 -53 -74 -89 4 -28 4 -28 6 3 1 27 4 31 24 27 13 -3 47 2 75 11 29
8 52 13 52 10 0 -2 17 7 38 21 33 22 102 49 102 41 0 -2 -13 -27 -29 -55 -17
-33 -31 -48 -34 -40 -3 8 -6 9 -6 3 -1 -8 -14 -9 -43 -4 -35 7 -50 3 -102 -23
-75 -37 -74 -36 -56 -47 21 -13 38 -12 20 1 -11 8 -12 12 -3 16 7 2 34 15 59
28 44 22 81 24 68 3 -3 -5 3 -4 14 3 26 16 37 7 23 -19 -17 -33 -41 -52 -63
-52 -18 0 -19 2 -7 18 12 15 11 15 -8 -1 -14 -13 -29 -17 -45 -12 -20 5 -21 5
-5 -5 18 -12 71 -9 113 5 19 6 21 3 17 -22 -2 -15 5 -3 15 29 11 31 31 77 46
103 37 68 135 203 177 245 62 63 156 70 160 12 3 -51 -3 -186 -11 -247 -5 -38
-6 -86 -2 -105 7 -28 8 -20 8 41 1 41 4 81 9 88 4 8 7 53 6 102 -2 87 3 101
27 77 7 -7 12 -9 12 -5 0 3 -8 14 -19 24 -27 27 -33 64 -13 80 15 13 15 13 -7
7 -16 -4 -21 -3 -17 5 11 18 36 13 44 -9 7 -19 8 -19 18 -2 9 14 7 24 -13 47
-13 17 -21 22 -18 13 4 -11 -1 -20 -15 -28 -24 -13 -23 -13 -39 17 -15 30 -14
38 4 23 8 -7 12 -16 9 -21 -3 -5 4 -9 15 -9 24 0 27 10 9 29 -10 11 -10 13 0
7 28 -16 9 15 -42 68 -67 69 -57 73 17 6 50 -46 86 -99 91 -138 4 -23 25 -27
33 -7 5 15 8 14 19 -6 13 -24 13 -24 14 -2 0 12 4 25 10 28 6 4 7 -1 4 -12 -5
-12 3 -8 24 12 23 22 30 36 26 52 -8 29 -24 20 -25 -15 l-1 -27 -8 25 c-5 16
-8 19 -9 8 -1 -9 -6 -20 -13 -24 -8 -5 -9 -2 -5 9 3 10 2 17 -3 17 -6 0 -10
-8 -10 -17 0 -15 -2 -16 -10 -3 -5 8 -10 12 -10 8 0 -3 -27 22 -60 56 -37 38
-60 71 -60 85 0 12 4 19 10 16 6 -4 8 -10 5 -15 -3 -4 4 -6 14 -3 13 3 18 10
14 21 -5 12 -1 14 16 9 13 -3 20 -3 17 0 -9 10 23 35 36 27 7 -5 9 -2 5 8 -4
12 0 15 19 13 13 -1 24 2 24 8 0 6 8 3 18 -5 9 -8 25 -18 35 -21 9 -4 17 -12
17 -19 0 -9 3 -8 10 2 8 12 10 11 10 -7 0 -13 4 -23 9 -23 5 0 8 -7 7 -16 -2
-25 21 -28 27 -3 6 24 -13 82 -20 61 -3 -8 -10 -6 -21 8 -10 10 -30 22 -45 24
-37 6 -61 26 -48 39 11 11 91 -1 91 -14 0 -6 4 -7 10 -4 11 7 53 -19 44 -28
-3 -3 3 -10 14 -16 14 -7 19 -19 17 -40 -1 -18 3 -32 12 -35 11 -4 11 -10 3
-26 -9 -16 -8 -20 5 -20 15 0 15 -1 0 -16 -9 -9 -14 -23 -11 -30 3 -8 1 -14
-4 -14 -5 0 -7 -7 -4 -15 4 -8 1 -15 -6 -15 -6 0 -8 -5 -5 -10 4 -6 1 -17 -5
-25 -10 -12 -10 -15 1 -15 8 0 1 -9 -16 -20 -16 -11 -24 -20 -16 -20 13 0 -42
-42 -70 -53 -8 -3 -1 -6 14 -6 15 -1 44 6 65 15 20 8 32 10 26 4 -7 -7 -40
-22 -75 -35 -47 -17 -59 -25 -46 -30 9 -4 28 -4 42 -1 33 8 32 0 -2 -18 -24
-13 -25 -15 -8 -16 25 0 78 34 68 44 -4 4 0 4 9 1 16 -6 15 -10 -4 -36 -12
-16 -26 -29 -31 -29 -6 0 -3 -8 5 -17 24 -28 40 -63 59 -128 9 -33 20 -69 24
-79 7 -15 5 -17 -5 -11 -20 12 -111 15 -104 3 3 -5 17 -7 31 -3 14 3 22 2 19
-3 -3 -5 13 -9 35 -10 43 -2 87 -27 185 -104 99 -77 162 -188 179 -315 4 -29
11 -53 15 -53 17 0 32 -108 29 -203 -3 -62 0 -96 6 -94 6 2 10 52 9 125 l0
120 135 4 c129 3 189 -1 255 -18 22 -5 28 -4 24 7 -3 8 -12 13 -21 11 -8 -1
-18 1 -21 6 -3 5 6 8 19 6 14 -1 25 1 25 6 0 15 -35 23 -105 25 -77 3 -82 4
-139 28 -21 9 -42 17 -47 17 -5 0 -9 7 -9 15 0 14 -16 19 -52 16 -15 -2 -17 3
-12 31 4 18 10 37 14 42 11 11 32 -3 24 -16 -4 -6 -3 -8 3 -5 6 4 18 0 29 -7
10 -8 23 -12 30 -9 6 2 14 -3 18 -13 5 -13 9 -14 21 -4 17 14 20 30 4 30 -5 0
-8 -4 -4 -9 3 -5 1 -12 -4 -15 -11 -7 -9 13 2 32 11 17 1 15 -30 -5 -25 -17
-25 -16 -19 4 7 21 -13 45 -40 49 -10 2 -10 -4 3 -24 l16 -27 -23 22 c-26 25
-22 56 7 46 16 -5 16 -4 -1 9 -23 18 -14 38 14 31 11 -3 17 -9 14 -14 -3 -5
-1 -9 5 -9 6 0 8 -6 5 -13 -2 -7 3 -20 13 -29 20 -18 121 -50 134 -43 4 3 10
1 14 -5 3 -5 14 -10 23 -10 14 1 12 5 -7 21 -14 11 -34 19 -45 18 -56 -4 -57
-2 -26 47 16 26 27 51 24 55 -3 5 0 9 6 9 7 0 10 -7 7 -15 -12 -29 12 -25 28
5 18 35 40 41 30 9 -6 -19 -4 -21 14 -16 11 3 21 1 21 -3 0 -4 8 -6 18 -3 10
2 19 11 19 18 0 8 -5 11 -11 8 -5 -4 -22 -8 -36 -9 l-25 -3 23 19 c13 10 30
16 37 13 10 -3 15 2 15 16 0 19 -3 20 -20 11 -17 -9 -20 -8 -20 14 0 13 -3 31
-6 40 -4 10 3 19 20 27 29 14 36 49 9 49 -17 1 -17 1 0 11 10 6 17 22 17 41 0
25 -3 29 -12 20 -7 -7 -17 -12 -22 -12 -6 0 0 7 12 16 20 14 22 24 22 101 l0
86 -21 -19 c-18 -17 -19 -19 -4 -30 14 -11 13 -14 -12 -31 -49 -34 -59 -36
-26 -5 41 39 30 50 -16 15 -34 -25 -35 -25 -14 -2 21 24 53 91 53 112 0 6 -7
2 -16 -9 -8 -10 -13 -13 -9 -6 3 7 3 22 0 33 -6 17 -9 19 -17 8 -7 -10 -8 -9
-4 6 3 11 2 40 -3 65 -5 25 -9 35 -10 23 -1 -28 -27 -21 -34 9 -8 30 3 83 14
66 6 -8 9 6 10 37 l2 50 6 -40 c4 -22 14 -52 24 -65 9 -13 17 -36 17 -50 0
-24 1 -24 21 8 12 17 22 32 24 32 6 0 -18 -106 -27 -117 -7 -9 -7 -13 0 -13 6
0 14 5 17 10 4 6 11 8 16 5 5 -4 9 39 9 105 0 78 -3 109 -11 104 -7 -4 -10 5
-8 27 4 58 0 84 -16 105 -11 13 -15 15 -14 4 1 -8 -2 -28 -7 -45 -8 -26 -10
-18 -14 50 -6 79 -6 80 -19 47 -19 -47 -30 -24 -31 58 l-1 65 -16 -32 c-9 -18
-19 -33 -22 -33 -3 0 -14 27 -25 60 -20 65 -30 75 -33 34 -3 -52 -20 -48 -37
9 -9 30 -16 62 -16 71 0 34 -20 14 -21 -21 l-1 -38 -15 50 -15 49 -14 -27
c-18 -34 -30 -34 -38 -2 -3 13 -11 37 -18 52 l-11 28 -6 -34 c-6 -37 -31 -56
-31 -24 0 11 -7 28 -15 39 -14 19 -14 19 -15 -1 0 -11 -5 -27 -10 -35 -7 -12
-13 -6 -27 27 -22 51 -31 54 -35 11 l-3 -33 -30 44 c-29 44 -30 44 -33 18 -4
-32 -17 -35 -34 -7 -7 11 -16 20 -19 20 -4 0 -5 -9 -2 -20 8 -31 -16 -24 -27
8 -25 67 -25 67 -40 21z m335 -572 c15 -12 17 -22 11 -57 -4 -24 -13 -55 -21
-69 -43 -79 -47 -99 -33 -140 12 -39 14 -40 38 -28 14 7 34 12 45 11 57 -4 81
-10 95 -24 15 -15 30 -20 62 -23 10 -1 18 -5 18 -10 0 -4 5 -5 10 -2 6 3 10
-1 10 -9 0 -8 -4 -18 -10 -21 -5 -3 -10 -21 -10 -38 0 -18 -7 -44 -17 -57 -20
-31 -65 -80 -72 -80 -3 0 -6 28 -6 63 0 50 -5 67 -21 83 -16 16 -24 18 -36 10
-25 -19 -50 -64 -42 -77 4 -8 3 -9 -4 -5 -8 5 -12 0 -12 -14 0 -11 -9 -46 -20
-77 -24 -68 -23 -63 -5 -63 9 0 12 -6 8 -15 -3 -9 -2 -15 3 -14 5 2 23 -6 40
-16 34 -21 62 -55 44 -55 -16 0 -50 -87 -50 -128 -1 -28 -3 -33 -10 -21 -5 9
-23 22 -40 29 -16 7 -30 16 -30 20 0 4 -9 10 -20 13 -11 3 -25 18 -31 34 -10
24 -21 51 -38 88 -2 5 7 -1 20 -15 13 -15 18 -18 10 -8 -16 20 -10 30 17 33
38 5 52 17 52 47 0 23 -4 29 -16 24 -10 -4 -13 -2 -8 6 5 7 2 9 -8 6 -12 -5
-14 0 -8 30 7 42 6 83 -2 98 -3 5 -8 26 -12 46 -5 27 -11 36 -21 32 -10 -4
-13 -14 -9 -30 4 -16 0 -31 -10 -43 -13 -14 -14 -21 -5 -27 8 -5 10 -3 4 6 -5
9 -4 11 4 6 6 -4 9 -12 5 -17 -3 -5 -9 -7 -14 -4 -5 3 -11 1 -15 -5 -3 -5 -2
-10 4 -10 6 0 8 -7 5 -15 -4 -8 -11 -12 -18 -8 -6 3 -7 2 -3 -2 10 -12 39 -16
32 -5 -3 5 -1 11 3 14 5 3 8 -7 7 -22 -1 -15 6 -33 14 -40 9 -8 11 -11 4 -8
-6 4 -15 -4 -18 -16 -4 -13 -14 -30 -21 -39 -13 -14 -18 -12 -55 23 -22 21
-71 60 -108 86 -61 43 -67 50 -59 71 8 23 58 88 58 77 0 -3 9 2 19 12 37 32
50 42 61 42 5 0 10 4 10 9 0 18 57 69 81 73 16 2 23 8 21 20 -2 13 3 17 19 15
11 -1 25 5 29 13 78 149 86 186 44 196 -14 4 -35 2 -47 -4 l-22 -11 22 0 c39
-2 53 -12 52 -40 0 -26 0 -26 -11 -4 -7 14 -24 25 -46 29 -40 8 -64 -3 -68
-30 -1 -10 -8 -24 -14 -30 -9 -8 -11 -2 -8 24 2 29 9 38 38 52 29 15 31 18 13
18 -52 0 -75 -55 -53 -129 8 -27 6 -38 -12 -61 -13 -18 -19 -38 -16 -54 6 -29
-14 -51 -36 -43 -33 13 -33 64 0 163 17 52 38 102 48 112 13 14 78 30 162 41
5 0 18 -5 29 -12z m-421 -237 c-28 -57 -31 -74 -8 -42 8 12 19 20 24 17 4 -3
10 4 13 14 6 25 46 51 91 58 36 6 36 5 26 -21 -11 -30 -5 -69 16 -103 13 -21
12 -24 -15 -37 -16 -9 -50 -37 -77 -63 -37 -37 -46 -43 -42 -26 3 13 2 26 -3
29 -5 3 -9 -4 -9 -15 0 -40 -18 -21 -29 31 -6 28 -21 69 -33 90 -26 45 -21 60
32 96 18 12 34 22 36 22 1 0 -9 -22 -22 -50z"/>
<path d="M971 933 c-7 -38 -9 -82 -5 -97 4 -15 1 -68 -6 -116 -15 -104 -9
-137 26 -150 32 -12 22 -31 -14 -28 -15 1 -33 -2 -40 -6 -8 -5 -14 2 -18 23
-4 21 -12 31 -24 31 -22 0 -30 27 -30 103 0 43 3 57 15 57 11 0 15 -18 18 -77
l3 -78 2 85 2 85 -26 0 -26 0 4 -86 4 -87 -28 21 c-20 15 -30 34 -38 76 -6 31
-13 61 -16 66 -6 15 7 -85 14 -103 4 -11 1 -14 -11 -9 -31 12 -18 -2 21 -22
20 -11 57 -39 82 -62 25 -24 49 -42 53 -41 5 1 6 -1 4 -5 -3 -5 1 -19 8 -32
15 -28 3 -77 -21 -84 -9 -3 -8 -4 3 -3 27 2 48 53 34 82 -9 21 -8 26 7 31 9 3
25 13 35 21 16 14 17 14 11 -1 -4 -12 -1 -17 11 -17 9 0 13 5 10 10 -3 5 -1
10 5 10 7 0 10 5 8 12 -2 6 4 20 14 30 35 35 16 93 -42 132 -37 25 -38 25 -42
103 -2 43 0 100 5 126 4 27 7 53 5 59 -3 7 -10 -20 -17 -59z"/>
</g>
</svg>
