<?xml version="1.0" standalone="no"?>
<!DOCTYPE svg PUBLIC "-//W3C//DTD SVG 20010904//EN"
 "http://www.w3.org/TR/2001/REC-SVG-20010904/DTD/svg10.dtd">
<svg version="1.0" xmlns="http://www.w3.org/2000/svg"
 width="174.000000pt" height="250.000000pt" viewBox="0 0 174.000000 250.000000"
 preserveAspectRatio="xMidYMid meet">
<metadata>
Created by potrace 1.16, written by Peter Selinger 2001-2019
</metadata>
<g transform="translate(0.000000,250.000000) scale(0.100000,-0.100000)"
fill="#000000" stroke="none">
<path d="M615 2473 c9 -40 32 -71 64 -91 l29 -17 -22 -27 c-11 -15 -42 -36
-68 -48 -32 -14 -48 -27 -48 -39 0 -10 -9 -39 -20 -64 -17 -37 -20 -66 -19
-159 0 -101 -2 -122 -25 -177 -14 -35 -28 -79 -32 -98 -4 -23 -14 -37 -29 -43
-13 -5 -28 -16 -33 -26 -6 -11 -11 -13 -16 -5 -4 6 -17 11 -29 11 -19 -1 -18
-3 8 -14 27 -12 32 -11 51 5 33 31 50 24 61 -26 8 -34 7 -45 -1 -41 -6 3 -42
14 -81 26 -80 25 -127 48 -205 98 -30 20 -60 35 -67 34 -6 -2 -24 14 -40 33
-28 36 -80 71 -90 61 -3 -3 0 -13 8 -23 10 -12 10 -15 1 -9 -10 6 -12 -16 -11
-106 1 -62 7 -119 13 -127 8 -11 8 -13 -1 -7 -17 9 -17 -6 -1 -23 10 -11 10
-13 1 -7 -17 9 -17 -6 -1 -23 10 -11 10 -13 1 -7 -10 5 -13 -11 -13 -69 0 -58
3 -74 12 -69 11 6 11 4 0 -7 -14 -15 -17 -33 -4 -25 5 3 9 -1 9 -9 0 -8 -4
-12 -9 -9 -4 3 -8 1 -8 -5 0 -5 5 -13 10 -16 7 -5 8 -11 1 -18 -15 -19 -14
-190 2 -181 6 4 9 4 5 -1 -4 -4 -2 -15 5 -24 11 -14 10 -14 -6 -2 -34 27 -18
-10 24 -56 l41 -45 -4 -78 -3 -78 60 5 60 6 -38 -27 c-21 -14 -46 -26 -55 -26
-10 0 -37 -12 -60 -27 l-42 -27 0 -373 0 -372 70 1 c56 0 70 3 70 16 0 8 7 23
16 33 16 17 20 62 10 106 -3 14 0 23 7 23 7 0 6 4 -3 11 -11 8 -12 12 -3 16
10 3 9 8 -2 20 -12 11 -13 19 -5 28 8 10 8 15 0 20 -7 4 -10 16 -7 26 3 10 1
21 -3 24 -5 3 -9 13 -9 23 0 9 -2 60 -4 112 -2 52 -1 106 3 120 4 15 8 -12 9
-65 2 -102 5 -126 12 -140 4 -6 7 -28 8 -50 1 -42 8 -100 11 -100 14 0 19
-137 6 -154 -8 -11 -8 -13 1 -7 9 5 13 -1 13 -23 0 -16 5 -33 12 -37 7 -5 8
-2 3 7 -6 11 -5 12 6 2 18 -18 49 -16 49 1 0 8 5 18 11 22 8 4 9 0 4 -15 -8
-25 1 -26 40 0 49 31 56 32 73 16 14 -15 14 -17 -9 -26 -20 -8 -14 -10 34 -10
33 -1 57 3 57 9 0 13 -31 62 -45 72 -15 12 4 9 26 -3 11 -5 17 -14 14 -19 -3
-6 0 -7 8 -5 7 3 31 -8 52 -25 37 -29 65 -39 65 -21 0 10 -31 38 -37 33 -3 -2
-7 -1 -10 1 -2 3 4 10 14 15 15 9 28 4 62 -24 42 -33 91 -45 91 -23 0 5 5 7
12 3 7 -4 8 -3 4 5 -4 6 -12 9 -17 5 -10 -6 -32 19 -56 63 -11 22 -11 22 13 7
13 -9 24 -20 24 -25 0 -5 6 -6 14 -3 8 3 17 0 22 -7 5 -8 3 -10 -6 -4 -8 5
-11 4 -6 -3 4 -6 13 -9 21 -5 14 5 20 -7 16 -30 -1 -5 3 -6 9 -2 5 3 10 1 10
-5 0 -14 309 -10 317 4 4 5 0 6 -8 1 -10 -5 -11 -5 -4 3 6 6 22 13 36 17 21 5
27 2 32 -15 4 -17 12 -20 41 -18 19 1 32 6 30 10 -3 5 -9 6 -14 3 -5 -3 -11
-1 -14 4 -6 9 7 11 91 14 20 0 30 5 26 11 -4 6 2 4 12 -4 11 -9 16 -10 11 -2
-6 11 5 17 27 13 4 0 7 4 7 10 0 5 5 7 10 4 6 -4 17 -2 24 5 8 6 22 13 32 15
11 2 35 9 54 14 48 15 83 14 77 -1 -4 -13 -16 -14 -47 -7 -8 2 -14 -2 -12 -8
1 -7 -2 -13 -6 -13 -4 0 -14 6 -21 13 -9 7 -11 7 -8 1 9 -15 -17 -25 -91 -38
-7 -1 -18 -8 -24 -14 -7 -7 -18 -12 -24 -12 -7 0 -15 -4 -18 -8 -5 -9 134 -13
148 -5 4 3 2 10 -5 15 -11 8 -11 9 1 5 8 -2 14 -10 12 -16 -3 -15 11 -14 27 2
11 9 13 9 7 0 -9 -17 26 -17 42 -1 9 9 15 9 24 0 7 -7 42 -12 86 -12 l75 0 -7
328 c-3 180 -8 579 -11 887 -9 930 -16 1285 -28 1285 -7 0 -8 -88 -3 -279 6
-250 5 -279 -9 -285 -9 -3 -27 -30 -41 -60 l-25 -54 -25 25 c-20 20 -33 24
-66 21 -37 -3 -42 -1 -63 32 -30 48 -95 104 -153 134 -31 16 -75 54 -118 102
-67 75 -192 168 -243 181 -13 3 -75 3 -137 0 -63 -3 -114 -2 -114 3 0 4 9 18
19 31 l19 24 -31 10 c-36 12 -66 50 -69 88 -1 15 -6 27 -11 27 -5 0 -6 -12 -2
-27z m1069 -1212 c-3 -3 -14 5 -25 19 -36 47 -40 50 -63 50 -22 0 -50 25 -72
66 -9 16 -9 33 3 75 8 30 15 97 16 149 0 81 -3 105 -26 159 -14 36 -24 68 -21
73 16 26 104 -15 104 -48 0 -29 16 -12 29 31 7 25 23 57 35 72 l21 28 3 -334
c1 -184 0 -337 -4 -340z m-86 -11 c6 0 18 0 25 1 18 0 40 -5 56 -15 11 -7 11
-10 0 -17 -11 -7 -11 -9 -1 -9 7 0 10 -5 7 -11 -4 -6 -12 -8 -19 -6 -14 6 -37
-18 -28 -29 4 -4 2 -4 -5 0 -7 4 -10 12 -7 19 3 9 -5 13 -23 13 -22 -1 -27 3
-25 18 3 17 2 18 -12 7 -9 -7 -13 -18 -9 -24 3 -6 1 -7 -6 -3 -9 6 -9 11 -1
21 7 8 9 19 5 25 -11 17 -34 -8 -30 -31 2 -11 0 -17 -6 -14 -19 12 -8 -12 16
-35 25 -24 35 -16 13 10 -11 12 -10 12 5 1 9 -7 17 -9 17 -4 0 5 7 10 15 10 8
0 13 -3 10 -5 -3 -3 2 -14 12 -24 16 -18 17 -18 45 9 15 14 31 23 35 20 3 -4
1 -7 -7 -7 -10 0 -10 -3 1 -17 12 -14 12 -16 -1 -11 -8 3 -23 1 -33 -4 -15 -7
-16 -12 -6 -24 12 -15 4 -19 -31 -15 -13 2 -13 0 -1 -8 8 -5 20 -7 28 -4 7 3
13 -2 13 -12 0 -9 -4 -14 -9 -11 -5 3 -14 -1 -21 -9 -7 -8 -9 -15 -6 -15 4 0
1 -10 -6 -22 -7 -13 -13 -26 -14 -30 -1 -5 -3 -11 -4 -15 -3 -8 -4 -13 -10
-38 -1 -5 -4 -26 -5 -45 -4 -47 -12 -100 -20 -130 -4 -14 -7 -31 -7 -38 -2
-24 -23 -5 -22 20 0 14 -5 25 -12 25 -9 0 -10 -4 -4 -12 5 -6 5 -17 0 -24 -4
-8 -6 -20 -3 -28 5 -12 -8 -18 -30 -14 -5 1 -6 -2 -3 -7 10 -16 51 -6 48 11
-2 11 2 15 11 11 8 -3 15 -16 15 -29 0 -16 -5 -22 -12 -18 -6 4 -5 -1 3 -10
10 -13 11 -20 2 -31 -7 -9 -8 -17 -2 -20 5 -3 7 -15 4 -26 -5 -19 -6 -19 -18
-3 -7 10 -11 25 -10 35 2 10 -1 21 -7 24 -7 4 -8 2 -4 -4 4 -7 4 -12 -1 -12
-4 0 -21 21 -36 46 l-28 47 26 27 c26 27 24 30 -20 30 -21 0 -45 -3 -45 -5 0
-2 8 -9 17 -16 9 -8 14 -9 10 -3 -4 7 3 12 19 12 24 0 24 -1 8 -19 -17 -18
-38 -20 -62 -6 -7 5 -10 12 -7 17 3 4 -3 14 -13 21 -15 13 -16 12 -3 -3 8 -11
9 -18 3 -18 -6 0 -14 5 -17 10 -4 6 -11 7 -17 4 -5 -4 -4 4 3 17 7 13 12 25
11 27 -1 1 0 2 3 2 3 0 10 0 16 0 5 0 8 -4 4 -9 -3 -5 0 -13 6 -17 8 -4 9 -3
5 4 -9 15 6 16 20 2 7 -7 11 -6 11 4 0 8 -4 13 -9 10 -4 -3 -8 -1 -8 5 0 5 4
12 9 15 12 8 33 -19 23 -29 -4 -5 -2 -6 3 -2 6 3 17 2 25 -3 9 -5 19 -5 26 1
7 5 18 8 25 7 9 -2 13 4 11 16 -2 12 1 16 9 10 8 -5 10 -3 4 6 -6 10 -4 12 10
6 15 -5 16 -4 5 9 -10 11 -15 13 -20 4 -6 -8 -9 -8 -15 1 -12 19 11 35 30 20
8 -7 15 -10 15 -6 0 3 0 9 0 13 0 4 -13 8 -30 9 -16 1 -27 -2 -25 -7 3 -4 0
-11 -6 -15 -8 -4 -7 -9 2 -16 11 -8 11 -9 -1 -5 -20 5 -22 73 -2 89 11 9 13 9
10 -3 -1 -7 2 -15 7 -16 6 -1 9 5 7 13 -2 10 3 14 14 12 10 -2 18 4 20 15 1
10 10 24 20 31 15 12 15 13 -7 11 -13 -1 -30 0 -36 3 -20 7 -5 21 17 17 12 -2
18 0 14 6 -3 6 2 9 12 7 13 -2 18 2 15 12 -2 8 -4 23 -5 32 0 9 -10 24 -21 33
-11 9 -15 14 -8 11 6 -4 15 -1 19 5 4 7 3 9 -3 6 -6 -4 -14 1 -17 10 -6 15 -9
15 -16 3 -5 -8 -6 -19 -2 -25 3 -5 7 -21 7 -35 0 -19 5 -24 20 -22 16 3 18 1
8 -9 -17 -17 -57 -23 -47 -7 4 7 3 8 -4 4 -16 -10 -15 7 1 23 7 8 7 11 1 8 -7
-4 -18 0 -25 9 -11 14 -10 15 6 12 15 -2 19 3 19 22 0 14 4 28 10 32 5 4 -11
6 -37 4 -34 -2 -46 1 -43 10 2 6 -6 21 -18 33 -17 16 -25 18 -34 9 -9 -9 -15
-9 -24 0 -9 9 -8 12 3 16 66 21 96 30 107 32 8 1 16 5 18 7 3 3 22 3 42 1 20
-3 43 -4 50 -4z m-159 -102 c-6 -11 -16 -17 -22 -15 -7 2 -20 -2 -29 -11 -14
-11 -18 -12 -18 -2 0 9 -5 8 -19 -4 -16 -14 -20 -15 -30 -2 -7 8 -22 13 -35
12 -29 -4 -61 18 -50 35 4 7 3 10 -4 5 -6 -3 -10 -15 -9 -26 1 -10 4 -17 8
-14 8 5 22 -14 25 -33 1 -7 -2 -15 -7 -19 -8 -4 -13 8 -11 27 1 10 -32 7 -46
-4 -9 -7 -11 -6 -7 4 3 8 -4 20 -16 27 -15 10 -19 10 -14 1 5 -7 4 -10 -3 -5
-6 3 -14 1 -18 -5 -4 -8 -3 -9 4 -5 7 4 12 2 12 -4 0 -6 -6 -10 -12 -9 -7 1
-21 -1 -31 -6 -14 -6 -15 -10 -6 -21 8 -10 8 -14 0 -14 -6 0 -10 -3 -10 -7 3
-21 -2 -33 -13 -27 -6 4 -8 3 -4 -4 8 -14 -22 -44 -36 -36 -7 4 -8 2 -4 -4 4
-7 3 -12 -3 -12 -5 0 -12 4 -16 10 -3 5 -12 7 -19 4 -28 -11 -23 12 8 41 30
29 64 46 51 25 -3 -6 4 -10 17 -10 l23 1 -24 19 c-18 16 -20 20 -7 20 9 0 19
7 22 15 4 8 11 15 16 15 6 0 16 7 22 15 6 8 20 17 31 19 11 2 34 10 50 17 17
7 35 13 40 14 6 0 17 4 25 9 8 4 5 -1 -7 -12 -23 -20 -20 -40 3 -21 9 7 19 6
36 -4 38 -23 114 -8 104 20 -10 25 5 35 25 17 14 -13 16 -21 8 -36z m25 -65
c6 2 20 -4 30 -14 13 -13 15 -19 6 -19 -10 0 -9 -5 3 -18 10 -10 14 -22 11
-25 -11 -11 18 -38 33 -33 8 4 11 1 8 -5 -4 -6 -13 -8 -21 -5 -10 4 -14 0 -12
-10 2 -11 -5 -18 -22 -20 -23 -3 -24 -3 -7 10 12 9 14 16 8 21 -6 3 -11 1 -11
-6 0 -7 -3 -9 -7 -5 -5 4 0 13 9 20 14 10 9 12 -35 11 -51 -1 -82 9 -72 25 10
17 -13 19 -26 3 -8 -9 -9 -14 -3 -10 8 4 11 -5 10 -28 -1 -23 -5 -34 -13 -31
-6 3 -17 -2 -24 -10 -10 -12 -9 -18 4 -30 9 -8 12 -9 7 -2 -19 23 -10 31 13
11 12 -11 28 -18 36 -15 9 3 11 0 6 -8 -6 -9 -4 -11 5 -5 10 6 12 4 7 -8 -3
-9 -2 -19 2 -21 5 -3 8 13 7 36 -1 27 4 43 13 46 8 3 11 0 7 -6 -4 -6 3 -9 18
-8 21 3 24 0 21 -32 -1 -21 -8 -38 -16 -40 -11 -3 -10 -1 1 7 11 8 12 11 2 11
-8 0 -10 5 -6 13 5 8 3 8 -9 -2 -9 -7 -14 -17 -12 -21 8 -13 66 -40 74 -36 4
3 7 -4 7 -14 0 -10 -4 -16 -9 -13 -4 2 -14 0 -22 -7 -10 -8 -21 -4 -47 18 -18
16 -39 27 -46 25 -7 -3 -10 1 -7 10 3 7 0 18 -7 24 -16 13 -49 13 -41 0 3 -5
0 -7 -8 -5 -8 3 -13 12 -11 20 3 18 -44 63 -66 63 -10 0 -16 7 -16 17 1 10 -2
15 -7 12 -5 -3 -8 -13 -7 -21 2 -9 -2 -18 -8 -20 -20 -7 -11 29 14 54 24 24
26 24 38 8 7 -9 11 -22 8 -28 -2 -7 5 -18 17 -25 12 -8 18 -9 14 -3 -3 6 0 11
7 11 10 0 10 2 0 8 -7 5 -14 18 -17 30 -7 38 -16 44 -51 39 -31 -5 -34 -3 -34
19 0 25 -14 32 -26 12 -5 -7 -2 -8 7 -3 11 6 12 5 2 -6 -14 -14 -18 -33 -5
-25 14 9 11 -32 -4 -45 -15 -13 -20 -34 -5 -24 5 3 12 2 15 -3 2 -4 -11 -8
-30 -9 -21 0 -31 3 -27 10 4 6 1 7 -7 2 -8 -5 -11 -3 -8 6 3 8 14 14 25 15 26
1 43 12 43 27 0 8 -3 7 -9 -2 -5 -8 -24 -15 -42 -16 -20 -1 -33 -6 -31 -13 1
-7 3 -17 5 -23 1 -6 -5 -14 -13 -17 -8 -2 -12 -1 -7 3 4 5 0 19 -8 32 -14 21
-14 24 4 42 11 11 17 22 14 25 -4 3 -2 6 4 6 6 0 10 12 9 28 0 18 4 26 14 24
8 -2 20 4 26 13 8 10 14 12 19 6 3 -6 1 -11 -6 -11 -10 0 -10 -3 -1 -12 8 -8
15 -8 26 1 18 15 37 6 30 -13 -5 -14 23 -43 33 -33 3 4 13 1 22 -6 14 -10 14
-10 3 5 -8 9 -19 15 -27 12 -7 -3 -16 -1 -19 4 -3 5 8 8 26 6 30 -4 30 -3 14
15 -17 19 -7 39 14 26 6 -3 10 -1 10 6 0 8 6 6 18 -4 14 -13 21 -14 30 -5 9 9
15 9 25 -1 10 -11 9 -12 -2 -6 -10 6 -12 4 -7 -4 5 -8 -1 -10 -23 -6 -24 4
-33 1 -42 -17 -11 -21 -11 -22 4 -10 9 8 21 11 27 7 15 -9 2 -25 -15 -18 -20
7 -19 -7 3 -24 13 -11 13 -14 2 -10 -10 3 -16 -2 -16 -14 0 -17 2 -17 22 2 13
13 20 28 17 37 -5 10 -2 13 6 8 7 -5 22 1 37 15 13 12 24 17 24 11 0 -6 -4
-14 -10 -17 -5 -3 -10 -11 -10 -18 0 -6 7 -1 16 11 16 24 36 30 32 10 -2 -8 5
-12 16 -10 13 3 17 -1 13 -12 -3 -8 0 -19 7 -25 10 -8 12 -3 11 22 -1 23 -6
31 -17 29 -9 -1 -18 5 -22 13 -4 11 -14 14 -35 10 -30 -5 -35 5 -17 33 6 10
14 7 34 -13 14 -14 30 -24 36 -22z m-488 -162 c0 -22 -3 -28 -15 -23 -13 4
-13 2 2 -15 16 -19 28 -20 79 -10 10 2 31 16 48 32 44 42 135 42 100 0 -6 -8
-9 -19 -5 -25 3 -5 2 -10 -4 -10 -17 0 -19 25 -2 45 16 19 15 20 -5 3 -16 -14
-23 -15 -34 -5 -8 6 -7 2 3 -9 10 -12 17 -28 15 -35 -2 -8 3 -13 12 -11 52 13
59 12 53 -3 -3 -9 -12 -14 -19 -11 -16 6 -28 -10 -14 -19 16 -10 11 -21 -10
-21 -12 0 -19 6 -17 16 1 9 -5 14 -16 13 -12 0 -16 4 -13 13 3 7 0 16 -6 20
-6 4 -8 3 -5 -3 9 -14 -37 -33 -54 -22 -8 5 -11 9 -6 10 4 1 12 3 17 4 6 1 16
3 23 4 8 1 7 4 -3 11 -13 8 -12 11 5 24 11 9 16 16 12 16 -4 0 -23 -15 -41
-34 -27 -26 -37 -31 -47 -22 -8 6 -6 2 2 -9 17 -21 15 -45 -3 -45 -6 0 -8 6
-5 14 3 8 -2 20 -11 28 -11 9 -14 10 -8 1 11 -19 -5 -15 -20 5 -12 14 -13 15
-8 1 3 -10 1 -20 -5 -23 -6 -4 -7 -14 -4 -23 5 -12 2 -15 -10 -10 -9 3 -21 -1
-29 -11 -11 -15 -11 -15 2 -5 17 13 27 9 49 -20 12 -15 12 -17 -3 -11 -9 3
-16 10 -16 16 0 5 -10 8 -22 6 -18 -2 -22 1 -20 17 1 11 4 36 6 55 7 60 15 85
33 98 9 6 17 12 18 12 1 0 1 -13 1 -29z m324 -42 c-6 -10 -16 -19 -22 -19 -6
0 -8 -3 -5 -6 4 -4 13 -2 20 4 8 7 17 9 21 5 3 -3 -6 -15 -21 -25 -16 -10 -29
-27 -29 -38 -1 -11 1 -18 5 -14 3 3 6 11 6 17 0 7 7 12 15 12 8 1 14 6 13 13
-2 6 4 9 13 5 13 -5 11 -9 -8 -30 -15 -16 -18 -24 -8 -21 8 2 15 -4 15 -12 0
-12 -37 -20 -47 -10 -8 7 -47 6 -42 -1 2 -4 12 -5 22 -2 9 3 14 3 11 -1 -7 -8
-47 -18 -71 -18 -9 1 -19 -5 -21 -12 -5 -13 -46 -14 -66 -2 -5 4 -13 1 -17 -5
-5 -8 -3 -9 6 -4 9 5 11 4 6 -4 -6 -9 -14 -8 -33 4 -14 10 -23 13 -19 7 3 -5
-9 -9 -28 -8 -28 1 -32 4 -25 17 5 10 3 24 -7 38 -14 19 -14 22 0 27 9 3 13
10 10 15 -3 5 -11 6 -17 3 -7 -4 -9 -3 -4 1 14 15 44 12 43 -4 -1 -11 7 -16
24 -15 38 2 40 3 40 15 0 6 -6 9 -13 6 -8 -3 -14 1 -14 8 0 10 5 11 17 5 9 -5
22 -5 30 0 9 5 19 5 27 -1 7 -6 18 -7 25 -3 7 4 5 -2 -6 -14 -10 -12 -23 -19
-29 -15 -6 3 -7 1 -3 -6 4 -6 12 -8 19 -4 6 4 23 7 37 8 40 2 55 14 34 29 -16
12 -15 13 2 11 11 0 25 -5 32 -9 17 -10 27 0 28 27 3 44 4 48 14 42 6 -3 10
-1 10 5 0 6 5 8 10 5 7 -4 7 -13 0 -26z m-855 -101 c-3 -18 -8 -40 -10 -48 -2
-8 -4 -18 -4 -22 -2 -15 -57 -58 -68 -53 -7 2 -13 0 -13 -4 0 -15 -62 -50 -77
-44 -20 8 5 23 26 16 14 -4 14 -3 1 7 -11 8 -12 13 -3 16 7 3 10 11 7 19 -3 7
-1 16 4 19 6 3 12 -1 16 -9 8 -22 22 -18 22 5 0 13 -5 19 -14 15 -7 -2 -11 -1
-8 3 2 4 0 14 -6 22 -8 13 -9 12 -5 -2 3 -9 -3 -24 -14 -34 -20 -18 -27 -6 -7
14 7 7 9 12 5 12 -4 0 -10 1 -14 3 -5 1 -8 -11 -8 -27 -1 -16 -7 -32 -14 -34
-9 -3 -11 0 -6 8 5 9 4 11 -4 6 -15 -10 -3 -29 15 -22 19 7 18 -4 -3 -21 -12
-10 -14 -16 -6 -19 7 -3 -5 -23 -30 -50 -46 -49 -52 -52 -54 -25 -1 12 5 18
15 17 9 0 16 5 14 12 -1 8 2 11 9 6 9 -5 10 -2 6 10 -5 14 -3 17 8 13 8 -4 17
-1 21 5 4 6 3 8 -4 4 -15 -9 -26 12 -13 28 6 7 8 16 4 19 -3 4 2 16 11 26 10
11 15 24 12 29 -3 6 9 17 27 27 56 29 78 42 90 54 18 18 26 13 22 -12 -4 -17
0 -23 15 -24 24 -2 26 13 4 25 -14 8 -14 10 1 25 26 26 37 20 30 -15z m189
-60 c-3 -5 8 -23 24 -39 18 -17 28 -36 25 -45 -5 -13 8 -19 31 -15 5 1 4 -5
-3 -13 -18 -22 -4 -41 17 -23 15 12 19 12 32 -2 8 -9 14 -26 14 -39 -1 -18 1
-20 13 -11 20 17 41 -4 24 -25 -9 -11 -9 -16 0 -22 8 -5 9 -3 4 6 -5 8 -4 11
2 7 13 -8 24 -47 14 -47 -14 0 -51 47 -44 55 5 4 3 5 -3 2 -6 -4 -20 3 -30 15
-11 12 -13 18 -5 13 10 -5 12 -4 7 4 -4 6 -11 9 -15 7 -4 -3 -27 12 -51 34
-24 22 -46 37 -50 35 -4 -2 -16 4 -26 14 -11 9 -24 16 -30 14 -5 -2 -26 11
-45 28 -18 18 -27 29 -18 26 9 -3 23 3 32 14 9 10 23 16 31 13 8 -3 17 -1 20
5 4 6 13 8 21 5 8 -4 12 -10 9 -16z m283 -15 c10 -16 22 -31 28 -35 5 -4 1 -8
-11 -8 -11 0 -26 -6 -32 -12 -10 -10 -15 -10 -21 1 -7 10 -13 11 -30 2 -27
-15 -27 -19 4 -16 24 3 40 -9 40 -29 0 -19 41 -13 42 6 2 23 -6 23 -24 1 -13
-16 -13 -16 -4 3 6 12 7 24 4 28 -4 4 4 4 18 2 13 -2 28 -5 33 -5 5 -1 1 -10
-9 -21 -10 -11 -15 -20 -10 -20 4 0 2 -7 -5 -15 -6 -8 -17 -13 -23 -12 -7 1
-11 -4 -9 -12 1 -7 -2 -19 -9 -27 -6 -7 -8 -18 -5 -23 4 -6 -2 -15 -13 -21
-13 -7 -22 -7 -26 0 -8 12 3 32 14 26 4 -3 8 1 8 9 0 11 -4 12 -13 4 -14 -11
-34 -4 -34 12 0 6 -9 29 -20 51 -23 49 -24 52 -8 42 7 -4 8 -3 4 4 -4 6 -12 9
-19 6 -7 -2 -21 4 -31 15 -10 11 -24 18 -30 14 -6 -3 -7 -2 -3 2 7 8 17 12 57
19 68 13 91 19 96 27 9 16 23 10 41 -18z m263 -63 c-14 -26 -21 -56 -23 -92 0
-15 -4 -25 -9 -22 -4 3 -8 1 -8 -5 0 -5 5 -13 10 -16 6 -4 7 -12 3 -18 -4 -7
-6 -21 -4 -32 2 -16 0 -18 -10 -8 -7 7 -13 25 -14 41 -1 33 -12 53 -28 51 -23
-3 -37 1 -37 10 0 5 21 8 47 6 40 -4 44 -3 28 9 -20 15 -11 41 12 32 8 -3 11
-2 8 3 -6 10 -44 11 -43 1 2 -22 -5 -28 -29 -26 -17 2 -37 -5 -50 -17 -13 -11
-23 -17 -23 -13 0 4 -5 4 -10 1 -8 -5 -7 -11 1 -21 6 -7 15 -11 20 -8 5 3 20
7 34 10 20 3 23 1 19 -13 -4 -13 -3 -15 4 -5 7 11 12 10 26 -3 24 -25 13 -30
-31 -13 -38 13 -56 14 -121 4 -29 -5 -32 -3 -21 10 7 8 18 13 25 10 7 -3 16 0
20 6 4 7 3 8 -4 4 -7 -4 -12 -3 -12 1 0 10 42 38 53 35 5 -1 6 1 3 6 -8 14 46
60 74 64 14 2 31 7 38 12 7 4 20 2 30 -5 9 -7 14 -9 10 -5 -4 5 -3 15 4 23 16
20 22 8 8 -17z m-614 -22 c16 0 79 -36 105 -59 15 -13 36 -32 48 -42 12 -10
19 -22 16 -27 -3 -6 1 -7 9 -4 9 3 16 2 16 -4 0 -6 16 -20 35 -32 34 -21 46
-40 24 -40 -5 0 -7 5 -3 12 4 7 3 8 -4 4 -9 -5 -9 -13 -2 -27 8 -14 7 -21 -3
-25 -11 -4 -15 -42 -8 -73 1 -2 8 2 16 9 8 7 13 16 10 20 -3 5 0 12 6 16 8 5
9 3 4 -7 -5 -8 -4 -11 1 -6 4 4 9 18 9 30 1 36 15 67 31 67 16 0 19 -36 4 -45
-6 -4 -8 -9 -6 -13 7 -13 -29 -77 -44 -78 -8 0 -27 -4 -43 -9 -28 -7 -62 9
-52 25 3 5 0 12 -6 16 -8 4 -9 3 -5 -4 16 -27 -17 -9 -54 28 -25 25 -37 45
-34 55 5 12 10 13 20 4 8 -6 12 -14 9 -18 -6 -10 33 -7 42 4 5 4 2 5 -6 0 -9
-5 -12 -3 -9 6 3 8 10 13 15 12 11 -2 10 53 0 63 -11 11 -8 26 4 19 6 -4 5 2
-3 14 -7 12 -17 21 -22 21 -4 0 -3 -7 4 -15 9 -10 9 -15 1 -16 -15 -2 -23 -4
-46 -15 -21 -10 -32 -34 -15 -34 6 0 10 5 10 10 0 6 5 10 11 10 5 0 7 -5 3
-12 -5 -7 -3 -8 7 -3 22 14 48 13 42 -2 -4 -11 -8 -11 -22 -1 -12 10 -12 8 2
-8 16 -19 16 -23 2 -34 -14 -12 -19 -7 -17 20 0 3 -13 5 -28 5 -19 1 -26 -3
-21 -10 7 -8 12 -45 6 -45 -1 0 -12 12 -26 27 -13 14 -17 23 -9 18 8 -5 4 4
-9 18 -14 15 -19 27 -13 27 6 0 14 -5 17 -10 11 -17 22 -2 20 25 -4 29 10 43
19 20 4 -12 10 -13 25 -6 23 13 37 43 16 34 -8 -3 -12 -9 -9 -14 3 -5 1 -9 -5
-9 -5 0 -9 9 -8 20 1 13 6 19 15 15 7 -2 10 0 7 5 -3 5 -19 8 -35 6 -32 -4
-37 2 -20 22 6 6 7 10 3 7 -3 -3 -18 5 -32 17 l-26 23 20 -24 c16 -20 17 -23
4 -18 -17 5 -69 -39 -69 -59 0 -5 5 -2 11 6 8 12 9 11 7 -5 -2 -11 2 -19 9
-18 8 2 10 -4 6 -15 -5 -13 -3 -14 7 -5 13 12 40 7 40 -9 0 -5 -4 -6 -10 -3
-19 12 -31 -5 -19 -28 8 -16 1 -12 -25 13 -21 19 -39 34 -42 32 -2 -1 -12 2
-22 7 -9 6 -12 11 -6 11 7 0 19 12 29 26 9 15 12 23 5 19 -8 -5 -11 -3 -8 6 3
8 11 14 19 14 8 0 15 5 16 10 0 6 -3 9 -8 8 -14 -4 -11 9 8 29 11 12 19 15 23
7 4 -6 11 -11 16 -11z m-42 -185 c15 -12 29 -29 30 -37 1 -9 5 -18 9 -22 3 -4
4 4 2 16 -3 15 -1 20 5 14 5 -5 11 -20 13 -33 3 -17 11 -25 28 -26 l23 -2 -22
15 c-12 8 -22 19 -22 24 0 6 29 -17 64 -50 36 -33 75 -63 86 -67 16 -5 20 -12
16 -28 -3 -12 -6 -26 -6 -30 0 -5 -4 -6 -9 -2 -5 3 -13 0 -17 -6 -4 -8 -3 -9
4 -5 13 8 17 -6 5 -18 -4 -3 -7 -15 -8 -26 -2 -18 0 -18 20 3 12 12 20 24 19
27 -4 11 32 74 45 78 7 2 -7 -34 -32 -82 -26 -47 -42 -86 -37 -86 5 0 13 6 17
13 4 6 17 19 28 27 16 11 15 9 -3 -12 -17 -19 -20 -28 -11 -33 7 -5 18 0 26
11 8 10 20 19 28 19 8 0 14 5 12 10 -1 6 -6 9 -10 7 -5 -1 0 11 9 28 22 37 36
39 30 4 -3 -15 2 -37 12 -52 9 -15 12 -23 5 -19 -6 4 -14 3 -18 -3 -3 -5 -11
-10 -16 -10 -6 0 -7 6 -3 13 6 8 3 8 -9 -1 -31 -26 -75 -25 -122 3 -25 14 -45
30 -45 35 0 6 -6 9 -12 7 -7 -1 -12 4 -10 11 1 8 -1 11 -6 8 -13 -8 -75 60
-67 73 3 6 10 9 14 7 4 -3 8 1 8 8 0 7 -6 13 -13 13 -7 0 -10 -5 -7 -10 3 -5
0 -8 -8 -5 -20 7 -87 139 -83 165 2 12 0 24 -5 27 -4 3 -7 -6 -5 -19 1 -14 -1
-23 -6 -20 -6 4 -7 28 -1 57 2 11 27 3 55 -19z m501 17 c-3 -4 3 -6 14 -3 24
6 106 -39 106 -58 0 -9 -10 -14 -26 -13 -20 0 -25 -4 -21 -15 3 -9 1 -12 -6
-7 -7 4 -10 -1 -7 -15 5 -25 14 -37 16 -21 3 26 4 31 12 38 10 10 39 15 56 9
11 -4 11 -8 0 -21 -12 -14 -22 -60 -11 -49 8 8 42 -27 36 -36 -9 -15 3 -10 16
7 11 12 11 15 0 12 -7 -2 -14 2 -17 8 -2 6 4 11 14 10 28 -3 73 -28 67 -37 -3
-5 2 -6 10 -3 9 3 16 2 17 -2 0 -5 2 -16 4 -25 1 -8 -10 -30 -25 -49 -23 -28
-31 -32 -42 -22 -12 9 -15 9 -15 -3 0 -7 5 -13 11 -12 6 1 11 -5 11 -13 0 -8
-6 -14 -13 -12 -6 1 -11 -1 -10 -6 2 -4 -7 -20 -19 -36 l-23 -29 -21 27 c-11
14 -27 26 -35 26 -8 0 -17 6 -20 13 -3 8 -10 14 -17 15 -7 0 -29 3 -49 5 -21
2 -38 0 -38 -6 0 -5 -6 -4 -14 2 -11 10 -17 8 -25 -6 -6 -10 -11 -14 -11 -9 0
5 -7 3 -15 -4 -12 -10 -20 -9 -40 4 -28 19 -30 26 -12 45 10 11 9 12 -2 6 -10
-6 -12 -4 -7 4 4 6 3 18 -4 26 -9 10 -2 29 29 84 22 39 40 74 41 76 0 3 0 10
0 16 0 5 4 8 9 5 5 -3 8 2 7 12 0 10 6 17 14 16 9 -1 17 8 18 20 1 17 -1 18
-8 6 -5 -8 -10 -10 -10 -4 0 5 4 14 10 20 12 12 52 16 45 4z m419 -196 c9 -3
16 -13 16 -21 0 -8 -5 -11 -12 -7 -7 4 -8 3 -4 -4 4 -6 13 -9 21 -6 7 3 18 -3
24 -15 9 -17 6 -26 -20 -56 -19 -21 -38 -34 -46 -31 -8 4 -11 1 -7 -5 4 -7 -2
-9 -17 -7 -13 2 -28 -2 -34 -9 -5 -7 -26 -15 -45 -17 -19 -3 -46 -8 -60 -12
-24 -7 -24 -6 -9 12 46 54 55 68 79 112 17 33 31 48 43 46 9 -1 17 2 17 7 0 4
7 6 15 3 8 -4 15 -1 15 5 0 13 3 13 24 5z"/>
</g>
</svg>
