<?xml version="1.0" standalone="no"?>
<!DOCTYPE svg PUBLIC "-//W3C//DTD SVG 20010904//EN"
 "http://www.w3.org/TR/2001/REC-SVG-20010904/DTD/svg10.dtd">
<svg version="1.0" xmlns="http://www.w3.org/2000/svg"
 width="307.000000pt" height="306.000000pt" viewBox="0 0 307.000000 306.000000"
 preserveAspectRatio="xMidYMid meet">

<g transform="translate(0.000000,306.000000) scale(0.100000,-0.100000)"
fill="#000000" stroke="none">
<path d="M112 2455 c-12 -2266 -12 -2368 -1 -2382 10 -11 88 -13 492 -8 438 5
482 4 499 -11 10 -10 18 -23 18 -30 0 -7 4 -15 9 -18 11 -7 2 34 -11 50 -5 7
-11 22 -13 35 -3 13 -13 31 -23 42 -18 17 -18 19 6 68 14 27 27 73 30 100 4
42 9 52 29 60 13 5 32 22 41 39 14 26 21 29 42 23 53 -15 89 -8 125 27 19 19
36 32 38 29 2 -2 11 -16 20 -31 21 -34 48 -35 94 -6 l35 21 -7 -24 c-4 -13
-14 -36 -21 -51 -8 -15 -14 -36 -14 -48 0 -27 28 -70 46 -70 10 0 10 -7 -2
-36 -14 -34 -14 -38 6 -60 l22 -23 -36 -31 c-32 -29 -36 -37 -34 -79 1 -43 2
-44 5 -8 l4 37 115 0 c69 0 114 4 114 10 0 21 33 9 66 -24 l33 -33 22 23 22
24 474 0 c460 0 473 -1 473 -19 0 -39 11 -51 46 -51 22 0 37 6 40 15 4 10 13
13 26 9 32 -10 128 43 128 70 -1 21 -1 21 -15 2 -14 -18 -15 -14 -15 43 0 49
4 67 18 78 9 8 11 12 5 8 -10 -5 -13 11 -12 67 1 53 3 65 9 43 5 -22 7 -11 7
38 0 44 -5 71 -14 78 -17 14 -17 33 0 26 9 -3 13 59 16 284 l3 288 -25 6 c-15
4 -36 0 -54 -10 -15 -9 -19 -13 -8 -9 42 14 63 15 70 4 4 -7 2 -16 -5 -20 -9
-5 -9 -9 -1 -14 11 -7 16 -196 5 -196 -3 0 -14 5 -24 10 -10 6 -37 11 -59 12
-46 1 -63 30 -31 51 18 10 18 13 3 29 -17 19 -14 21 32 31 15 4 14 5 -6 6 -15
0 -38 -5 -53 -12 l-26 -14 28 -12 c26 -12 26 -13 7 -27 -12 -9 -20 -27 -20
-43 -1 -23 3 -27 19 -23 12 3 17 1 12 -6 -5 -8 2 -8 24 -1 40 15 76 4 84 -23
8 -30 8 -140 0 -217 -5 -41 -11 -61 -20 -61 -18 0 -18 -10 1 -37 14 -20 14
-44 5 -185 -5 -90 -10 -171 -10 -180 0 -29 -45 -22 -66 9 -15 24 -15 26 -1 14
15 -12 17 -11 17 7 0 26 -25 48 -36 31 -4 -7 -3 -9 4 -5 6 3 13 3 15 -2 3 -4
-11 -8 -31 -8 -21 -1 -44 -3 -52 -6 -23 -6 -57 -27 -44 -28 5 0 16 6 23 13 11
10 13 9 8 -5 -9 -24 9 -32 23 -11 11 17 11 16 5 -1 -6 -19 -5 -19 15 -1 22 20
34 17 25 -7 -5 -11 -23 -15 -76 -15 -54 0 -69 3 -65 13 3 7 1 16 -4 19 -6 4
-10 -1 -10 -9 0 -8 -4 -17 -9 -20 -13 -9 -7 19 8 38 7 8 10 19 7 24 -3 5 3 17
12 26 15 13 23 14 50 4 28 -11 34 -10 58 12 15 14 24 18 19 10 -6 -11 -5 -12
3 -5 8 7 9 20 3 40 -5 17 -10 23 -10 14 -1 -17 -41 -58 -41 -43 0 5 -7 0 -15
-10 -8 -11 -16 -14 -16 -8 -4 32 -6 37 -17 35 -7 -2 -9 4 -5 13 5 14 9 13 25
-7 l19 -24 -13 30 c-6 17 -15 35 -20 41 -4 6 -3 15 2 20 5 5 7 19 4 31 -5 16
-12 21 -32 18 -15 -2 -26 -8 -25 -14 2 -6 -2 -11 -8 -11 -5 0 -7 -5 -4 -10 4
-6 2 -9 -4 -8 -6 2 -21 -10 -34 -26 -24 -29 -58 -32 -56 -4 0 10 2 10 6 1 2
-7 9 -13 15 -13 7 0 6 5 -1 14 -10 11 -6 21 17 48 36 41 52 71 52 97 0 22 9
30 40 36 18 4 19 2 5 -19 -11 -17 -12 -23 -3 -23 7 0 20 -4 29 -7 11 -5 19 -1
23 10 6 15 4 15 -11 3 -17 -13 -17 -13 -3 5 14 18 15 18 29 -3 14 -22 14 -22
47 15 19 20 34 44 35 53 0 9 2 24 4 34 2 10 -3 21 -11 24 -8 3 -14 9 -14 15 0
5 4 7 9 3 10 -6 26 13 18 21 -7 7 -52 -37 -59 -57 -4 -9 -20 -23 -37 -30 -17
-8 -31 -18 -31 -23 0 -4 -6 -3 -14 3 -10 9 -16 8 -26 -4 -7 -8 -17 -15 -23
-15 -6 0 2 14 19 32 16 18 22 27 13 20 -14 -10 -18 -9 -24 5 -12 26 -12 35 -3
62 15 42 1 33 -21 -14 -23 -50 -36 -59 -29 -20 3 14 1 22 -4 18 -6 -3 -7 -19
-4 -35 3 -16 2 -27 -2 -24 -4 2 -7 -6 -7 -19 0 -13 3 -21 8 -18 4 2 7 11 7 18
0 16 38 40 48 31 3 -4 0 -12 -8 -19 -10 -9 -11 -9 -6 1 4 6 5 12 2 12 -3 0
-10 -9 -16 -20 -9 -16 -8 -19 6 -13 13 5 14 2 6 -13 -17 -33 -34 -88 -34 -107
1 -9 -3 -15 -8 -12 -17 10 -51 -72 -46 -112 2 -23 -2 -42 -10 -51 -12 -11 -14
-10 -14 10 -1 15 -8 5 -24 -32 -15 -37 -19 -59 -13 -67 7 -10 1 -13 -26 -13
-20 0 -39 5 -42 10 -5 8 -12 7 -23 -2 -11 -9 -10 -5 3 14 13 17 26 25 37 22
12 -3 24 8 44 41 29 50 24 75 -6 35 l-19 -25 4 24 c2 13 7 26 10 29 2 3 0 11
-6 18 -12 15 -4 34 15 34 15 0 49 34 41 42 -3 2 6 11 20 18 28 15 59 60 69
100 5 19 1 16 -17 -12 l-23 -37 -13 49 c-7 28 -18 50 -24 50 -8 0 -9 3 -1 8 6
4 7 17 3 32 -4 14 -7 19 -8 13 -1 -7 -6 -13 -11 -13 -7 0 -8 6 -2 16 10 19 3
74 -10 74 -5 0 -6 4 -3 10 3 5 2 10 -2 10 -5 0 -14 -9 -21 -21 -11 -18 -11
-24 5 -42 9 -12 11 -16 3 -9 -21 18 -35 15 -50 -13 -12 -22 -11 -27 5 -45 10
-11 13 -20 8 -20 -6 0 -16 7 -23 15 -7 8 -16 12 -21 9 -16 -9 -48 -81 -41 -89
4 -5 -1 -5 -10 -2 -14 5 -24 -5 -44 -44 -14 -28 -20 -48 -14 -44 6 4 18 -1 25
-11 8 -11 15 -15 15 -10 0 5 11 -1 25 -14 23 -22 25 -22 25 -4 1 19 1 19 12 0
8 -15 8 -21 0 -24 -7 -2 -12 -9 -12 -15 0 -7 -12 -21 -27 -31 -14 -11 -23 -15
-20 -9 9 15 -23 91 -41 98 -23 9 -53 -27 -55 -66 -1 -19 -6 -33 -12 -32 -5 1
-16 -9 -23 -23 -7 -13 -17 -24 -23 -24 -6 0 -6 7 1 19 13 25 13 71 0 71 -23 0
-8 15 17 17 15 0 29 6 31 13 2 6 10 16 17 23 13 13 0 57 -17 57 -5 0 -6 17 -3
38 l6 37 -16 -27 c-18 -32 -27 -37 -19 -10 3 9 -2 5 -12 -10 -10 -15 -26 -29
-35 -31 -18 -5 -45 -80 -34 -96 3 -5 1 -11 -4 -13 -10 -3 -14 -33 -12 -88 l1
-35 16 30 c28 55 36 53 49 -16 5 -23 12 -34 23 -34 4 -1 18 -7 31 -14 14 -8
21 -9 17 -2 -4 6 -2 11 4 11 6 0 8 6 5 13 -4 6 0 3 9 -7 25 -31 32 7 8 42 -31
43 -31 56 0 57 15 1 24 -3 22 -7 -5 -7 27 -13 49 -9 5 1 0 -11 -11 -26 -20
-29 -15 -73 8 -73 6 0 8 5 4 12 -4 7 -3 8 5 4 6 -4 9 -11 6 -16 -3 -4 1 -11 7
-13 7 -3 -40 -6 -104 -6 -65 -1 -118 3 -118 7 0 4 5 13 12 20 9 9 9 15 0 24
-10 10 -15 10 -23 -2 -5 -8 -7 -23 -5 -32 4 -16 -5 -18 -81 -18 -53 0 -82 4
-78 10 3 5 1 10 -4 10 -6 0 -11 -4 -11 -10 0 -6 -31 -10 -72 -10 -73 1 -73 1
-39 15 18 8 43 15 56 15 20 0 23 6 27 56 3 30 12 62 20 70 14 14 19 11 51 -28
27 -33 34 -50 31 -73 -2 -16 -1 -21 2 -10 10 34 23 40 39 19 15 -18 15 -18 9
8 -3 14 0 36 6 48 11 20 10 21 -9 11 -12 -7 -18 -17 -15 -26 4 -9 0 -15 -8
-15 -7 0 -25 20 -38 45 -14 25 -26 41 -28 35 -3 -7 -9 -7 -18 1 -24 19 -46
-12 -52 -70 -3 -38 -9 -51 -21 -51 -32 -1 -107 -41 -132 -72 l-27 -32 -41 37
c-42 38 -81 54 -102 41 -9 -5 -11 17 -5 98 6 94 4 107 -13 129 -17 22 -19 39
-16 146 2 95 7 127 21 148 15 23 16 33 6 71 -11 41 -10 45 13 68 16 16 25 36
24 53 l-1 28 -8 -25 c-7 -23 -8 -22 -9 10 -1 19 -10 219 -20 445 -13 270 -16
418 -9 434 6 16 6 27 0 29 -6 2 -6 16 1 38 9 31 8 37 -6 45 -24 14 -26 209 -2
209 8 0 15 -8 15 -17 0 -10 7 -139 15 -288 7 -148 17 -333 20 -410 4 -77 8
-150 10 -163 7 -43 7 -207 0 -224 -3 -9 -5 -31 -2 -50 l4 -33 1 36 c2 27 9 41
26 52 13 9 34 32 46 51 15 25 29 36 45 36 13 0 38 12 55 27 31 25 33 26 43 8
19 -35 60 -66 78 -60 16 5 17 0 12 -48 -4 -41 -1 -60 12 -80 9 -15 21 -25 25
-22 5 3 6 -34 3 -83 -4 -57 -2 -96 6 -109 8 -16 8 -41 -1 -98 -11 -72 -11 -78
7 -91 15 -11 16 -16 5 -29 -7 -9 -10 -27 -6 -45 3 -17 1 -30 -4 -30 -6 0 -10
-4 -10 -10 0 -5 7 -7 16 -3 11 4 13 13 9 35 -4 18 -1 37 8 52 14 20 13 23 -4
34 -19 12 -24 39 -13 79 l6 22 19 -22 18 -22 -11 32 c-7 17 -15 30 -18 28 -12
-8 -18 194 -7 247 7 32 6 36 -11 31 -35 -9 -45 20 -36 104 5 43 8 83 7 90 0 6
9 9 23 7 27 -5 31 7 9 26 -8 7 -15 9 -15 4 0 -4 -5 -3 -12 4 -8 8 -9 15 -1 23
7 7 15 2 27 -16 10 -16 22 -23 29 -18 7 4 4 -5 -5 -20 -24 -36 -22 -44 4 -21
23 19 23 19 7 -1 -24 -30 -29 -51 -16 -65 9 -10 9 -11 -2 -5 -11 6 -13 4 -8
-9 5 -11 3 -15 -5 -10 -8 5 -9 2 -5 -10 4 -10 7 -25 8 -34 1 -9 7 3 15 27 7
24 11 47 9 52 -3 4 12 22 34 39 41 33 67 79 58 102 -3 7 -6 4 -6 -8 -1 -23
-36 -60 -44 -47 -3 4 2 34 10 67 8 32 12 70 8 85 -6 24 -8 25 -20 8 -11 -16
-13 -16 -19 -1 -3 9 -3 21 1 26 4 7 1 8 -6 4 -7 -5 -10 -14 -7 -22 14 -37 -53
-1 -128 69 l-49 45 8 49 c5 26 8 52 6 56 -1 5 2 6 7 3 4 -2 9 -22 10 -43 2
-21 9 -44 16 -51 10 -10 15 -8 24 13 14 29 10 32 -13 8 -16 -16 -17 -14 -14
29 2 25 2 45 -1 43 -3 -2 -6 19 -7 46 0 34 3 47 11 42 8 -5 8 -3 0 8 -11 13
-21 190 -11 179 3 -3 7 -31 11 -63 6 -59 32 -153 48 -174 5 -6 11 -24 13 -40
2 -16 4 -33 5 -38 4 -20 0 -36 -9 -31 -4 3 -6 -7 -3 -22 4 -26 4 -26 -12 -7
-8 11 -15 16 -15 10 0 -5 10 -23 24 -39 l24 -30 -6 45 -6 44 56 -60 c31 -33
56 -54 57 -46 0 10 3 11 14 2 12 -10 13 -8 8 11 l-6 23 35 -26 c53 -40 59 -42
59 -23 0 10 -3 14 -6 11 -11 -11 -45 13 -42 31 2 11 -4 17 -19 17 -12 0 -25 4
-30 9 -5 5 -2 6 6 1 9 -5 12 -3 9 6 -3 8 -12 14 -20 13 -7 -1 -15 8 -15 18 -2
16 1 17 13 7 12 -10 13 -9 8 5 -3 9 -14 16 -25 16 -20 0 -43 33 -31 45 4 3 0
5 -8 3 -10 -2 -14 3 -12 15 2 10 -2 24 -8 32 -8 9 -8 15 0 20 6 3 7 12 4 18
-4 7 5 1 19 -12 14 -13 25 -28 24 -34 -1 -6 4 -11 11 -12 7 0 17 -7 22 -15 8
-12 9 -10 7 7 -2 12 -10 30 -19 40 -25 29 -47 82 -37 89 5 3 5 12 -1 23 -5 10
-6 22 -2 26 4 5 2 5 -4 2 -7 -4 -17 0 -24 8 -9 11 -9 15 -1 15 7 0 5 13 -7 38
-10 20 -17 45 -14 55 2 10 -4 30 -13 44 -10 15 -12 22 -4 18 9 -6 10 -3 5 11
-21 52 -36 113 -36 148 0 90 -18 1 -21 -106 -2 -45 -5 -58 -16 -54 -8 3 -13
-2 -13 -12 0 -9 -9 -45 -19 -80 -11 -34 -15 -60 -10 -56 12 7 11 2 -7 -41 -13
-31 -13 -39 -2 -46 11 -7 11 -9 0 -9 -17 0 -7 -34 19 -72 36 -50 19 -40 -22
13 -35 47 -39 59 -35 91 5 31 3 36 -9 32 -22 -9 -19 19 4 33 10 6 22 29 26 49
3 21 24 99 45 173 21 75 41 159 44 186 9 76 17 289 10 282 -3 -3 -9 -77 -14
-165 -8 -151 -23 -233 -55 -307 -7 -16 -16 -51 -20 -77 -4 -29 -12 -49 -22
-52 -12 -5 -13 -3 -6 6 14 19 4 120 -10 111 -8 -4 -8 -2 0 9 7 8 11 17 9 19
-2 2 -7 38 -10 79 -4 41 -9 105 -12 142 -7 77 4 146 17 113 7 -19 8 -19 8 3 1
18 -4 22 -28 22 -28 0 -29 1 -36 68 -4 37 -5 74 -3 82 2 9 -5 15 -17 15 -16 0
-19 -6 -17 -26 2 -15 -4 -34 -13 -43 -18 -18 -11 -40 11 -32 10 4 14 -4 14
-30 0 -28 -5 -36 -25 -44 -19 -7 -25 -16 -24 -37 2 -25 2 -26 6 -4 4 22 5 22
18 4 7 -10 17 -45 21 -78 9 -73 10 -79 13 -85 1 -3 4 -32 7 -65 7 -101 8 -106
29 -122 20 -15 20 -15 -3 -8 -20 6 -21 4 -12 -20 6 -15 8 -30 5 -35 -3 -5 -1
-12 5 -15 8 -5 7 -11 -1 -21 -6 -8 -7 -14 -2 -14 8 0 13 -30 16 -100 1 -14 -7
-37 -16 -51 -22 -34 -35 -76 -48 -164 -28 -179 -24 -197 56 -273 58 -55 69
-87 39 -116 -24 -25 -53 -38 -72 -32 -12 4 -25 -8 -45 -41 -15 -25 -29 -44
-31 -42 -2 2 -6 45 -9 96 -5 81 -4 92 11 96 15 4 15 5 0 6 -10 0 -18 6 -18 12
0 5 5 7 10 4 6 -3 10 -1 10 5 0 6 11 8 28 5 23 -5 24 -4 9 5 -9 6 -26 9 -36 5
-16 -5 -19 3 -24 67 -4 47 -2 75 5 79 6 4 7 8 0 10 -5 2 -17 145 -27 344 l-18
340 28 55 c15 30 33 58 39 62 8 5 7 11 -1 19 -10 10 -16 9 -31 -4 -43 -40 -41
-61 -67 503 l-7 145 46 93 c25 50 46 99 46 107 0 19 -24 19 -40 1 -6 -8 -18
-12 -26 -9 -8 3 -17 -3 -21 -13 -6 -16 -9 -14 -19 11 l-13 30 -1 -41 c0 -24
-6 -47 -15 -54 -13 -11 -15 -6 -15 39 0 58 -13 65 -49 27 -13 -14 -33 -26 -44
-28 -15 -2 -24 -15 -33 -48 -7 -25 -25 -80 -41 -122 -25 -69 -33 -80 -68 -98
-21 -11 -47 -20 -58 -20 -15 0 -17 5 -11 35 5 28 3 35 -9 35 -9 0 -18 -8 -21
-17 -2 -10 -4 -3 -3 16 1 20 -3 36 -11 38 -7 3 -12 -4 -12 -18 0 -13 -17 -89
-37 -171 -29 -114 -35 -150 -26 -159 9 -9 16 -9 27 0 8 7 24 10 34 6 16 -4 22
1 30 24 7 21 23 36 54 49 42 19 128 39 128 29 0 -18 -54 -145 -67 -157 -9 -8
-13 -9 -9 -2 4 6 0 19 -9 28 -13 13 -33 16 -106 12 -99 -5 -116 -14 -120 -63
-3 -43 11 -91 22 -73 6 9 9 7 9 -9 0 -17 -5 -22 -22 -20 -16 1 -27 -8 -41 -35
-22 -40 -47 -57 -47 -31 0 11 -10 6 -32 -18 -18 -19 -36 -33 -39 -32 -4 1 -5
-8 -3 -20 2 -12 2 -16 -2 -9 -9 20 -24 14 -24 -10 0 -13 -5 -30 -10 -38 -8
-13 -10 -13 -10 2 0 11 -7 15 -25 13 -35 -3 -60 -28 -75 -75 -7 -22 -19 -45
-27 -51 -7 -6 -13 -18 -13 -25 0 -8 -9 -23 -19 -33 -17 -17 -20 -17 -25 -4 -9
22 -7 30 3 14 10 -16 7 64 -4 114 -5 21 -4 26 3 16 6 -8 17 -11 27 -8 9 4 14
3 10 -3 -3 -6 4 -10 16 -10 18 0 20 2 9 16 -8 8 -9 14 -4 13 16 -4 44 13 44
26 0 7 7 15 15 19 8 3 15 12 15 20 0 8 4 16 10 18 6 2 6 8 0 18 -8 13 -10 13
-10 -2 0 -9 -5 -20 -11 -24 -8 -4 -9 0 -4 15 8 26 -3 63 -17 55 -6 -4 -8 1 -3
15 8 25 -9 28 -32 5 -30 -30 -63 -85 -64 -107 0 -12 -3 -16 -6 -9 -6 15 -60
-93 -78 -156 -4 -13 -9 -21 -13 -18 -8 9 -32 -52 -32 -83 0 -28 32 -105 48
-115 5 -3 8 7 7 24 -2 19 2 30 10 30 8 0 16 8 18 18 3 9 5 -8 5 -38 0 -30 3
-73 6 -95 3 -22 8 -51 10 -65 2 -14 9 -24 15 -23 6 2 10 0 10 -5 -1 -4 -1 -14
1 -22 4 -34 16 24 15 75 0 30 3 51 8 48 4 -2 7 -1 5 4 -4 17 14 72 28 84 10 8
11 15 3 25 -8 10 -3 16 20 28 16 9 33 21 37 27 5 8 3 9 -7 4 -10 -6 -9 -3 2
11 17 20 19 60 5 83 -5 8 3 6 20 -5 26 -17 28 -18 21 -2 -4 11 -2 17 6 15 7
-1 11 3 10 10 -2 7 4 10 12 7 8 -4 17 0 20 8 10 24 30 16 32 -12 1 -15 11 -43
21 -62 11 -18 22 -49 25 -68 7 -44 68 -220 76 -220 3 0 5 75 4 167 -2 179 1
193 51 235 29 24 40 22 16 -2 -12 -12 -25 -32 -31 -47 -10 -26 -4 -63 10 -63
4 0 2 -26 -4 -57 -6 -32 -9 -68 -7 -82 l5 -24 17 21 c10 12 20 18 24 15 3 -4
6 -1 6 7 0 10 3 10 14 1 12 -10 16 -8 21 10 4 12 10 18 14 12 8 -11 44 -11 52
0 3 5 9 1 12 -8 4 -9 3 -14 -3 -10 -6 3 -13 0 -16 -8 -2 -7 -11 -14 -18 -14
-8 0 -12 6 -9 14 3 9 0 11 -10 8 -8 -4 -14 -12 -14 -18 1 -12 -9 -85 -19 -140
-3 -15 -9 -25 -14 -22 -5 3 -15 -1 -22 -9 -8 -7 -33 -23 -56 -35 -52 -26 -62
-45 -62 -115 0 -52 13 -92 34 -107 5 -4 5 -28 1 -54 -6 -41 -4 -47 9 -42 8 3
18 2 21 -4 12 -18 25 2 20 29 -3 15 -2 21 1 14 5 -10 9 -10 20 -1 11 9 14 8
14 -5 0 -14 11 -21 33 -17 4 0 7 -6 7 -14 0 -17 54 -48 65 -37 4 4 6 -3 3 -15
-4 -14 1 -31 13 -44 10 -12 19 -27 19 -32 0 -6 -7 -2 -15 9 -14 18 -15 17 -4
-8 12 -28 29 -29 29 -2 0 8 5 14 10 14 16 0 11 -12 -20 -54 -17 -22 -30 -46
-30 -54 0 -20 -62 -101 -77 -102 -16 0 -43 -40 -43 -63 0 -15 3 -17 13 -8 8 6
17 8 20 4 4 -3 7 -2 7 3 0 18 40 13 53 -7 13 -17 16 -18 27 -4 9 11 10 19 3
26 -8 8 -4 23 13 52 13 23 24 56 24 72 0 17 7 41 16 54 9 12 17 37 19 55 1 17
9 43 19 58 23 36 26 60 10 88 -8 15 -14 19 -14 10 0 -11 -3 -11 -11 3 -9 15
-7 23 9 40 25 29 39 52 24 43 -5 -3 -13 0 -16 6 -3 7 -4 4 -1 -8 3 -12 -1 -27
-10 -34 -9 -8 -15 -8 -15 -2 0 6 4 13 10 17 13 8 0 36 -14 28 -6 -3 -7 -2 -3
3 5 5 12 9 15 9 4 0 13 4 21 9 10 7 12 5 6 -5 -5 -8 -4 -11 1 -6 5 5 9 22 10
38 2 27 0 28 -12 12 -12 -16 -12 -16 -7 6 4 17 3 22 -5 17 -8 -5 -10 -1 -5 9
5 13 7 14 14 3 6 -9 9 -9 9 -1 0 6 -7 18 -15 27 -18 18 -18 34 0 66 l14 25 1
-32 c0 -33 14 -51 25 -33 3 5 13 36 21 67 8 32 24 70 34 85 15 21 22 50 26
120 3 51 9 104 14 118 5 14 11 37 14 52 4 17 18 34 37 44 17 8 32 14 34 12 1
-2 5 -51 9 -110 6 -104 6 -107 -16 -119 -41 -22 -56 -44 -73 -107 -20 -78 -16
-95 15 -59 13 15 32 27 41 27 10 0 21 5 24 10 3 6 10 10 16 10 16 0 10 -26
-11 -45 -11 -10 -20 -14 -20 -10 0 5 -14 -4 -31 -21 -29 -27 -31 -33 -27 -86
5 -62 14 -82 28 -58 5 9 20 28 34 43 14 15 26 38 26 49 0 12 2 19 5 16 6 -5
35 -572 35 -680 l0 -67 -52 -6 c-29 -3 -64 -7 -78 -9 -36 -3 -53 -15 -41 -29
6 -8 4 -16 -5 -25 -10 -9 -14 -10 -14 -1 0 16 -31 38 -55 39 -11 0 -33 -11
-48 -25 -22 -21 -27 -35 -27 -71 0 -28 4 -43 10 -39 6 3 13 -1 16 -10 5 -12 9
-13 14 -5 5 7 9 1 12 -17 3 -23 0 -29 -14 -29 -10 0 -18 6 -18 13 0 7 -7 13
-15 13 -8 0 -17 11 -21 25 -3 14 -15 32 -26 39 -14 10 -18 21 -14 34 7 21 -8
39 -19 22 -3 -5 -27 -19 -53 -31 -40 -19 -51 -29 -66 -68 -9 -25 -21 -53 -26
-62 -4 -9 -2 -28 6 -47 12 -29 23 -37 47 -33 4 1 1 -9 -8 -22 -8 -13 -12 -27
-8 -32 5 -4 -2 -3 -14 4 -46 24 -88 105 -76 150 2 10 0 22 -6 25 -6 4 -11 3
-11 -1 0 -5 -12 -10 -27 -11 -16 -1 -36 -11 -45 -23 -10 -12 -18 -17 -19 -13
-2 27 -18 -37 -17 -71 l0 -40 13 40 13 40 1 -37 c1 -20 5 -38 10 -40 5 -1 12
-16 15 -33 l6 -30 -14 30 -14 30 -6 -50 c-4 -28 -13 -75 -21 -105 -9 -36 -10
-59 -4 -66 7 -8 6 -15 -2 -20 -7 -4 -9 -3 -5 4 4 7 -1 10 -14 7 -19 -4 -19 -2
-5 18 19 27 19 33 1 40 -10 4 -13 1 -10 -8 3 -8 -1 -12 -13 -12 -9 1 -18 -3
-18 -10 0 -19 -22 -37 -22 -19 0 8 5 12 10 9 6 -4 7 -1 3 6 -6 9 -13 8 -27 -5
-18 -16 -19 -16 -19 16 l0 33 -25 -23 c-14 -13 -25 -20 -25 -15 0 4 -9 0 -21
-11 -12 -10 -24 -18 -28 -16 -3 1 -6 -2 -6 -8 0 -5 -6 -15 -14 -22 -10 -10
-12 -10 -7 0 4 6 2 12 -4 12 -7 0 -9 -7 -6 -16 3 -9 2 -12 -5 -9 -5 4 -17 1
-26 -7 -14 -11 -16 -11 -8 2 17 27 16 50 -1 43 -15 -5 -39 -50 -36 -65 1 -5
-3 -8 -10 -8 -6 0 -8 -3 -5 -6 4 -4 14 -1 23 7 10 8 27 14 38 14 12 1 27 4 34
9 22 14 26 -3 6 -26 -17 -21 -16 -21 9 1 15 14 27 20 27 15 0 -5 9 2 20 16 11
14 20 19 20 12 0 -7 5 -10 12 -6 7 4 8 3 4 -4 -4 -7 -3 -19 2 -28 8 -14 12
-14 31 7 19 21 21 21 15 4 -5 -12 5 -5 24 17 34 38 68 45 65 12 -1 -18 -1 -18
11 -1 7 9 18 17 24 17 6 0 16 9 22 19 16 30 11 39 -6 11 -9 -15 -12 -17 -8 -5
4 11 7 32 7 47 0 15 5 26 11 25 6 -1 9 10 7 28 l-3 30 24 -22 c13 -13 28 -23
34 -23 5 0 2 5 -6 10 -13 8 -12 10 4 10 20 0 20 0 0 14 -19 15 -19 15 1 11 11
-2 23 -4 28 -4 4 -1 7 -15 7 -32 0 -16 -4 -28 -9 -24 -12 7 -25 -31 -16 -45 9
-15 -2 -12 -19 6 -9 8 -16 11 -16 5 0 -10 -58 -101 -65 -101 -3 0 -2 8 1 17 5
14 4 15 -4 4 -5 -7 -7 -22 -5 -32 5 -16 8 -17 22 -7 23 18 70 67 72 76 2 13 9
15 9 3 0 -7 -9 -26 -21 -42 l-21 -30 26 -20 c14 -11 26 -25 26 -30 0 -5 -194
-9 -485 -9 l-485 0 0 425 c0 373 5 460 22 417 2 -5 16 -12 31 -16 20 -5 27 -3
22 5 -5 8 -1 8 15 -1 12 -6 24 -9 27 -6 4 3 12 1 19 -5 8 -7 14 -6 20 2 5 8 3
9 -6 4 -8 -5 -4 6 9 23 16 24 23 50 27 104 3 54 2 68 -6 53 -9 -18 -10 -17 -6
8 2 15 -1 30 -7 34 -6 4 -7 1 -2 -7 5 -9 4 -11 -3 -6 -7 4 -12 17 -12 29 0 12
-4 28 -9 36 -6 9 -9 5 -8 -13 0 -61 -28 -43 -32 19 -1 32 1 45 9 40 6 -4 4 10
-5 31 -9 21 -17 38 -18 38 -16 4 -44 27 -52 43 -6 12 -16 27 -22 35 -15 17
-18 655 -3 678 7 12 13 11 34 -10 21 -18 26 -34 28 -74 l1 -51 4 44 c5 51 -12
98 -36 106 -17 5 -17 10 -3 62 12 48 12 69 2 123 -7 36 -12 76 -11 90 1 14 3
66 4 115 2 67 9 105 26 147 16 39 22 72 19 103 -3 44 -2 45 31 56 51 17 128
98 137 144 l7 38 15 -29 c21 -41 53 -74 72 -74 10 0 29 9 43 20 32 26 34 25
42 -7 3 -16 18 -45 31 -66 24 -36 29 -39 65 -35 l40 4 -6 -62 c-8 -74 13 -131
52 -140 24 -6 24 -7 5 -28 -36 -38 -54 -87 -49 -126 2 -21 -2 -51 -10 -71 -17
-40 -31 -175 -22 -210 4 -18 -1 -32 -22 -54 -39 -43 -66 -102 -74 -163 l-7
-54 -27 26 c-34 33 -65 33 -137 1 l-56 -25 -28 30 c-22 24 -36 30 -67 29 -37
-1 -37 -1 -8 -8 43 -11 73 -29 85 -51 10 -18 11 -18 58 5 52 26 111 39 127 27
6 -4 20 -20 32 -35 l21 -28 12 58 c18 93 28 118 66 162 36 41 36 43 39 145 2
80 7 113 25 152 l22 49 18 -40 c10 -22 26 -62 36 -88 9 -26 21 -50 27 -54 10
-6 3 22 -18 72 -7 17 -20 50 -29 75 -10 25 -24 58 -32 73 -16 33 -4 65 40 106
33 31 33 41 -2 41 -56 0 -77 52 -61 149 10 66 7 83 -13 63 -7 -7 -27 -12 -45
-12 -27 0 -36 6 -57 43 -13 23 -27 57 -31 75 -6 31 -25 45 -25 18 0 -15 -42
-46 -63 -46 -19 0 -47 33 -67 78 l-17 37 -12 -42 c-18 -65 -74 -127 -143 -159
-36 -16 -37 -19 -32 -54 4 -26 -1 -57 -17 -101 -16 -45 -23 -88 -24 -144 -1
-44 -6 -91 -11 -105 -6 -17 -11 89 -14 315 -5 314 -6 296 -8 -240z m1553 397
c-36 -72 -65 -135 -65 -140 0 -9 -41 -25 -47 -19 -5 6 74 204 96 240 26 42 35
47 26 15 -5 -19 -1 -17 21 10 15 18 29 31 30 29 2 -2 -25 -63 -61 -135z m-98
104 c-3 -8 0 -17 7 -19 10 -4 2 -29 -29 -94 -23 -48 -48 -106 -55 -128 -15
-49 -22 -57 -43 -50 -18 7 -17 14 11 105 11 36 26 88 34 115 11 37 19 49 31
47 9 -1 22 6 29 18 15 23 23 26 15 6z m3 -151 c-20 -61 -35 -84 -46 -72 -3 3
9 35 25 72 17 37 32 75 32 84 1 13 2 13 6 -2 2 -9 -5 -46 -17 -82z m89 -195
c0 -34 -5 -63 -14 -74 -14 -18 -15 -15 -16 40 -1 32 -3 70 -4 84 -2 14 2 43 8
65 l11 40 7 -50 c4 -27 7 -75 8 -105z m-375 60 c-7 -34 1 -37 33 -15 12 9 26
14 30 13 4 -1 19 4 31 11 13 7 25 11 27 9 2 -2 -2 -22 -8 -45 -13 -51 -3 -67
22 -34 12 16 21 20 25 12 12 -19 45 6 54 41 12 47 35 50 27 4 -8 -39 6 -50 24
-19 21 38 23 -1 3 -60 -44 -130 -72 -236 -71 -269 1 -18 -4 -57 -12 -85 l-14
-53 -75 -27 c-41 -15 -77 -27 -80 -26 -3 1 -8 12 -11 25 -5 21 -7 20 -18 -14
-11 -35 -47 -68 -72 -68 -7 0 -18 -8 -25 -17 -11 -16 -12 -13 -8 22 3 22 10
62 15 88 5 26 9 69 9 94 0 58 6 53 13 -11 4 -27 8 -51 11 -53 6 -6 93 34 116
52 8 7 27 15 41 19 27 6 39 29 39 77 0 27 12 59 56 156 45 100 43 114 -13 92
-15 -6 -39 -12 -53 -15 -14 -2 -39 -7 -57 -10 -17 -3 -41 -15 -52 -26 -12 -10
-25 -17 -29 -14 -5 3 -15 -4 -22 -15 -21 -29 -32 -23 -25 14 28 134 38 169 46
156 6 -11 9 -10 15 4 10 27 14 20 8 -13z m326 -139 c0 -65 -4 -94 -15 -104 -7
-8 -17 -28 -21 -43 -4 -16 -10 -33 -13 -39 -10 -14 -28 -74 -36 -115 -17 -86
-43 -143 -74 -162 -35 -22 -63 -18 -60 9 3 32 -1 36 -19 20 -16 -15 -18 -15
-18 3 0 11 3 20 6 21 11 1 37 8 80 22 38 12 45 18 48 43 2 16 9 52 17 80 8 29
14 63 13 75 -1 19 29 124 77 267 10 30 15 6 15 -77z m26 -103 c-8 -24 -21 -62
-30 -86 -8 -23 -17 -64 -20 -90 -3 -26 -10 -74 -15 -107 -6 -33 -11 -63 -11
-67 0 -14 26 -8 74 16 27 13 59 27 73 30 23 6 24 6 8 -18 -17 -26 -114 -86
-139 -86 -27 0 -38 -31 -58 -177 -14 -92 -29 -159 -40 -178 l-18 -30 0 37 c0
21 7 85 16 143 8 58 14 110 12 116 -2 5 -39 -48 -83 -119 -77 -124 -125 -174
-125 -132 0 11 12 32 26 47 53 55 182 268 171 279 -4 4 -30 -11 -59 -33 -29
-21 -68 -49 -86 -62 l-33 -23 7 38 c7 39 23 69 32 60 2 -3 21 5 41 18 20 12
50 28 66 35 57 23 65 35 96 157 17 66 36 126 43 134 8 8 16 27 19 41 8 32 36
99 42 99 2 0 -2 -19 -9 -42z m-926 -20 c0 -5 -4 -8 -10 -8 -5 0 -10 10 -10 23
0 18 2 19 10 7 5 -8 10 -18 10 -22z m968 -217 c-2 -30 -8 -56 -14 -58 -18 -6
-28 199 -13 245 l13 37 8 -85 c5 -47 7 -109 6 -139z m-1529 24 c0 -47 -6 -93
-14 -110 -12 -27 -13 -17 -13 110 0 127 1 137 13 110 8 -17 14 -63 14 -110z
m1175 116 c4 -5 17 -8 31 -6 19 2 25 -2 25 -16 0 -12 -7 -19 -18 -19 -10 0
-24 -6 -30 -12 -14 -14 -64 -19 -56 -6 3 4 1 8 -5 8 -6 0 -18 -12 -26 -27 -16
-27 -15 -20 1 22 7 18 6 19 -12 5 -18 -15 -18 -14 -3 10 9 14 28 26 43 28 14
2 26 8 26 13 0 12 17 12 24 0z m544 -63 c-3 -7 -17 -13 -33 -14 -26 -1 -27 0
-10 12 24 17 48 18 43 2z m-238 -78 c0 -75 -1 -80 -21 -80 -17 0 -20 5 -16 23
3 12 11 48 17 80 6 31 13 57 16 57 2 0 4 -36 4 -80z m245 50 c-3 -5 -16 -10
-28 -9 -20 1 -20 2 3 9 14 4 26 8 28 9 2 1 0 -3 -3 -9z m-562 -147 c-7 -3 -15
-4 -19 -3 -4 1 -11 -4 -15 -12 -7 -10 -9 -10 -9 0 0 13 41 34 50 24 3 -2 -1
-7 -7 -9z m554 -5 c-3 -8 -6 -5 -6 6 -1 11 2 17 5 13 3 -3 4 -12 1 -19z m-740
0 c12 -20 14 -46 3 -53 -9 -6 -30 33 -30 56 0 13 17 11 27 -3z m0 -100 c-3 -8
-6 -5 -6 6 -1 11 2 17 5 13 3 -3 4 -12 1 -19z m760 -3 c0 -8 -4 -12 -9 -9 -5
3 -6 10 -3 15 9 13 12 11 12 -6z m-1133 -109 c23 9 20 1 -11 -27 -14 -13 -23
-18 -19 -12 4 7 1 23 -5 35 -11 20 -10 21 3 10 9 -7 23 -10 32 -6z m501 -36
c-9 -16 -18 -30 -21 -30 -2 0 2 14 11 30 9 17 18 30 21 30 2 0 -2 -13 -11 -30z
m-68 -2 c-3 -8 -6 -5 -6 6 -1 11 2 17 5 13 3 -3 4 -12 1 -19z m717 -13 c3 -8
1 -15 -4 -15 -6 0 -10 7 -10 15 0 8 2 15 4 15 2 0 6 -7 10 -15z m159 -9 c8 5
8 2 0 -7 -14 -14 -18 -33 -5 -25 4 2 8 -3 8 -13 0 -10 -6 -18 -13 -18 -7 0
-10 4 -7 8 3 5 1 17 -4 26 -5 10 -7 25 -4 33 4 11 7 11 10 2 2 -6 9 -9 15 -6z
m-613 -19 c0 -9 -22 -124 -26 -139 -4 -15 -17 -18 -67 -17 -55 0 -59 2 -37 12
32 15 57 45 65 77 7 26 42 70 57 70 4 0 8 -1 8 -3z m209 -39 c-7 -12 -13 -27
-14 -33 -2 -27 -18 -55 -36 -60 -11 -4 -23 -5 -25 -2 -10 10 10 60 25 64 9 2
25 17 36 33 23 34 33 32 14 -2z m361 -3 c0 -8 -2 -15 -4 -15 -2 0 -6 7 -10 15
-3 8 -1 15 4 15 6 0 10 -7 10 -15z m-100 -30 c0 -8 -2 -15 -4 -15 -2 0 -6 7
-10 15 -3 8 -1 15 4 15 6 0 10 -7 10 -15z m-1135 -15 c3 -5 1 -10 -4 -10 -6 0
-11 5 -11 10 0 6 2 10 4 10 3 0 8 -4 11 -10z m1346 -77 c13 -16 12 -17 -3 -4
-10 7 -18 15 -18 17 0 8 8 3 21 -13z m-56 -11 c-3 -3 -11 0 -18 7 -9 10 -8 11
6 5 10 -3 15 -9 12 -12z m-191 -77 c-24 -36 -27 -25 -7 21 11 26 18 34 20 22
3 -9 -3 -28 -13 -43z m-254 5 c0 -17 -22 -59 -34 -63 -8 -3 -10 8 -8 34 3 30
8 39 23 39 10 0 19 -4 19 -10z m455 -56 c9 -15 12 -23 5 -19 -8 5 -11 3 -8 -6
3 -8 10 -14 16 -14 5 0 14 -4 19 -9 5 -5 3 -6 -4 -2 -19 11 -16 -2 9 -37 12
-17 16 -27 10 -23 -18 11 -65 87 -58 93 3 3 1 14 -5 24 -15 28 -4 23 16 -7z
m-978 -81 c-3 -10 -5 -2 -5 17 0 19 2 27 5 18 2 -10 2 -26 0 -35z m166 39 c17
8 19 8 14 -6 -3 -8 -2 -18 3 -21 6 -4 10 -1 10 4 0 17 42 13 63 -6 19 -17 19
-17 13 7 -6 21 -5 22 4 7 15 -24 3 -42 -17 -25 -14 11 -15 10 -9 -9 9 -29 -10
-39 -26 -13 -7 11 -17 20 -22 20 -5 0 -17 7 -27 16 -17 15 -20 14 -44 -11 -26
-29 -42 -28 -31 0 3 9 10 13 16 10 10 -6 15 8 10 30 -1 6 4 5 11 -2 9 -9 17
-9 32 -1z m657 -91 c0 -19 -19 -51 -21 -36 -7 38 -3 62 8 58 7 -3 13 -13 13
-22z m220 -21 c6 -11 8 -20 6 -20 -3 0 -10 9 -16 20 -6 11 -8 20 -6 20 3 0 10
-9 16 -20z m-981 -83 c1 -5 -3 -5 -9 -2 -5 3 -10 16 -9 28 0 21 1 21 9 2 5
-11 9 -24 9 -28z m144 30 c3 -8 -1 -14 -8 -14 -7 0 -11 6 -8 14 3 7 6 13 8 13
2 0 5 -6 8 -13z m649 -17 c3 -16 1 -30 -4 -30 -4 0 -8 14 -8 30 0 17 2 30 4
30 2 0 6 -13 8 -30z m-97 -39 c-6 -5 -25 10 -25 20 0 5 6 4 14 -3 8 -7 12 -15
11 -17z m51 -18 c-10 -11 -19 -7 -22 10 -2 15 0 16 12 6 8 -6 12 -14 10 -16z
m72 -3 c4 -10 6 -9 13 1 7 12 9 11 9 -1 0 -18 -39 -120 -40 -103 0 6 5 24 11
39 15 40 4 74 -21 69 -11 -2 -18 0 -15 5 7 12 38 6 43 -10z m52 0 c0 -5 -5
-10 -11 -10 -5 0 -7 5 -4 10 3 6 8 10 11 10 2 0 4 -4 4 -10z m-673 -23 c0 -8
-6 -14 -14 -14 -9 0 -10 4 -2 14 6 7 12 13 14 13 1 0 2 -6 2 -13z m680 -63
c-8 -23 -11 -50 -6 -66 17 -62 -48 -46 -86 21 -6 11 -3 13 13 9 17 -5 23 0 32
28 6 19 16 37 22 40 6 4 5 -3 -2 -15 -6 -12 -10 -27 -7 -34 2 -7 12 5 22 26
22 48 29 42 12 -9z m-1897 8 c0 -5 -7 -17 -15 -28 -14 -18 -14 -17 -4 9 12 27
19 34 19 19z m20 -32 c-6 -11 -13 -20 -16 -20 -2 0 0 9 6 20 6 11 13 20 16 20
2 0 0 -9 -6 -20z m-11 -76 c-13 -16 -39 -19 -39 -4 0 6 10 10 23 11 21 0 21 1
2 9 -11 5 -14 9 -6 9 9 1 10 5 5 14 -5 7 -1 4 9 -6 13 -15 15 -23 6 -33z m57
-22 c-11 -11 -16 -12 -16 -4 0 8 -5 10 -12 6 -12 -7 -5 8 15 34 9 11 12 10 20
-3 6 -12 4 -22 -7 -33z m4 -33 c-7 -11 -14 -18 -17 -15 -3 3 0 12 7 21 18 21
23 19 10 -6z m1460 -253 c12 -36 3 -73 -23 -94 -12 -10 -13 -20 -5 -51 6 -23
6 -67 1 -115 -8 -69 -7 -81 9 -101 20 -25 23 -91 12 -204 l-7 -61 -69 0 c-74
0 -79 7 -26 40 l30 18 -26 17 c-30 20 -33 43 -11 85 15 28 14 30 -4 30 -22 0
-51 35 -51 61 0 9 11 41 24 70 13 30 27 65 31 79 l8 25 -27 -27 c-15 -14 -43
-34 -63 -43 -34 -16 -36 -16 -54 1 -26 28 -33 66 -14 89 8 11 15 16 14 10 -4
-29 4 -26 21 10 12 23 18 30 16 17 -4 -22 -3 -23 17 -9 42 27 69 79 63 118
l-6 37 34 -8 c29 -6 38 -4 57 16 30 32 35 30 49 -10z m-367 -82 c4 -23 3 -24
-10 -11 -9 8 -12 20 -9 26 10 16 13 14 19 -15z m1627 -131 c0 -40 -15 -32 -16
9 -1 26 2 35 7 27 5 -8 9 -24 9 -36z m-1864 -35 c5 4 2 -2 -7 -13 -9 -11 -19
-27 -22 -35 -4 -10 -6 -8 -6 7 -1 12 -5 24 -10 27 -5 3 -7 15 -4 26 5 20 5 20
23 0 9 -11 21 -16 26 -12z m288 9 c-13 -35 -93 -58 -124 -36 -13 9 -12 10 3 5
9 -3 17 0 17 6 0 6 3 9 6 5 4 -3 22 0 40 8 19 8 34 11 34 7 0 -3 5 -1 12 6 15
15 19 15 12 -1z m1219 -2 c4 -8 3 -16 -1 -19 -4 -3 -9 4 -9 15 -2 23 3 25 10
4z m57 11 c0 -2 -8 -10 -17 -17 -16 -13 -17 -12 -4 4 13 16 21 21 21 13z m186
-44 c-17 -16 -18 -16 -5 5 7 12 15 20 18 17 3 -2 -3 -12 -13 -22z m-207 -22
c-11 -21 -18 -44 -15 -49 4 -6 -2 -8 -13 -6 -20 4 -31 -18 -31 -60 0 -17 2
-17 10 -5 6 9 10 10 10 3 0 -6 -5 -15 -11 -19 -6 -3 -9 -15 -6 -25 3 -10 0
-22 -5 -26 -6 -3 -8 -2 -5 3 3 6 2 16 -2 23 -5 7 -5 30 -1 51 4 22 4 38 1 35
-4 -2 -11 -1 -16 3 -15 11 -49 81 -43 88 7 7 48 -18 48 -29 0 -4 9 -3 20 3 21
11 27 1 10 -16 -7 -7 -6 -11 4 -11 16 0 39 51 28 63 -4 4 -2 4 5 0 6 -3 14 -2
18 4 17 27 12 5 -6 -30z m268 8 c-3 -8 -6 -5 -6 6 -1 11 2 17 5 13 3 -3 4 -12
1 -19z m-1712 -28 c-8 -13 -65 -43 -71 -37 -3 2 9 10 26 17 16 7 30 16 30 21
0 5 5 9 11 9 5 0 7 -5 4 -10z m1460 -27 c-5 -10 -8 -25 -9 -34 0 -10 -6 -15
-15 -11 -9 3 -12 1 -7 -6 3 -6 2 -13 -3 -17 -12 -7 -5 35 8 48 5 5 7 16 4 23
-3 9 2 14 12 14 13 0 15 -5 10 -17z m-369 -60 c-10 -10 -19 5 -10 18 6 11 8
11 12 0 2 -7 1 -15 -2 -18z m224 17 c0 -5 -2 -10 -4 -10 -3 0 -8 5 -11 10 -3
6 -1 10 4 10 6 0 11 -4 11 -10z m273 -58 c-4 -10 -8 -10 -13 -2 -5 8 -9 7 -13
-4 -7 -18 8 -32 18 -16 3 5 13 10 21 10 11 0 13 -6 9 -21 -4 -12 -8 -28 -9
-35 -4 -24 -25 -39 -37 -27 -8 8 -7 13 2 18 8 5 10 4 5 -3 -4 -7 -3 -12 2 -12
17 0 22 13 10 27 -9 11 -14 11 -31 -4 -20 -18 -20 -17 -13 12 l6 30 -14 -26
c-8 -14 -13 -37 -12 -50 2 -16 -2 -26 -11 -26 -16 0 -17 9 0 26 10 10 9 11 -5
6 -24 -9 -23 8 2 30 11 10 20 23 20 28 0 16 38 54 54 54 8 0 12 -6 9 -15z
m-243 -31 c0 -5 -7 -12 -16 -15 -13 -5 -13 -10 6 -36 12 -16 18 -35 14 -41 -3
-6 -15 7 -25 31 -15 33 -16 46 -8 56 13 16 29 18 29 5z m-1764 -59 c-17 -16
-18 -16 -5 5 7 12 15 20 18 17 3 -2 -3 -12 -13 -22z m1874 -32 c-6 -11 -13
-20 -16 -20 -2 0 0 9 6 20 6 11 13 20 16 20 2 0 0 -9 -6 -20z m140 6 c0 -11
-19 -15 -25 -6 -3 5 1 10 9 10 9 0 16 -2 16 -4z m-40 -19 c0 -2 -10 -12 -22
-23 l-23 -19 19 23 c18 21 26 27 26 19z m-71 -30 c8 -10 7 -14 -2 -14 -8 0
-14 6 -14 14 0 7 1 13 2 13 2 0 8 -6 14 -13z m-936 -14 c-7 -2 -21 -2 -30 0
-10 3 -4 5 12 5 17 0 24 -2 18 -5z m1177 -48 c0 -16 -6 -25 -15 -25 -8 0 -15
4 -15 9 0 5 -3 16 -6 25 -4 12 0 16 15 16 16 0 21 -6 21 -25z m90 16 c0 -12
-29 -23 -41 -15 -18 10 -9 24 16 24 14 0 25 -4 25 -9z"/>
<path d="M1335 1390 c3 -5 8 -10 11 -10 2 0 4 5 4 10 0 6 -5 10 -11 10 -5 0
-7 -4 -4 -10z"/>
<path d="M2826 2810 c-24 -42 -51 -53 -106 -46 -46 6 -47 6 -57 -26 -9 -31
-11 -33 -54 -31 -44 2 -45 2 -42 -25 3 -15 -1 -47 -7 -72 -6 -25 -11 -76 -10
-115 1 -45 -4 -77 -13 -89 -12 -16 -12 -23 1 -49 9 -18 15 -62 16 -116 1 -69
4 -89 18 -99 20 -14 38 -72 38 -119 0 -58 -17 -38 -61 72 -5 11 -13 40 -20 64
-8 34 -13 41 -21 30 -7 -11 -8 -9 -4 6 3 11 -1 58 -9 105 l-13 85 -1 -105 c0
-58 4 -125 9 -150 11 -48 65 -166 87 -188 19 -20 16 2 -8 53 -12 25 -19 48
-16 51 2 3 17 -27 32 -65 29 -72 40 -91 29 -46 -8 31 3 32 67 3 46 -21 49 -25
49 -60 0 -38 12 -49 27 -25 16 25 75 67 94 67 12 0 23 -10 30 -27 l10 -28 30
48 c36 58 51 65 94 44 l33 -16 4 57 c3 31 9 66 13 77 6 16 5 18 -5 8 -7 -7
-15 -37 -18 -68 -2 -30 -6 -55 -7 -55 -2 0 -15 6 -30 14 -33 17 -54 8 -79 -36
-17 -28 -40 -36 -51 -18 -12 20 -49 9 -91 -26 -44 -35 -44 -35 -44 -10 0 37
-10 56 -31 56 -10 0 -28 9 -39 20 -11 11 -26 20 -34 20 -10 0 -15 18 -18 60
-3 41 -11 69 -26 90 -17 23 -22 43 -22 93 0 35 -7 86 -15 112 -10 35 -11 53
-3 68 8 16 13 117 6 144 -1 4 4 26 10 48 7 22 12 54 12 72 0 30 1 31 39 26 37
-5 39 -4 52 31 12 34 16 36 44 30 16 -3 32 -6 35 -6 29 -1 44 7 75 39 19 20
35 31 35 26 0 -34 104 -59 135 -33 13 11 15 8 15 -17 0 -27 15 -49 48 -67 6
-4 12 -2 12 3 0 6 -7 11 -15 11 -22 0 -38 38 -30 76 7 38 -3 43 -30 14 -27
-30 -77 -26 -118 9 l-33 30 -18 -29z m-309 -682 c-3 -8 -6 -5 -6 6 -1 11 2 17
5 13 3 -3 4 -12 1 -19z m32 -70 c1 -5 -3 -8 -9 -8 -5 0 -10 12 -9 28 0 24 1
25 9 7 5 -11 9 -23 9 -27z"/>
<path d="M1860 2754 c-14 -8 -32 -11 -42 -8 -9 2 -20 -1 -24 -7 -4 -8 -3 -9 4
-5 6 4 21 2 33 -5 17 -9 20 -8 14 3 -6 10 -5 10 4 2 10 -9 10 -16 0 -32 -10
-16 -10 -26 -1 -47 15 -31 15 -55 2 -55 -5 0 -7 7 -4 15 9 23 -5 37 -27 25
-37 -20 -13 -64 29 -53 18 4 22 12 22 50 0 27 -4 42 -10 38 -5 -3 -10 1 -10 9
0 16 10 20 45 16 26 -3 32 -9 17 -19 -9 -5 -11 -24 -5 -67 4 -32 9 -51 11 -41
2 9 9 17 17 17 7 0 18 7 25 15 9 11 8 20 -8 42 -33 47 -36 69 -10 87 12 9 18
16 12 16 -6 0 -19 -9 -28 -19 -20 -22 -50 -21 -54 2 -4 19 13 23 23 7 8 -12
25 -4 25 12 0 6 -3 8 -7 5 -3 -4 -11 -3 -17 1 -6 5 -22 3 -36 -4z m75 -104
c-3 -5 -1 -11 5 -15 15 -9 12 -35 -4 -35 -8 0 -17 11 -20 25 -7 29 0 48 15 39
5 -3 7 -9 4 -14z m-105 -42 c0 -16 -3 -19 -11 -11 -6 6 -8 16 -5 22 11 17 16
13 16 -11z"/>
<path d="M2234 2701 c-25 -11 -37 -72 -21 -108 12 -27 3 -53 -19 -53 -9 0 -42
-12 -71 -27 -51 -26 -84 -63 -83 -95 1 -7 7 1 14 18 20 45 33 48 34 10 1 -19
6 -63 11 -98 10 -62 8 -114 -3 -126 -3 -3 -6 15 -6 40 0 59 -11 138 -19 138
-7 0 -5 -391 2 -432 3 -15 8 -31 11 -36 3 -5 8 -24 11 -43 3 -19 15 -43 26
-55 10 -11 17 -23 13 -26 -3 -3 4 -25 15 -49 12 -23 21 -47 21 -53 0 -5 8 -18
18 -29 10 -12 11 -17 3 -12 -10 5 -12 4 -7 -3 4 -7 13 -12 21 -12 17 0 25 -23
15 -40 -10 -16 -4 -30 13 -30 7 0 6 4 -3 10 -8 5 -10 10 -4 10 7 0 10 13 9 30
-2 25 0 28 11 19 10 -8 11 -15 4 -24 -8 -9 -7 -15 2 -18 11 -4 11 -6 0 -6 -10
-1 -10 -5 0 -23 15 -28 16 -34 22 -123 5 -74 13 -105 27 -105 5 0 9 -7 9 -16
0 -17 9 -10 40 31 13 18 13 19 0 9 -24 -18 -48 -13 -42 8 2 10 8 15 13 12 5
-3 12 2 15 10 3 9 11 13 18 9 6 -3 7 -2 3 2 -12 14 -38 15 -30 2 4 -7 -1 -6
-10 2 -12 10 -14 18 -7 31 7 13 7 21 0 25 -6 4 -8 16 -4 27 3 12 2 18 -3 15
-5 -4 -10 -1 -10 6 0 7 -2 17 -3 22 -1 6 -2 18 -1 28 1 15 5 16 21 7 11 -6 20
-16 20 -22 0 -7 -4 -7 -13 1 -19 15 -29 3 -16 -20 9 -18 32 -27 26 -11 -1 4 3
8 8 9 6 1 9 -5 8 -14 -1 -10 2 -12 9 -5 7 7 0 26 -23 58 -18 26 -32 53 -32 60
0 7 -3 12 -7 11 -3 -1 -21 14 -39 33 -18 19 -30 29 -26 23 3 -7 1 -13 -5 -13
-6 0 -9 8 -6 18 5 14 -4 26 -29 44 -29 20 -33 27 -20 32 9 3 14 2 11 -3 -3 -5
2 -15 12 -22 15 -12 16 -12 5 2 -7 9 -10 19 -6 22 3 4 -1 9 -10 13 -9 3 -14
14 -12 25 2 10 -2 24 -8 31 -18 19 -48 109 -40 121 4 7 0 8 -12 3 -16 -6 -16
-4 -4 11 8 9 9 14 3 10 -12 -7 -29 21 -19 31 3 3 5 0 5 -6 0 -7 4 -12 9 -12 6
0 9 9 8 19 0 11 -4 18 -8 15 -4 -2 -9 3 -12 11 -4 9 -1 12 10 8 13 -5 13 -2
-2 27 -11 22 -13 36 -7 42 7 7 7 19 1 35 -10 28 -1 54 11 32 10 -17 25 -100
21 -116 -1 -7 3 -13 9 -13 6 0 8 -5 5 -10 -3 -6 -3 -20 1 -33 7 -21 7 -21 14
-3 6 19 7 19 12 -2 4 -12 2 -20 -2 -17 -17 11 -20 -15 -5 -38 8 -13 12 -27 8
-30 -3 -4 -1 -7 6 -7 7 0 10 -4 6 -9 -3 -5 -1 -12 5 -16 6 -4 8 -10 5 -15 -8
-13 6 -41 18 -33 6 3 7 1 3 -5 -4 -7 7 -41 24 -76 19 -38 29 -70 24 -78 -4 -7
-3 -10 1 -5 5 4 25 -7 44 -25 20 -18 28 -24 20 -13 -9 11 -32 53 -52 93 -28
58 -33 74 -21 79 7 3 11 10 7 17 -4 6 -8 16 -8 21 -2 19 -18 50 -39 73 -20 22
-32 87 -14 76 4 -3 6 -16 4 -29 -3 -13 2 -29 10 -36 14 -11 15 -10 18 14 1 6
9 11 19 9 17 -3 17 -2 1 25 l-16 28 21 -25 c11 -14 21 -30 21 -37 0 -6 7 -10
15 -9 9 1 15 5 15 9 0 4 0 12 0 18 0 5 -4 7 -10 4 -6 -3 -7 1 -3 10 4 12 8 13
13 5 5 -9 10 -5 15 10 7 21 8 21 17 6 13 -22 30 -10 23 17 -5 19 -4 19 9 -3 9
-14 15 -19 16 -11 0 11 3 11 16 1 13 -11 20 -8 45 20 23 24 30 28 27 14 -2
-10 -16 -28 -32 -39 -39 -27 -51 -57 -13 -32 31 20 35 13 10 -15 -16 -18 -16
-18 3 -12 10 4 22 12 26 18 4 6 13 11 20 11 7 0 14 9 16 20 3 17 1 18 -8 5 -9
-12 -10 -10 -9 10 5 61 -1 111 -12 104 -8 -5 -10 1 -5 19 3 14 2 29 -4 32 -6
3 -8 18 -5 33 8 41 7 210 -1 223 -4 8 -10 6 -17 -6 -8 -16 -11 -14 -23 15 -21
49 -17 55 19 28 17 -14 35 -38 38 -54 l7 -29 1 28 c1 18 -8 36 -23 50 -32 30
-94 67 -112 67 -19 0 -29 27 -16 43 18 22 18 93 -1 111 -20 20 -65 28 -93 17z
m66 -137 c0 -2 -7 -4 -15 -4 -8 0 -15 4 -15 10 0 5 7 7 15 4 8 -4 15 -8 15
-10z m-50 -15 c0 -7 10 -9 24 -5 14 3 27 2 31 -3 7 -13 -30 -24 -55 -16 -11 4
-20 2 -20 -4 0 -6 -7 -8 -15 -5 -8 4 -12 10 -9 15 3 5 10 7 15 4 5 -4 9 1 9 9
0 9 5 16 10 16 6 0 10 -5 10 -11z m-60 -23 c0 -3 -4 -8 -10 -11 -5 -3 -10 -1
-10 4 0 6 5 11 10 11 6 0 10 -2 10 -4z m-30 -46 c0 -22 38 -90 50 -90 5 0 11
4 14 9 7 10 31 9 42 -2 4 -3 -3 -4 -15 -2 -13 2 -19 0 -15 -6 3 -6 8 -8 11 -5
3 2 16 0 30 -5 30 -11 54 6 73 52 7 16 15 28 17 26 2 -3 -4 -23 -13 -46 -26
-65 -106 -90 -146 -47 -10 10 -18 15 -18 10 -1 -5 -12 14 -25 41 -24 51 -33
101 -15 90 6 -3 10 -15 10 -25z m127 24 c-3 -3 -12 -4 -19 -1 -8 3 -5 6 6 6
11 1 17 -2 13 -5z m-19 -54 c6 0 12 -4 12 -9 0 -14 -48 0 -66 20 -17 19 -17
19 12 4 16 -8 35 -15 42 -15z m50 10 c-7 -10 -14 -17 -17 -15 -4 4 18 35 25
35 2 0 -1 -9 -8 -20z m-182 -70 c8 0 14 -7 14 -16 0 -8 4 -12 10 -9 6 4 7 -1
3 -12 -3 -10 -3 -15 1 -12 4 4 19 -4 33 -17 15 -14 33 -22 40 -20 7 3 13 1 13
-5 0 -13 39 -2 63 19 9 8 17 11 17 6 0 -5 9 5 20 21 16 25 20 27 20 10 -1 -35
-56 -86 -98 -89 -20 -2 -43 1 -50 6 -7 6 -15 8 -18 5 -3 -3 -19 6 -35 20 -30
27 -70 118 -68 156 1 12 5 3 11 -20 5 -26 15 -43 24 -43z m304 -87 c0 -5 -5
-15 -10 -23 -8 -12 -10 -11 -10 8 0 12 5 22 10 22 6 0 10 -3 10 -7z m-8 -109
c-8 -15 -9 -15 -15 0 -4 10 -3 15 3 11 6 -3 10 2 11 12 0 10 3 13 5 6 3 -7 1
-20 -4 -29z m-98 -88 c-3 -15 -8 -25 -11 -23 -2 3 -1 17 3 31 3 15 8 25 11 23
2 -3 1 -17 -3 -31z m-31 -9 c3 -7 -3 -13 -14 -14 -12 -1 -16 3 -12 13 6 18 19
18 26 1z m51 -13 c3 -8 2 -12 -4 -9 -6 3 -10 10 -10 16 0 14 7 11 14 -7z m-90
-10 c3 -8 2 -12 -3 -9 -6 3 -14 -3 -20 -12 -6 -10 -11 -15 -11 -10 0 6 22 47
26 47 1 0 5 -7 8 -16z m170 -13 c3 -4 -4 -17 -16 -27 -12 -11 -19 -14 -16 -9
3 6 8 18 11 28 7 19 13 21 21 8z m-124 -11 c0 -5 -2 -10 -4 -10 -3 0 -8 5 -11
10 -3 6 -1 10 4 10 6 0 11 -4 11 -10z m-154 -225 c1 -8 -3 -18 -8 -22 -6 -3
-8 -1 -4 5 3 6 2 13 -4 17 -6 4 -8 11 -4 16 7 12 17 4 20 -16z"/>
<path d="M1790 2693 c0 -6 8 -17 18 -24 16 -13 16 -13 2 6 -8 11 -16 22 -17
24 -2 2 -3 0 -3 -6z"/>
<path d="M1962 2684 c-7 -8 -8 -14 -3 -14 10 0 25 19 20 25 -2 1 -10 -3 -17
-11z"/>
<path d="M831 2650 c1 -8 5 -26 9 -40 l8 -25 1 25 c0 14 -4 32 -9 40 -9 13
-10 13 -9 0z"/>
<path d="M3061 2614 c0 -11 3 -14 6 -6 3 7 2 16 -1 19 -3 4 -6 -2 -5 -13z"/>
<path d="M1884 2545 c4 -35 3 -44 -3 -30 l-10 20 0 -20 c0 -11 3 -26 8 -33 6
-10 10 -6 16 15 10 34 7 75 -7 88 -6 7 -8 -7 -4 -40z"/>
<path d="M856 2535 c7 -56 8 -64 17 -85 7 -17 18 -66 21 -95 3 -23 21 -28 20
-5 -2 38 -17 101 -25 106 -5 3 -9 15 -10 27 0 12 -7 40 -14 62 l-14 40 5 -50z"/>
<path d="M1862 2560 c0 -14 2 -19 5 -12 2 6 2 18 0 25 -3 6 -5 1 -5 -13z"/>
<path d="M1917 2510 c-8 -29 7 -61 16 -36 4 9 3 26 -2 38 l-8 22 -6 -24z"/>
<path d="M2753 2518 c0 -7 -4 -25 -8 -40 -5 -18 -3 -28 4 -28 6 0 11 8 11 18
0 13 2 14 9 3 7 -11 11 -10 20 5 10 18 10 18 11 -3 0 -31 18 -29 30 3 14 37
12 52 -5 30 -13 -17 -15 -18 -15 -3 0 21 -19 22 -26 2 -4 -8 -10 -13 -15 -10
-4 3 -6 12 -2 20 3 8 1 15 -4 15 -5 0 -10 -6 -10 -12z"/>
<path d="M2855 2500 c-19 -21 -14 -50 8 -50 18 0 47 32 47 53 0 23 -33 21 -55
-3z m26 -23 c-16 -16 -26 0 -10 19 9 11 15 12 17 4 2 -6 -1 -17 -7 -23z"/>
<path d="M410 2450 c-8 -5 -11 -12 -7 -16 4 -4 13 -2 19 4 15 15 7 24 -12 12z"/>
<path d="M1930 2441 c0 -6 5 -13 10 -16 6 -3 10 1 10 9 0 9 -4 16 -10 16 -5 0
-10 -4 -10 -9z"/>
<path d="M260 2403 c-11 -23 -14 -25 -17 -10 -7 27 -20 20 -25 -13 -5 -30 9
-36 41 -16 9 6 17 3 24 -10 10 -17 11 -17 18 9 16 59 -16 91 -41 40z"/>
<path d="M320 2387 c0 -30 4 -46 10 -42 6 3 10 12 10 18 0 7 7 20 15 31 13 17
14 17 12 -10 -2 -23 2 -29 21 -30 25 -1 27 0 36 39 7 31 -9 38 -17 7 -8 -29
-25 -25 -19 5 5 28 -15 34 -36 13 -10 -10 -15 -10 -22 2 -7 11 -10 1 -10 -33z"/>
<path d="M440 2404 c-20 -51 -10 -65 31 -44 14 8 19 7 19 -1 0 -8 5 -7 16 2
14 11 18 10 27 -6 10 -18 11 -18 18 8 14 53 -20 97 -36 46 l-7 -21 -15 21
c-19 28 -41 26 -53 -5z m40 -3 c0 -5 -7 -14 -15 -21 -12 -10 -15 -10 -15 2 0
8 3 18 7 21 9 10 23 9 23 -2z"/>
<path d="M1086 2401 c-3 -5 -23 -12 -43 -16 -21 -4 -49 -15 -64 -26 -15 -10
-30 -19 -34 -19 -14 0 -55 -45 -55 -60 0 -26 42 -56 74 -54 16 2 33 8 36 15 5
6 13 8 20 4 9 -5 11 -4 6 3 -5 8 0 12 12 12 11 0 25 7 32 15 7 8 19 15 26 15
8 0 11 6 7 17 -4 11 -3 14 5 9 7 -4 12 -2 12 4 0 6 3 9 8 7 4 -3 8 15 8 39 1
40 -1 44 -22 44 -12 0 -25 -4 -28 -9z"/>
<path d="M2664 2384 c-10 -14 -13 -29 -8 -34 15 -14 48 -16 50 -2 3 25 5 27
13 13 16 -24 48 -23 55 2 11 44 6 53 -15 27 -20 -24 -20 -24 -14 -2 4 12 2 22
-4 22 -5 0 -12 -8 -14 -17 -4 -17 -5 -17 -6 0 -2 26 -38 21 -57 -9z m25 -15
c-19 -12 -24 -2 -8 17 9 11 14 13 17 4 3 -7 -2 -16 -9 -21z"/>
<path d="M2791 2379 c-13 -38 -13 -39 -3 -39 4 0 12 16 18 35 14 44 0 47 -15
4z"/>
<path d="M2820 2384 c-6 -14 -10 -30 -10 -35 0 -12 21 -11 40 1 13 8 12 10 -4
10 -20 0 -20 0 0 15 15 11 16 15 4 15 -10 1 -9 4 5 10 19 8 19 9 -3 9 -15 1
-26 -7 -32 -25z"/>
<path d="M2875 2379 c-4 -17 -4 -33 -1 -36 3 -4 6 0 6 7 0 10 4 9 18 -3 16
-15 17 -14 18 24 1 31 -2 39 -16 39 -12 0 -21 -10 -25 -31z"/>
<path d="M2940 2395 c-14 -16 -10 -47 6 -52 16 -5 44 25 44 48 0 23 -32 26
-50 4z m40 -4 c0 -13 -29 -35 -37 -28 -7 8 15 37 28 37 5 0 9 -4 9 -9z"/>
<path d="M577 2389 c8 -8 16 -8 30 0 16 9 14 10 -11 11 -22 0 -27 -3 -19 -11z"/>
<path d="M537 2313 c-10 -10 -8 -53 2 -53 5 0 11 14 13 30 4 29 -1 37 -15 23z"/>
<path d="M289 2283 c-15 -39 -11 -63 6 -33 l14 25 9 -25 9 -24 12 21 c19 38
14 61 -15 61 -18 0 -28 -8 -35 -25z"/>
<path d="M361 2279 c-14 -41 -15 -39 14 -39 29 0 34 16 8 23 -13 3 -11 5 7 7
23 1 23 2 5 10 -19 8 -19 8 5 18 l25 11 -27 0 c-21 1 -28 -6 -37 -30z"/>
<path d="M2690 2274 c-13 -40 -6 -60 9 -23 l9 24 10 -25 10 -25 11 28 c6 16
11 35 11 43 0 17 -16 19 -23 2 -4 -10 -6 -10 -6 0 -2 25 -20 11 -31 -24z"/>
<path d="M2764 2285 c-18 -27 -12 -45 16 -45 22 0 44 35 36 56 -8 22 -34 17
-52 -11z m36 -4 c0 -5 -7 -14 -15 -21 -16 -14 -18 -10 -9 14 6 17 24 22 24 7z"/>
<path d="M2830 2284 c-14 -35 -12 -44 5 -38 8 4 15 1 15 -5 0 -25 32 -8 46 24
17 40 17 45 5 45 -5 0 -12 -13 -16 -30 -4 -16 -11 -30 -16 -30 -4 0 -6 14 -2
30 4 24 2 30 -11 30 -9 0 -21 -12 -26 -26z"/>
<path d="M2913 2275 c-6 -20 -7 -35 -2 -35 5 0 9 6 9 13 0 6 5 4 11 -5 14 -25
32 -23 19 2 -7 14 -7 20 0 20 5 0 10 9 10 20 0 35 -35 24 -47 -15z"/>
<path d="M415 2250 c-3 -5 1 -10 9 -10 9 0 16 5 16 10 0 6 -4 10 -9 10 -6 0
-13 -4 -16 -10z"/>
<path d="M450 2250 c0 -5 5 -10 10 -10 6 0 10 5 10 10 0 6 -4 10 -10 10 -5 0
-10 -4 -10 -10z"/>
<path d="M490 2250 c0 -5 5 -10 10 -10 6 0 10 5 10 10 0 6 -4 10 -10 10 -5 0
-10 -4 -10 -10z"/>
<path d="M525 2240 c3 -5 8 -10 11 -10 2 0 4 5 4 10 0 6 -5 10 -11 10 -5 0 -7
-4 -4 -10z"/>
<path d="M1923 2190 c0 -30 2 -43 4 -27 2 15 2 39 0 55 -2 15 -4 2 -4 -28z"/>
<path d="M1793 2170 c0 -25 2 -35 4 -22 2 12 2 32 0 45 -2 12 -4 2 -4 -23z"/>
<path d="M2872 2190 c-5 -14 -7 -29 -4 -34 7 -12 24 33 18 48 -2 6 -8 0 -14
-14z"/>
<path d="M936 2153 c-6 -14 -5 -15 5 -6 7 7 10 15 7 18 -3 3 -9 -2 -12 -12z"/>
<path d="M2760 2140 c0 -5 5 -10 10 -10 6 0 10 5 10 10 0 6 -4 10 -10 10 -5 0
-10 -4 -10 -10z"/>
<path d="M2795 2140 c-3 -5 -1 -10 4 -10 6 0 11 5 11 10 0 6 -2 10 -4 10 -3 0
-8 -4 -11 -10z"/>
<path d="M2830 2139 c0 -5 5 -7 10 -4 6 3 10 8 10 11 0 2 -4 4 -10 4 -5 0 -10
-5 -10 -11z"/>
<path d="M2860 2129 c0 -5 5 -7 10 -4 6 3 10 8 10 11 0 2 -4 4 -10 4 -5 0 -10
-5 -10 -11z"/>
<path d="M1933 2080 c0 -30 2 -43 4 -27 2 15 2 39 0 55 -2 15 -4 2 -4 -28z"/>
<path d="M1802 2080 c0 -19 2 -27 5 -17 2 9 2 25 0 35 -3 9 -5 1 -5 -18z"/>
<path d="M1813 1990 c0 -25 2 -35 4 -22 2 12 2 32 0 45 -2 12 -4 2 -4 -23z"/>
<path d="M1943 1975 c0 -22 2 -30 4 -17 2 12 2 30 0 40 -3 9 -5 -1 -4 -23z"/>
<path d="M2316 1993 c-4 -9 -3 -20 2 -25 6 -6 10 1 10 16 0 30 -3 32 -12 9z"/>
<path d="M2470 1971 c0 -5 7 -12 16 -15 14 -5 15 -4 4 9 -14 17 -20 19 -20 6z"/>
<path d="M1823 1900 c0 -25 2 -35 4 -22 2 12 2 32 0 45 -2 12 -4 2 -4 -23z"/>
<path d="M2418 1890 c-78 -60 -101 -98 -96 -160 l3 -45 15 30 c14 28 21 31 85
37 69 7 71 7 97 -22 29 -31 29 -26 8 -174 -11 -75 -15 -82 -78 -164 -37 -46
-66 -90 -64 -97 2 -12 -32 -29 -51 -26 -5 1 -6 -3 -2 -9 3 -5 1 -10 -5 -10 -6
0 -8 -5 -4 -12 5 -9 2 -8 -9 1 -10 8 -20 11 -24 8 -3 -4 -15 -2 -26 4 -15 8
-18 8 -12 -1 6 -9 3 -9 -13 -1 -29 15 -50 15 -34 -1 7 -7 12 -18 12 -25 0 -20
38 -54 44 -40 2 7 5 1 5 -13 1 -15 4 -20 9 -13 12 19 32 -1 27 -26 -2 -13 -7
-26 -10 -29 -2 -3 0 -11 6 -18 7 -9 7 -19 -1 -33 -6 -12 -7 -21 -2 -21 14 0
30 41 37 92 4 28 12 49 22 52 12 5 14 1 11 -18 -4 -19 -1 -24 14 -23 13 1 18
10 20 37 1 19 4 -1 8 -45 3 -44 2 -93 -2 -108 -5 -20 -4 -27 5 -24 7 3 11 11
9 18 -1 8 6 4 17 -8 16 -19 20 -20 25 -7 3 8 10 13 15 10 11 -7 54 42 72 84 8
16 17 30 20 30 6 0 4 27 -7 77 -3 16 -9 20 -20 16 -13 -5 -15 -16 -10 -57 3
-28 2 -43 -2 -32 -7 15 -11 12 -26 -22 -10 -22 -15 -46 -11 -53 6 -8 4 -10 -5
-4 -10 6 -12 4 -7 -9 4 -11 3 -15 -4 -11 -6 4 -8 14 -4 23 10 26 -18 34 -33 9
-8 -13 -11 -15 -8 -4 3 9 1 17 -3 17 -5 0 -9 28 -9 63 1 51 2 56 8 27 7 -31 8
-32 9 -7 0 15 5 27 10 27 5 0 12 21 16 47 5 33 9 42 16 32 7 -11 9 -9 9 7 0
20 17 34 42 34 6 0 6 -6 -2 -15 -6 -8 -10 -22 -7 -32 4 -14 5 -13 6 5 0 12 6
21 13 20 6 -2 16 14 22 34 6 20 14 40 19 44 10 10 9 54 -1 54 -5 0 -15 -19
-22 -42 -12 -40 -13 -42 -23 -20 -8 17 -6 26 6 40 10 11 17 36 17 60 0 24 5
42 11 42 7 0 9 -10 5 -25 l-7 -26 21 21 c11 11 20 25 20 30 0 6 4 10 9 10 5 0
9 17 9 38 0 20 1 48 2 62 1 23 2 23 9 5 5 -12 8 9 7 55 -1 64 1 75 17 78 10 2
25 -2 33 -9 12 -10 13 -29 7 -113 -4 -56 -7 -144 -5 -198 2 -60 -1 -99 -7
-103 -6 -3 -11 -15 -11 -26 0 -10 -4 -19 -10 -19 -5 0 -10 -7 -10 -16 0 -10
-6 -14 -15 -10 -11 4 -15 -2 -16 -27 0 -27 -2 -29 -9 -12 -8 18 -9 17 -9 -7
-1 -16 3 -28 8 -28 12 0 2 -140 -11 -160 -8 -12 -8 -11 -4 3 8 24 -4 44 -15
26 -4 -7 -5 7 -2 32 7 60 -11 40 -25 -26 -6 -28 -14 -59 -18 -69 -5 -14 -4
-17 5 -11 10 6 11 3 2 -14 -7 -12 -9 -26 -6 -31 3 -5 1 -11 -4 -14 -5 -4 -8 6
-6 21 2 25 2 26 -11 8 -10 -13 -11 -22 -3 -32 17 -20 25 -16 39 17 13 32 30
40 30 14 0 -8 -4 -12 -10 -9 -5 3 -7 0 -4 -9 3 -8 1 -24 -6 -35 -6 -12 -8 -21
-6 -21 8 0 27 38 36 72 5 17 5 26 -1 23 -5 -4 -9 3 -9 14 0 11 9 22 20 26 12
4 22 19 26 40 3 19 10 32 15 29 5 -3 9 8 9 25 0 16 4 33 10 36 5 3 12 28 16
55 4 28 10 50 14 50 5 0 6 -9 3 -20 -3 -11 0 -20 6 -20 6 0 11 9 11 21 0 11 5
17 10 14 6 -4 10 -3 9 2 -1 4 -1 19 0 33 1 18 4 21 10 12 6 -10 10 -9 14 7 3
12 1 21 -5 21 -5 0 -3 6 5 14 9 9 12 26 9 42 -4 22 -2 26 11 21 9 -3 18 1 21
9 3 9 10 13 15 10 12 -8 21 18 21 60 0 19 5 34 10 34 6 0 10 7 10 16 0 8 4 13
8 10 5 -3 9 9 9 25 0 35 17 50 53 47 39 -4 36 -33 -12 -111 -25 -40 -58 -112
-73 -162 -16 -49 -32 -92 -35 -95 -3 -3 -12 -20 -20 -38 -9 -24 -15 -30 -21
-20 -7 10 -9 10 -9 0 0 -6 -6 -11 -12 -10 -9 2 -13 -8 -12 -29 1 -18 -3 -33
-8 -33 -6 0 -8 9 -5 19 2 10 1 25 -4 32 -6 9 -9 -5 -9 -38 0 -59 12 -74 28
-38 18 38 32 30 32 -19 0 -40 2 -43 23 -39 16 3 30 20 45 51 25 54 30 88 8 60
-7 -10 -16 -15 -19 -11 -4 3 -7 -1 -7 -11 0 -9 -4 -15 -9 -11 -11 6 -9 19 16
92 20 57 33 76 33 47 0 -15 2 -16 9 -5 8 12 11 9 17 -14 4 -16 2 -36 -5 -46
-13 -22 -15 -59 -2 -59 5 0 13 9 16 20 4 11 11 17 17 14 7 -5 9 0 6 14 -4 12
-2 20 3 16 5 -3 9 -13 9 -22 -1 -21 -45 -113 -52 -107 -2 2 -10 -11 -17 -30
-15 -43 -73 -112 -64 -77 4 18 2 21 -11 16 -9 -3 -16 -11 -16 -18 0 -6 -7 -24
-15 -40 -24 -46 -9 -43 48 10 29 27 70 62 90 77 21 16 50 53 67 87 30 59 39
88 19 60 -9 -13 -10 -13 -6 0 2 8 9 14 15 13 15 -4 82 77 82 99 0 10 -6 34
-14 52 -15 37 -58 55 -82 35 -8 -6 -14 -7 -14 -3 0 11 50 86 62 95 15 10 -2
76 -28 115 -13 19 -24 43 -24 54 0 31 -20 73 -47 102 -14 15 -42 51 -62 80
-42 59 -70 71 -120 51 -44 -17 -45 -17 -79 12 -20 17 -28 32 -25 44 3 10 -1
22 -7 26 -9 5 -10 1 -5 -14 9 -29 3 -27 -43 19 -55 55 -82 54 -164 -10z m39
-72 c-3 -7 -5 -2 -5 12 0 14 2 19 5 13 2 -7 2 -19 0 -25z m23 -38 c-8 -5 -22
-10 -30 -10 -13 0 -13 1 0 10 8 5 22 10 30 10 13 0 13 -1 0 -10z m50 0 c0 -5
-5 -10 -11 -10 -5 0 -7 5 -4 10 3 6 8 10 11 10 2 0 4 -4 4 -10z m20 -45 c14
-19 14 -19 -2 -6 -10 7 -18 18 -18 24 0 6 1 8 3 6 1 -2 9 -13 17 -24z m247
-47 c-3 -8 -6 -5 -6 6 -1 11 2 17 5 13 3 -3 4 -12 1 -19z m-17 -14 c0 -9 10
-25 22 -36 23 -20 23 -20 29 4 6 21 7 21 9 -7 l2 -30 8 30 9 30 -2 -30 c-1
-18 -7 -29 -14 -27 -7 1 -13 -5 -13 -14 0 -17 -38 24 -59 63 -14 27 -14 33 -1
33 6 0 10 -7 10 -16z m97 -26 c-3 -7 -5 -2 -5 12 0 14 2 19 5 13 2 -7 2 -19 0
-25z m-99 -24 c35 -56 28 -71 -41 -88 l-29 -7 8 58 c6 51 17 73 34 72 3 0 15
-16 28 -35z m-191 -55 c2 -52 0 -70 -10 -66 -15 5 -10 137 6 137 1 0 3 -32 4
-71z m240 -21 c-3 -8 -6 -5 -6 6 -1 11 2 17 5 13 3 -3 4 -12 1 -19z m-99 -163
c-3 -3 -9 2 -12 12 -6 14 -5 15 5 6 7 -7 10 -15 7 -18z m225 -46 c-19 -36 -29
-47 -31 -35 -2 10 1 23 7 29 6 6 11 17 11 25 0 13 31 44 38 38 1 -2 -10 -27
-25 -57z m-33 -83 c0 -8 -4 -18 -10 -21 -5 -3 -10 3 -10 14 0 12 5 21 10 21 6
0 10 -6 10 -14z m-243 -38 c-3 -8 -6 -5 -6 6 -1 11 2 17 5 13 3 -3 4 -12 1
-19z m250 -20 c-3 -8 -6 -5 -6 6 -1 11 2 17 5 13 3 -3 4 -12 1 -19z m-263 -56
c3 -5 -1 -9 -9 -9 -8 0 -15 4 -15 9 0 4 4 8 9 8 6 0 12 -4 15 -8z"/>
<path d="M970 1922 c0 -5 -18 -29 -41 -53 -22 -24 -51 -61 -62 -83 -12 -21
-28 -50 -36 -65 -9 -16 -16 -62 -18 -123 -2 -86 -1 -96 14 -94 10 2 23 16 30
32 l13 29 -1 -40 c-2 -63 0 -77 10 -71 5 4 12 0 14 -6 3 -8 6 -6 6 5 1 9 5 17
10 17 4 0 8 12 9 28 0 44 2 48 12 32 7 -11 9 -2 5 30 -2 25 -2 37 1 28 3 -10
10 -18 15 -18 11 0 12 4 28 70 5 25 9 33 7 19 -2 -18 4 -30 17 -39 17 -10 19
-10 14 4 -4 9 -2 16 3 16 5 0 12 11 16 25 4 14 8 24 11 21 2 -2 0 -20 -5 -40
-6 -20 -6 -34 -2 -31 13 8 23 70 15 94 -3 12 -10 19 -15 16 -4 -3 -13 2 -20
10 -7 8 -9 15 -4 15 4 0 0 6 -9 13 -13 9 -15 21 -10 50 4 27 9 35 15 25 5 -8
7 3 6 32 -2 25 -7 45 -13 45 -5 0 -16 4 -22 8 -7 5 -13 4 -13 -1z m-103 -224
c-3 -8 -6 -5 -6 6 -1 11 2 17 5 13 3 -3 4 -12 1 -19z m50 -60 c-3 -8 -6 -5 -6
6 -1 11 2 17 5 13 3 -3 4 -12 1 -19z"/>
<path d="M1833 1810 c0 -25 2 -35 4 -22 2 12 2 32 0 45 -2 12 -4 2 -4 -23z"/>
<path d="M380 1824 c0 -6 9 -36 19 -66 11 -31 24 -89 31 -129 6 -41 15 -78 20
-83 5 -5 1 -24 -10 -45 -22 -44 -20 -163 4 -226 8 -22 15 -34 16 -27 0 8 12 3
30 -14 20 -19 25 -31 18 -35 -17 -11 7 -60 33 -66 16 -4 18 -8 7 -14 -9 -6 -6
-9 10 -9 47 0 162 146 131 166 -5 3 -9 -1 -10 -8 -1 -17 -19 47 -26 92 -4 32
-25 82 -56 136 -22 38 -38 53 -60 57 l-22 4 22 8 c19 6 20 10 10 28 -7 12 -18
27 -24 35 -7 7 -13 18 -13 23 0 6 -4 8 -9 5 -5 -4 -12 7 -16 23 -3 16 -13 35
-21 42 -8 6 -14 17 -14 23 0 15 -70 95 -70 80z m130 -247 c0 -2 -10 -12 -22
-23 l-23 -19 19 23 c18 21 26 27 26 19z"/>
<path d="M1843 1715 c0 -22 2 -30 4 -17 2 12 2 30 0 40 -3 9 -5 -1 -4 -23z"/>
<path d="M1851 1654 c0 -11 3 -14 6 -6 3 7 2 16 -1 19 -3 4 -6 -2 -5 -13z"/>
<path d="M2236 1562 c-2 -4 -1 -14 3 -21 6 -10 10 -9 14 3 6 16 -8 32 -17 18z"/>
<path d="M2116 1532 c-3 -6 1 -15 8 -21 8 -7 17 -8 20 -3 3 6 -1 15 -8 21 -8
7 -17 8 -20 3z"/>
<path d="M985 1517 c-4 -9 -3 -23 3 -30 5 -6 15 -30 22 -52 7 -22 24 -62 37
-90 14 -27 31 -68 38 -90 11 -34 13 -36 14 -13 1 14 -15 64 -35 110 -21 45
-45 106 -54 133 -14 38 -20 46 -25 32z"/>
<path d="M2323 1482 c18 -20 23 -37 8 -28 -5 3 -12 -1 -15 -9 -4 -12 -2 -13
13 -6 12 7 22 6 31 -2 10 -10 11 -9 4 3 -5 8 -9 24 -9 34 0 12 -8 20 -24 23
-23 3 -24 2 -8 -15z"/>
<path d="M2630 1425 c0 -8 4 -15 10 -15 5 0 7 7 4 15 -4 8 -8 15 -10 15 -2 0
-4 -7 -4 -15z"/>
<path d="M2602 1405 c0 -16 2 -22 5 -12 2 9 2 23 0 30 -3 6 -5 -1 -5 -18z"/>
<path d="M2270 1309 c0 -7 3 -9 7 -6 3 4 12 2 20 -5 12 -9 33 -4 22 6 -14 12
-49 16 -49 5z"/>
<path d="M2592 1208 c-1 -14 -5 -35 -8 -45 -5 -14 -4 -15 5 -7 7 7 11 26 8 45
-3 28 -4 29 -5 7z"/>
<path d="M1103 1188 c1 -14 -6 -26 -23 -35 -25 -14 -25 -14 9 -11 18 2 31 -1
30 -7 -4 -9 -7 -10 -41 -13 -43 -4 -7 -28 57 -38 6 -1 12 -3 15 -4 20 -7 39
-7 34 1 -3 6 0 16 6 24 10 12 9 15 -8 15 -12 0 -24 5 -27 10 -3 6 0 10 8 10
24 0 77 -22 77 -32 0 -5 -5 -6 -10 -3 -6 4 -18 4 -27 1 -13 -5 -7 -11 22 -27
46 -25 59 -15 38 28 -18 38 -77 78 -110 75 -13 -1 -26 5 -29 13 -9 23 -24 18
-21 -7z"/>
<path d="M645 1134 c-16 -14 -41 -30 -54 -35 -23 -9 -22 -24 2 -24 5 0 12 -6
15 -12 2 -9 -8 -13 -30 -14 -31 0 -32 -1 -10 -11 28 -14 86 7 61 23 -9 5 -10
9 -2 9 7 0 24 16 39 35 34 45 20 63 -21 29z"/>
<path d="M2262 1124 c-7 -8 -8 -14 -3 -14 10 0 25 19 20 25 -2 1 -10 -3 -17
-11z"/>
<path d="M708 1089 c-15 -21 -42 -46 -60 -55 -18 -9 -36 -22 -40 -28 -6 -8 -8
-7 -8 1 0 7 -11 12 -25 11 -29 -3 -31 -10 -9 -33 9 -8 14 -22 11 -29 -8 -20
16 -27 55 -15 41 11 47 11 28 -1 -13 -9 -13 -10 1 -10 8 0 21 6 28 13 11 10
11 8 2 -10 -10 -20 -18 -25 -41 -25 -3 -1 -20 2 -37 5 -28 6 -33 3 -33 -12 0
-19 25 -30 70 -31 l25 -1 -24 -13 c-23 -13 -23 -14 -5 -25 16 -10 16 -12 2 -7
-10 3 -18 1 -18 -4 0 -16 58 -12 85 6 25 16 41 44 25 44 -6 0 -10 -7 -10 -15
0 -8 -4 -16 -10 -16 -25 -4 -30 -4 -30 4 0 4 2 6 4 5 8 -5 48 38 63 67 10 19
12 30 5 33 -6 2 -8 17 -5 38 3 19 2 34 -3 33 -20 -3 -23 2 -15 24 5 13 6 37 3
54 l-7 30 -27 -38z"/>
<path d="M965 1106 c-29 -44 -55 -125 -55 -171 0 -25 3 -45 8 -45 4 0 13 -14
21 -32 11 -24 11 -35 2 -47 -20 -29 -31 -61 -27 -84 3 -12 5 -30 5 -39 1 -10
5 -18 10 -18 5 0 12 8 14 18 3 10 5 6 6 -11 1 -18 5 -26 12 -21 6 3 9 15 6 25
-6 21 9 26 16 7 3 -8 7 -5 11 7 4 11 16 38 27 60 25 52 24 63 -3 39 -12 -10
-18 -13 -14 -6 6 10 1 11 -19 6 -25 -6 -26 -5 -14 13 7 12 19 18 29 16 10 -3
21 0 24 6 11 17 26 13 20 -4 -7 -18 7 -20 25 -2 8 6 -1 -8 -18 -32 -26 -36
-29 -47 -18 -59 10 -13 9 -14 -3 -7 -12 6 -12 5 -3 -5 6 -7 9 -19 6 -26 -4
-10 0 -12 11 -8 10 4 15 13 12 20 -3 8 0 13 6 11 6 -1 13 4 16 12 3 9 0 11 -8
6 -9 -5 -11 -4 -6 4 4 6 11 9 15 6 5 -2 17 5 27 18 19 21 19 21 -1 7 -15 -12
-14 -5 9 35 29 51 58 88 37 48 -6 -13 -9 -23 -7 -23 8 0 36 57 35 72 0 7 -4 4
-9 -7 -8 -19 -9 -19 -9 4 -1 16 -5 21 -16 17 -8 -3 -15 0 -15 6 0 7 -5 6 -15
-2 -21 -17 -19 -1 3 23 9 11 11 17 5 13 -7 -4 -13 -3 -13 2 0 15 -29 10 -35
-7 -5 -13 -7 -14 -15 -1 -12 19 -13 33 -1 26 5 -3 12 2 15 11 4 10 4 14 0 10
-8 -8 -54 31 -54 45 0 5 11 -4 25 -19 15 -18 24 -23 25 -14 0 12 3 11 13 -2 6
-9 23 -18 37 -21 14 -2 32 -7 41 -10 16 -7 72 30 65 43 -3 4 2 8 10 8 11 0 9
-6 -8 -24 -16 -17 -18 -23 -7 -23 8 0 22 13 31 28 17 28 17 29 -7 28 -13 -1
-33 -10 -44 -20 -21 -19 -25 -16 -22 16 2 21 -25 30 -73 24 -32 -5 -38 -2 -48
19 -6 14 -19 25 -29 25 -9 0 -19 7 -23 15 -8 22 -23 18 -41 -9z m35 10 c0 -2
-8 -10 -17 -17 -16 -13 -17 -12 -4 4 13 16 21 21 21 13z m80 -228 c0 -5 5 -6
12 -2 7 5 8 3 4 -5 -5 -7 -11 -10 -14 -7 -3 3 -10 2 -16 -4 -8 -6 -12 -3 -12
9 0 10 6 18 13 18 7 0 13 -4 13 -9z m-113 -70 c-3 -7 -5 -2 -5 12 0 14 2 19 5
13 2 -7 2 -19 0 -25z"/>
<path d="M2688 1063 c-3 -40 -10 -79 -17 -86 -6 -8 -7 -18 -3 -22 4 -5 1 -5
-5 -1 -7 4 -13 2 -13 -4 0 -6 -4 -8 -10 -5 -6 3 -7 -1 -4 -9 3 -9 10 -16 14
-16 4 0 7 -23 6 -51 -2 -44 -6 -55 -40 -86 -25 -24 -34 -39 -27 -46 5 -5 7
-15 5 -22 -3 -7 -1 -16 5 -19 9 -6 23 22 20 40 -6 33 23 42 42 13 5 -8 9 -9 9
-3 0 15 -25 36 -33 27 -4 -3 -7 -4 -7 0 0 3 16 15 35 27 19 12 35 26 35 31 0
6 -4 7 -10 4 -11 -7 -13 3 -9 60 1 22 2 48 3 57 0 9 3 15 7 12 10 -6 16 71 9
124 -6 46 -6 45 -12 -25z"/>
<path d="M1784 1099 c-15 -17 -16 -22 -4 -29 19 -12 34 -1 21 14 -7 9 -7 16 1
24 7 7 10 12 7 12 -3 0 -14 -9 -25 -21z"/>
<path d="M2391 1094 c0 -11 3 -14 6 -6 3 7 2 16 -1 19 -3 4 -6 -2 -5 -13z"/>
<path d="M2240 1092 c0 -5 -9 -19 -20 -32 -23 -26 -26 -42 -7 -34 8 3 13 -3
13 -16 0 -11 -5 -20 -11 -20 -5 0 -3 -5 5 -10 13 -8 13 -13 -2 -40 -10 -17
-12 -28 -6 -24 8 5 9 2 3 -12 -4 -10 -7 -27 -7 -37 0 -10 -4 -15 -10 -11 -7 4
-8 2 -4 -5 4 -6 11 -9 16 -6 4 3 13 -2 20 -10 15 -19 37 -4 51 34 7 16 13 21
20 14 11 -11 1 -46 -11 -38 -5 3 -11 1 -14 -4 -4 -5 -2 -13 4 -16 12 -7 86 62
76 72 -3 4 -13 -2 -21 -13 -14 -18 -15 -18 -6 6 4 14 12 24 16 22 12 -5 54 98
54 128 0 14 -3 18 -6 10 -8 -24 -26 -64 -37 -78 -8 -11 -11 -11 -18 0 -7 9 -8
6 -5 -9 3 -12 2 -22 -2 -21 -3 1 -16 -3 -27 -10 -12 -6 -25 -8 -29 -4 -4 4 -5
-4 -1 -18 3 -14 3 -19 0 -12 -3 6 -10 10 -15 7 -5 -4 -6 2 -2 11 3 10 2 15 -3
12 -5 -3 -10 10 -11 30 -1 26 6 45 29 74 17 22 27 42 24 46 -4 3 -12 0 -17 -8
-8 -12 -9 -11 -7 5 2 12 -4 21 -14 23 -10 2 -18 -1 -18 -6z m0 -212 c6 -11 8
-26 4 -32 -10 -15 -34 19 -27 38 7 19 10 18 23 -6z"/>
<path d="M650 1075 c-7 -9 -8 -15 -2 -15 5 0 12 7 16 15 3 8 4 15 2 15 -2 0
-9 -7 -16 -15z"/>
<path d="M328 1018 c-3 -18 -9 -42 -13 -52 -7 -15 -5 -17 6 -11 12 8 12 6 0
-8 -15 -18 -26 -23 -16 -7 10 16 -1 11 -16 -7 -12 -14 -12 -16 0 -9 9 6 12 5
9 -5 -3 -8 -19 -22 -36 -32 -25 -15 -35 -16 -52 -7 -27 14 -37 6 -19 -16 26
-31 38 -84 30 -135 -4 -26 -4 -46 1 -43 4 3 8 0 8 -5 0 -6 5 -11 11 -11 5 0 7
5 4 10 -3 6 -2 10 4 10 6 0 8 7 5 15 -5 11 -2 13 10 9 20 -8 20 5 0 34 -14 21
-14 23 11 32 14 5 24 14 21 19 -3 5 2 8 12 7 11 -1 25 16 42 51 27 55 40 66
40 32 0 -11 -4 -17 -10 -14 -13 8 -13 -5 0 -25 8 -12 10 -12 10 -1 0 8 3 12 6
8 4 -3 -3 -22 -14 -42 -12 -19 -16 -35 -11 -35 6 0 8 -8 5 -17 -6 -14 -3 -14
15 3 22 19 22 19 11 -2 -10 -19 -8 -21 13 -20 13 1 28 6 32 10 4 5 2 6 -4 2
-7 -4 -13 -2 -13 4 0 6 7 13 15 16 8 4 15 16 14 28 0 21 -1 21 -10 1 -8 -17
-9 -16 -4 6 3 17 -3 36 -20 59 -13 18 -22 36 -20 40 3 5 -1 10 -8 13 -7 3 -22
32 -32 66 -10 34 -21 61 -25 61 -5 0 -10 -15 -12 -32z m-22 -130 c-21 -29 -20
-48 2 -48 15 -1 15 -2 -3 -16 -11 -8 -19 -20 -17 -26 2 -6 -4 -8 -13 -4 -9 3
-22 6 -28 6 -7 0 -6 4 3 10 8 5 10 10 5 10 -15 0 -17 50 -2 50 6 0 23 9 37 20
32 25 35 25 16 -2z"/>
<path d="M2742 1005 c-15 -49 -16 -98 -2 -90 6 3 10 16 10 29 0 12 4 26 8 32
5 5 6 23 2 39 l-6 30 -12 -40z"/>
<path d="M2082 1003 c-6 -16 -14 -41 -17 -58 l-6 -30 14 30 c8 17 12 33 10 38
-2 4 0 7 4 7 5 0 9 9 10 20 2 27 -3 25 -15 -7z"/>
<path d="M2269 1003 c-13 -16 -12 -17 4 -4 16 13 21 21 13 21 -2 0 -10 -8 -17
-17z"/>
<path d="M2968 1008 c5 -5 21 -11 35 -14 21 -3 27 0 27 13 0 14 -2 15 -9 4 -5
-8 -11 -9 -15 -3 -3 6 -15 10 -26 9 -11 -1 -16 -5 -12 -9z"/>
<path d="M2459 923 c-13 -16 -12 -17 4 -4 16 13 21 21 13 21 -2 0 -10 -8 -17
-17z"/>
<path d="M2479 903 c-13 -16 -12 -17 4 -4 16 13 21 21 13 21 -2 0 -10 -8 -17
-17z"/>
<path d="M2632 890 c-7 -11 -8 -20 -3 -20 9 0 24 30 18 36 -1 2 -8 -6 -15 -16z"/>
<path d="M506 845 c-10 -22 -22 -48 -27 -57 -18 -34 -11 -32 36 10 11 10 18 8
34 -10 14 -15 21 -17 20 -7 -1 23 -27 85 -29 69 -1 -8 -5 -4 -9 10 -7 24 -8
24 -25 -15z"/>
<path d="M780 838 c-7 -18 -13 -39 -13 -45 0 -7 -3 -11 -6 -8 -4 2 -26 -5 -48
-16 -43 -21 -86 -27 -118 -15 -17 7 -17 5 4 -13 13 -12 32 -21 43 -21 10 0 32
-7 47 -15 26 -13 30 -13 42 3 13 16 12 16 -6 2 -19 -14 -19 -14 -6 3 8 9 16
15 19 12 3 -2 11 3 19 13 13 15 13 14 3 -6 -18 -37 -3 -38 16 0 15 28 32 138
22 138 -2 0 -10 -15 -18 -32z"/>
<path d="M2145 846 c-9 -13 -13 -31 -9 -41 5 -12 4 -16 -3 -12 -6 4 -14 0 -17
-9 -3 -8 -2 -12 4 -9 5 3 14 -3 19 -14 15 -28 13 -39 -3 -18 -13 16 -14 14 -9
-25 3 -24 12 -52 20 -63 14 -19 15 -17 11 18 -2 20 -2 37 2 37 3 0 6 15 7 33
2 20 -1 27 -6 19 -7 -11 -10 -10 -15 3 -8 22 -8 27 3 21 4 -3 13 6 20 20 7 16
7 23 1 19 -7 -4 -9 3 -6 19 6 32 1 33 -19 2z m13 -41 c-3 -3 -9 2 -12 12 -6
14 -5 15 5 6 7 -7 10 -15 7 -18z"/>
<path d="M355 841 c-3 -12 -16 -31 -28 -41 -11 -11 -16 -20 -11 -20 20 0 63
55 55 69 -7 11 -10 9 -16 -8z"/>
<path d="M2382 810 c-12 -22 -29 -40 -37 -40 -8 0 -15 -6 -15 -14 0 -20 -19
-31 -32 -18 -6 6 -2 17 14 32 l23 22 -22 -11 c-13 -6 -23 -16 -23 -22 0 -6 -4
-8 -8 -5 -5 3 -9 -1 -9 -9 0 -8 3 -14 6 -13 18 2 24 -3 13 -11 -11 -7 -10 -9
3 -14 9 -4 13 -3 10 3 -3 6 -1 11 4 11 6 1 17 2 24 3 6 0 12 8 12 16 1 8 5 14
11 13 5 -1 21 21 36 48 31 58 23 66 -10 9z"/>
<path d="M2707 816 c-3 -8 -2 -18 3 -21 13 -8 20 9 11 24 -6 10 -10 9 -14 -3z"/>
<path d="M2444 789 c-12 -11 -28 -21 -37 -23 -9 -1 -33 -22 -54 -45 l-37 -43
32 16 c17 9 34 20 37 26 4 6 10 8 15 5 5 -3 12 0 16 6 5 8 3 9 -7 4 -8 -4 4 8
26 27 22 20 38 39 34 42 -3 3 -14 -4 -25 -15z"/>
<path d="M2994 778 c-10 -16 4 -22 28 -11 l22 10 -22 5 c-12 4 -25 2 -28 -4z"/>
<path d="M2525 751 c-5 -25 -10 -30 -16 -20 -7 11 -9 10 -9 -4 0 -9 -9 -25
-20 -34 -11 -10 -20 -21 -20 -25 0 -13 -33 -47 -41 -42 -9 5 -49 -49 -49 -66
0 -7 -7 -18 -16 -24 -10 -8 -14 -22 -12 -37 l5 -24 11 25 c9 21 10 18 6 -25
-2 -27 -2 -44 2 -37 3 6 10 10 15 6 5 -3 9 0 9 7 0 6 9 1 21 -12 11 -13 18
-19 15 -12 -4 6 -3 13 1 15 5 1 22 24 39 49 23 34 29 50 22 63 -5 9 -13 14
-19 11 -5 -4 -9 0 -9 9 0 8 -6 17 -12 19 -10 4 -9 8 2 16 22 16 30 13 30 -9 0
-13 5 -18 15 -13 9 3 22 -2 29 -13 13 -17 14 -17 24 2 15 29 13 37 -19 70
l-29 30 21 20 c18 15 21 16 17 3 -5 -12 -1 -15 19 -13 18 2 23 -2 19 -12 -3
-8 -1 -14 4 -14 16 0 11 32 -7 53 -17 20 -17 20 1 13 15 -5 17 -4 8 7 -7 8 -8
18 -4 23 4 4 -1 2 -11 -5 -15 -12 -17 -12 -11 4 5 12 4 16 -3 12 -6 -4 -13 -1
-16 5 -2 7 -7 -2 -12 -21z m-112 -146 c-3 -9 -8 -14 -10 -11 -3 3 -2 9 2 15 9
16 15 13 8 -4z"/>
<path d="M836 736 c-9 -38 -61 -103 -86 -111 -26 -8 -25 -21 0 -28 11 -3 18
-2 15 2 -2 4 10 18 27 31 28 20 30 21 23 4 -4 -10 -8 -28 -9 -39 -1 -19 -46
-74 -46 -57 0 12 -44 10 -52 -2 -11 -16 -9 -28 3 -20 8 4 8 0 0 -15 -14 -25
-23 -28 -14 -4 5 11 3 14 -6 8 -10 -6 -11 -3 -1 15 16 30 11 31 -32 10 -22
-11 -41 -14 -50 -9 -10 7 -9 9 5 9 10 0 16 4 13 9 -4 5 2 7 13 4 10 -3 22 0
25 6 9 14 -57 31 -66 17 -4 -5 -4 -14 -1 -20 3 -5 1 -6 -6 -2 -6 4 -8 13 -5
19 4 7 3 9 -1 4 -5 -4 -17 0 -27 10 -10 9 -21 13 -25 10 -3 -4 -1 -7 6 -7 7 0
10 -4 7 -9 -3 -4 3 -16 14 -26 11 -10 19 -30 19 -44 -1 -25 -2 -25 -9 4 -7 29
-8 29 -10 -10 -1 -33 -3 -37 -11 -20 -8 17 -9 16 -4 -6 3 -18 0 -26 -11 -26
-9 0 -13 6 -10 14 4 9 1 11 -5 7 -7 -4 -9 1 -5 17 3 13 3 18 0 11 -3 -6 -9
-10 -14 -7 -4 3 -14 -3 -21 -12 -10 -12 -10 -14 -1 -9 7 4 12 2 12 -4 0 -6 4
-9 9 -5 5 3 13 -4 16 -16 6 -17 9 -19 16 -8 7 12 9 11 9 -1 1 -12 3 -11 11 3
5 9 19 17 30 17 11 0 18 -4 15 -8 -3 -5 4 -16 15 -25 17 -15 23 -14 21 4 -1 4
9 10 21 13 30 7 37 7 36 0 0 -4 4 -10 9 -13 5 -3 0 -15 -10 -26 -14 -15 -18
-16 -13 -3 4 9 1 19 -5 23 -12 7 -40 -12 -40 -28 0 -5 10 -2 22 9 20 18 20 17
-3 -16 -13 -19 -39 -52 -58 -72 -35 -38 -54 -81 -25 -57 7 6 12 15 9 19 -3 4
2 11 10 14 12 4 13 2 6 -12 -13 -24 -9 -55 8 -68 13 -10 13 -15 -2 -37 -22
-34 -21 -40 3 -27 12 7 17 16 13 27 -5 12 -3 14 7 8 8 -5 11 -3 8 6 -7 20 44
60 60 47 7 -6 10 -18 7 -26 -4 -12 -3 -13 9 -3 8 7 20 10 27 6 8 -5 8 -1 -1
15 -7 13 -8 20 -2 16 6 -3 18 4 27 16 l17 23 -6 -25 c-4 -14 4 -4 18 21 13 25
32 51 40 58 22 19 20 9 -4 -19 -18 -20 -28 -60 -15 -60 8 0 85 109 85 121 0 6
-8 18 -17 26 -11 8 -12 11 -3 7 13 -7 13 -5 1 9 -7 9 -10 17 -5 17 5 0 2 6 -6
13 -8 7 -16 19 -18 27 -2 8 0 12 4 7 4 -4 18 13 31 39 26 52 29 68 10 61 -10
-4 -12 2 -8 21 3 19 6 22 9 10 5 -24 18 -23 18 2 0 11 -3 20 -7 20 -4 0 -10
18 -14 40 -4 22 -13 43 -20 47 -7 5 -15 17 -17 28 -3 16 -5 15 -12 -9z m31
-48 c-3 -8 -6 -5 -6 6 -1 11 2 17 5 13 3 -3 4 -12 1 -19z m-193 -194 c3 -8 2
-12 -4 -9 -6 3 -10 10 -10 16 0 14 7 11 14 -7z m-57 -16 c-3 -8 -6 -5 -6 6 -1
11 2 17 5 13 3 -3 4 -12 1 -19z m114 -5 c-5 -10 -9 -22 -9 -26 0 -5 -3 -11 -6
-14 -7 -7 1 34 9 47 11 17 16 11 6 -7z m51 -37 c5 3 2 -8 -6 -25 -18 -33 -29
-42 -19 -13 6 15 3 15 -18 -3 l-24 -20 16 20 c9 11 19 29 24 40 5 13 9 15 12
7 3 -6 9 -9 15 -6z m51 -16 c-3 -11 -10 -23 -16 -27 -5 -3 -8 -2 -5 3 3 5 8
17 11 27 9 24 16 22 10 -3z m7 -53 c0 -2 -10 -12 -22 -23 l-23 -19 19 23 c18
21 26 27 26 19z"/>
<path d="M2830 725 c-12 -14 -7 -19 13 -16 5 1 6 -3 2 -8 -3 -6 -11 -9 -18 -7
-7 1 -9 1 -4 -1 4 -3 7 -18 7 -35 0 -27 2 -29 17 -17 15 12 16 12 10 -3 -4
-10 -2 -18 5 -18 7 0 6 -6 -2 -17 -7 -10 2 -2 19 17 35 38 40 60 14 55 -10 -2
-18 -4 -18 -5 0 -1 -8 -3 -17 -5 -14 -3 -15 0 -5 23 9 20 9 26 -1 30 -7 2 -10
8 -6 13 9 15 -2 10 -16 -6z"/>
<path d="M2652 686 c-7 -17 -7 -27 1 -35 7 -7 7 -18 -2 -37 -11 -24 -10 -26 3
-14 19 15 21 0 4 -19 -9 -9 -2 -8 25 3 21 8 43 13 50 10 17 -6 38 38 27 56 -6
9 -10 8 -19 -6 -6 -12 -11 -14 -11 -5 0 11 -5 10 -24 -2 -29 -20 -38 -13 -25
20 5 13 9 32 9 41 0 13 -2 13 -15 -4 -13 -16 -14 -16 -9 -1 9 25 -1 21 -14 -7z"/>
<path d="M2263 693 c-7 -2 -13 -13 -13 -24 0 -11 -6 -22 -14 -25 -17 -6 -42
-62 -32 -71 9 -9 19 4 21 25 1 17 45 83 45 68 0 -4 6 -1 14 6 22 20 8 33 -21
21z"/>
<path d="M2167 633 c-3 -5 -2 -24 2 -43 l7 -35 5 32 c6 33 -4 63 -14 46z"/>
<path d="M2334 615 c-10 -14 -25 -23 -32 -20 -7 3 -10 0 -7 -5 3 -6 -3 -10
-14 -10 -25 0 -33 -13 -36 -58 -2 -36 27 -83 42 -69 3 4 1 7 -5 7 -7 0 -12 5
-12 11 0 6 7 9 15 6 8 -4 17 -2 20 4 4 5 10 7 14 5 4 -3 8 4 8 15 2 25 -17 25
-24 -1 -5 -17 -7 -18 -20 -4 -16 16 -14 20 30 69 19 21 51 75 44 75 -2 0 -13
-11 -23 -25z"/>
<path d="M2261 604 c0 -11 3 -14 6 -6 3 7 2 16 -1 19 -3 4 -6 -2 -5 -13z"/>
<path d="M1808 582 c-9 -10 -8 -16 2 -22 12 -7 11 -10 -3 -16 -9 -3 -14 -10
-11 -15 3 -5 13 -5 25 1 14 8 19 7 19 -2 1 -10 4 -9 13 2 7 8 21 22 31 30 18
14 19 13 14 -7 -5 -19 -2 -23 18 -23 13 0 24 4 24 10 0 5 -8 7 -17 4 -17 -5
-17 -4 0 9 14 11 15 16 5 20 -8 4 -7 6 5 6 9 1 17 5 17 11 0 6 -9 6 -24 0 -13
-5 -27 -6 -30 -3 -12 12 -77 8 -88 -5z m42 -18 c0 -8 -4 -12 -10 -9 -5 3 -10
10 -10 16 0 5 5 9 10 9 6 0 10 -7 10 -16z"/>
<path d="M1960 574 c-11 -29 -13 -50 -3 -41 3 4 12 2 20 -4 10 -9 18 -8 32 5
17 16 19 16 26 -1 7 -16 9 -15 15 7 7 28 2 60 -11 60 -4 0 -16 -13 -25 -29
-10 -17 -22 -27 -27 -24 -5 3 -4 9 3 13 14 9 6 40 -10 40 -6 0 -15 -12 -20
-26z"/>
<path d="M1746 574 c-11 -29 -6 -44 14 -44 11 0 20 4 20 10 0 5 -7 6 -17 3
-11 -4 -14 -3 -9 5 4 7 15 12 24 12 13 0 14 2 3 9 -11 7 -11 9 0 14 9 3 5 6
-7 6 -12 1 -25 -6 -28 -15z"/>
<path d="M1717 556 c-5 -15 -6 -31 -3 -34 8 -8 18 25 14 45 -3 13 -6 10 -11
-11z"/>
<path d="M1927 480 c-3 -11 -1 -23 4 -26 5 -3 9 -1 9 5 0 5 3 16 6 25 3 9 2
16 -4 16 -5 0 -12 -9 -15 -20z"/>
<path d="M1140 466 c0 -2 8 -10 18 -17 15 -13 16 -12 3 4 -13 16 -21 21 -21
13z"/>
<path d="M2230 451 c-12 -24 -13 -34 -1 -27 9 6 22 46 15 46 -2 0 -8 -9 -14
-19z"/>
<path d="M2779 443 c-13 -16 -12 -17 4 -4 16 13 21 21 13 21 -2 0 -10 -8 -17
-17z"/>
<path d="M1825 440 c-3 -5 -1 -10 4 -10 6 0 11 5 11 10 0 6 -2 10 -4 10 -3 0
-8 -4 -11 -10z"/>
<path d="M1860 440 c0 -5 5 -10 10 -10 6 0 10 5 10 10 0 6 -4 10 -10 10 -5 0
-10 -4 -10 -10z"/>
<path d="M1890 440 c0 -5 5 -10 10 -10 6 0 10 5 10 10 0 6 -4 10 -10 10 -5 0
-10 -4 -10 -10z"/>
<path d="M1920 429 c0 -5 5 -7 10 -4 6 3 10 8 10 11 0 2 -4 4 -10 4 -5 0 -10
-5 -10 -11z"/>
<path d="M2207 397 c-3 -8 1 -14 8 -14 7 0 11 6 8 14 -3 7 -6 13 -8 13 -2 0
-5 -6 -8 -13z"/>
<path d="M593 393 c-7 -3 -13 -10 -13 -16 0 -6 -7 -19 -17 -29 -15 -17 -15
-18 0 -18 10 0 17 5 17 10 0 6 4 10 10 10 5 0 7 -8 4 -17 -4 -13 0 -11 15 6
12 13 21 27 21 31 0 13 -24 28 -37 23z m22 -12 c3 -5 2 -12 -3 -15 -5 -3 -9 1
-9 9 0 17 3 19 12 6z"/>
<path d="M2827 393 c-4 -3 -7 -11 -7 -17 0 -6 5 -5 12 2 6 6 9 14 7 17 -3 3
-9 2 -12 -2z"/>
<path d="M2143 360 c-9 -16 -21 -30 -25 -30 -12 0 -10 -38 2 -45 6 -3 10 -17
10 -31 0 -13 4 -24 8 -24 4 0 8 20 7 45 0 39 -2 43 -12 28 -9 -11 -13 -13 -13
-4 0 8 11 24 25 37 14 13 25 30 25 39 0 22 -7 19 -27 -15z"/>
<path d="M2205 360 c-3 -5 -1 -10 4 -10 6 0 11 5 11 10 0 6 -2 10 -4 10 -3 0
-8 -4 -11 -10z"/>
<path d="M2070 324 c0 -10 5 -26 10 -34 8 -11 9 -7 4 15 -8 37 -14 45 -14 19z"/>
<path d="M2211 324 c0 -11 3 -14 6 -6 3 7 2 16 -1 19 -3 4 -6 -2 -5 -13z"/>
<path d="M2852 300 c0 -14 2 -19 5 -12 2 6 2 18 0 25 -3 6 -5 1 -5 -13z"/>
<path d="M2629 293 c-13 -16 -12 -17 4 -4 16 13 21 21 13 21 -2 0 -10 -8 -17
-17z"/>
<path d="M3062 265 c0 -16 2 -22 5 -12 2 9 2 23 0 30 -3 6 -5 -1 -5 -18z"/>
<path d="M2876 233 c-6 -14 -5 -15 5 -6 7 7 10 15 7 18 -3 3 -9 -2 -12 -12z"/>
<path d="M1163 207 c0 -7 -3 -25 -7 -40 -5 -22 -3 -27 13 -27 11 0 22 6 25 13
3 8 9 6 17 -8 13 -19 13 -19 19 5 7 30 1 70 -11 70 -5 0 -15 -13 -24 -30 -9
-16 -17 -30 -19 -30 -2 0 -2 14 0 30 2 17 0 30 -5 30 -4 0 -8 -6 -8 -13z"/>
<path d="M1284 209 c-3 -6 -12 -8 -20 -5 -10 4 -14 -4 -14 -32 1 -35 2 -36 15
-18 8 11 15 23 15 28 0 4 4 8 8 8 5 0 8 -10 8 -21 -1 -31 40 -36 48 -6 11 44
6 53 -15 27 -18 -23 -20 -23 -14 -4 6 23 -19 42 -31 23z"/>
<path d="M1464 205 c-4 -8 -4 -21 -1 -29 3 -7 0 -19 -6 -25 -8 -8 -8 -11 1
-11 6 0 14 12 18 28 3 15 7 33 10 40 5 17 -15 15 -22 -3z"/>
<path d="M2065 198 c-9 -38 0 -73 19 -70 9 2 16 -3 16 -10 0 -20 20 14 20 35
0 15 -3 16 -21 7 -19 -10 -20 -10 -10 9 11 20 5 51 -10 51 -5 0 -11 -10 -14
-22z"/>
<path d="M1350 150 c0 -5 4 -10 9 -10 6 0 13 5 16 10 3 6 -1 10 -9 10 -9 0
-16 -4 -16 -10z"/>
<path d="M1390 149 c0 -5 5 -7 10 -4 6 3 10 8 10 11 0 2 -4 4 -10 4 -5 0 -10
-5 -10 -11z"/>
<path d="M1420 149 c0 -5 5 -7 10 -4 6 3 10 8 10 11 0 2 -4 4 -10 4 -5 0 -10
-5 -10 -11z"/>
<path d="M2786 144 c-5 -12 -2 -15 10 -10 8 3 18 6 20 6 3 0 2 5 -1 10 -9 15
-22 12 -29 -6z"/>
<path d="M2730 46 c0 -28 12 -46 31 -46 18 0 19 2 4 30 -16 31 -35 40 -35 16z"/>
</g>
</svg>
