<?xml version="1.0" standalone="no"?>
<!DOCTYPE svg PUBLIC "-//W3C//DTD SVG 20010904//EN"
 "http://www.w3.org/TR/2001/REC-SVG-20010904/DTD/svg10.dtd">
<svg version="1.0" xmlns="http://www.w3.org/2000/svg"
 width="275.000000pt" height="205.000000pt" viewBox="0 0 275.000000 205.000000"
 preserveAspectRatio="xMidYMid meet">
<metadata>
Created by potrace 1.16, written by Peter Selinger 2001-2019
</metadata>
<g transform="translate(0.000000,205.000000) scale(0.100000,-0.100000)"
fill="#000000" stroke="none">
<path d="M0 1912 c0 -97 4 -142 12 -151 10 -11 10 -13 1 -7 -17 10 -17 -26 0
-43 6 -8 7 -11 1 -8 -8 5 -12 -60 -12 -233 -1 -205 1 -240 13 -240 19 0 19
-21 0 -46 -11 -15 -14 -52 -14 -164 l0 -145 24 28 c13 15 27 27 31 27 5 0 -7
-15 -24 -33 l-33 -34 2 -196 c1 -144 4 -195 13 -190 8 5 8 3 0 -8 -8 -9 -12
-87 -13 -242 l-2 -228 101 3 c94 2 105 6 101 31 -1 5 4 7 11 4 7 -2 12 -9 11
-15 -2 -9 5 -9 36 -3 2 1 -2 7 -8 15 -7 8 -26 13 -46 11 -19 -1 -35 3 -35 8 0
6 -3 7 -7 3 -5 -4 -8 -13 -8 -19 0 -7 -11 -11 -25 -9 -14 1 -31 3 -37 4 -22 2
-3 12 24 13 15 0 28 6 31 13 2 7 -2 11 -8 10 -7 -2 -14 4 -15 13 -2 11 3 16
14 14 9 -1 15 -7 14 -13 -1 -6 4 -12 11 -15 8 -3 13 0 12 9 -3 17 -23 39 -37
39 -5 0 -8 4 -6 10 3 13 27 16 24 3 -1 -6 4 -13 12 -16 8 -2 11 0 7 6 -3 6 -2
13 4 17 5 3 10 11 10 16 0 6 -5 7 -12 3 -7 -4 -8 -3 -4 5 5 8 0 10 -17 7 -31
-5 -41 3 -26 21 9 10 15 10 25 2 14 -11 34 -4 34 12 0 6 -4 7 -10 4 -16 -10
-33 5 -21 19 5 6 12 24 15 40 3 15 10 33 15 40 6 7 7 17 3 21 -4 5 -1 5 6 1 7
-4 9 -12 6 -18 -4 -7 -2 -8 4 -4 7 4 12 3 12 -3 0 -13 -17 -23 -23 -14 -2 5
-2 3 -1 -4 2 -7 -1 -15 -7 -18 -5 -4 -6 -11 -3 -17 4 -6 -1 -17 -11 -24 -16
-12 -16 -13 3 -11 12 0 19 3 17 5 -2 3 1 14 7 26 7 11 12 24 13 28 0 4 6 13
13 20 11 11 13 10 10 -7 -1 -11 -9 -25 -16 -30 -17 -13 -25 -62 -12 -70 8 -5
7 -11 0 -20 -7 -8 -8 -20 -4 -26 5 -8 3 -9 -6 -4 -8 5 -11 4 -6 -3 4 -6 13 -9
20 -6 9 3 13 -3 12 -18 -1 -15 -7 -23 -18 -23 -10 0 -18 -4 -18 -9 0 -12 59
-15 66 -4 3 4 10 8 15 8 6 0 8 -4 5 -9 -4 -5 1 -8 11 -7 16 3 20 12 30 72 5
32 -19 66 -32 44 -3 -5 -3 -10 1 -10 3 0 1 -7 -6 -15 -10 -12 -10 -19 -2 -27
9 -9 12 -8 12 6 0 9 5 14 10 11 8 -5 7 -11 -1 -21 -9 -11 -15 -11 -33 -2 -21
12 -27 14 -46 17 -5 0 -10 6 -10 11 0 6 11 8 24 6 30 -5 40 3 25 20 -6 7 -7
19 -3 26 10 16 10 60 0 76 -4 7 -2 19 4 27 14 17 14 17 -22 19 -31 2 -43 10
-33 25 4 8 12 8 25 1 20 -11 50 13 31 24 -5 4 -12 2 -16 -4 -3 -5 -11 -10 -17
-10 -6 0 -3 9 7 20 9 10 22 18 29 17 6 -1 10 4 8 11 -1 8 8 30 20 50 23 38 32
66 18 57 -4 -3 -10 2 -14 10 -3 8 0 17 6 21 7 5 8 2 3 -6 -6 -9 -4 -11 4 -5
22 13 -6 30 -51 30 -26 0 -43 5 -46 14 -3 8 0 11 6 7 11 -7 10 19 -1 30 -12
12 -8 20 13 21 25 2 35 -14 20 -32 -6 -8 -7 -16 -2 -19 16 -9 28 16 26 54 0
19 3 40 8 47 5 7 5 14 -2 18 -5 3 -8 16 -6 29 3 14 -1 23 -9 23 -8 0 -12 -9
-9 -23 5 -26 -13 -41 -28 -26 -8 8 -8 15 1 26 8 10 9 16 1 21 -5 3 -10 11 -10
16 0 6 4 8 9 5 10 -7 9 20 -2 30 -10 11 -8 26 2 19 6 -3 8 5 5 19 -2 14 1 28
6 31 8 5 7 11 -1 21 -9 11 -9 17 1 29 14 17 15 17 -26 19 -18 1 -31 -3 -31
-10 0 -7 7 -9 16 -6 14 5 14 4 2 -12 -11 -13 -16 -14 -22 -4 -6 9 -9 9 -9 1 0
-6 5 -15 10 -18 6 -4 8 -10 5 -15 -3 -4 3 -7 13 -6 9 0 17 -6 17 -14 0 -9 -8
-14 -20 -12 -17 2 -18 1 -5 -10 18 -15 20 -50 3 -55 -8 -3 -10 5 -7 24 3 19 2
24 -5 14 -5 -7 -7 -21 -6 -30 2 -9 4 -20 4 -25 1 -5 8 -2 18 5 14 12 16 12 11
-1 -3 -8 -12 -14 -21 -14 -9 1 -14 -3 -11 -8 3 -5 12 -7 20 -4 7 3 16 1 18 -3
7 -10 -45 -8 -62 2 -7 5 -10 13 -6 18 3 5 10 7 15 4 13 -8 11 9 -2 22 -8 8 -8
13 0 17 6 4 11 12 11 17 0 6 -5 7 -12 3 -7 -4 -8 -3 -4 4 4 7 3 12 -3 12 -5 0
-12 -4 -16 -9 -3 -6 -15 -8 -26 -6 -25 5 -53 -25 -69 -72 -16 -46 -32 -41 -28
9 2 30 7 42 17 40 18 -4 42 18 34 31 -3 5 -1 7 4 4 11 -7 43 60 43 88 0 7 -9
17 -21 20 -19 6 -20 8 -3 26 22 24 50 24 63 0 8 -15 4 -32 -19 -77 -16 -32
-28 -59 -26 -61 1 -1 14 11 28 27 14 17 24 30 22 30 -3 0 1 10 8 23 18 33 19
50 1 69 -9 10 -12 22 -7 30 5 7 9 29 10 48 0 23 4 34 13 32 7 -1 11 3 8 10 -2
7 -9 12 -14 11 -5 -1 -10 4 -10 11 0 16 13 15 44 -2 22 -12 29 -54 8 -45 -26
9 -43 -44 -20 -64 4 -4 5 -2 1 5 -8 13 6 17 18 5 23 -24 31 -7 31 65 0 56 4
77 14 80 9 3 11 0 7 -7 -4 -7 -2 -19 6 -28 11 -14 11 -16 -2 -8 -13 8 -13 7
-1 -8 10 -13 11 -20 2 -31 -9 -11 -9 -16 0 -22 8 -5 9 -3 4 6 -6 9 -4 11 4 6
7 -5 10 -10 7 -13 -3 -3 -1 -14 4 -24 7 -12 7 -20 0 -24 -6 -4 -9 -2 -8 3 3 9
-2 12 -18 12 -4 0 -1 -6 6 -14 6 -8 17 -13 23 -10 7 2 18 -5 25 -17 9 -14 10
-19 2 -14 -7 4 -4 -5 5 -19 10 -15 14 -26 9 -24 -5 2 -9 -2 -9 -7 0 -6 5 -9
11 -7 10 2 23 -16 28 -38 1 -3 7 -15 14 -27 7 -13 10 -23 6 -23 -4 0 0 -8 9
-17 8 -10 15 -20 14 -23 0 -3 6 -16 15 -30 9 -14 18 -52 22 -85 3 -33 8 -71
10 -84 3 -14 1 -30 -5 -37 -7 -8 -6 -14 2 -20 8 -5 10 -3 4 7 -5 9 -5 11 2 4
9 -8 35 -74 38 -95 0 -3 7 -16 14 -29 7 -13 8 -21 3 -17 -6 3 -14 2 -17 -4 -4
-6 -3 -10 2 -9 21 4 33 -2 33 -18 0 -9 7 -24 15 -33 9 -10 18 -28 20 -41 14
-66 17 -87 19 -116 2 -18 7 -38 13 -45 21 -26 42 -76 35 -83 -4 -3 -1 -5 7 -3
8 1 21 -9 28 -24 13 -26 19 -28 74 -28 46 0 59 3 59 15 0 9 9 15 23 14 12 0
16 -3 10 -6 -27 -10 -11 -23 28 -23 l41 0 -21 33 c-11 17 -25 31 -30 30 -14
-3 -42 63 -35 81 3 9 -1 27 -10 41 -16 24 -15 25 4 25 17 0 20 -6 20 -48 0
-53 12 -72 47 -72 19 0 23 -5 23 -33 0 -41 15 -57 56 -57 31 0 32 1 36 58 3
31 9 65 13 75 4 10 3 17 -4 17 -6 0 -11 -11 -11 -25 0 -34 -20 -32 -21 3 -1
15 -3 20 -6 10 -2 -9 0 -33 5 -52 12 -40 -5 -73 -31 -63 -21 8 -31 81 -24 180
3 50 2 75 -4 66 -9 -15 -13 42 -9 140 3 66 -17 66 -42 0 -15 -38 -17 -40 -17
-16 -1 15 -5 27 -11 27 -5 0 -7 -13 -3 -32 12 -55 9 -136 -5 -150 -19 -19 -29
2 -37 80 -4 37 -10 60 -15 53 -11 -18 -19 22 -21 99 -1 52 -3 58 -8 30 -6 -34
-7 -34 -14 -9 -10 38 10 175 30 209 l17 29 40 -32 c59 -46 75 -65 88 -111 6
-23 22 -63 35 -91 l24 -50 -5 52 c-8 85 -38 138 -139 242 -103 107 -129 142
-156 205 -48 110 -75 435 -44 525 22 66 31 75 56 54 29 -27 95 -171 112 -244
31 -140 47 -231 51 -300 6 -76 27 -130 63 -163 29 -26 26 -15 -10 49 -17 30
-26 55 -21 55 5 0 17 15 26 34 16 34 22 61 8 39 -4 -6 -7 39 -7 100 0 62 -4
200 -8 307 -10 228 -6 243 58 248 25 2 53 -3 73 -14 47 -25 47 -57 2 -240 -18
-71 -45 -173 -61 -228 -16 -54 -29 -106 -29 -115 0 -30 18 10 35 81 9 36 23
69 31 72 8 3 14 1 14 -5 0 -11 51 -4 59 9 3 5 37 9 75 10 38 1 78 4 88 7 11 4
31 -4 51 -19 19 -15 47 -26 64 -26 34 0 45 -16 36 -52 -9 -36 -10 -188 -1
-188 14 0 9 -127 -5 -133 -15 -6 -35 14 -29 31 2 6 -1 12 -7 12 -6 0 -28 -27
-48 -61 -21 -33 -53 -79 -72 -101 -61 -70 -68 -94 -55 -192 9 -63 23 -58 23 8
0 30 7 68 15 85 16 30 61 61 88 61 7 0 30 9 51 20 l37 20 0 -21 c0 -27 -66
-88 -102 -96 -15 -3 -34 -16 -43 -29 -22 -33 -19 -41 8 -17 12 11 33 24 46 28
42 13 101 74 101 106 0 32 19 39 39 15 19 -23 -11 -68 -79 -121 -62 -48 -72
-59 -43 -48 13 5 15 2 10 -11 -4 -11 -3 -15 4 -11 6 4 14 18 19 31 9 23 30 34
30 15 0 -11 49 -1 57 12 4 7 -5 8 -28 3 l-34 -6 30 25 c34 27 71 32 100 11 11
-7 31 -17 45 -20 l25 -8 -27 19 c-38 27 -68 63 -68 84 0 20 36 49 62 49 27 0
67 21 70 37 2 9 18 -6 41 -35 42 -55 46 -67 18 -52 -11 5 -32 10 -48 10 -16 0
-39 7 -52 16 -19 14 -25 14 -32 3 -25 -40 9 -91 86 -125 61 -27 62 -27 30 0
-16 14 -38 26 -47 26 -26 0 -58 36 -58 66 0 26 1 26 25 10 13 -9 36 -16 50
-16 66 0 123 -69 112 -136 -3 -19 -2 -36 3 -39 13 -8 23 40 15 72 -8 35 -62
143 -82 165 -9 10 -30 45 -48 80 -18 34 -39 64 -46 67 -8 2 -10 -2 -6 -13 4
-9 1 -16 -6 -16 -7 -1 -5 -6 6 -14 23 -17 22 -23 -9 -51 -47 -44 -52 -36 -49
93 1 64 5 135 10 157 11 56 -3 38 -20 -25 -9 -34 -13 -87 -10 -147 4 -91 3
-94 -20 -105 -18 -8 -28 -8 -38 1 -8 6 -21 9 -29 6 -23 -9 -71 36 -58 55 9 13
11 13 20 0 6 -10 10 -11 10 -2 0 6 5 12 10 12 6 0 10 -11 10 -25 0 -14 5 -25
10 -25 14 0 13 166 -1 231 -9 40 -9 69 1 120 8 48 8 73 1 87 -9 16 -7 21 9 25
24 6 28 47 5 47 -8 0 -15 -7 -15 -15 0 -14 -29 -21 -55 -15 -5 1 -17 3 -25 3
-8 0 -25 12 -37 26 -21 23 -25 24 -56 13 -48 -17 -81 -15 -107 8 -30 26 -37
25 -44 -5 -5 -21 -12 -25 -41 -25 -40 0 -41 2 -19 78 21 74 28 80 50 43 22
-37 35 -35 49 5 15 44 24 54 50 54 21 0 53 -29 69 -63 4 -9 8 -8 13 3 3 8 20
27 36 43 28 26 30 26 43 10 7 -10 14 -14 14 -9 0 14 60 -52 60 -67 0 -8 8 -21
18 -30 14 -13 21 -14 30 -5 23 23 34 -6 17 -46 -15 -35 -15 -40 -1 -55 9 -10
16 -31 17 -47 0 -16 9 -49 20 -74 19 -43 19 -43 13 -10 -3 19 -8 52 -11 73 -5
37 -5 37 30 37 20 0 42 6 49 14 27 27 210 23 228 -5 8 -12 60 -19 60 -8 0 6 5
7 10 4 6 -4 17 -1 25 5 12 10 19 2 39 -43 13 -30 29 -58 36 -62 7 -4 11 -4 9
1 -3 5 -26 54 -52 108 -52 109 -120 304 -131 377 -6 44 -5 48 24 73 25 20 42
26 81 26 67 0 93 -25 82 -78 -20 -94 -3 -372 33 -531 4 -19 2 -22 -12 -17 -15
6 -15 4 -2 -16 8 -12 20 -24 27 -26 16 -5 6 95 -20 188 -13 47 -24 303 -14
326 4 11 8 31 8 47 0 64 40 -2 57 -93 14 -79 20 -298 10 -348 -5 -20 -16 -75
-25 -121 -9 -46 -26 -101 -37 -123 -23 -44 -18 -63 7 -24 35 53 71 226 90 429
14 148 28 208 43 192 4 -4 14 -23 22 -43 8 -20 32 -67 53 -104 21 -36 43 -91
49 -121 10 -49 8 -68 -21 -198 -18 -79 -35 -154 -37 -165 -5 -31 -65 -86 -86
-80 -13 3 -18 -2 -18 -16 0 -10 -19 -40 -42 -64 -51 -54 -54 -58 -95 -151 -17
-40 -28 -75 -23 -78 11 -7 41 35 33 48 -3 5 12 27 33 49 22 23 33 38 26 33
-11 -6 -11 -3 -1 13 7 12 16 19 19 17 11 -7 12 -120 1 -148 -7 -17 -7 -47 0
-89 13 -81 4 -150 -19 -146 -21 4 -32 65 -21 121 4 23 8 59 9 80 0 21 4 36 9
33 5 -3 4 12 -1 34 -6 22 -14 40 -18 40 -15 0 -19 -14 -9 -33 7 -12 8 -44 4
-84 -6 -61 -8 -64 -24 -49 -17 16 -17 14 0 -36 22 -67 36 -217 20 -220 -6 0
-16 -1 -23 -2 -7 -1 -18 19 -24 44 -12 44 -12 43 -11 -40 2 -84 2 -85 -23 -85
-20 0 -25 6 -32 40 -5 22 -5 66 0 97 5 32 5 58 1 58 -4 0 -9 -15 -11 -32 -2
-22 -8 -32 -17 -30 -10 2 -12 -3 -7 -20 18 -58 26 -96 26 -126 0 -35 2 -35 59
-14 9 3 12 1 7 -6 -5 -9 6 -12 39 -12 45 0 46 1 43 28 -2 22 0 26 17 24 11 -2
26 -9 33 -15 10 -8 7 -13 -15 -23 -26 -11 -23 -12 38 -13 46 -1 70 3 78 13 7
8 21 13 33 11 16 -3 17 -1 9 9 -9 11 -7 22 7 47 11 19 25 33 32 31 6 -1 9 2 5
8 -4 6 -1 18 7 27 11 14 11 16 -1 9 -10 -7 -10 -3 2 15 8 13 20 42 27 64 6 22
14 47 17 55 3 8 5 26 4 39 -2 15 1 21 8 16 6 -3 11 -3 10 2 -5 19 15 63 37 84
13 12 24 28 24 35 0 7 5 25 12 41 14 34 18 51 23 83 1 14 4 30 5 35 1 6 5 1
10 -10 7 -15 9 -10 9 24 1 30 -7 58 -24 87 l-25 43 30 16 c26 13 29 19 20 36
-6 10 -9 23 -6 28 3 4 -6 24 -19 44 -31 44 -31 47 -2 47 47 0 49 9 46 141 -3
106 -1 128 14 149 19 27 22 67 8 90 -7 10 -2 19 19 31 40 25 52 51 40 85 l-10
26 62 -4 c79 -6 118 6 117 35 -1 16 -2 18 -6 5 -2 -9 -13 -16 -23 -15 -10 1
-16 6 -12 12 4 5 7 37 7 70 1 33 5 66 9 74 7 10 5 12 -4 6 -9 -5 -11 -4 -6 4
5 7 10 27 13 44 3 18 8 34 12 37 5 3 8 61 8 130 0 69 -1 105 -4 80 -9 -110
-30 -231 -42 -243 -4 -4 -23 6 -42 23 -19 16 -38 30 -42 30 -5 0 -5 5 -2 10 3
6 2 10 -3 10 -12 0 -21 89 -9 93 9 3 13 24 22 120 l7 67 -60 0 -60 0 -13 -52
c-7 -29 -13 -93 -14 -143 -1 -49 -7 -102 -13 -117 -16 -39 -42 -179 -52 -286
-9 -87 -34 -198 -49 -214 -3 -4 -1 66 6 155 23 301 12 511 -30 577 -7 13 -6
26 6 49 l15 31 -28 0 c-16 0 -32 -4 -35 -10 -3 -5 -15 -10 -25 -10 -10 0 -22
-5 -26 -12 -5 -7 -2 -8 7 -3 11 6 12 5 2 -5 -16 -17 -63 2 -63 25 0 11 -10 15
-37 14 -24 -1 -30 -3 -15 -6 18 -4 22 -10 20 -34 -1 -16 -5 -29 -8 -29 -4 0
-12 -11 -20 -24 -7 -14 -25 -30 -39 -36 -33 -13 -89 -10 -103 7 -6 7 -17 13
-24 13 -10 0 -13 8 -10 23 17 85 17 87 -10 87 -23 0 -25 -3 -20 -26 4 -15 2
-51 -4 -80 -9 -43 -15 -54 -31 -54 -11 0 -18 -4 -14 -9 13 -23 -73 -24 -128
-2 -16 6 -33 9 -38 5 -5 -3 -9 29 -9 75 0 54 4 81 13 84 6 3 -1 6 -18 6 l-30
1 3 -93 c3 -83 1 -95 -17 -111 -32 -29 -117 -30 -174 -3 -48 24 -57 42 -57
118 l0 39 48 0 c26 1 65 8 87 16 22 9 54 19 70 24 17 4 -107 8 -290 7 -176 0
-301 -2 -277 -4 l42 -4 0 -85 0 -85 -33 -14 c-18 -7 -52 -15 -75 -18 -33 -3
-40 -1 -31 9 8 10 6 13 -8 13 -37 1 -52 5 -48 11 3 4 -4 18 -15 30 -22 26 -23
27 -24 92 -1 45 0 47 29 51 16 2 -180 5 -437 5 l-468 2 0 -138z m197 68 c28
-121 31 -163 16 -179 -13 -13 -17 -12 -34 10 -10 13 -19 28 -19 33 0 4 -6 6
-14 3 -8 -3 -22 3 -32 14 -10 11 -12 19 -6 19 7 0 12 -4 12 -10 0 -5 5 -10 11
-10 8 0 9 4 0 13 -6 8 -7 18 -3 22 4 5 2 6 -3 2 -6 -3 -17 -2 -25 4 -10 6 -11
9 -2 9 6 0 12 5 12 11 0 5 -6 7 -12 3 -8 -5 -7 0 2 11 9 11 10 16 3 11 -16 -9
-17 8 -3 35 6 11 7 19 1 19 -5 0 -7 9 -4 21 5 17 12 20 47 17 41 -3 41 -3 53
-58z m276 48 c2 -7 -3 -38 -11 -68 -11 -38 -15 -103 -15 -215 1 -146 18 -442
29 -490 2 -11 -9 8 -26 43 -16 34 -32 79 -36 100 -9 56 -84 354 -94 377 -14
32 -40 174 -40 221 l0 44 94 0 c67 0 96 -4 99 -12z m366 -50 c-1 -37 -6 -66
-12 -70 -21 -13 -78 -9 -94 8 -9 8 -22 13 -29 10 -8 -3 -11 0 -7 11 3 8 2 18
-3 22 -11 7 -34 57 -34 71 0 6 39 10 89 10 l90 0 0 -62z m366 42 c17 -11 49
-23 71 -26 51 -9 54 -9 87 0 l28 7 -3 -72 c-3 -69 -5 -73 -33 -89 -48 -26 -76
-30 -107 -14 -15 8 -28 11 -28 8 0 -4 -9 1 -20 11 -11 10 -20 14 -20 9 0 -5
-7 0 -15 10 -19 24 -21 176 -4 176 7 0 26 -9 44 -20z m-511 -178 c39 -26 62
-37 130 -62 28 -10 28 -11 10 -31 -11 -12 -14 -23 -9 -27 6 -4 11 -22 12 -41
1 -19 10 -42 19 -52 12 -13 13 -22 6 -36 -9 -15 -13 -12 -27 25 -10 25 -31 52
-50 65 -31 21 -165 168 -165 181 0 14 35 4 74 -22z m1441 -9 c-10 -16 -29 -43
-44 -61 -14 -19 -34 -46 -44 -60 l-17 -27 6 32 c7 35 -8 63 -33 63 -10 0 -11
-4 -3 -19 5 -11 10 -36 10 -56 0 -22 4 -34 10 -30 6 3 10 -3 10 -14 0 -12 -7
-21 -16 -21 -8 0 -13 4 -9 9 3 5 -7 19 -21 30 -36 28 -105 28 -151 0 -22 -14
-38 -18 -44 -12 -15 15 -19 51 -6 61 20 15 108 42 187 58 42 9 98 28 125 44
28 15 52 28 54 29 2 1 -5 -11 -14 -26z m184 -32 c10 -10 28 -43 38 -72 18 -49
19 -67 12 -189 -4 -74 -13 -216 -19 -315 -17 -296 -26 -352 -81 -514 -27 -80
-56 -168 -64 -195 -7 -26 -20 -55 -28 -65 -8 -9 -12 -22 -10 -28 3 -7 1 -13
-4 -13 -15 0 -13 48 2 54 20 7 20 142 0 221 -14 52 -14 60 -1 74 20 19 33 7
16 -14 -7 -9 -10 -18 -8 -21 8 -7 72 74 96 121 25 50 47 220 39 306 -3 35 -22
114 -43 174 -43 129 -52 221 -34 348 11 81 38 147 60 147 5 0 18 -8 29 -19z
m-2034 -31 c-3 -5 -15 -10 -26 -10 -23 0 -24 -12 -3 -87 8 -32 19 -85 24 -118
8 -56 22 -95 55 -155 12 -21 12 -26 -3 -41 -16 -15 -18 -14 -37 14 -10 17 -21
40 -22 51 -5 29 -19 41 -50 43 l-28 2 25 -13 c14 -8 28 -12 32 -10 5 3 8 0 8
-6 0 -8 -7 -9 -17 -5 -33 13 -47 10 -48 -10 0 -11 9 -23 20 -27 17 -5 15 -6
-7 -7 -35 -1 -50 23 -71 109 -26 106 -27 126 -11 146 9 11 13 13 9 7 -3 -7 -1
-13 6 -13 7 0 4 -6 -6 -14 -19 -13 -18 -14 7 -13 16 1 29 9 31 19 3 10 2 17
-2 16 -18 -2 -22 4 -11 17 10 12 10 15 -3 15 -32 0 16 73 58 90 29 12 77 12
70 0z m275 -15 c34 -36 43 -141 25 -297 -3 -26 -12 -63 -20 -82 -22 -52 -18
-102 14 -207 16 -52 32 -110 35 -129 8 -39 53 -173 68 -205 6 -11 24 -34 40
-52 l30 -31 -17 -59 c-9 -32 -20 -93 -23 -136 -2 -43 -9 -80 -13 -83 -5 -3 -9
7 -9 21 0 15 -5 36 -12 48 -6 12 -19 49 -29 82 -9 33 -28 92 -43 130 -76 202
-145 641 -131 837 7 99 32 188 53 188 5 0 19 -11 32 -25z m2048 -31 c66 -32
84 -64 83 -151 -1 -104 -3 -107 -73 -100 l-59 5 6 -37 c4 -26 2 -41 -7 -49
-17 -13 -58 -12 -58 2 0 27 25 126 32 126 4 0 5 6 2 14 -3 8 -1 17 5 21 6 3
11 19 11 35 0 16 5 32 10 35 6 3 9 27 7 53 -3 41 -6 47 -27 50 -40 5 -52 11
-45 23 9 14 46 5 113 -27z m-1534 -17 c-2 -11 4 -26 14 -34 14 -11 15 -12 1
-7 -26 9 -31 -23 -6 -41 15 -11 18 -18 10 -26 -8 -8 -14 -5 -23 10 -30 57
-125 79 -174 40 -29 -23 -35 -19 -10 5 14 15 13 17 -12 26 -26 10 -26 11 -8
31 29 32 48 36 134 26 71 -9 78 -12 74 -30z m663 -1 c-10 -31 -14 -34 -43 -29
-18 3 -34 0 -38 -6 -4 -6 -12 -11 -17 -11 -6 0 -7 5 -4 10 7 11 -27 14 -38 4
-18 -18 -393 -25 -416 -7 -9 7 -23 13 -32 13 -9 0 -19 10 -21 23 l-4 22 230
-1 c127 0 242 2 256 6 14 4 50 8 81 9 l56 2 -10 -35z m-37 -79 c49 -16 90 -45
90 -65 1 -9 7 -34 14 -54 11 -32 11 -40 -3 -62 -18 -28 -31 -24 -48 15 -7 16
-25 30 -52 39 -37 12 -43 11 -61 -5 -11 -10 -22 -27 -26 -38 -6 -20 -7 -20
-20 -3 -18 26 -46 16 -56 -19 -12 -46 -61 -89 -92 -81 -14 3 -26 12 -26 20 0
17 -56 76 -89 95 -23 12 -27 11 -45 -11 -12 -14 -26 -34 -33 -44 -11 -19 -11
-18 -19 1 -13 32 -46 54 -82 55 -26 0 -36 -6 -50 -30 -19 -34 -25 -36 -42 -16
-9 12 -9 29 2 78 13 58 18 65 60 91 30 19 66 30 109 35 105 13 430 12 469 -1z
m-836 -207 c3 -52 8 -144 12 -203 6 -108 -3 -273 -14 -262 -4 3 -10 32 -13 63
-4 31 -13 95 -20 142 -17 113 -14 249 6 311 10 28 18 49 20 47 2 -2 6 -46 9
-98z m869 18 c9 -11 17 -27 17 -35 0 -8 5 -23 11 -35 10 -19 12 -19 38 13 31
37 46 33 56 -12 4 -18 16 -50 26 -73 25 -54 24 -66 -5 -66 -38 0 -76 18 -98
45 -22 28 -41 33 -31 10 3 -9 2 -15 -3 -13 -5 1 -18 -3 -30 -9 -19 -11 -86 -9
-104 2 -4 2 -17 -7 -28 -20 -38 -44 -96 -21 -97 38 0 33 2 36 62 101 33 36 37
38 49 22 14 -19 34 -14 34 9 0 8 10 23 22 35 25 23 54 19 81 -12z m-1333 -92
c0 -2 3 -11 6 -20 4 -11 1 -16 -11 -16 -17 0 -17 -9 1 -104 5 -29 54 -175 75
-224 20 -45 31 -112 19 -112 -4 0 -27 47 -51 105 -24 58 -50 105 -56 105 -7 0
-13 9 -13 21 0 13 -4 18 -12 13 -8 -5 -9 -2 -5 10 4 9 3 14 -2 11 -5 -3 -13 0
-17 6 -3 6 -1 15 5 19 10 5 9 10 -1 21 -7 8 -13 33 -13 56 0 22 -3 39 -7 36
-5 -2 -8 5 -8 17 0 12 13 28 33 40 29 18 57 26 57 16z m2018 -516 c26 -25 28
-36 5 -48 -15 -9 -14 -12 5 -37 12 -15 19 -32 16 -37 -4 -5 -6 -28 -6 -50 1
-35 -2 -39 -19 -35 -10 3 -22 1 -25 -4 -3 -5 0 -9 5 -9 14 0 14 -33 0 -47 -6
-6 -18 -9 -26 -6 -14 6 -56 -25 -48 -36 5 -9 -13 -37 -19 -30 -6 6 26 109 41
132 11 17 11 29 1 50 -6 11 -5 17 2 17 7 0 9 8 5 21 -5 15 -4 19 4 15 6 -4 11
0 12 11 1 10 3 33 5 51 4 34 -11 43 -34 20 -9 -9 -12 -7 -12 8 0 12 3 24 7 27
13 14 60 6 81 -13z m-2154 -300 c15 -5 26 -17 26 -27 0 -20 -36 -78 -86 -136
-17 -21 -35 -53 -38 -70 -3 -18 -16 -45 -27 -62 l-21 -30 7 30 c4 17 10 54 14
83 4 29 13 58 19 64 9 9 12 9 12 0 0 -25 18 -10 43 37 27 48 34 81 19 81 -4 0
-45 -34 -90 -75 -45 -41 -85 -75 -87 -75 -3 0 -5 11 -5 25 0 18 8 28 32 39 18
8 60 40 93 70 33 30 61 55 62 56 1 0 13 -4 27 -10z"/>
<path d="M1179 1192 c-31 -14 -64 -48 -74 -77 -9 -26 -16 -30 -47 -30 -20 0
-34 -4 -30 -9 3 -5 -2 -6 -12 -3 -9 4 -15 3 -12 -2 3 -5 -1 -12 -9 -15 -12 -4
-15 -17 -11 -56 2 -27 0 -52 -4 -55 -5 -3 -7 -12 -4 -20 4 -9 -1 -18 -11 -21
-11 -5 -13 -9 -5 -14 6 -4 12 -19 14 -34 3 -30 69 -106 92 -106 8 0 14 -4 14
-10 0 -5 6 -7 14 -4 7 3 16 -1 19 -9 6 -16 77 -20 77 -5 0 4 23 31 50 59 53
54 65 81 58 129 -3 17 -1 30 4 30 5 0 7 4 3 9 -3 5 6 22 19 36 32 35 17 57
-29 44 -37 -11 -141 -12 -131 -1 4 4 33 8 64 9 32 1 71 4 88 8 l32 7 -14 51
c-7 27 -19 54 -26 59 -54 36 -93 45 -129 30z m-81 -199 c18 -17 33 -17 26 1
-5 13 -2 13 19 3 14 -6 23 -15 21 -18 -7 -12 28 -20 41 -9 9 8 15 8 20 0 3 -5
18 -10 32 -10 23 0 25 -3 21 -30 -3 -17 -1 -33 3 -36 20 -12 -41 -83 -73 -85
-10 -1 -22 -3 -28 -4 -5 -1 -17 -3 -25 -4 -8 0 -15 -8 -15 -16 0 -8 -4 -15 -9
-15 -14 0 -31 26 -24 36 4 5 1 3 -7 -3 -22 -20 -33 -15 -27 10 6 21 6 21 -8 3
-8 -11 -16 -16 -16 -10 -1 5 -2 14 -4 19 -1 6 -3 16 -3 23 -1 6 -9 12 -18 12
-9 0 -14 6 -11 13 2 6 0 20 -5 30 -5 9 -5 17 0 17 5 0 8 10 7 21 -2 24 32 64
55 65 8 0 21 -5 28 -13z"/>
<path d="M1657 1188 c-27 -10 -67 -71 -67 -103 0 -8 -7 -15 -15 -15 -8 0 -12
-6 -9 -14 3 -8 12 -12 20 -9 8 3 20 1 27 -4 6 -6 47 -10 90 -9 58 1 74 -2 62
-10 -18 -14 -131 -10 -149 5 -7 6 -21 8 -30 5 -13 -5 -14 -9 -4 -21 7 -8 13
-22 14 -30 1 -8 6 -22 9 -31 4 -9 8 -42 9 -72 1 -44 7 -62 30 -92 15 -21 35
-38 42 -38 8 0 14 -4 14 -10 0 -5 6 -10 14 -10 8 0 16 -5 18 -11 2 -5 10 -11
18 -12 8 -2 20 -6 26 -9 14 -9 86 11 79 22 -8 13 6 41 17 34 16 -10 44 32 68
105 20 59 22 73 11 93 -25 47 -41 62 -51 52 -7 -7 -4 -19 10 -37 14 -17 19
-36 16 -54 -2 -15 -5 -37 -5 -48 -1 -12 -22 -38 -48 -60 -45 -38 -86 -51 -108
-35 -5 4 -26 13 -46 19 -57 18 -82 53 -89 119 l-5 57 58 2 c62 2 157 29 157
44 0 6 6 7 13 3 8 -5 7 -2 -2 9 -19 23 -7 33 24 19 14 -6 25 -7 25 -2 0 13
-38 23 -66 16 -22 -6 -24 -4 -18 19 4 15 2 25 -5 25 -6 0 -8 7 -4 15 6 18 -21
51 -59 71 -31 16 -52 17 -91 2z"/>
</g>
</svg>
