<?xml version="1.0" standalone="no"?>
<!DOCTYPE svg PUBLIC "-//W3C//DTD SVG 20010904//EN"
 "http://www.w3.org/TR/2001/REC-SVG-20010904/DTD/svg10.dtd">
<svg version="1.0" xmlns="http://www.w3.org/2000/svg"
 width="313.000000pt" height="368.000000pt" viewBox="0 0 313.000000 368.000000"
 preserveAspectRatio="xMidYMid meet">
<metadata>
Created by potrace 1.16, written by Peter Selinger 2001-2019
</metadata>
<g transform="translate(0.000000,368.000000) scale(0.100000,-0.100000)"
fill="#000000" stroke="none">
<path d="M397 3661 c2 -10 -2 -24 -10 -32 -7 -8 -18 -28 -24 -44 -5 -17 -16
-30 -24 -31 -49 -3 -51 -4 -45 -20 4 -11 -7 -31 -32 -58 -21 -23 -49 -63 -62
-89 -13 -26 -29 -47 -37 -47 -15 0 -18 -17 -4 -22 12 -4 2 -58 -11 -58 -5 0
-7 9 -3 19 4 14 0 21 -14 26 -10 3 -22 12 -25 20 -7 19 -46 20 -46 1 0 -19
-25 -27 -39 -13 -16 16 -14 25 8 29 18 3 18 4 -4 32 l-22 28 -2 -76 c-1 -72 0
-76 21 -76 17 0 19 -3 10 -12 -7 -7 -12 -20 -12 -30 0 -10 -5 -18 -10 -18 -13
0 -1 -52 13 -62 7 -4 4 -16 -6 -32 -15 -22 -17 -60 -17 -302 0 -242 2 -275 15
-264 8 6 20 10 27 7 8 -3 2 -10 -14 -17 -33 -15 -39 -45 -8 -37 11 3 20 1 20
-4 0 -8 -15 -13 -33 -10 -4 0 -7 -6 -7 -14 0 -8 8 -15 18 -15 16 -1 16 -1 0
-14 -28 -21 -23 -38 7 -24 19 9 23 16 19 35 -4 16 -2 23 9 23 21 0 29 27 9 35
-13 5 -14 8 -3 15 8 4 20 6 28 3 8 -3 22 2 32 11 18 17 19 15 25 -41 4 -49 3
-141 -2 -179 -1 -6 -13 -16 -27 -22 -14 -6 -25 -20 -25 -29 0 -11 3 -14 8 -7
4 6 18 14 32 18 23 6 23 6 7 -7 -21 -17 -22 -28 -2 -21 21 8 19 -1 -7 -29 -31
-32 -78 -62 -78 -49 0 6 -9 10 -20 9 -31 -2 -24 -15 12 -22 l32 -8 -37 -14
c-20 -8 -37 -19 -37 -24 0 -13 24 -11 39 3 11 11 13 10 8 -4 -8 -24 4 -23 32
3 12 12 25 19 27 16 8 -8 -61 -57 -79 -57 -9 0 -19 -4 -22 -10 -3 -5 -1 -10 6
-10 7 0 8 -4 2 -12 -5 -7 -10 -44 -12 -81 -3 -68 -2 -68 17 -50 10 10 17 21
15 25 -2 4 5 16 16 27 14 14 22 16 30 8 8 -8 11 -8 11 1 0 6 -8 16 -17 21 -15
9 -16 12 -3 20 8 5 18 7 24 4 5 -4 6 -1 1 6 -4 7 3 23 16 38 13 15 18 23 12
19 -20 -11 -15 8 8 38 11 14 18 30 14 35 -3 5 -1 12 5 16 5 3 10 0 10 -7 2
-29 10 -305 14 -468 3 -96 8 -198 11 -226 6 -48 4 -53 -22 -73 -15 -12 -35
-20 -44 -18 -15 4 -16 1 -8 -20 15 -39 11 -50 -21 -65 -34 -15 -45 -34 -25
-42 7 -2 21 6 30 20 16 25 80 62 90 52 12 -11 -8 -34 -51 -61 -25 -15 -49 -27
-53 -27 -4 0 -16 -9 -26 -20 -10 -11 -24 -20 -32 -20 -17 0 -17 -40 0 -40 6 0
4 -5 -5 -11 -10 -5 -18 -18 -18 -27 0 -10 3 -13 8 -7 7 10 65 54 91 70 11 6
13 4 8 -10 -5 -11 5 -7 28 14 41 36 61 41 46 12 -9 -16 -91 -68 -91 -57 0 2
-14 -9 -31 -25 -17 -16 -36 -27 -42 -26 -6 1 -13 -8 -15 -21 l-4 -24 21 21
c24 24 37 26 47 9 4 -7 -8 -24 -32 -44 -34 -29 -32 -43 3 -21 24 15 13 -14
-14 -38 l-28 -24 24 -1 24 0 -21 -19 c-12 -10 -22 -25 -22 -34 0 -13 8 -11 48
8 26 12 55 21 65 19 9 -1 17 1 17 5 0 18 -14 19 -46 6 -19 -8 -34 -11 -34 -7
0 13 67 61 94 68 14 3 26 10 26 16 0 10 -23 5 -80 -19 -19 -8 -30 -10 -25 -5
32 27 83 60 103 66 12 4 22 12 22 17 0 11 -7 11 -48 0 -17 -5 -32 -8 -32 -6 0
2 20 16 45 32 25 15 45 31 45 36 0 10 -1 10 -48 -13 -50 -24 -59 -25 -41 -4
16 19 89 67 94 62 7 -7 9 -164 2 -175 -4 -6 -3 -13 3 -15 5 -1 12 -41 15 -88
2 -47 7 -97 10 -113 4 -18 1 -27 -7 -27 -7 0 -22 -8 -33 -16 -19 -15 -18 -16
13 -9 42 9 40 1 -8 -31 -22 -15 -38 -29 -36 -31 2 -3 16 3 30 12 14 10 26 14
26 11 0 -12 -55 -56 -65 -52 -5 1 -18 -6 -27 -16 -16 -16 -16 -18 -2 -18 8 0
22 7 30 15 9 8 20 15 25 15 19 0 -48 -56 -94 -80 -30 -15 -44 -27 -38 -33 6
-6 18 -3 32 7 13 9 32 16 43 16 20 0 20 0 0 -18 -10 -9 -39 -27 -64 -40 -38
-19 -40 -22 -15 -17 l30 5 -30 -25 c-17 -14 -33 -25 -37 -25 -5 0 -8 -9 -8
-21 0 -18 4 -20 38 -15 64 9 107 10 120 2 18 -11 5 -25 -17 -19 -28 7 -61 -14
-54 -35 5 -14 3 -13 -10 3 -12 16 -18 17 -30 7 -8 -7 -22 -10 -31 -6 -9 3 -16
1 -16 -5 0 -6 7 -11 15 -11 8 0 15 -4 15 -10 0 -5 4 -10 10 -10 5 0 9 3 9 8
-3 19 2 22 17 8 20 -20 34 -20 34 -1 0 18 11 19 29 2 8 -6 11 -7 8 -2 -3 6 -1
17 4 25 8 13 10 13 19 0 6 -10 10 -11 10 -2 0 27 17 9 44 -47 21 -45 32 -58
45 -54 9 3 3 -5 -14 -17 -16 -12 -22 -20 -13 -16 10 3 23 0 30 -7 14 -14 128
-11 128 3 0 4 10 6 21 3 15 -4 27 1 40 18 10 13 21 20 26 15 4 -5 2 -11 -5
-13 -15 -6 -6 -23 13 -23 17 0 41 40 29 49 -5 3 -15 17 -23 31 -13 23 -13 24
3 11 19 -16 35 -6 18 11 -21 21 -13 26 36 21 50 -6 71 -16 53 -27 -6 -4 -11
-3 -11 2 0 14 -37 3 -52 -16 -11 -13 -10 -14 9 -3 20 10 22 9 16 -6 -3 -10 -3
-15 1 -11 5 4 18 -2 29 -13 15 -14 29 -18 53 -13 45 8 101 -23 158 -91 56 -65
154 -135 190 -135 15 0 33 11 45 27 24 29 42 23 23 -7 -19 -31 1 -23 21 8 l18
27 -4 -28 c-4 -23 -2 -25 11 -15 12 11 16 10 20 0 3 -10 7 -10 18 -1 11 9 14
8 14 -2 0 -10 3 -10 12 -1 15 15 42 16 32 0 -4 -7 -3 -8 4 -4 7 4 12 14 12 22
0 12 -7 14 -30 9 -16 -4 -30 -3 -30 2 0 15 -93 68 -98 55 -4 -13 -48 -7 -68 9
-6 5 -13 6 -16 4 -3 -3 -3 5 -1 19 3 15 10 23 18 20 7 -3 16 -1 19 5 8 12 -26
23 -48 15 -9 -3 -16 -1 -16 5 0 14 51 35 59 23 10 -14 49 -12 62 4 15 18 30
18 23 -1 -8 -19 7 -19 53 0 20 8 38 13 41 10 3 -3 -1 -5 -8 -5 -11 0 -11 -3
-2 -12 8 -8 15 -8 27 2 8 7 15 8 15 4 0 -11 124 -11 160 0 23 6 23 6 8 -7 -16
-12 -10 -14 47 -13 36 1 65 -1 65 -4 0 -3 27 -5 59 -5 33 1 57 -3 55 -7 -8
-12 4 -10 36 7 17 9 30 11 30 6 0 -5 -6 -12 -12 -15 -7 -3 -4 -4 8 -1 12 3 32
1 45 -4 l24 -9 -27 -7 c-16 -4 -28 -11 -28 -16 0 -5 -7 -6 -15 -3 -11 5 -13 2
-9 -10 3 -9 11 -16 18 -16 6 0 4 -5 -4 -10 -11 -7 -19 -5 -31 9 -10 13 -20 16
-29 11 -8 -5 -18 -6 -24 -3 -9 6 -128 5 -134 -1 -1 -2 0 -11 4 -20 8 -21 30
-21 43 1 9 17 10 17 17 0 9 -24 7 -25 -54 -33 -47 -6 -52 -5 -52 12 0 16 2 16
10 4 5 -8 12 -11 15 -8 16 15 -9 30 -44 25 -20 -2 -46 0 -58 4 -36 13 -79 0
-92 -27 -24 -53 -19 -57 72 -51 45 3 132 13 192 21 298 42 385 43 385 5 0 -10
-4 -19 -10 -19 -5 0 -10 6 -10 13 0 9 -11 12 -34 9 -54 -6 -33 -27 29 -29 53
-2 55 -2 44 19 -10 19 -9 20 7 13 37 -14 164 -37 179 -31 8 3 15 11 15 18 0 9
-3 9 -12 0 -17 -17 -34 -15 -35 6 -1 9 -4 27 -8 40 -6 18 -4 22 14 22 12 0 33
-7 47 -16 28 -19 105 -37 149 -36 23 1 26 -1 15 -8 -12 -8 -11 -10 8 -10 12 0
22 -5 22 -10 0 -7 6 -7 19 0 25 13 34 13 26 0 -4 -6 22 -10 69 -10 51 0 76 4
76 12 0 6 -3 9 -6 5 -9 -9 -62 13 -68 29 -11 29 12 155 31 169 10 8 13 15 7
15 -7 0 -9 11 -6 25 6 31 -15 33 -28 2 -6 -12 -16 -62 -23 -112 -12 -88 -13
-90 -39 -90 -14 1 -24 -3 -21 -8 3 -5 -4 -4 -16 2 -12 7 -25 10 -30 7 -16 -10
-19 33 -7 101 13 77 22 97 42 89 7 -3 16 -1 19 4 4 6 1 10 -5 10 -6 0 -9 4 -6
8 2 4 -4 13 -14 20 -25 15 -58 -11 -93 -77 -27 -48 -27 -51 -11 -76 9 -14 20
-25 25 -25 19 0 7 -16 -19 -26 -47 -18 -89 -6 -103 27 -6 16 -9 32 -6 36 4 3
0 11 -8 17 -13 10 -12 20 8 79 13 38 28 72 34 75 12 8 14 43 1 36 -4 -3 -8 -1
-8 5 0 5 6 11 13 14 9 3 9 8 1 17 -9 9 -19 -8 -44 -72 -31 -79 -39 -143 -24
-190 2 -9 0 -19 -6 -23 -5 -3 -10 -1 -10 5 0 6 -4 9 -9 6 -17 -11 -56 12 -71
40 -8 16 -20 36 -27 44 -13 17 -1 96 18 115 5 5 9 17 9 26 0 10 11 30 23 46
19 23 22 34 16 58 -7 25 -4 34 19 57 39 38 136 90 220 118 41 14 71 29 70 36
-2 6 15 32 38 56 39 43 43 45 98 47 128 3 265 -40 251 -78 -4 -9 0 -11 11 -7
12 4 15 2 10 -9 -3 -8 -1 -15 4 -15 5 0 7 -7 4 -15 -4 -8 -1 -15 6 -15 7 0 10
-7 6 -15 -3 -9 1 -18 9 -22 11 -4 13 -9 5 -18 -8 -9 -7 -14 2 -17 10 -4 10 -8
2 -19 -12 -15 -15 -49 -4 -49 3 0 12 6 20 13 24 20 -33 -46 -60 -70 -30 -28
-44 -25 -48 10 -2 14 -9 30 -16 36 -11 9 -12 -5 -9 -72 6 -99 -3 -121 -71
-185 -25 -24 -46 -46 -47 -50 -6 -40 -5 -90 3 -105 7 -13 4 -19 -16 -26 -13
-6 -27 -15 -31 -20 -8 -14 37 -15 51 -1 7 7 20 7 40 0 34 -12 230 -8 258 4 13
7 17 6 13 -1 -5 -8 32 -11 118 -12 l125 -2 0 43 c-1 34 -3 39 -11 25 -15 -25
-29 -21 -30 11 -1 27 -1 27 -8 3 -10 -37 -31 -38 -31 -2 0 16 -5 33 -10 36 -7
4 -9 -2 -4 -19 4 -16 1 -33 -7 -43 -10 -12 -10 -15 -1 -9 6 4 12 2 12 -3 0 -6
-4 -11 -9 -11 -11 0 -32 25 -30 36 1 5 -2 19 -6 31 -6 20 -9 21 -23 7 -12 -13
-16 -13 -23 -2 -6 9 -9 4 -9 -14 0 -16 -4 -28 -10 -28 -5 0 -10 11 -10 24 0
31 -17 43 -22 16 -4 -26 -22 -28 -26 -3 -2 10 -8 22 -12 27 -10 10 -6 -36 4
-53 4 -6 0 -14 -9 -17 -22 -9 -30 2 -15 21 10 12 10 15 -3 15 -10 0 -14 6 -11
15 4 8 1 15 -5 15 -6 0 -11 -7 -11 -15 0 -8 -4 -15 -10 -15 -5 0 -10 11 -10
25 0 31 -15 33 -24 3 -6 -21 -7 -22 -20 -6 -10 13 -15 15 -24 6 -9 -9 -15 -7
-27 8 -8 10 -15 14 -15 9 0 -6 -10 -16 -21 -23 -21 -13 -21 -12 -14 15 l7 28
-24 -23 c-32 -29 -38 -28 -38 7 0 21 9 36 34 54 18 15 36 23 40 20 3 -3 19 -6
36 -5 20 0 28 -3 24 -10 -5 -8 -1 -9 9 -5 46 19 53 19 33 3 -25 -20 -14 -20
26 0 28 15 30 15 25 0 -7 -17 8 -22 18 -6 3 6 11 10 16 10 6 0 7 -4 4 -10 -3
-5 -2 -10 4 -10 5 0 13 5 16 10 3 6 11 10 17 10 6 0 5 -7 -3 -17 -15 -18 -17
-18 35 3 14 5 17 4 11 -5 -6 -10 -2 -11 15 -6 15 5 20 4 16 -4 -4 -6 -3 -11 3
-11 5 0 13 4 16 10 3 5 13 10 22 10 12 0 13 -3 4 -14 -10 -12 -6 -13 26 -5 49
11 66 11 58 0 -3 -6 4 -9 15 -8 12 1 20 8 20 19 0 12 -11 18 -42 22 -195 25
-298 36 -348 36 -64 0 -75 6 -56 32 11 15 21 15 115 3 56 -8 108 -19 116 -25
9 -7 34 -9 72 -5 41 5 71 2 101 -9 42 -15 58 -6 25 14 -17 10 -17 10 0 20 11
7 17 23 17 46 0 30 -5 36 -37 51 -50 23 -50 23 -33 33 9 6 10 10 3 10 -6 0
-14 13 -18 29 -9 40 -26 52 -63 45 -33 -7 -67 -34 -41 -34 8 1 25 7 39 15 32
18 40 18 40 0 0 -8 -8 -15 -17 -15 -10 0 -25 -5 -33 -11 -11 -7 -4 -8 24 -3
47 8 42 -11 -5 -21 -37 -8 -73 20 -96 74 -8 19 -25 49 -38 65 -13 17 -33 54
-46 81 -37 84 -64 112 -126 135 -44 16 -77 21 -133 20 -41 -1 -86 -3 -100 -3
-17 0 -46 -22 -92 -69 -60 -61 -98 -84 -98 -58 0 16 24 64 42 84 10 11 18 23
18 27 0 4 28 21 63 39 34 18 72 42 84 53 19 17 27 19 48 9 14 -7 65 -12 114
-12 86 0 87 0 98 -27 l11 -28 1 25 c1 46 -11 53 -85 48 -42 -3 -91 1 -123 9
-53 13 -55 13 -80 -10 -37 -35 -71 -51 -72 -35 0 7 -4 3 -9 -10 -5 -12 -14
-22 -20 -22 -15 0 -12 9 10 37 11 14 20 20 20 13 0 -7 13 -2 33 14 42 34 108
64 180 83 50 13 65 13 105 2 26 -8 50 -14 53 -14 20 -1 109 -51 109 -61 0 -7
4 -14 8 -16 5 -1 29 -32 53 -68 24 -36 67 -93 96 -128 29 -35 53 -67 53 -72 0
-5 13 -16 30 -25 l30 -16 0 59 0 59 -31 -3 c-28 -3 -29 -3 -14 13 15 15 15 17
1 25 -9 5 -21 6 -26 3 -6 -3 -10 -1 -10 4 0 6 5 11 11 11 5 0 7 5 4 10 -4 6
-11 8 -16 5 -5 -4 -9 -1 -9 5 0 7 -6 10 -14 7 -9 -4 -12 0 -9 13 5 19 33 17
33 -2 0 -5 5 -6 10 -3 6 4 8 10 5 15 -3 5 3 13 12 19 16 9 16 10 1 11 -9 0
-19 -6 -21 -12 -5 -13 -21 1 -30 27 -7 17 -20 -3 -19 -30 0 -14 -3 -25 -5 -25
-8 0 -42 44 -43 55 0 6 -9 16 -20 23 -12 7 -17 18 -13 29 5 12 2 15 -9 10 -11
-4 -24 5 -39 27 -26 39 -64 57 -118 58 -25 0 -46 7 -56 18 -10 11 -24 16 -33
13 -10 -4 -13 -2 -8 5 4 7 3 12 -3 12 -5 0 -13 -5 -16 -10 -3 -6 -11 -10 -16
-10 -6 0 -7 5 -4 10 3 6 2 10 -4 10 -5 0 -17 3 -27 7 -12 5 -15 3 -9 -6 4 -8
2 -17 -6 -22 -21 -13 -35 -11 -21 3 16 16 15 33 -1 19 -8 -6 -18 -7 -22 -3 -5
4 -5 -1 -2 -10 4 -12 1 -18 -8 -18 -8 0 -15 -4 -15 -10 0 -5 -7 -10 -15 -10
-9 0 -29 -10 -44 -21 -32 -23 -61 -18 -40 7 7 8 7 14 1 14 -5 0 -15 -7 -22
-15 -10 -12 -10 -15 0 -15 24 0 -10 -29 -69 -59 -43 -22 -69 -28 -104 -26 -26
1 -50 5 -54 8 -3 4 -1 7 5 7 15 0 16 36 2 45 -5 3 -10 -3 -10 -14 0 -12 -7
-21 -15 -21 -8 0 -15 4 -15 9 0 11 -80 41 -129 48 -22 3 -36 0 -42 -9 -7 -11
-11 -10 -25 4 -21 21 -9 45 14 26 13 -11 15 -11 9 4 -3 9 -1 19 6 21 7 2 0 4
-15 4 -34 1 -59 19 -51 39 7 19 33 18 33 -2 0 -12 7 -15 23 -12 13 2 29 -2 36
-9 7 -7 17 -11 22 -7 5 3 16 0 24 -6 8 -6 18 -9 23 -6 6 3 15 -1 22 -9 7 -8
16 -12 21 -9 5 3 12 -2 15 -11 4 -8 11 -14 18 -13 6 1 22 -4 36 -11 25 -14 25
-14 7 6 -17 20 -17 20 38 20 33 0 55 -4 55 -11 0 -8 2 -8 8 0 11 18 135 75
149 70 7 -3 13 -1 13 4 0 13 40 24 79 21 24 -2 31 1 26 10 -5 7 -4 10 2 6 5
-4 20 3 32 14 13 13 30 19 42 16 10 -3 16 -1 13 4 -10 17 27 22 68 10 31 -10
38 -16 33 -29 -5 -13 -4 -14 6 -5 13 13 54 -1 44 -16 -3 -5 2 -11 10 -15 8 -3
15 -1 15 5 0 6 5 7 10 4 6 -4 8 -16 4 -28 -6 -19 -5 -20 8 -9 13 10 24 6 64
-23 27 -20 57 -38 66 -41 9 -3 14 -12 12 -19 -4 -9 2 -11 19 -8 13 3 30 -2 38
-10 8 -8 29 -22 47 -31 18 -9 32 -21 32 -26 0 -6 5 -10 10 -10 6 0 10 17 9 38
0 20 -3 31 -6 25 -7 -19 -20 -16 -26 7 -3 11 0 20 6 20 6 0 7 3 3 7 -4 4 -15
8 -23 8 -9 0 -18 6 -21 14 -3 9 0 11 8 6 8 -5 11 -2 8 10 -1 10 -9 20 -17 23
-8 3 -11 0 -7 -7 4 -6 2 -9 -7 -5 -14 5 -19 34 -6 34 11 0 5 28 -9 42 -8 8
-11 4 -9 -17 1 -16 -4 -30 -12 -33 -8 -3 -12 1 -9 9 3 8 -3 21 -12 29 -9 8
-20 25 -24 38 -6 17 -13 21 -27 17 -12 -4 -21 -1 -25 9 -3 9 -12 16 -20 16 -7
0 -24 11 -37 24 -13 12 -29 25 -36 27 -8 3 -13 17 -13 32 0 15 -4 24 -8 22 -5
-3 -10 1 -13 7 -2 7 -8 10 -12 6 -5 -5 0 -17 9 -27 17 -19 17 -20 -3 -30 -28
-16 -34 -14 -28 9 6 24 -8 36 -20 17 -10 -18 -53 -41 -53 -28 0 5 -8 12 -17
15 -10 4 -14 4 -10 0 9 -9 -30 -37 -42 -30 -5 4 -12 0 -14 -6 -4 -10 -8 -9
-17 2 -9 12 -10 10 -5 -9 5 -14 3 -21 -3 -17 -5 3 -15 -1 -22 -9 -7 -8 -16
-12 -21 -9 -5 3 -9 0 -9 -5 0 -6 -13 -11 -29 -11 -20 0 -34 -8 -45 -25 -17
-26 -71 -46 -96 -35 -8 3 -28 4 -45 0 -16 -3 -41 0 -55 6 -14 7 -40 18 -59 26
l-35 15 50 1 c57 3 86 10 97 26 6 8 10 8 13 -1 4 -10 10 -10 27 0 12 7 24 14
27 17 14 14 52 30 59 25 5 -3 11 2 15 10 3 8 17 15 31 15 14 0 25 5 25 12 0 6
6 4 13 -6 11 -14 18 -16 32 -9 12 7 14 13 6 17 -6 4 -11 2 -11 -4 0 -6 -4 -8
-10 -5 -5 3 -10 10 -10 14 0 14 130 90 145 85 9 -4 15 -1 15 7 0 16 70 79 88
79 8 0 21 9 31 21 14 17 21 19 44 10 15 -6 27 -7 27 -3 0 4 5 0 11 -8 8 -12 9
-9 5 11 -5 22 -2 28 16 32 12 4 25 1 29 -5 12 -18 39 10 37 38 -2 17 -5 20
-15 13 -6 -6 -20 -8 -30 -6 -10 3 -29 9 -43 13 -22 6 -23 5 -11 -10 12 -14 10
-16 -13 -16 -14 0 -26 4 -26 10 0 5 -9 14 -20 20 -24 13 -26 7 -4 -14 14 -15
14 -16 0 -16 -9 0 -16 5 -16 10 0 6 -5 10 -11 10 -8 0 -8 -4 -1 -13 6 -7 10
-21 8 -32 -3 -22 -26 -33 -27 -13 0 7 -4 3 -9 -10 -5 -12 -17 -25 -26 -29 -10
-4 -26 -15 -36 -25 -10 -10 -25 -18 -34 -18 -8 0 -13 -4 -9 -10 6 -10 -73 -55
-83 -46 -3 3 0 6 6 6 7 0 12 6 12 13 -1 6 -8 3 -18 -9 -10 -12 -28 -27 -41
-34 -21 -10 -25 -10 -34 5 -7 14 -11 15 -17 4 -7 -10 -11 -10 -24 0 -8 7 -19
10 -25 7 -5 -3 -21 -2 -35 4 -20 7 -26 6 -26 -3 0 -7 -9 -23 -20 -35 -26 -28
-27 -51 -1 -28 19 17 19 17 14 -6 -6 -21 -5 -22 13 -8 18 14 18 14 5 -3 -7 -9
-20 -17 -27 -17 -8 0 -14 -7 -14 -15 0 -11 -11 -15 -38 -15 -21 0 -48 -7 -61
-16 -18 -13 -28 -14 -47 -5 -15 6 -24 7 -24 1 0 -16 -47 -11 -54 6 -3 9 -12
14 -18 12 -7 -3 -21 5 -30 16 -18 21 -18 21 -14 -6 6 -36 -14 -27 -38 17 -10
19 -23 32 -28 29 -5 -3 -16 2 -23 12 -10 13 -14 15 -15 5 0 -14 -80 65 -80 80
0 5 -7 9 -16 9 -9 0 -14 5 -12 11 2 6 -11 27 -30 46 -37 39 -38 63 -4 78 13 6
20 16 17 24 -4 9 0 11 12 6 10 -4 27 -8 37 -11 11 -2 29 -13 41 -24 12 -11 26
-20 32 -20 15 0 24 -41 13 -55 -6 -7 -3 -22 6 -41 22 -42 28 -46 42 -24 7 12
8 20 2 20 -5 0 -10 -5 -10 -11 0 -6 -7 -4 -15 5 -16 16 -21 56 -6 56 5 0 8 12
7 26 -1 29 -57 92 -75 86 -6 -2 -11 1 -11 6 0 13 -66 35 -80 27 -5 -3 -10 -3
-10 0 0 3 19 14 41 24 l42 19 30 -27 c17 -14 42 -36 54 -48 13 -13 28 -23 33
-23 6 0 10 -4 10 -9 0 -10 30 -24 38 -17 2 3 -5 18 -17 34 -11 16 -18 32 -14
36 3 3 -3 6 -15 6 -12 0 -26 9 -32 20 -6 10 -16 17 -24 14 -7 -3 -16 3 -20 12
-8 21 -4 25 23 27 11 1 24 9 27 19 3 10 12 18 20 18 8 0 14 5 14 10 0 6 7 10
15 10 8 0 19 9 25 20 6 11 15 20 20 20 5 0 18 6 27 14 10 8 58 44 107 81 85
64 89 65 108 49 17 -16 18 -16 12 -1 -3 9 -11 17 -17 17 -5 0 6 16 27 36 20
19 33 40 30 46 -4 7 -2 8 4 4 7 -4 12 -3 12 3 0 6 6 8 14 5 7 -3 16 2 19 10 5
12 2 13 -18 6 -25 -10 -36 2 -14 15 5 4 14 18 19 31 11 28 22 30 44 9 19 -19
21 -19 23 4 1 13 -3 18 -12 15 -7 -3 -16 -1 -20 5 -3 6 -2 11 2 11 5 0 9 10
10 21 1 12 9 29 17 38 9 10 16 30 16 44 0 15 5 27 11 27 5 0 7 5 4 11 -11 18
-15 62 -9 112 6 45 8 49 30 44 13 -2 24 -1 24 2 0 12 -17 33 -26 32 -12 -1
-13 21 -2 36 5 6 5 14 -2 18 -5 3 -9 18 -9 33 1 17 3 21 6 10 2 -10 9 -18 15
-18 6 0 7 7 3 18 -15 36 -17 52 -6 52 7 0 9 -4 6 -10 -3 -5 0 -7 9 -4 15 6 11
34 -5 34 -5 0 -9 7 -9 16 0 16 2 15 70 -48 10 -9 21 -14 24 -11 3 3 13 2 23
-2 10 -5 21 -8 25 -7 3 1 12 -5 18 -13 9 -11 9 -15 1 -15 -6 0 -11 -5 -11 -10
0 -7 6 -7 19 0 27 14 30 13 41 -15 5 -14 15 -22 22 -20 15 6 128 -95 128 -114
0 -7 4 -10 9 -7 12 8 56 -35 75 -73 9 -17 21 -31 26 -31 13 0 42 -58 35 -70
-4 -6 0 -13 9 -16 20 -8 29 -36 14 -46 -10 -6 -10 -8 2 -8 13 0 13 -1 0 -10
-13 -8 -12 -10 4 -10 12 0 16 -5 12 -15 -3 -8 -1 -15 5 -15 6 0 9 -7 5 -15 -3
-8 -1 -15 4 -15 6 0 10 -5 10 -11 0 -5 -4 -7 -10 -4 -6 3 -7 -1 -4 -9 3 -9 1
-16 -6 -16 -6 0 -8 -4 -5 -10 7 -12 26 -14 23 -2 -2 4 2 8 7 10 6 1 12 -7 13
-19 3 -15 0 -19 -10 -13 -7 4 -4 -3 7 -15 15 -18 16 -24 6 -30 -9 -6 -10 -11
-3 -15 9 -5 14 -126 5 -126 -1 0 -8 6 -15 13 -7 7 -24 21 -38 30 -13 9 -19 17
-12 17 9 0 11 7 7 21 -5 15 -4 19 4 15 6 -4 11 0 11 8 0 9 -5 16 -11 16 -5 0
-7 6 -4 13 3 6 0 3 -7 -7 -7 -11 -20 -27 -29 -36 -8 -9 -13 -23 -10 -31 3 -11
2 -12 -11 -1 -9 7 -24 9 -33 5 -13 -4 -16 -3 -11 5 12 19 -12 14 -24 -5 -11
-17 -11 -17 -6 0 3 10 0 17 -8 17 -8 0 -14 6 -13 13 0 6 -1 26 -2 42 -2 26 -4
27 -10 10 -5 -11 -6 -26 -3 -33 2 -7 -1 -19 -7 -26 -10 -11 -8 -16 8 -21 21
-6 30 -35 11 -35 -5 0 -10 -5 -10 -12 0 -9 3 -9 12 0 16 16 28 15 28 -1 0 -7
9 -19 20 -27 13 -10 18 -21 14 -34 -5 -16 -4 -17 9 -5 13 12 13 16 -1 37 -11
17 -12 26 -3 35 8 8 11 7 11 -6 0 -19 15 -23 25 -7 11 17 24 11 22 -11 -1 -12
-11 -30 -23 -42 -26 -25 -21 -57 7 -50 15 4 17 8 8 19 -16 19 5 44 31 37 11
-3 20 0 20 6 0 5 -7 8 -15 5 -10 -4 -15 0 -15 11 0 15 3 15 33 -2 17 -11 31
-27 31 -36 -1 -9 2 -14 7 -11 11 7 11 -7 1 -24 -5 -7 -16 -10 -25 -6 -11 4
-17 1 -17 -9 0 -23 11 -47 22 -47 5 0 6 5 3 10 -3 5 -1 10 5 10 17 0 23 -28 8
-43 -16 -17 -38 -11 -38 11 0 13 -2 14 -12 3 -11 -10 -10 -14 4 -22 9 -5 14
-17 11 -28 -3 -11 2 -21 11 -24 13 -5 15 -3 6 12 -8 16 -7 18 8 14 14 -3 17
-12 14 -34 -6 -39 -15 -43 -51 -21 -28 17 -29 19 -14 35 13 13 14 20 5 29 -9
9 -12 7 -12 -10 0 -13 -6 -22 -16 -22 -8 0 -12 5 -9 10 3 6 -4 10 -17 10 -18
0 -20 -2 -8 -10 10 -6 11 -10 3 -10 -18 0 -16 -14 6 -39 11 -13 25 -20 30 -16
6 3 11 0 11 -8 0 -9 7 -13 18 -11 9 2 28 -4 41 -14 19 -16 21 -22 13 -39 -8
-15 -8 -23 1 -32 9 -10 8 -11 -5 -6 -22 9 -24 -8 -3 -25 20 -16 19 -56 -1 -64
-8 -3 -12 -2 -9 4 3 6 -3 24 -15 40 -12 17 -16 30 -10 30 6 0 8 5 5 10 -4 6
-15 1 -26 -12 -12 -13 -19 -17 -16 -8 4 16 -33 50 -55 50 -32 -1 -39 -15 -24
-51 12 -28 16 -31 21 -17 10 26 25 22 25 -7 0 -14 5 -25 10 -25 6 0 10 -4 10
-10 0 -5 13 -31 29 -57 28 -47 37 -98 20 -109 -5 -3 -9 -13 -8 -22 0 -13 3
-12 11 5 6 13 20 23 31 23 20 0 20 -1 3 -13 -13 -10 -16 -20 -12 -35 4 -12 12
-20 17 -17 5 4 9 1 9 -4 0 -16 -20 -13 -26 4 -7 17 -24 20 -24 5 0 -6 11 -15
24 -22 17 -7 26 -21 29 -42 2 -17 4 591 5 1352 l2 1382 -35 0 c-27 0 -42 -7
-60 -27 -23 -27 -24 -27 -25 -6 0 12 6 24 13 27 6 3 3 5 -8 3 -15 -2 -22 -15
-31 -62 -6 -33 -12 -55 -13 -49 0 6 -16 28 -34 48 -29 31 -41 37 -93 42 -46 4
-67 1 -94 -13 -52 -27 -104 -105 -152 -225 -23 -60 -45 -102 -49 -95 -3 6 -12
41 -19 77 -14 77 -58 174 -94 213 -47 48 -107 29 -213 -68 -21 -19 -39 -33
-41 -31 -1 2 6 34 16 72 11 38 17 75 15 82 -4 9 -61 12 -246 11 -133 -1 -234
-3 -224 -6 9 -2 17 -11 17 -18 0 -8 4 -17 10 -20 5 -3 7 0 4 8 -4 11 1 13 20
10 18 -4 26 -12 26 -25 0 -16 3 -18 13 -10 30 25 102 -18 184 -110 6 -7 35
-35 63 -63 28 -27 67 -73 86 -102 19 -29 39 -55 44 -58 6 -4 17 -20 26 -36 12
-24 13 -34 3 -45 -8 -10 -8 -14 0 -14 6 0 11 5 11 10 0 6 5 10 11 10 6 0 9 -7
5 -15 -3 -8 -1 -15 4 -15 15 0 55 -63 42 -68 -7 -2 -1 -13 14 -27 14 -13 23
-29 19 -35 -3 -6 -1 -9 6 -8 15 4 49 -61 42 -79 -3 -7 0 -13 7 -13 7 0 10 -7
6 -17 -4 -9 -1 -20 6 -24 7 -5 13 -29 13 -58 0 -27 4 -53 8 -57 4 -4 0 -18 -9
-32 -9 -13 -11 -21 -4 -17 15 9 10 -56 -5 -67 -6 -5 -5 -8 4 -8 11 0 11 -3 1
-15 -10 -12 -16 -13 -27 -4 -11 10 -12 9 -7 -5 3 -9 12 -16 20 -16 8 0 14 -4
14 -10 0 -5 -8 -6 -17 -3 -12 5 -10 0 6 -16 14 -14 21 -32 19 -48 -3 -30 -28
-44 -28 -16 0 10 -7 29 -16 41 -8 12 -12 27 -9 32 3 6 1 10 -5 10 -9 0 -9 18
1 55 1 6 -3 23 -9 38 -7 16 -12 33 -12 38 0 5 -5 9 -11 9 -7 0 0 11 14 24 15
14 23 27 18 31 -5 3 -11 0 -13 -7 -2 -6 -10 -8 -16 -4 -17 10 -15 26 4 26 11
0 14 5 9 18 -4 9 -10 25 -12 35 -3 9 -10 17 -15 17 -6 0 -8 7 -4 15 3 8 1 15
-4 15 -6 0 -10 7 -10 15 0 18 17 20 23 3 4 -10 7 -10 18 0 11 10 10 12 -5 12
-9 0 -14 5 -11 10 4 7 -3 8 -22 4 -41 -10 -45 -14 -32 -30 10 -12 9 -13 -5 -8
-9 3 -16 1 -16 -5 0 -6 12 -11 28 -11 23 -1 25 -2 11 -13 -18 -14 -26 -102 -8
-91 12 7 39 -14 39 -29 0 -6 -7 -2 -15 9 -14 18 -14 18 -15 -4 0 -13 -4 -20
-10 -17 -5 3 -18 1 -27 -4 -15 -8 -15 -11 -3 -12 8 -1 19 -1 23 0 24 4 43 -20
42 -53 -1 -19 2 -33 7 -30 4 3 6 -15 4 -40 -4 -37 -2 -46 11 -46 10 0 14 -6
10 -20 -3 -11 3 -30 14 -44 11 -14 21 -39 22 -55 1 -17 8 -33 14 -35 7 -3 10
-12 7 -21 -3 -8 -1 -15 5 -15 6 0 11 -9 11 -20 0 -11 5 -20 11 -20 8 0 8 -5
-1 -15 -9 -10 -9 -15 -1 -15 6 0 11 -5 11 -11 0 -5 -5 -7 -12 -3 -8 5 -9 2 -5
-9 4 -10 1 -17 -6 -17 -7 -1 -5 -6 6 -14 9 -7 19 -27 21 -44 l3 -31 -45 44
c-25 25 -42 48 -38 52 4 4 11 1 16 -7 5 -8 12 -11 16 -8 8 9 -18 36 -31 31 -6
-1 -24 27 -42 64 -23 50 -29 70 -20 76 8 6 6 7 -5 3 -10 -3 -23 2 -30 13 -7
10 -33 36 -58 56 -25 21 -44 45 -43 53 1 10 -2 11 -10 3 -8 -8 -16 -6 -29 5
-9 9 -29 18 -42 19 -72 8 -88 16 -83 41 2 14 0 27 -4 30 -5 3 -9 -4 -9 -15 0
-12 -4 -21 -9 -21 -14 0 -22 16 -13 24 4 4 8 12 8 17 1 5 3 10 4 12 7 7 6 67
-1 67 -9 0 -12 -18 -10 -50 0 -8 -6 -24 -15 -35 -15 -20 -15 -20 -38 6 -12 14
-27 24 -33 22 -6 -2 -22 7 -36 19 -23 20 -38 23 -119 25 -137 3 -138 3 -127
33 8 23 8 24 -5 6 -8 -10 -19 -15 -25 -11 -6 3 -11 -1 -11 -9 0 -9 -7 -16 -15
-16 -8 0 -15 -5 -15 -11 0 -6 -6 -9 -14 -6 -8 3 -16 -2 -19 -14 -3 -10 -13
-19 -22 -19 -11 0 -15 5 -11 15 7 19 -1 19 -20 1 -16 -16 -19 -30 -5 -21 23
14 16 -13 -11 -45 -19 -21 -28 -27 -24 -15 10 28 -16 107 -36 113 -10 2 -18 8
-18 13 0 13 -37 11 -45 -2 -4 -6 -13 -8 -21 -5 -8 3 -17 -1 -20 -9 -4 -8 -15
-15 -26 -15 -10 0 -16 5 -13 10 3 6 1 10 -5 10 -6 0 -13 -7 -16 -15 -4 -8 -13
-15 -22 -15 -12 0 -10 6 8 25 14 15 35 25 52 25 15 0 28 5 28 10 0 6 -7 10
-15 10 -22 0 -18 18 6 31 15 8 18 13 10 18 -9 6 -8 11 4 21 8 7 13 20 10 30
-3 10 4 25 16 36 l22 19 -18 -27 c-18 -29 -10 -37 15 -15 8 6 5 0 -8 -14 -26
-29 -28 -39 -8 -39 8 0 23 14 33 30 9 17 21 30 26 30 5 0 7 6 4 14 -3 8 1 20
8 26 8 7 13 16 10 20 -2 4 0 22 5 41 8 26 7 37 -5 48 -12 12 -17 13 -27 3 -20
-20 -32 -13 -14 7 10 11 18 37 20 58 1 21 7 48 14 61 8 14 9 22 2 22 -5 0 -10
-4 -10 -10 0 -5 -5 -10 -11 -10 -5 0 -7 6 -3 13 4 6 -3 2 -15 -10 -11 -12 -21
-26 -21 -31 0 -5 -13 -15 -30 -22 -16 -7 -30 -17 -30 -22 0 -5 7 -5 18 1 16 8
17 6 14 -25 -3 -21 0 -34 7 -34 6 0 11 -5 11 -11 0 -6 -6 -9 -13 -6 -6 2 -18
-1 -24 -9 -7 -7 -8 -14 -3 -16 5 -2 6 -9 1 -17 -8 -12 -12 -12 -26 2 -20 21
-32 22 -15 2 7 -8 10 -24 7 -35 -6 -25 0 -25 27 -2 11 9 5 -3 -14 -28 -33 -43
-34 -44 -8 -27 44 28 46 19 3 -18 -22 -18 -36 -37 -32 -42 5 -4 12 -1 17 7 5
8 12 12 15 8 9 -9 -78 -89 -92 -84 -7 3 -15 0 -19 -6 -4 -6 -3 -8 3 -5 6 4 10
-6 11 -24 0 -23 -3 -29 -14 -25 -8 3 -14 0 -14 -5 0 -7 9 -9 21 -6 15 4 19 1
17 -11 -2 -9 -11 -16 -20 -16 -10 1 -22 -11 -29 -27 -12 -30 -34 -38 -42 -16
-2 6 -7 9 -11 5 -4 -3 -2 -15 5 -26 13 -20 14 -20 51 9 57 46 66 24 11 -26
-32 -29 -50 -40 -55 -32 -4 6 -10 8 -14 4 -10 -10 5 -23 36 -32 16 -4 20 -3
12 3 -14 9 -7 18 28 37 12 6 13 5 3 -6 -17 -17 -17 -32 0 -24 6 3 2 -2 -10
-11 -22 -16 -33 -41 -13 -29 16 10 12 -7 -7 -28 -18 -19 -17 -20 10 -15 18 4
26 1 24 -6 -2 -6 -14 -10 -26 -9 -13 2 -20 -1 -16 -7 3 -6 0 -10 -8 -10 -13 0
-155 -103 -170 -124 -5 -7 -12 -5 -22 8 -11 15 -21 17 -51 12 -33 -7 -36 -5
-30 11 4 12 -1 9 -13 -7 -11 -14 -16 -26 -11 -28 10 -4 1 -72 -12 -89 -16 -20
8 -23 44 -4 l35 18 56 -41 c32 -23 54 -47 52 -54 -3 -7 0 -10 5 -7 6 4 18 -1
27 -10 14 -14 14 -18 2 -26 -11 -7 -8 -9 9 -9 13 0 21 -4 18 -9 -3 -5 8 -14
25 -21 19 -8 27 -16 21 -22 -14 -14 -66 16 -111 63 -21 21 -44 39 -52 39 -7 0
-21 7 -31 17 -17 15 -18 15 -18 -4 0 -11 7 -26 15 -33 10 -9 15 -9 15 -1 0 16
17 13 24 -5 3 -8 2 -12 -4 -9 -16 10 -11 -21 5 -35 8 -7 12 -17 8 -23 -3 -5
-2 -7 4 -4 5 3 22 -1 37 -8 24 -13 119 -34 163 -37 7 -1 15 -10 19 -20 4 -13
9 -16 17 -9 15 12 187 2 187 -11 0 -5 5 -6 10 -3 6 3 17 -1 26 -9 9 -9 19 -14
24 -11 5 3 11 -1 13 -7 4 -9 6 -9 6 -1 1 6 9 10 19 8 60 -12 72 -16 72 -24 0
-14 -54 -20 -68 -8 -10 8 -12 7 -10 -3 4 -19 -111 -53 -129 -38 -8 6 -17 8
-20 4 -4 -4 -2 -11 6 -15 10 -6 9 -10 -5 -15 -9 -4 -22 -2 -28 4 -5 5 -18 10
-28 10 -9 0 -22 8 -27 18 -6 9 -11 12 -11 6 0 -6 -19 -14 -43 -17 -24 -3 -51
-9 -60 -13 -11 -4 -17 -1 -17 8 0 22 -56 58 -89 58 -16 0 -37 3 -46 6 -20 8
-58 81 -49 96 4 6 3 8 -3 5 -5 -3 -20 4 -34 17 -13 12 -32 25 -41 29 -10 3
-18 10 -18 15 0 5 -14 15 -31 22 -36 16 -52 48 -33 68 8 7 14 20 14 29 0 12
-3 13 -14 4 -13 -11 -14 -4 -13 41 1 36 7 55 17 60 13 5 12 7 -2 7 -9 1 -19 9
-22 19 -9 30 1 156 16 197 8 22 18 57 22 78 5 25 11 35 19 31 9 -5 9 -4 1 5
-7 8 -8 30 -3 64 4 29 10 84 13 122 3 39 15 106 27 150 11 44 24 94 29 110 13
53 39 107 49 101 5 -3 7 2 5 12 -6 19 44 91 63 92 7 0 10 7 6 16 -4 10 1 17
15 21 11 2 23 15 26 26 10 37 97 137 120 137 15 0 17 3 8 8 -18 12 -4 42 20
42 13 0 18 -5 15 -14 -7 -18 12 -26 38 -15 16 6 17 8 3 8 -9 1 -24 11 -32 23
-21 30 -20 44 1 22 12 -11 18 -13 21 -5 3 8 8 9 16 2 8 -7 12 -4 13 12 0 12
-1 17 -4 10 -2 -7 -11 -9 -19 -6 -19 7 -18 23 1 23 8 0 15 8 15 18 0 10 9 28
21 40 l20 23 -439 -1 c-418 -1 -440 -2 -435 -19z m2577 -146 c8 -25 26 -55 40
-69 14 -13 26 -30 26 -37 -1 -10 -5 -8 -15 5 -13 18 -35 15 -35 -5 0 -6 4 -8
9 -4 19 11 22 -17 4 -37 -12 -15 -14 -22 -6 -25 10 -4 10 -9 0 -25 -9 -16 -9
-22 1 -25 18 -7 15 -23 -5 -23 -15 0 -13 -4 7 -20 25 -20 22 -24 -15 -21 -17
2 -18 0 -5 -9 13 -9 13 -11 0 -20 -13 -8 -12 -10 4 -10 16 0 17 -2 5 -16 -11
-13 -10 -17 5 -26 17 -9 16 -11 -5 -34 -22 -24 -22 -24 -2 -24 13 0 20 6 19
16 0 9 5 19 12 21 24 9 12 -31 -20 -64 -24 -25 -28 -33 -15 -33 21 0 22 -13 2
-30 -20 -16 -19 -30 1 -30 15 0 15 -2 0 -24 -12 -19 -12 -26 -3 -30 9 -5 9 -7
0 -12 -19 -8 -16 -34 4 -34 14 0 14 -2 -2 -20 -18 -20 -18 -21 1 -35 17 -13
17 -14 2 -15 -10 0 -18 -7 -18 -15 0 -8 6 -12 14 -9 26 10 27 -15 0 -32 -26
-18 -26 -18 -4 -26 24 -9 19 -25 -14 -38 l-21 -9 23 -7 c26 -8 28 -17 6 -38
-8 -9 -11 -16 -5 -16 18 0 13 -28 -6 -39 -17 -9 -17 -10 0 -16 24 -10 22 -28
-3 -20 -15 5 -22 0 -30 -20 -13 -34 -13 -35 4 -29 9 3 13 -1 13 -13 -1 -10 5
-18 13 -18 8 0 14 8 14 17 -1 10 4 14 12 11 16 -6 19 -23 4 -23 -5 0 -10 -5
-10 -12 0 -6 -7 -20 -17 -30 -15 -17 -15 -18 7 -18 l23 0 -23 -25 c-13 -14
-18 -25 -11 -25 8 0 10 -7 6 -20 -4 -12 -2 -20 4 -20 8 0 7 -6 -1 -19 -11 -17
-13 -16 -45 15 -18 18 -33 38 -33 43 0 5 -9 13 -20 16 -26 8 -25 22 2 31 l22
7 -22 17 c-26 21 -28 30 -6 30 8 0 12 -4 9 -10 -3 -5 -1 -10 4 -10 6 0 11 11
11 24 0 19 -4 23 -20 19 -12 -3 -20 0 -20 7 0 6 9 14 20 17 11 3 20 9 20 14 0
5 -9 9 -20 9 -11 0 -20 5 -20 10 0 6 9 10 19 10 10 0 22 7 25 16 4 11 2 15 -7
11 -8 -3 -20 -1 -28 3 -10 7 -7 11 13 19 34 13 46 32 17 28 -12 -1 -24 4 -27
12 -3 9 1 11 16 7 14 -5 21 -1 25 13 4 16 0 20 -15 18 -31 -3 -33 20 -3 27 31
8 32 22 3 30 l-23 7 23 16 c21 15 21 16 5 29 -17 12 -17 13 1 27 19 14 19 15
-4 27 l-24 13 28 22 29 23 -24 12 -23 13 24 19 c22 18 22 19 4 33 -17 12 -17
14 -3 20 10 4 16 17 15 35 -1 25 -4 28 -23 23 -17 -4 -23 -1 -23 11 0 9 8 16
19 16 10 0 21 8 23 18 4 15 0 18 -21 15 l-26 -4 28 23 c21 18 24 27 15 36 -9
9 -7 17 8 34 19 22 19 23 -1 8 -11 -8 -23 -19 -26 -24 -10 -14 -21 12 -14 35
4 13 12 18 24 14 12 -3 17 1 17 14 0 16 -4 17 -18 10 -14 -7 -18 -6 -18 6 0 8
11 20 25 25 26 10 35 32 13 29 -32 -4 -41 1 -29 15 9 11 9 15 -1 20 -7 3 1 3
17 0 27 -5 28 -4 13 9 -10 8 -18 20 -18 26 0 7 -4 9 -10 6 -5 -3 -10 -1 -10 5
0 7 8 9 20 5 11 -4 20 -2 20 4 0 6 -6 11 -12 11 -7 0 -2 9 11 19 17 13 20 20
12 26 -7 4 -10 13 -7 20 3 8 -2 11 -15 8 -28 -8 -23 16 6 27 30 11 34 34 5 25
-24 -8 -26 2 -3 27 21 24 37 11 57 -47z m-2720 -217 c-4 -6 -8 -21 -10 -34 -1
-16 2 -21 12 -17 19 7 18 -6 -3 -30 -17 -19 -17 -20 -1 -14 25 9 33 -11 12
-34 -16 -17 -16 -19 -1 -19 24 0 21 -19 -4 -28 -20 -8 -19 -9 6 -20 27 -12 27
-13 10 -33 -18 -19 -18 -20 1 -34 16 -13 17 -16 4 -24 -13 -9 -12 -12 5 -26
19 -14 19 -16 2 -29 -15 -12 -16 -14 -2 -20 19 -7 19 -24 0 -28 -11 -2 -7 -11
16 -36 17 -18 28 -36 24 -40 -4 -4 -10 -1 -12 6 -5 12 -33 17 -33 6 0 -4 7
-12 17 -19 20 -15 7 -39 -18 -32 -28 7 -23 -8 7 -22 31 -14 26 -37 -7 -33 -24
4 -24 3 -4 -12 11 -8 26 -16 33 -16 8 0 12 -8 10 -17 -2 -12 -11 -17 -26 -15
-21 3 -22 1 -11 -16 7 -11 18 -18 24 -15 12 4 29 -36 20 -46 -3 -2 -5 1 -5 7
0 7 -7 12 -15 12 -8 0 -15 -7 -15 -15 0 -8 5 -15 11 -15 16 0 43 -30 34 -38
-4 -4 -10 -1 -12 6 -9 23 -39 14 -38 -12 0 -13 3 -27 7 -31 4 -4 4 -14 1 -23
-5 -14 -3 -15 8 -4 7 6 17 12 21 12 14 0 8 -30 -7 -36 -22 -9 -18 -34 6 -34
12 0 19 -5 16 -12 -2 -7 -12 -12 -21 -11 -11 0 -15 -4 -12 -12 3 -8 -2 -19
-10 -26 -14 -12 -14 -14 1 -25 11 -9 15 -19 11 -31 -6 -14 -5 -16 5 -6 20 20
31 15 24 -8 -5 -15 -4 -19 4 -15 6 4 11 0 11 -10 0 -14 -3 -15 -12 -6 -19 19
-47 15 -41 -6 3 -14 11 -18 29 -14 13 2 24 0 24 -6 0 -17 -27 -33 -44 -26 -9
3 -16 2 -16 -4 0 -6 6 -12 13 -15 9 -3 9 -7 -1 -19 -8 -11 -9 -18 -3 -22 6 -4
7 -14 4 -24 -5 -14 -3 -15 8 -4 18 17 30 15 23 -3 -5 -11 -2 -13 10 -9 9 4 16
1 16 -6 0 -8 -9 -10 -24 -6 -14 3 -27 2 -30 -3 -3 -5 4 -11 16 -15 l23 -5 -23
-21 c-27 -25 -28 -33 -3 -25 25 8 38 -13 14 -23 -29 -12 -28 -34 2 -26 15 4
25 2 25 -5 0 -6 -6 -11 -14 -11 -17 0 -28 -40 -15 -56 12 -14 -5 -29 -21 -19
-5 3 -10 1 -10 -5 0 -6 12 -15 26 -21 25 -9 26 -11 10 -28 -20 -22 -20 -31 0
-31 9 0 14 -6 11 -12 -2 -7 -12 -12 -21 -12 -9 1 -16 -2 -16 -7 0 -5 6 -9 14
-9 23 0 31 -22 13 -35 -21 -15 -22 -25 -2 -25 21 0 19 -16 -5 -33 -19 -13 -19
-15 -4 -21 16 -6 16 -8 0 -25 -15 -16 -15 -19 -2 -24 10 -4 13 -13 9 -24 -6
-16 -5 -17 13 -3 10 8 23 20 27 25 5 6 5 -1 2 -14 -5 -15 -2 -26 6 -32 7 -4
10 -11 6 -16 -5 -4 -12 -2 -16 6 -5 7 -22 11 -41 9 -33 -3 -33 -3 -9 -15 13
-6 32 -14 43 -17 29 -10 0 -39 -31 -31 -13 3 -23 1 -23 -5 0 -5 7 -10 16 -10
8 0 12 -5 8 -11 -4 -7 0 -9 14 -5 11 4 23 3 26 -2 7 -12 -12 -28 -39 -34 l-20
-5 20 -8 c39 -16 65 -37 58 -48 -4 -6 -10 -5 -17 4 -13 16 -46 21 -46 7 0 -5
13 -14 30 -19 32 -12 31 -25 -4 -39 -20 -8 -20 -8 7 -19 16 -6 25 -15 22 -21
-3 -5 -1 -10 4 -10 6 0 11 -5 11 -12 0 -9 -3 -9 -12 0 -17 17 -35 15 -42 -4
-4 -12 -1 -14 14 -9 24 7 26 -7 5 -25 -14 -11 -13 -14 1 -24 14 -11 14 -13 0
-25 -8 -7 -12 -19 -9 -27 3 -8 0 -14 -6 -14 -8 0 -8 -4 1 -14 7 -7 19 -11 27
-8 24 9 6 -22 -20 -35 l-24 -12 33 -7 c26 -5 30 -9 21 -21 -7 -8 -19 -11 -26
-8 -9 3 -13 0 -11 -7 3 -7 15 -14 27 -16 29 -5 21 -28 -9 -24 -19 2 -21 0 -10
-13 7 -9 19 -14 26 -11 25 10 23 -8 -3 -37 -26 -28 -27 -29 -5 -23 26 9 30 -8
5 -23 -17 -10 -17 -12 2 -27 19 -14 19 -16 3 -28 -21 -16 -24 -30 -5 -23 8 3
20 1 28 -4 11 -7 9 -10 -8 -15 -13 -4 -23 -12 -23 -19 0 -8 8 -11 20 -8 26 7
26 -13 0 -27 -28 -15 -25 -28 5 -22 20 3 24 1 19 -12 -3 -9 -15 -16 -25 -16
-11 0 -16 -5 -13 -13 3 -8 12 -13 22 -13 26 1 26 -18 0 -26 -19 -5 -20 -6 -3
-7 15 -1 16 -4 7 -13 -17 -17 -15 -26 6 -32 21 -7 -44 1 -78 9 l-25 6 25 -15
c14 -8 34 -15 44 -16 19 0 19 0 1 -14 -11 -8 -25 -12 -31 -9 -7 2 -15 0 -19
-6 -4 -8 -12 -6 -23 5 -11 11 -17 13 -20 5 -2 -6 -7 -9 -10 -7 -4 2 -14 -11
-23 -30 -15 -32 -15 -33 3 -23 11 6 22 17 25 25 7 18 19 18 27 -1 3 -9 -10
-25 -38 -44 l-43 -30 0 32 c0 18 7 38 16 45 14 12 13 13 -7 9 -34 -8 -26 10
18 41 21 15 39 32 40 39 0 6 6 14 13 16 6 3 3 6 -8 7 -20 1 -20 1 -1 15 19 15
19 15 -1 15 -11 0 -23 6 -26 13 -4 10 2 13 19 9 14 -2 24 0 24 7 0 6 -11 11
-25 11 -14 0 -25 5 -25 10 0 6 12 10 28 10 l27 0 -28 19 c-18 11 -25 21 -18
25 6 4 16 4 21 1 6 -3 10 -1 10 5 0 6 -10 15 -22 20 l-23 9 22 6 c13 4 19 13
16 20 -2 8 -10 12 -18 9 -14 -6 -25 15 -21 42 2 13 10 18 26 16 19 -2 21 0 10
13 -7 8 -19 15 -26 15 -8 0 -14 5 -14 11 0 7 10 9 28 5 24 -6 25 -5 9 7 -22
18 -22 27 1 27 14 0 13 4 -7 19 -23 18 -23 19 -5 29 19 11 19 11 -1 26 -19 14
-19 15 -2 34 18 19 18 21 0 32 -13 8 -14 13 -5 16 19 9 14 24 -8 24 -11 0 -20
7 -20 15 0 16 34 38 44 28 3 -3 6 -1 6 5 0 7 -14 12 -31 12 -36 0 -36 23 1 28
18 3 20 6 9 12 -11 7 -11 12 -1 22 19 19 14 49 -8 55 -11 3 -20 9 -20 14 0 5
7 6 15 3 8 -4 15 -1 15 5 0 10 -20 15 -47 12 -7 -1 -13 5 -13 14 0 12 4 14 16
7 9 -5 26 -7 37 -4 16 4 14 7 -14 16 -32 10 -54 46 -29 46 7 0 9 -7 6 -16 -4
-10 -2 -13 7 -7 6 4 21 7 32 6 14 -1 12 2 -8 10 -33 13 -30 33 4 29 24 -4 24
-3 4 12 -22 17 -50 22 -41 7 3 -5 -1 -14 -9 -21 -12 -10 -15 -10 -15 2 0 8 6
20 12 26 10 10 10 15 -2 23 -13 10 -13 10 0 6 68 -21 67 -20 45 -3 -11 8 -26
16 -32 16 -7 0 -13 5 -13 11 0 7 10 9 28 5 24 -5 25 -4 9 7 -46 30 -51 36 -44
44 5 4 14 1 20 -7 14 -18 37 -24 37 -11 0 5 -9 13 -20 16 -11 3 -20 10 -20 14
0 13 26 32 33 24 4 -3 7 -1 7 5 0 7 -7 12 -15 12 -8 0 -15 7 -15 15 0 10 -6
12 -18 8 -15 -6 -15 -5 -3 10 7 9 23 17 35 18 20 0 21 1 1 9 -29 13 -35 12
-35 -5 0 -8 -4 -15 -10 -15 -19 0 -10 23 20 52 34 32 36 38 15 38 -8 0 -15 5
-15 10 0 6 6 10 14 10 9 0 12 7 9 19 -3 11 2 21 11 24 12 5 13 11 3 36 -6 17
-19 34 -29 37 -24 7 -23 20 4 38 12 9 18 17 13 17 -6 1 -14 2 -20 3 -21 2 -49
25 -42 32 5 5 11 4 15 -1 4 -6 18 -11 31 -13 20 -2 22 0 11 13 -7 9 -10 18 -7
22 4 3 2 12 -4 19 -7 8 -7 14 1 19 18 11 11 23 -20 30 -16 4 -30 11 -30 17 0
6 6 8 13 5 6 -2 23 -7 37 -11 24 -7 24 -6 6 8 -11 9 -26 16 -34 16 -22 0 -8
24 19 31 l24 7 -22 7 c-13 4 -23 11 -23 16 0 5 10 9 23 9 18 0 19 2 7 11 -11
8 -12 12 -2 16 17 7 15 23 -3 23 -8 0 -15 5 -15 10 0 6 8 10 18 10 15 1 15 2
-2 12 -15 8 -21 8 -24 0 -2 -7 -9 -12 -15 -12 -8 0 -7 4 1 12 17 17 15 31 -3
24 -9 -3 -15 0 -15 9 0 17 16 20 25 5 9 -15 42 -12 48 4 7 18 -24 31 -33 15
-6 -8 -9 -8 -14 0 -4 6 -4 11 1 11 11 1 46 50 36 50 -5 0 -21 -11 -36 -25
l-27 -26 0 26 c0 18 5 25 20 25 13 0 18 5 14 15 -4 8 1 17 10 21 26 10 18 21
-20 28 -29 6 -33 10 -24 22 17 19 34 18 26 -3 -6 -14 -3 -14 15 3 17 16 18 20
6 22 -13 3 -14 7 -4 29 8 19 9 27 1 30 -6 2 -20 10 -30 18 -17 13 -16 14 16
10 33 -5 33 -5 10 6 -15 7 -20 13 -12 16 6 3 12 10 12 16 0 8 -4 7 -12 -1 -7
-7 -19 -12 -27 -12 -10 0 -8 7 9 25 12 13 27 22 31 19 5 -3 9 0 9 5 0 6 -7 11
-15 11 -17 0 -18 2 -9 24 3 9 14 16 23 17 12 0 11 4 -7 16 -21 15 -22 17 -6
34 16 18 16 19 1 19 -10 0 -17 -7 -17 -15 0 -8 -7 -15 -15 -15 -8 0 -15 2 -15
4 0 2 -3 13 -6 23 -4 14 -4 15 4 4 5 -7 15 -10 21 -7 17 11 13 26 -6 26 -14 0
-14 3 -5 12 10 10 15 10 21 -1 5 -8 14 -10 21 -6 10 6 9 10 -4 17 -13 7 -14
12 -3 29 10 16 9 21 -2 29 -12 7 -12 11 -2 24 12 14 10 16 -8 16 -12 0 -19 -4
-16 -10 3 -5 1 -10 -4 -10 -6 0 -11 -7 -11 -15 0 -8 -4 -15 -10 -15 -19 0 -10
18 25 56 25 26 32 40 23 45 -9 6 -9 11 2 24 12 15 12 19 -5 32 -19 13 -19 15
-2 27 21 16 22 26 2 26 -18 0 -18 5 -5 30 8 16 8 18 -5 14 -8 -4 -15 -1 -15 5
0 7 7 14 15 17 8 4 15 12 15 20 0 8 -6 11 -15 8 -8 -4 -15 -1 -15 5 0 7 7 14
15 17 8 4 15 10 15 15 0 5 -7 9 -15 9 -8 0 -15 5 -15 10 0 6 10 10 22 10 21 0
21 0 2 15 -18 15 -18 16 11 40 32 26 51 33 39 13z m307 -560 c-12 -4 -21 -12
-21 -18 0 -7 -8 -9 -20 -5 -28 9 -25 -9 5 -25 31 -17 32 -27 3 -33 -23 -4 -23
-4 -2 -12 22 -7 52 -51 42 -61 -8 -7 25 -42 35 -37 12 7 8 -42 -5 -56 -11 -11
-9 -12 8 -7 19 6 22 2 28 -43 4 -27 6 -96 6 -153 0 -56 4 -120 9 -140 7 -32 6
-38 -7 -38 -13 0 -10 -6 10 -25 22 -20 26 -31 21 -55 -4 -22 -2 -30 9 -30 18
0 54 -38 63 -68 3 -12 31 -41 61 -63 47 -36 53 -45 51 -73 -2 -24 -7 -31 -22
-29 -11 1 -15 0 -8 -3 16 -7 5 -32 -29 -69 -15 -16 -28 -36 -28 -43 0 -7 -7
-15 -15 -18 -8 -3 -17 -16 -21 -27 -4 -12 -14 -27 -23 -34 -12 -10 -13 -12 -2
-13 7 0 22 10 32 22 27 30 24 7 -3 -27 -28 -35 -35 -70 -13 -61 8 3 15 2 15
-2 -1 -13 -27 -42 -38 -42 -6 0 -9 -6 -6 -14 3 -7 -13 -32 -35 -54 -44 -45
-50 -55 -25 -45 12 4 15 1 12 -13 -2 -12 -10 -18 -23 -16 -14 3 -17 1 -9 -10
12 -15 -7 -63 -20 -51 -4 4 -4 0 0 -10 9 -24 19 -15 65 66 23 40 49 83 58 97
8 14 16 27 16 30 5 24 34 64 54 76 14 9 18 13 9 10 -10 -3 -18 -1 -18 4 0 6 4
10 10 10 5 0 16 15 23 33 14 33 85 148 97 157 3 3 9 13 13 23 11 30 25 18 24
-20 -2 -26 -6 -37 -15 -35 -8 1 -11 -2 -7 -8 3 -6 10 -8 15 -5 17 10 16 -21
-1 -75 -38 -117 -52 -152 -66 -157 -10 -4 -11 -9 -3 -19 9 -10 3 -28 -22 -74
-28 -51 -31 -62 -18 -70 19 -12 33 -8 38 11 3 12 2 12 -7 -1 -5 -8 -12 -12
-16 -9 -8 8 23 79 35 79 6 0 9 3 8 8 -5 19 15 52 33 52 15 0 19 -7 19 -33 0
-18 -6 -41 -14 -52 -7 -11 -17 -35 -21 -52 -3 -18 -12 -33 -18 -33 -8 0 -7 -4
2 -9 7 -5 10 -14 7 -20 -4 -6 -12 -8 -18 -5 -7 4 -8 2 -4 -5 4 -6 -6 -33 -23
-60 -33 -51 -38 -67 -19 -55 7 5 8 3 4 -5 -6 -9 -12 -9 -25 3 -10 9 -21 13
-26 9 -4 -5 -5 -2 -1 5 5 8 -5 26 -27 48 -34 35 -35 35 -68 21 -43 -18 -101
-77 -76 -77 9 0 17 5 17 10 0 6 4 10 9 10 5 0 7 -9 4 -19 -3 -12 -11 -17 -19
-14 -8 3 -14 0 -14 -6 0 -6 5 -11 10 -11 6 0 10 -10 11 -22 0 -17 4 -12 15 16
18 50 28 60 19 21 -11 -51 -27 -85 -36 -79 -5 3 -9 -2 -9 -10 0 -13 3 -14 19
-4 11 7 26 37 36 75 10 35 21 66 27 69 5 3 6 -5 3 -18 -36 -158 -36 -159 -10
-136 40 36 43 38 49 22 3 -9 4 -20 0 -25 -3 -5 1 -9 8 -9 7 0 -2 -14 -20 -31
-37 -33 -36 -54 0 -23 13 10 7 1 -12 -21 -60 -68 -71 -83 -74 -99 -3 -23 -68
-87 -83 -82 -9 4 -10 -1 -3 -19 8 -21 4 -30 -25 -60 -19 -19 -35 -37 -35 -40
0 -8 30 -6 30 3 1 18 93 107 108 104 10 -2 14 -1 10 3 -4 4 -1 17 7 29 18 25
19 40 3 30 -7 -4 -8 -3 -4 5 4 6 12 9 17 5 14 -8 39 15 39 36 0 10 10 27 23
37 27 23 50 61 42 73 -3 5 4 12 16 15 11 4 18 9 15 12 -10 10 15 32 30 26 8
-3 14 0 14 7 0 6 -4 8 -10 5 -5 -3 -10 -1 -10 5 0 6 7 13 15 16 8 4 13 10 10
14 -3 4 8 23 23 43 15 19 33 43 40 53 10 16 12 6 8 -63 -4 -74 -8 -87 -46
-149 -23 -38 -44 -81 -47 -96 -3 -15 -9 -28 -13 -28 -5 0 -11 -14 -15 -30 -8
-34 -13 -37 -30 -13 -11 15 -16 12 -41 -28 -39 -60 -54 -89 -47 -89 4 0 -4
-11 -17 -25 -12 -13 -27 -22 -31 -19 -5 3 -9 -6 -9 -20 0 -14 -4 -26 -10 -26
-5 0 -10 -7 -10 -15 0 -18 1 -18 -39 -4 -17 6 -36 20 -42 31 -6 11 -17 17 -27
14 -39 -12 -46 7 -50 151 -2 76 -4 158 -5 183 -2 33 2 44 12 42 8 -2 11 3 8
12 -4 9 -2 18 4 22 5 3 7 14 4 24 -3 10 -1 21 4 25 7 3 8 0 5 -9 -11 -29 5
-17 34 27 27 38 57 116 48 124 -8 8 -36 -10 -36 -23 0 -8 -5 -14 -10 -14 -6 0
-9 -3 -8 -7 2 -11 -35 -73 -44 -73 -5 0 -8 -7 -8 -16 0 -8 -5 -12 -11 -8 -11
6 -9 29 6 69 6 17 5 17 -5 5 -9 -12 -11 -10 -7 12 2 16 1 28 -3 28 -4 0 -9 37
-10 83 -1 77 -3 126 -14 304 -2 41 0 70 5 67 5 -3 9 -1 9 5 0 5 -6 11 -12 13
-9 3 -8 9 5 22 22 22 22 30 0 22 -15 -5 -15 -4 1 9 11 8 24 15 29 15 4 0 5 5
2 10 -4 7 -13 7 -26 0 -22 -12 -21 -13 -24 18 -1 12 3 22 11 22 7 0 21 3 31 6
10 3 5 -3 -12 -12 -19 -11 -25 -19 -16 -22 18 -6 67 32 63 50 -2 11 5 14 25
11 20 -3 24 -2 14 5 -7 5 -15 21 -16 36 -3 20 1 26 17 26 17 0 18 3 8 15 -6 8
-9 19 -5 25 3 5 2 10 -2 10 -10 0 -44 -55 -42 -67 4 -21 -3 -32 -27 -48 -15
-9 -23 -12 -20 -6 4 6 2 11 -3 11 -6 0 -11 -7 -11 -15 0 -8 -3 -15 -8 -15 -4
0 -8 24 -9 53 -2 28 -5 81 -7 117 -2 36 -7 119 -10 185 -4 66 -9 133 -12 149
-5 23 -3 28 9 23 8 -3 19 -1 25 5 8 8 17 4 31 -13 17 -20 22 -22 33 -10 9 10
9 12 1 7 -8 -4 -13 -1 -13 7 0 8 -7 20 -15 27 -13 10 -19 10 -33 -3 -14 -13
-21 -14 -30 -5 -14 14 -16 38 -3 38 5 0 12 -6 15 -12 4 -7 4 -3 2 9 -2 13 0
26 5 29 5 3 9 11 8 17 0 9 -2 9 -6 0 -2 -7 -10 -13 -17 -13 -10 0 -13 20 -13
74 0 40 -3 78 -7 84 -3 6 -2 13 4 17 6 4 7 13 2 23 -15 30 -15 177 0 190 14
11 63 17 156 18 36 0 47 -2 33 -8z m912 -220 c-3 -15 -9 -25 -14 -22 -5 3 -6
-8 -3 -24 4 -19 1 -32 -10 -41 -9 -8 -16 -21 -16 -29 0 -12 3 -13 12 -4 7 7
45 12 98 12 47 1 117 5 155 11 99 15 139 16 147 5 4 -6 13 -5 22 4 14 11 16
10 10 -4 -3 -9 -1 -16 5 -16 6 0 11 5 11 10 0 6 8 14 18 17 9 4 22 14 29 22 6
9 14 13 18 9 4 -4 -5 -18 -20 -33 -30 -27 -28 -48 2 -24 11 9 14 10 9 2 -4 -7
-2 -13 4 -13 6 0 13 7 16 15 10 24 26 17 19 -7 -6 -22 -6 -22 14 2 11 14 22
22 25 20 10 -10 -19 -53 -38 -56 -10 -1 -28 -12 -41 -24 -19 -18 -37 -22 -116
-25 -52 -2 -127 -11 -167 -21 -66 -16 -74 -16 -88 -2 -11 11 -12 18 -5 22 6 4
11 2 11 -5 0 -7 11 -2 25 11 31 29 33 55 5 47 -11 -3 -20 0 -20 5 0 6 -6 5
-15 -2 -9 -8 -15 -8 -15 -2 0 6 -9 10 -20 9 -11 -1 -20 -4 -20 -8 0 -4 -3 -16
-7 -26 -6 -16 -4 -16 17 2 l23 20 -8 -25 c-7 -24 -7 -24 8 -5 9 11 19 17 23
13 4 -5 0 -16 -9 -26 -10 -10 -15 -21 -12 -24 3 -3 -8 -11 -24 -18 -16 -6 -35
-25 -41 -41 -7 -16 -17 -29 -22 -29 -5 0 -6 6 -2 13 4 6 -5 1 -19 -12 -21 -19
-29 -21 -41 -12 -10 9 -20 9 -39 0 -22 -10 -30 -8 -51 8 -18 15 -22 23 -14 31
7 7 16 8 22 3 6 -4 47 -3 91 4 51 8 74 15 63 19 -9 5 -40 3 -68 -3 -67 -14
-67 -15 -74 11 -5 22 -6 22 -19 4 -9 -12 -30 -20 -64 -23 -43 -4 -54 -1 -77
20 l-26 24 76 14 c72 13 78 15 90 46 16 38 18 83 4 83 -5 0 -10 8 -10 17 0 14
3 14 20 -5 11 -12 20 -28 20 -36 0 -8 4 -17 9 -21 6 -3 7 9 4 30 -7 42 9 47
24 8 l11 -28 1 25 c1 14 8 34 17 45 13 18 14 17 8 -15 -4 -26 -3 -31 5 -20 5
8 13 33 17 55 3 22 9 44 11 48 10 17 21 -9 16 -35z m-803 -144 c0 -17 16 -19
23 -1 3 6 6 -1 6 -18 1 -23 -2 -26 -9 -15 -5 8 -10 11 -10 6 0 -5 6 -17 14
-25 9 -10 16 -49 18 -108 4 -66 9 -98 21 -111 9 -9 29 -57 45 -105 25 -75 27
-88 13 -85 -9 2 -22 17 -30 33 -7 17 -25 42 -38 56 -13 15 -23 33 -22 40 1 8
-5 31 -15 51 -9 22 -20 88 -26 155 -12 148 -12 156 0 148 6 -3 10 -13 10 -21z
m1437 -76 c-18 -49 -214 -247 -288 -290 -34 -21 -65 -35 -68 -33 -3 3 12 22
33 42 20 20 49 56 63 80 13 24 30 43 37 43 6 0 13 12 14 26 1 14 5 31 9 37 12
19 12 37 1 37 -7 0 -6 5 1 14 6 7 8 21 5 30 -6 15 1 17 58 15 47 -1 72 3 89
14 13 10 31 17 40 17 15 0 16 -4 6 -32z m-262 1 c4 -6 14 -8 22 -5 11 5 13 1
8 -15 -5 -15 -4 -19 4 -15 14 9 14 -9 0 -36 -10 -18 -9 -20 5 -15 18 7 22 -8
5 -18 -5 -4 -15 -17 -20 -28 -5 -12 -21 -40 -34 -62 -14 -22 -28 -45 -31 -52
-11 -24 -112 -82 -160 -93 -26 -6 -54 -16 -60 -21 -8 -7 -32 -5 -74 6 -35 9
-68 14 -76 11 -7 -3 -18 1 -24 9 -6 8 -24 16 -39 20 -35 7 -91 42 -91 55 0 6
4 9 9 5 5 -3 13 4 16 16 4 12 12 18 21 15 8 -3 14 1 14 9 0 17 12 19 26 5 5
-5 18 -11 29 -13 11 -1 27 -7 35 -12 23 -15 159 -24 219 -14 55 9 101 37 80
49 -6 4 8 18 35 34 73 42 94 89 59 128 -9 10 -24 18 -35 18 -26 0 -23 18 5 23
39 8 46 7 52 -4z m398 -72 c6 4 22 8 34 8 21 1 21 0 6 -17 -14 -15 -14 -18 -1
-18 8 0 23 9 33 20 10 11 23 20 28 20 6 0 0 -11 -13 -25 l-24 -25 27 2 c15 1
27 6 27 10 0 4 5 8 11 8 7 0 9 -9 6 -21 -4 -17 -3 -19 6 -10 17 17 40 14 33
-5 -3 -8 -2 -12 3 -9 5 3 12 1 16 -5 3 -5 1 -10 -4 -10 -6 0 -11 -9 -11 -20 0
-10 -11 -30 -25 -44 -16 -16 -20 -26 -12 -30 19 -7 -24 -38 -46 -32 -14 3 -22
-4 -32 -27 l-14 -32 -1 27 c0 15 4 30 10 33 6 3 -1 17 -15 32 -21 24 -27 25
-50 15 -35 -16 -37 -15 -30 7 5 16 2 18 -15 14 -14 -4 -18 -8 -10 -13 18 -11
8 -43 -18 -56 -15 -7 -20 -14 -13 -19 19 -11 1 -26 -22 -19 -21 6 -21 6 -5
-13 11 -11 15 -27 11 -41 -4 -18 -1 -22 16 -22 16 0 21 6 21 28 1 26 1 26 15
8 8 -11 15 -14 15 -7 0 7 5 9 12 5 7 -5 2 -15 -18 -32 -16 -14 -39 -38 -50
-54 l-22 -29 -13 43 c-17 51 -31 52 -43 4 -13 -48 -26 -46 -22 4 3 38 -2 48
-17 33 -4 -3 -2 -12 5 -20 15 -19 1 -30 -22 -15 -16 10 -20 8 -25 -8 -11 -33
-41 -43 -71 -23 -21 14 -33 15 -65 6 -35 -9 -41 -8 -49 8 -6 10 -17 16 -24 13
-8 -3 -17 -1 -21 5 -3 6 -15 11 -26 11 -10 0 -19 5 -19 11 0 6 -6 9 -12 6 -7
-2 -23 0 -35 4 -25 9 -30 0 -11 -19 10 -10 10 -15 -2 -22 -9 -6 -17 -5 -21 1
-3 6 -9 1 -12 -10 -3 -13 -13 -21 -25 -21 -12 0 -24 -4 -27 -10 -3 -5 -16 -10
-28 -10 -16 0 -18 3 -8 9 9 6 11 16 6 32 -7 22 -6 23 10 9 19 -16 48 -23 39
-9 -3 5 -12 9 -20 9 -8 0 -14 5 -14 10 0 6 9 10 20 10 11 0 20 -5 20 -12 0 -6
9 -1 20 12 24 28 25 34 5 26 -8 -3 -15 -1 -15 4 0 6 28 10 63 11 34 0 73 0 87
0 14 1 30 4 35 9 6 4 24 10 40 14 17 4 39 15 50 25 11 10 36 27 55 37 19 10
37 22 40 25 10 10 55 39 62 39 4 0 5 -7 2 -15 -4 -8 -14 -15 -24 -15 -10 0
-27 -10 -37 -22 -24 -29 -82 -79 -64 -55 11 14 11 17 -1 17 -8 0 -24 -13 -36
-30 -13 -16 -29 -30 -37 -30 -17 0 -20 -35 -5 -45 6 -3 10 0 10 8 0 18 27 30
35 17 9 -15 25 -12 19 3 -3 8 2 20 11 27 12 10 15 10 16 -1 0 -8 4 -4 9 8 6
14 15 21 24 17 8 -3 17 0 21 5 3 6 11 8 17 5 6 -4 8 -2 4 4 -3 6 16 32 45 59
50 48 130 152 142 186 6 15 10 16 27 7 11 -6 26 -7 33 -3z m109 -282 c-24 -47
-44 -67 -155 -149 -164 -123 -190 -135 -97 -44 41 40 97 98 123 128 41 48 128
117 149 119 4 1 -5 -24 -20 -54z m-1311 -76 c11 -11 14 -20 7 -27 -7 -7 1 -12
23 -17 22 -5 62 -34 114 -83 44 -41 92 -82 106 -91 14 -9 47 -35 74 -59 48
-42 48 -42 29 -64 l-19 -22 28 17 c15 10 27 13 27 8 0 -21 -37 -31 -69 -20
-17 6 -31 15 -31 20 0 5 -8 9 -17 9 -23 0 -94 56 -162 128 -67 72 -191 217
-191 225 0 12 64 -7 81 -24z m1070 -88 c-56 -59 -101 -112 -101 -117 0 -8 -23
-25 -92 -67 -30 -19 -39 -21 -37 -9 4 21 -6 20 -57 -9 -54 -31 -58 -32 -147
-26 -111 7 -155 -4 -89 -22 23 -7 48 -9 54 -5 7 4 8 3 4 -4 -4 -8 0 -12 11
-12 10 0 25 -5 33 -10 40 -25 -134 7 -192 35 -37 18 -38 21 -38 70 0 50 -24
95 -51 95 -19 0 -50 -21 -44 -31 4 -5 3 -9 -2 -9 -4 0 -44 39 -88 87 l-79 86
39 -7 c22 -5 51 -9 65 -10 14 -1 50 -18 80 -38 72 -49 159 -86 188 -82 13 2
32 -1 42 -6 15 -8 26 -4 52 18 131 113 208 144 264 107 25 -16 27 -16 54 10
15 15 30 22 34 17 8 -13 -29 -45 -89 -77 -147 -81 -231 -114 -293 -117 -20 -1
-3 -5 38 -9 l75 -6 -98 1 c-53 0 -97 -2 -97 -6 0 -13 188 -9 212 5 38 22 57
40 51 50 -3 6 -1 7 5 3 11 -7 97 43 165 97 20 16 44 26 52 23 8 -3 23 6 35 21
21 27 21 27 27 5 8 -32 23 -27 64 18 20 22 40 40 44 40 4 0 -39 -49 -94 -109z
m-360 72 c16 -10 29 -21 29 -25 0 -8 -163 -118 -176 -118 -4 0 -16 8 -27 18
-19 16 -20 16 -14 0 9 -24 -2 -23 -30 4 -22 21 -24 21 -17 3 7 -18 6 -19 -12
-6 -10 8 -32 26 -48 40 -16 15 -26 20 -21 13 9 -17 -15 -5 -55 27 l-25 20 27
10 c22 8 35 6 70 -14 78 -43 107 -42 179 4 73 46 80 48 120 24z m-746 -203
c-1 -102 -7 -258 -18 -450 -7 -125 -2 -95 37 214 l32 260 13 -125 c16 -157 17
-147 -12 -324 -28 -168 -40 -242 -63 -395 -9 -58 -20 -125 -24 -150 -5 -25 -9
-65 -8 -90 0 -34 4 -20 18 55 l17 100 3 -85 3 -85 9 120 c8 104 55 460 75 565
7 34 7 33 14 -20 4 -30 11 -136 15 -235 7 -188 9 -173 -41 -399 -9 -39 -17
-71 -18 -73 -6 -5 -200 -43 -203 -40 -2 2 1 19 7 38 17 55 50 211 54 251 12
144 19 186 31 212 10 20 11 33 4 41 -6 7 -8 19 -6 26 7 19 19 314 24 582 2
107 4 118 20 115 15 -3 17 -16 17 -108z m112 8 c18 -19 22 -39 26 -118 9 -182
18 -575 14 -570 -8 7 -34 227 -53 430 -9 96 -18 199 -21 228 -6 57 2 64 34 30z
m108 -93 c22 -17 56 -41 76 -53 34 -20 37 -26 43 -84 9 -88 -8 -518 -24 -607
-6 -30 -9 -68 -9 -85 2 -27 2 -28 6 -6 2 14 13 61 23 105 10 44 21 116 24 160
13 176 15 223 9 228 -6 7 -4 249 3 256 2 2 15 -1 27 -6 20 -9 25 -21 30 -70
19 -189 28 -273 33 -310 4 -36 3 -42 -10 -37 -13 5 -16 -2 -16 -32 0 -49 -21
-167 -53 -304 -39 -163 -35 -156 -107 -158 -55 -2 -61 0 -55 16 3 9 8 40 11
67 3 41 2 45 -5 20 -5 -16 -12 -47 -15 -67 -6 -33 -11 -39 -47 -48 -23 -6 -42
-10 -44 -8 -2 3 3 66 26 295 6 62 14 111 18 109 3 -2 6 44 6 102 0 59 3 199 7
312 3 113 3 189 -2 170 l-7 -35 -2 42 c0 23 -4 49 -8 59 -8 21 3 15 62 -31z
m415 -106 c0 -5 7 -9 15 -9 9 0 18 -8 22 -17 3 -10 28 -64 55 -120 46 -96 51
-103 84 -109 23 -4 34 -11 30 -20 -3 -8 0 -11 8 -8 8 3 24 -5 36 -18 13 -13
20 -17 16 -10 -4 6 -3 12 3 12 5 0 15 -8 20 -17 6 -10 11 -13 11 -6 0 8 37 -5
94 -31 52 -24 108 -47 125 -51 18 -4 28 -11 25 -19 -3 -7 4 -12 15 -12 11 0
17 4 15 8 -8 13 4 9 46 -12 22 -11 47 -20 56 -20 10 0 14 -3 10 -7 -4 -4 -36
-8 -70 -9 -35 0 -68 -4 -75 -8 -7 -5 -21 0 -32 10 -10 9 -19 14 -19 10 0 -4
-6 -4 -12 1 -7 4 -17 8 -23 9 -5 0 -15 2 -22 2 -7 1 -10 8 -7 15 3 8 -3 13
-16 13 -11 0 -20 -4 -20 -9 0 -5 -6 -4 -14 2 -9 8 -22 8 -39 2 -21 -8 -26 -6
-37 17 -9 19 -15 22 -17 12 -2 -8 -18 -25 -36 -37 -18 -13 -25 -23 -17 -23 17
0 55 -39 46 -47 -3 -3 -20 8 -38 26 -30 29 -45 36 -75 32 -7 -1 -13 6 -13 17
0 10 -5 23 -12 30 -8 8 -8 15 2 27 10 12 10 15 -2 15 -10 0 -17 13 -20 38 -7
46 -56 154 -68 147 -12 -8 -33 23 -26 40 3 9 2 14 -3 11 -4 -3 -14 7 -21 22
-7 15 -19 39 -27 55 -8 15 -12 31 -9 36 4 5 0 11 -6 14 -7 2 -1 4 15 4 15 0
27 -3 27 -8z m-141 -25 c-19 -23 -20 -44 -1 -37 12 5 14 2 9 -13 -7 -18 -6
-18 7 -1 7 9 15 17 18 17 11 0 -1 -103 -22 -184 -12 -48 -20 -92 -18 -98 6
-18 51 64 52 96 1 30 42 83 54 71 4 -3 -1 -20 -11 -37 -11 -20 -13 -29 -5 -25
7 3 21 8 31 12 9 4 17 3 17 -3 0 -6 -8 -18 -17 -28 -10 -10 -18 -21 -18 -25 0
-4 -3 -11 -7 -15 -5 -4 -8 -12 -8 -17 0 -6 11 2 25 17 24 26 45 34 45 16 0 -5
-6 -13 -13 -17 -7 -4 -18 -21 -26 -38 l-13 -30 21 19 c16 15 21 16 21 5 0 -8
-5 -20 -12 -27 -17 -17 -3 -25 21 -12 21 11 31 -3 11 -15 -5 -3 -15 -15 -21
-27 -11 -20 -11 -20 14 -2 14 11 28 29 32 42 3 13 10 20 14 17 15 -9 1 -43
-24 -59 -23 -15 -26 -30 -12 -53 4 -7 3 -23 -4 -35 -12 -23 -12 -23 10 -4 19
17 21 18 21 2 0 -10 -5 -26 -10 -37 -15 -26 4 -24 24 4 16 22 16 21 10 -13 -4
-19 -8 -51 -9 -70 -4 -47 -20 -107 -35 -125 -10 -12 -10 -15 1 -15 10 0 10 -3
1 -12 -21 -21 -13 -32 9 -12 24 22 53 73 45 81 -2 3 -12 -9 -21 -27 -9 -18
-18 -30 -20 -28 -5 5 60 133 84 166 34 47 35 14 2 -39 -32 -52 -38 -82 -7 -34
9 14 21 23 26 20 5 -3 10 7 12 22 2 16 8 27 16 25 6 -1 12 7 12 18 0 11 5 20
10 20 13 0 13 -3 -1 -37 -24 -58 -33 -73 -46 -73 -7 0 -13 -4 -13 -9 0 -5 -3
-16 -6 -25 -3 -9 -1 -16 5 -16 6 0 11 6 11 13 0 8 9 22 21 33 l20 18 -5 -69
c-5 -64 -5 -68 9 -45 8 14 12 33 9 43 -3 10 1 29 10 42 20 30 20 36 1 29 -8
-4 -15 -2 -15 2 1 11 29 61 31 54 8 -28 4 -79 -7 -95 -22 -31 -16 -43 7 -15
l21 25 -6 -34 c-8 -43 -56 -121 -76 -122 -89 -4 -110 -3 -110 4 0 4 4 7 9 7 5
0 12 8 16 18 5 14 4 15 -6 5 -18 -18 -34 -16 -19 2 11 13 10 14 -4 9 -9 -3
-17 -10 -17 -15 -1 -5 -2 -14 -3 -20 -1 -12 -75 -42 -128 -53 -14 -3 -40 -17
-56 -31 -17 -14 -32 -25 -34 -25 -3 0 3 30 13 68 9 37 20 87 24 112 10 56 12
335 3 312 -7 -18 -8 -13 -14 73 -1 22 -10 102 -19 177 l-16 138 27 35 c15 20
29 33 32 31 3 -3 -1 -13 -9 -22z m-15 -584 c1 -87 -5 -153 -17 -216 -24 -114
-28 -121 -61 -106 l-25 11 30 81 c16 44 28 91 28 103 -1 20 -2 20 -6 2 -2 -11
-13 -40 -25 -64 -11 -25 -22 -60 -25 -78 -3 -18 -10 -33 -15 -33 -6 0 -7 10
-4 23 4 12 16 60 27 107 11 47 25 96 31 110 l11 25 7 -30 c5 -25 7 -18 13 34
4 35 7 96 8 135 0 59 2 67 11 46 6 -14 11 -81 12 -150z m676 -267 c0 -2 -19
-12 -41 -24 -44 -22 -109 -86 -109 -106 0 -16 -12 -17 -26 -3 -11 11 -80 17
-89 8 -3 -3 -3 -13 1 -22 5 -13 9 -14 21 -4 11 9 16 9 23 -1 5 -9 10 -10 14
-2 19 30 25 5 17 -63 -1 -5 -37 -6 -83 -2 -131 10 -178 18 -172 27 3 5 10 7
15 4 5 -4 9 -3 9 1 0 13 -35 33 -57 34 -15 0 -23 6 -23 18 -1 13 -8 9 -30 -17
l-29 -33 -68 6 c-37 4 -90 11 -118 16 -27 5 -102 11 -165 14 -154 7 -380 29
-380 36 0 3 48 14 106 23 76 12 110 14 119 7 9 -8 14 -7 17 1 2 6 30 20 62 30
90 27 144 19 256 -41 88 -47 159 -71 98 -32 -33 20 -35 28 -8 35 13 3 20 0 20
-9 0 -8 7 -14 15 -14 8 0 15 -8 15 -17 1 -16 2 -16 17 2 15 19 15 19 9 -7 -8
-34 7 -37 22 -4 10 22 8 25 -21 37 -18 7 -37 20 -43 28 -9 11 -16 12 -25 5 -8
-6 -23 -14 -34 -18 -18 -7 -18 -5 3 17 12 13 41 29 65 35 23 5 58 16 78 24 26
10 99 13 277 13 133 0 242 -1 242 -2z m-1445 -118 c11 -2 30 -4 43 -4 13 -1
21 -5 18 -10 -3 -4 16 -7 43 -6 40 2 48 0 44 -13 -5 -12 -2 -12 15 -3 11 6 33
11 48 11 27 0 27 0 8 -22 l-19 -22 27 17 c34 21 44 22 28 2 -17 -20 -1 -19 22
2 11 10 18 12 18 4 0 -8 5 -9 19 -1 28 14 36 12 21 -5 -8 -9 -9 -15 -2 -15 6
0 14 5 17 10 3 6 13 10 21 10 9 0 12 -5 8 -11 -4 -7 1 -7 16 1 12 7 20 7 16 2
-4 -6 9 -8 36 -5 29 4 39 3 34 -5 -8 -13 6 -16 18 -5 4 4 25 9 46 10 32 2 38
0 33 -13 -5 -13 -3 -14 13 -6 22 11 95 12 88 1 -2 -4 16 -7 40 -6 43 2 44 1
28 -18 -17 -19 -17 -19 10 -2 31 19 42 22 33 7 -9 -14 9 -12 24 3 10 10 11 8
5 -8 -6 -16 -5 -18 7 -8 7 7 19 13 27 13 12 0 12 -3 1 -17 -11 -13 -8 -13 16
3 16 10 26 14 22 7 -5 -8 6 -10 39 -7 32 3 43 1 39 -7 -5 -7 0 -7 16 1 17 10
24 10 27 1 2 -6 14 -8 28 -5 16 4 24 2 24 -6 0 -10 3 -10 15 0 8 7 15 8 15 3
0 -6 23 -9 55 -6 33 2 55 0 55 -6 0 -6 7 -8 15 -5 8 4 15 1 15 -5 0 -6 6 -11
13 -11 9 0 12 -10 9 -30 -2 -16 -8 -27 -13 -24 -5 3 -9 -2 -9 -11 0 -9 -9 -25
-20 -37 -11 -12 -20 -17 -20 -10 0 6 5 14 10 17 6 3 10 16 9 28 0 21 -1 21
-11 -3 l-10 -25 -9 25 c-14 34 -17 36 -34 14 -9 -13 -14 -14 -15 -5 0 8 -8 4
-20 -10 l-19 -24 -1 28 c0 37 -16 34 -24 -4 -7 -35 -32 -35 -29 0 2 11 -2 21
-7 21 -6 0 -10 -4 -10 -10 0 -5 -7 -10 -16 -10 -10 0 -14 6 -10 15 3 8 2 15
-3 15 -5 0 -12 -11 -15 -25 -10 -38 -26 -30 -27 13 0 34 -1 35 -11 15 -15 -31
-28 -29 -28 4 0 19 -3 24 -10 17 -8 -8 -7 -19 0 -39 11 -30 8 -41 -10 -30 -6
4 -8 15 -5 24 3 10 -1 23 -9 30 -12 10 -14 7 -13 -18 1 -17 -2 -29 -8 -28 -5
1 -10 11 -9 22 1 28 -20 47 -35 32 -9 -9 -14 -9 -20 1 -6 10 -10 10 -21 -3 -8
-10 -9 -15 -1 -15 6 0 11 -9 11 -20 0 -36 -18 -21 -25 22 -7 39 -8 40 -21 23
-10 -14 -11 -21 -3 -26 7 -4 9 -14 6 -24 -4 -9 -11 -13 -17 -10 -6 4 -8 10 -5
15 3 4 -2 21 -10 36 -15 28 -15 29 -21 7 -8 -30 -24 -30 -24 0 l0 22 -18 -23
c-20 -26 -32 -20 -32 17 l0 26 -21 -25 -21 -25 6 27 c5 22 3 26 -9 22 -17 -7
-21 -49 -5 -59 16 -10 12 -25 -6 -25 -10 0 -14 6 -10 15 3 8 1 15 -4 15 -16 0
-11 50 5 56 8 4 15 10 15 16 0 19 -33 -10 -46 -40 -11 -26 -10 -31 3 -37 13
-4 14 -8 4 -18 -10 -9 -15 -8 -27 7 -17 24 -18 68 -1 85 10 10 9 11 -5 6 -21
-8 -31 -50 -18 -75 6 -11 7 -20 3 -20 -13 0 -35 60 -30 80 8 32 -7 23 -20 -11
-13 -32 -38 -32 -28 1 3 10 1 21 -5 25 -6 4 -10 -4 -10 -17 0 -14 -7 -33 -15
-44 -14 -18 -14 -18 -15 6 0 15 5 31 12 38 9 9 9 12 0 12 -7 0 -12 -5 -12 -11
0 -5 -5 -7 -11 -3 -8 5 -10 -4 -7 -30 5 -41 5 -41 -16 -20 -13 12 -14 20 -4
37 10 19 9 20 -4 9 -13 -10 -17 -9 -22 10 -5 15 -9 18 -13 10 -4 -10 -8 -9
-18 4 -11 16 -14 15 -30 -9 -9 -15 -15 -33 -12 -41 4 -10 1 -13 -9 -9 -12 4
-14 15 -11 37 3 17 3 25 0 19 -7 -18 -26 -16 -19 2 3 8 2 15 -3 15 -5 0 -12
-10 -16 -22 -7 -22 -8 -21 -14 7 l-7 30 -24 -37 c-25 -37 -40 -48 -40 -28 0 6
4 10 9 10 5 0 11 11 13 25 6 30 -8 34 -17 5 -9 -29 -28 -25 -23 5 7 33 -10 32
-22 -1 -12 -31 -34 -22 -27 12 6 36 -22 40 -49 7 -24 -29 -31 -25 -14 7 8 16
7 18 -4 14 -8 -3 -16 -14 -19 -25 -6 -22 -27 -26 -27 -5 0 8 7 21 15 30 21 21
19 28 -5 14 -11 -7 -20 -18 -20 -25 0 -7 -7 -13 -15 -13 -18 0 -19 12 -3 28 9
9 9 12 0 12 -6 0 -16 -9 -22 -20 -14 -26 -34 -26 -27 -1 5 20 -20 38 -32 25
-3 -4 -1 -9 6 -11 7 -2 9 -11 6 -19 -3 -8 0 -14 7 -14 6 0 10 -10 8 -22 -3
-24 -30 -30 -73 -18 -19 5 -19 6 4 30 16 17 22 19 18 8 -8 -22 11 -34 26 -18
9 10 9 14 0 17 -7 2 -9 11 -6 19 3 8 0 14 -7 14 -6 0 -8 5 -4 12 4 7 -6 3 -22
-9 -16 -11 -42 -23 -57 -27 -25 -6 -28 -11 -23 -31 8 -30 -10 -34 -19 -5 -4
11 -10 18 -15 15 -4 -3 -13 2 -20 9 -15 19 10 33 70 40 26 3 50 12 57 22 25
34 64 44 153 39 47 -3 94 -7 105 -10z m2130 -85 c-20 -22 -14 -26 17 -9 28 15
35 3 12 -23 -20 -23 -10 -19 39 14 28 20 38 10 12 -12 -24 -20 -10 -23 25 -5
31 16 31 16 21 -4 -16 -30 -13 -34 11 -17 29 21 44 20 27 -1 -13 -15 -11 -16
15 -9 27 7 28 6 15 -10 -12 -16 -12 -17 4 -11 52 21 52 20 27 -7 -23 -26 -29
-27 -80 -23 -30 3 -75 11 -100 17 -25 7 -75 17 -112 23 -65 10 -68 12 -68 39
0 15 3 29 8 29 4 1 26 3 49 4 23 2 52 10 64 19 29 20 37 12 14 -14z"/>
<path d="M2763 1736 c6 -14 -20 -40 -43 -42 -8 -1 -23 -5 -33 -9 -14 -6 -16
-4 -10 11 4 12 3 15 -6 10 -6 -4 -10 -15 -9 -23 2 -11 -16 -27 -52 -46 -30
-17 -57 -33 -60 -37 -9 -12 -40 -19 -40 -9 0 6 -5 7 -11 4 -6 -4 -8 -9 -5 -12
6 -6 -48 -53 -62 -53 -5 0 -15 -7 -22 -15 -17 -20 -153 -86 -186 -90 -19 -2
-33 4 -45 19 -21 26 -38 13 -20 -15 7 -12 10 -23 7 -26 -7 -7 -35 39 -39 65
-5 31 -14 37 -22 13 -3 -12 -11 -19 -16 -15 -5 3 -7 10 -4 15 3 5 -1 6 -10 2
-10 -3 -21 0 -25 8 -5 7 -12 10 -16 7 -3 -4 4 -19 16 -35 12 -16 17 -29 11
-31 -6 -2 -9 -8 -5 -13 7 -12 -10 -11 -22 1 -12 12 -47 2 -38 -11 3 -5 -1 -9
-8 -9 -7 0 1 -8 17 -19 21 -12 32 -15 38 -7 5 8 10 7 16 -2 4 -8 11 -13 15
-13 36 5 43 0 38 -26 -3 -16 -1 -24 4 -20 5 5 9 14 9 20 0 6 12 11 28 10 51
-2 53 -3 37 -14 -13 -10 -13 -10 0 -6 8 3 23 8 33 12 9 4 17 3 17 -2 0 -5 14
-8 31 -5 21 3 34 -1 45 -14 11 -15 13 -15 8 -3 -4 14 3 17 48 16 29 0 60 3 69
7 12 5 18 1 22 -14 3 -13 10 -19 17 -15 8 5 8 11 -1 21 -6 8 -10 16 -8 18 15
11 108 52 103 45 -3 -5 2 -9 11 -9 12 0 15 5 11 16 -5 12 -2 15 9 10 9 -3 18
1 22 10 3 9 13 14 24 11 13 -4 18 0 16 11 -6 38 -16 40 -77 11 -33 -16 -66
-29 -74 -29 -8 0 -18 -4 -21 -10 -11 -18 -25 -11 -25 13 l0 22 -13 -24 c-6
-13 -19 -28 -27 -32 -55 -29 -90 -38 -135 -35 -27 2 -67 5 -87 5 -21 1 -38 6
-38 11 0 6 3 9 8 8 4 -1 20 2 36 7 19 5 31 4 36 -4 5 -9 9 -7 12 7 3 11 18 22
34 26 16 4 31 11 34 15 7 11 99 61 112 61 6 0 6 -6 -3 -17 -7 -10 -9 -15 -5
-11 5 4 14 4 20 -2 8 -6 12 -3 12 11 0 10 -4 19 -8 19 -4 0 -8 5 -8 11 0 6 7
9 15 5 8 -3 14 0 12 7 -1 6 9 13 23 15 22 4 23 2 10 -15 -14 -17 -14 -17 7 0
12 11 27 16 34 11 9 -5 11 -1 7 14 -5 17 -1 23 19 28 14 4 38 20 55 36 16 15
34 26 39 22 6 -3 19 2 31 12 18 17 21 17 31 3 7 -9 18 -14 25 -12 18 7 15 21
-4 19 -9 0 -19 4 -21 9 -3 9 22 12 65 7 7 -1 10 -7 6 -13 -4 -8 -9 -7 -16 2
-8 11 -8 11 -4 -1 3 -8 9 -22 12 -31 3 -10 18 -16 37 -16 l32 -1 -27 10 c-30
10 -37 35 -14 44 8 3 17 13 21 22 5 15 4 15 -12 0 -15 -14 -20 -14 -31 -2 -7
8 -9 14 -5 14 5 0 14 10 22 21 12 20 11 21 -13 17 -18 -4 -26 -1 -26 8 0 8 -5
14 -11 14 -6 0 -9 -6 -6 -14z"/>
<path d="M2810 859 c0 -5 -4 -8 -9 -4 -25 15 -17 -19 17 -71 63 -95 103 -174
87 -168 -15 6 -95 108 -95 122 0 5 -11 19 -25 32 -14 13 -25 19 -25 13 0 -6 7
-16 15 -23 8 -6 17 -22 21 -33 12 -41 91 -122 152 -157 35 -20 60 -40 57 -47
-4 -12 49 -54 103 -82 17 -9 22 -9 22 1 0 7 -8 18 -18 23 -60 33 -81 51 -77
65 4 11 -6 20 -31 29 -26 10 -46 29 -75 73 -21 34 -39 67 -39 74 0 16 -67 164
-74 164 -3 0 -6 -5 -6 -11z"/>
</g>
</svg>
