<?xml version="1.0" standalone="no"?>
<!DOCTYPE svg PUBLIC "-//W3C//DTD SVG 20010904//EN"
 "http://www.w3.org/TR/2001/REC-SVG-20010904/DTD/svg10.dtd">
<svg version="1.0" xmlns="http://www.w3.org/2000/svg"
 width="727.000000pt" height="454.000000pt" viewBox="0 0 727.000000 454.000000"
 preserveAspectRatio="xMidYMid meet">
<metadata>
Created by potrace 1.16, written by Peter Selinger 2001-2019
</metadata>
<g transform="translate(0.000000,454.000000) scale(0.100000,-0.100000)"
fill="#000000" stroke="none">
<path d="M236 4460 c8 -93 3 -111 -25 -103 -18 4 -21 13 -21 54 0 26 -4 51
-10 54 -6 4 -10 -12 -10 -41 l0 -46 -36 7 c-23 4 -34 3 -30 -4 4 -5 2 -12 -4
-16 -5 -3 -10 2 -10 12 0 15 -9 19 -45 21 l-45 2 0 -39 c0 -29 5 -41 18 -44
16 -4 16 -5 -1 -6 -15 -1 -17 -11 -15 -88 1 -49 7 -91 13 -95 6 -5 5 -8 -2 -8
-18 0 -18 -306 -1 -313 10 -4 10 -6 1 -6 -10 -1 -13 -202 -13 -970 l0 -969 67
-7 c38 -4 82 -13 98 -20 42 -18 169 -55 192 -55 13 0 5 -12 -31 -46 -27 -25
-54 -43 -60 -41 -6 3 -38 10 -71 17 -33 7 -66 18 -73 23 -7 6 -25 11 -40 12
-15 1 -39 6 -54 10 l-28 7 0 -174 0 -175 52 50 c29 27 78 74 110 103 31 30 82
72 115 93 32 21 83 62 114 92 58 56 162 123 238 153 41 16 45 16 70 0 14 -10
42 -21 61 -25 19 -4 71 -14 115 -23 46 -9 131 -16 200 -16 l120 -1 -50 -18
c-81 -29 -181 -44 -243 -37 -52 6 -56 5 -41 -9 26 -26 121 -23 239 10 58 15
117 36 131 46 14 10 36 20 50 23 148 31 229 59 229 77 0 4 23 24 50 44 49 36
52 37 111 30 54 -6 65 -12 109 -55 41 -40 95 -112 135 -180 6 -10 16 -24 22
-31 6 -8 28 -63 47 -124 54 -163 119 -285 201 -378 8 -9 15 -21 15 -26 0 -4
11 -25 25 -45 20 -29 75 -148 135 -291 23 -54 30 -89 20 -99 -15 -15 -13 -69
3 -63 6 2 20 0 31 -5 10 -6 16 -6 13 -1 -3 5 7 25 24 44 16 19 29 40 29 48 0
7 20 31 45 53 25 22 45 44 45 49 0 5 -9 1 -21 -10 -12 -11 -35 -19 -54 -19
-30 0 -33 2 -26 22 5 12 18 22 33 24 15 2 41 23 68 55 68 80 156 167 168 167
7 0 12 -7 12 -15 0 -8 5 -15 10 -15 6 0 -8 -19 -30 -41 -23 -23 -39 -44 -36
-46 8 -8 46 23 133 108 46 44 83 76 83 72 0 -7 -111 -123 -281 -292 -60 -60
-126 -133 -187 -205 -12 -15 -27 -24 -32 -21 -6 3 -7 -1 -4 -9 3 -9 10 -13 15
-10 5 3 9 -1 9 -8 0 -10 3 -9 11 2 8 12 9 10 4 -7 -4 -13 -1 -25 8 -30 8 -4
25 -29 37 -55 12 -27 25 -47 29 -45 10 5 59 -51 52 -59 -3 -4 3 -4 13 0 15 5
16 4 8 -7 -8 -10 -6 -20 7 -40 10 -15 20 -25 23 -22 3 3 13 -10 22 -30 18 -38
26 -41 58 -24 14 8 23 8 31 0 14 -14 30 -15 22 -1 -3 5 7 3 22 -5 15 -8 37
-15 49 -15 11 0 29 -6 39 -14 13 -9 27 -11 40 -6 12 5 28 4 36 -1 22 -14 130
-8 167 10 28 13 31 17 18 27 -13 9 -8 14 28 33 24 12 50 29 57 38 13 15 11 15
-18 -1 -46 -23 -41 -12 7 20 31 21 45 25 61 17 20 -8 18 -12 -31 -48 -28 -22
-56 -39 -61 -38 -5 2 -9 -2 -9 -7 0 -22 30 -8 79 36 28 25 49 50 46 54 -3 5
21 30 52 56 32 26 57 51 55 56 -1 5 1 7 6 4 5 -3 22 8 37 24 20 21 31 26 36
18 9 -14 48 28 49 53 0 8 16 33 36 54 28 31 37 36 44 24 7 -9 5 -18 -5 -25 -8
-6 -15 -17 -15 -24 0 -7 -24 -34 -52 -60 -29 -27 -50 -51 -47 -55 16 -15 176
184 161 200 -4 4 3 4 15 1 16 -5 25 -2 33 15 7 12 8 19 2 15 -15 -9 -11 47 5
69 12 15 14 16 10 3 -4 -10 -2 -20 3 -23 6 -4 10 -2 10 4 0 5 3 16 6 25 4 10
1 16 -7 16 -19 0 -62 47 -54 60 4 6 -1 7 -12 3 -10 -3 -15 -3 -11 2 4 4 -1 24
-12 45 -11 21 -16 40 -13 44 4 3 0 6 -9 6 -14 0 -44 47 -39 63 1 5 -3 6 -9 2
-8 -5 -8 -33 0 -55 2 -3 2 -8 1 -12 0 -4 6 -5 14 -2 14 6 16 -1 30 -69 2 -9 0
-15 -5 -12 -4 3 -13 -2 -20 -10 -10 -12 -9 -15 8 -15 31 0 36 -17 13 -49 -12
-16 -21 -34 -21 -39 0 -21 -56 -51 -91 -49 -28 2 -35 6 -34 22 1 11 11 25 23
31 35 18 39 26 7 14 -17 -6 -32 -12 -35 -12 -3 0 -11 -3 -18 -6 -20 -7 -37 14
-25 30 19 24 24 51 10 45 -8 -3 -14 1 -14 9 0 7 3 11 7 9 3 -2 30 19 60 46
l55 49 -47 -30 c-26 -17 -53 -28 -58 -25 -6 4 -18 1 -26 -6 -12 -10 -13 -9 -8
6 6 14 4 16 -6 10 -8 -5 -11 -4 -6 3 3 6 2 13 -3 16 -5 4 -8 22 -6 42 2 26 0
34 -10 30 -20 -7 -36 14 -25 34 8 14 5 16 -16 12 -20 -4 -23 -1 -17 13 5 14 3
16 -8 10 -8 -4 2 9 21 30 32 35 33 37 8 22 -16 -10 -28 -14 -28 -10 0 4 -14
-6 -32 -23 -17 -16 -27 -22 -22 -14 22 37 12 64 -14 38 -9 -9 -12 -7 -12 10 0
25 -3 26 -33 12 -12 -6 1 10 28 36 28 25 41 42 30 36 -11 -6 -29 -20 -39 -31
-19 -21 -42 -29 -31 -11 3 5 -1 10 -9 10 -8 0 -19 8 -25 17 -8 16 -12 16 -38
3 -15 -8 -39 -26 -53 -39 l-25 -24 27 16 c29 18 40 12 33 -22 -2 -12 1 -21 8
-21 7 0 6 -4 -3 -10 -8 -5 -11 -12 -7 -16 3 -4 13 -1 22 6 12 10 15 10 15 -3
0 -18 -45 -28 -61 -13 -9 8 -10 8 -5 -1 4 -8 1 -13 -8 -13 -12 0 -16 10 -16
36 0 20 -4 33 -10 29 -6 -4 -7 1 -3 12 8 24 90 121 112 133 28 15 84 22 76 10
-9 -14 7 -12 28 5 21 15 41 10 72 -17 11 -10 35 -30 53 -45 21 -16 32 -33 29
-43 -3 -10 3 -16 16 -17 11 -1 33 -15 50 -30 l30 -28 -18 28 c-20 31 -15 46 8
23 13 -13 17 -13 26 -2 9 11 -5 32 -69 99 -83 87 -111 105 -131 81 -9 -11 -7
-14 10 -14 12 0 21 -6 21 -15 0 -8 5 -15 10 -15 6 0 10 -7 10 -16 0 -8 4 -13
8 -10 5 3 9 -1 9 -8 0 -11 -6 -10 -26 3 -65 40 -73 49 -63 66 7 13 4 23 -9 36
-11 11 -22 19 -26 19 -3 0 -14 7 -24 16 -21 19 -67 21 -97 5 -12 -7 -27 -9
-32 -6 -5 3 -11 1 -15 -5 -3 -5 -12 -10 -18 -10 -7 0 10 20 37 44 31 29 43 45
35 48 -8 3 6 14 31 26 25 12 34 19 20 16 -24 -5 -24 -4 -6 10 11 9 28 16 38
16 10 0 18 3 18 8 0 4 28 18 62 31 34 13 72 33 83 44 35 33 72 57 79 50 3 -3
6 1 6 10 0 10 4 17 10 17 5 0 7 -6 4 -14 -3 -7 1 -16 10 -19 8 -3 17 1 20 9 3
9 10 12 16 9 5 -3 10 1 10 9 0 9 5 16 11 16 6 0 8 -8 4 -19 -7 -22 10 -37 21
-20 4 8 14 -1 25 -22 17 -33 18 -33 20 -9 1 20 3 18 8 -10 12 -62 2 -119 -26
-137 -23 -15 -25 -15 -41 8 -24 35 -69 76 -89 81 -10 3 -27 2 -38 -2 -17 -6
-14 -9 19 -18 39 -11 76 -37 76 -54 0 -5 -8 -4 -18 1 -15 8 -19 6 -19 -7 0 -9
4 -23 10 -30 12 -15 10 -18 -35 -37 -23 -9 -39 -11 -43 -5 -3 6 -14 10 -23 9
-14 0 -13 -2 4 -10 11 -6 26 -23 32 -37 6 -15 9 -18 7 -7 -4 17 6 25 63 49 37
15 79 34 94 42 37 20 62 18 103 -10 20 -14 41 -26 47 -28 6 -2 11 -19 11 -36
0 -25 4 -31 15 -27 16 6 42 -11 42 -27 0 -6 -6 -6 -14 1 -25 21 -28 -6 -6 -49
13 -26 18 -49 14 -62 -6 -21 -7 -21 -20 -3 -27 37 -22 8 7 -38 35 -57 38 -73
5 -32 -36 44 -39 27 -5 -23 16 -24 24 -40 18 -37 -6 4 -3 -4 6 -19 17 -26 43
-38 29 -14 -4 8 -3 10 2 5 5 -5 9 -12 9 -15 1 -13 37 -62 46 -62 24 0 108 -99
129 -153 21 -53 22 -65 13 -150 -6 -55 -6 -94 0 -98 5 -3 -3 -19 -17 -34 -37
-40 -48 -24 -36 50 5 32 14 63 20 69 16 16 12 53 -16 132 -27 76 -48 97 -24
24 10 -31 11 -45 2 -63 -7 -12 -10 -33 -7 -46 5 -26 -40 -124 -82 -179 -14
-18 -23 -35 -21 -37 6 -6 32 19 62 58 15 21 30 36 33 33 5 -5 -37 -69 -50 -74
-4 -2 -22 -16 -40 -30 -23 -20 -28 -21 -18 -7 7 11 -3 2 -23 -20 -20 -22 -44
-52 -53 -68 -10 -15 -23 -27 -30 -27 -6 0 -18 -8 -25 -18 -7 -10 -22 -24 -33
-30 -17 -10 -17 -11 -3 -12 9 0 20 4 23 10 3 5 16 15 28 22 20 10 21 10 8 -5
-12 -15 -150 -87 -167 -87 -4 0 5 11 21 24 27 23 23 43 -5 25 -8 -5 -11 -9 -6
-9 5 0 2 -8 -7 -17 -8 -10 -16 -22 -17 -27 -3 -15 24 -25 37 -14 7 5 18 8 25
6 7 -3 31 1 53 8 53 15 111 50 94 56 -9 3 -8 6 3 10 18 7 19 -15 1 -33 -15
-15 -198 -97 -270 -120 -35 -11 -65 -25 -68 -29 -3 -5 7 -5 22 0 16 5 63 20
106 33 42 14 77 22 77 18 0 -11 -121 -62 -131 -55 -5 3 -9 0 -9 -7 0 -7 -2
-10 -6 -7 -3 3 -25 0 -50 -8 -39 -12 -48 -12 -60 0 -12 13 -8 17 26 32 22 10
35 21 30 24 -6 4 7 15 30 25 22 10 38 20 36 22 -2 3 -18 -3 -35 -12 -18 -9
-37 -13 -43 -9 -7 5 -8 3 -3 -6 6 -10 3 -12 -11 -7 -18 7 -18 7 0 -8 23 -18
14 -20 -17 -4 -12 7 -19 8 -15 4 13 -13 -13 -35 -40 -35 l-25 0 27 21 c14 11
24 25 21 30 -4 5 -1 9 6 9 7 0 10 2 7 5 -3 3 -13 2 -22 -1 -13 -5 -15 -9 -5
-15 8 -5 -3 -11 -30 -19 -23 -6 -39 -15 -36 -19 7 -13 -43 -28 -97 -30 -56 -2
-69 12 -28 29 16 7 27 17 24 22 -4 7 -9 6 -13 -1 -4 -6 -30 -12 -58 -13 -28
-2 -49 -6 -46 -11 2 -4 0 -7 -6 -7 -5 0 -13 5 -16 10 -4 6 -16 8 -28 4 -12 -4
-34 -8 -49 -9 -24 -2 -26 0 -17 16 5 11 17 19 27 20 9 0 12 3 5 5 -6 3 -35 -2
-64 -10 -58 -17 -77 -14 -34 6 l27 12 -26 7 c-15 4 -40 4 -56 -1 -17 -5 -28
-5 -25 0 3 4 -2 11 -11 14 -10 4 -13 2 -8 -6 5 -7 -2 -9 -22 -5 -31 6 -68 -8
-59 -22 9 -16 -27 -21 -67 -11 -33 10 -38 13 -27 26 11 13 9 14 -16 2 -23 -10
-29 -10 -33 0 -2 7 -10 18 -17 26 -8 7 -11 17 -7 20 3 4 -3 9 -14 12 -15 4
-20 12 -18 31 2 24 2 24 -18 6 -21 -18 -21 -18 -7 5 9 15 11 25 4 30 -6 4 -10
17 -9 29 1 20 0 21 -22 6 -13 -8 -24 -19 -24 -24 0 -5 -9 0 -21 12 l-21 21 29
30 c23 26 24 29 6 19 -12 -6 -25 -16 -28 -21 -4 -6 -11 -7 -17 -4 -5 4 -22 -2
-36 -13 -15 -11 -44 -26 -65 -33 -20 -8 -37 -17 -37 -20 0 -4 -25 -17 -55 -29
-30 -13 -55 -26 -55 -30 0 -3 -15 -12 -33 -20 -17 -7 -45 -20 -62 -29 -25 -13
-72 -14 -300 -11 -409 6 -443 4 -533 -27 -51 -17 -102 -27 -152 -29 -41 -2
-88 -7 -105 -13 -16 -6 -44 -13 -61 -16 l-32 -5 -4 83 c-3 66 -10 92 -31 130
-15 27 -27 52 -27 56 0 4 13 13 30 20 16 7 30 16 30 21 0 16 -17 18 -45 3 -61
-31 -32 18 34 59 31 19 50 21 147 22 93 0 115 -3 131 -18 23 -20 143 -24 190
-6 15 6 76 14 135 19 100 8 209 34 261 61 12 7 52 34 89 61 100 73 182 112
290 137 l97 24 5 36 c2 20 5 76 5 125 0 79 -2 89 -20 93 -14 4 -19 14 -19 39
0 33 -1 34 -44 34 -33 0 -49 -6 -69 -26 l-25 -25 -4 23 c-2 19 -10 24 -40 26
-43 4 -88 -31 -136 -104 l-30 -44 -6 112 c-3 62 -9 156 -12 210 -6 91 -5 96
15 103 21 6 30 35 11 35 -5 0 -10 14 -10 30 0 39 -16 39 -25 0 -4 -17 -11 -30
-17 -30 -10 0 -6 -142 8 -310 3 -41 3 -72 -1 -68 -4 4 -23 -6 -41 -22 -46 -40
-91 -52 -216 -57 -63 -3 -108 -9 -108 -15 0 -7 42 -9 118 -6 104 4 124 7 175
33 33 15 62 35 65 44 4 9 9 -13 12 -49 4 -48 1 -79 -13 -120 -11 -30 -29 -102
-41 -160 l-21 -105 -55 -18 c-95 -32 -191 -47 -402 -63 -61 -5 -85 -3 -112 10
-87 41 -270 25 -342 -31 -27 -20 -34 -22 -34 -9 0 8 -9 35 -19 58 -42 92 -61
138 -61 144 0 3 -14 35 -30 69 -25 52 -28 68 -20 90 11 29 13 146 4 182 -4 13
-12 23 -19 23 -10 0 -12 -17 -8 -74 3 -44 1 -94 -6 -121 -10 -41 -9 -51 8 -83
31 -57 81 -171 81 -185 0 -7 9 -29 20 -50 11 -20 20 -44 20 -53 0 -9 18 -53
40 -97 50 -104 70 -161 70 -201 0 -41 -12 -57 -40 -54 -32 4 -37 -18 -6 -26
23 -6 24 -9 14 -31 -16 -36 0 -45 25 -13 16 19 35 29 67 34 25 3 55 13 67 20
14 9 52 14 105 14 68 0 94 5 143 27 57 25 69 27 263 31 112 2 211 1 219 -3 13
-4 10 -10 -14 -28 -54 -40 -97 -81 -158 -152 -33 -39 -64 -73 -70 -77 -5 -4 2
-8 16 -8 17 0 32 9 42 23 34 51 166 178 213 206 l52 29 6 -86 c3 -48 9 -106
12 -129 l6 -43 882 1 c865 1 880 2 811 19 -57 15 -64 18 -35 19 19 0 66 -8
104 -19 38 -11 72 -17 75 -15 2 3 2 5 0 5 -2 0 -22 7 -44 14 l-40 14 30 14
c17 7 41 22 53 33 13 11 33 28 45 38 16 14 36 18 87 16 100 -3 111 -8 69 -31
-19 -11 -26 -17 -16 -14 27 8 20 -11 -13 -34 -17 -12 -28 -26 -24 -31 3 -5 -5
-13 -18 -18 -15 -7 53 -9 197 -9 121 1 202 3 180 5 -46 5 -65 18 -65 43 0 11
-12 23 -32 30 -20 7 -28 14 -20 17 8 3 24 1 35 -5 12 -6 46 -16 76 -23 l53
-12 56 56 c51 51 54 56 39 72 -26 25 -20 31 6 7 29 -27 40 -28 32 -2 -4 12 -2
20 5 20 6 0 9 -4 5 -9 -3 -6 3 -15 14 -20 28 -16 35 -13 20 6 -10 11 -10 14
-1 9 19 -12 14 21 -5 34 -15 9 -14 10 7 4 14 -3 31 -13 38 -22 8 -11 16 -13
20 -7 10 14 32 17 32 5 0 -6 -5 -10 -10 -10 -6 0 -24 -14 -42 -30 -19 -18 -34
-26 -38 -20 -4 6 -14 2 -25 -11 -11 -11 -15 -19 -10 -17 6 2 10 -1 10 -7 0 -5
-3 -9 -7 -8 -3 1 -11 -11 -17 -27 -9 -27 -8 -30 12 -31 21 -1 21 -1 -2 -8 -69
-19 4 -42 124 -40 l50 1 -72 16 c-40 9 -73 19 -73 24 0 4 4 8 8 8 19 0 127
-32 138 -40 15 -13 604 -13 604 0 0 5 -13 16 -29 24 -16 9 -31 23 -35 32 -5
13 -9 14 -21 4 -12 -10 -15 -10 -15 0 0 9 -4 9 -16 -1 -15 -12 -16 -11 -8 11
5 14 9 54 8 90 0 54 -5 72 -27 104 -40 58 -87 86 -141 86 -26 0 -46 4 -46 8 0
15 -90 52 -128 52 -20 0 -43 4 -51 9 -13 8 13 16 84 24 17 2 38 7 48 12 13 5
16 3 12 -7 -10 -25 79 -48 197 -51 59 -2 111 -6 114 -10 4 -4 4 -7 0 -7 -4 0
0 -8 10 -17 11 -12 13 -18 5 -21 -9 -3 -9 -7 0 -18 13 -15 45 -19 53 -5 3 4
29 4 57 0 28 -5 71 -9 95 -10 24 -2 44 -6 44 -11 0 -4 11 -8 24 -8 14 0 28 -5
31 -10 3 -6 1 -10 -4 -10 -6 0 -11 -4 -11 -9 0 -5 8 -7 19 -4 10 3 22 0 25 -6
4 -6 19 -11 33 -11 24 0 25 -2 18 -37 -4 -21 -10 -75 -13 -120 -6 -73 -5 -83
9 -83 13 0 18 15 23 83 3 45 9 112 12 149 l6 67 57 -31 c50 -27 125 -96 234
-216 21 -23 44 -43 50 -44 7 -1 -60 -5 -148 -8 -88 -3 237 -7 723 -8 l882 -2
0 343 c-1 317 -6 376 -25 272 -4 -22 -33 -94 -65 -160 -32 -66 -61 -131 -65
-145 -9 -32 -58 -124 -67 -128 -5 -2 -8 -10 -8 -18 0 -19 -50 -125 -66 -142
-10 -9 -135 -12 -558 -12 -300 0 -546 3 -546 8 0 4 -16 16 -35 26 -19 11 -52
40 -72 65 -58 72 -164 169 -208 191 l-40 20 150 2 c253 5 343 -1 391 -22 24
-11 50 -20 58 -20 8 0 18 -5 21 -10 3 -6 47 -10 97 -10 51 0 105 -4 122 -10
17 -5 53 -15 80 -22 27 -7 56 -23 66 -36 10 -12 23 -22 29 -22 16 0 14 26 -4
43 -17 18 -10 27 21 27 13 0 25 4 28 9 8 12 -18 21 -42 14 -17 -4 -22 1 -27
31 -11 54 1 102 47 196 22 47 44 94 48 105 34 91 69 171 127 292 l44 92 -17
63 c-15 59 -14 89 2 161 5 21 3 27 -10 27 -9 0 -16 -7 -16 -15 0 -8 -3 -15 -7
-15 -14 0 -13 -104 0 -161 l14 -57 -53 -108 c-29 -60 -54 -114 -54 -121 0 -7
-8 -27 -18 -45 -10 -18 -22 -45 -25 -60 l-7 -27 -55 34 c-45 27 -70 34 -135
40 -94 8 -196 -1 -227 -21 -26 -16 -132 -19 -183 -4 -19 6 -93 15 -165 21 -71
5 -134 14 -139 19 -6 6 -19 10 -30 10 -12 0 -40 9 -63 20 -33 15 -43 24 -43
43 0 34 -48 221 -70 273 -11 26 -15 46 -10 49 6 4 10 29 10 57 0 48 1 50 18
36 39 -33 96 -58 155 -68 77 -12 227 -13 227 -1 0 5 -44 11 -97 14 -54 3 -120
10 -147 16 -51 11 -115 45 -129 68 -5 7 -13 11 -18 7 -7 -4 -9 22 -5 77 18
260 18 309 2 309 -9 0 -16 8 -16 19 0 28 -11 52 -21 46 -4 -3 -6 -20 -2 -37 5
-28 4 -30 -16 -23 -31 9 -27 -13 5 -27 l27 -13 -6 -155 c-4 -85 -7 -186 -7
-225 -1 -64 -2 -68 -15 -50 -108 148 -189 194 -220 123 -8 -18 -14 -27 -15
-21 0 18 -77 55 -108 51 -21 -2 -29 -11 -36 -38 -6 -19 -19 -42 -30 -51 -17
-14 -18 -21 -9 -67 6 -30 6 -57 1 -66 -5 -9 -6 -43 -2 -76 6 -51 10 -60 26
-60 11 0 67 -11 124 -25 103 -25 198 -72 324 -160 113 -79 223 -103 562 -121
101 -5 131 -4 144 7 22 18 234 18 285 1 34 -12 96 -68 86 -78 -2 -3 -16 1 -30
7 -14 6 -34 8 -44 5 -15 -6 -12 -11 20 -27 41 -22 43 -25 23 -48 -29 -34 -51
-116 -51 -188 l1 -72 -46 6 c-25 3 -52 12 -61 19 -11 10 -44 14 -109 14 -78 0
-107 5 -174 29 -109 39 -138 41 -472 31 -329 -9 -419 -4 -490 31 -27 13 -51
27 -54 30 -3 3 -85 45 -182 93 -159 78 -178 90 -178 112 0 32 30 176 39 189 4
6 15 35 25 65 10 30 27 74 37 97 10 24 19 45 19 47 0 6 58 136 71 160 6 10 19
34 30 52 10 19 29 51 40 72 12 20 24 39 28 42 3 3 18 23 33 45 15 22 38 51 50
65 25 27 108 190 108 212 0 8 4 18 8 24 4 5 16 36 27 69 19 59 70 165 85 175
4 3 19 24 33 47 44 70 134 151 180 164 64 17 111 16 131 -4 10 -10 31 -24 47
-32 16 -9 29 -19 29 -24 0 -24 96 -64 174 -73 51 -6 96 -18 123 -33 53 -29
198 -72 275 -81 77 -8 158 3 158 23 0 12 -6 13 -22 7 -58 -20 -239 2 -330 41
-31 12 -26 13 62 8 93 -4 152 1 340 32 66 11 101 22 117 36 19 19 25 20 60 9
95 -32 223 -111 305 -190 35 -33 72 -63 83 -66 23 -8 105 -68 153 -113 18 -17
35 -31 37 -31 3 0 5 650 5 1445 l0 1445 -300 0 c-233 0 -300 -3 -300 -12 0
-10 -2 -10 -8 0 -6 9 -37 12 -118 10 l-109 -3 -6 -45 -6 -45 -1 48 -2 47
-1708 0 -1709 0 0 -30 c0 -16 4 -30 9 -30 4 0 8 -13 8 -30 0 -16 -4 -30 -10
-30 -5 0 -10 -6 -10 -13 0 -10 -43 -20 -157 -37 -87 -12 -162 -27 -168 -32 -9
-9 33 -5 90 8 20 5 20 5 1 -10 -19 -16 -19 -16 -1 -16 18 0 18 -1 2 -17 -14
-15 -21 -15 -37 -5 -16 10 -18 9 -14 -3 4 -8 1 -15 -5 -15 -6 0 -11 -6 -11
-14 0 -8 -6 -17 -12 -20 -21 -8 160 4 267 18 58 8 104 10 109 5 6 -6 4 -9 -5
-9 -7 0 -59 -7 -114 -14 -144 -21 -338 -44 -425 -51 -41 -3 -91 -9 -110 -13
-30 -5 -25 -7 45 -17 60 -7 80 -14 80 -25 0 -11 -7 -14 -25 -10 -14 2 -43 3
-65 2 -22 -1 -87 -3 -145 -4 -58 -2 -113 -7 -123 -12 -10 -5 -88 -3 -180 4
-181 14 -169 14 -325 2 -62 -4 -117 -13 -124 -20 -12 -12 -9 -14 27 -16 18 -1
20 -8 20 -58 0 -31 3 -54 8 -51 4 2 7 -3 7 -12 0 -12 -5 -15 -17 -10 -10 4
-49 12 -86 19 -37 6 -65 15 -61 19 8 7 -22 56 -45 73 -12 10 -11 13 8 24 13 7
37 9 56 6 19 -4 36 -3 39 2 3 5 -27 12 -66 16 -61 5 -72 4 -83 -11 -8 -10 -17
-15 -21 -10 -15 14 34 47 71 47 19 0 35 5 35 10 0 6 -7 10 -15 10 -8 0 -19 9
-25 20 -6 11 -17 20 -24 20 -20 0 -17 50 3 51 14 0 14 1 1 7 -16 7 -16 19 -4
86 4 24 3 37 -2 33 -6 -3 -8 20 -6 58 4 65 -8 105 -32 105 -11 0 -13 -26 -12
-127 1 -71 5 -134 10 -141 5 -9 0 -22 -13 -36 -24 -26 -41 -96 -23 -96 6 0 9
-7 6 -15 -10 -25 6 -124 23 -140 19 -19 22 -15 -56 -55 -35 -17 -91 -58 -124
-91 -60 -58 -62 -59 -107 -54 -91 11 -145 13 -156 4 -7 -6 -27 7 -56 38 -25
27 -87 91 -136 143 -131 137 -154 164 -142 168 5 2 10 10 10 18 0 8 7 17 15
20 21 9 12 49 -11 49 -10 0 -23 10 -29 23 -5 12 -16 22 -23 22 -9 0 -12 12
-10 38 3 37 3 37 -31 34 -19 -2 -31 0 -27 6 3 5 -1 18 -9 28 -13 18 -14 18
-21 1 -3 -10 -2 -23 4 -29 6 -6 8 -17 5 -24 -3 -10 0 -12 10 -9 18 8 33 -25
15 -36 -8 -5 -9 -11 -1 -21 5 -7 13 -22 17 -33 6 -17 4 -17 -18 4 -20 18 -23
28 -16 42 6 10 6 20 1 23 -5 3 -11 -3 -14 -15 -5 -19 -8 -18 -61 16 -30 19
-59 35 -64 35 -9 0 -22 101 -22 173 0 31 -3 37 -21 37 -19 0 -20 -4 -13 -80z
m-124 -132 c-17 -17 -15 -26 4 -24 9 0 18 -7 19 -16 2 -10 0 -18 -4 -18 -5 0
-6 -12 -3 -26 4 -25 3 -26 -22 -22 -18 4 -26 1 -26 -8 0 -9 11 -14 30 -14 17
0 30 -2 30 -4 0 -2 3 -11 6 -20 5 -13 -1 -16 -30 -16 -29 0 -36 -4 -36 -20 0
-16 7 -20 33 -22 l32 -1 -30 -4 c-28 -4 -30 -7 -28 -41 1 -20 4 -67 6 -105 l3
-67 -16 33 c-9 19 -17 40 -18 48 -11 102 -13 199 -5 199 6 0 10 27 9 61 -1 54
2 63 24 80 29 21 40 25 22 7z m3326 -426 c33 4 42 14 42 52 0 40 9 29 12 -16
4 -60 28 -35 30 31 l2 56 3 -50 c5 -60 12 -68 47 -59 18 4 29 16 35 38 l9 31
1 -28 c1 -15 -8 -38 -20 -50 -17 -18 -18 -23 -5 -25 20 -4 32 -68 16 -87 -13
-16 -6 -65 10 -65 6 0 10 5 10 12 0 6 7 3 16 -8 8 -10 13 -13 9 -6 -8 15 0 15
40 1 27 -10 31 -16 27 -40 -3 -17 0 -29 7 -29 6 0 11 12 11 26 0 14 5 24 11
22 11 -4 11 -10 3 -45 -6 -21 -9 -22 -220 -23 -167 0 -214 2 -215 12 0 10 -2
10 -6 1 -6 -15 -103 -18 -103 -4 0 6 4 12 9 15 5 3 9 24 9 46 1 38 -1 40 -31
42 -18 0 -42 0 -55 -1 -22 -2 -22 -1 -5 19 12 13 30 20 55 20 40 0 68 21 68
50 0 10 5 22 10 25 6 3 10 -3 10 -14 0 -14 5 -19 16 -14 11 4 14 1 12 -10 -2
-9 2 -15 7 -14 6 1 9 4 9 7 -16 56 -15 72 5 77 21 5 27 19 34 78 3 19 5 13 6
-18 1 -57 21 -55 21 2 0 21 3 60 8 87 6 43 7 37 10 -49 l3 -98 27 3z m2780
110 c8 -2 12 -28 13 -89 1 -91 16 -84 18 7 1 25 6 52 11 60 7 11 8 5 4 -20
l-5 -35 15 25 15 25 1 -25 c1 -14 4 -19 7 -12 7 18 23 15 23 -5 0 -21 16 -6
23 22 3 14 5 11 6 -10 1 -16 6 -37 11 -45 7 -11 10 0 10 38 0 37 3 51 11 46 8
-4 10 -28 7 -68 -3 -34 -2 -74 2 -91 l8 -30 1 27 c1 31 21 49 21 19 0 -32 20
-25 21 7 l1 27 8 -25 8 -25 1 28 c1 15 6 27 11 27 7 0 8 -13 4 -35 -8 -42 9
-47 25 -7 l11 27 -3 -33 c-3 -25 0 -32 10 -28 23 9 35 -42 27 -125 l-6 -78
-52 45 c-45 39 -52 49 -48 74 4 30 4 30 -43 30 -36 0 -69 11 -137 45 -82 41
-181 76 -295 105 -30 8 -43 16 -43 28 0 10 8 18 18 19 53 3 71 9 75 25 3 12
15 18 34 19 15 0 37 4 48 8 17 7 76 8 123 3z m-4610 -122 c99 -46 187 -141
251 -272 28 -56 63 -148 78 -203 23 -89 26 -119 27 -275 0 -149 -3 -188 -22
-263 -46 -182 -110 -306 -211 -408 -89 -89 -160 -122 -261 -123 -41 -1 -89 3
-106 7 -29 7 -33 4 -107 -89 -89 -112 -83 -118 -92 90 -6 138 -6 139 -36 170
-17 17 -53 76 -80 131 -146 295 -145 666 2 963 78 159 197 269 326 302 64 16
159 4 231 -30z m4232 -5 c277 -49 497 -151 646 -300 230 -230 196 -524 -85
-736 -36 -28 -98 -66 -137 -85 l-72 -36 -11 -86 c-6 -48 -14 -115 -17 -148
l-7 -62 -193 93 -193 93 -73 -10 c-41 -6 -138 -8 -218 -5 -615 24 -1082 348
-1023 710 49 294 401 525 893 586 106 14 377 5 490 -14z m1340 -270 c-1 -49
-5 -124 -9 -165 l-6 -75 -194 -3 -194 -2 7 142 c3 79 9 153 12 165 8 27 29 30
233 29 l154 -1 -3 -90z m-3212 -40 c68 -20 130 -70 158 -125 l23 -45 0 -465
c1 -429 -1 -468 -18 -505 -24 -53 -75 -103 -131 -129 -43 -20 -65 -21 -502
-26 l-458 -5 -105 -87 c-57 -49 -106 -88 -108 -88 -2 0 -50 40 -107 89 -92 79
-108 89 -151 94 -94 11 -175 64 -217 141 -15 28 -17 76 -17 511 0 466 1 481
21 519 27 52 80 94 146 117 49 17 101 18 734 19 581 0 688 -2 732 -15z m-3043
-132 c-7 -62 -18 -123 -23 -123 -3 0 -21 18 -40 41 -33 38 -53 109 -30 109 4
0 8 4 8 10 0 11 -32 1 -41 -13 -3 -5 -9 1 -12 12 -3 12 -1 19 4 15 5 -3 9 1 9
8 0 9 2 10 8 1 5 -8 18 -9 42 -3 19 4 27 8 16 9 -15 1 -16 4 -6 15 6 8 18 12
26 9 8 -3 14 1 15 8 0 8 6 -7 13 -33 7 -26 12 -55 11 -65z m6150 -908 c-1 -78
-12 -192 -20 -205 -11 -17 -44 -11 -56 11 -9 17 -13 19 -20 8 -4 -7 -10 -11
-11 -9 -2 3 -2 63 0 133 l4 128 52 -3 51 -3 0 -60z m142 47 c8 -5 9 -39 2
-131 -5 -69 -11 -127 -14 -129 -2 -2 -24 -7 -50 -9 l-45 -6 0 59 c0 33 3 96 7
142 l6 82 41 0 c23 0 46 -4 53 -8z m-1256 -112 c22 -12 25 -35 7 -47 -7 -4
-74 -8 -149 -9 -75 0 -140 -3 -145 -6 -13 -7 -191 16 -178 24 5 4 58 7 116 7
58 0 113 4 122 7 13 5 106 20 199 33 5 1 17 -4 28 -9z m-3601 -174 c0 -34 -4
-46 -17 -49 -10 -3 1 -3 25 0 26 4 42 2 42 -5 0 -15 -53 -24 -81 -13 -31 11
-71 -2 -174 -58 -48 -26 -81 -39 -87 -33 -12 12 15 34 61 48 43 14 13 18 -39
5 -27 -6 -44 -4 -70 11 -19 10 -41 18 -48 18 -9 0 -10 5 -2 19 5 11 10 31 10
44 0 22 3 24 42 21 22 -2 43 -6 46 -8 2 -3 13 -1 23 5 13 6 51 5 121 -6 130
-19 128 -19 128 8 0 21 7 37 17 37 2 0 3 -20 3 -44z m-570 -26 c0 -5 -8 -10
-18 -10 -32 0 -39 -17 -31 -77 4 -31 5 -61 2 -66 -3 -4 3 -17 12 -27 16 -18
16 -18 -4 -13 -12 3 -21 9 -21 14 0 5 -10 8 -22 8 -17 -1 -19 -2 -5 -6 18 -5
24 -23 7 -23 -5 0 -10 -7 -10 -16 0 -8 -4 -13 -9 -9 -5 3 -12 1 -16 -5 -3 -5
-11 -10 -16 -10 -6 0 -3 7 6 16 32 32 15 49 -48 48 -39 -1 -55 2 -50 10 3 6
-6 0 -19 -14 -18 -18 -21 -26 -11 -28 7 -2 13 -8 13 -13 0 -6 -8 -6 -19 1 -15
7 -56 2 -163 -20 -157 -33 -194 -45 -202 -65 -4 -11 -12 -11 -41 -2 -35 10
-38 9 -64 -21 -21 -23 -31 -28 -39 -20 -7 7 -12 16 -12 20 0 17 -46 57 -72 63
-23 6 -28 4 -29 -11 0 -12 -4 -7 -10 10 -4 17 -7 31 -6 32 2 1 213 45 227 47
3 0 13 -3 23 -8 12 -5 25 -1 38 11 12 11 58 26 102 36 188 38 224 47 257 64
35 18 35 18 10 24 -37 9 -14 18 108 45 126 27 132 28 132 15z m841 -73 c48
-36 52 -50 15 -55 -24 -3 -24 -4 -8 -23 12 -13 29 -19 60 -19 31 0 53 -7 78
-26 18 -14 31 -30 28 -35 -8 -14 9 -10 35 7 17 12 26 13 34 5 8 -8 7 -11 -6
-11 -9 0 -17 -5 -17 -11 0 -6 7 -9 15 -5 8 3 15 0 15 -6 0 -6 9 -3 20 7 12 10
19 24 16 31 -3 8 1 11 10 7 7 -3 14 -9 14 -15 0 -5 9 -6 20 -3 15 5 20 2 20
-12 0 -11 -3 -14 -8 -7 -4 6 -16 8 -26 4 -16 -5 -11 -10 27 -26 26 -10 47 -22
47 -26 0 -4 -7 -4 -17 -1 -11 4 -14 3 -9 -5 4 -7 16 -12 26 -12 11 0 28 -9 39
-21 11 -12 25 -18 31 -14 9 5 10 1 5 -14 -4 -12 -2 -21 4 -21 6 0 11 5 11 10
0 17 46 11 73 -10 28 -22 37 -25 37 -11 0 5 -8 12 -17 15 -12 3 -9 5 7 4 40 0
47 3 25 12 -16 7 -13 8 15 7 80 -3 110 2 104 18 -4 8 -4 15 -1 15 15 0 13 -32
-4 -51 -15 -17 -22 -20 -31 -11 -7 7 -19 12 -27 12 -12 -1 -11 -4 4 -12 11 -7
26 -18 34 -25 7 -8 19 -12 25 -10 6 2 22 8 34 12 22 6 23 5 12 -17 l-12 -23
22 23 c12 13 19 30 16 38 -3 7 -1 14 4 14 6 0 10 5 10 11 0 8 -4 8 -14 0 -16
-13 -46 -4 -46 14 0 15 38 27 42 13 2 -5 22 -13 45 -17 35 -7 40 -6 35 7 -4
11 -2 13 9 6 25 -15 49 -15 49 2 0 8 5 12 11 8 8 -4 8 -9 0 -17 -6 -6 -11 -24
-11 -39 0 -23 -4 -28 -24 -28 -13 0 -27 -7 -30 -16 -4 -12 -15 -15 -36 -12
-20 3 -30 0 -30 -8 0 -7 -8 -11 -17 -9 -10 1 -12 0 -5 -2 6 -3 12 -8 12 -12 0
-14 -36 -41 -44 -34 -4 5 -6 3 -4 -3 4 -13 -61 -70 -96 -84 -18 -6 -25 -6 -21
0 3 6 -1 10 -9 10 -18 0 -32 -20 -14 -20 7 0 -20 -18 -61 -40 -41 -21 -86 -51
-101 -65 -28 -26 -28 -26 -35 -6 -3 12 -13 21 -21 21 -8 0 -14 4 -14 9 0 5
-14 14 -31 20 -39 14 -49 14 -49 1 0 -5 8 -10 17 -10 9 0 13 -3 10 -6 -7 -7
-66 15 -68 25 -1 3 -3 20 -5 36 -10 94 -26 200 -31 208 -3 5 5 19 17 32 29 31
23 55 -18 72 -19 8 -31 9 -28 4 11 -17 -14 -23 -30 -7 -21 22 -230 21 -285 -1
-45 -17 -53 -52 -19 -76 18 -13 19 -19 11 -63 -5 -27 -13 -75 -16 -106 -4 -32
-9 -59 -13 -62 -4 -2 -22 -1 -39 1 -22 4 -33 11 -33 22 0 9 -9 52 -20 96 -11
44 -25 108 -30 142 -6 34 -13 69 -16 77 -5 13 1 16 30 16 35 0 36 1 36 36 0
19 7 42 15 50 8 9 15 26 15 39 0 24 2 25 92 41 35 6 54 26 42 45 -12 21 27 7
67 -24z m502 -46 c67 -11 218 -34 336 -51 203 -29 214 -30 227 -13 12 17 13
16 14 -6 0 -21 2 -22 17 -10 13 11 17 11 20 2 3 -7 11 -13 18 -13 7 0 16 6 18
13 3 7 6 5 6 -5 1 -21 21 -24 39 -6 9 9 12 8 12 -8 0 -16 2 -16 10 -4 5 8 7
25 4 36 -3 12 -2 24 3 27 5 3 8 -12 8 -34 -1 -53 18 -49 33 6 12 46 32 61 32
25 0 -14 7 -20 21 -20 15 0 19 -4 15 -16 -3 -9 -6 -18 -6 -20 0 -3 -4 -2 -10
1 -5 3 -10 -2 -11 -12 0 -10 -6 0 -13 22 l-13 40 -8 -39 c-8 -42 -44 -110 -53
-102 -3 3 1 13 9 23 12 15 12 16 -4 10 -11 -4 -16 -3 -12 3 4 6 0 17 -9 25
-10 10 -16 11 -18 3 -2 -6 -18 -13 -35 -14 -26 -2 -32 2 -41 29 -8 26 -10 28
-11 10 -1 -13 -6 -23 -12 -23 -7 0 -9 -10 -7 -25 6 -30 -8 -34 -17 -5 -3 11
-14 20 -23 20 -13 0 -14 2 -4 9 9 5 -1 10 -30 14 -24 4 -182 27 -352 52 -170
25 -314 45 -320 45 -12 1 23 30 36 30 5 0 63 -9 131 -19z m1257 -79 c-23 -18
-22 -19 118 -42 l142 -23 0 -29 c0 -16 4 -37 9 -47 11 -20 4 -61 -10 -61 -5 0
-9 6 -9 14 0 9 -7 12 -19 9 -15 -4 -18 0 -14 20 4 19 -1 26 -24 35 -27 10 -85
17 -128 13 -15 -1 -17 -3 -7 -10 10 -6 9 -10 -7 -14 -14 -3 -21 0 -21 9 0 16
-18 18 -39 5 -10 -6 -24 -5 -41 4 -17 9 -31 10 -42 4 -11 -6 -21 -4 -32 7 -15
14 -17 13 -26 -12 -6 -15 -13 -24 -17 -21 -7 8 24 58 35 55 4 -1 21 12 39 30
l31 32 -28 0 c-16 0 -32 5 -36 11 -4 8 5 9 32 5 24 -3 50 0 69 8 42 20 51 19
25 -2z m545 -117 c28 -8 64 -13 80 -12 45 3 245 -26 245 -35 0 -4 -4 -8 -10
-8 -5 0 -10 -9 -10 -19 0 -11 -4 -22 -9 -26 -5 -3 -12 -18 -16 -34 -6 -27 -8
-28 -38 -21 -18 5 -102 18 -187 30 -206 28 -202 27 -195 50 3 10 7 37 8 60 l1
41 41 -6 c22 -4 63 -13 90 -20z m-2126 -142 c35 -172 39 -203 25 -203 -7 0
-11 -6 -8 -14 3 -7 14 -11 28 -9 13 3 53 -10 94 -29 40 -19 76 -31 82 -26 6 5
7 4 1 -3 -15 -18 -102 -19 -141 0 -19 9 -36 19 -38 24 -2 4 -14 7 -27 7 -26 0
-30 18 -41 190 -3 52 -6 97 -6 100 -1 13 3 20 11 20 4 0 14 -26 20 -57z m-84
-10 c3 -32 11 -88 16 -125 11 -70 8 -88 -16 -88 -9 0 -12 6 -8 16 5 13 2 15
-17 9 -15 -5 -20 -4 -16 4 5 7 1 9 -8 5 -9 -3 -16 -1 -16 4 0 6 -10 12 -22 14
-25 3 -24 -2 -18 138 2 36 5 68 7 73 2 4 24 7 48 7 l44 0 6 -57z m344 -280
c-7 -10 -21 -28 -32 -39 -17 -20 -17 -22 -1 -28 9 -3 24 -1 32 6 12 10 14 10
8 1 -11 -19 20 -16 51 5 16 9 24 11 19 4 -4 -7 -28 -22 -53 -34 -25 -12 -48
-31 -53 -43 -5 -13 -25 -35 -44 -50 -19 -15 -33 -32 -30 -40 5 -12 -68 -80
-85 -80 -3 0 -20 -12 -36 -28 -17 -15 -38 -30 -48 -33 -9 -3 -15 -9 -13 -13 3
-4 -1 -8 -9 -8 -30 0 -23 9 99 121 42 38 73 73 69 79 -3 6 -2 8 3 5 5 -3 31
16 58 42 35 34 45 49 36 55 -9 5 -11 4 -6 -3 5 -8 2 -10 -8 -6 -9 3 -16 1 -16
-5 0 -6 -5 -11 -11 -11 -6 0 -7 5 -2 13 4 6 8 19 10 27 1 8 12 23 24 32 11 10
18 18 13 18 -7 0 26 29 35 30 2 0 -3 -8 -10 -17z m948 -63 c36 -16 78 -30 92
-30 23 -1 24 -2 8 -11 -10 -6 -30 -8 -45 -4 -40 10 -19 -5 40 -30 29 -12 52
-26 51 -32 -1 -6 21 -23 49 -38 61 -33 89 -56 82 -66 -3 -5 13 -17 36 -29 22
-11 40 -23 40 -26 0 -3 -4 -2 -10 1 -9 6 -14 -7 -11 -27 0 -4 -6 -5 -14 -2 -8
4 -13 10 -10 14 3 5 -3 11 -13 14 -10 4 -41 29 -69 56 -28 28 -54 50 -58 50
-4 0 -30 14 -57 30 -26 17 -55 30 -63 30 -8 0 -15 4 -15 9 0 5 -10 7 -22 4
-13 -3 -20 -2 -16 2 4 4 1 20 -8 36 -8 16 -14 32 -13 35 2 14 -27 23 -58 19
-18 -2 -33 -2 -33 1 0 4 33 20 48 23 1 1 32 -12 69 -29z m1152 -228 c58 -61
81 -91 111 -150 14 -25 33 -55 43 -66 9 -11 17 -23 17 -28 0 -4 7 -8 15 -8 22
0 19 17 -10 54 -14 18 -25 38 -25 44 0 6 -3 12 -8 14 -10 4 -69 128 -76 161
-11 48 29 34 94 -32 59 -61 91 -117 129 -230 23 -66 52 -201 43 -201 -3 0 -42
25 -87 55 -46 30 -85 55 -88 55 -2 0 -22 8 -43 17 -22 9 -68 24 -103 33 -60
14 -64 17 -79 55 -9 22 -18 42 -22 45 -10 8 -39 83 -45 118 -6 27 -4 32 12 32
20 0 51 -41 81 -110 31 -69 79 -130 97 -124 12 5 9 15 -19 53 -19 25 -42 67
-52 91 -17 44 -60 112 -76 118 -10 4 -11 36 -1 45 17 18 50 3 92 -41z m-1104
-88 c70 -68 85 -95 85 -152 0 -33 5 -54 15 -62 9 -7 14 -19 11 -25 -2 -7 1
-19 7 -26 7 -8 -2 -2 -19 14 -16 15 -34 27 -38 27 -19 0 -68 44 -80 73 -8 18
-22 41 -32 52 -11 11 -32 38 -48 60 -17 22 -45 54 -64 70 l-35 31 74 -7 c72
-6 76 -8 124 -55z m-2100 -6 c-7 -39 -49 -122 -104 -203 -25 -36 -26 -45 -6
-45 8 0 15 4 15 8 0 5 8 17 18 28 10 10 24 33 32 49 54 110 150 215 185 201
15 -5 21 -42 8 -48 -13 -5 -60 -81 -68 -108 -4 -14 -23 -49 -42 -79 -21 -32
-31 -57 -25 -63 13 -13 57 49 94 129 16 36 36 72 43 79 13 14 45 19 45 9 0
-18 -43 -135 -50 -135 -4 0 -13 -20 -19 -44 -10 -42 -12 -44 -59 -50 -62 -8
-225 -89 -281 -140 -28 -26 -37 -14 -23 31 7 21 17 61 23 88 14 67 60 195 70
195 4 0 10 9 14 20 9 28 102 120 121 120 13 0 14 -8 9 -42z m1064 -95 c-20
-22 -21 -25 -5 -19 12 4 23 0 31 -11 11 -15 15 -15 29 -4 26 22 18 5 -16 -36
-18 -21 -26 -32 -18 -25 22 19 35 14 16 -7 -21 -23 -28 -58 -14 -67 7 -4 8 -2
4 4 -3 6 3 16 14 22 11 6 18 15 15 19 -2 5 3 15 13 22 15 12 16 12 6 -1 -6 -8
-10 -23 -9 -33 2 -9 -1 -15 -5 -12 -5 3 -11 1 -15 -5 -3 -5 -1 -10 6 -10 9 0
10 -3 2 -11 -15 -15 -4 -49 16 -50 9 -1 31 0 49 1 18 1 32 -2 31 -7 -5 -30 2
-45 21 -40 30 8 35 -11 11 -37 -18 -19 -19 -25 -8 -34 8 -7 17 -9 21 -5 4 4 4
-7 1 -26 -4 -21 -2 -30 5 -26 6 3 2 -10 -7 -29 -14 -27 -24 -36 -44 -36 -15 0
-32 -7 -39 -16 -11 -13 -10 -16 8 -21 12 -3 19 -9 16 -14 -8 -14 10 -11 32 6
24 18 38 19 28 3 -5 -9 -2 -8 9 1 12 9 14 17 8 25 -13 15 35 70 51 60 7 -5 3
-14 -12 -26 l-24 -19 27 6 c31 8 38 -13 12 -35 -8 -7 -15 -18 -15 -26 0 -15
-36 -38 -49 -30 -4 3 -21 -8 -37 -25 -37 -39 -110 -79 -101 -55 9 22 -9 20
-34 -5 -12 -12 -27 -18 -36 -14 -23 8 -83 18 -118 19 -16 0 -32 3 -35 6 -3 3
-14 10 -25 16 -11 6 -21 21 -23 33 -2 11 -8 21 -13 21 -5 0 -23 13 -39 30 -16
16 -26 30 -22 30 4 0 -5 12 -21 28 -48 48 -77 83 -77 94 0 6 -8 17 -17 25 -12
10 -13 12 -3 8 13 -6 13 -5 0 7 -8 7 -21 24 -28 37 -12 20 -11 26 5 44 10 11
12 17 6 13 -16 -9 -17 6 -1 22 9 9 9 12 -1 12 -7 0 -9 5 -6 10 4 6 9 8 13 6 4
-2 18 11 32 29 13 18 38 42 55 53 16 11 53 37 80 56 54 38 66 43 63 24 -4 -18
-41 -46 -54 -41 -7 2 -15 -1 -19 -7 -4 -6 -1 -9 7 -8 8 2 12 -4 10 -14 -4 -26
17 -22 40 7 11 14 24 25 30 25 6 0 0 -9 -13 -21 -20 -16 -20 -18 -4 -11 11 5
36 17 55 25 35 16 103 21 94 6 -2 -4 8 -7 22 -6 38 3 43 37 5 37 -15 0 -32 -5
-37 -10 -7 -7 -11 -6 -11 4 0 8 3 13 7 11 4 -2 20 9 35 25 36 37 47 40 14 3z
m-359 -443 c25 -34 59 -79 75 -99 17 -21 37 -48 45 -60 8 -12 20 -19 27 -17 7
3 10 -1 7 -9 -5 -13 44 -33 86 -36 8 0 32 -8 54 -18 l38 -17 -41 -1 c-22 -1
-41 2 -41 7 0 5 -7 7 -15 4 -9 -4 -15 0 -15 7 0 12 -2 12 -9 0 -6 -10 -13 -10
-28 -2 -11 5 -23 7 -27 4 -3 -3 -6 -1 -6 5 0 6 -15 14 -34 17 -35 7 -106 58
-106 78 0 6 -17 31 -38 56 -48 57 -128 171 -134 191 -3 8 -1 23 4 32 7 15 15
11 61 -32 28 -27 72 -77 97 -110z m1248 -222 c-2 -7 3 -12 10 -10 15 3 16 -30
0 -46 -6 -6 -8 -15 -4 -19 4 -4 11 -1 15 6 7 11 15 9 40 -10 34 -25 39 -31 17
-23 -8 3 -17 0 -21 -5 -3 -6 -11 -9 -16 -6 -14 9 -11 -5 5 -21 8 -8 23 -14 33
-14 24 0 83 53 83 74 0 9 5 16 10 16 17 0 23 -29 10 -45 -19 -23 6 -19 27 4
11 12 24 17 31 12 17 -10 -10 -35 -61 -56 -21 -9 -35 -20 -32 -24 6 -11 -40
-21 -75 -16 -14 2 -33 4 -42 4 -11 1 -18 9 -18 22 0 12 -8 23 -20 26 -24 6
-27 23 -4 23 12 0 15 6 10 23 -3 12 -6 28 -6 36 0 10 -6 8 -20 -7 -12 -12 -30
-22 -41 -22 -16 0 -18 3 -9 19 8 16 68 70 78 71 1 0 1 -6 0 -12z m-1515 -252
c7 8 494 13 555 6 50 -6 38 -20 -18 -24 -19 -1 28 -5 105 -8 139 -6 138 -6
-85 -10 -143 -2 -205 -6 -170 -10 30 -4 46 -8 35 -8 -11 -1 -71 -7 -133 -12
-102 -9 -122 -8 -200 11 -95 22 -132 41 -132 66 0 15 1 15 18 0 10 -10 21 -14
25 -11z m1200 17 c7 -7 -67 -43 -89 -43 -7 0 -17 -7 -22 -16 -13 -24 -85 -29
-136 -10 -51 20 -69 46 -31 46 13 0 26 4 29 8 3 5 31 10 63 11 32 1 60 4 62 7
7 7 117 5 124 -3z"/>
<path d="M1175 3674 c-11 -5 -8 -174 4 -187 13 -13 151 15 151 31 0 12 -12 13
-60 8 -56 -7 -60 -6 -60 13 0 20 13 27 69 33 14 2 26 9 29 16 2 8 -11 12 -47
12 -48 0 -51 2 -51 25 0 23 3 25 50 25 38 0 50 4 50 15 0 12 -13 15 -62 14
-35 0 -67 -2 -73 -5z"/>
<path d="M1414 3670 c-56 -23 -82 -105 -46 -150 24 -29 89 -37 131 -15 38 19
64 73 55 110 -13 52 -81 79 -140 55z"/>
<path d="M1595 3674 c-11 -5 -8 -174 4 -187 13 -13 151 15 151 31 0 12 -12 13
-60 8 -56 -7 -60 -6 -60 13 0 20 13 27 69 33 14 2 26 9 29 16 2 8 -11 12 -47
12 -48 0 -51 2 -51 25 0 23 3 25 50 25 38 0 50 4 50 15 0 12 -13 15 -62 14
-35 0 -67 -2 -73 -5z"/>
<path d="M1224 3350 c-56 -23 -82 -105 -46 -150 24 -29 89 -37 131 -15 38 19
64 73 55 110 -13 52 -81 79 -140 55z"/>
<path d="M1405 3354 c-11 -5 -8 -174 4 -187 13 -13 151 15 151 31 0 12 -12 13
-60 8 -56 -7 -60 -6 -60 13 0 20 13 27 69 33 14 2 26 9 29 16 2 8 -11 12 -47
12 -48 0 -51 2 -51 25 0 23 3 25 50 25 38 0 50 4 50 15 0 12 -13 15 -62 14
-35 0 -67 -2 -73 -5z"/>
<path d="M1644 3350 c-56 -23 -82 -105 -46 -150 24 -29 89 -37 131 -15 38 19
64 73 55 110 -13 52 -81 79 -140 55z"/>
<path d="M1175 3034 c-11 -5 -8 -174 4 -187 13 -13 151 15 151 31 0 12 -12 13
-60 8 -56 -7 -60 -6 -60 13 0 20 13 27 69 33 14 2 26 9 29 16 2 8 -11 12 -47
12 -48 0 -51 2 -51 25 0 23 3 25 50 25 38 0 50 4 50 15 0 12 -13 15 -62 14
-35 0 -67 -2 -73 -5z"/>
<path d="M1414 3030 c-56 -23 -82 -105 -46 -150 24 -29 89 -37 131 -15 38 19
64 73 55 110 -13 52 -81 79 -140 55z"/>
<path d="M1595 3034 c-11 -5 -8 -174 4 -187 13 -13 151 15 151 31 0 12 -12 13
-60 8 -56 -7 -60 -6 -60 13 0 20 13 27 69 33 14 2 26 9 29 16 2 8 -11 12 -47
12 -48 0 -51 2 -51 25 0 23 3 25 50 25 38 0 50 4 50 15 0 12 -13 15 -62 14
-35 0 -67 -2 -73 -5z"/>
<path d="M1224 2710 c-56 -23 -82 -105 -46 -150 24 -29 89 -37 131 -15 38 19
64 73 55 110 -13 52 -81 79 -140 55z"/>
<path d="M1405 2714 c-11 -5 -8 -174 4 -187 13 -13 151 15 151 31 0 12 -12 13
-60 8 -56 -7 -60 -6 -60 13 0 20 13 27 69 33 14 2 26 9 29 16 2 8 -11 12 -47
12 -48 0 -51 2 -51 25 0 23 3 25 50 25 38 0 50 4 50 15 0 12 -13 15 -62 14
-35 0 -67 -2 -73 -5z"/>
<path d="M1644 2710 c-56 -23 -82 -105 -46 -150 24 -29 89 -37 131 -15 38 19
64 73 55 110 -13 52 -81 79 -140 55z"/>
<path d="M4805 3654 c-11 -5 -8 -174 4 -187 13 -13 151 15 151 31 0 12 -12 13
-60 8 -56 -7 -60 -6 -60 13 0 20 13 27 69 33 14 2 26 9 29 16 2 8 -11 12 -47
12 -48 0 -51 2 -51 25 0 23 3 25 50 25 38 0 50 4 50 15 0 12 -13 15 -62 14
-35 0 -67 -2 -73 -5z"/>
<path d="M5044 3650 c-56 -23 -82 -105 -46 -150 24 -29 89 -37 131 -15 38 19
64 73 55 110 -13 52 -81 79 -140 55z"/>
<path d="M5225 3654 c-11 -5 -8 -174 4 -187 13 -13 151 15 151 31 0 12 -12 13
-60 8 -56 -7 -60 -6 -60 13 0 20 13 27 69 33 14 2 26 9 29 16 2 8 -11 12 -47
12 -48 0 -51 2 -51 25 0 23 3 25 50 25 38 0 50 4 50 15 0 12 -13 15 -62 14
-35 0 -67 -2 -73 -5z"/>
<path d="M5464 3650 c-56 -23 -82 -105 -46 -150 24 -29 89 -37 131 -15 38 19
64 73 55 110 -13 52 -81 79 -140 55z"/>
<path d="M5645 3654 c-11 -5 -8 -174 4 -187 13 -13 151 15 151 31 0 12 -12 13
-60 8 -56 -7 -60 -6 -60 13 0 20 13 27 69 33 14 2 26 9 29 16 2 8 -11 12 -47
12 -48 0 -51 2 -51 25 0 23 3 25 50 25 38 0 50 4 50 15 0 12 -13 15 -62 14
-35 0 -67 -2 -73 -5z"/>
<path d="M5884 3650 c-56 -23 -82 -105 -46 -150 24 -29 89 -37 131 -15 38 19
64 73 55 110 -13 52 -81 79 -140 55z"/>
<path d="M4805 3334 c-11 -5 -8 -174 4 -187 13 -13 151 15 151 31 0 12 -12 13
-60 8 -56 -7 -60 -6 -60 13 0 20 13 27 69 33 14 2 26 9 29 16 2 8 -11 12 -47
12 -48 0 -51 2 -51 25 0 23 3 25 50 25 38 0 50 4 50 15 0 12 -13 15 -62 14
-35 0 -67 -2 -73 -5z"/>
<path d="M5044 3330 c-56 -23 -82 -105 -46 -150 24 -29 89 -37 131 -15 38 19
64 73 55 110 -13 52 -81 79 -140 55z"/>
<path d="M5225 3334 c-11 -5 -8 -174 4 -187 13 -13 151 15 151 31 0 12 -12 13
-60 8 -56 -7 -60 -6 -60 13 0 20 13 27 69 33 14 2 26 9 29 16 2 8 -11 12 -47
12 -48 0 -51 2 -51 25 0 23 3 25 50 25 38 0 50 4 50 15 0 12 -13 15 -62 14
-35 0 -67 -2 -73 -5z"/>
<path d="M5464 3330 c-56 -23 -82 -105 -46 -150 24 -29 89 -37 131 -15 38 19
64 73 55 110 -13 52 -81 79 -140 55z"/>
<path d="M5645 3334 c-11 -5 -8 -174 4 -187 13 -13 151 15 151 31 0 12 -12 13
-60 8 -56 -7 -60 -6 -60 13 0 20 13 27 69 33 14 2 26 9 29 16 2 8 -11 12 -47
12 -48 0 -51 2 -51 25 0 23 3 25 50 25 38 0 50 4 50 15 0 12 -13 15 -62 14
-35 0 -67 -2 -73 -5z"/>
<path d="M5884 3330 c-56 -23 -82 -105 -46 -150 24 -29 89 -37 131 -15 38 19
64 73 55 110 -13 52 -81 79 -140 55z"/>
<path d="M4805 3014 c-11 -5 -8 -174 4 -187 13 -13 151 15 151 31 0 12 -12 13
-60 8 -56 -7 -60 -6 -60 13 0 20 13 27 69 33 14 2 26 9 29 16 2 8 -11 12 -47
12 -48 0 -51 2 -51 25 0 23 3 25 50 25 38 0 50 4 50 15 0 12 -13 15 -62 14
-35 0 -67 -2 -73 -5z"/>
<path d="M5044 3010 c-56 -23 -82 -105 -46 -150 24 -29 89 -37 131 -15 38 19
64 73 55 110 -13 52 -81 79 -140 55z"/>
<path d="M5225 3014 c-11 -5 -8 -174 4 -187 13 -13 151 15 151 31 0 12 -12 13
-60 8 -56 -7 -60 -6 -60 13 0 20 13 27 69 33 14 2 26 9 29 16 2 8 -11 12 -47
12 -48 0 -51 2 -51 25 0 23 3 25 50 25 38 0 50 4 50 15 0 12 -13 15 -62 14
-35 0 -67 -2 -73 -5z"/>
<path d="M5464 3010 c-56 -23 -82 -105 -46 -150 24 -29 89 -37 131 -15 38 19
64 73 55 110 -13 52 -81 79 -140 55z"/>
<path d="M5645 3014 c-11 -5 -8 -174 4 -187 13 -13 151 15 151 31 0 12 -12 13
-60 8 -56 -7 -60 -6 -60 13 0 20 13 27 69 33 14 2 26 9 29 16 2 8 -11 12 -47
12 -48 0 -51 2 -51 25 0 23 3 25 50 25 38 0 50 4 50 15 0 12 -13 15 -62 14
-35 0 -67 -2 -73 -5z"/>
<path d="M5884 3010 c-56 -23 -82 -105 -46 -150 24 -29 89 -37 131 -15 38 19
64 73 55 110 -13 52 -81 79 -140 55z"/>
<path d="M2605 3194 c-11 -5 -8 -174 4 -187 13 -13 151 15 151 31 0 12 -12 13
-60 8 -56 -7 -60 -6 -60 13 0 20 13 27 69 33 14 2 26 9 29 16 2 8 -11 12 -47
12 -48 0 -51 2 -51 25 0 23 3 25 50 25 38 0 50 4 50 15 0 12 -13 15 -62 14
-35 0 -67 -2 -73 -5z"/>
<path d="M2844 3190 c-56 -23 -82 -105 -46 -150 24 -29 89 -37 131 -15 38 19
64 73 55 110 -13 52 -81 79 -140 55z"/>
<path d="M3025 3194 c-11 -5 -8 -174 4 -187 13 -13 151 15 151 31 0 12 -12 13
-60 8 -56 -7 -60 -6 -60 13 0 20 13 27 69 33 14 2 26 9 29 16 2 8 -11 12 -47
12 -48 0 -51 2 -51 25 0 23 3 25 50 25 38 0 50 4 50 15 0 12 -13 15 -62 14
-35 0 -67 -2 -73 -5z"/>
<path d="M3264 3190 c-56 -23 -82 -105 -46 -150 24 -29 89 -37 131 -15 38 19
64 73 55 110 -13 52 -81 79 -140 55z"/>
<path d="M3445 3194 c-11 -5 -8 -174 4 -187 13 -13 151 15 151 31 0 12 -12 13
-60 8 -56 -7 -60 -6 -60 13 0 20 13 27 69 33 14 2 26 9 29 16 2 8 -11 12 -47
12 -48 0 -51 2 -51 25 0 23 3 25 50 25 38 0 50 4 50 15 0 12 -13 15 -62 14
-35 0 -67 -2 -73 -5z"/>
<path d="M3684 3190 c-56 -23 -82 -105 -46 -150 24 -29 89 -37 131 -15 38 19
64 73 55 110 -13 52 -81 79 -140 55z"/>
<path d="M2605 2874 c-11 -5 -8 -174 4 -187 13 -13 151 15 151 31 0 12 -12 13
-60 8 -56 -7 -60 -6 -60 13 0 20 13 27 69 33 14 2 26 9 29 16 2 8 -11 12 -47
12 -48 0 -51 2 -51 25 0 23 3 25 50 25 38 0 50 4 50 15 0 12 -13 15 -62 14
-35 0 -67 -2 -73 -5z"/>
<path d="M2844 2870 c-56 -23 -82 -105 -46 -150 24 -29 89 -37 131 -15 38 19
64 73 55 110 -13 52 -81 79 -140 55z"/>
<path d="M3025 2874 c-11 -5 -8 -174 4 -187 13 -13 151 15 151 31 0 12 -12 13
-60 8 -56 -7 -60 -6 -60 13 0 20 13 27 69 33 14 2 26 9 29 16 2 8 -11 12 -47
12 -48 0 -51 2 -51 25 0 23 3 25 50 25 38 0 50 4 50 15 0 12 -13 15 -62 14
-35 0 -67 -2 -73 -5z"/>
<path d="M3264 2870 c-56 -23 -82 -105 -46 -150 24 -29 89 -37 131 -15 38 19
64 73 55 110 -13 52 -81 79 -140 55z"/>
<path d="M3445 2874 c-11 -5 -8 -174 4 -187 13 -13 151 15 151 31 0 12 -12 13
-60 8 -56 -7 -60 -6 -60 13 0 20 13 27 69 33 14 2 26 9 29 16 2 8 -11 12 -47
12 -48 0 -51 2 -51 25 0 23 3 25 50 25 38 0 50 4 50 15 0 12 -13 15 -62 14
-35 0 -67 -2 -73 -5z"/>
<path d="M3684 2870 c-56 -23 -82 -105 -46 -150 24 -29 89 -37 131 -15 38 19
64 73 55 110 -13 52 -81 79 -140 55z"/>
<path d="M2844 739 c-4 -7 1 -16 10 -21 9 -5 13 -14 10 -20 -5 -7 -2 -9 7 -6
52 22 54 21 26 -5 -15 -15 -30 -27 -33 -27 -3 0 -10 -5 -17 -10 -7 -6 -23 -19
-37 -29 -18 -15 -20 -19 -8 -17 10 1 29 13 42 25 25 23 65 23 50 0 -4 -8 -1
-8 15 0 16 9 19 9 16 -2 -4 -9 5 -12 35 -9 22 2 43 8 45 13 3 4 17 4 31 -1 14
-6 31 -7 37 -3 6 3 3 -4 -6 -17 -31 -44 22 -70 59 -28 19 21 19 21 -3 16 -21
-6 -22 -5 -8 15 20 28 19 38 -2 30 -11 -4 -14 -3 -9 5 6 11 -5 15 -30 11 -4 0
-10 5 -14 11 -5 9 -9 9 -14 1 -6 -10 6 -15 27 -12 12 2 8 -6 -10 -20 -13 -11
-15 -11 -9 -1 6 10 2 13 -15 10 -16 -2 -23 2 -21 10 2 10 -2 10 -18 2 -16 -9
-18 -8 -14 5 4 11 0 15 -16 15 -11 0 -18 5 -15 10 3 6 0 10 -7 10 -8 0 -20 6
-27 13 -6 6 -24 12 -39 12 -16 0 -26 6 -24 13 3 15 -5 16 -14 1z"/>
<path d="M448 4533 c-32 -8 -19 -73 13 -73 16 0 18 -2 7 -14 -9 -10 -15 -11
-20 -2 -4 6 -8 -6 -8 -26 0 -29 4 -38 18 -39 28 -2 47 2 50 12 2 4 9 3 17 -4
7 -7 11 -16 8 -20 -5 -8 30 -47 42 -47 3 0 5 11 5 25 0 14 -5 25 -10 25 -7 0
-7 7 0 21 17 30 8 144 -10 144 -8 1 -18 -4 -22 -9 -4 -6 -13 -5 -22 3 -13 11
-16 11 -16 -3 0 -9 -4 -16 -10 -16 -5 0 -10 7 -10 15 0 15 -2 16 -32 8z"/>
<path d="M1638 4512 c-33 -52 -43 -67 -48 -72 -3 -3 -21 -25 -40 -50 -19 -25
-38 -46 -42 -48 -4 -2 -8 -13 -8 -24 0 -15 -4 -18 -21 -13 -16 5 -19 4 -14 -6
6 -8 4 -11 -6 -7 -10 4 -15 -1 -15 -12 0 -14 8 -18 28 -18 29 1 37 12 16 22
-7 3 -3 3 8 1 15 -4 26 2 37 17 9 13 30 39 46 58 70 80 113 130 132 154 l20
26 -38 0 c-31 0 -41 -5 -55 -28z"/>
<path d="M5670 1918 c0 -72 15 -92 63 -83 21 4 40 11 43 16 3 5 32 9 65 9 54
0 74 10 49 25 -5 3 -10 17 -10 31 0 13 -1 24 -2 25 -2 0 -39 4 -83 9 -44 5
-90 12 -102 15 -22 7 -23 5 -23 -47z"/>
<path d="M1456 1819 c-68 -10 -71 -12 -79 -56 l-6 -33 47 0 c26 0 60 -7 76
-15 15 -8 34 -15 42 -15 20 0 44 53 42 94 -1 34 -3 36 -32 35 -17 -1 -58 -5
-90 -10z"/>
<path d="M6403 1798 c-51 -20 -53 -22 -51 -58 l1 -37 116 -6 c63 -4 118 -3
121 2 3 4 16 14 29 20 18 10 22 19 19 42 -3 20 0 29 10 29 7 0 12 6 10 13 -3
8 -34 12 -104 14 -78 1 -110 -3 -151 -19z"/>
<path d="M5803 1734 c-9 -23 9 -47 43 -59 16 -5 31 -12 34 -16 3 -3 24 -13 48
-22 35 -14 61 -16 140 -11 105 7 132 20 132 61 0 23 -1 23 -117 23 -90 1 -131
5 -173 20 -68 24 -99 25 -107 4z"/>
<path d="M675 1680 c-3 -5 1 -10 9 -10 19 0 21 -16 4 -23 -17 -6 -1 -34 33
-58 21 -15 39 -17 130 -12 l107 6 -2 27 c-2 34 -21 53 -72 68 -50 14 -200 16
-209 2z"/>
<path d="M1380 1618 c-19 -5 -41 -14 -47 -20 -7 -6 -64 -10 -128 -11 -112 0
-115 0 -115 -22 0 -43 28 -55 134 -55 89 0 104 3 163 31 68 32 83 50 63 74
-14 17 -21 17 -70 3z"/>
<path d="M1 696 l-1 -268 23 7 c12 3 43 9 68 12 51 6 69 -7 47 -34 -11 -14
-11 -16 4 -11 10 4 19 1 22 -8 3 -8 2 -12 -3 -9 -5 3 -12 1 -16 -5 -11 -17
-72 -39 -95 -33 -42 11 -49 -19 -50 -190 l0 -157 114 1 c80 1 120 5 133 15 12
9 13 13 5 14 -19 0 7 25 34 34 26 8 50 -34 31 -53 -8 -8 -2 -11 22 -11 33 0
33 0 18 23 -8 13 -20 43 -27 66 -6 23 -24 64 -40 92 -17 27 -30 55 -30 61 0 6
-14 41 -31 77 -53 113 -58 125 -75 171 -9 25 -24 77 -34 115 -42 161 -53 201
-60 210 -4 6 -13 28 -20 50 -7 22 -16 45 -20 50 -4 6 -10 19 -13 30 -2 11 -5
-101 -6 -249z"/>
<path d="M3741 591 c-36 -36 -58 -57 -50 -46 14 19 14 19 -16 1 -16 -10 -37
-26 -46 -37 -9 -10 -20 -15 -24 -11 -5 4 -5 2 -1 -5 4 -7 -3 -17 -16 -24 -22
-12 -22 -11 -8 6 12 15 8 15 -17 -4 -18 -12 -33 -27 -33 -32 0 -6 -3 -8 -7 -6
-5 3 -24 -6 -43 -19 -19 -13 -28 -24 -20 -24 8 0 -2 -11 -22 -25 -20 -14 -43
-25 -50 -25 -7 1 4 10 25 21 22 11 37 23 34 26 -3 2 -25 -7 -50 -21 -24 -14
-56 -26 -70 -26 -15 0 -27 -4 -27 -10 0 -5 -7 -10 -15 -10 -21 0 -126 -37
-138 -49 -12 -12 68 -4 92 9 25 13 34 13 25 -1 -4 -8 0 -7 15 1 13 6 19 16 14
23 -4 7 2 5 13 -3 10 -8 16 -10 11 -5 -4 4 5 17 20 27 34 22 50 23 32 2 -7 -9
39 10 103 42 64 32 114 63 111 68 -4 5 -2 6 4 3 6 -4 19 1 29 9 10 9 13 12 5
8 -9 -5 -12 -3 -7 4 4 7 13 12 21 12 7 0 27 13 44 29 17 16 31 27 31 24 0 -12
99 100 103 117 8 30 -3 23 -72 -49z"/>
</g>
</svg>
