<?xml version="1.0" standalone="no"?>
<!DOCTYPE svg PUBLIC "-//W3C//DTD SVG 20010904//EN"
 "http://www.w3.org/TR/2001/REC-SVG-20010904/DTD/svg10.dtd">
<svg version="1.0" xmlns="http://www.w3.org/2000/svg"
 width="515.000000pt" height="601.000000pt" viewBox="0 0 515.000000 601.000000"
 preserveAspectRatio="xMidYMid meet">
<metadata>
Created by potrace 1.16, written by Peter Selinger 2001-2019
</metadata>
<g transform="translate(0.000000,601.000000) scale(0.100000,-0.100000)"
fill="#000000" stroke="none">
<path d="M4 5908 c11 -195 27 -515 52 -1063 13 -302 31 -692 39 -865 7 -173
17 -393 21 -488 6 -165 7 -172 28 -177 11 -2 280 -6 596 -9 598 -6 1141 -13
1583 -21 l257 -4 -5 587 c-3 323 -7 714 -10 868 -2 155 -2 284 2 287 10 10 51
-23 56 -46 3 -12 8 -305 12 -652 3 -346 8 -721 11 -832 l6 -202 42 -5 c35 -5
1072 -20 1966 -28 l265 -3 5 125 c3 69 4 689 2 1378 -2 1243 -2 1252 -22 1252
-11 0 -20 -5 -20 -11 0 -7 -7 -17 -15 -23 -8 -6 -17 -22 -20 -34 -3 -20 -2
-22 10 -12 8 6 11 18 8 26 -3 8 0 14 6 14 10 0 14 -34 13 -104 0 -15 -9 -38
-19 -50 -9 -11 -11 -15 -3 -8 20 18 29 15 23 -8 -3 -11 -9 -18 -13 -15 -5 3
-11 1 -14 -4 -4 -5 -1 -13 5 -17 8 -5 9 -3 4 7 -6 11 -5 11 5 2 15 -13 4 -36
-13 -26 -7 3 -4 -3 6 -14 20 -23 22 -37 5 -27 -10 6 -10 4 0 -7 14 -15 16 -33
3 -25 -11 7 -9 -13 3 -32 4 -7 2 -20 -6 -29 -7 -9 -8 -14 -2 -10 15 8 14 -155
0 -165 -8 -6 -8 -10 0 -15 14 -10 24 -52 14 -58 -4 -3 -4 -21 0 -40 6 -26 5
-35 -3 -32 -7 2 -12 16 -11 30 1 21 -2 25 -12 16 -7 -6 -10 -18 -7 -26 5 -12
3 -14 -8 -8 -12 8 -12 6 0 -8 8 -10 16 -15 19 -12 3 3 10 0 17 -5 15 -13 7
-72 -9 -63 -6 4 -5 -1 3 -10 11 -14 11 -20 0 -34 -10 -11 -10 -14 -1 -9 13 8
17 -6 5 -18 -12 -11 -12 -66 0 -59 5 3 7 0 5 -8 -3 -8 -12 -13 -19 -11 -9 2
-7 -4 5 -17 16 -18 17 -23 5 -38 -8 -9 -9 -14 -3 -10 8 4 12 -3 11 -21 0 -15
1 -45 1 -67 1 -22 2 -58 1 -80 0 -22 1 -100 3 -173 3 -114 1 -132 -12 -127 -8
3 -6 -2 5 -10 17 -13 18 -17 5 -25 -8 -5 -18 -6 -24 -3 -5 3 -6 1 -2 -6 4 -6
11 -9 16 -6 4 3 10 -5 13 -16 4 -14 1 -19 -7 -16 -7 3 -13 -4 -14 -16 -1 -15
2 -17 7 -9 5 8 8 -1 8 -22 0 -23 -4 -33 -11 -29 -6 4 -5 -1 3 -10 11 -14 11
-20 0 -34 -8 -9 -9 -14 -3 -10 8 5 11 -15 11 -68 -1 -67 -5 -79 -27 -77 -3 0
-7 -9 -7 -21 -2 -14 1 -17 6 -9 6 10 10 10 21 -3 12 -15 4 -21 -23 -16 -5 1
-6 -3 -2 -8 3 -6 12 -8 21 -4 12 4 14 -5 13 -51 -1 -31 -7 -60 -12 -63 -6 -4
-7 -1 -2 7 5 9 4 11 -4 6 -6 -4 -9 -12 -5 -17 3 -5 9 -7 14 -4 4 3 10 -3 12
-13 6 -24 -2 -53 -12 -47 -14 8 -20 -10 -8 -25 8 -12 8 -11 3 5 -5 16 -4 17 6
8 9 -10 10 -15 0 -27 -8 -10 -9 -16 -1 -21 5 -3 10 -17 10 -31 0 -18 -4 -23
-13 -18 -8 5 -8 2 2 -9 10 -13 11 -20 2 -30 -8 -10 -7 -17 1 -25 8 -8 8 -15
-1 -26 -8 -9 -8 -16 -2 -20 13 -8 11 -47 -3 -65 -8 -11 -8 -13 0 -8 8 4 11 -4
11 -26 -1 -35 -15 -51 -32 -37 -8 6 -12 5 -12 -4 0 -8 9 -13 22 -11 18 1 23
-3 23 -22 -1 -23 -1 -23 -22 -6 -16 14 -16 12 3 -10 23 -25 19 -33 -12 -28 -5
1 -6 -3 -2 -8 3 -6 12 -8 20 -4 8 3 15 0 15 -6 0 -10 -14 -15 -34 -12 -5 1 -4
-5 4 -13 14 -18 25 -22 15 -6 -3 6 -1 10 4 10 7 0 11 -31 11 -81 0 -52 -4 -78
-10 -74 -6 4 -9 14 -8 22 3 17 -39 27 -48 11 -3 -5 -2 -8 3 -7 19 3 31 -2 36
-15 4 -10 0 -14 -13 -13 -10 1 -16 5 -14 9 3 4 0 8 -5 8 -6 0 -11 -3 -11 -7 0
-5 -39 -9 -87 -9 -73 -1 -90 2 -100 16 -12 17 -46 20 -60 6 -5 -4 -3 -7 2 -6
19 4 35 0 35 -9 0 -16 -62 -7 -74 11 -8 14 -7 24 3 40 13 21 13 22 -2 9 -14
-11 -17 -11 -18 0 0 8 -3 23 -5 34 -11 49 -11 65 2 63 7 -2 13 2 13 7 0 6 -7
9 -15 7 -11 -2 -19 10 -12 21 1 1 -4 13 -11 26 -11 19 -11 22 1 15 10 -6 10
-4 -1 9 -8 10 -11 20 -7 24 3 3 0 13 -7 22 -8 9 -19 36 -26 61 -7 25 -15 53
-18 64 -4 13 -1 16 7 11 9 -6 11 -4 6 4 -5 7 -10 10 -14 7 -5 -6 -32 40 -36
61 -1 7 -5 16 -9 19 -10 10 -9 26 1 20 5 -3 9 1 9 9 0 10 -4 12 -12 5 -17 -14
-26 -1 -14 21 7 14 6 17 -4 13 -9 -3 -27 11 -45 34 l-31 39 24 -3 c14 -1 23 2
20 6 -3 5 -12 7 -19 4 -9 -4 -13 2 -11 19 2 13 -2 24 -9 24 -7 0 -13 -6 -13
-13 0 -7 4 -11 9 -8 4 3 8 1 8 -5 0 -5 -4 -12 -9 -15 -12 -8 -33 19 -23 29 4
5 2 5 -4 2 -7 -4 -17 0 -24 8 -7 8 -19 15 -27 15 -8 0 -11 5 -7 13 4 6 4 9 -1
5 -15 -14 -34 13 -29 40 3 23 2 24 -6 10 -6 -10 -20 -18 -31 -18 -11 0 -17 5
-14 10 3 6 0 10 -8 10 -8 0 -20 7 -27 15 -7 8 -16 13 -20 10 -4 -2 -15 4 -25
15 -9 10 -22 17 -29 14 -15 -6 -70 51 -63 64 4 5 0 9 -8 10 -8 1 -22 3 -30 4
-10 1 -13 9 -11 25 3 13 1 21 -5 18 -5 -4 -7 -11 -4 -16 10 -15 -7 -10 -28 9
-11 9 -17 11 -13 5 5 -9 2 -11 -9 -7 -20 8 -14 29 8 29 9 0 17 5 18 10 1 18
21 35 33 28 7 -4 6 -1 -2 9 -18 22 17 65 55 66 16 0 33 1 38 2 6 2 16 2 24 1
11 -1 11 -4 0 -18 -13 -16 -12 -17 4 -4 14 11 20 11 32 1 8 -7 15 -9 15 -5 0
4 7 2 15 -5 8 -7 13 -16 10 -20 -3 -5 -1 -11 4 -14 5 -4 12 -2 16 4 3 5 11 10
16 10 6 0 8 -4 4 -9 -3 -6 6 -7 22 -2 16 4 38 7 51 6 13 -1 26 3 29 8 3 6 1 7
-5 3 -18 -11 -14 9 3 24 9 7 13 15 10 18 -3 3 3 14 12 25 10 11 12 17 6 13 -9
-5 -13 0 -13 14 0 13 4 19 12 14 6 -4 8 -3 5 3 -11 17 24 41 68 45 17 2 17 84
0 98 -8 7 -15 17 -15 22 0 6 6 5 15 -2 8 -6 20 -8 26 -4 8 5 10 2 7 -8 -4 -8
-1 -15 7 -15 7 0 12 7 11 16 0 9 6 16 14 15 18 -1 24 27 22 99 l-1 49 21 -19
c12 -10 18 -12 14 -5 -8 14 10 17 19 3 3 -6 15 -8 26 -6 35 7 51 27 47 57 -4
22 -2 25 9 17 14 -13 15 -13 18 17 1 12 -4 21 -11 21 -7 0 -11 -4 -8 -9 3 -4
1 -8 -4 -8 -14 0 -36 29 -29 37 4 3 2 12 -4 20 -9 10 -8 17 2 30 10 11 10 14
2 9 -7 -4 -13 -3 -13 3 0 5 5 13 10 16 8 5 7 11 0 20 -7 8 -9 19 -6 24 4 5 2
12 -4 16 -5 3 -10 11 -10 16 0 6 4 8 8 5 5 -3 9 1 9 9 0 10 -4 12 -12 5 -9 -7
-16 -6 -25 5 -7 8 -9 15 -5 15 4 0 2 7 -6 16 -11 14 -7 21 31 55 25 22 38 38
30 34 -11 -4 -16 3 -17 22 -7 79 -11 97 -21 101 -23 7 -12 30 13 27 14 -1 28
1 30 5 2 4 -7 7 -22 6 -14 0 -28 5 -31 13 -3 8 0 11 6 7 6 -3 14 -1 18 5 4 7
3 9 -4 5 -16 -9 -26 13 -12 29 8 10 8 15 -1 21 -8 5 -9 3 -4 -6 5 -9 4 -11 -3
-6 -7 4 -12 16 -12 28 0 17 2 18 15 8 11 -9 18 -10 28 -1 8 6 18 7 22 3 5 -4
5 -1 1 6 -6 10 -11 10 -21 2 -20 -17 -55 9 -63 45 -3 17 -5 33 -4 37 1 5 -3 7
-9 5 -6 -1 -14 4 -17 12 -2 8 0 11 6 7 6 -3 14 -1 18 5 4 7 3 9 -4 5 -6 -3
-20 4 -32 16 -23 25 -54 78 -45 78 3 0 -1 13 -9 29 -9 16 -12 32 -8 36 4 3 2
5 -3 4 -19 -6 -55 12 -49 24 4 7 4 9 -1 5 -12 -11 -47 12 -42 26 4 9 -2 12
-16 9 -13 -3 -32 5 -46 18 -13 13 -35 24 -49 25 -24 3 -62 30 -62 44 0 4 6 7
13 6 6 0 13 4 15 9 1 6 -6 10 -16 11 -21 1 -25 -23 -8 -45 9 -12 8 -12 -11 -3
-12 7 -34 13 -48 14 -16 2 -24 7 -21 15 3 7 1 15 -5 18 -5 4 -9 3 -8 -2 3 -20
-2 -27 -10 -14 -5 8 -17 16 -25 17 -9 1 -14 -2 -10 -7 8 -13 -31 -6 -49 9 -12
10 -16 10 -20 0 -4 -9 -6 -10 -6 -1 -1 7 -7 10 -14 7 -7 -2 -13 4 -14 15 -1
11 5 22 13 25 10 4 14 0 12 -11 -2 -8 4 -17 12 -18 8 -2 21 -4 29 -6 7 -2 15
5 17 15 5 31 -8 41 -23 20 -12 -16 -15 -17 -23 -4 -5 8 -6 19 -3 25 3 5 0 4
-8 -2 -19 -18 -29 -16 -23 5 5 14 4 15 -5 2 -6 -8 -11 -11 -11 -7 0 4 -9 3
-19 -3 -16 -8 -22 -6 -30 7 -6 10 -11 13 -11 6 0 -6 4 -14 8 -17 12 -7 8 -49
-5 -53 -5 -2 -16 3 -23 12 -10 12 -10 18 1 33 7 9 9 14 5 10 -5 -4 -16 -2 -25
5 -13 10 -14 10 -6 -3 15 -21 12 -53 -4 -58 -9 -3 -11 0 -6 9 5 8 0 6 -12 -3
-20 -19 -35 -23 -30 -10 1 4 -2 7 -8 7 -5 0 -9 -3 -8 -7 2 -5 -6 -9 -17 -9
-11 -1 -26 -2 -32 -3 -7 -1 -12 4 -11 10 1 6 -11 11 -28 10 -16 -1 -28 -6 -27
-11 2 -6 6 -9 10 -8 23 8 31 7 35 -4 3 -8 -4 -13 -16 -13 -11 0 -23 -5 -26
-10 -4 -6 -11 -8 -16 -4 -6 3 -19 -2 -29 -11 -19 -18 -45 -12 -34 7 4 7 2 8
-5 4 -6 -4 -9 -11 -6 -16 7 -11 -22 -33 -48 -37 -20 -3 -20 -3 -2 17 10 11 23
17 29 13 6 -3 7 -2 3 3 -8 9 -12 10 -38 13 -6 0 -9 8 -6 16 4 8 2 17 -4 21 -6
3 -8 12 -5 20 3 7 1 16 -3 19 -5 3 -8 -13 -6 -35 3 -30 -1 -42 -13 -48 -25
-13 -57 9 -59 41 -2 23 1 27 21 23 14 -3 23 1 23 9 0 8 -9 11 -25 9 -17 -4
-23 -1 -19 9 2 7 -1 21 -9 32 -12 17 -14 6 -15 -86 -1 -178 -8 -205 -65 -276
-38 -47 -61 -90 -93 -179 -43 -114 -43 -117 -27 -150 25 -53 20 -100 -14 -153
-65 -102 -283 -166 -440 -130 -53 12 -141 68 -167 107 -36 52 -85 185 -103
277 -6 33 -16 80 -22 105 -18 80 -20 230 -5 340 15 110 10 148 -23 158 -11 4
-10 -1 4 -17 18 -20 18 -27 8 -115 -7 -52 -12 -134 -12 -183 0 -85 27 -276 50
-356 6 -22 10 -41 7 -43 -2 -3 -10 17 -17 43 -7 26 -27 77 -43 113 -17 36 -35
79 -42 95 -22 58 -102 171 -155 218 -67 60 -171 123 -230 137 -134 34 -174 39
-211 26 -32 -11 -41 -10 -74 6 -51 27 -130 33 -222 19 -151 -24 -280 -104
-405 -251 -46 -54 -88 -106 -94 -116 -10 -15 -11 -8 -7 36 18 213 14 390 -8
390 -5 0 -6 -17 -2 -42 10 -55 10 -163 -1 -313 -6 -95 -14 -135 -36 -193 -35
-87 -60 -227 -64 -354 -2 -86 -6 -99 -41 -167 -40 -77 -102 -136 -189 -180
-48 -25 -134 -42 -165 -34 -16 4 -31 -3 -52 -23 l-31 -29 13 28 c11 24 11 30
-2 38 -8 5 -21 9 -30 9 -50 0 -179 82 -179 114 0 6 -9 182 -20 391 -10 209
-22 464 -26 568 -7 177 -8 187 -27 187 -18 0 -19 -5 -13 -102z m1600 7 c29
-12 45 -14 67 -6 18 6 27 6 24 1 -4 -6 18 -11 52 -12 69 -1 64 -1 133 -17 59
-14 137 -55 184 -96 16 -14 32 -25 36 -25 15 0 116 -141 157 -219 90 -174 110
-254 112 -458 2 -107 -1 -134 -11 -131 -14 5 -15 35 -6 144 7 73 0 116 -16
107 -8 -4 -8 -3 0 6 9 10 8 27 -3 69 -17 67 -36 94 -22 32 15 -65 5 -58 -25
20 -15 38 -32 72 -37 76 -14 8 -11 -9 6 -32 34 -49 66 -176 72 -280 3 -62 1
-104 -4 -104 -6 0 -10 20 -11 43 -3 81 -82 267 -113 267 -13 0 -12 -5 16 -60
52 -102 69 -278 51 -505 -5 -55 -8 -104 -8 -110 7 -202 15 -260 43 -320 19
-43 27 -106 17 -147 -9 -42 -47 -117 -76 -150 -8 -9 -17 -46 -20 -83 -5 -65
-15 -80 -18 -27 -2 45 -3 46 -21 26 -20 -21 -57 -101 -73 -154 -10 -34 -10
-34 -5 9 6 48 32 119 71 194 14 26 23 47 20 47 -2 0 6 26 19 58 32 78 37 128
21 188 -19 71 -24 209 -17 474 2 74 1 144 -2 155 -7 25 -24 65 -36 85 -5 8
-20 39 -32 68 -12 28 -26 52 -31 52 -5 0 -5 -8 0 -17 19 -37 54 -150 63 -203
13 -74 20 -386 9 -374 -9 9 -14 38 -25 134 -4 30 -13 78 -20 105 -7 28 -16 79
-20 115 -3 36 -15 83 -26 105 -11 22 -17 32 -15 23 3 -9 8 -34 11 -55 4 -28
-1 -20 -21 32 -14 39 -26 75 -27 82 0 7 -4 10 -9 7 -5 -3 -6 -10 -2 -15 3 -6
8 -25 11 -42 3 -18 10 -39 16 -47 10 -13 10 -13 -5 -2 -14 11 -88 182 -88 203
0 4 -11 27 -25 50 -29 52 -28 22 2 -36 11 -22 26 -62 33 -90 7 -27 17 -54 21
-60 5 -5 9 -15 9 -22 0 -7 16 -37 35 -67 19 -30 35 -58 35 -61 0 -3 9 -24 19
-48 25 -54 42 -119 30 -112 -5 4 -9 11 -9 17 0 5 -29 42 -65 80 -36 39 -65 76
-65 83 0 6 -9 20 -20 30 -11 10 -20 26 -20 35 0 10 -7 23 -15 30 -8 7 -15 9
-15 4 0 -12 -28 41 -48 91 -9 22 -37 77 -64 122 -26 45 -48 86 -48 92 0 6 -4
11 -10 11 -16 0 -12 -11 33 -90 64 -113 119 -229 113 -239 -4 -5 -2 -11 4 -13
6 -2 12 -12 14 -23 2 -11 12 -41 20 -67 9 -26 17 -67 18 -91 0 -43 -6 -63 -64
-186 -23 -47 -32 -83 -35 -142 -3 -46 -2 -79 4 -79 5 0 9 10 10 23 2 90 -2 85
52 79 61 -5 90 1 125 29 21 17 24 24 15 35 -9 11 -7 14 11 14 13 0 20 3 17 6
-3 4 -2 15 4 26 6 11 13 17 16 14 4 -3 14 1 24 10 16 14 18 13 23 -13 16 -76
-6 -181 -59 -283 -22 -43 -83 -116 -112 -136 -21 -13 -23 -13 -29 13 -4 14
-20 45 -35 68 -16 23 -33 55 -40 71 -6 16 -13 24 -16 17 -5 -14 20 -69 46
-103 11 -14 23 -38 26 -55 6 -30 6 -30 -12 5 -9 19 -23 41 -30 48 -7 7 -25 34
-40 60 -38 64 -38 154 0 267 30 90 47 185 47 262 0 76 -43 160 -117 226 -12
10 -38 58 -59 104 l-38 86 -13 -49 c-7 -27 -11 -57 -9 -68 3 -10 -2 -29 -10
-42 -9 -13 -17 -29 -18 -36 -4 -24 -28 -93 -36 -103 -23 -29 -50 -129 -56
-204 -10 -145 -37 -225 -103 -316 -30 -40 -63 -102 -76 -140 -12 -35 -15 -206
-4 -226 8 -16 6 -19 -11 -19 -17 0 -20 7 -21 43 -1 44 -5 85 -10 102 -10 34
15 118 55 182 98 159 131 260 123 373 -3 42 -1 94 4 116 5 21 12 53 15 69 3
17 25 89 49 160 55 164 69 219 55 210 -4 -2 -17 -37 -29 -77 -13 -40 -31 -95
-41 -123 -10 -27 -23 -63 -29 -80 -6 -16 -22 -86 -36 -154 -15 -68 -31 -135
-37 -150 -6 -14 -12 -28 -12 -31 -2 -12 -60 -119 -86 -160 -100 -157 -112
-203 -96 -363 2 -21 2 -36 -1 -34 -10 10 -32 124 -32 167 -1 44 24 140 44 170
5 8 10 20 11 25 1 6 13 28 27 48 48 71 104 202 127 297 29 121 66 244 89 295
37 81 31 88 -12 13 -65 -112 -104 -219 -122 -329 -3 -21 -14 -48 -25 -62 -11
-14 -20 -34 -20 -44 0 -10 -7 -29 -16 -41 -8 -12 -14 -28 -12 -34 3 -7 15 7
28 30 42 74 33 36 -11 -49 -41 -78 -43 -81 -52 -56 -6 19 -2 51 13 109 11 46
23 96 26 113 8 43 82 245 95 261 7 8 7 14 1 14 -9 0 -85 -144 -117 -225 -17
-41 -36 -125 -28 -125 2 0 8 10 13 23 8 21 9 21 9 2 1 -12 -4 -26 -11 -33 -7
-7 -9 -12 -5 -12 4 0 -11 -36 -33 -79 -56 -110 -93 -239 -96 -334 -3 -86 4
-112 51 -172 17 -22 38 -52 47 -66 10 -15 33 -44 52 -65 20 -22 36 -44 36 -51
0 -6 3 -13 8 -15 14 -6 63 -85 73 -119 22 -78 -6 -268 -49 -322 -5 -7 -15 -36
-22 -64 -12 -54 -24 -67 -34 -35 -8 26 2 69 30 124 14 28 23 59 21 69 -3 11
-1 17 4 13 14 -8 29 42 29 97 0 48 -32 164 -51 183 -5 6 -9 16 -9 24 0 8 -36
53 -80 100 -124 134 -154 198 -151 327 2 56 36 192 66 260 20 47 45 124 45
142 0 18 -10 12 -14 -9 -4 -16 -15 -46 -27 -73 -16 -34 1 154 18 195 3 8 7 27
9 42 5 37 59 184 84 225 11 19 20 37 20 40 0 15 -69 -92 -75 -117 -1 -3 -4
-12 -7 -20 -4 -8 -20 -59 -38 -113 -17 -54 -51 -140 -75 -190 -58 -123 -68
-162 -74 -272 -1 -17 -3 -17 -11 -5 -5 8 -7 23 -4 34 4 13 3 16 -6 11 -9 -6
-11 -4 -5 6 5 7 8 32 6 55 -4 64 30 157 76 206 14 14 23 32 21 39 -8 24 -105
-138 -114 -189 -5 -30 -14 -23 -14 11 0 33 24 145 49 227 6 19 11 50 11 68 0
90 96 283 193 385 35 37 60 70 57 72 -18 11 -147 -141 -192 -225 -13 -25 -36
-64 -51 -87 -15 -24 -35 -62 -44 -85 -9 -24 -23 -54 -29 -67 l-13 -24 -7 29
c-4 15 -15 42 -25 59 -35 58 -13 209 49 333 14 29 30 55 34 58 4 3 8 11 8 17
0 7 -12 -1 -26 -18 -27 -31 -64 -105 -64 -126 0 -7 -11 -32 -25 -55 -14 -24
-27 -65 -30 -91 l-5 -48 14 45 14 45 1 -65 c1 -50 -2 -61 -11 -52 -7 7 -22 12
-34 12 -31 0 -43 19 -42 67 0 23 -3 47 -7 54 -5 7 -4 10 2 6 6 -4 13 12 17 41
11 81 12 87 40 160 15 39 37 83 48 97 11 14 18 28 15 31 -15 15 -121 -201
-130 -263 -7 -50 -18 -34 -12 17 25 237 81 368 206 490 43 43 100 87 132 103
55 27 79 47 58 47 -5 0 -27 -10 -48 -22 l-38 -21 35 32 c47 42 133 85 200 99
30 7 64 14 75 16 38 9 160 -3 199 -19z m2321 -26 c66 -12 155 -35 197 -51 73
-28 197 -109 205 -135 6 -16 -61 -48 -115 -57 -24 -4 -96 -27 -160 -52 -135
-53 -226 -82 -367 -118 -55 -15 -145 -42 -201 -61 -114 -39 -323 -95 -354 -95
-23 0 -25 16 -9 75 36 138 96 236 215 351 63 61 183 119 295 143 123 25 151
25 294 0z m476 -325 c25 -50 46 -97 46 -105 0 -8 2 -21 4 -29 2 -8 -2 -14 -9
-12 -7 1 -22 -2 -32 -8 -17 -9 -20 -7 -20 10 0 17 4 20 20 15 26 -8 25 4 -1
55 -23 44 -37 49 -18 6 10 -20 10 -29 1 -38 -7 -7 -12 -22 -12 -35 0 -13 -4
-23 -9 -23 -6 0 -30 -13 -54 -30 -59 -39 -98 -54 -90 -35 3 8 1 16 -3 16 -43
7 -56 4 -65 -12 -7 -15 -6 -19 5 -19 8 0 18 5 21 10 3 6 11 10 18 10 6 0 -5
-16 -24 -36 -27 -29 -29 -34 -11 -24 13 6 30 9 38 6 8 -3 17 1 21 10 7 18 100
67 113 59 6 -4 10 1 10 9 0 20 71 41 82 23 6 -9 8 -8 8 2 0 32 16 -5 35 -82
12 -45 18 -93 15 -107 -8 -32 -44 -39 -60 -11 -6 12 -17 21 -25 21 -7 0 -55
-20 -106 -45 -89 -43 -149 -57 -149 -34 0 5 -4 7 -10 4 -5 -3 -10 -1 -10 4 0
13 -10 14 -30 1 -12 -7 -12 -12 -2 -22 11 -11 5 -15 -30 -25 l-43 -12 38 2
c20 2 37 0 37 -3 0 -5 -33 -20 -74 -34 -33 -11 -9 -18 26 -8 38 12 118 22 118
16 0 -11 -70 -33 -85 -28 -9 4 -34 -2 -57 -12 -41 -18 -41 -18 -14 -25 27 -8
55 1 144 43 24 11 50 17 60 13 15 -6 15 -8 -6 -23 -13 -10 -35 -26 -49 -38
l-25 -20 23 -15 c23 -15 25 -14 48 14 23 28 23 29 3 18 -11 -6 -24 -16 -27
-21 -4 -6 -11 -8 -16 -4 -17 10 21 43 61 54 26 7 45 7 61 0 21 -9 20 -10 -9
-5 -44 6 -32 -12 13 -21 22 -4 41 -2 50 6 8 7 15 8 15 2 0 -5 -7 -15 -15 -22
-8 -7 -15 -9 -15 -5 0 5 -10 0 -22 -11 -21 -19 -21 -19 -14 0 6 19 6 19 -12 3
-28 -26 -49 -22 -26 5 l19 21 -33 -19 -33 -19 31 -9 c53 -15 111 10 135 59 11
22 23 42 28 43 4 2 7 10 7 17 0 19 15 26 34 19 25 -10 46 -58 46 -107 0 -36
-4 -46 -22 -55 l-23 -12 24 3 c43 4 84 -102 45 -117 -8 -3 -33 3 -54 14 -22
11 -50 20 -62 20 -38 0 -52 14 -39 39 10 18 9 21 -6 21 -17 1 -16 2 1 15 11 8
16 15 12 15 -5 0 -24 -14 -43 -30 -49 -44 -135 -84 -144 -68 -6 9 -11 5 -18
-12 -9 -24 -10 -24 -10 -2 -1 21 -15 27 -49 23 -10 -2 -12 4 -6 21 6 20 5 21
-10 9 -19 -16 -22 -1 -3 18 10 11 8 11 -13 1 -23 -12 -24 -12 -11 4 21 25 8
29 -18 5 -21 -20 -21 -22 -5 -40 16 -17 16 -19 0 -25 -14 -5 -15 -9 -5 -15 10
-6 1 -25 -34 -76 -26 -38 -47 -72 -47 -77 0 -13 78 94 92 127 7 15 17 27 22
27 5 0 7 -3 3 -6 -12 -13 18 -32 36 -23 22 13 23 -12 1 -46 -9 -14 -14 -25
-11 -25 3 0 15 16 28 36 15 26 24 32 30 23 6 -10 13 -9 30 6 12 11 19 14 15 8
-14 -24 6 -13 63 37 32 28 60 50 63 50 4 0 10 -14 13 -32 4 -18 20 -45 36 -61
33 -32 36 -54 14 -83 -14 -18 -15 -16 -10 21 l5 40 -16 -43 c-18 -47 -34 -47
-34 1 l-1 32 -17 -30 -17 -30 -4 35 -4 35 -6 -30 c-7 -36 -38 -42 -33 -6 2 15
0 21 -7 17 -6 -4 -11 -16 -11 -27 0 -13 -7 -19 -24 -19 -13 0 -32 -3 -41 -6
-13 -5 -15 -2 -9 20 3 14 4 26 1 26 -8 0 -67 -156 -67 -175 0 -15 1 -15 16 -1
8 9 13 20 9 25 -9 15 21 78 43 90 40 21 80 -9 66 -51 -4 -14 -12 -18 -26 -15
-14 4 -18 2 -14 -10 3 -8 6 -19 6 -25 0 -6 7 -7 16 -4 8 3 12 2 9 -4 -3 -6 2
-10 12 -10 12 0 14 -3 6 -8 -8 -5 -9 -13 -3 -22 14 -23 12 -77 -4 -93 -8 -8
-28 -20 -45 -27 -26 -11 -35 -10 -56 4 -21 14 -24 20 -15 37 6 10 8 25 3 32
-5 8 -9 3 -13 -13 -5 -19 -12 -24 -31 -23 -44 5 -129 35 -123 44 3 5 1 9 -5 9
-5 0 -11 -5 -13 -11 -5 -16 -110 15 -132 39 -20 23 -22 59 -8 132 6 30 14 69
16 85 3 17 8 44 12 60 l7 30 -21 -25 c-12 -14 -21 -21 -22 -16 0 5 -6 4 -12
-2 -27 -21 -55 5 -82 76 -15 38 -38 84 -51 102 -38 51 -40 86 -10 165 43 115
72 132 138 81 23 -17 52 -49 63 -70 18 -31 23 -35 26 -20 2 10 -3 30 -11 43
-14 21 -13 24 10 42 26 20 19 25 -13 8 -27 -15 -35 -3 -12 18 11 10 15 15 10
11 -6 -5 -19 -8 -30 -8 -21 1 -21 1 -1 12 11 7 27 18 35 27 13 13 13 14 -5 7
-11 -5 -31 -10 -45 -11 -14 -2 -34 -7 -44 -11 -13 -5 -17 -4 -12 4 4 7 -12 2
-36 -11 -52 -27 -96 -108 -105 -192 -5 -51 -3 -58 36 -118 22 -35 41 -73 41
-84 0 -23 -8 -28 -101 -52 -78 -21 -129 -43 -129 -55 0 -4 8 -5 18 0 46 20
151 52 189 57 36 4 43 2 48 -14 4 -12 19 -22 36 -26 35 -7 54 -34 36 -53 -9
-10 -9 -11 1 -6 13 8 17 -10 4 -18 -5 -3 -9 -26 -11 -52 -1 -26 -4 -51 -7 -55
-6 -11 26 -100 42 -116 9 -10 14 -38 14 -84 0 -38 1 -72 3 -76 4 -14 -56 -15
-80 -2 -17 9 -20 15 -11 21 9 5 8 8 -6 8 -15 0 -16 3 -6 15 10 12 10 15 0 15
-8 0 -10 6 -5 18 11 26 12 54 4 78 -4 13 -3 26 4 33 8 8 8 11 0 11 -6 0 -9 9
-6 19 6 24 -11 59 -21 42 -4 -6 -4 -11 1 -11 4 0 6 -48 3 -107 -4 -87 -8 -108
-20 -108 -8 0 -83 8 -165 18 -138 17 -156 17 -210 3 -53 -13 -92 -13 -133 0
-8 2 0 21 25 56 57 79 143 238 143 264 0 6 9 19 19 28 19 17 21 53 4 65 -5 3
-9 12 -11 19 -2 10 2 11 14 4 23 -13 68 0 144 42 80 44 72 47 -13 5 -38 -20
-56 -25 -48 -15 16 19 1 22 -17 4 -7 -7 -25 -13 -40 -14 -30 0 -59 21 -42 31
5 3 10 11 10 18 0 8 -3 8 -12 -1 -18 -18 -38 -15 -31 5 4 10 2 14 -4 10 -14
-9 -37 19 -28 32 4 7 -1 8 -11 4 -13 -5 -16 -3 -11 9 3 10 -1 19 -10 22 -9 4
-13 9 -10 12 3 3 -4 15 -14 25 -11 11 -18 26 -16 32 2 7 -2 17 -9 24 -22 23
-51 116 -58 189 -8 85 -14 80 159 124 66 17 158 44 205 61 47 16 138 43 203
60 124 32 200 57 332 109 88 35 282 90 305 87 8 -1 35 -43 61 -93z m-1986
-355 c17 -44 43 -87 70 -115 l42 -45 7 -854 c4 -470 5 -858 3 -862 -7 -11
-251 -16 -322 -8 l-54 7 14 29 c8 15 15 45 15 66 0 36 14 67 84 197 31 59 33
98 6 173 -11 32 -20 78 -20 103 0 26 9 63 20 85 25 48 25 62 3 44 -16 -13 -17
-12 -4 3 7 10 17 15 22 12 12 -7 29 39 29 77 0 18 5 29 13 29 9 0 18 21 25 53
24 115 24 132 -1 228 -35 133 -37 154 -29 242 4 42 4 77 0 77 -4 0 1 15 11 33
25 45 31 99 33 315 2 100 3 182 4 182 0 0 13 -32 29 -71z m700 -68 c-3 -5 -1
-12 4 -16 6 -3 8 -12 5 -20 -4 -8 -9 -13 -13 -10 -4 2 -8 -2 -8 -10 0 -11 4
-12 13 -4 17 14 34 3 34 -21 0 -10 5 -22 10 -25 6 -3 10 -11 10 -16 0 -6 -6
-7 -12 -3 -7 4 -2 -4 11 -18 27 -28 35 -56 21 -73 -7 -8 -5 -12 5 -12 8 0 11
5 8 11 -4 6 1 5 10 -3 23 -18 21 -31 -3 -26 -12 2 -18 0 -15 -6 4 -5 10 -7 15
-4 5 3 26 -11 46 -32 21 -21 42 -37 47 -35 7 2 7 -2 0 -10 -12 -15 -13 -49 -2
-42 5 2 5 12 2 21 -4 10 -2 14 5 9 6 -3 9 -19 8 -34 -2 -15 -4 -35 -5 -45 0
-10 -5 -16 -10 -12 -6 3 -8 -4 -6 -15 7 -38 -39 -175 -56 -164 -5 3 -7 -1 -4
-8 8 -21 -39 -65 -66 -62 -13 1 -28 3 -32 3 -5 1 -5 6 -1 12 4 8 9 7 15 -2 6
-10 8 -7 6 8 -1 16 -4 19 -14 12 -7 -6 -18 -7 -24 -3 -8 4 -9 3 -5 -4 16 -25
-6 -33 -30 -11 -13 12 -25 18 -25 13 -1 -5 -2 -16 -3 -24 0 -8 -9 -15 -18 -15
-9 0 -20 -4 -24 -8 -10 -10 -26 -9 -20 1 2 4 -8 8 -24 7 -22 0 -26 -3 -17 -13
5 -7 6 -12 1 -11 -5 1 -11 0 -14 -1 -5 -2 -16 -4 -75 -14 -16 -2 -30 -5 -30
-6 0 -1 -13 -4 -30 -6 -54 -6 -65 -10 -94 -38 -25 -24 -29 -25 -33 -9 -4 15
-3 124 1 171 0 7 6 10 12 7 6 -4 8 -13 5 -21 -3 -7 0 -16 6 -20 6 -4 8 -3 4 4
-3 6 -2 14 4 17 6 4 1 14 -12 25 -19 15 -20 20 -10 33 10 12 10 17 1 23 -8 4
-9 3 -5 -4 4 -7 2 -12 -4 -12 -7 0 -10 16 -8 43 2 28 7 41 16 39 8 -1 11 2 7
8 -3 6 -11 7 -17 4 -7 -4 -7 0 1 13 7 14 7 23 -1 31 -14 14 -1 32 20 26 14 -5
14 -4 2 4 -8 6 -18 8 -22 6 -4 -3 -8 -1 -8 5 0 5 5 13 10 16 8 5 8 11 0 20 -6
7 -9 52 -8 109 3 90 8 110 23 86 4 -7 12 -7 25 0 10 6 21 6 24 1 3 -4 18 -6
33 -4 16 2 40 5 54 7 15 2 33 7 40 12 11 6 12 5 2 -7 -12 -15 -12 -43 0 -55 3
-4 4 4 2 17 -7 39 17 59 91 74 6 2 30 15 53 29 23 15 46 24 51 21 5 -3 12 0
16 6 4 8 3 9 -4 5 -22 -13 -12 13 10 28 12 9 19 16 15 16 -5 0 -5 5 -2 10 3 6
8 10 11 10 3 0 3 -4 -1 -9z m-2335 -168 c0 -5 -7 -16 -15 -26 -8 -12 -12 -33
-9 -57 3 -29 -2 -52 -23 -92 -25 -50 -27 -62 -28 -188 0 -130 -2 -137 -31
-195 -50 -96 -76 -183 -81 -270 -6 -113 -9 -121 -48 -145 -20 -12 -42 -35 -50
-51 -9 -16 -20 -29 -27 -29 -6 0 -27 -15 -48 -32 -21 -18 -68 -58 -106 -88
-37 -30 -86 -72 -109 -92 -23 -21 -47 -38 -54 -38 -6 0 -11 18 -11 43 -1 23
-11 278 -24 567 -13 289 -23 526 -21 528 1 1 28 -14 61 -33 32 -20 76 -38 96
-42 45 -7 47 -15 12 -60 -14 -19 -24 -36 -21 -39 2 -3 27 13 55 36 42 32 60
40 94 40 24 0 60 4 81 9 91 21 234 137 271 219 17 37 37 56 36 35z m101 -23
c30 -16 49 -64 49 -123 0 -52 -1 -54 -25 -49 -30 5 -32 -8 -5 -33 11 -10 19
-23 18 -29 -1 -6 3 -29 7 -51 28 -126 28 -135 8 -150 -10 -8 -13 -15 -6 -15 7
0 10 -6 7 -14 -3 -8 3 -20 14 -28 18 -12 47 -60 107 -178 13 -25 33 -83 46
-130 30 -110 39 -128 142 -260 24 -30 51 -71 60 -90 35 -70 47 -234 16 -214
-6 4 -15 0 -20 -7 -7 -12 -9 -12 -9 0 0 11 -6 9 -22 -6 -28 -24 -77 -31 -58
-7 8 9 9 14 2 14 -6 0 -16 -8 -21 -17 -9 -16 -10 -17 -11 -1 0 9 -8 19 -18 22
-10 4 -19 12 -20 19 -3 41 -33 106 -65 139 -14 15 -31 35 -39 46 -25 34 -142
124 -187 144 -26 11 -91 32 -146 47 l-100 26 2 85 c1 47 5 101 8 120 14 84 82
230 107 230 6 0 8 6 5 14 -3 8 1 17 8 20 11 4 12 12 5 33 -6 15 -14 66 -19
113 -8 82 -8 87 21 148 16 35 34 87 39 115 6 29 13 58 15 65 4 15 58 16 85 2z
m964 -58 c-2 -7 0 -10 5 -7 13 8 23 -37 24 -105 1 -42 -2 -55 -14 -55 -8 -1
-33 -10 -55 -20 -46 -23 -57 -25 -67 -10 -15 20 -7 42 28 83 39 46 38 54 -11
94 -20 17 -20 17 15 47 l35 29 23 -21 c12 -12 20 -27 17 -35z m265 -194 c0
-20 -26 -27 -57 -17 -13 5 -39 9 -58 11 l-35 2 5 51 c4 27 2 69 -3 93 l-10 42
79 -82 c43 -46 78 -91 79 -100z m-458 48 c3 -5 -1 -31 -9 -58 -8 -27 -12 -55
-10 -61 6 -15 27 37 27 64 0 10 4 19 9 19 16 0 21 -30 15 -81 -8 -62 0 -86 21
-69 8 7 12 16 9 21 -9 15 13 10 26 -6 9 -11 10 -19 3 -26 -11 -11 -6 -49 7
-49 4 0 15 9 25 20 10 11 23 20 29 20 6 0 3 -7 -7 -14 -14 -11 -15 -15 -3 -25
9 -8 14 -34 14 -79 0 -90 1 -92 77 -217 14 -22 25 -52 25 -66 0 -29 -33 -70
-87 -107 l-31 -22 9 27 c41 130 40 121 13 165 -23 37 -29 40 -63 36 l-37 -3
17 30 c21 36 32 85 18 85 -5 0 -12 -14 -16 -30 -10 -52 -74 -79 -103 -45 -7 8
-18 15 -25 15 -7 0 -16 10 -20 23 l-8 22 -4 -23 c-3 -13 3 -34 11 -48 16 -24
16 -24 -14 -24 -45 0 -90 -26 -85 -49 6 -31 53 -99 72 -105 10 -3 51 -7 91 -8
40 -1 76 -6 78 -10 13 -21 -91 -30 -141 -12 -22 7 -41 12 -43 10 -1 -2 7 -16
20 -31 21 -23 31 -27 85 -28 59 -1 61 -2 59 -26 -3 -24 -8 -26 -54 -29 -57 -3
-124 11 -145 32 -7 7 -29 21 -47 31 -63 32 -70 43 -70 109 0 82 24 189 52 234
26 43 80 119 103 145 8 9 14 23 13 30 -2 6 3 11 11 9 9 -2 12 4 8 17 -3 12 3
31 13 43 22 29 44 97 35 106 -4 4 -10 1 -12 -5 -3 -7 -9 -13 -14 -13 -10 0
-12 44 -3 78 6 22 7 22 28 5 11 -10 24 -22 28 -27z m683 -247 c3 -20 14 -65
24 -102 11 -36 18 -67 16 -69 -1 -2 -6 -28 -9 -58 -4 -30 -10 -68 -15 -85 -9
-30 -9 -29 -10 10 -1 23 -12 79 -26 126 -13 47 -28 118 -31 157 -6 60 -4 76
12 99 l18 28 8 -35 c4 -19 10 -51 13 -71z m-917 -15 c2 -1 -19 -41 -47 -88
-62 -105 -80 -170 -69 -246 5 -30 7 -66 6 -80 -2 -19 -7 -12 -21 31 -11 36
-18 89 -19 147 0 81 3 97 27 144 48 93 63 109 93 102 15 -4 29 -8 30 -10z
m1750 -71 c-2 -10 -28 -27 -63 -41 -86 -34 -89 -42 -14 -42 36 0 69 -3 73 -7
9 -10 -191 -43 -212 -36 -9 4 -19 10 -22 15 -7 10 -50 -19 -50 -34 0 -7 20 -8
63 -4 100 12 278 44 332 62 56 17 170 14 321 -11 172 -28 130 -53 -101 -61
-100 -3 -112 -4 -174 -23 -19 -6 -37 -9 -40 -7 -4 3 -22 -9 -41 -25 l-35 -28
54 20 c64 24 90 20 35 -5 -21 -10 -61 -29 -87 -42 -27 -13 -63 -24 -80 -24
-36 0 -181 -25 -239 -41 -22 -5 -47 -9 -56 -8 -35 3 -75 -1 -69 -8 15 -14 92
-14 136 1 47 15 180 33 171 23 -3 -3 -36 -17 -75 -32 -51 -19 -94 -27 -160
-30 -49 -2 -92 -5 -95 -6 -3 -1 -9 -1 -13 0 -5 1 -6 -3 -3 -8 3 -5 45 -7 93
-5 177 7 199 11 302 64 54 28 102 50 106 50 5 0 16 6 24 14 20 17 132 59 139
52 3 -3 -3 -8 -12 -12 -10 -4 -48 -52 -85 -108 -38 -56 -75 -107 -83 -114 -9
-7 -42 -19 -74 -28 -53 -13 -69 -13 -173 2 -76 11 -141 14 -190 10 -49 -4 -79
-2 -87 5 -10 8 -14 41 -14 117 0 92 3 110 21 137 18 26 79 75 92 75 5 0 -19
-140 -28 -162 -4 -10 -3 -18 2 -18 16 0 43 69 43 113 1 59 28 107 75 134 50
29 58 29 45 1 -6 -13 6 -4 27 20 44 49 95 71 171 72 45 0 53 -3 50 -17z
m-1044 -149 c-2 -28 4 -64 16 -96 29 -78 22 -147 -27 -249 -51 -106 -85 -225
-78 -279 3 -22 14 -55 25 -72 28 -46 25 -74 -13 -137 -17 -29 -38 -64 -45 -77
-21 -39 -32 -27 -12 14 51 107 62 189 33 245 -26 51 -19 110 25 207 16 36 32
82 36 103 4 21 11 35 17 32 24 -15 34 113 13 166 -21 50 -13 189 10 189 2 0 2
-20 0 -46z m1714 -19 c67 -20 75 -34 11 -21 -43 9 -62 6 -154 -21 -106 -31
-143 -29 -60 3 55 21 52 29 -4 14 -54 -14 -131 -84 -234 -212 -120 -149 -163
-183 -278 -218 -53 -17 -106 -30 -118 -30 -12 0 -40 -9 -62 -20 -22 -12 -44
-18 -49 -15 -8 5 -100 -41 -100 -50 0 -6 45 1 57 8 7 4 38 16 70 27 32 10 82
28 111 39 52 19 57 15 22 -19 -22 -21 -130 -165 -130 -173 0 -19 -94 -156
-115 -167 -11 -6 -28 -24 -37 -40 -13 -23 -24 -30 -46 -30 -40 0 -42 12 -42
325 l0 263 32 7 c54 12 178 8 270 -10 80 -15 91 -15 150 0 35 9 71 24 82 33
10 10 47 61 82 114 69 106 84 118 209 157 163 51 251 60 333 36z m102 -71 c25
-14 72 -42 105 -64 33 -21 78 -48 100 -60 181 -95 262 -247 344 -644 12 -55
21 -101 21 -103 0 -7 -199 -2 -204 6 -3 4 -6 23 -8 42 -1 19 -5 39 -8 44 -4 6
-10 23 -14 38 -5 21 -4 27 5 21 9 -5 10 -2 5 12 -5 10 -11 28 -14 39 -5 18 -4
18 11 6 19 -15 23 -1 5 17 -8 8 -8 15 1 25 9 11 3 23 -30 58 -23 24 -37 37
-32 29 6 -8 13 -51 16 -95 4 -44 9 -91 12 -105 4 -14 7 -32 8 -40 2 -8 8 -32
16 -53 7 -21 11 -41 8 -44 -8 -7 -467 8 -467 16 0 4 11 50 25 102 29 105 39
171 24 148 -25 -37 -40 -71 -28 -63 9 5 10 2 5 -12 -9 -22 -35 -119 -40 -149
-2 -11 -4 -23 -5 -27 0 -5 -87 -8 -192 -8 -161 0 -190 2 -186 14 5 11 0 11
-23 -2 -16 -9 -32 -14 -35 -10 -14 13 7 27 50 34 25 3 45 10 45 15 0 5 -11 7
-25 3 -38 -9 -30 3 21 35 25 16 41 32 36 35 -5 3 -22 -4 -36 -15 -15 -12 -29
-19 -31 -17 -6 6 65 78 76 78 5 0 9 6 9 13 1 6 9 30 20 52 28 59 26 70 -11 48
-17 -10 -36 -25 -42 -33 -7 -8 3 -4 21 9 17 12 32 20 32 16 0 -17 -23 -46 -48
-59 -23 -13 -24 -15 -7 -16 18 -1 16 -4 -11 -28 -16 -16 -29 -33 -27 -38 2 -6
-5 -18 -16 -28 -11 -10 -17 -24 -15 -31 3 -7 -14 -26 -36 -43 l-42 -31 -262 6
c-143 3 -263 7 -265 9 -6 6 46 77 80 110 17 16 48 67 70 114 50 107 119 181
206 221 77 36 209 150 268 234 61 85 149 144 274 181 92 28 173 24 241 -12z
m-1908 -6 c-3 -13 -14 -39 -25 -58 -42 -74 -49 -93 -54 -149 -4 -38 -2 -61 6
-65 7 -5 11 3 12 21 l1 28 7 -25 c4 -14 4 -28 -1 -31 -5 -3 -7 -31 -4 -62 3
-52 -10 -116 -27 -133 -4 -4 -7 -16 -7 -26 0 -29 -17 -21 -24 12 -4 20 3 56
18 102 22 65 23 75 11 115 -7 24 -18 49 -23 56 -5 7 -7 21 -5 32 2 11 4 30 4
43 -1 33 15 60 68 114 25 26 47 48 48 48 0 0 -1 -10 -5 -22z m-609 -181 c71
-33 137 -92 137 -122 0 -7 4 -16 8 -19 5 -3 6 8 4 25 -3 18 0 29 8 29 26 0 82
-34 95 -59 l14 -26 -5 32 c-6 28 -3 33 20 39 17 4 35 0 51 -10 37 -25 42 -19
11 13 -26 27 -27 31 -14 50 23 33 65 62 97 66 29 3 29 2 29 -42 0 -26 -4 -58
-10 -72 -6 -14 -12 -42 -15 -61 -12 -84 -25 -103 -88 -136 -42 -22 -65 -29
-77 -23 -10 6 -19 5 -23 -1 -11 -17 -25 -11 -18 8 6 15 5 16 -12 2 -15 -12
-17 -12 -10 -1 6 11 3 13 -13 9 -12 -4 -22 -3 -22 1 0 11 -69 5 -102 -8 -16
-6 -28 -7 -29 -3 -1 4 -5 -4 -9 -18 l-8 -25 -2 25 c-1 14 -2 46 -4 71 -1 28
-15 70 -34 107 -18 34 -32 66 -32 73 0 6 -16 34 -35 60 l-35 49 26 0 c14 0 58
-15 97 -33z m-820 -23 c-3 -8 -1 -14 5 -14 6 0 12 6 15 13 3 9 7 9 20 -1 9 -8
22 -10 28 -6 9 5 10 2 6 -9 -4 -11 -1 -17 7 -17 8 0 16 6 19 13 3 9 7 9 20 -1
8 -7 21 -12 29 -11 28 3 45 -2 66 -22 12 -11 27 -17 34 -13 6 4 8 3 4 -4 -3
-6 -2 -13 4 -17 5 -3 10 -1 10 5 0 18 52 -18 120 -84 33 -32 57 -62 54 -67 -9
-16 7 -33 18 -18 6 11 8 9 6 -6 -2 -12 2 -19 10 -17 8 1 11 -2 8 -7 -4 -5 0
-13 8 -18 18 -10 33 -63 17 -63 -6 0 -8 7 -5 15 4 8 1 15 -5 15 -6 0 -11 -4
-11 -10 0 -5 -7 -10 -15 -10 -8 0 -15 5 -15 10 0 6 5 10 10 10 6 0 10 5 10 12
0 6 -7 4 -18 -5 -23 -21 -33 -22 -26 -2 7 18 -7 20 -24 3 -6 -6 -15 -8 -19 -4
-4 4 -1 11 7 16 8 5 11 13 6 17 -5 4 -11 2 -13 -4 -3 -7 -11 -13 -18 -13 -7 0
-15 6 -18 13 -3 9 -10 7 -25 -7 l-21 -18 40 -41 c28 -29 35 -43 26 -49 -12 -8
-4 -11 23 -9 19 2 130 -99 133 -120 2 -8 13 -26 25 -39 24 -26 28 -40 12 -40
-5 0 -10 5 -10 10 0 14 -27 12 -33 -2 -4 -10 -8 -10 -15 1 -7 9 -16 11 -28 6
-31 -13 -108 -9 -99 5 3 6 -1 10 -10 10 -9 0 -13 -4 -10 -10 3 -5 -3 -10 -15
-10 -12 0 -18 5 -15 10 9 14 -9 12 -23 -2 -10 -10 -15 -10 -22 1 -7 12 -11 13
-24 1 -9 -7 -20 -10 -23 -6 -4 4 -1 11 7 16 8 5 12 12 8 15 -3 4 -16 -2 -27
-11 -16 -14 -40 -19 -96 -20 -42 -1 -72 2 -69 7 3 5 -2 9 -11 9 -9 0 -13 -4
-10 -10 3 -5 -1 -10 -9 -10 -9 0 -16 5 -16 10 0 6 -6 10 -14 10 -8 0 -16 6
-19 13 -3 8 -11 4 -24 -12 -12 -15 -24 -21 -32 -16 -11 6 -10 9 0 16 7 4 10
11 6 15 -4 4 -13 -1 -21 -11 -18 -25 -105 -29 -124 -6 -12 14 -13 14 -8 -2 7
-22 -23 -20 -41 3 -11 13 -12 13 -13 -2 0 -21 -25 -24 -34 -5 -5 10 -7 10 -12
0 -3 -7 -12 -13 -19 -13 -7 0 -16 6 -18 13 -4 9 -7 9 -14 0 -5 -7 -22 -11 -38
-9 -30 3 -30 3 -31 72 -1 38 -3 69 -4 69 -1 0 -3 30 -6 67 l-4 67 46 43 c25
24 56 47 67 53 12 5 32 20 45 33 12 13 22 19 22 15 0 -4 12 9 27 30 14 20 31
38 37 39 6 0 18 2 26 2 8 1 14 8 12 15 -2 11 3 10 21 -2 23 -15 26 -15 41 2
18 20 12 32 -12 24 -13 -3 -12 -1 3 12 12 9 21 11 23 5 5 -15 22 -12 22 5 0 9
6 12 16 8 11 -4 12 -9 5 -16 -6 -6 -11 -15 -11 -19 0 -4 9 1 20 12 24 24 43
25 64 4 14 -14 18 -14 31 0 14 14 14 17 -2 35 -10 13 -20 17 -23 10 -10 -15
-60 1 -60 19 0 12 -5 11 -21 -7 -23 -24 -33 -23 -23 2 6 16 23 23 61 24 14 0
20 -4 16 -13z m1621 -166 c39 -84 32 -153 -23 -222 l-29 -36 -15 23 c-20 31
-37 94 -37 137 0 40 30 144 51 178 l14 22 6 -22 c4 -13 18 -49 33 -80z m-604
-156 l65 -19 7 -44 c6 -32 17 -52 44 -77 34 -31 36 -37 31 -77 -2 -25 -12 -57
-22 -71 -16 -25 -20 -26 -73 -20 -32 3 -58 5 -59 6 0 0 10 22 23 50 28 58 29
75 9 123 -8 20 -15 44 -14 54 0 13 3 12 10 -6 5 -13 12 -21 15 -18 3 3 -1 18
-10 35 -8 16 -13 32 -10 35 3 3 1 8 -4 11 -6 3 -13 -19 -17 -51 -10 -84 -25
-110 -18 -33 4 52 2 68 -10 78 -14 12 -15 10 -8 -15 12 -43 -5 -119 -35 -158
-14 -19 -32 -52 -40 -72 -8 -25 -13 -31 -14 -17 0 12 10 41 23 65 24 45 35
133 18 143 -5 4 -7 -9 -5 -31 4 -27 -2 -53 -20 -88 -18 -37 -25 -44 -25 -27
-1 12 -10 48 -21 80 -24 67 -19 105 19 138 32 28 57 29 141 6z m-325 -158
c-11 -24 -15 -47 -11 -70 6 -29 4 -33 -10 -27 -15 6 -15 4 1 -20 l17 -27 -38
0 c-37 0 -42 4 -87 70 l-48 69 23 15 c13 8 44 17 69 21 l47 7 -4 -49 -3 -48 8
44 c4 24 16 50 27 58 26 19 30 1 9 -43z"/>
<path d="M3685 5174 c-24 -25 -46 -85 -48 -132 -1 -23 0 -42 3 -42 3 0 20 32
39 71 35 72 54 90 27 24 -24 -55 -19 -64 14 -27 25 27 60 43 60 27 0 -2 -22
-25 -49 -50 -51 -48 -54 -61 -23 -97 8 -10 23 -18 34 -18 13 0 18 -7 18 -25 0
-32 53 -63 76 -44 13 11 12 15 -11 26 -26 14 -26 22 3 55 30 35 -7 49 -59 22
-17 -8 -38 -13 -46 -10 -26 10 5 36 42 36 18 0 43 8 55 18 l21 17 -21 57 c-33
88 -96 131 -135 92z"/>
<path d="M0 3571 c0 -527 3 -661 12 -655 8 5 7 0 -2 -11 -9 -11 -10 -16 -2
-11 13 8 17 -6 5 -18 -10 -10 -11 -96 -1 -90 10 6 11 -10 1 -20 -4 -3 -8 -16
-10 -27 -2 -14 1 -18 9 -13 9 5 9 2 -1 -9 -10 -13 -10 -17 -1 -17 9 0 9 -4 -1
-17 -12 -15 -12 -16 1 -8 12 7 13 6 4 -6 -15 -19 -14 -48 1 -43 14 6 15 -50 1
-63 -5 -4 -6 -3 -2 5 4 6 3 12 -2 12 -5 0 -10 -41 -11 -91 -2 -75 1 -95 16
-113 12 -14 13 -17 2 -9 -14 11 -15 -1 -14 -126 1 -81 6 -145 12 -153 5 -7 9
-27 8 -45 -1 -18 2 -30 7 -27 7 5 10 -3 7 -22 0 -4 5 -10 11 -14 9 -5 9 -9 1
-14 -10 -6 -15 6 -12 27 1 4 -8 2 -19 -5 -11 -7 -20 -17 -20 -22 0 -4 7 -3 15
4 13 11 15 10 12 -6 -1 -11 -6 -25 -11 -32 -5 -8 -3 -18 4 -25 10 -9 11 -9 5
2 -5 9 -4 12 3 7 6 -3 13 -2 17 4 3 5 2 10 -3 10 -5 0 -9 6 -9 14 0 8 6 12 13
9 22 -8 1 -56 -27 -59 -22 -3 -23 -5 -9 -14 10 -6 21 -4 35 8 13 11 12 8 -4
-11 -24 -27 -38 -36 -26 -17 3 5 2 10 -4 10 -6 0 -9 -30 -8 -74 1 -41 4 -74 7
-74 18 1 30 -3 30 -12 0 -6 -6 -10 -14 -8 -8 2 -15 -1 -15 -7 0 -5 7 -9 15 -7
8 2 14 -2 14 -8 0 -9 -12 -14 -31 -12 -8 1 -4 -56 5 -65 4 -5 6 -2 4 6 -2 7 3
16 10 18 7 3 11 -1 10 -9 -2 -7 4 -12 13 -10 18 3 21 -28 4 -40 -6 -5 -5 -8 3
-8 6 0 12 -5 12 -12 0 -9 -3 -9 -12 0 -7 7 -13 18 -13 24 0 6 -10 12 -22 13
-21 2 -22 0 -21 -147 0 -135 2 -151 19 -161 11 -7 19 -16 19 -21 0 -5 -9 -1
-20 9 -20 18 -20 17 -20 -113 0 -113 2 -132 16 -132 8 0 13 -4 10 -8 -7 -11
33 -44 44 -37 6 3 7 -1 4 -9 -4 -11 0 -16 10 -16 17 0 18 -20 1 -32 -7 -5 -6
-11 0 -15 15 -11 20 -97 6 -89 -6 4 -11 2 -11 -3 0 -6 5 -11 10 -11 6 0 10 -7
10 -15 0 -8 -8 -15 -17 -15 -14 0 -12 -4 7 -22 21 -20 22 -23 7 -26 -9 -2 -17
-7 -17 -12 0 -5 6 -7 14 -4 9 4 13 -3 13 -20 1 -17 -4 -23 -13 -19 -8 3 -14 0
-14 -6 0 -6 6 -11 14 -11 11 0 14 -17 15 -78 0 -42 1 -79 2 -82 0 -3 2 -71 3
-151 2 -80 6 -151 10 -158 4 -6 2 -18 -4 -26 -6 -8 -8 -20 -4 -27 4 -6 9 -26
11 -43 3 -23 -3 -36 -28 -57 -18 -16 -27 -28 -21 -28 6 0 17 7 26 15 19 19 30
19 22 0 -4 -11 2 -15 20 -15 l26 0 -6 148 c-3 81 -8 197 -11 257 -3 61 -10
234 -15 385 -15 403 -29 761 -35 875 -2 55 -7 174 -10 265 -3 91 -8 201 -10
245 -3 44 -9 208 -15 365 -5 157 -12 321 -15 365 -2 44 -7 175 -10 290 -3 116
-10 300 -15 410 -5 110 -12 295 -16 410 -4 116 -8 212 -10 214 -2 2 -4 -294
-4 -658z"/>
<path d="M146 2844 c-4 -10 0 -176 8 -369 20 -442 50 -1131 76 -1750 12 -264
24 -525 28 -580 l7 -100 1150 0 c1817 1 3513 6 3535 12 17 4 19 11 14 42 -9
58 -12 440 -13 1602 l-1 1086 -52 11 c-33 7 -227 14 -503 17 -247 3 -583 7
-745 10 -162 2 -549 7 -860 10 -311 3 -653 7 -760 10 -107 2 -573 8 -1036 11
-816 7 -841 6 -848 -12z m737 -27 l538 -3 26 -30 c55 -64 104 -188 122 -309
13 -86 8 -346 -8 -439 -18 -105 -86 -335 -126 -430 -39 -89 -121 -197 -189
-250 -24 -18 -35 -33 -32 -43 5 -12 1 -14 -17 -9 -13 3 -32 -1 -44 -9 -40 -28
-161 -67 -294 -95 -124 -26 -145 -27 -240 -20 -131 11 -329 77 -367 122 -7 9
-17 138 -27 369 -8 195 -22 505 -30 689 -8 184 -15 363 -15 397 0 71 -2 70
100 66 36 -2 307 -4 603 -6z m2587 -32 c272 -3 590 -8 705 -10 116 -2 235 -4
265 -4 53 -1 57 -3 115 -59 63 -60 135 -144 135 -157 0 -4 13 -27 30 -52 16
-24 30 -46 30 -50 0 -3 13 -24 28 -47 15 -22 38 -62 50 -87 l22 -46 -36 -39
c-20 -21 -48 -57 -62 -79 -54 -87 -173 -225 -193 -225 -10 0 -19 5 -19 12 0 7
-18 -5 -40 -27 -45 -44 -46 -57 -1 -24 42 31 51 16 13 -23 -18 -17 -30 -34
-27 -37 3 -2 14 5 25 17 27 28 34 28 18 0 -6 -13 -12 -31 -13 -41 -2 -20 15
-18 26 4 47 97 72 133 177 253 23 26 42 52 42 58 0 5 18 33 40 62 57 75 126
101 116 43 -3 -12 -5 -28 -5 -35 -1 -7 -5 -10 -11 -7 -17 10 -107 -100 -180
-220 -23 -38 -50 -81 -60 -95 -9 -14 -23 -43 -30 -65 -7 -22 -22 -60 -34 -85
-27 -55 -40 -100 -27 -100 5 0 11 7 15 15 7 19 44 19 87 1 32 -14 32 -14 8
-22 -13 -4 -33 -8 -44 -9 -29 0 -75 -34 -75 -55 0 -10 12 -33 26 -50 26 -31
26 -32 10 -72 -18 -47 -13 -62 12 -32 9 11 34 32 55 48 40 29 46 51 22 82 -24
31 -17 52 25 79 75 48 95 135 45 201 -23 30 -33 35 -56 32 -37 -6 -36 1 1 37
25 24 34 27 48 19 26 -16 63 -90 65 -129 2 -39 11 -44 27 -15 6 11 8 20 4 20
-3 0 -1 7 6 15 8 9 8 15 2 15 -7 0 -8 10 -2 30 5 16 7 37 5 47 -2 10 -4 30 -4
45 -1 17 -14 40 -34 61 -38 38 -37 57 3 57 35 0 56 -42 59 -115 4 -93 20 -72
19 23 -1 50 1 95 5 98 4 4 7 -35 7 -87 0 -61 -4 -99 -12 -107 -7 -7 -11 -32
-9 -58 3 -45 -14 -104 -29 -104 -14 0 -89 -107 -92 -131 -2 -13 -7 -30 -12
-37 -7 -11 -4 -11 13 0 12 7 26 29 31 49 6 20 28 56 51 80 22 24 44 53 49 64
18 41 10 -72 -9 -131 -10 -33 -22 -84 -26 -114 -4 -30 -13 -66 -20 -81 -17
-32 -95 -105 -124 -114 -11 -3 -21 -10 -21 -15 0 -4 -7 -10 -14 -13 -10 -4
-13 -1 -9 9 3 7 0 14 -5 14 -6 0 -13 9 -17 19 -4 14 -11 18 -23 14 -15 -6 -15
-5 -3 10 19 24 -4 22 -28 -2 -14 -14 -19 -31 -17 -60 1 -22 5 -43 9 -47 4 -4
7 -16 7 -26 0 -10 5 -18 10 -18 6 0 8 -10 5 -22 -3 -13 1 -32 8 -43 13 -17 13
-22 0 -41 -9 -14 -10 -24 -4 -28 9 -6 6 -86 -5 -116 -3 -8 -8 -28 -10 -45 -13
-84 -108 -307 -153 -360 -9 -11 -29 -38 -43 -60 -33 -51 -118 -140 -183 -191
-27 -21 -61 -49 -75 -62 -26 -24 -69 -47 -83 -43 -4 0 -18 -11 -32 -26 l-23
-28 -446 -2 c-288 -1 -446 1 -446 8 0 6 -8 5 -21 -1 -11 -7 -23 -9 -27 -6 -3
3 0 6 6 6 7 0 12 5 12 10 0 6 -14 4 -35 -4 -37 -16 -58 -5 -28 14 15 10 14 10
-8 6 -31 -7 -43 2 -28 21 8 9 8 13 1 13 -6 0 -14 -5 -17 -10 -4 -6 -11 -8 -16
-4 -6 3 -3 12 8 20 16 11 13 12 -22 7 -37 -6 -39 -5 -26 11 12 14 12 16 -4 10
-14 -6 -16 -3 -11 14 5 15 2 22 -14 27 -21 7 -21 7 -3 27 18 21 18 21 -5 9
-22 -12 -23 -11 -13 8 16 28 14 36 -6 20 -15 -12 -16 -12 -10 4 5 14 3 18 -11
15 -9 -2 -15 -11 -13 -19 6 -22 5 -42 -4 -64 -8 -18 -7 -18 8 -6 23 18 21 5
-3 -29 -24 -33 -13 -50 12 -18 13 17 18 19 18 7 0 -8 -7 -24 -15 -35 -23 -31
-17 -40 10 -14 34 32 43 18 11 -18 -21 -23 -35 -29 -72 -30 -60 -3 -68 4 -46
36 24 34 53 92 57 115 7 31 -14 8 -35 -40 -11 -25 -28 -52 -38 -60 -42 -34
-63 -45 -89 -48 -25 -3 -371 -8 -415 -6 -32 2 -77 52 -117 133 -43 85 -42 99
7 79 15 -6 41 -13 59 -15 25 -2 30 0 26 13 -3 12 0 11 11 -3 14 -18 16 -18 16
-3 0 15 3 15 21 5 17 -11 22 -10 30 5 8 14 14 16 25 6 10 -8 14 -8 14 -1 0 6
7 9 15 6 10 -4 15 0 16 12 0 12 3 14 6 6 4 -10 8 -10 19 -1 10 8 14 8 14 0 0
-6 20 1 44 14 52 29 69 31 86 10 7 -8 16 -13 20 -10 4 3 11 -3 14 -12 4 -10
10 -13 14 -8 13 18 56 50 47 36 -6 -11 -3 -13 13 -9 16 5 19 2 15 -11 -3 -9
10 0 30 18 34 32 54 67 24 42 -10 -8 -19 -7 -33 3 -16 13 -21 12 -36 -1 -11
-10 -18 -11 -18 -5 0 6 -7 9 -15 6 -8 -4 -15 -1 -15 6 0 9 -7 7 -20 -5 -19
-17 -20 -17 -20 0 0 13 -3 15 -12 7 -7 -5 -35 -12 -63 -14 -27 -3 -92 -18
-144 -33 -86 -25 -99 -26 -145 -16 -28 7 -71 14 -96 17 -60 7 -86 21 -105 58
-9 17 -23 44 -32 59 -8 16 -13 30 -11 32 2 3 27 -16 55 -40 48 -43 73 -55 73
-37 0 4 -5 13 -12 20 -9 9 -6 12 13 12 24 0 49 -16 49 -32 0 -4 -10 -8 -22 -8
-34 0 -8 -19 32 -23 19 -3 64 4 100 15 68 20 134 33 210 43 143 18 174 33 295
138 43 37 81 67 85 67 4 0 11 -10 15 -22 l8 -23 4 22 c9 47 -29 90 -76 84 -7
-2 -10 2 -6 8 3 6 2 11 -4 11 -5 0 -9 -9 -8 -20 1 -11 6 -19 11 -17 6 2 18 -3
27 -11 16 -14 15 -17 -21 -43 -44 -32 -119 -55 -205 -64 -76 -8 -79 -9 -210
-44 -60 -16 -152 -35 -203 -42 -85 -12 -96 -12 -126 5 -56 30 -106 76 -106 97
0 11 -4 17 -10 14 -5 -3 -10 -1 -10 5 0 6 -5 8 -12 4 -8 -5 -9 -2 -5 9 3 10 2
17 -4 17 -6 0 -8 9 -3 23 6 21 6 22 -14 4 -17 -16 -18 -23 -10 -52 6 -18 21
-38 33 -45 16 -8 21 -19 19 -38 -3 -30 15 -73 54 -123 56 -74 107 -145 120
-167 13 -23 16 -40 5 -29 -3 4 -14 -7 -24 -23 -11 -17 -24 -30 -30 -30 -7 0
-6 8 3 23 12 17 16 51 9 75 -1 2 -13 -9 -28 -23 -38 -34 -45 -32 -27 10 19 47
18 56 -4 20 -11 -16 -27 -36 -36 -44 -16 -13 -17 -12 -10 14 5 20 4 26 -5 21
-6 -4 -11 -14 -11 -22 0 -15 -12 -19 -23 -7 -4 3 -2 12 5 20 21 25 1 24 -31
-2 -25 -22 -31 -24 -31 -10 0 9 5 25 10 35 6 11 6 21 1 24 -5 3 -12 -5 -15
-18 -6 -23 -33 -42 -45 -31 -3 3 0 14 7 25 7 12 8 21 2 25 -6 4 -13 -1 -16 -9
-10 -27 -24 -18 -25 17 -1 17 -3 24 -6 14 -8 -32 -25 -18 -21 19 3 29 2 33 -7
20 -17 -23 -35 0 -29 38 2 17 2 25 -2 19 -10 -23 -26 -14 -21 13 3 18 1 24 -8
20 -16 -6 -21 8 -21 50 1 19 -3 30 -10 27 -14 -5 -26 39 -17 63 5 13 3 15 -7
9 -10 -6 -12 -2 -8 19 3 14 1 26 -4 26 -6 0 -7 11 -4 24 3 13 2 26 -4 28 -16
5 -26 319 -11 347 8 15 9 26 3 34 -6 7 -13 54 -17 105 -8 106 8 220 32 229 9
3 32 -12 58 -37 l43 -42 -24 50 c-24 50 -55 86 -40 47 7 -18 6 -18 -14 0 -23
21 -28 44 -5 25 18 -15 18 -10 5 24 -14 38 -7 32 30 -26 19 -29 42 -60 51 -69
16 -16 18 -15 38 12 12 16 26 27 32 24 5 -4 1 -14 -10 -23 -31 -27 -54 -69
-42 -77 6 -3 8 -17 5 -29 -4 -18 4 -31 42 -65 42 -36 54 -42 89 -40 22 1 48 9
58 17 9 8 17 12 17 9 0 -7 -38 -76 -50 -92 -19 -24 -51 -88 -46 -92 13 -13 32
8 44 48 7 24 27 60 43 79 17 19 26 26 21 15 -5 -11 -12 -41 -15 -68 -4 -26
-14 -58 -22 -71 -9 -13 -17 -35 -19 -48 -1 -13 -6 -30 -10 -37 -4 -7 -5 -15
-2 -18 3 -3 0 -13 -6 -22 -10 -12 -7 -12 8 2 11 9 21 23 22 30 1 6 8 35 16 62
35 119 66 238 66 256 0 11 -10 43 -21 70 -17 38 -19 53 -10 62 6 6 11 19 11
29 0 10 7 18 16 18 8 0 12 5 8 11 -4 7 1 7 16 -1 18 -10 24 -9 31 1 7 11 9 10
9 -3 0 -10 4 -18 9 -18 5 0 11 -9 14 -20 3 -11 9 -20 14 -19 15 2 53 -13 49
-20 -2 -3 7 -11 20 -18 18 -8 24 -8 24 0 0 7 5 4 10 -5 7 -11 19 -15 36 -12
19 3 24 1 18 -8 -5 -10 -4 -11 7 0 22 20 34 14 14 -8 -22 -24 -8 -26 25 -3 24
16 24 16 11 0 -12 -15 -12 -19 5 -31 10 -8 23 -12 28 -8 5 3 7 -2 3 -11 -4
-11 -1 -17 9 -17 8 0 17 -6 20 -14 3 -9 12 -12 22 -9 11 5 14 2 9 -9 -4 -11 0
-16 16 -15 12 0 38 -2 58 -6 27 -5 40 -2 49 8 7 8 19 15 27 15 11 0 8 -6 -8
-20 -28 -22 -13 -27 17 -5 25 19 40 19 24 0 -19 -23 -7 -28 67 -28 102 0 164
10 227 38 32 14 66 27 76 28 10 2 24 7 32 13 7 5 27 9 43 8 17 -1 35 2 40 6 6
4 17 7 26 7 17 0 107 58 126 82 7 9 12 25 12 36 0 19 0 19 -18 -3 -11 -12 -23
-22 -27 -22 -4 0 -16 -7 -25 -16 -10 -9 -30 -17 -44 -16 -14 0 -28 -5 -31 -10
-4 -6 -10 -5 -14 3 -7 10 -11 10 -24 0 -9 -8 -16 -9 -16 -4 0 5 -13 8 -30 5
-19 -3 -30 0 -30 8 0 7 -7 10 -15 6 -8 -3 -15 -1 -15 4 0 5 -12 5 -29 0 -16
-4 -32 -6 -35 -3 -5 6 -79 14 -118 14 -10 0 -18 5 -18 11 0 6 -6 6 -15 -2 -12
-10 -21 -10 -41 -1 -14 6 -30 9 -35 5 -6 -3 -16 -1 -24 6 -8 7 -15 7 -19 1 -6
-9 -58 3 -237 57 -61 18 -70 19 -95 5 -28 -14 -39 -17 -94 -28 -35 -6 -80 16
-86 43 -4 12 -10 22 -15 22 -5 0 -9 10 -9 23 -1 22 -1 22 -17 2 -15 -19 -15
-19 -8 10 5 24 4 27 -6 18 -10 -10 -15 -9 -25 4 -9 14 -15 15 -26 5 -8 -6 -18
-9 -21 -5 -4 3 -7 -6 -7 -22 0 -24 -2 -26 -16 -14 -13 11 -15 11 -12 -2 1 -7
-2 -15 -7 -16 -6 0 -9 3 -7 9 1 5 -2 7 -8 3 -6 -3 -8 -11 -5 -16 11 -17 14
-50 4 -44 -5 4 -9 12 -9 20 0 8 -5 17 -10 20 -7 4 -9 -3 -5 -22 l6 -28 -19 22
c-11 12 -22 19 -26 16 -4 -4 -25 12 -49 35 -42 41 -82 62 -118 62 -11 0 -36
11 -56 25 -20 13 -40 22 -45 19 -4 -3 -13 7 -18 21 -5 14 -14 23 -20 20 -10
-6 -14 13 -10 50 5 56 187 354 216 355 5 0 20 14 32 30 13 17 29 30 37 30 8 0
23 20 34 45 21 47 38 62 25 23 -6 -22 -6 -22 12 -6 11 9 24 16 29 15 6 -1 12
9 13 23 4 21 2 22 -12 11 -14 -12 -16 -11 -10 5 7 18 7 18 -17 0 -13 -11 -48
-45 -78 -75 -29 -31 -50 -47 -46 -36 4 11 16 54 26 95 58 228 140 383 282 533
l55 59 433 -5 c239 -3 657 -8 929 -12z m1436 -1731 c-7 -26 -61 -95 -69 -87
-4 3 -11 -7 -17 -22 -6 -17 -15 -25 -24 -22 -8 3 -17 -1 -20 -10 -6 -14 -8
-14 -21 3 -13 17 -14 17 -15 2 0 -28 -19 -31 -30 -4 -5 14 -12 26 -15 26 -4 0
-3 -4 0 -10 3 -5 3 -15 -1 -22 -5 -7 -12 -5 -22 8 -13 18 -14 17 -8 -8 5 -24
3 -28 -14 -28 -24 0 -24 5 -6 125 8 50 13 108 11 130 -3 51 1 62 28 69 33 8
164 136 180 176 8 19 20 64 28 100 14 63 14 59 17 -170 1 -129 0 -244 -2 -256z
m-3361 -4 c-1 -19 -3 -43 -4 -53 -1 -10 -5 -15 -11 -12 -5 3 -10 1 -10 -4 0
-6 5 -11 10 -11 6 0 10 -7 10 -15 0 -8 -4 -15 -10 -15 -5 0 -10 -5 -10 -11 0
-5 4 -8 8 -5 13 8 11 -28 -2 -36 -8 -5 -7 -11 2 -20 17 -17 15 -28 -5 -28 -14
0 -13 -4 7 -22 22 -21 22 -22 4 -29 -24 -8 -51 -39 -35 -39 6 0 11 5 11 10 0
19 36 10 37 -9 1 -14 -3 -18 -13 -14 -8 3 -14 0 -14 -6 0 -6 6 -11 14 -11 10
0 13 -10 12 -32 -2 -18 2 -36 8 -40 8 -5 7 -11 -2 -20 -16 -16 -15 -28 4 -28
8 0 13 -4 10 -9 -3 -5 1 -14 9 -21 11 -9 12 -16 4 -26 -8 -10 -5 -19 10 -35
23 -25 27 -39 11 -39 -5 0 -10 -5 -10 -11 0 -6 7 -9 15 -5 10 4 15 -1 15 -14
0 -11 -7 -20 -15 -20 -8 0 -15 -4 -15 -10 0 -13 17 -13 25 0 9 15 19 12 33
-11 12 -18 10 -23 -9 -40 -12 -10 -19 -22 -16 -25 3 -4 14 1 23 11 17 16 18
16 25 -1 3 -11 32 -43 63 -72 31 -29 56 -57 56 -63 0 -5 6 -8 13 -6 6 1 11 -4
10 -10 -2 -7 4 -13 12 -13 8 0 15 -7 15 -16 0 -14 3 -14 15 -4 13 11 20 9 43
-11 15 -13 30 -28 33 -33 4 -5 14 -6 23 -3 9 4 16 2 16 -3 0 -15 -20 -22 -34
-11 -9 7 -16 7 -24 -1 -8 -8 -15 -8 -25 1 -11 9 -17 8 -27 -4 -10 -12 -16 -13
-26 -4 -11 9 -18 8 -29 -1 -8 -7 -15 -8 -15 -3 0 6 -22 9 -50 8 -28 -1 -53 2
-56 7 -4 6 -10 5 -14 -2 -10 -16 -40 -6 -40 12 0 9 3 9 10 -2 5 -8 12 -11 16
-7 4 3 1 14 -7 23 -11 14 -10 17 5 26 12 7 14 13 7 22 -8 10 -6 20 9 39 11 14
20 30 20 37 0 6 5 8 10 5 15 -9 12 15 -4 31 -19 18 -26 18 -26 -1 0 -8 -7 -15
-16 -15 -8 0 -12 -5 -9 -10 4 -6 11 -7 17 -4 6 4 3 -7 -8 -25 -10 -17 -22 -31
-27 -31 -5 0 -5 -10 -2 -22 6 -17 4 -20 -10 -14 -15 5 -16 4 -5 -8 17 -22 -35
-70 -67 -61 -13 3 -23 1 -23 -5 0 -6 -5 -8 -12 -4 -7 4 -34 7 -60 7 -26 -1
-48 3 -48 8 0 6 5 7 10 4 6 -3 10 -1 10 4 0 16 -16 13 -31 -5 -8 -9 -21 -13
-35 -10 -13 4 -26 1 -29 -4 -4 -6 -11 -8 -16 -4 -18 11 -128 11 -132 0 -2 -7
-9 -6 -20 2 -9 8 -20 11 -26 8 -5 -3 -7 3 -4 14 5 20 7 20 24 4 18 -16 23 -15
17 3 -2 5 -6 7 -9 6 -4 -1 -9 7 -12 18 -4 15 -2 19 8 15 22 -8 28 11 8 23 -16
9 -16 12 -3 20 8 6 15 16 15 23 0 19 29 78 37 78 5 0 8 7 8 15 0 8 4 14 9 13
5 -2 9 2 9 7 0 6 -4 9 -9 7 -16 -4 -9 13 17 41 14 15 23 31 20 35 -2 4 9 14
25 21 28 12 40 31 19 31 -5 0 -10 -4 -10 -10 0 -5 -5 -10 -11 -10 -10 0 28 62
43 68 4 2 8 10 8 18 0 8 7 14 15 14 9 0 12 6 9 15 -5 11 -2 13 11 9 14 -6 16
-3 11 12 -6 20 27 84 44 84 5 0 10 5 10 11 0 6 7 17 15 25 8 9 15 13 15 9 0
-3 5 -3 11 1 7 4 8 9 0 17 -7 7 -7 16 0 29 6 11 8 22 5 25 -7 7 -36 -22 -36
-36 0 -6 -7 -11 -16 -11 -10 0 -14 -6 -11 -15 6 -15 -8 -31 -16 -18 -2 5 -2 2
0 -5 3 -14 -34 -74 -49 -80 -4 -2 -8 -10 -8 -18 0 -8 -7 -14 -15 -14 -8 0 -14
-6 -13 -12 2 -7 -3 -12 -10 -10 -8 1 -11 -5 -7 -20 4 -17 -3 -32 -25 -55 -16
-18 -30 -37 -30 -42 0 -6 -5 -11 -10 -11 -6 0 -10 -6 -8 -12 3 -15 -33 -78
-44 -78 -4 0 -8 -9 -8 -20 0 -11 -5 -17 -13 -15 -15 6 -41 -32 -27 -40 6 -3
10 1 10 9 0 9 7 16 16 16 16 0 12 -12 -14 -43 -9 -9 -17 -29 -18 -44 -2 -15
-9 -32 -17 -38 -8 -5 -12 -16 -10 -23 3 -7 -1 -10 -11 -6 -9 3 -16 2 -16 -4 0
-6 6 -12 13 -15 8 -3 7 -10 -7 -26 -15 -17 -22 -18 -33 -9 -11 9 -17 9 -24 -3
-6 -9 -12 -10 -16 -3 -7 9 -57 11 -93 2 -19 -4 -25 35 -8 53 7 8 14 27 15 44
0 16 6 31 12 33 6 2 11 12 11 23 0 12 5 16 15 13 8 -4 15 -1 15 5 0 6 -5 11
-11 11 -7 0 -8 7 -4 18 4 9 8 23 8 30 0 6 7 12 14 12 8 0 11 5 8 11 -11 16 4
59 20 59 9 0 12 6 8 15 -3 10 -1 15 7 13 7 -2 13 7 15 19 1 20 47 90 68 104 5
4 6 13 2 20 -6 9 -3 11 9 6 11 -4 16 -2 14 6 -3 12 39 79 54 85 4 2 8 10 8 18
0 9 5 12 10 9 6 -3 10 1 10 9 0 9 5 16 10 16 6 0 10 9 10 19 0 24 -29 36 -36
16 -4 -8 -13 -15 -21 -15 -9 0 -13 -6 -10 -14 4 -10 1 -13 -9 -9 -8 3 -14 -1
-14 -10 0 -8 -7 -18 -16 -21 -8 -3 -12 -10 -9 -16 3 -5 -1 -10 -9 -10 -10 0
-13 -6 -10 -15 5 -11 2 -13 -11 -9 -13 5 -16 3 -13 -7 5 -14 -45 -95 -70 -115
-10 -7 -12 -13 -4 -18 6 -3 25 12 43 34 18 22 34 38 36 36 8 -7 -62 -95 -75
-95 -9 -1 -11 -8 -7 -21 5 -15 3 -18 -9 -14 -19 7 -20 16 -4 32 6 6 9 15 5 18
-10 11 -37 -16 -37 -37 0 -13 -5 -17 -17 -12 -16 6 -16 4 -5 -9 11 -14 11 -20
0 -37 -7 -12 -17 -21 -21 -21 -5 0 -6 -9 -2 -19 3 -11 1 -22 -5 -26 -6 -3 -8
-11 -5 -16 4 -5 -1 -12 -10 -15 -12 -5 -13 -9 -4 -21 9 -10 9 -17 1 -25 -7 -7
-8 -16 -3 -22 12 -14 -3 -96 -18 -106 -7 -4 -9 -15 -5 -26 6 -15 4 -17 -6 -7
-7 6 -18 9 -24 7 -6 -2 -12 8 -13 26 -1 16 3 30 9 30 7 0 6 6 -2 15 -10 11
-10 19 -2 27 6 6 8 17 5 26 -4 10 -2 13 5 8 6 -3 13 -2 17 4 3 6 0 13 -9 16
-22 9 -26 29 -10 60 8 15 13 33 10 41 -3 7 -1 15 4 18 6 4 10 1 10 -4 0 -6 5
-11 10 -11 15 0 12 14 -9 36 -19 21 -14 49 13 66 6 4 6 12 -3 21 -9 11 -9 17
-1 22 6 4 8 14 5 24 -4 9 -8 21 -9 26 -1 6 -7 19 -14 30 l-12 20 2 -20 c2 -15
-2 -19 -17 -17 -11 2 -16 -1 -10 -5 9 -7 12 -28 5 -35 -1 -2 -4 -12 -5 -24 -4
-39 -55 -98 -55 -64 0 6 -5 10 -11 10 -5 0 -3 -10 5 -22 20 -28 20 -52 1 -68
-11 -9 -12 -16 -2 -31 6 -10 16 -19 21 -19 6 0 5 5 -1 11 -13 13 1 47 24 62 7
4 10 14 7 21 -3 8 4 31 15 52 16 30 21 34 21 17 0 -12 -6 -28 -13 -35 -7 -7
-12 -31 -12 -53 2 -46 -22 -105 -42 -105 -8 0 -12 -4 -8 -10 3 -5 12 -7 20 -3
11 4 13 0 8 -13 -3 -11 -11 -22 -17 -26 -8 -6 -7 -11 3 -17 8 -5 10 -14 5 -22
-5 -8 -9 -29 -10 -46 -1 -26 2 -31 13 -22 16 14 18 -2 1 -19 -8 -8 -15 -9 -25
-1 -9 8 -17 8 -27 0 -10 -8 -19 -6 -40 10 -14 11 -26 16 -26 11 0 -6 6 -13 13
-16 6 -2 -3 -4 -20 -3 -38 2 -38 1 -17 22 19 19 11 33 -10 16 -10 -8 -16 -9
-21 -1 -3 5 1 13 9 16 9 3 13 10 10 15 -3 5 2 9 10 9 9 0 16 5 16 11 0 6 -7 9
-15 5 -19 -7 -19 4 0 31 13 19 13 22 -1 27 -12 5 -15 14 -11 36 4 16 2 32 -3
35 -7 4 -6 13 0 26 6 11 8 24 5 29 -6 10 24 72 38 78 4 2 7 8 7 13 0 6 -5 7
-12 3 -8 -5 -9 -2 -4 12 5 10 11 28 14 39 2 11 15 34 28 52 13 17 24 39 24 48
0 9 5 13 10 10 6 -3 10 1 10 9 0 10 6 13 16 9 13 -5 15 -2 10 14 -5 16 -2 21
11 19 10 0 17 4 16 11 -2 8 4 10 14 6 12 -5 15 -2 10 10 -3 9 -2 17 3 17 6 0
25 15 43 33 46 45 72 58 86 44 8 -8 11 -5 11 12 0 12 4 19 10 16 5 -3 25 8 42
24 36 33 43 36 53 21 10 -16 25 -1 18 18 -3 9 -3 14 2 10 4 -4 21 2 37 13 15
11 34 19 40 17 7 -3 21 3 31 13 23 21 99 41 123 32 14 -5 16 -3 11 11 -5 12
-3 16 5 13 7 -2 18 3 24 11 5 7 23 15 40 15 16 1 37 10 46 21 10 10 32 29 50
42 37 28 48 19 43 -36z m3366 -191 c1 -74 -1 -145 -5 -157 -5 -14 -3 -22 4
-22 6 0 8 -5 4 -11 -5 -8 -9 -8 -14 1 -6 9 -11 7 -19 -6 -14 -25 -14 -9 0 18
6 11 8 22 6 25 -3 3 -14 -10 -23 -29 -15 -27 -19 -29 -22 -14 -3 15 -8 12 -24
-15 -13 -21 -23 -29 -26 -21 -3 10 -9 9 -25 -5 -11 -10 -17 -13 -14 -6 4 6 3
14 -2 17 -5 3 -12 -5 -15 -19 -7 -27 -26 -34 -26 -10 0 8 -4 15 -10 15 -5 0
-9 -3 -8 -7 3 -18 -15 -62 -24 -57 -5 3 -7 12 -4 20 3 7 2 16 -3 18 -4 3 -13
-11 -20 -30 -15 -42 -36 -46 -27 -4 8 43 0 37 -24 -17 -23 -53 -39 -53 -16 0
8 19 12 38 9 41 -7 7 -24 -26 -42 -81 -8 -24 -18 -43 -23 -43 -10 0 -10 -3 7
45 19 53 19 92 -1 48 -13 -30 -34 -53 -34 -36 0 4 21 48 45 97 49 96 103 153
219 231 33 22 80 65 105 96 25 31 47 55 48 54 1 0 3 -62 4 -136z m3 -273 c7
-27 -1 -56 -15 -56 -16 0 -9 -18 8 -22 15 -3 15 -4 0 -19 -10 -11 -12 -20 -6
-26 6 -6 11 -38 13 -72 2 -47 -1 -61 -11 -57 -7 3 -13 1 -13 -3 0 -5 4 -11 9
-13 14 -5 24 -48 11 -48 -6 0 -8 5 -5 10 3 6 1 10 -4 10 -14 0 -14 -13 0 -27
10 -10 14 -97 7 -150 -2 -15 -28 -18 -28 -3 0 6 5 10 10 10 6 0 10 5 10 12 0
6 -11 1 -24 -12 -16 -14 -31 -20 -42 -16 -9 3 -22 2 -29 -4 -9 -8 -15 -8 -20
0 -3 5 -17 7 -31 4 -15 -4 -24 -2 -24 5 0 8 -6 7 -20 -1 -17 -11 -22 -10 -29
1 -5 8 -11 9 -15 3 -3 -5 -25 -9 -48 -7 -24 1 -49 -2 -55 -8 -9 -6 -15 -4 -19
7 -8 20 -24 21 -24 2 0 -9 -9 -14 -20 -13 -24 2 -24 1 -4 22 9 9 13 19 10 23
-4 3 -11 0 -16 -8 -7 -11 -11 -11 -23 -1 -10 8 -17 9 -22 1 -3 -5 1 -10 9 -10
17 0 21 -12 9 -23 -4 -4 -20 5 -36 20 l-30 28 17 -26 17 -27 -181 1 c-102 0
-180 4 -180 9 0 6 6 8 12 6 7 -3 23 5 37 18 l24 22 22 -26 c15 -17 24 -22 29
-14 4 7 1 12 -7 12 -8 0 -17 9 -20 21 -3 13 -1 19 6 16 7 -3 25 7 41 22 19 18
30 22 33 14 3 -7 9 -13 15 -13 6 0 6 6 -2 15 -6 8 -9 19 -5 25 5 8 12 5 22 -7
14 -17 14 -17 9 1 -5 13 -2 17 8 13 25 -10 27 6 4 30 -23 25 -16 33 8 8 22
-21 34 -19 35 8 0 12 3 16 6 10 6 -16 23 -17 23 -2 0 12 25 39 36 39 3 0 15 9
25 21 12 14 24 19 38 14 12 -3 21 -3 21 2 0 4 9 14 21 21 16 10 24 10 35 1 9
-7 14 -8 14 -1 0 6 -6 13 -12 16 -20 8 23 37 44 30 10 -3 18 0 18 6 0 6 -4 8
-10 5 -5 -3 -10 -2 -10 4 0 15 23 26 28 13 2 -7 8 -12 14 -12 6 0 7 7 4 16 -4
11 -2 15 8 11 7 -3 30 11 51 33 35 36 39 38 51 22 13 -16 13 -16 14 1 0 9 7
17 15 17 8 0 15 5 15 12 0 9 3 9 12 0 17 -17 41 -15 34 3 -3 8 0 14 7 12 7 -1
11 4 9 11 -1 8 2 11 7 8 5 -3 14 1 21 9 18 21 27 19 34 -9z m-4292 -119 c-7
-8 -9 -17 -5 -20 3 -4 -1 -7 -9 -7 -12 0 -15 -9 -13 -35 2 -24 -1 -38 -12 -44
-11 -6 -12 -10 -4 -15 8 -5 8 -13 1 -26 -7 -13 -7 -21 0 -25 7 -4 7 -11 2 -18
-5 -7 -8 -30 -6 -52 2 -49 -5 -87 -16 -80 -5 3 -11 1 -14 -4 -4 -5 -2 -12 3
-15 9 -6 35 20 44 44 3 9 6 4 6 -12 1 -16 -6 -31 -16 -37 -10 -5 -15 -13 -11
-17 4 -4 14 -1 23 6 18 15 34 5 18 -11 -13 -13 -169 -18 -186 -7 -9 6 -9 8 1
8 6 0 12 5 12 11 0 6 -12 1 -26 -10 -15 -11 -31 -18 -38 -14 -7 5 -5 9 7 11 9
2 14 8 11 13 -4 6 -14 3 -25 -7 -17 -16 -19 -16 -19 -1 0 10 5 17 10 17 6 0
10 7 10 15 0 8 5 15 10 15 6 0 10 7 10 16 0 8 4 13 9 10 10 -7 47 32 38 40 -4
4 -9 -1 -13 -10 -3 -9 -10 -16 -15 -16 -5 0 1 18 13 40 13 22 28 40 35 40 7 0
10 7 6 17 -5 13 -2 15 11 10 15 -6 17 -3 13 14 -4 15 -2 19 9 15 8 -3 14 -1
14 4 0 6 -5 10 -11 10 -13 0 18 43 70 97 23 23 41 48 41 55 0 9 3 9 12 0 8 -8
8 -15 0 -25z"/>
<path d="M1587 988 c-6 -23 -6 -23 10 -3 15 19 15 19 9 -8 -6 -23 -3 -30 13
-34 13 -3 18 -11 14 -21 -4 -15 -3 -15 10 1 15 18 32 24 22 7 -9 -15 -15 -50
-8 -50 3 0 12 8 19 18 12 15 13 13 4 -12 -8 -22 -8 -31 2 -37 6 -4 15 -6 19
-3 4 2 10 -2 12 -8 4 -10 8 -9 16 2 8 11 11 12 11 2 0 -8 20 -37 45 -65 36
-41 43 -56 38 -76 -6 -25 -5 -25 14 -9 15 14 26 16 50 9 17 -5 34 -7 37 -4 3
3 19 -6 36 -21 31 -25 52 -29 79 -12 10 7 12 4 6 -13 -5 -16 -3 -20 9 -15 9 3
16 12 16 18 0 7 7 21 15 32 13 17 14 16 5 -13 -8 -31 -7 -33 16 -33 17 0 28 8
37 26 l12 27 5 -24 6 -24 18 30 c9 17 15 22 12 13 -3 -10 -2 -20 3 -22 8 -6
41 29 41 44 0 5 5 12 12 16 8 5 9 2 5 -9 -8 -21 6 -22 23 -2 7 8 17 15 23 15
5 0 33 11 62 24 28 14 62 27 76 29 39 6 76 28 89 52 15 28 52 42 42 16 -5 -13
-3 -14 9 -5 32 26 173 -15 222 -65 20 -21 37 -29 63 -29 43 0 52 -7 36 -32
-10 -17 -9 -18 6 -13 9 3 25 13 35 21 22 19 33 10 12 -11 -8 -9 -11 -18 -6
-21 10 -7 43 28 35 37 -4 4 -1 13 6 22 7 8 9 15 5 15 -4 0 -2 7 5 15 23 27 2
16 -31 -17 -22 -22 -34 -29 -37 -20 -2 7 3 21 12 31 9 10 16 22 16 27 0 5 -4
4 -8 -1 -12 -17 -62 -46 -62 -36 0 4 7 14 15 21 21 18 13 22 -19 10 -25 -9
-26 -8 -16 11 11 19 10 20 -11 9 -20 -11 -21 -10 -16 10 4 17 3 20 -6 11 -16
-16 -27 -14 -27 6 0 13 -3 14 -12 5 -17 -17 -29 -15 -22 3 8 21 -13 19 -25 -2
-10 -17 -10 -17 -11 1 0 11 -3 16 -7 13 -3 -4 -12 -2 -19 3 -6 6 -16 10 -20 8
-34 -8 -151 43 -197 87 -23 22 -31 24 -42 15 -16 -13 -21 -35 -7 -26 5 3 14
-3 22 -14 7 -10 20 -16 28 -12 9 3 13 1 9 -5 -4 -6 0 -14 8 -17 13 -4 14 -10
5 -26 -6 -11 -8 -20 -4 -20 3 0 1 -7 -6 -15 -7 -9 -15 -13 -18 -10 -3 3 -14
-2 -24 -12 -10 -9 -18 -13 -18 -10 0 4 -11 2 -24 -3 -16 -6 -41 -4 -72 4 -31
8 -60 10 -79 4 -16 -4 -46 -11 -65 -14 -19 -4 -39 -7 -45 -9 -11 -2 -12 -3
-115 -43 -76 -29 -145 -32 -186 -7 -63 38 -119 149 -85 170 8 4 41 62 41 71 0
1 -13 -4 -30 -12 -22 -11 -32 -26 -40 -57 -6 -23 -13 -46 -16 -52 -5 -12 4 66
11 92 3 10 -4 0 -15 -22 -19 -40 -23 -36 -21 20 l1 30 -15 -25 c-15 -24 -16
-24 -12 -3 3 13 1 26 -4 29 -5 3 -9 -1 -9 -9 0 -8 -7 -18 -16 -21 -23 -9 -27
-8 -21 8 5 13 -21 46 -35 46 -3 0 -8 -10 -11 -22z"/>
</g>
</svg>
