<?xml version="1.0" standalone="no"?>
<!DOCTYPE svg PUBLIC "-//W3C//DTD SVG 20010904//EN"
 "http://www.w3.org/TR/2001/REC-SVG-20010904/DTD/svg10.dtd">
<svg version="1.0" xmlns="http://www.w3.org/2000/svg"
 width="320.000000pt" height="302.000000pt" viewBox="0 0 320.000000 302.000000"
 preserveAspectRatio="xMidYMid meet">
<metadata>
Created by potrace 1.16, written by Peter Selinger 2001-2019
</metadata>
<g transform="translate(0.000000,302.000000) scale(0.100000,-0.100000)"
fill="#000000" stroke="none">
<path d="M2534 2568 c-3 -4 -12 -8 -21 -8 -24 0 -81 -47 -98 -81 -9 -16 -11
-29 -6 -29 5 0 12 6 14 13 4 9 6 9 6 -1 1 -8 6 -10 14 -5 6 4 22 9 35 11 37 5
29 -41 -13 -74 -22 -16 -35 -35 -35 -49 0 -13 -7 -25 -15 -29 -8 -3 -15 -16
-14 -28 l0 -23 9 23 c11 26 11 26 41 10 28 -15 35 -58 9 -58 -9 0 -21 5 -27
11 -6 6 -17 9 -25 6 -9 -4 -5 -8 10 -12 17 -6 22 -15 22 -41 0 -32 -1 -33 -32
-27 -21 4 -29 3 -24 -5 4 -6 0 -27 -8 -46 -8 -20 -11 -38 -6 -41 13 -8 28 25
22 49 -5 19 -4 19 11 7 13 -10 14 -18 6 -33 -9 -17 -8 -18 10 -7 12 8 22 29
26 55 9 61 47 97 97 91 21 -2 38 -1 38 3 0 5 9 6 20 3 14 -4 20 0 20 11 0 9 5
16 10 16 6 0 10 6 10 14 0 7 7 19 15 26 21 18 36 78 28 122 -8 51 -72 124
-113 130 -17 3 -33 1 -36 -4z"/>
<path d="M1950 2398 c19 -5 39 -13 43 -17 11 -11 -12 -58 -32 -64 -15 -5 -173
-62 -296 -107 -27 -10 -67 -25 -87 -34 -44 -19 -52 -4 -10 18 15 7 71 28 125
46 53 17 97 36 97 42 0 5 4 7 9 3 12 -7 124 30 157 52 57 37 3 67 -71 38 -25
-9 -47 -16 -50 -16 -2 0 -20 -6 -40 -15 -19 -8 -35 -11 -35 -7 0 4 -5 2 -12
-5 -7 -7 -18 -12 -24 -12 -7 0 -25 -5 -41 -12 -15 -6 -32 -12 -38 -13 -5 -1
-13 -3 -17 -5 -5 -1 -12 -4 -18 -5 -5 -1 -11 -3 -12 -5 -2 -1 -10 -3 -18 -5
-8 -2 -25 -7 -37 -11 -15 -4 -23 -2 -23 5 0 7 5 9 10 6 6 -3 10 -2 10 4 0 6
25 18 56 27 30 9 54 18 51 20 -2 2 -58 -13 -125 -33 -82 -25 -119 -40 -112
-47 17 -17 12 -24 -22 -32 -18 -4 -36 -9 -40 -10 -5 -1 -10 -3 -13 -4 -3 -1
-9 -4 -15 -5 -5 -1 -11 -3 -12 -4 -2 -2 -14 -5 -28 -7 -13 -2 -35 -11 -47 -20
-13 -8 -28 -12 -34 -9 -5 4 -15 2 -22 -3 -7 -6 -15 -11 -19 -11 -5 -1 -9 -1
-10 -2 -2 0 -14 -2 -27 -5 -14 -2 -29 -9 -36 -14 -6 -5 -22 -11 -35 -13 -14
-3 -37 -10 -51 -15 -15 -6 -35 -9 -45 -7 -11 2 -28 4 -39 5 -11 1 25 17 80 35
55 18 93 33 85 33 -8 0 -53 -12 -100 -27 l-85 -27 -1 -39 c0 -35 -3 -38 -29
-40 -16 0 -30 -6 -33 -13 -4 -13 -54 -42 -72 -42 -7 0 -9 8 -5 20 5 15 -1 23
-32 36 -21 9 -60 18 -88 20 -27 2 -61 6 -75 10 -32 7 -80 -28 -80 -60 0 -12
-11 -33 -25 -46 -13 -12 -22 -27 -18 -33 3 -6 2 -7 -4 -4 -16 10 -83 -71 -83
-100 0 -4 12 11 26 35 36 60 38 52 3 -17 -16 -33 -29 -64 -29 -69 0 -5 -13
-27 -29 -48 -43 -61 -52 -99 -42 -180 5 -39 16 -85 25 -102 9 -17 16 -46 17
-64 0 -18 3 -27 6 -20 2 6 9 10 14 6 14 -8 11 -34 -3 -32 -9 2 -16 -24 -22
-85 -9 -84 -4 -116 13 -88 12 18 23 -1 21 -37 -1 -15 -2 -45 -3 -67 -3 -54 25
-60 53 -11 19 31 24 34 56 29 38 -6 42 1 17 29 -15 17 -15 20 -3 28 19 12 60
42 74 55 6 6 20 12 31 13 11 2 26 9 33 14 9 8 11 7 6 -5 -5 -15 4 -16 78 -13
71 3 93 8 136 32 29 16 52 32 52 37 0 4 7 7 15 7 19 0 76 56 73 72 -2 7 4 12
12 10 12 -2 11 1 -2 11 -13 10 -15 16 -6 25 7 7 18 12 26 12 12 0 12 -3 2 -15
-7 -9 -10 -18 -7 -22 8 -8 38 17 32 26 -2 4 3 8 11 8 9 0 13 -6 9 -14 -3 -8
-5 -17 -5 -19 0 -2 -6 -4 -14 -4 -8 0 -28 -15 -44 -32 -66 -73 -82 -91 -82
-98 0 -3 -31 -21 -70 -40 -38 -18 -68 -36 -65 -38 2 -3 30 8 60 23 31 15 57
25 58 24 2 -2 8 -12 15 -21 11 -14 10 -16 -6 -11 -14 3 -29 -7 -53 -37 -41
-50 -81 -76 -136 -85 -48 -8 -61 -28 -33 -52 27 -23 25 -42 -5 -53 -33 -13
-32 -30 3 -30 15 0 52 -16 82 -35 62 -39 92 -43 119 -16 10 10 25 21 32 24 8
3 9 6 2 6 -12 1 -6 38 10 59 6 8 5 12 -4 12 -12 0 -35 -40 -52 -93 -9 -25 -46
-21 -96 13 -24 17 -48 30 -53 30 -4 0 -8 15 -8 33 0 18 -5 38 -11 44 -9 9 1
18 42 36 33 15 73 44 102 76 26 28 52 51 57 51 15 0 12 -20 -5 -37 -20 -20
-14 -39 12 -36 13 1 24 -7 31 -22 12 -26 48 -36 39 -11 -3 8 1 17 9 20 12 5
14 -7 12 -77 l-3 -82 -35 -17 c-45 -23 -20 -23 40 -1 55 21 94 58 87 85 -3 11
0 21 7 24 17 6 16 35 -1 52 -7 7 -13 10 -13 6 0 -4 -10 2 -23 14 -13 12 -27
19 -31 15 -3 -4 -6 6 -4 23 1 16 -2 35 -6 42 -4 7 -2 20 5 28 7 9 13 29 13 46
1 21 6 32 17 33 9 2 36 16 60 31 81 52 222 114 260 114 10 0 19 4 21 10 2 5
12 11 23 13 36 5 56 22 49 40 -3 9 -11 14 -17 10 -6 -3 -7 -1 -3 6 4 6 12 9
17 5 6 -3 19 2 30 12 11 10 20 14 19 9 -5 -22 1 -32 18 -32 17 -1 139 35 157
46 12 7 18 8 46 10 12 0 19 6 16 14 -2 6 -10 11 -16 9 -7 -1 -10 2 -6 8 5 8
11 7 21 -1 8 -6 14 -8 14 -4 0 4 6 2 14 -4 10 -9 22 -4 51 19 41 32 54 38 36
16 -10 -12 -9 -14 6 -11 10 2 21 4 25 4 11 2 68 62 68 72 0 6 -4 8 -9 4 -5 -3
-12 -1 -15 4 -11 18 -73 21 -114 7 -23 -8 -42 -12 -42 -9 0 3 -8 -1 -18 -10
-10 -10 -22 -14 -25 -11 -4 4 -13 2 -20 -4 -8 -7 -17 -9 -20 -5 -4 3 -7 0 -7
-7 0 -7 -3 -10 -7 -7 -3 4 -13 1 -21 -6 -13 -10 -14 -9 -7 3 7 11 2 10 -19 -4
-16 -10 -26 -14 -22 -8 4 6 -2 8 -14 5 -11 -3 -17 -10 -13 -17 4 -7 1 -7 -7 1
-10 9 -19 9 -39 -1 -14 -8 -58 -23 -97 -35 -40 -12 -77 -28 -84 -36 -7 -8 -16
-13 -20 -10 -5 3 -11 1 -15 -5 -3 -5 -16 -15 -28 -21 -18 -10 -17 -6 8 22 17
18 23 28 13 21 -25 -20 -30 3 -5 25 15 14 41 22 80 26 74 7 86 17 19 17 -28 0
-54 5 -57 10 -3 6 -24 10 -45 10 -32 0 -46 7 -85 45 -37 37 -55 47 -93 52 -26
3 -55 10 -64 15 -28 14 -21 29 10 22 39 -10 24 2 -26 19 -23 8 -51 13 -61 10
-10 -3 -46 6 -80 20 -33 14 -61 21 -61 16 0 -12 36 -30 44 -22 3 3 6 1 6 -5 0
-7 8 -12 18 -12 10 0 22 -3 26 -7 3 -4 14 -8 24 -9 39 -6 54 -11 72 -26 32
-28 57 -38 94 -38 28 0 45 -9 77 -40 23 -22 58 -45 79 -51 34 -10 37 -14 27
-30 -20 -31 -42 -31 -108 1 -34 16 -68 30 -76 30 -7 0 -13 4 -13 10 0 5 -16
17 -35 26 -19 9 -35 20 -35 25 0 5 -7 6 -15 3 -8 -3 -38 6 -67 20 -28 14 -58
26 -65 26 -7 0 -13 8 -13 17 0 9 -10 27 -22 40 -12 12 -22 31 -23 40 -1 10 -7
31 -14 46 -17 43 -15 49 38 101 l50 49 12 -26 c12 -26 13 -26 28 -8 9 10 41
26 70 35 29 9 60 21 67 27 8 6 14 8 14 5 0 -4 10 -1 23 6 25 14 29 15 56 17
11 0 26 8 35 16 8 9 19 15 23 14 24 -4 35 2 29 17 -5 13 -4 14 7 6 14 -12 58
-5 68 10 3 5 19 11 35 14 16 3 39 12 52 20 12 8 27 12 31 9 5 -3 12 1 14 7 4
8 6 7 6 -4 1 -11 -16 -23 -51 -36 -299 -108 -427 -156 -424 -159 2 -2 104 33
227 78 123 45 236 82 251 84 15 1 37 9 50 17 13 8 113 48 223 88 110 40 206
75 212 77 12 5 53 64 53 76 0 8 -61 27 -84 26 -13 0 -8 -4 14 -11z m-1242
-911 c18 -22 22 -65 6 -71 -8 -3 -14 -11 -14 -17 0 -8 4 -9 13 0 8 6 17 8 20
4 4 -3 7 -1 7 6 0 8 5 7 16 -3 29 -30 83 -9 85 32 0 15 1 15 8 -1 4 -10 10
-18 14 -18 21 2 25 0 23 -14 -1 -8 -5 -18 -9 -21 -14 -15 -6 -25 14 -19 16 6
20 4 13 -6 -7 -12 -5 -12 9 0 9 7 15 16 13 20 -6 9 4 22 29 41 15 11 14 7 -4
-13 -24 -27 -17 -38 9 -14 8 6 -2 -7 -22 -30 -23 -26 -35 -48 -32 -60 6 -22
-55 -58 -86 -50 -11 3 -18 1 -15 -3 10 -17 -13 -19 -26 -3 -8 9 -9 14 -3 10 7
-4 14 2 17 13 4 16 0 20 -17 20 -12 0 -28 -6 -35 -12 -9 -8 -11 -8 -8 -2 8 14
-20 27 -28 14 -4 -6 -15 -6 -28 2 -12 6 -24 9 -27 7 -3 -2 -5 11 -6 29 0 18 3
35 7 38 5 2 6 -5 4 -16 -3 -15 1 -20 13 -18 9 2 16 -2 15 -9 -3 -14 24 -25 32
-13 4 7 13 7 24 0 18 -9 31 -4 31 11 0 5 -13 15 -30 24 -21 11 -28 20 -23 33
6 14 4 15 -8 5 -8 -6 -20 -8 -27 -4 -9 6 -7 12 8 26 19 17 30 82 11 71 -5 -3
-11 1 -15 9 -7 18 8 20 22 2z"/>
<path d="M2477 1616 c-5 -13 20 -45 30 -38 1 1 8 2 15 2 6 0 4 -6 -6 -13 -9
-7 -16 -18 -14 -24 2 -6 -1 -13 -6 -14 -5 -2 -10 4 -12 14 -1 9 3 17 9 17 6 0
1 10 -11 23 -12 13 -19 27 -15 30 17 18 -50 4 -90 -18 -50 -29 -74 -35 -129
-36 -62 -2 -43 -19 21 -19 41 0 65 5 82 19 13 10 30 16 38 13 9 -3 11 0 6 8
-6 9 -4 11 5 5 10 -6 10 -11 -3 -20 -25 -18 -20 -26 13 -20 22 4 32 0 40 -14
8 -16 6 -22 -7 -31 -15 -8 -12 -10 15 -6 19 3 44 13 55 23 12 10 23 18 25 19
1 1 5 11 7 23 5 29 -4 51 -21 51 -8 0 -14 5 -14 10 0 15 -27 12 -33 -4z"/>
<path d="M1674 1152 c-44 -14 -94 -57 -94 -80 0 -12 -7 -39 -15 -59 -8 -19
-15 -45 -15 -57 -1 -23 -31 -119 -78 -241 -39 -104 -46 -139 -30 -152 25 -19
44 -20 78 -4 27 13 36 24 42 55 8 36 40 92 63 108 13 10 124 -1 148 -14 11 -5
35 -7 54 -3 26 5 38 14 48 38 12 28 11 34 -3 50 -17 19 -9 33 23 39 12 2 24
16 30 33 6 17 25 57 43 90 37 68 36 101 -3 111 -20 5 -31 0 -51 -21 -31 -34
-105 -190 -99 -208 4 -10 -13 -14 -80 -16 l-86 -2 7 28 c20 93 70 214 92 221
20 6 14 -28 -18 -103 -45 -104 -40 -125 30 -125 25 0 30 6 50 60 13 34 30 71
40 83 28 36 32 63 15 97 -17 33 -39 38 -70 14 -19 -14 -20 -13 -25 23 -5 35
-7 38 -40 40 -19 1 -44 -2 -56 -5z m66 -33 c0 -11 -9 -28 -20 -37 -10 -10 -26
-37 -35 -62 -39 -106 -65 -196 -61 -207 3 -7 38 -11 107 -11 105 0 118 -5 119
-44 0 -22 -47 -35 -71 -19 -10 6 -52 11 -92 11 -87 0 -104 -13 -142 -106 -23
-56 -45 -77 -72 -67 -18 7 -16 25 6 86 73 199 101 283 101 301 1 32 35 124 55
145 9 11 34 22 54 24 20 2 39 4 44 5 4 1 7 -7 7 -19z"/>
<path d="M1895 573 c-29 -5 -66 -28 -112 -72 l-23 -22 0 35 c0 30 -4 37 -26
42 -14 4 -49 -1 -80 -11 -31 -10 -83 -21 -116 -25 -74 -8 -101 -33 -91 -83 3
-18 11 -35 17 -39 14 -10 55 1 86 22 25 17 123 40 164 40 17 -1 13 -8 -24 -41
-24 -23 -73 -59 -108 -82 -42 -28 -71 -56 -88 -86 -41 -74 -31 -89 49 -71 75
17 117 37 117 56 0 27 102 135 205 219 72 59 95 83 95 101 0 25 -3 26 -65 17z
m-14 -71 c-118 -102 -224 -209 -242 -244 -13 -26 -27 -38 -49 -42 -105 -20
-99 -22 -75 24 8 16 39 45 67 64 29 19 107 83 173 140 96 85 126 106 150 105
30 0 30 0 -24 -47z"/>
<path d="M1820 250 c-8 -5 -24 -10 -35 -10 -37 -1 -71 -42 -78 -93 -9 -62 6
-68 79 -30 51 25 58 33 70 73 19 64 5 87 -36 60z"/>
</g>
</svg>
