<?xml version="1.0" standalone="no"?>
<!DOCTYPE svg PUBLIC "-//W3C//DTD SVG 20010904//EN"
 "http://www.w3.org/TR/2001/REC-SVG-20010904/DTD/svg10.dtd">
<svg version="1.0" xmlns="http://www.w3.org/2000/svg"
 width="266.000000pt" height="269.000000pt" viewBox="0 0 266.000000 269.000000"
 preserveAspectRatio="xMidYMid meet">
<metadata>
Created by potrace 1.16, written by Peter Selinger 2001-2019
</metadata>
<g transform="translate(0.000000,269.000000) scale(0.100000,-0.100000)"
fill="#000000" stroke="none">
<path d="M1 2603 c-1 -71 2 -85 12 -73 24 29 37 22 37 -20 0 -41 -14 -52 -38
-28 -9 9 -12 -5 -11 -62 1 -41 4 -66 7 -55 6 16 29 33 33 23 5 -15 9 -252 5
-264 -5 -12 -10 -13 -27 -4 -20 11 -21 10 -17 -74 3 -90 13 -110 24 -51 18
100 24 13 24 -371 0 -230 2 -415 4 -413 2 2 7 98 11 212 7 210 20 316 26 212
5 -95 5 -125 -2 -125 -4 0 -7 -57 -7 -127 l1 -128 7 97 c4 54 11 106 15 115 4
10 9 107 10 216 2 109 6 201 9 205 3 3 6 -25 6 -63 0 -81 7 -84 11 -5 4 73 8
90 24 84 10 -4 16 -45 21 -147 6 -106 10 -130 15 -97 5 41 6 38 9 -30 3 -61 5
-47 11 70 4 80 5 154 2 165 -4 15 -2 17 7 9 9 -9 12 -81 12 -265 1 -140 4
-238 8 -219 8 35 20 279 20 403 l0 67 38 0 c97 0 160 86 167 226 l4 79 -8 -71
c-9 -72 -38 -154 -68 -186 -47 -52 -176 -42 -242 18 -55 49 -73 108 -80 261
-3 72 -3 129 2 126 4 -2 8 6 8 19 5 84 8 108 18 126 6 11 11 60 11 109 0 107
15 95 19 -15 2 -66 -1 -85 -18 -113 -12 -19 -21 -38 -21 -44 0 -5 11 8 25 31
13 22 43 53 66 69 35 23 50 26 88 22 25 -2 55 -8 66 -12 16 -7 18 -6 8 6 -7 7
-13 20 -13 28 1 13 3 12 11 -2 6 -11 12 -25 13 -33 1 -8 14 -27 29 -42 15 -16
37 -51 48 -78 12 -31 18 -38 14 -19 -3 17 -19 52 -35 78 -17 27 -30 56 -30 65
0 11 7 5 20 -15 25 -41 34 -42 27 -3 -7 31 6 41 20 17 4 -8 16 -16 25 -20 14
-5 18 -1 18 14 0 21 1 20 21 -2 l20 -24 -7 25 c-4 14 -9 31 -11 38 -8 20 16
14 29 -8 18 -28 29 -25 26 7 -2 23 1 28 20 29 12 1 25 -3 28 -8 3 -4 10 -6 15
-3 5 4 9 -1 9 -10 0 -11 6 -15 19 -10 12 4 21 0 25 -12 6 -15 8 -15 16 -3 8
12 10 10 10 -9 l0 -24 20 23 c15 17 20 19 20 8 0 -30 28 -28 34 3 5 28 36 42
36 17 1 -7 7 -2 15 12 9 15 15 19 15 10 1 -12 3 -12 14 3 12 16 14 16 27 1 11
-13 15 -114 20 -488 4 -259 8 -491 8 -515 1 -24 3 -42 6 -40 10 11 14 64 16
274 1 133 5 196 9 160 5 -49 7 -32 12 90 6 163 8 176 18 170 4 -3 6 -46 4 -97
-2 -64 0 -82 5 -58 10 42 11 34 21 -125 l6 -120 2 169 c1 92 -3 232 -9 310 -6
77 -9 177 -7 221 l3 80 23 -140 c12 -77 22 -162 22 -189 0 -27 3 -46 7 -42 10
9 15 166 5 166 -4 0 -7 26 -7 57 0 32 -4 94 -8 138 -6 56 -5 75 2 65 9 -12 11
-9 11 13 0 25 -3 27 -39 27 -22 0 -42 -5 -44 -12 -4 -10 -6 -10 -6 0 -1 8 -17
12 -48 12 -37 0 -44 -3 -35 -12 7 -7 12 -20 12 -30 0 -15 -5 -17 -27 -12 -16
4 -35 10 -43 15 -12 7 -10 8 8 9 12 0 22 6 22 14 0 12 -17 15 -80 15 -77 0
-86 -3 -81 -32 1 -5 -3 -6 -9 -2 -5 3 -10 12 -10 19 0 18 -171 19 -182 2 -6
-8 -8 -8 -8 0 0 8 -42 12 -131 13 l-132 1 6 -80 c5 -62 3 -80 -7 -80 -10 0
-12 19 -8 80 l5 80 -53 0 c-45 0 -51 -2 -46 -17 6 -17 5 -17 -8 0 -10 12 -28
17 -68 17 l-56 0 -1 -87z"/>
<path d="M1076 2653 c-9 -59 -8 -85 6 -77 7 5 8 3 4 -5 -5 -7 -5 -54 0 -104 5
-66 9 -85 15 -67 6 20 7 18 6 -15 0 -22 4 -74 11 -115 6 -41 14 -165 17 -275
3 -110 8 -254 10 -320 3 -66 10 -275 15 -465 6 -190 12 -373 13 -407 1 -43 -1
-59 -9 -52 -6 5 -41 25 -78 44 -92 48 -245 88 -313 83 -29 -3 -53 -3 -53 -2 0
2 14 11 30 19 17 9 28 20 25 25 -3 5 4 15 16 24 12 8 18 19 15 24 -3 5 1 15 9
22 17 14 21 35 5 25 -5 -3 -10 -2 -10 4 0 5 5 13 10 16 17 10 11 25 -7 18 -13
-5 -15 -2 -10 11 14 37 20 69 11 63 -5 -3 -9 15 -8 39 1 32 -2 44 -12 44 -9 0
-14 11 -14 31 0 28 -2 30 -16 18 -15 -12 -16 -11 -9 10 6 20 4 23 -9 18 -13
-5 -15 -2 -10 18 7 27 -4 33 -24 13 -9 -9 -12 -6 -12 13 0 32 -9 42 -27 28
-10 -9 -13 -7 -13 7 -1 18 -1 18 -15 0 -14 -19 -15 -18 -26 13 -10 28 -13 31
-21 17 -13 -23 -28 -20 -28 7 -1 20 -2 21 -14 5 -16 -22 -26 -23 -26 -3 0 8
-4 15 -10 15 -5 0 -10 24 -10 53 0 75 -18 97 -80 97 -100 0 -128 -41 -95 -140
18 -55 14 -86 -10 -76 -9 3 -15 0 -15 -9 0 -8 -4 -15 -10 -15 -5 0 -12 -16
-16 -35 -3 -19 -10 -33 -14 -30 -4 3 -10 -9 -14 -26 -3 -17 -10 -28 -16 -24
-6 4 -10 -8 -10 -29 0 -52 -17 -87 -62 -128 -42 -40 -45 -41 -123 -39 -36 0
-44 -2 -30 -8 l20 -8 -20 -6 c-11 -3 22 -3 73 0 57 3 92 2 92 -5 0 -5 -17 -7
-39 -5 -22 3 -42 0 -46 -6 -3 -6 -19 -11 -35 -11 -44 0 -60 -10 -60 -36 0 -13
3 -24 7 -24 3 0 50 16 103 36 70 25 110 34 141 32 42 -3 39 -4 -51 -27 -52
-13 -97 -27 -100 -31 -3 -3 -12 -10 -20 -13 -59 -27 -75 -44 -78 -82 l-3 -39
53 50 c29 27 67 55 83 61 17 6 66 25 110 42 95 37 116 38 163 9 41 -25 32 -33
-24 -20 -41 9 -104 -2 -104 -18 0 -6 -3 -9 -8 -9 -25 4 -42 -4 -47 -22 -6 -17
-9 -19 -16 -8 -6 10 -9 7 -9 -11 0 -20 -2 -22 -10 -10 -7 11 -10 11 -10 2 0
-7 -4 -10 -10 -7 -5 3 -10 1 -10 -5 0 -7 -6 -10 -14 -7 -9 4 -16 -3 -20 -16
-3 -12 -8 -18 -12 -14 -4 4 -13 -1 -20 -11 -7 -9 -18 -17 -25 -17 -8 0 -19
-10 -25 -23 -6 -13 -15 -22 -20 -21 -17 5 -22 -58 -23 -312 -1 -214 1 -256 13
-256 10 0 13 9 10 30 -3 26 -2 28 9 13 12 -16 14 -16 26 -2 7 9 11 23 7 31 -3
9 -2 13 3 10 5 -3 12 -1 16 5 4 6 10 8 15 5 5 -3 7 11 5 32 -2 23 0 31 5 23 7
-12 10 -11 16 4 5 14 9 15 15 4 7 -10 9 -10 10 2 0 10 3 8 9 -5 5 -12 7 12 4
60 l-3 80 13 -70 c17 -95 43 -169 66 -190 25 -23 29 -55 4 -34 -8 7 -22 26
-31 42 -11 22 -17 26 -23 17 -5 -7 -15 -10 -25 -6 -13 4 -28 -5 -55 -34 -37
-40 -43 -61 -25 -77 4 -5 5 -1 0 7 -5 8 -4 12 0 7 14 -12 15 -38 2 -30 -25 16
-45 11 -68 -15 l-24 -27 27 24 c40 35 46 18 9 -24 -17 -20 -31 -38 -31 -40 0
-3 23 -5 50 -5 39 0 50 3 50 16 0 15 2 15 25 0 32 -21 73 -20 99 2 20 16 20
16 7 0 -21 -27 -4 -21 41 15 23 17 53 51 69 75 29 45 32 45 43 -3 17 -72 28
-107 32 -102 3 2 -5 39 -16 81 -21 75 -21 78 -4 129 10 29 22 57 26 63 4 6 5
24 2 40 -7 35 11 88 27 78 6 -3 9 -15 6 -25 -3 -11 -2 -19 3 -19 4 0 10 -11
13 -25 4 -24 3 -25 -13 -10 -14 12 -20 13 -26 4 -4 -8 -3 -10 4 -5 7 4 10 2 7
-7 -5 -12 2 -24 45 -74 5 -7 10 -18 10 -25 0 -9 3 -9 10 2 6 9 10 10 10 3 0
-30 -22 -20 -52 22 -18 25 -34 41 -36 36 -2 -6 7 -25 19 -43 13 -18 25 -41 26
-53 2 -11 6 -27 9 -35 4 -8 8 -28 10 -45 3 -16 9 -44 14 -60 10 -30 12 -30 81
-33 45 -2 69 0 65 7 -4 5 -2 13 4 16 6 4 9 1 8 -7 -2 -7 6 -13 17 -13 11 0 19
6 17 13 -1 8 2 11 8 7 6 -3 8 -11 5 -16 -4 -5 5 -9 19 -9 13 0 27 6 29 13 4 9
6 9 6 0 1 -7 10 -13 22 -13 11 0 17 5 14 10 -4 6 -11 7 -17 4 -7 -5 -8 -2 -4
5 6 9 13 8 27 -5 17 -15 19 -15 19 -1 0 9 -4 19 -10 22 -5 3 -15 16 -20 28
-11 22 -11 22 6 2 15 -18 16 -18 10 -2 -3 10 -6 28 -6 38 0 11 -4 18 -9 15 -4
-3 -6 6 -3 21 4 19 2 24 -8 18 -9 -6 -10 -3 -2 11 5 11 7 25 5 32 -3 8 7 12
31 12 20 0 59 11 86 25 27 14 53 25 57 25 5 0 17 -55 28 -122 10 -68 20 -116
22 -108 1 8 -6 65 -16 125 -15 93 -16 112 -5 121 19 15 18 20 -16 63 -24 30
-29 43 -24 68 5 26 12 32 43 38 56 10 103 42 142 96 l36 49 6 -152 c4 -83 7
-213 7 -289 0 -81 4 -140 10 -144 6 -4 10 31 10 97 0 154 -29 1176 -45 1598
-3 69 -10 310 -15 535 -6 226 -13 420 -16 433 -3 15 -12 22 -28 22 -19 0 -24
-7 -30 -37z m-286 -1820 c14 -9 28 -21 32 -27 12 -19 20 2 9 23 -9 16 -9 20 1
16 7 -3 53 -9 101 -14 80 -9 95 -15 157 -55 37 -25 70 -52 74 -61 3 -9 6 -38
6 -64 0 -42 -4 -51 -44 -90 -24 -24 -47 -43 -50 -42 -3 1 -14 1 -23 1 -13 0
-14 -3 -6 -11 9 -9 19 -8 39 6 19 12 25 13 22 3 -5 -14 -75 -58 -94 -58 -12 0
-11 32 2 64 5 13 4 17 -3 13 -18 -11 -30 15 -38 81 -4 34 -11 62 -15 62 -7 0
-25 -67 -22 -82 1 -5 -3 -7 -9 -5 -5 1 -16 -15 -24 -36 -7 -21 -15 -40 -17
-43 -3 -2 -24 28 -49 68 -50 81 -192 233 -208 223 -7 -3 -11 2 -11 14 0 16 8
21 38 24 81 8 109 6 132 -10z m-337 -219 c-52 -45 -117 -76 -169 -82 -38 -4
-44 -2 -44 14 0 20 20 57 20 39 0 -6 15 -16 32 -23 29 -11 39 -9 83 13 28 13
62 37 76 51 13 15 19 24 13 21 -6 -3 -23 6 -38 20 -19 18 -31 22 -38 15 -8 -8
-6 -16 6 -27 9 -9 16 -23 16 -31 0 -18 -48 -30 -69 -17 -30 19 -24 48 21 92
l43 42 43 -47 44 -48 -39 -32z"/>
<path d="M1170 2613 c0 -43 5 -197 10 -343 12 -339 47 -1455 55 -1755 8 -355
17 -515 26 -515 5 0 9 20 9 45 0 39 3 45 21 45 11 0 18 4 14 10 -3 5 -12 7
-20 3 -11 -4 -15 3 -16 23 0 16 -3 49 -5 74 -4 54 3 90 17 90 6 0 9 -6 6 -13
-3 -8 1 -14 9 -14 7 0 11 4 8 9 -3 5 10 15 28 23 18 8 28 14 21 15 -7 0 -10 7
-7 15 4 8 10 13 14 10 5 -3 7 3 5 12 -2 10 -4 20 -4 23 -1 3 -6 -2 -11 -10 -8
-13 -10 -12 -10 3 0 15 -3 16 -20 7 -11 -6 -18 -15 -16 -19 3 -4 -6 -19 -19
-31 l-25 -23 0 71 c0 40 3 72 6 72 3 0 15 -5 27 -12 20 -10 21 -10 8 5 -14 18
-8 22 31 18 12 -2 16 3 12 13 -4 10 -1 16 7 16 7 0 10 2 7 6 -3 3 -21 -4 -39
-15 -40 -25 -61 -27 -53 -6 4 8 2 15 -3 15 -5 0 -10 24 -11 54 -1 46 2 56 17
61 24 7 34 32 18 41 -7 4 -9 4 -5 -1 7 -7 -14 -35 -26 -35 -14 0 -5 38 12 53
20 18 37 23 27 8 -3 -5 -1 -12 4 -15 16 -11 22 11 6 24 -21 18 -19 37 7 51 15
8 18 14 10 17 -10 3 -10 7 -1 18 6 8 8 14 3 14 -5 0 -4 4 2 8 6 4 8 16 4 26
-5 15 -14 0 -35 -60 -15 -43 -32 -83 -37 -88 -4 -6 -8 26 -8 70 -1 43 -3 105
-7 136 -5 56 -4 58 22 68 15 6 37 8 49 5 11 -2 15 -2 7 1 -16 7 93 74 120 74
9 0 22 7 29 15 7 8 20 15 29 15 9 0 41 12 71 26 51 24 55 24 67 8 9 -13 13
-14 13 -4 0 9 5 7 15 -6 8 -10 14 -26 14 -34 0 -11 -3 -10 -14 4 -8 11 -15 16
-15 10 0 -5 16 -29 35 -53 20 -25 34 -49 32 -55 -9 -24 -57 -7 -93 33 -20 23
-41 41 -48 41 -7 0 -8 -3 0 -8 15 -10 44 -55 44 -67 -1 -5 -16 7 -35 29 -19
21 -32 42 -30 46 2 4 -7 5 -21 2 -54 -10 -68 -117 -25 -188 15 -24 16 -35 7
-51 -20 -35 -96 -120 -119 -132 -29 -16 -34 -57 -7 -64 11 -3 24 1 31 9 8 10
7 12 -8 9 -32 -6 -23 22 24 70 41 43 43 44 43 20 0 -16 -11 -36 -27 -51 l-28
-25 31 21 c30 21 32 21 61 3 17 -10 28 -24 25 -32 -3 -10 1 -9 14 3 11 9 36
30 57 47 32 27 35 34 25 47 -10 12 -10 14 0 8 6 -4 12 -3 12 3 0 5 -6 12 -12
14 -10 4 -10 8 1 15 11 8 11 10 0 15 -10 4 -9 6 4 6 25 1 21 21 -5 22 l-23 0
22 9 c29 12 56 75 43 100 -8 15 -4 19 23 24 18 4 33 2 35 -3 2 -6 10 -7 18 -4
8 3 22 -1 31 -8 9 -8 14 -9 10 -3 -4 7 0 15 9 18 28 11 4 27 -31 20 -30 -5
-35 -2 -59 32 -32 47 -32 52 -4 108 24 51 53 61 101 38 25 -11 27 -15 15 -29
-12 -15 -11 -15 10 -4 12 6 22 19 22 28 0 9 -3 13 -7 10 -3 -4 -12 -2 -20 4
-17 15 -17 83 0 97 10 9 13 1 12 -36 0 -35 5 -51 19 -61 15 -12 20 -12 28 0 7
12 9 11 7 -1 -3 -27 1 -40 11 -40 6 0 10 6 9 13 -3 26 1 38 13 31 8 -5 9 -2 5
9 -3 9 -3 16 1 16 25 -4 32 4 32 38 0 27 3 34 11 26 18 -18 1 -210 -20 -226
-9 -6 -17 -18 -19 -26 -3 -12 -1 -12 13 -1 14 11 15 10 6 -12 -6 -15 -5 -31 1
-42 15 -27 5 -185 -13 -197 -23 -14 -29 -11 -29 18 0 21 -3 24 -12 15 -10 -10
-10 -19 0 -44 10 -26 9 -36 -3 -54 -9 -15 -11 -25 -5 -29 6 -4 7 -11 4 -17 -4
-6 7 0 25 13 31 23 40 39 21 39 -5 0 -10 9 -10 20 0 21 15 27 25 10 9 -15 25
-2 18 15 -6 18 8 20 26 3 10 -11 11 -10 6 5 -4 9 -15 17 -24 17 -15 0 -17 11
-14 93 5 114 9 137 28 137 8 0 25 10 37 22 12 13 41 30 63 38 38 15 41 15 74
-7 19 -13 42 -23 51 -23 11 0 21 -12 26 -32 8 -26 16 -34 37 -36 15 -2 27 -7
27 -12 0 -5 6 -7 14 -4 16 6 76 -60 76 -86 0 -10 -15 -28 -35 -40 -37 -23 -55
-64 -36 -83 8 -8 11 -6 11 9 0 19 17 44 30 44 3 0 6 -9 6 -19 0 -11 -3 -18 -7
-15 -4 2 -9 -5 -12 -17 -4 -14 1 -23 18 -31 29 -13 84 15 101 53 6 13 20 42
30 63 11 22 19 44 20 50 3 59 17 127 25 119 5 -5 23 -71 39 -147 16 -76 34
-143 39 -150 5 -6 11 -29 14 -51 2 -22 4 37 5 132 2 143 -1 178 -15 208 -9 19
-21 35 -26 35 -5 0 -7 7 -3 15 3 8 -8 40 -24 71 -17 31 -30 67 -30 79 0 13 -4
27 -10 30 -5 3 -10 23 -9 43 1 33 2 34 8 12 10 -31 80 -196 99 -230 11 -22 13
-13 10 78 -2 72 -7 105 -16 111 -22 13 -130 266 -119 278 2 2 33 -57 68 -131
34 -75 64 -134 66 -132 2 2 -33 81 -77 175 -78 166 -81 176 -90 274 -6 56 -17
129 -25 162 -8 33 -15 74 -15 92 0 19 -8 40 -19 50 -11 10 -22 39 -26 66 -5
35 -14 52 -32 65 -14 9 -38 30 -53 46 -33 34 -132 76 -178 76 -21 0 -35 6 -39
17 -9 22 -40 53 -47 46 -3 -4 -6 -2 -6 3 0 5 -8 10 -17 11 -53 4 -58 9 -58 54
0 40 -2 44 -25 44 -24 0 -25 -2 -22 -58 1 -40 -1 -56 -10 -55 -12 3 -80 -91
-74 -101 2 -3 -23 -19 -56 -36 -64 -32 -118 -75 -118 -95 0 -6 12 3 26 20 39
46 134 90 134 61 0 -5 8 -8 18 -7 13 1 16 -6 14 -29 -2 -24 0 -27 8 -15 9 13
11 12 8 -4 -4 -29 -28 -32 -29 -4 -1 23 -1 23 -8 -2 -7 -23 -11 -25 -55 -22
-41 3 -48 1 -53 -17 -6 -24 -7 -25 -36 -10 -13 6 -7 -3 13 -20 19 -17 47 -35
61 -41 14 -6 33 -25 43 -42 17 -27 18 -45 11 -180 -7 -147 -7 -150 -43 -215
-21 -36 -53 -81 -72 -100 l-35 -34 29 7 30 7 -25 -34 c-13 -18 -32 -42 -41
-51 -10 -10 -18 -29 -18 -42 0 -13 -9 -35 -20 -49 -11 -14 -20 -31 -20 -39 0
-7 8 -1 18 14 15 23 21 25 32 15 12 -10 12 -9 3 3 -11 16 -2 53 16 64 6 4 8
13 4 21 -3 9 1 15 8 15 14 0 29 26 50 90 7 19 20 47 31 62 10 15 25 42 33 60
14 32 14 33 15 6 0 -15 -5 -30 -10 -33 -7 -4 -7 -12 0 -25 12 -23 -24 -126
-50 -142 -10 -7 -15 -19 -12 -33 2 -14 -4 -31 -15 -42 -10 -10 -34 -40 -52
-66 -37 -51 -41 -53 -59 -35 -9 9 -18 6 -40 -15 -15 -15 -39 -27 -51 -27 -44
0 -101 -22 -101 -39 0 -10 -22 -28 -56 -44 -31 -16 -54 -31 -50 -34 3 -3 12 0
21 7 8 7 15 8 15 2 0 -9 -89 -52 -109 -52 -6 0 -11 20 -11 48 0 26 -7 276 -16
555 -9 279 -15 510 -13 512 2 2 32 9 67 16 49 10 67 11 82 1 28 -17 54 -15 81
7 l24 19 -28 11 c-17 7 -25 15 -21 23 5 8 0 9 -14 6 l-22 -6 22 31 c27 41 33
46 26 27 -5 -12 3 -16 33 -17 32 -2 42 3 59 27 22 30 29 96 8 84 -7 -5 -8 -3
-3 5 4 8 -4 23 -24 41 -17 16 -31 36 -31 44 0 18 -49 58 -61 50 -5 -3 -12 1
-15 9 -5 14 -38 13 -74 0 -8 -4 -21 -5 -29 -4 -10 2 -12 -4 -7 -23 8 -31 -18
-50 -46 -32 -14 8 -20 8 -27 -2 -9 -15 -21 113 -21 236 0 48 -4 82 -10 82 -6
0 -10 -32 -10 -77z m1046 -446 c16 -8 41 -17 55 -21 26 -6 44 -30 34 -46 -2
-4 -14 -10 -25 -13 -17 -4 -19 -1 -14 18 5 21 -1 27 -46 50 -29 15 -49 22 -45
16 3 -6 19 -18 36 -26 29 -15 41 -47 17 -44 -27 3 -36 -2 -60 -38 -34 -51 -74
-93 -89 -93 -6 0 9 22 35 50 25 27 46 54 46 61 0 6 -16 -9 -36 -33 -41 -48
-59 -55 -58 -20 0 12 -3 22 -8 22 -4 0 -8 -9 -8 -20 0 -29 -29 -70 -49 -70
-11 0 -12 -3 -4 -8 8 -5 8 -13 -2 -32 -9 -15 -14 -19 -15 -10 0 13 -1 13 -11
0 -11 -16 -10 -7 6 47 6 18 2 22 -27 29 -18 4 -36 8 -40 8 -5 1 -7 6 -5 11 1
6 6 9 11 7 4 -1 6 10 3 25 -4 15 -4 22 0 14 5 -11 7 -11 14 0 6 10 9 8 9 -7 0
-28 29 -39 49 -20 13 14 12 18 -8 35 l-23 20 24 -1 c12 -1 30 -8 39 -15 15
-13 18 -11 27 14 10 27 11 27 17 6 7 -21 8 -20 34 9 24 27 30 29 49 19 19 -10
22 -9 22 6 0 19 -32 53 -50 53 -6 0 -10 5 -10 10 0 15 69 6 106 -13z m-55
-287 c0 -36 3 -49 11 -44 7 5 8 3 3 -7 -12 -19 -14 -49 -3 -55 13 -8 9 -18
-11 -31 -20 -13 -24 -1 -8 24 4 6 2 15 -4 18 -6 4 -15 17 -20 29 -7 17 -9 14
-6 -17 2 -30 -1 -41 -17 -49 -16 -9 -23 -7 -37 11 -10 12 -15 29 -12 38 5 11
3 14 -6 8 -10 -6 -10 -2 0 16 7 13 12 28 11 33 -2 4 2 14 8 21 8 10 7 14 -2
18 -9 4 -9 6 -1 6 6 1 19 -9 28 -21 16 -23 17 -23 11 -2 -5 16 0 27 21 42 15
11 30 19 32 17 2 -3 3 -27 2 -55z m237 -70 c14 -22 38 -27 45 -7 2 6 3 4 2 -5
-2 -10 1 -21 6 -24 5 -3 9 -44 9 -92 0 -83 14 -163 60 -349 10 -40 14 -73 9
-73 -5 0 -9 10 -9 23 0 18 -2 19 -10 7 -8 -12 -10 -9 -10 13 0 16 -5 37 -10
47 -9 17 -27 90 -34 140 -2 8 -6 29 -9 45 -4 17 -11 67 -16 113 -5 46 -15 91
-24 100 -17 20 -39 82 -29 82 4 0 13 -9 20 -20z"/>
<path d="M2458 2649 c-10 -5 -18 -19 -18 -29 0 -10 -5 -22 -10 -25 -6 -4 -7
-11 -4 -17 4 -6 0 -14 -7 -19 -22 -14 -27 -11 -23 14 2 12 -2 4 -10 -18 -11
-34 -11 -41 0 -48 27 -16 14 -33 -25 -34 -33 -2 -39 1 -38 17 1 10 5 16 9 14
17 -11 29 8 16 24 -8 9 -8 13 -2 9 7 -4 14 0 17 8 5 11 0 11 -29 -3 -24 -12
-33 -22 -30 -34 2 -10 0 -21 -5 -24 -14 -8 -23 26 -10 39 6 6 11 18 11 27 0
13 -1 13 -10 0 -8 -12 -10 -10 -10 10 0 15 -6 32 -12 39 -11 11 -10 13 5 8 22
-8 22 9 0 18 -13 4 -26 -3 -45 -24 -15 -17 -31 -32 -35 -34 -5 -1 -6 -6 -5
-12 2 -5 0 -7 -4 -3 -4 4 -19 -2 -35 -13 -20 -14 -36 -18 -55 -13 -19 5 -25 4
-20 -5 4 -6 1 -11 -6 -12 -7 -1 -2 -5 12 -9 16 -5 19 -8 8 -9 -9 -1 -20 -6
-24 -12 -5 -9 1 -10 22 -5 l29 7 -25 -22 c-24 -20 -18 -21 24 -3 9 3 16 -2 19
-13 4 -14 5 -12 6 6 1 31 44 87 81 106 31 16 34 15 44 -30 4 -16 13 -37 20
-45 22 -25 25 -48 10 -60 -38 -33 10 -91 78 -95 24 -2 48 2 55 7 7 5 21 7 32
3 11 -3 23 -1 27 6 5 9 -6 11 -44 7 l-51 -5 17 23 c16 21 52 29 52 12 0 -13
27 -9 40 6 6 8 23 16 37 18 23 3 27 8 30 43 2 26 10 45 24 56 21 15 21 17 4
42 -9 14 -14 30 -11 35 3 6 -2 9 -11 8 -9 0 -23 10 -30 24 l-13 25 0 -23 c0
-13 -4 -20 -10 -17 -6 4 -8 10 -5 15 3 5 1 11 -4 15 -5 3 -13 0 -18 -7 -4 -7
-19 -19 -33 -26 -20 -11 -18 -7 9 17 18 17 41 31 49 31 22 0 9 10 -19 15 -13
2 -32 0 -41 -6z"/>
<path d="M1916 1068 c-8 -12 -13 -25 -10 -30 3 -5 0 -15 -6 -23 -6 -8 -10 -18
-7 -22 8 -13 -27 -68 -43 -68 -8 0 -14 -6 -13 -12 2 -7 -20 -22 -48 -34 -35
-15 -46 -25 -37 -30 11 -7 11 -9 0 -9 -7 0 -11 -4 -7 -9 3 -5 1 -12 -4 -16 -6
-3 -8 -12 -5 -19 3 -7 -2 -16 -11 -20 -12 -4 -15 -13 -11 -30 3 -14 2 -27 -4
-31 -5 -3 -7 -12 -3 -20 3 -8 0 -15 -6 -15 -16 0 -13 -52 5 -78 21 -30 32 -28
26 5 -4 22 -2 25 12 20 10 -4 20 -7 22 -7 2 0 4 -8 4 -17 0 -15 -2 -16 -10 -3
-9 13 -10 13 -10 0 0 -8 5 -22 10 -30 7 -12 10 -12 10 -1 0 7 6 11 14 8 17 -7
28 27 13 42 -6 6 -7 14 -3 18 4 4 12 1 17 -7 8 -11 8 -8 3 10 -3 14 -15 36
-24 50 l-18 26 33 -4 c25 -3 35 -10 38 -26 4 -17 5 -16 6 6 0 15 9 33 19 40
25 18 77 97 68 105 -3 3 -6 1 -6 -5 0 -7 -14 -12 -32 -12 -31 1 -32 1 -14 15
11 8 30 15 43 15 25 0 29 11 13 41 -6 11 -21 19 -36 19 -14 0 -23 4 -20 9 3 5
16 7 27 4 16 -4 20 -2 17 8 -3 8 -14 13 -24 12 -17 -1 -16 1 4 14 25 17 31 49
7 39 -21 -8 -19 -1 10 42 14 20 25 40 25 44 0 15 -19 8 -34 -14z"/>
</g>
</svg>
