<?xml version="1.0" standalone="no"?>
<!DOCTYPE svg PUBLIC "-//W3C//DTD SVG 20010904//EN"
 "http://www.w3.org/TR/2001/REC-SVG-20010904/DTD/svg10.dtd">
<svg version="1.0" xmlns="http://www.w3.org/2000/svg"
 width="372.000000pt" height="361.000000pt" viewBox="0 0 372.000000 361.000000"
 preserveAspectRatio="xMidYMid meet">
<metadata>
Created by potrace 1.16, written by Peter Selinger 2001-2019
</metadata>
<g transform="translate(0.000000,361.000000) scale(0.100000,-0.100000)"
fill="#000000" stroke="none">
<path d="M754 3564 c5 -27 10 -85 12 -129 4 -76 7 -113 18 -215 3 -25 8 -74
11 -110 4 -36 12 -96 20 -135 7 -38 16 -90 19 -114 3 -24 9 -47 12 -50 8 -7 0
71 -37 404 -16 143 -32 288 -36 323 -3 34 -10 65 -16 69 -7 4 -8 -11 -3 -43z"/>
<path d="M910 3590 c1 -23 25 -50 46 -50 11 0 15 -4 9 -8 -17 -12 -51 -57 -35
-46 21 15 76 11 72 -6 -2 -8 5 -11 22 -8 24 5 24 5 8 -21 -9 -14 -12 -22 -5
-18 7 5 21 -1 32 -12 16 -16 17 -21 4 -33 -12 -13 -10 -14 18 -10 28 4 31 3
24 -17 -4 -12 -2 -21 4 -21 6 0 11 7 11 17 0 14 2 15 18 1 9 -9 35 -25 57 -37
23 -13 31 -20 17 -17 -19 4 -22 0 -20 -24 1 -16 5 -28 8 -28 21 2 28 -5 25
-27 -2 -27 2 -30 25 -15 12 8 12 10 1 10 -8 0 -12 2 -10 5 3 2 16 1 29 -2 22
-6 23 -7 4 -14 -18 -7 -18 -8 3 -8 24 -1 43 -21 19 -21 -8 0 -16 -3 -19 -7 -2
-5 -2 -3 -1 4 3 12 -25 27 -35 18 -3 -3 1 -10 9 -16 13 -8 13 -10 0 -19 -11
-7 -7 -10 18 -10 29 0 34 -5 31 -26 -2 -16 60 -44 101 -45 l45 -2 -45 -7 c-42
-7 -40 -13 5 -12 16 1 16 0 3 -4 -9 -3 -15 -11 -12 -19 3 -7 1 -16 -5 -20 -6
-3 -11 1 -11 9 0 9 -8 24 -18 34 -16 16 -41 20 -178 25 -87 3 -167 8 -176 12
-13 5 -20 1 -23 -11 -4 -11 -12 -32 -20 -47 -8 -15 -10 -25 -5 -22 13 8 13 -1
-2 -28 -10 -19 -9 -20 4 -9 12 10 18 10 27 -2 10 -12 9 -20 -5 -41 -16 -24
-14 -38 7 -41 5 -1 14 -2 20 -3 5 0 7 -6 4 -11 -4 -6 -11 -7 -17 -4 -7 5 -8 2
-3 -5 5 -9 10 -10 18 -2 17 17 25 13 30 -16 4 -26 4 -26 6 5 l1 32 103 -4
c162 -7 280 -18 305 -27 30 -12 42 -11 42 1 0 6 -7 10 -15 10 -10 0 -15 10
-15 26 l0 26 21 -23 c11 -13 17 -17 13 -9 -4 8 -4 12 0 8 4 -3 23 0 42 8 19 8
34 10 34 5 0 -5 -14 -13 -31 -16 -23 -5 -28 -9 -18 -16 11 -7 10 -9 -3 -9 -22
0 -19 -20 4 -38 13 -9 23 -10 37 -2 30 16 39 11 11 -6 -14 -9 -17 -13 -7 -10
22 7 68 15 49 9 -7 -3 -10 -8 -7 -13 3 -5 -18 -7 -47 -6 -43 3 -48 2 -26 -6
23 -8 28 -16 33 -61 9 -73 3 -150 -13 -155 -7 -2 -11 2 -10 9 2 7 -8 16 -22
20 -21 6 -22 7 -5 9 16 1 17 3 4 8 -8 4 -22 13 -30 20 -8 7 -27 23 -42 37 -15
14 -33 25 -40 25 -7 0 -6 -4 3 -10 13 -8 12 -10 -2 -10 -11 0 -18 8 -18 20 0
27 -28 42 -161 86 l-117 38 -186 -39 c-102 -21 -184 -40 -182 -42 5 -5 181 28
294 54 l73 17 115 -38 c64 -21 114 -39 112 -41 -2 -1 -41 -10 -88 -19 -139
-28 -382 -88 -376 -93 2 -3 44 4 93 16 48 11 99 22 113 25 14 3 69 14 122 26
l96 22 21 -21 c21 -21 28 -51 12 -51 -5 0 -12 6 -14 13 -3 6 -6 0 -6 -15 l-1
-28 25 22 c21 18 24 28 19 55 -5 25 -3 33 9 33 8 0 17 -13 20 -29 5 -24 10
-28 31 -24 21 4 26 1 26 -16 0 -13 10 -26 25 -33 14 -6 25 -15 25 -20 0 -4 8
-8 19 -8 10 0 21 -9 24 -20 3 -13 11 -18 20 -14 9 3 16 -3 20 -16 4 -17 11
-20 26 -15 15 5 21 2 21 -9 0 -9 8 -16 19 -16 15 0 20 -10 25 -49 3 -27 13
-55 22 -62 8 -7 20 -22 26 -33 24 -45 79 -213 79 -241 0 -28 1 -28 9 -7 10 24
26 31 17 7 -4 -8 -2 -17 3 -20 19 -12 10 -23 -21 -27 -25 -4 -32 -1 -40 18 -5
14 -14 21 -22 18 -9 -3 -16 3 -20 15 -3 12 -11 21 -17 21 -10 0 -10 -3 0 -15
7 -8 8 -15 2 -15 -5 0 -15 14 -22 30 -9 23 -17 29 -31 25 -13 -4 -18 0 -21 17
-2 15 -9 22 -20 20 -13 -2 -18 4 -18 19 0 16 -5 20 -20 16 -13 -3 -21 1 -25
14 -4 10 -15 19 -26 19 -13 0 -19 7 -19 21 0 16 -4 19 -20 14 -16 -5 -20 -2
-20 14 0 14 -6 21 -20 21 -12 0 -20 7 -20 16 0 12 -7 15 -26 11 -21 -4 -26 0
-31 25 -5 28 -7 29 -50 22 -24 -3 -63 -13 -86 -20 -33 -11 -35 -13 -11 -10 18
3 43 8 56 11 20 5 34 -3 73 -39 26 -25 51 -46 55 -46 4 0 18 -9 31 -21 13 -11
38 -31 54 -44 17 -13 47 -38 69 -54 21 -17 42 -31 45 -31 3 0 21 -13 39 -28
18 -15 59 -41 92 -57 39 -20 60 -36 60 -48 0 -14 4 -16 18 -9 23 12 42 4 35
-14 -7 -20 -18 -18 -103 17 -82 34 -145 45 -156 27 -4 -6 -3 -8 4 -4 6 3 13 2
16 -3 4 -5 -2 -8 -11 -6 -10 1 -17 8 -16 14 2 6 0 11 -5 12 -4 0 -16 2 -27 4
-19 3 -19 3 -2 -9 15 -12 13 -14 -22 -20 -22 -3 -43 -11 -47 -17 -5 -8 3 -10
25 -7 22 3 30 1 27 -7 -4 -13 34 -13 69 0 15 5 17 4 6 -3 -8 -6 -16 -17 -17
-26 -2 -13 2 -14 18 -5 15 8 19 8 14 0 -9 -14 0 -14 24 -1 13 7 19 6 24 -6 3
-8 11 -12 17 -8 8 4 8 0 0 -15 -11 -19 -10 -20 11 -13 27 10 39 9 56 -1 7 -5
21 -5 32 -2 15 5 18 3 14 -9 -6 -17 2 -20 46 -16 14 1 22 -1 18 -6 -12 -11 24
-33 57 -34 l30 -1 -27 -15 c-37 -19 -35 -33 2 -29 20 3 28 0 24 -7 -4 -7 1 -8
17 -3 20 7 22 6 12 -7 -16 -18 -6 -30 16 -19 9 5 28 11 44 15 36 8 37 -15 1
-52 -14 -15 -31 -41 -38 -57 -7 -17 -20 -37 -27 -45 -39 -40 -41 -189 -3 -262
9 -16 13 -35 11 -42 -3 -7 1 -13 9 -13 7 0 11 4 8 9 -3 5 -6 59 -6 121 -1 107
0 115 32 180 18 37 34 66 35 65 2 -2 -8 -37 -22 -78 -20 -61 -24 -87 -19 -139
3 -36 10 -69 15 -74 22 -22 31 8 32 111 l2 107 8 -88 c7 -79 19 -117 38 -117
3 0 4 22 3 49 -2 27 0 57 6 67 7 13 11 6 16 -32 9 -63 15 -84 26 -84 10 0 21
54 20 104 -1 32 2 37 15 32 9 -3 23 -6 31 -6 8 0 14 -7 14 -16 0 -9 -6 -14
-13 -11 -9 3 -11 -6 -9 -34 2 -22 -1 -46 -7 -53 -7 -8 -13 -27 -15 -43 -1 -15
-8 -27 -14 -25 -7 1 -12 -6 -13 -15 0 -11 -3 -13 -6 -5 -2 6 -9 12 -14 12 -6
0 -7 -6 -3 -12 6 -10 5 -10 -8 -1 -8 7 -17 10 -21 7 -3 -3 -8 4 -12 15 -14 45
-27 20 -23 -43 3 -54 10 -72 43 -120 21 -31 41 -54 43 -51 3 3 11 -3 19 -13
14 -16 14 -16 8 3 -4 15 1 12 20 -10 15 -16 23 -23 19 -15 -4 8 8 2 26 -15 31
-29 32 -29 20 -5 l-13 25 23 -20 23 -20 -12 22 c-17 34 -13 41 9 13 17 -21 19
-21 14 -5 -5 17 -2 16 15 -5 15 -18 19 -20 15 -6 -6 16 -4 17 13 8 11 -6 25
-18 32 -26 31 -37 -122 -61 -165 -25 -8 6 -14 8 -14 4 0 -4 -7 -2 -15 5 -8 7
-15 9 -15 4 0 -4 -18 10 -41 31 -26 26 -37 33 -33 20 9 -24 -96 78 -121 118
-24 37 -31 27 -10 -13 25 -48 12 -46 -24 5 -37 52 -48 58 -26 15 16 -30 15
-30 -5 -18 -11 7 -20 16 -20 21 0 4 -5 5 -11 2 -6 -4 -8 -14 -5 -22 3 -8 2
-11 -3 -8 -23 13 -17 -14 10 -49 32 -44 37 -41 14 7 l-16 32 25 -30 c21 -25
26 -27 32 -12 6 17 24 14 24 -4 0 -6 -5 -7 -12 -3 -7 5 -8 3 -4 -5 5 -7 10
-10 13 -7 3 3 19 -4 34 -15 21 -14 29 -16 29 -7 1 8 5 7 14 -5 8 -10 21 -20
30 -21 9 -1 29 -15 45 -30 16 -16 34 -25 40 -22 7 4 8 1 5 -8 -4 -10 -1 -16 8
-16 7 0 31 -20 51 -45 46 -55 59 -116 28 -137 -59 -42 -88 -185 -57 -291 10
-35 14 -72 10 -99 -6 -49 -33 -108 -49 -108 -16 -1 -42 -42 -50 -79 -5 -24 -4
-31 4 -27 6 4 9 11 6 16 -3 4 -2 10 3 12 4 1 17 19 30 38 12 19 22 29 22 23 0
-7 4 -13 10 -13 5 0 9 3 8 7 -1 5 6 25 15 47 9 21 17 44 17 52 0 31 25 26 57
-12 30 -35 33 -37 29 -14 -7 39 -17 60 -27 54 -5 -3 -6 -11 -3 -17 5 -9 3 -9
-6 0 -11 10 -11 15 0 30 12 15 12 16 0 6 -11 -10 -17 -6 -33 20 -26 41 -48
126 -42 158 3 13 7 38 9 55 6 39 36 117 50 126 20 13 18 -1 -3 -36 -36 -58
-32 -102 18 -185 24 -39 52 -76 62 -81 9 -6 23 -16 31 -22 39 -38 47 -41 65
-27 14 12 16 12 8 0 -5 -10 -4 -12 3 -7 7 4 12 15 13 24 0 11 2 12 6 4 2 -6
10 -9 16 -5 6 4 8 0 4 -9 -5 -14 -3 -14 20 -3 26 14 47 11 73 -10 8 -7 21 -14
29 -17 10 -3 9 -7 -5 -18 -16 -13 -17 -13 -9 0 5 9 5 12 -1 7 -5 -5 -9 -12 -9
-15 -1 -4 -7 -18 -14 -31 -10 -18 -15 -20 -21 -11 -12 19 -40 21 -47 4 -3 -8
-9 -11 -14 -8 -5 3 -9 -1 -9 -8 0 -7 -10 -2 -23 12 -12 14 -18 20 -13 13 5 -8
4 -13 -2 -13 -6 0 -9 -8 -6 -17 3 -10 -8 -4 -26 15 -17 19 -29 39 -27 46 3 7
-1 13 -9 13 -11 0 -10 -8 6 -34 11 -19 20 -37 20 -41 0 -4 -5 1 -11 10 -5 10
-17 18 -25 18 -9 0 -12 5 -8 12 4 7 3 8 -5 4 -18 -12 -42 -66 -34 -79 5 -9 3
-9 -9 0 -8 7 -17 11 -19 8 -3 -2 -5 4 -5 15 0 14 3 16 13 8 16 -13 17 4 1 20
-13 13 -29 16 -27 5 3 -20 -2 -34 -10 -29 -5 3 -12 -1 -15 -10 -9 -24 -7 -31
10 -38 12 -5 14 -1 9 17 -5 19 -5 20 5 4 6 -9 14 -15 18 -13 4 3 8 -4 8 -14 0
-11 -4 -16 -11 -11 -5 4 -17 7 -25 6 -8 0 -21 6 -28 15 -8 8 -11 9 -7 3 3 -7
1 -13 -4 -13 -6 0 -11 -7 -11 -16 0 -9 6 -14 13 -11 7 3 13 -3 14 -13 2 -18
-12 -21 -34 -7 -8 5 -15 -3 -22 -25 -7 -26 -9 -28 -10 -10 l-1 23 -27 -25
c-20 -19 -29 -22 -35 -13 -5 7 -8 0 -8 -19 0 -16 7 -39 16 -50 14 -17 15 -17
10 -1 -4 11 -2 16 5 12 5 -4 7 -15 4 -25 -4 -13 3 -21 25 -30 16 -7 30 -15 30
-19 0 -4 8 -7 19 -7 11 0 17 5 14 13 -3 7 -9 11 -13 8 -14 -8 -41 7 -36 20 2
6 0 18 -6 26 -7 11 -8 9 -3 -6 5 -15 3 -17 -6 -8 -14 14 -3 34 16 27 8 -4 13
-10 10 -14 -3 -4 1 -13 9 -19 11 -9 15 -8 21 6 6 17 7 17 21 -1 8 -11 14 -25
14 -30 -1 -6 -7 0 -15 14 -8 14 -14 21 -14 15 0 -17 28 -61 29 -45 0 13 2 13
9 1 7 -10 9 -8 8 10 0 13 4 33 8 43 6 13 5 17 -3 12 -13 -8 -35 29 -29 47 2 7
0 20 -5 30 -5 11 -5 17 2 17 5 0 10 -4 10 -9 0 -5 8 -8 18 -7 9 2 20 -2 24 -8
5 -8 8 -7 8 2 0 7 4 10 10 7 6 -3 7 1 3 10 -4 12 -8 13 -13 5 -5 -9 -9 -9 -14
-1 -4 6 -3 11 2 11 5 0 15 14 22 31 l13 31 23 -29 23 -28 -5 28 c-6 35 2 34
20 -1 8 -16 11 -34 6 -41 -6 -11 -9 -11 -13 0 -4 10 -6 9 -6 -3 -1 -10 4 -18
10 -18 5 0 7 -4 4 -10 -3 -6 1 -7 10 -4 9 4 14 13 11 21 -3 8 -1 11 4 8 6 -3
10 -1 10 5 0 6 4 9 9 5 5 -3 16 4 25 16 8 12 19 18 25 14 7 -4 10 2 7 17 -3
13 -5 28 -5 33 -1 6 -10 11 -21 12 -23 2 -23 2 -10 -32 6 -15 6 -24 1 -20 -5
3 -13 0 -17 -6 -4 -8 -3 -9 4 -5 7 4 12 3 12 -3 0 -5 -4 -12 -9 -15 -14 -9
-23 25 -10 41 7 7 9 16 6 19 -3 3 -10 -4 -17 -15 -11 -22 -30 -28 -30 -10 0 5
4 7 10 4 6 -3 7 1 4 9 -3 9 -10 14 -14 11 -5 -3 -12 0 -16 6 -5 8 -3 9 6 4 9
-6 10 -1 5 16 -4 17 -4 20 4 10 12 -18 44 -24 34 -8 -3 7 -3 9 1 5 5 -4 19 -3
32 2 19 8 27 5 44 -17 11 -14 20 -20 20 -13 0 7 9 2 21 -11 11 -13 17 -17 13
-9 -11 19 -14 70 -6 70 9 0 221 -283 221 -294 -1 -5 5 -12 13 -17 7 -5 13 -13
13 -19 0 -5 4 -9 10 -7 5 1 9 9 7 17 -3 15 11 2 44 -44 7 -11 16 -18 18 -15 5
4 -154 214 -177 234 -6 6 -5 2 2 -8 8 -9 11 -20 8 -23 -3 -3 -33 32 -68 78
-34 46 -67 89 -72 95 -6 9 -4 15 8 19 12 5 23 0 35 -16 15 -20 21 -22 34 -11
14 12 14 15 -1 37 -10 16 -11 24 -4 24 9 0 9 5 1 20 -8 14 -8 20 0 20 6 0 8 6
5 12 -4 7 3 2 14 -12 16 -19 20 -20 14 -6 -4 13 -3 17 5 12 8 -5 10 -2 5 9 -5
13 -8 14 -15 3 -7 -10 -8 -10 -6 2 3 23 -11 58 -27 64 -18 6 -18 5 -5 -29 5
-14 6 -24 1 -21 -5 3 -12 -2 -16 -12 -6 -15 -8 -14 -16 7 -6 14 -6 27 -1 30 5
3 12 19 16 34 6 26 5 27 -14 17 -11 -6 -20 -18 -20 -28 0 -13 -2 -14 -9 -3 -7
11 -14 9 -39 -9 -26 -19 -34 -21 -47 -10 -8 7 -15 9 -15 4 0 -13 -24 15 -26
31 -1 8 2 15 7 15 6 0 7 4 4 10 -10 16 1 11 16 -7 12 -14 12 -16 0 -8 -9 5
-12 4 -7 -3 7 -12 36 -5 36 8 0 4 -9 15 -20 25 -14 13 -17 22 -10 29 7 7 17 3
32 -11 20 -20 22 -21 34 -5 10 14 14 14 28 3 9 -7 16 -12 17 -10 6 31 6 40 -1
44 -5 3 -11 1 -15 -4 -3 -6 -13 -7 -22 -4 -11 4 -14 3 -9 -5 4 -7 3 -12 -3
-12 -5 0 -12 4 -15 9 -3 5 -25 13 -49 19 -52 13 -121 42 -115 47 2 3 20 0 39
-4 19 -5 59 -12 90 -16 46 -5 56 -3 56 9 0 8 -3 13 -7 11 -3 -2 -12 0 -20 6
-11 6 -12 9 -2 9 7 0 10 5 6 12 -4 7 -3 8 4 4 7 -4 12 -2 12 5 0 9 4 9 15 -1
8 -6 20 -8 26 -4 7 4 9 3 6 -3 -8 -12 20 -39 30 -29 3 3 -2 14 -11 25 -13 14
-14 20 -5 23 9 3 7 7 -5 11 -10 4 -15 3 -11 -3 3 -6 2 -10 -4 -10 -5 0 -12 4
-15 9 -8 12 22 23 37 15 8 -5 7 -2 0 7 -19 19 -16 29 10 29 18 0 19 -2 7 -11
-12 -9 -12 -10 4 -5 12 4 24 0 32 -11 13 -17 14 -17 8 2 -5 18 -4 18 6 3 6
-10 18 -18 25 -18 22 0 18 31 -4 37 -28 7 -23 41 5 39 12 0 20 -4 17 -8 -2 -5
-1 -14 4 -20 4 -7 8 -19 10 -27 2 -18 19 -34 37 -37 15 -2 16 20 1 33 -4 4 -5
3 -1 -4 3 -6 2 -14 -3 -18 -6 -3 -8 4 -6 17 3 12 -3 30 -12 40 -34 38 1 16 40
-24 l40 -43 -33 43 c-18 24 -40 46 -49 49 -9 4 -25 13 -35 22 -11 9 -16 10
-12 3 9 -14 -3 -16 -24 -2 -13 8 -12 10 5 11 11 1 28 1 38 1 10 -1 15 3 12 8
-3 6 1 13 10 16 14 6 14 8 -2 21 -10 8 -13 12 -6 9 6 -4 14 3 18 13 3 11 14
23 24 26 20 6 23 35 6 47 -5 4 0 8 12 8 12 0 24 4 28 9 3 6 -7 6 -27 0 -18 -5
-34 -9 -36 -9 -2 0 -1 -4 2 -9 3 -5 -4 -11 -16 -14 -12 -4 -19 -9 -16 -12 7
-7 -27 -45 -39 -45 -5 0 -19 9 -33 19 l-24 19 42 -2 c23 -1 42 -1 42 1 0 1
-13 9 -30 18 -37 19 -38 30 -3 32 16 0 21 -2 13 -7 -7 -5 -8 -10 -2 -14 13 -8
22 17 12 34 -9 14 10 41 23 33 13 -8 36 17 30 33 -3 8 -2 14 3 13 38 -7 47 23
13 41 -11 7 -18 14 -15 17 3 3 18 -2 33 -12 20 -13 24 -14 16 -3 -7 8 -9 19
-5 23 4 5 0 5 -8 0 -12 -6 -13 -5 -3 5 10 11 15 11 30 -1 17 -13 17 -13 3 5
-8 10 -15 24 -16 32 -3 16 12 19 21 4 3 -5 12 -10 18 -10 7 1 1 10 -12 20 -27
23 -15 27 16 5 13 -9 24 -11 28 -6 3 6 -4 15 -15 21 -11 6 -18 15 -15 20 3 4
-1 11 -7 14 -7 3 -4 4 7 1 11 -2 41 -7 68 -11 45 -6 55 -13 40 -28 -10 -10
-13 -38 -5 -50 13 -21 11 -38 -4 -32 -8 3 -13 2 -11 -2 7 -10 -19 -32 -28 -24
-4 4 -3 -3 3 -14 6 -12 19 -25 29 -28 10 -4 14 -4 10 0 -4 4 -2 13 4 20 7 8 6
14 -2 20 -7 4 -9 3 -5 -4 3 -6 2 -13 -3 -16 -5 -4 -8 1 -7 11 3 21 43 24 59 4
10 -12 9 -14 -7 -8 -16 6 -17 5 -6 -8 17 -20 33 1 20 26 -5 9 -6 20 -2 24 4 5
2 5 -4 2 -7 -4 -15 3 -19 16 -14 42 -11 52 18 54 25 2 37 -10 20 -20 -5 -2 -2
-2 4 -1 7 2 12 -1 10 -7 -1 -5 13 -16 31 -24 18 -8 30 -10 27 -5 -3 6 -1 10 6
10 7 0 2 11 -11 25 -27 29 -42 25 -15 -5 10 -11 13 -20 7 -20 -6 0 -20 14 -32
31 -13 17 -28 28 -36 25 -8 -3 -11 0 -8 9 3 8 12 11 20 8 8 -3 14 -3 14 1 0 7
-57 37 -67 34 -4 -1 -18 3 -30 10 -13 7 -23 10 -23 7 0 -3 -10 0 -22 6 -17 9
-24 9 -33 -4 -10 -13 -18 -15 -46 -7 -47 14 -57 12 -35 -5 21 -16 10 -21 -13
-6 -7 5 -10 14 -7 20 4 6 1 11 -6 11 -8 0 -45 19 -83 43 -39 23 -83 49 -98 57
-41 21 -158 130 -151 141 15 25 74 -8 74 -41 0 -9 -10 -5 -28 11 -16 13 -8 5
16 -18 24 -24 48 -40 53 -37 5 3 7 10 4 15 -10 15 11 10 24 -5 9 -11 9 -16 0
-22 -8 -4 -9 -3 -5 4 4 7 3 12 -3 12 -5 0 -12 -4 -16 -10 -6 -10 91 -70 109
-66 6 2 7 1 3 -2 -4 -2 0 -10 10 -18 21 -16 37 -18 28 -4 -3 6 1 7 9 4 9 -3
14 -10 11 -15 -3 -4 8 -15 26 -24 17 -9 28 -12 25 -6 -4 6 0 11 8 11 20 0 30
-17 14 -23 -7 -3 -1 -4 15 -3 30 3 50 16 24 16 -25 0 -21 19 6 30 21 8 21 9 2
9 -12 1 -26 -4 -32 -10 -5 -5 -22 -7 -37 -3 -15 3 -24 9 -21 12 3 3 -9 11 -27
16 -45 15 -44 41 1 41 19 0 36 6 38 12 3 7 0 13 -7 13 -6 0 -9 -4 -5 -10 3 -5
-8 -7 -29 -5 -25 3 -36 0 -40 -12 -5 -13 -9 -14 -19 -4 -9 9 -9 14 2 20 11 7
11 10 0 17 -33 21 -59 32 -59 25 0 -4 12 -13 26 -19 14 -7 22 -17 19 -22 -8
-12 -44 5 -51 25 -3 8 -28 28 -55 46 -27 17 -47 35 -44 39 3 4 -3 11 -12 14
-14 6 -13 9 8 23 42 28 81 67 90 91 7 19 12 21 29 12 16 -9 18 -13 8 -24 -7
-8 -16 -12 -20 -9 -5 2 -8 -1 -8 -7 0 -6 -4 -9 -9 -5 -5 3 -12 1 -15 -4 -3 -5
3 -11 14 -14 11 -3 20 -1 20 4 0 5 5 9 11 9 8 0 8 -5 -1 -15 -7 -8 -16 -12
-21 -9 -8 5 -13 -12 -12 -43 1 -20 -7 -15 -17 10 l-9 22 0 -22 c-1 -12 11 -31
25 -42 15 -12 22 -21 17 -21 -6 0 -22 11 -37 25 -20 19 -25 31 -21 46 5 15 4
19 -4 15 -6 -4 -11 -14 -11 -21 0 -9 -6 -12 -16 -8 -29 11 6 -32 40 -50 34
-18 96 -20 93 -3 -1 6 6 10 17 9 13 -1 15 2 7 10 -18 18 -14 40 7 32 9 -4 27
-8 40 -10 13 -1 37 -12 52 -24 34 -25 48 -27 30 -5 -14 16 -76 47 -97 49 -6 0
-15 4 -20 9 -4 5 -3 6 4 3 6 -4 14 -1 16 5 4 9 8 10 14 2 12 -15 73 -38 100
-37 57 2 56 2 43 18 -7 8 -20 15 -29 15 -14 0 -14 -2 -1 -10 13 -8 13 -10 -2
-10 -28 0 -31 19 -3 26 13 3 23 10 20 14 -7 11 -48 -1 -58 -17 -4 -7 -16 -13
-25 -12 -14 0 -14 2 2 8 18 7 18 8 3 14 -9 3 -17 2 -17 -4 0 -6 -8 -6 -21 1
-20 11 -19 13 18 55 21 24 47 43 58 43 l20 1 -20 -9 c-20 -9 -19 -10 23 -14
12 -2 28 -8 34 -14 15 -15 19 -62 6 -62 -5 0 -6 -5 -2 -11 4 -8 9 -7 14 2 7
10 11 10 25 -1 11 -9 19 -10 26 -3 8 8 6 11 -7 10 -11 -1 -18 4 -16 11 1 6 -2
12 -8 12 -5 0 -10 4 -10 10 0 5 16 0 35 -11 19 -12 32 -26 28 -32 -4 -6 0 -8
10 -4 17 6 57 -23 57 -42 0 -6 5 -11 12 -11 6 0 8 -3 5 -7 -4 -3 1 -12 11 -20
11 -9 11 -12 2 -7 -8 4 -5 -3 8 -15 12 -12 19 -27 16 -33 -4 -6 -3 -8 3 -5 6
4 15 -5 22 -20 10 -22 9 -24 -4 -19 -38 15 -48 16 -22 1 31 -18 36 -30 8 -22
-15 3 -17 0 -13 -16 3 -14 1 -18 -6 -13 -7 4 -12 3 -12 -2 0 -6 7 -13 16 -16
22 -8 26 -8 20 3 -4 5 -1 11 6 13 15 5 58 -31 58 -49 0 -8 4 -12 9 -9 4 3 5
-12 1 -33 -4 -20 -3 -46 0 -57 4 -11 6 -44 4 -74 -3 -30 -6 -89 -9 -130 -4
-84 -10 -117 -23 -134 -5 -6 -17 -33 -27 -59 -17 -45 -46 -77 -70 -77 -5 0
-15 11 -21 24 -9 20 -9 23 2 19 8 -3 14 -1 14 5 0 11 -25 10 -36 -1 -4 -3 -1
-14 7 -24 9 -11 10 -14 2 -9 -7 4 -18 16 -24 28 -9 16 -8 19 3 12 10 -6 10 -4
-1 10 -11 13 -12 19 -2 29 10 9 15 9 24 -3 7 -8 20 -21 29 -29 16 -12 19 -10
27 10 10 27 -3 51 -23 43 -7 -3 -21 5 -32 18 l-19 22 28 -17 c15 -10 27 -15
27 -12 0 3 10 0 23 -6 20 -11 21 -11 8 4 -7 10 -22 17 -32 17 -10 0 -21 5 -24
11 -4 5 -12 8 -18 6 -7 -3 -25 7 -42 22 l-30 26 24 -27 c14 -16 19 -28 12 -28
-7 0 -9 -5 -5 -11 5 -8 9 -8 14 1 9 15 19 -8 13 -28 -4 -10 -8 -10 -21 0 -15
12 -16 11 -3 -4 7 -10 9 -18 3 -18 -14 0 -25 30 -24 63 0 17 -6 31 -19 38 -16
8 -18 14 -9 24 8 10 8 15 -1 21 -9 5 -7 11 5 20 10 7 15 17 11 23 -13 22 10
10 30 -15 17 -21 24 -24 45 -15 15 6 19 10 9 10 -9 1 -22 8 -29 16 -7 8 -16
13 -20 10 -4 -3 -13 2 -19 9 -9 10 -9 16 -1 21 8 5 6 13 -6 27 -17 18 -19 18
-25 1 -4 -10 -2 -24 4 -31 7 -9 6 -11 -7 -6 -14 5 -16 1 -11 -26 5 -31 4 -32
-12 -19 -10 7 -7 1 7 -15 23 -26 23 -28 3 -15 -19 11 -25 11 -43 -6 -23 -21
-23 -70 1 -70 8 -1 13 -6 11 -13 -1 -7 3 -12 9 -12 5 0 7 -5 4 -10 -4 -7 -12
-7 -18 -2 -7 4 -19 8 -27 7 -8 0 -23 9 -33 20 -10 11 -15 13 -11 5 5 -8 9 -22
9 -30 0 -18 24 -21 45 -6 13 10 13 9 1 -6 -7 -10 -11 -19 -7 -19 3 -1 9 -2 14
-3 4 -1 14 -5 22 -11 12 -7 13 -6 3 7 -15 18 -5 32 13 17 9 -8 12 -6 9 8 -2
10 -4 20 -5 23 -1 3 -2 9 -1 14 1 5 -6 18 -16 30 -14 17 -12 16 9 -3 15 -13
25 -28 22 -32 -14 -23 100 -155 166 -194 13 -8 13 -7 0 11 -8 10 3 3 24 -16
22 -19 36 -30 32 -23 -3 6 -1 15 5 18 5 4 8 14 4 22 -4 12 -2 13 7 6 7 -6 21
-9 30 -8 22 4 33 -11 17 -21 -7 -4 -9 -3 -6 3 3 5 -1 10 -9 10 -10 0 -11 -4
-4 -11 11 -11 40 -17 39 -8 -4 30 3 32 34 11 17 -13 26 -16 20 -8 -7 9 -9 20
-5 24 4 5 2 5 -4 2 -6 -3 -11 1 -11 9 0 10 8 7 27 -11 30 -29 62 -36 39 -8
-11 12 -11 17 -2 20 9 3 6 13 -9 34 -28 37 -16 50 18 18 26 -24 26 -24 15 -1
-11 21 -8 27 13 23 5 -1 4 5 -4 13 -13 17 -25 22 -16 8 3 -5 -1 -9 -8 -9 -7 0
-13 6 -13 13 0 7 4 11 9 8 4 -3 8 0 8 7 0 7 9 5 23 -7 22 -19 22 -19 4 2 -9
11 -14 24 -10 29 5 4 3 5 -3 2 -7 -4 -18 1 -25 11 -13 15 -12 16 3 3 15 -11
19 -11 24 3 3 9 15 16 26 16 10 0 17 -4 14 -9 -8 -13 49 -34 73 -26 29 9 17
23 -36 47 -24 10 -41 23 -38 27 2 5 -2 14 -10 21 -9 8 -11 18 -5 33 6 16 2 28
-14 46 -11 13 -16 21 -10 18 16 -9 25 18 11 32 -19 19 -17 40 5 36 12 -3 23
-7 27 -11 3 -4 -1 -5 -10 -2 -9 4 -16 1 -16 -6 0 -10 20 -13 47 -6 3 0 -8 12
-25 26 -16 15 -23 23 -15 18 12 -6 13 -5 4 7 -5 8 -10 21 -9 29 5 45 4 43 23
29 15 -13 16 -12 4 3 -13 17 -47 14 -36 -3 3 -5 -2 -6 -12 -2 -14 5 -14 7 -1
14 10 6 13 17 9 31 -4 17 -2 20 13 14 14 -5 12 1 -9 29 -15 19 -22 35 -15 35
7 0 5 9 -7 22 -19 21 -19 21 1 15 11 -4 -5 16 -35 45 -30 28 -48 47 -40 41 8
-5 42 -18 75 -28 33 -11 67 -25 75 -31 39 -31 131 -73 146 -67 12 4 15 3 10
-5 -5 -8 -2 -10 9 -6 8 4 22 1 30 -6 8 -6 20 -10 27 -7 8 3 -2 12 -22 21 l-35
17 32 -5 c18 -3 34 -2 37 2 6 9 75 6 84 -4 4 -4 -2 -4 -13 0 -16 6 -17 5 -8
-5 15 -15 43 5 43 31 0 19 -76 54 -86 39 -9 -16 -48 -10 -95 16 -38 20 -52 23
-79 15 -28 -8 -38 -5 -69 17 -20 15 -44 35 -54 45 -10 10 -22 18 -28 18 -6 0
-7 5 -4 10 3 6 2 10 -2 10 -5 0 -18 6 -28 14 -18 13 -18 15 -2 40 10 14 14 26
11 26 -4 0 4 10 17 23 13 12 24 30 24 40 0 9 3 16 7 15 4 -2 15 7 23 20 9 12
21 19 27 16 7 -5 9 -1 5 9 -9 23 18 29 63 13 22 -7 37 -10 34 -5 -3 5 1 9 8 9
7 1 -7 11 -31 24 -41 22 -45 44 -4 30 16 -6 16 -5 -2 10 -13 10 -15 15 -5 13
8 -2 12 -2 8 0 -14 8 -9 31 8 37 8 3 13 2 10 -2 -3 -5 10 -16 29 -25 31 -15
35 -15 35 -1 0 8 -4 12 -10 9 -5 -3 -18 -1 -27 4 -10 6 -12 11 -5 11 17 0 15
20 -3 20 -8 0 -15 5 -15 11 0 6 8 8 18 5 14 -5 14 -4 -2 9 -11 8 -14 15 -8 15
7 0 12 7 12 16 0 9 5 12 12 8 7 -4 8 -3 4 5 -4 6 0 14 8 17 9 3 13 11 9 17 -4
6 3 8 21 3 18 -4 25 -3 21 3 -3 6 3 16 15 23 11 7 20 16 20 21 0 4 -5 5 -12 1
-7 -5 -9 -2 -5 9 4 10 -1 18 -14 22 -10 4 -19 15 -19 26 0 16 4 19 23 14 22
-7 22 -7 2 9 -26 20 -12 20 26 0 17 -8 33 -13 36 -11 2 3 -5 8 -16 12 -12 3
-18 11 -15 17 4 7 2 8 -4 4 -7 -4 -20 -2 -29 3 -17 10 -17 10 0 11 9 0 16 6
15 13 -2 6 3 11 10 9 6 -1 12 2 12 8 0 5 -4 10 -10 10 -5 0 -10 9 -10 20 0 11
4 20 8 20 11 0 8 102 -3 120 -5 8 -1 18 10 27 18 12 17 13 -6 13 -17 0 -20 3
-10 9 11 7 11 9 0 14 -9 3 -6 8 11 15 16 7 19 11 9 11 -9 1 -22 7 -28 15 -10
11 -8 17 6 25 16 9 14 10 -11 11 -23 0 -27 3 -23 20 3 11 2 18 -2 16 -4 -3
-21 10 -39 28 -23 23 -30 39 -26 51 6 16 3 17 -22 11 -21 -5 -25 -4 -14 4 9 6
10 10 3 10 -6 0 -14 8 -17 18 -4 10 -15 28 -27 40 l-20 22 23 1 c13 1 3 5 -22
10 -25 5 -58 7 -74 5 -15 -3 -35 -2 -45 2 -13 5 -11 7 9 13 l25 7 -27 1 c-28
1 -72 34 -61 45 4 3 15 6 25 6 10 0 26 4 36 9 9 6 30 13 46 16 15 3 26 8 24
10 -6 6 -131 -26 -145 -37 -8 -6 -15 -3 -22 11 -15 28 -14 31 12 32 19 1 19 2
3 6 -22 6 -53 33 -38 33 16 0 1 39 -17 43 -10 2 -3 8 19 14 19 6 29 12 22 12
-7 1 -10 5 -7 11 4 6 -6 7 -25 4 -27 -6 -30 -4 -30 18 0 13 -5 29 -10 34 -8 8
-6 15 5 24 18 15 20 36 3 46 -6 4 -8 3 -5 -4 5 -6 -1 -8 -15 -4 -20 5 -19 7
12 19 l35 13 -32 -5 c-42 -6 -43 10 -1 24 17 6 29 14 25 17 -3 3 -15 0 -27 -6
-11 -6 -29 -9 -38 -7 -14 3 -12 6 8 16 25 11 25 12 1 7 -13 -3 -35 3 -48 11
-23 15 -23 18 -9 29 15 10 15 12 1 18 -9 3 -14 2 -11 -3 3 -5 -1 -12 -10 -15
-24 -9 -27 -8 -21 14 3 11 1 18 -3 15 -5 -3 -10 0 -12 7 -2 6 -18 11 -36 11
-17 0 -29 4 -26 9 3 5 -6 6 -20 2 -27 -6 -34 4 -16 22 8 8 1 10 -22 7 -18 -2
-43 -5 -55 -6 -11 -1 -19 -6 -15 -11 3 -5 -2 -7 -11 -3 -9 3 -19 1 -23 -5 -4
-6 -3 -8 3 -5 5 3 10 0 10 -8 0 -13 -3 -12 -18 1 -17 16 -19 15 -25 0 -4 -10
-13 -15 -20 -12 -7 3 -16 0 -20 -6 -5 -7 -2 -8 6 -3 9 5 11 4 6 -4 -4 -6 -16
-9 -26 -6 -12 4 -22 0 -28 -11 -6 -11 -17 -15 -31 -11 -18 4 -21 2 -16 -14 6
-16 1 -19 -31 -19 -31 0 -35 -2 -24 -15 10 -12 9 -16 -4 -21 -9 -4 -20 -4 -23
0 -3 3 -12 1 -20 -5 -7 -6 -13 -9 -13 -6 0 3 -15 1 -32 -4 -18 -6 -40 -12 -48
-14 -9 -1 -45 -17 -80 -34 -67 -32 -115 -77 -151 -140 -17 -31 -86 -81 -111
-81 -5 0 -8 40 -8 89 l0 89 -72 12 c-40 6 -109 18 -153 25 -107 19 -181 25
-164 14 7 -4 42 -11 78 -15 50 -5 60 -9 46 -17 -10 -5 -38 -9 -62 -9 -42 1
-45 0 -39 -21 3 -12 6 -26 7 -32 0 -5 5 1 9 15 8 24 8 24 9 -6 2 -49 29 -52
37 -5 6 35 10 40 42 46 19 3 38 2 41 -3 3 -5 13 -12 21 -15 12 -4 11 -6 -3 -6
-10 -1 -15 -6 -12 -11 4 -6 14 -10 23 -9 31 3 42 -1 42 -14 0 -15 35 -47 53
-47 6 0 -1 -9 -16 -19 -16 -10 -24 -20 -18 -22 7 -3 -28 -13 -76 -24 l-88 -19
69 -13 c38 -7 73 -18 78 -25 6 -11 8 -10 8 0 0 9 7 11 21 7 11 -4 35 1 55 10
42 20 40 30 -3 14 -17 -5 -50 -8 -74 -5 -24 3 -47 5 -51 5 -5 1 -8 5 -8 10 0
8 48 21 95 26 11 1 29 6 39 11 13 5 21 3 24 -4 2 -7 9 -12 16 -12 26 0 11 -30
-48 -93 -65 -69 -102 -90 -112 -63 -7 18 -64 23 -64 6 0 -5 -5 -10 -12 -10 -6
0 -9 3 -6 6 7 6 -59 68 -82 77 -12 4 -13 6 -1 6 23 1 -39 61 -63 61 -17 0 -18
2 -6 10 14 9 7 14 -13 11 -5 -1 -6 3 -3 8 4 5 -2 14 -11 20 -10 6 -15 11 -11
11 14 0 -26 40 -40 40 -7 0 -10 5 -7 10 3 6 -4 14 -17 19 -13 6 -16 10 -8 10
10 1 11 4 3 12 -8 8 -17 8 -31 0 -11 -6 -36 -10 -54 -10 -30 2 -29 3 15 12 26
6 47 13 47 17 0 13 -38 41 -66 50 -28 8 -28 8 -4 9 l25 2 -25 14 c-14 8 -21
14 -17 15 17 0 -54 65 -85 78 -18 7 -23 10 -10 8 24 -4 22 2 -12 41 -11 13
-29 23 -40 23 -16 0 -18 2 -7 9 11 7 7 14 -20 30 -19 12 -38 21 -43 21 -4 0
-28 12 -51 28 -30 19 -42 33 -41 49 1 20 2 20 19 6 11 -10 21 -13 27 -7 5 5
-25 46 -78 102 -82 88 -89 93 -124 90 -27 -1 -38 -7 -38 -18z m1617 -486 c9
-8 22 -13 29 -10 8 3 14 1 14 -4 0 -5 6 -7 13 -4 7 2 25 -6 40 -20 33 -31 35
-41 5 -24 -13 7 -26 11 -30 10 -5 -1 -8 2 -8 7 0 12 -39 21 -46 10 -3 -5 -9
-7 -13 -5 -4 3 -25 0 -47 -6 -21 -7 -42 -12 -46 -12 -3 -1 -10 -5 -15 -9 -4
-5 -3 -8 2 -7 21 5 46 0 42 -7 -3 -5 8 -8 24 -9 25 -1 27 1 13 11 -16 11 -15
12 0 18 10 4 15 3 11 -4 -4 -6 4 -8 22 -4 16 3 21 2 13 -2 -17 -9 -25 -33 -10
-33 6 0 10 4 10 10 0 5 12 3 28 -5 15 -7 38 -18 52 -24 25 -11 24 -11 -5 -7
l-30 5 28 -12 c31 -13 33 -19 11 -41 -9 -9 -11 -16 -4 -16 7 0 10 -13 8 -32
-2 -23 -11 -36 -28 -45 -14 -7 -19 -13 -12 -13 19 0 14 -24 -10 -50 -29 -31
-28 -33 8 -42 24 -6 23 -7 -8 -3 -21 2 -40 -1 -43 -6 -4 -5 -18 -10 -33 -10
-24 -1 -23 -3 8 -9 19 -4 27 -8 18 -9 -10 0 -18 -5 -18 -11 0 -5 -9 -10 -21
-10 -11 0 -18 -4 -14 -9 3 -5 -4 -12 -15 -16 -11 -3 -19 -9 -19 -13 3 -21 -3
-32 -18 -32 -15 0 -16 -2 -3 -10 12 -8 10 -10 -9 -10 -13 0 -21 -3 -18 -7 4
-3 -1 -12 -11 -19 -16 -12 -16 -13 3 -14 24 0 98 47 91 58 -3 5 4 8 15 9 10 1
30 13 44 27 14 14 37 26 50 26 13 0 27 5 30 10 3 6 13 10 22 10 12 0 12 -3 -4
-17 -10 -10 -14 -15 -8 -11 19 12 37 -13 22 -31 -9 -12 -9 -13 1 -7 8 5 12 0
12 -13 0 -14 6 -21 19 -21 11 0 21 3 24 8 2 4 2 1 1 -5 -2 -7 4 -13 12 -13 8
0 12 -5 9 -10 -5 -8 -11 -8 -20 0 -9 8 -15 8 -20 0 -3 -5 4 -14 17 -19 23 -10
13 -14 -27 -12 -12 0 -5 -5 15 -13 19 -8 29 -15 21 -15 -11 -1 -10 -5 5 -16
18 -13 18 -14 -6 -9 -25 5 -25 5 3 -11 29 -17 37 -31 11 -21 -8 3 -12 2 -9 -3
3 -5 0 -11 -7 -14 -7 -2 -5 -3 5 -1 11 1 16 0 13 -3 -3 -4 0 -13 7 -21 10 -13
8 -14 -13 -8 -24 7 -25 7 -5 -9 19 -16 19 -16 -10 -10 -29 6 -29 6 -11 -9 18
-14 18 -16 2 -16 -14 0 -12 -5 10 -25 l28 -26 -32 6 c-33 6 -40 -3 -20 -23 9
-9 8 -12 -7 -12 -17 0 -17 -1 0 -20 10 -11 13 -20 7 -20 -7 0 -12 5 -12 10 0
6 -5 10 -12 10 -6 0 -8 -3 -5 -6 3 -4 2 -15 -4 -25 -7 -14 -6 -19 4 -19 8 0
21 -7 28 -16 12 -15 11 -16 -11 -11 -14 4 -19 4 -12 1 19 -9 14 -24 -5 -19
-10 3 -4 -1 12 -9 l30 -15 -30 -1 c-16 -1 -24 -4 -16 -7 11 -5 11 -7 0 -14
-12 -7 -11 -9 1 -9 13 0 13 -1 0 -10 -13 -8 -13 -10 1 -10 9 0 22 -7 29 -15
11 -14 10 -14 -14 -5 -36 13 -38 13 -34 -7 2 -10 -3 -24 -12 -31 -8 -8 -9 -11
-2 -7 15 7 15 0 2 -25 -8 -16 -5 -20 25 -30 19 -6 38 -16 41 -22 4 -6 -1 -6
-14 1 -11 6 -27 11 -34 11 -7 -1 4 -10 25 -21 22 -11 37 -22 35 -24 -1 -2 -37
9 -78 23 -57 20 -95 26 -162 27 -48 0 -89 3 -92 5 -2 3 0 21 4 40 l9 35 -3
-33 c-1 -18 1 -35 6 -38 4 -3 8 11 8 30 0 20 5 36 11 36 7 0 9 -11 6 -29 l-6
-29 59 1 c33 1 60 5 60 8 0 9 -27 19 -53 19 -20 1 -19 2 6 16 26 14 30 14 46
0 20 -18 41 -21 41 -6 0 6 -7 10 -14 10 -13 0 -13 4 0 35 7 19 14 50 14 70 0
28 4 35 19 35 17 0 18 -4 10 -32 -5 -18 -12 -51 -14 -73 -4 -35 -2 -33 15 20
11 33 20 68 20 78 0 23 -28 33 -51 19 -24 -15 -86 -15 -95 -1 -4 7 1 16 11 21
13 8 14 12 5 18 -8 5 0 12 24 20 30 10 38 9 52 -4 29 -30 50 -15 69 49 32 104
13 145 -50 111 -36 -20 -77 -14 -69 9 7 16 55 37 80 35 38 -4 44 0 44 34 0 51
-22 137 -36 143 -18 7 -54 -15 -54 -32 0 -8 -6 -15 -12 -16 -7 0 -21 -2 -30
-4 -10 -2 -18 1 -18 6 0 16 -50 -14 -56 -34 -4 -13 -9 -16 -13 -8 -4 6 -18 9
-32 7 -13 -3 -27 -5 -31 -5 -4 -1 -14 -8 -22 -17 -18 -17 -80 -38 -71 -23 11
17 -4 9 -28 -15 -21 -21 -22 -25 -8 -34 14 -9 13 -11 -4 -13 -11 -1 -24 0 -30
1 -5 1 -25 3 -44 5 -23 1 -40 9 -49 23 -20 30 -56 28 -81 -5 l-21 -26 -35 39
c-21 23 -33 45 -30 55 3 9 -1 19 -9 22 -12 5 -14 0 -9 -26 3 -21 21 -45 49
-70 50 -44 59 -69 14 -37 -17 12 -28 25 -26 29 3 4 -8 12 -24 19 -50 23 -87
136 -64 196 11 28 30 18 28 -14 -3 -49 13 -34 19 17 3 26 10 49 16 51 6 2 11
10 11 18 0 7 11 21 25 30 14 9 23 19 21 22 -8 7 83 76 127 97 40 19 91 81 80
98 -3 6 -2 7 3 4 6 -3 18 7 29 23 31 46 182 116 278 129 5 1 15 -6 24 -15z
m353 -93 c0 -15 33 -22 41 -9 7 10 12 11 28 1 11 -7 22 -9 25 -4 7 10 54 2 62
-10 3 -5 13 -9 23 -9 25 0 57 -38 53 -64 -2 -17 -1 -18 7 -6 9 12 11 11 11 -7
0 -13 4 -23 10 -23 5 0 7 -6 4 -14 -3 -7 2 -21 11 -30 10 -10 14 -24 10 -33
-3 -10 -3 -14 1 -11 3 4 15 -2 27 -12 11 -11 19 -22 16 -24 -8 -9 -90 34 -85
43 4 5 1 13 -5 17 -8 4 -9 3 -5 -4 4 -7 5 -12 1 -12 -11 0 -90 53 -117 78 -15
14 -30 23 -33 21 -8 -8 125 -105 185 -135 30 -15 49 -29 43 -31 -14 -5 -80 24
-140 61 -25 16 -44 22 -48 16 -3 -6 0 -13 9 -16 8 -3 17 -13 21 -22 5 -14 4
-15 -6 -4 -7 6 -18 12 -23 12 -6 -1 2 -11 18 -25 16 -13 23 -23 15 -23 -8 1
-22 0 -33 0 -18 -2 -18 -3 1 -19 10 -10 13 -14 6 -9 -8 5 -13 4 -13 -3 0 -6
11 -16 25 -21 26 -10 32 -24 16 -34 -5 -4 -21 -2 -35 3 -21 9 -24 8 -19 -6 5
-12 3 -14 -7 -8 -9 5 -11 4 -6 -4 5 -7 5 -24 2 -37 -6 -21 -9 -24 -21 -14 -8
7 -30 12 -50 12 -37 0 -45 16 -25 48 8 12 10 10 10 -9 0 -13 3 -22 6 -18 3 3
17 2 31 -4 22 -8 24 -7 18 11 -4 12 -1 27 5 35 9 11 9 15 1 15 -6 0 -11 4 -11
10 0 5 -8 19 -17 30 -12 14 -19 16 -24 8 -6 -9 -13 -8 -26 4 -23 21 -48 8 -58
-29 -8 -33 -21 -43 -55 -43 -20 0 -22 2 -10 10 13 9 13 10 0 11 -10 0 -8 3 5
9 16 7 17 9 3 9 -9 1 -20 5 -23 11 -3 5 0 8 7 7 7 -2 10 -2 5 0 -4 3 -5 8 -3
12 10 16 -44 5 -65 -14 -13 -11 -8 -3 11 18 l34 37 -34 -6 -35 -6 33 31 c18
17 29 31 25 31 -5 0 -2 4 5 9 7 4 14 16 16 25 1 10 9 22 17 27 8 5 9 9 4 9 -6
0 -11 9 -11 20 0 11 4 20 9 20 4 0 6 4 3 9 -4 5 0 12 6 15 9 3 7 10 -7 23 -31
29 -30 47 2 26 48 -29 83 -66 83 -87 0 -12 4 -26 8 -32 6 -10 94 -34 122 -34
15 0 12 26 -5 40 -8 7 -13 16 -10 20 6 10 -42 52 -95 81 -28 16 -36 25 -28 31
17 11 48 10 48 -1z m363 -368 c7 -62 40 -93 102 -93 49 0 75 19 75 55 0 18 4
23 15 19 11 -5 13 -10 5 -19 -5 -6 -7 -15 -3 -18 3 -4 0 -14 -8 -24 -8 -9 -9
-14 -4 -11 6 4 17 3 25 -3 13 -7 12 -9 -2 -9 -13 0 -18 -8 -19 -27 -1 -16 -2
-35 -3 -43 0 -8 4 -18 9 -22 6 -4 -6 -8 -25 -9 -29 0 -31 -2 -15 -9 11 -5 14
-9 6 -9 -9 -1 -11 -9 -7 -26 5 -20 3 -25 -11 -25 -15 0 -16 -2 -3 -10 12 -8
10 -10 -10 -10 -20 0 -22 -2 -10 -10 12 -8 12 -10 -5 -11 l-20 0 20 -9 c19 -8
19 -9 -3 -9 -13 -1 -21 -5 -18 -9 3 -5 20 -7 38 -5 36 3 29 -2 -14 -11 -19 -4
-28 -13 -28 -25 0 -10 -7 -22 -16 -25 -8 -3 -13 -10 -9 -15 6 -11 -29 -34 -38
-24 -3 3 1 12 9 20 8 8 11 19 8 25 -4 7 -2 8 4 4 7 -4 12 -2 12 3 0 6 -4 11
-10 11 -19 0 -10 37 15 60 14 13 25 31 25 39 0 9 7 25 15 35 12 16 12 22 2 35
-10 12 -9 14 6 8 23 -9 22 -2 -5 23 -23 22 -64 28 -52 8 5 -8 2 -9 -9 -5 -19
7 -22 -4 -7 -19 8 -8 6 -15 -5 -24 -13 -11 -23 -10 -57 7 -41 21 -72 21 -65
-1 2 -6 13 -10 23 -9 11 1 7 -4 -11 -12 l-30 -15 38 4 c21 2 40 0 42 -4 3 -5
-6 -7 -19 -6 -14 2 -30 -1 -38 -5 -8 -6 -1 -9 22 -10 32 -1 33 -2 10 -9 -22
-7 -23 -8 -4 -9 12 -1 30 7 42 17 17 15 19 21 9 31 -8 8 1 7 27 -3 21 -9 40
-16 42 -16 2 0 4 -5 4 -12 0 -9 -3 -9 -12 0 -7 7 -19 12 -27 12 -10 0 -7 -6 8
-19 22 -19 22 -19 2 -26 -12 -3 -30 -3 -41 0 -27 9 -25 -3 3 -16 20 -9 20 -9
-5 -4 -16 3 -28 1 -28 -5 0 -5 8 -10 18 -11 11 0 12 -2 4 -6 -7 -3 -19 1 -28
7 -8 7 -17 10 -20 7 -3 -3 7 -12 23 -21 15 -8 22 -15 15 -16 -7 0 -11 -4 -7
-10 3 -5 13 -7 23 -4 14 5 14 4 3 -4 -8 -6 -21 -8 -30 -5 -12 3 -11 0 3 -11
19 -16 19 -16 -5 -17 -22 0 -22 -1 -4 -8 19 -8 18 -9 -5 -14 -22 -5 -22 -5 5
-5 17 1 38 -3 48 -7 17 -7 17 -9 1 -26 -9 -11 -23 -19 -30 -19 -7 0 -16 -5
-20 -12 -5 -8 -2 -9 10 -5 14 6 15 3 6 -13 -6 -11 -16 -20 -23 -20 -8 0 -7 4
3 11 13 9 13 10 0 6 -8 -2 -15 -9 -15 -16 0 -6 -7 -16 -15 -21 -8 -5 -10 -10
-5 -10 6 0 3 -5 -5 -10 -13 -8 -12 -10 3 -10 9 0 17 4 17 9 0 19 34 20 73 1
44 -20 38 -27 -8 -10 -17 7 -24 7 -20 0 3 -6 13 -10 20 -10 8 0 12 -6 9 -14
-3 -8 0 -17 6 -21 8 -5 6 -13 -6 -26 -14 -15 -20 -17 -33 -7 -9 7 -5 -1 9 -16
22 -26 23 -28 5 -23 -20 7 -20 7 -1 -8 20 -15 10 -20 -18 -9 -9 3 -13 10 -10
15 6 10 -21 41 -28 33 -3 -3 -3 7 -1 21 4 17 0 27 -12 31 -13 5 -14 9 -3 15 7
5 8 9 2 9 -6 0 -23 -11 -38 -25 -15 -14 -24 -25 -20 -25 3 0 -1 -11 -10 -25
-9 -14 -12 -25 -6 -25 5 0 10 -5 10 -11 0 -6 -7 -8 -16 -5 -23 9 -61 -3 -44
-14 9 -5 1 -15 -25 -33 -24 -16 -32 -27 -23 -30 7 -3 2 -6 -12 -6 -20 -1 -22
-3 -10 -11 13 -8 11 -11 -7 -16 -13 -4 -21 -10 -18 -14 14 -22 -16 -16 -42 8
-16 15 -54 49 -84 76 -30 26 -57 56 -61 66 -5 13 16 41 80 109 80 85 109 123
81 105 -7 -4 -10 -2 -7 7 3 8 13 13 22 11 10 -2 20 7 26 24 8 21 15 25 35 22
22 -5 23 -3 13 10 -11 13 -10 15 5 9 9 -3 17 -2 17 3 0 6 -6 10 -12 11 -10 0
-10 2 0 6 6 2 9 9 6 15 -4 6 -1 9 7 6 8 -3 14 -11 14 -19 0 -8 9 -13 20 -11
12 2 16 0 8 -5 -8 -6 -6 -14 7 -31 22 -27 30 -28 25 -2 -2 12 2 20 9 20 8 0
19 7 26 15 8 9 8 15 2 15 -6 0 -12 -5 -14 -12 -3 -8 -9 -8 -24 0 -17 11 -18
11 -1 12 11 0 15 5 11 11 -4 7 0 9 12 5 15 -4 19 0 20 18 1 18 -5 26 -31 34
-27 8 -32 7 -28 -4 2 -7 17 -15 31 -17 19 -3 14 -5 -13 -5 -22 0 -52 -3 -67
-5 -27 -5 -38 6 -18 18 6 3 10 1 10 -6 0 -6 9 0 20 14 22 28 26 42 9 31 -7 -4
-10 -1 -7 7 3 8 11 13 18 11 12 -3 39 26 36 38 0 3 7 18 17 34 10 15 16 34 13
42 -3 8 0 13 7 11 7 -1 12 6 12 15 0 30 18 37 50 23 l30 -13 -40 4 -40 4 33
-10 c17 -6 32 -13 32 -16 0 -4 -7 -4 -15 0 -20 7 -20 -18 0 -34 12 -10 16 -9
22 6 4 11 14 24 24 31 26 19 14 58 -19 61 -26 1 -26 1 -7 -14 19 -15 19 -15
-10 -8 -39 9 -43 13 -25 24 8 6 11 10 6 10 -5 0 -3 6 3 14 9 11 9 15 -1 19 -8
4 -7 6 5 6 9 1 16 4 16 9 -1 4 -1 19 0 35 2 44 18 31 24 -20z m257 -213 c11
-41 18 -51 34 -49 12 1 27 1 34 0 14 -1 17 -61 2 -61 -5 0 -10 13 -10 29 0 25
-3 28 -21 24 -20 -5 -21 -10 -15 -65 4 -34 2 -83 -4 -114 l-12 -55 -23 25
c-21 23 -25 24 -33 10 -8 -14 -13 -14 -33 -3 l-24 12 33 14 c17 7 32 16 32 19
0 3 -4 3 -9 -1 -5 -3 -12 -1 -16 5 -3 5 0 10 7 10 10 0 9 3 -2 9 -8 6 -17 8
-20 6 -4 -2 -7 2 -7 10 0 9 5 11 16 6 9 -5 25 -5 35 -1 17 6 17 7 3 13 -10 4
-14 14 -12 26 2 11 0 23 -6 26 -5 4 -9 11 -9 16 0 6 6 7 13 3 8 -5 7 -2 -2 9
-8 10 -11 20 -8 23 3 3 2 16 -3 29 -7 19 -5 24 13 30 13 3 17 8 10 11 -7 3 -9
12 -6 20 11 29 30 13 43 -36z m-674 -76 c-5 -12 -2 -15 11 -10 17 6 17 5 1 -8
-22 -16 -23 -30 -2 -22 8 3 12 2 9 -4 -8 -13 8 -13 21 0 13 13 34 -9 38 -36 2
-10 9 -20 16 -22 9 -3 10 0 4 9 -7 12 -5 12 9 0 16 -13 16 -16 -3 -45 -11 -17
-25 -30 -31 -28 -6 1 -8 -2 -4 -7 3 -6 -3 -19 -13 -29 -10 -10 -26 -29 -35
-42 -13 -19 -19 -21 -32 -10 -8 7 -15 19 -15 27 0 12 3 13 14 4 11 -9 16 -9
22 0 4 8 3 9 -4 5 -13 -8 -15 4 -5 30 6 16 7 16 13 -1 6 -16 10 -13 33 20 27
40 35 61 18 51 -4 -3 -6 6 -3 21 4 19 1 24 -9 21 -15 -6 -16 -20 -5 -55 4 -13
4 -23 -1 -23 -5 0 -9 9 -10 21 -2 21 -29 48 -48 49 -5 0 -3 -5 5 -11 13 -9 13
-10 0 -6 -8 2 -15 10 -15 17 0 7 -6 15 -14 18 -8 3 -11 0 -7 -7 4 -6 2 -9 -7
-6 -10 4 -13 -4 -11 -34 1 -22 5 -45 9 -53 3 -7 -1 -4 -9 6 -9 11 -16 27 -16
35 0 13 -2 13 -9 3 -5 -9 -8 -2 -9 18 -1 30 0 31 14 14 9 -11 13 -14 10 -7
-12 23 5 41 35 38 16 -2 35 -7 42 -10 6 -4 2 2 -11 14 -16 14 -19 22 -10 27 8
5 6 10 -8 15 -17 7 -17 8 -1 8 9 1 17 6 17 11 0 6 3 10 6 10 3 0 3 -7 0 -16z
m-745 -184 c6 0 7 -5 3 -11 -13 -22 19 -28 44 -8 13 10 29 16 34 13 5 -3 17 0
26 8 15 12 16 11 4 -4 -11 -14 -10 -17 5 -22 10 -4 28 -14 41 -24 21 -17 22
-18 3 -18 -11 0 -18 4 -15 7 9 15 -17 20 -33 7 -12 -9 -15 -9 -9 0 4 7 2 12
-4 12 -6 0 -8 5 -4 12 4 7 3 8 -4 4 -7 -4 -12 -2 -12 4 0 6 -5 8 -12 4 -8 -5
-7 -10 4 -18 8 -6 22 -24 32 -41 10 -16 35 -43 56 -60 24 -19 33 -33 26 -37
-7 -5 -6 -8 4 -9 33 -2 48 -9 123 -58 43 -29 83 -49 89 -45 7 4 8 3 4 -4 -4
-7 8 -18 31 -29 l38 -17 -30 -3 c-16 -1 -67 -8 -112 -14 -76 -11 -85 -11 -132
9 -53 23 -97 28 -120 13 -10 -7 -1 -8 25 -4 30 4 52 -2 93 -22 45 -23 63 -27
105 -22 50 5 105 -11 90 -26 -4 -4 5 -7 20 -7 18 0 25 -4 20 -12 -4 -6 -3 -8
3 -5 6 4 16 0 22 -7 10 -12 8 -13 -11 -9 -13 3 -30 11 -38 16 -12 9 -13 9 -2
-3 18 -21 15 -35 -5 -19 -9 8 -14 9 -10 2 4 -6 4 -18 1 -27 -5 -13 -9 -14 -20
-5 -12 10 -13 9 -8 -5 6 -16 -10 -23 -19 -8 -2 4 -2 1 -1 -5 2 -7 -4 -13 -13
-13 -15 0 -15 -2 0 -18 10 -10 17 -23 17 -28 0 -5 -9 2 -20 16 -12 16 -15 29
-9 36 6 7 2 20 -11 36 -14 19 -26 24 -45 20 -18 -3 -24 -9 -20 -20 4 -12 3
-13 -10 -2 -21 18 -19 3 6 -31 23 -33 34 -79 19 -79 -5 0 -10 8 -10 18 0 9 -5
24 -11 32 -8 12 -9 10 -4 -9 5 -16 4 -21 -4 -17 -6 4 -11 13 -11 20 0 7 -12
23 -27 37 l-28 24 23 -26 c22 -26 30 -59 13 -59 -5 0 -12 9 -16 19 -3 11 -13
25 -22 33 -16 12 -15 11 0 -12 24 -34 21 -47 -4 -19 -15 17 -19 19 -15 7 4
-12 0 -18 -12 -18 -15 -1 -15 -2 2 -15 11 -8 16 -18 11 -22 -4 -5 -10 -2 -12
5 -3 6 -9 10 -14 6 -5 -3 -9 2 -9 11 0 8 -15 29 -33 45 -19 16 -39 47 -47 69
-7 23 -16 41 -20 41 -4 0 -7 7 -7 15 0 8 3 12 7 10 4 -2 13 8 21 23 8 15 18
30 24 34 6 4 1 8 -10 9 -11 0 -2 6 20 13 l40 12 -63 -2 c-55 -2 -67 2 -103 28
-22 16 -51 33 -65 38 -14 6 -22 14 -19 20 3 5 1 18 -5 27 -10 16 -11 15 -7 -4
6 -28 -9 -31 -16 -4 -6 24 17 35 33 15 17 -20 37 -18 50 6 8 15 8 20 -1 20 -7
0 -9 3 -6 7 4 3 0 18 -10 32 l-16 26 21 -19 c12 -11 22 -16 22 -12 0 3 12 -1
28 -10 15 -9 20 -10 12 -3 -13 12 -16 28 -11 62 2 14 1 17 -5 16 -4 0 -11 5
-15 13 -10 16 29 50 49 43 8 -3 18 -5 23 -5z m1357 -40 c2 -14 5 -53 6 -87 0
-33 4 -59 9 -56 13 8 28 -8 19 -20 -4 -7 -8 -19 -7 -27 2 -23 -32 -87 -50 -94
-9 -3 -13 -11 -9 -17 5 -8 3 -9 -6 -4 -10 6 -12 4 -7 -8 4 -11 2 -14 -9 -10
-7 3 -14 6 -14 8 0 2 16 35 35 74 32 65 34 73 20 87 -8 9 -15 22 -15 30 0 32
-29 10 -49 -37 -23 -57 -26 -79 -11 -79 6 0 10 -11 10 -25 0 -14 -5 -25 -11
-25 -5 0 -8 -4 -4 -9 3 -5 0 -13 -6 -17 -7 -4 -9 -3 -6 3 8 13 -16 24 -29 15
-5 -4 -20 -31 -33 -60 -22 -46 -23 -57 -13 -86 14 -38 15 -49 5 -43 -5 3 -8
-8 -9 -24 -1 -16 -10 -39 -20 -50 l-19 -21 -5 23 c-4 14 -31 40 -70 66 -36 24
-69 48 -75 54 -13 15 49 -17 98 -49 45 -30 61 -23 18 9 l-30 22 24 19 c14 11
30 16 37 13 7 -4 4 1 -6 9 -12 10 -15 16 -7 16 8 0 11 6 7 16 -5 14 -4 15 9 4
13 -11 14 -10 9 5 -6 14 -4 16 7 11 8 -4 3 2 -11 13 -14 11 -22 21 -18 21 3 0
15 3 25 6 13 4 14 3 5 -4 -11 -7 -11 -10 3 -15 9 -4 13 -3 10 3 -3 6 -1 10 6
10 7 0 4 7 -7 15 -14 11 -15 15 -4 14 37 -4 44 1 24 16 -16 13 -16 14 -1 9 13
-5 16 -2 10 12 -5 13 -3 16 10 11 20 -8 36 18 29 45 -3 11 1 23 7 28 9 5 8 11
-4 24 -9 9 -12 16 -6 16 5 0 13 -4 16 -10 3 -5 11 -10 17 -10 6 0 1 9 -12 20
-26 22 -20 26 13 9 22 -12 22 -12 3 10 -16 17 -17 21 -4 16 13 -5 15 -2 11 14
-4 15 2 23 21 32 20 10 23 15 15 26 -9 10 -8 13 1 13 9 0 9 4 -1 17 -12 15
-12 16 3 10 20 -7 34 8 16 17 -7 3 -4 5 6 3 12 -1 21 -12 24 -27z m-465 -421
c86 -44 165 -130 158 -172 -1 -5 3 -6 8 -2 16 9 35 -34 22 -49 -6 -7 -8 -16
-4 -20 13 -12 11 -33 -3 -33 -8 0 -12 2 -10 4 1 2 -13 20 -32 40 -19 21 -41
51 -48 69 -7 17 -20 36 -28 44 -9 7 -16 18 -16 25 0 7 -7 16 -16 19 -9 4 -14
9 -11 12 6 6 -58 58 -98 82 -18 10 -18 11 -2 12 10 0 46 -14 80 -31z m-409
-279 c3 0 29 -15 58 -34 29 -18 64 -37 77 -41 18 -5 20 -9 10 -15 -7 -5 -17
-6 -23 -3 -5 3 -6 1 -2 -6 4 -6 -2 -23 -13 -37 -12 -15 -21 -33 -21 -41 0 -7
-6 -16 -14 -19 -8 -3 -12 -12 -9 -20 4 -10 -2 -17 -17 -21 -19 -5 -21 -11 -18
-44 2 -22 0 -39 -4 -39 -5 0 -8 6 -8 13 0 9 -3 8 -9 -2 -5 -7 -13 -11 -19 -7
-5 3 -12 -1 -16 -9 -3 -9 -12 -12 -23 -8 -16 6 -17 5 -3 -12 14 -17 14 -18 -7
-6 -19 9 -22 9 -17 -2 6 -16 -22 -31 -31 -18 -2 5 16 26 41 46 25 21 57 55 71
76 22 33 28 37 41 27 10 -9 13 -9 9 -1 -9 14 2 45 14 37 8 -4 14 17 10 39 0 4
4 7 9 7 6 0 9 6 8 13 -2 6 3 11 10 9 10 -2 10 2 0 17 -6 10 -18 17 -25 14 -10
-4 -11 -9 -4 -16 7 -7 0 -23 -22 -51 -55 -69 -169 -186 -182 -186 -7 0 -26 15
-41 33 -15 17 -31 31 -35 30 -4 -2 -18 12 -29 30 l-22 32 26 -30 c14 -16 26
-26 26 -21 0 5 7 3 15 -4 14 -12 19 -7 16 13 -1 5 4 5 10 1 9 -5 10 -2 5 11
-5 15 -4 16 9 5 13 -11 13 -14 -3 -29 -10 -9 -13 -13 -7 -9 6 4 16 3 21 -2 16
-16 11 34 -5 53 -7 10 -10 17 -6 17 5 0 0 10 -11 22 -20 23 -3 17 29 -10 22
-19 34 -8 16 15 -12 16 -11 15 8 -1 13 -10 20 -22 18 -27 -3 -4 0 -11 6 -15 8
-4 9 -3 5 4 -10 16 6 15 24 0 12 -11 12 -10 2 3 -6 9 -9 19 -5 22 7 8 -16 37
-29 37 -6 0 -4 -8 3 -17 13 -16 12 -17 -4 -4 -9 8 -15 16 -12 19 3 3 -1 12 -8
21 -6 9 4 4 24 -11 37 -28 59 -27 36 0 -10 13 -8 14 15 10 20 -4 25 -2 20 10
-4 11 -2 13 9 7 11 -7 12 -6 2 7 -19 22 -3 31 21 11 12 -9 4 0 -16 20 -48 47
-38 47 21 0 40 -32 42 -33 19 -7 -32 34 -37 56 -10 47 9 -3 -11 14 -44 40 -34
25 -65 51 -70 59 -5 7 10 -2 33 -19 22 -18 44 -33 47 -33z m631 -58 c20 -14
44 -119 54 -236 6 -66 8 -122 6 -125 -3 -2 -5 6 -5 18 0 13 -4 19 -10 16 -6
-4 -8 -15 -5 -25 3 -9 1 -29 -4 -43 -7 -17 -7 -28 -1 -32 6 -4 10 -12 10 -18
0 -8 -3 -7 -9 2 -6 10 -11 5 -16 -18 -4 -18 -4 -35 -1 -38 3 -4 6 0 6 8 0 11
2 11 10 -1 11 -17 14 -37 3 -27 -3 4 -12 -1 -20 -11 -12 -16 -13 -16 -7 3 5
18 4 18 -6 2 -6 -9 -8 -22 -4 -29 4 -7 3 -8 -4 -4 -15 9 -16 -6 -2 -22 6 -6 7
-10 4 -7 -4 3 -14 -1 -23 -8 -14 -10 -14 -10 -4 4 7 9 10 19 7 22 -4 4 -15 -4
-26 -18 -29 -37 -64 -27 -48 15 1 3 2 8 2 12 -1 3 5 9 14 12 10 4 13 2 8 -6
-4 -6 -3 -8 3 -5 6 4 9 18 7 33 -2 19 1 24 12 20 18 -7 19 24 2 44 -7 8 -2 6
11 -5 14 -11 21 -14 17 -7 -4 7 -2 12 5 12 8 0 8 4 -1 15 -10 12 -10 15 1 15
11 0 11 2 -1 9 -8 6 -19 7 -25 5 -5 -3 -2 1 7 9 10 8 14 18 10 22 -4 5 -1 5 6
1 7 -4 10 -12 7 -17 -4 -5 -1 -9 5 -9 16 0 8 34 -10 42 -12 5 -12 7 2 7 21 1
20 30 -1 55 -8 9 -11 19 -7 23 3 3 6 2 6 -4 0 -6 7 -14 16 -17 11 -4 10 2 -7
25 l-21 30 21 6 c11 3 18 9 15 14 -3 5 1 9 8 9 7 1 2 7 -12 15 -14 8 -19 14
-10 15 10 0 7 5 -8 16 -22 15 -22 34 1 34 7 0 6 -4 -3 -11 -13 -9 -13 -10 1
-6 9 3 23 0 30 -6 11 -10 11 -9 0 5 -7 9 -10 22 -7 27 4 5 -2 15 -11 21 -16
10 -16 11 5 7 30 -7 28 -1 -5 17 -19 10 -23 15 -11 16 21 0 16 40 -7 53 -8 4
-13 12 -10 18 7 11 16 11 30 1z m-879 -351 c-3 -4 6 -19 19 -31 14 -13 25 -28
25 -34 0 -6 -5 -5 -12 2 -15 15 -32 16 -23 2 4 -6 8 -25 10 -42 3 -17 12 -39
22 -50 14 -15 15 -21 4 -27 -17 -11 -5 -67 17 -81 9 -5 12 -10 5 -10 -6 0 -20
11 -31 25 -23 29 -37 33 -27 8 4 -10 11 -30 15 -44 7 -23 5 -25 -14 -22 -20 4
-22 1 -20 -46 1 -28 -1 -51 -3 -51 -11 0 -33 74 -33 108 0 52 28 121 41 101
13 -21 9 54 -6 123 -9 40 -10 59 -2 67 13 13 20 14 13 2z"/>
<path d="M3052 2214 c13 -15 14 -21 3 -31 -7 -6 -17 -9 -21 -5 -5 4 -2 -1 5
-11 12 -15 12 -20 1 -30 -9 -9 -11 -9 -6 0 3 6 1 15 -5 19 -8 5 -9 3 -4 -6 6
-10 4 -12 -11 -6 -18 7 -18 6 -1 -11 14 -15 21 -16 37 -5 25 15 63 16 58 0 -2
-6 -11 -13 -19 -16 -11 -3 -11 -2 1 7 12 9 11 11 -8 11 -13 0 -20 -4 -17 -10
3 -5 -3 -10 -14 -10 -12 0 -21 -7 -21 -15 0 -8 -5 -15 -11 -15 -5 0 -7 6 -3
13 6 10 4 10 -7 0 -10 -10 -10 -16 -1 -25 7 -7 12 -15 12 -18 0 -11 -49 -10
-56 2 -5 7 0 9 14 6 14 -4 19 -2 15 7 -3 10 -11 11 -35 3 -20 -7 -26 -13 -18
-18 7 -4 10 -12 6 -18 -3 -5 3 -12 14 -15 13 -3 18 -1 13 5 -3 6 -1 8 4 5 6
-4 13 -16 16 -27 3 -11 1 -18 -4 -14 -5 3 -9 1 -9 -5 0 -5 5 -13 11 -16 12 -8
51 29 41 39 -3 4 1 4 11 0 9 -3 17 -2 17 4 0 6 -6 13 -12 15 -8 4 -9 6 -2 6 6
1 17 -5 23 -13 10 -12 8 -16 -10 -21 -15 -5 -18 -9 -9 -15 19 -12 52 20 38 37
-8 10 -7 21 2 41 8 15 14 31 14 35 1 4 6 11 12 15 6 4 14 24 17 45 6 37 5 39
-18 33 -16 -4 -28 -1 -37 12 -7 10 -20 22 -28 27 -12 7 -11 4 2 -11z"/>
<path d="M3477 3556 c-120 -17 -216 -33 -214 -36 3 -3 -13 -4 -36 -3 -35 2
-38 1 -17 -7 18 -6 6 -8 -40 -5 -48 3 -58 2 -40 -5 19 -7 10 -8 -35 -5 -42 3
-53 2 -35 -4 21 -7 21 -9 5 -9 -11 -1 -38 3 -60 7 -39 7 -39 7 28 15 37 4 67
11 67 15 0 9 -50 13 -64 4 -6 -5 -20 -9 -31 -10 -11 -1 -54 -7 -95 -14 -75
-13 -75 -14 -35 -21 22 -5 58 -10 80 -13 37 -4 37 -3 -10 9 -40 11 -44 14 -21
15 16 1 45 -4 66 -10 29 -9 72 -7 206 10 312 40 479 62 502 67 23 5 32 35 10
33 -7 -1 -111 -16 -231 -33z"/>
<path d="M380 3519 c-64 -40 -89 -93 -88 -189 l1 -65 7 75 c8 85 27 129 68
158 25 18 31 19 60 7 57 -24 75 -75 98 -278 9 -81 19 -78 20 6 1 48 -2 65 -8
52 -5 -13 -7 -3 -3 29 3 28 9 52 14 55 4 4 11 13 14 21 3 10 6 6 7 -10 1 -14
2 -28 1 -32 0 -5 4 -8 10 -8 8 0 10 17 6 53 -4 40 -3 46 4 27 10 -24 8 -68 -4
-117 -6 -24 7 -32 17 -10 3 6 3 -10 0 -38 -4 -50 -4 -50 10 -20 l14 30 -2 -32
c-2 -18 0 -30 5 -28 4 3 10 -7 12 -22 2 -16 2 -1 0 32 -7 99 -24 188 -44 227
-43 85 -148 122 -219 77z"/>
<path d="M0 3444 c0 -19 5 -44 10 -54 16 -30 50 -245 40 -248 -6 -2 -3 -10 5
-19 20 -19 19 -31 -3 -36 -15 -4 -15 -5 0 -6 9 0 21 -13 26 -28 13 -36 14 -9
3 62 -9 50 3 78 22 52 6 -8 7 -4 4 11 -3 13 0 22 6 22 7 0 5 4 -3 10 -12 7
-13 15 -3 40 6 16 7 30 2 30 -5 0 -9 -6 -9 -12 0 -9 -3 -9 -9 1 -6 9 -5 21 2
33 11 17 12 17 19 0 6 -15 7 -15 7 2 2 35 12 9 17 -40 3 -27 8 -50 13 -52 4
-1 6 -17 4 -35 -4 -25 -2 -29 7 -17 9 12 10 9 8 -15 -1 -16 3 -39 10 -50 11
-18 12 -16 7 15 -34 222 -37 237 -63 280 -24 38 -89 89 -114 90 -5 0 -8 -16
-8 -36z"/>
<path d="M3610 3458 c-76 -8 -390 -42 -480 -52 -19 -2 -75 -6 -125 -10 -49 -4
-162 -16 -250 -26 l-160 -19 120 5 c66 2 183 11 260 18 77 8 276 27 443 43
222 20 302 31 302 40 0 7 -6 12 -12 12 -7 -1 -51 -6 -98 -11z"/>
<path d="M3425 3355 c-101 -7 -137 -13 -110 -17 22 -3 -8 -3 -67 -1 -60 3
-108 3 -108 0 0 -15 237 -28 400 -21 l180 7 0 23 c0 23 -3 24 -72 22 -40 0
-140 -6 -223 -13z"/>
<path d="M1960 3301 c-58 -10 -172 -28 -253 -41 -93 -14 -151 -28 -154 -36 -2
-7 -3 -23 -1 -36 l5 -23 11 25 11 25 1 -25 1 -25 11 25 c6 14 12 20 15 13 2
-7 11 -9 19 -6 9 3 14 -2 15 -13 0 -15 2 -16 7 -4 7 16 42 24 42 9 0 -5 7 -6
15 -3 12 5 15 -2 15 -29 0 -41 11 -51 46 -43 35 9 31 36 -6 36 -32 0 -36 6
-20 30 8 13 10 13 10 -2 0 -15 3 -15 26 -4 30 16 61 10 67 -13 4 -14 5 -14 6
1 1 10 9 16 21 15 15 -1 20 -9 21 -32 l2 -30 7 35 c4 19 8 29 9 21 1 -11 4
-11 16 -1 13 11 15 8 16 -16 1 -21 3 -23 6 -8 3 16 11 21 38 21 19 0 35 -5 35
-11 0 -6 5 -4 10 4 10 15 11 13 14 -29 2 -33 14 -34 21 -2 8 35 25 43 19 9
l-5 -23 10 22 c10 22 45 26 47 5 5 -41 7 -43 14 -12 6 29 8 30 9 10 1 -24 4
-26 37 -22 26 3 35 1 30 -7 -4 -6 -2 -11 3 -11 6 0 12 15 12 33 1 29 2 30 8 7
3 -14 12 -26 19 -28 8 -1 11 2 7 8 -3 5 -1 10 4 10 6 0 10 6 8 13 -1 9 23 12
98 10 148 -2 61 12 -230 37 -132 11 -287 24 -345 30 -58 5 -118 10 -135 11
-43 2 -24 6 230 49 121 21 207 38 190 38 -16 0 -77 -8 -135 -17z"/>
<path d="M3385 3251 c63 -7 56 -8 -62 -9 -198 -3 -170 -22 35 -24 l167 -2
-160 -6 c-118 -4 -136 -6 -69 -8 50 -1 166 -5 257 -9 l167 -6 0 31 c0 31 -1
32 -42 32 -24 0 -115 2 -203 4 -101 3 -134 1 -90 -3z"/>
<path d="M432 3188 c-7 -7 -12 -26 -12 -43 0 -28 -6 -34 -60 -60 -51 -24 -62
-34 -70 -64 -5 -20 -10 -48 -10 -63 0 -16 -2 -28 -5 -28 -3 0 -39 18 -79 40
-40 22 -81 40 -92 39 -18 -1 -18 -1 1 -8 11 -3 54 -24 95 -46 41 -22 78 -41
82 -43 3 -2 8 5 11 15 2 10 2 -8 -1 -39 -3 -41 -1 -58 7 -58 8 0 9 -5 2 -18
-6 -11 -8 -41 -6 -68 3 -40 -9 -297 -16 -341 -1 -7 -8 -13 -16 -13 -7 0 -13
-7 -13 -15 0 -8 5 -15 11 -15 6 0 3 -7 -5 -16 -18 -17 -21 -28 -7 -19 5 3 13
0 16 -5 5 -8 13 -6 25 5 12 11 20 13 25 5 5 -8 10 -8 20 0 10 8 15 8 21 -1 5
-8 3 -9 -6 -4 -9 5 -11 4 -6 -3 5 -8 13 -8 31 0 13 6 22 15 18 21 -4 6 -1 7 8
2 16 -11 48 -14 53 -6 2 3 22 6 44 5 l40 -1 -6 36 c-9 57 -8 64 8 69 12 4 13
3 3 -10 -10 -12 -10 -15 2 -15 8 0 15 6 15 13 0 21 15 24 39 8 14 -10 19 -20
13 -27 -7 -11 -8 -17 -3 -44 2 -16 60 -6 107 18 36 18 50 32 56 53 4 16 12 32
18 36 9 5 7 20 -4 54 -9 26 -16 54 -16 62 0 8 -4 12 -10 9 -5 -3 -9 2 -8 12 2
10 -1 38 -6 62 -6 32 -11 40 -18 30 -7 -10 -8 -7 -4 11 8 35 -14 116 -26 98
-7 -9 -8 -6 -4 12 3 13 -7 73 -22 133 -31 129 -51 157 -112 157 -35 0 -40 3
-40 23 -1 47 -57 76 -88 45z"/>
<path d="M760 2668 c6 -7 106 -61 261 -142 70 -37 117 -67 109 -70 -8 -2 -39
-10 -69 -15 -125 -26 -191 -43 -191 -51 0 -5 16 -18 35 -30 19 -12 35 -25 35
-29 0 -5 -37 -16 -82 -25 -46 -9 -176 -38 -291 -64 l-207 -48 -14 21 c-31 47
-44 54 -76 42 -20 -7 -25 -14 -17 -19 8 -5 7 -8 -5 -8 -9 0 -18 -3 -21 -7 -2
-5 -2 -2 -1 5 2 6 -4 12 -12 12 -9 0 -12 -5 -8 -12 5 -8 2 -9 -12 -3 -40 19
-194 -5 -194 -30 0 -8 7 -11 20 -8 11 3 20 1 20 -5 0 -6 10 -8 22 -5 14 3 19
1 12 -4 -6 -4 -16 -23 -22 -42 -10 -27 -10 -36 0 -43 10 -6 10 -8 1 -8 -7 0
-17 8 -22 18 -8 13 -10 14 -11 2 0 -13 -1 -13 -10 0 -8 12 -10 11 -10 -7 0
-16 4 -21 15 -17 8 4 15 1 15 -6 0 -6 5 -8 10 -5 6 3 10 0 10 -7 0 -8 5 -6 11
5 6 10 8 24 6 31 -4 9 3 12 21 9 24 -3 24 -2 7 6 -11 5 -14 10 -7 10 6 1 12
10 12 20 0 11 5 23 10 26 6 3 10 1 10 -4 0 -6 5 -11 11 -11 5 0 8 4 5 9 -5 8
53 25 61 18 6 -6 -42 -57 -54 -57 -7 0 -9 -13 -6 -35 4 -30 -1 -42 -36 -84
-23 -27 -41 -59 -41 -71 l0 -22 20 23 20 24 -13 -27 c-6 -16 -16 -28 -20 -28
-5 0 -5 -4 -2 -10 5 -9 -1 -12 -21 -9 -3 0 -14 -10 -25 -22 -21 -25 -26 -54
-6 -43 9 6 9 4 -1 -7 -6 -7 -12 -23 -12 -36 0 -22 1 -22 31 9 l31 33 -31 -40
c-25 -32 -31 -49 -31 -89 0 -45 1 -48 14 -31 8 11 12 24 9 30 -4 5 -2 6 2 2 5
-4 10 -15 11 -23 1 -9 0 -13 -3 -10 -10 9 -32 -27 -33 -52 0 -16 4 -21 13 -16
7 5 6 0 -3 -11 -12 -15 -12 -17 -1 -10 11 6 12 5 5 -6 -11 -17 -12 -179 -1
-172 4 2 5 8 2 13 -3 5 -1 11 4 15 10 6 6 -33 -4 -43 -2 -3 0 -11 6 -19 6 -7
8 -13 3 -13 -4 0 1 -7 12 -15 10 -8 24 -14 29 -14 6 0 2 4 -8 10 -13 8 -15 14
-7 30 6 11 15 17 19 14 5 -2 15 3 22 12 10 12 10 14 2 9 -7 -4 -13 -3 -13 2 0
14 26 33 34 25 4 -4 4 0 0 10 -3 9 -10 15 -14 12 -5 -3 -11 -1 -15 5 -4 6 -10
8 -15 5 -21 -13 -18 16 6 44 14 17 22 35 19 41 -4 6 -1 18 7 27 7 9 12 18 11
20 -9 11 -1 13 12 3 19 -16 20 -6 0 13 -13 13 -13 16 1 21 8 3 12 2 9 -4 -3
-6 -1 -10 4 -10 6 0 11 5 11 12 0 6 3 8 6 5 4 -4 3 -12 -2 -19 -12 -17 -12
-54 1 -50 6 2 9 11 7 20 -2 14 -1 15 7 2 6 -9 6 -18 0 -26 -7 -8 -6 -15 2 -19
6 -4 15 -1 20 6 6 10 9 11 9 2 0 -7 3 -12 8 -10 4 1 8 -1 10 -6 5 -16 1 -19
-12 -8 -10 8 -16 9 -21 1 -3 -5 -1 -10 5 -10 6 0 9 -4 6 -9 -3 -5 1 -14 9 -21
14 -12 19 -7 16 13 -1 5 3 6 9 2 8 -5 7 -11 -1 -21 -9 -12 -15 -12 -27 -2 -8
7 -17 12 -19 10 -3 -2 -8 0 -11 4 -4 4 -1 4 6 0 10 -6 10 -2 0 19 -7 15 -14
22 -16 16 -2 -6 -8 -9 -12 -6 -5 3 -6 13 -3 23 4 13 2 13 -10 -3 -12 -14 -16
-16 -17 -6 0 8 -3 11 -6 8 -4 -4 -1 -14 7 -24 8 -9 9 -14 3 -10 -7 4 -17 0
-24 -8 -7 -8 -16 -12 -21 -9 -5 3 -9 1 -9 -4 0 -16 13 -22 27 -11 7 6 13 8 13
3 0 -4 6 1 14 11 15 21 49 30 43 12 -2 -7 -9 -12 -15 -12 -7 0 -11 -3 -9 -6 1
-3 -4 -13 -11 -21 -7 -9 -10 -23 -6 -32 3 -9 1 -16 -4 -16 -6 0 -12 -12 -14
-27 -2 -16 -8 -28 -15 -28 -6 0 -15 -4 -20 -9 -4 -5 -3 -6 4 -2 6 3 14 2 18
-4 4 -6 11 -7 17 -4 7 5 9 0 6 -14 -4 -12 -2 -20 3 -16 5 3 9 12 9 20 0 8 5
12 10 9 6 -3 10 -1 10 6 0 7 7 4 15 -7 13 -16 14 -16 9 -1 -3 9 -3 24 0 33 5
13 9 14 20 5 10 -8 16 -9 21 -1 3 6 10 8 15 5 5 -3 11 -2 14 3 2 4 -5 9 -17 9
-12 1 -34 5 -50 9 -21 5 -27 3 -27 -10 0 -9 -5 -16 -11 -16 -5 0 -7 -4 -4 -10
3 -5 -1 -10 -10 -10 -12 0 -14 4 -6 19 6 10 7 22 3 26 -4 5 -2 5 5 1 18 -10
26 13 11 32 -12 15 -11 16 4 4 11 -9 18 -10 23 -2 3 6 11 7 17 4 7 -4 8 -2 4
5 -4 6 -12 8 -18 5 -6 -4 -8 -2 -5 4 4 5 15 9 25 7 9 -2 19 -4 21 -4 2 -1 -4
-10 -14 -21 -10 -11 -16 -20 -14 -21 2 -1 16 -2 31 -3 22 -2 25 1 22 18 -2 12
5 32 16 46 13 17 20 20 20 10 1 -11 4 -10 15 4 8 11 15 15 15 9 0 -7 -5 -15
-10 -18 -6 -4 -7 -12 -3 -18 4 -7 0 -6 -10 2 -9 7 -17 12 -18 10 0 -2 -2 -17
-4 -34 -3 -24 -2 -27 6 -12 6 9 15 15 20 11 5 -3 17 0 25 7 12 10 13 9 8 -5
-9 -25 2 -19 21 11 15 22 15 25 2 20 -10 -4 -14 0 -13 10 2 9 10 17 19 19 10
1 14 -3 10 -14 -5 -11 -3 -13 8 -7 8 4 11 5 7 0 -4 -4 -3 -14 3 -21 7 -8 7
-14 -1 -19 -6 -4 -9 -2 -8 3 2 6 -1 9 -7 9 -5 -1 -9 -5 -8 -9 2 -5 -2 -8 -8
-8 -5 0 -7 -5 -4 -10 4 -6 11 -7 17 -4 7 4 8 2 4 -4 -4 -7 -2 -12 3 -12 6 0
11 5 11 10 0 18 20 11 21 -7 0 -15 2 -15 8 2 5 12 4 26 -3 34 -8 10 -8 13 0 8
6 -3 20 1 30 9 10 9 12 12 4 8 -8 -4 -12 -3 -7 1 4 5 17 10 28 12 17 3 20 -1
16 -17 -3 -11 -2 -18 3 -15 6 4 25 -92 20 -104 -1 -2 2 -7 7 -10 5 -3 16 -33
25 -66 9 -33 63 -237 122 -454 58 -217 106 -399 106 -405 0 -7 -58 -26 -129
-44 -71 -18 -158 -41 -194 -51 l-66 -19 -4 21 c-4 22 -4 22 -6 0 0 -13 -4 -23
-8 -24 -5 0 -15 -2 -23 -4 -8 -2 -24 -6 -35 -9 -11 -2 -31 -9 -45 -14 -14 -5
-27 -10 -30 -10 -3 0 -25 -5 -49 -12 -23 -6 -49 -9 -57 -6 -8 3 -14 1 -14 -4
0 -5 -21 -16 -47 -24 l-48 -15 43 5 c34 5 42 3 42 -10 0 -9 -15 -19 -40 -26
-49 -13 -53 -23 -5 -14 37 7 43 -3 29 -41 -6 -13 -9 -14 -16 -3 -7 9 -8 5 -5
-14 2 -15 0 -25 -4 -22 -5 3 -9 0 -9 -5 0 -6 -7 -11 -15 -11 -8 0 -15 -4 -15
-10 0 -5 7 -10 16 -10 8 0 12 -4 9 -10 -3 -5 -2 -10 4 -10 5 0 12 8 14 18 4
16 5 16 6 0 2 -26 29 -22 34 5 l4 22 2 -22 c1 -31 21 -29 21 1 0 27 7 31 85
45 l50 9 -25 -20 -24 -20 37 7 c25 5 37 4 37 -4 0 -6 -5 -11 -11 -11 -6 0 -4
-7 5 -15 8 -8 22 -15 30 -15 13 0 16 13 16 67 0 36 3 63 7 60 4 -4 6 -35 5
-70 -1 -43 1 -57 8 -47 6 10 10 11 10 3 0 -7 7 -13 16 -13 15 0 16 14 12 135
l-5 135 31 8 c206 57 357 94 361 90 10 -10 74 -262 68 -271 -2 -4 -12 -7 -21
-6 -10 1 -25 -1 -35 -6 -10 -4 -82 -25 -160 -45 -78 -21 -133 -39 -122 -39 11
-1 86 17 168 38 81 22 147 35 147 30 0 -5 5 -9 11 -9 5 0 8 4 5 9 -3 5 1 12 9
15 13 5 14 2 5 -15 -9 -16 -18 -19 -38 -14 -23 5 -29 1 -38 -23 l-11 -29 88
-1 c49 -1 89 1 89 4 0 2 -11 27 -25 54 -18 35 -29 48 -40 44 -8 -4 -15 -4 -15
-2 0 2 -36 141 -80 308 -44 168 -109 418 -145 555 -36 138 -72 270 -80 295 -8
25 -26 90 -40 145 -14 57 -33 105 -42 113 -15 11 -15 12 5 12 13 0 22 6 22 14
0 9 -7 13 -20 11 -30 -6 -41 -15 -34 -27 5 -7 2 -8 -7 -2 -23 14 -49 15 -49 1
0 -8 -4 -7 -10 3 -8 13 -10 13 -10 0 0 -11 -3 -11 -12 -2 -18 18 -31 15 -24
-5 5 -16 4 -16 -7 -3 -6 8 -19 16 -27 18 -36 8 -49 52 -26 86 7 12 16 31 18
41 2 11 8 -5 12 -35 7 -46 10 -51 16 -30 6 23 7 23 12 5 3 -11 3 0 2 25 l-3
45 13 -50 13 -50 7 53 c5 29 5 56 2 59 -3 4 -6 -9 -6 -27 0 -18 -3 -31 -6 -28
-3 4 -2 33 2 65 l7 58 14 -59 c9 -41 10 -63 3 -70 -5 -5 -9 -19 -9 -31 1 -16
2 -17 6 -2 6 22 23 22 23 0 0 -9 2 -14 5 -11 4 4 -7 84 -21 148 -3 14 -2 22 2
18 3 -4 12 -36 19 -70 7 -35 13 -53 14 -40 0 13 5 21 10 18 5 -3 12 2 15 11 4
9 1 20 -5 24 -7 4 -9 16 -6 28 3 12 1 24 -4 27 -12 7 -11 34 1 34 6 0 10 -10
11 -22 0 -22 1 -22 9 -3 6 14 8 6 4 -25 -3 -33 -2 -40 5 -25 7 14 8 6 4 -30
-3 -27 -2 -47 2 -43 11 11 14 142 2 149 -12 8 -14 114 -3 149 6 20 5 22 -4 10
-10 -13 -11 -12 -7 5 3 11 8 29 13 39 6 15 4 17 -7 11 -11 -7 -11 -5 1 10 9
11 10 16 3 11 -16 -9 -17 17 -3 45 12 22 1 25 -20 7 -10 -9 -9 -6 2 12 20 32
83 49 104 28 13 -12 13 -24 -1 -87 -16 -75 -20 -153 -8 -164 3 -4 11 -3 17 2
6 6 59 24 116 40 97 29 96 31 -2 11 -33 -6 -37 -5 -41 14 -4 18 -4 17 -6 -4
-1 -19 -9 -28 -36 -36 -19 -6 -37 -9 -40 -6 -9 9 -5 50 10 109 18 69 19 130 3
135 -7 3 83 28 201 58 l213 53 25 -25 25 -25 -23 -1 c-37 0 -393 -92 -404
-104 -7 -8 -5 -9 8 -5 9 4 17 2 17 -4 0 -6 6 -9 13 -6 7 3 13 -3 14 -13 1 -13
-8 -21 -28 -25 -17 -4 -28 -9 -26 -12 3 -2 33 3 68 12 35 9 73 18 84 20 11 1
31 7 45 12 14 5 67 20 118 33 92 24 120 22 129 -7 2 -5 -99 -36 -227 -68 -127
-32 -233 -61 -235 -65 -3 -4 4 -10 15 -13 11 -3 20 -2 20 3 0 4 9 10 20 13 11
3 20 0 20 -6 0 -9 2 -9 8 0 10 16 62 35 62 23 0 -6 -4 -10 -10 -10 -5 0 -10
-5 -10 -11 0 -8 4 -9 13 0 8 6 18 7 22 3 5 -4 5 1 2 11 -4 11 -1 17 9 17 9 0
13 -5 9 -12 -4 -7 1 -4 9 6 15 18 16 18 16 2 0 -10 5 -14 11 -11 6 4 8 13 5
20 -5 13 18 15 30 2 4 -3 14 -2 24 3 10 5 33 8 52 7 29 -3 61 12 55 25 -1 2 4
-3 11 -11 8 -11 12 -11 12 -2 0 7 5 9 10 6 6 -3 10 2 10 12 0 11 3 14 8 7 10
-15 44 -14 38 1 -2 7 1 18 7 24 14 14 -28 61 -54 61 -10 0 -58 -11 -108 -24
-82 -22 -91 -23 -91 -8 0 9 5 24 11 32 9 13 10 12 5 -2 -3 -10 0 -20 6 -24 7
-4 8 -3 4 4 -4 7 -2 12 4 12 6 0 8 5 4 12 -5 7 -3 8 7 2 18 -11 52 -6 61 10 6
8 8 7 8 -2 0 -8 5 -10 12 -6 6 4 32 8 57 9 43 1 46 3 48 31 2 20 -4 34 -19 46
-18 13 -21 25 -19 66 2 42 -1 53 -18 64 -26 16 -27 23 -1 25 13 1 18 -2 13
-10 -3 -7 3 -4 14 6 15 13 23 15 28 7 4 -6 14 -9 22 -6 8 3 11 1 8 -4 -3 -6
-1 -10 4 -10 6 0 11 6 11 14 0 7 10 16 23 19 20 5 20 5 5 -7 -10 -7 -18 -23
-18 -34 0 -25 38 -40 52 -21 7 11 8 9 4 -4 -3 -10 -6 -21 -6 -23 0 -2 -16 3
-36 11 -41 17 -67 20 -44 5 13 -8 12 -10 -2 -10 -10 0 -18 6 -18 13 0 6 -5 4
-11 -6 -13 -22 -2 -40 22 -34 10 3 20 0 23 -7 3 -7 8 -6 15 4 9 13 11 13 11
-2 0 -22 16 -24 24 -3 3 8 11 15 17 15 8 0 7 -5 -2 -17 -10 -14 -10 -15 0 -7
18 16 50 6 48 -16 -1 -10 -5 -16 -9 -14 -4 3 -8 0 -8 -5 0 -6 9 -11 21 -11 20
0 21 4 18 85 -3 51 0 87 6 89 6 3 4 5 -2 5 -7 1 -13 14 -13 29 0 16 -8 36 -17
44 -32 28 -413 228 -393 206z m90 -438 c-8 -15 -309 -97 -340 -93 -29 4 -75
-17 -111 -51 -32 -31 -36 -32 -46 -17 -8 12 -8 22 -1 32 8 11 8 9 4 -6 -6 -20
-6 -20 9 -1 10 13 13 31 9 58 -6 34 -4 38 14 38 11 0 23 -6 25 -12 3 -7 6 -4
6 6 1 11 4 17 7 13 3 -3 17 -2 30 3 17 7 24 6 24 -2 0 -7 7 -3 15 8 14 19 14
19 15 0 0 -20 0 -20 16 0 8 10 13 14 10 9 -2 -6 -1 -17 5 -25 6 -11 9 -8 9 13
0 22 5 27 25 28 50 3 60 4 73 13 8 4 20 2 29 -6 15 -11 16 -11 10 7 -6 17 -5
18 6 5 16 -20 38 -24 31 -6 -3 8 -1 16 4 19 15 10 63 16 57 8 -2 -5 4 -16 14
-25 18 -17 20 -17 31 4 11 20 10 21 -9 11 -17 -10 -20 -9 -15 4 3 8 10 12 15
9 5 -3 9 1 9 8 1 7 7 2 14 -12 9 -15 11 -31 6 -40z"/>
<path d="M1340 2096 c-77 -26 -92 -38 -86 -67 3 -14 1 -30 -4 -35 -4 -5 -15
-31 -23 -59 -9 -27 -16 -41 -16 -30 -1 15 -3 17 -13 7 -8 -8 -13 -42 -13 -92
0 -56 -3 -74 -10 -62 -5 9 -8 43 -6 76 3 64 -6 67 -40 12 l-19 -31 0 35 c0 23
-3 30 -9 22 -7 -11 -9 -11 -14 2 -4 10 1 20 13 26 11 6 20 18 19 28 0 10 -3
12 -6 4 -2 -6 -9 -10 -13 -7 -11 7 -53 -64 -76 -125 -18 -49 -29 -310 -13
-310 5 0 9 -6 9 -14 0 -8 9 -17 19 -21 12 -4 17 -12 14 -24 -2 -10 1 -37 7
-60 9 -33 14 -40 24 -32 7 6 16 8 19 4 4 -3 7 3 7 15 0 30 19 37 29 10 6 -13
10 -17 10 -9 1 7 7 11 16 7 8 -3 15 -1 15 5 0 6 7 8 16 5 12 -5 15 -2 10 11
-4 10 -4 14 0 10 4 -4 13 1 21 11 13 16 14 15 10 -6 -3 -14 -1 -20 6 -15 7 4
8 0 4 -11 -4 -10 -7 -21 -7 -24 0 -4 -5 0 -10 8 -9 13 -11 13 -20 0 -5 -8 -10
-10 -10 -5 0 6 -7 1 -15 -9 -11 -14 -15 -16 -15 -5 -1 10 -4 10 -14 -4 -11
-14 -15 -15 -19 -5 -4 11 -6 11 -6 0 -1 -7 -5 -10 -11 -7 -5 3 -27 1 -47 -4
-21 -6 -47 -12 -58 -14 -11 -2 -27 -7 -35 -10 -56 -23 -336 -94 -338 -86 -2 5
-8 6 -14 3 -6 -4 -8 -1 -6 7 3 8 1 22 -3 31 -7 12 -4 18 9 21 149 40 221 61
218 64 -2 2 -55 -10 -117 -26 -63 -17 -116 -31 -119 -31 -3 0 -6 13 -7 28 -2
27 0 29 94 53 53 13 88 26 78 27 -15 3 -60 -7 -157 -34 -11 -3 -22 5 -32 25
l-16 30 75 16 c41 10 75 21 75 26 0 4 -7 6 -17 2 -14 -5 -15 -1 -10 35 3 24 1
40 -4 36 -5 -3 -9 0 -9 6 0 6 -4 8 -10 5 -6 -3 -10 -2 -10 4 0 7 -8 7 -24 1
-24 -9 -24 -8 -20 28 l4 37 -10 -35 c-5 -21 -5 -39 1 -45 14 -14 11 -22 -11
-28 -15 -4 -20 0 -21 16 -1 20 -2 20 -9 -3 -8 -25 -8 -25 -10 5 -1 26 -3 27
-10 10 -8 -19 -9 -19 -9 1 -1 12 6 25 15 28 14 5 16 16 11 62 -7 63 -2 66 13
8 l10 -39 -5 50 c-2 35 -1 44 5 30 6 -14 9 -2 7 41 -1 34 -5 60 -9 57 -5 -2
-8 1 -8 7 0 6 -4 8 -10 5 -5 -3 -10 0 -10 7 0 10 -2 10 -9 -1 -7 -11 -9 -11
-14 0 -4 9 -6 8 -6 -5 -1 -12 4 -16 14 -12 11 4 15 -2 14 -22 -1 -17 -3 -20
-6 -9 -2 9 -8 15 -13 12 -4 -2 -15 10 -24 28 -8 17 -16 26 -16 18 0 -11 -4 -9
-14 4 -8 11 -12 24 -9 29 4 5 1 6 -5 2 -6 -3 -12 -1 -15 6 -2 7 -1 0 1 -17 3
-16 7 -41 7 -55 1 -14 4 -32 8 -40 3 -8 8 -22 10 -30 3 -9 6 -4 7 10 0 22 2
23 11 7 8 -13 7 -22 -1 -32 -8 -9 -8 -23 -1 -47 l9 -33 2 30 c2 30 2 30 10 5
7 -22 8 -20 9 15 1 22 6 47 12 55 7 11 9 4 7 -27 -1 -23 1 -45 5 -49 4 -4 6
-19 6 -33 -1 -25 -2 -25 -9 4 -7 28 -8 28 -9 5 -2 -46 -13 -73 -22 -58 -7 10
-9 11 -9 0 0 -7 -5 -10 -11 -6 -7 4 -10 1 -7 -7 3 -8 13 -12 23 -11 15 3 17 1
7 -11 -6 -7 -9 -17 -5 -20 3 -4 1 -7 -5 -7 -19 0 -14 -18 5 -23 16 -4 15 -5
-1 -6 -20 -1 -20 -1 0 -17 10 -8 12 -12 4 -8 -10 5 -8 -1 5 -15 14 -16 15 -22
5 -19 -20 4 -14 -32 8 -50 10 -7 11 -10 4 -7 -11 6 -11 3 -1 -13 7 -12 16 -19
20 -17 3 3 4 -7 1 -22 -3 -18 -1 -24 7 -19 7 5 11 0 11 -13 0 -10 6 -22 13
-24 7 -3 8 -6 1 -6 -11 -1 -9 -39 3 -71 4 -8 5 -18 5 -22 -1 -5 2 -8 8 -8 5 0
7 -7 4 -15 -4 -8 1 -17 9 -21 9 -3 13 -12 11 -19 -3 -7 -1 -16 5 -19 6 -4 8
-13 5 -21 -3 -7 0 -24 7 -37 7 -13 14 -30 15 -38 4 -27 16 -101 18 -113 2 -7
8 -25 15 -41 6 -16 15 -50 18 -75 4 -25 13 -52 22 -59 12 -11 13 -12 1 -6 -13
7 -13 5 -2 -8 13 -16 23 -49 25 -80 1 -10 5 -18 9 -18 4 0 8 -7 8 -15 0 -8 4
-15 9 -15 5 0 8 -12 6 -28 -2 -15 0 -31 3 -37 4 -5 7 -12 7 -15 5 -33 18 -70
25 -70 5 0 7 -6 4 -14 -3 -8 0 -17 6 -21 9 -5 9 -9 1 -14 -8 -5 -5 -13 7 -27
9 -10 16 -30 14 -43 -3 -16 0 -21 9 -15 9 5 10 2 6 -11 -4 -9 -3 -23 2 -29 7
-9 18 -52 23 -93 1 -7 5 -13 10 -13 4 0 8 -9 8 -20 0 -11 4 -20 10 -20 5 0 12
-11 16 -25 8 -34 22 -32 16 3 -4 29 -3 29 110 60 293 82 335 93 358 95 14 2
31 6 38 11 7 4 12 4 11 -1 -1 -4 -1 -15 0 -23 1 -13 3 -13 10 0 6 8 8 17 6 21
-3 3 7 4 20 1 25 -4 31 -17 17 -38 -12 -19 -345 -110 -350 -95 -3 9 -7 8 -16
-3 -6 -8 -38 -24 -71 -35 -33 -11 -50 -20 -39 -21 12 0 55 11 95 24 82 26 356
105 390 111 17 3 20 0 16 -15 -3 -12 -1 -18 5 -14 6 4 8 -1 4 -13 -7 -22 19
-93 34 -93 6 0 10 6 10 13 0 8 4 7 10 -3 8 -11 9 -7 4 15 -3 17 -7 36 -10 43
-2 6 1 12 7 12 6 0 13 -9 16 -21 4 -14 8 -17 13 -9 5 8 11 0 18 -19 6 -17 16
-31 23 -31 6 0 9 6 6 13 -3 6 -24 60 -48 120 -23 59 -44 106 -45 104 -4 -3 11
-66 22 -92 7 -18 6 -18 -9 -6 -9 7 -18 25 -18 40 -2 22 -2 23 -6 4 -2 -12 -11
-24 -19 -27 -8 -3 -13 -2 -9 3 3 5 0 11 -7 13 -7 3 -9 11 -4 24 8 19 8 19 15
0 6 -16 10 -11 19 24 6 25 9 46 6 49 -2 2 -4 -1 -4 -8 0 -7 -4 -9 -10 -6 -33
20 -2 31 299 111 101 26 179 50 173 52 -6 2 -54 -8 -107 -22 -53 -14 -100 -26
-105 -26 -4 0 -11 12 -15 27 -10 40 -44 93 -60 93 -26 0 -40 -36 -36 -86 2
-27 6 -43 8 -36 3 6 11 12 19 12 10 0 12 5 8 13 -5 8 -2 8 9 -2 9 -7 18 -11
18 -7 1 3 3 11 4 16 1 6 3 13 4 18 2 12 21 -22 21 -39 0 -9 -10 -19 -22 -22
-13 -2 -66 -16 -118 -31 -72 -20 -96 -23 -102 -13 -5 8 -8 6 -8 -8 -1 -19 -1
-19 -14 -2 -9 12 -16 14 -21 8 -3 -6 -3 -11 2 -11 4 0 16 -13 25 -30 16 -28
16 -29 -3 -35 -10 -4 -23 -4 -28 -1 -5 4 -11 3 -13 -2 -3 -7 -540 -157 -562
-157 -5 0 -12 10 -17 22 -7 19 -4 24 24 31 367 103 446 126 443 129 -4 5 -44
-6 -318 -83 -86 -24 -159 -44 -162 -44 -3 0 -6 12 -6 28 0 27 2 28 203 85 111
31 220 58 242 59 22 0 46 5 53 11 8 6 12 5 12 -4 0 -9 3 -10 8 -4 8 11 54 16
47 5 -3 -4 11 0 30 9 39 18 44 40 16 79 -10 15 -21 49 -25 76 -3 27 -11 55
-17 63 -7 7 -15 33 -20 58 -5 25 -20 62 -34 82 -14 21 -25 50 -25 66 0 15 -11
44 -24 65 -13 20 -27 59 -30 87 -3 27 -15 62 -26 77 -12 17 -20 43 -20 68 0
22 -7 52 -16 65 -9 14 -17 44 -18 68 -1 24 -10 56 -22 72 -15 23 -18 39 -13
65 3 19 7 29 8 22 0 -8 7 -12 14 -9 6 2 11 9 10 15 -1 5 4 13 13 16 12 5 14
-3 11 -44 -2 -28 -1 -50 4 -50 4 0 10 -8 12 -17 4 -14 5 -12 6 5 0 12 5 22 10
22 14 0 23 -18 11 -22 -6 -2 -12 -24 -13 -49 -2 -41 0 -45 15 -35 10 6 13 13
8 16 -11 7 -7 37 7 51 9 9 12 4 11 -19 -1 -17 4 -37 9 -44 6 -7 14 -34 17 -61
4 -26 11 -45 17 -42 5 4 9 -2 9 -12 0 -11 6 -25 13 -32 10 -11 9 -12 -3 -6
-13 8 -13 7 -1 -8 9 -12 17 -14 26 -7 14 12 17 -18 4 -36 -11 -14 9 -41 41
-57 17 -8 25 -21 25 -37 0 -28 13 -53 24 -46 4 3 8 -4 8 -15 1 -10 -3 -19 -9
-19 -7 0 -6 -5 1 -14 7 -8 13 -39 14 -68 2 -46 5 -53 24 -56 18 -3 20 -7 13
-31 -4 -15 -5 -48 -3 -72 8 -67 33 -200 29 -151 -3 28 -1 40 7 35 7 -4 8 5 4
28 -5 26 -4 30 4 19 8 -12 9 -8 4 13 -4 21 -2 28 7 24 7 -2 12 -10 11 -16 -2
-6 0 -11 5 -11 4 0 8 -19 9 -41 0 -23 7 -46 13 -53 10 -8 11 6 6 67 -7 95 -24
157 -50 178 -18 15 -18 16 20 26 21 6 100 27 174 47 74 20 154 41 178 48 23 6
41 13 38 15 -4 4 -231 -51 -375 -91 -51 -15 -94 -26 -96 -24 -1 2 -6 66 -9
144 l-7 141 80 20 81 21 0 -39 c0 -22 1 -39 3 -39 10 0 341 91 345 95 9 9 -14
6 -48 -6 -25 -9 -41 -9 -67 0 -29 11 -40 10 -69 -4 -19 -9 -32 -20 -29 -25 6
-9 -18 -17 -60 -21 -30 -3 -55 11 -55 30 0 9 -9 22 -20 29 -11 7 -20 21 -20
31 0 10 -7 24 -15 31 -8 7 -15 20 -15 29 0 9 -4 21 -8 26 -4 6 -14 28 -21 50
-16 52 -51 132 -80 185 -5 8 -14 33 -21 55 -7 22 -15 47 -18 55 -5 13 -3 13
11 1 10 -8 15 -16 13 -19 -5 -4 31 -82 38 -82 2 0 1 12 -1 28 -4 22 -1 20 16
-13 10 -22 20 -36 20 -32 1 5 -4 17 -9 28 -6 11 -7 19 -1 19 12 0 22 -44 15
-67 -4 -11 -3 -14 3 -7 4 6 17 14 28 17 15 5 24 -1 38 -24 10 -19 23 -29 31
-26 10 4 12 -1 8 -16 -3 -12 -1 -19 3 -14 5 4 17 -1 27 -10 18 -16 19 -16 8
11 -6 16 -9 31 -6 33 2 3 7 -5 11 -16 3 -12 11 -19 16 -16 12 8 11 -2 -2 -27
-7 -13 -7 -18 -1 -14 6 3 18 -2 28 -11 16 -16 16 -16 10 3 -4 15 -2 21 9 21 9
0 14 -6 11 -14 -3 -7 5 -18 17 -23 20 -10 20 -10 5 3 -17 13 -17 15 2 37 l20
24 -27 28 c-27 28 -39 36 -28 18 3 -5 -1 -10 -9 -10 -8 0 -20 8 -25 18 -6 9
-11 13 -11 7 0 -5 -4 -5 -8 2 -4 6 -14 13 -22 15 -8 2 -28 16 -43 31 -28 28
-29 28 -23 5 6 -19 4 -18 -9 5 -9 16 -14 34 -12 41 3 7 0 13 -7 13 -7 0 -11
-12 -9 -31 l2 -31 -11 34 c-8 23 -22 38 -44 47 -17 7 -34 20 -37 29 -4 8 -15
15 -26 15 -10 0 -40 20 -65 45 -45 45 -63 71 -29 44 15 -13 15 -12 3 8 -8 12
-21 20 -32 18 -9 -2 -20 0 -23 5 -3 5 4 7 15 5 23 -4 24 -1 9 27 -6 12 5 5 25
-16 20 -20 41 -36 46 -36 6 0 9 -3 8 -7 -4 -14 23 -53 36 -53 8 0 20 -10 28
-22 28 -41 15 13 -14 63 -14 24 -24 48 -21 53 4 5 15 -8 25 -28 11 -22 23 -34
30 -30 7 4 8 3 4 -4 -10 -16 6 -15 24 0 13 11 13 11 3 -1 -9 -11 -8 -22 7 -52
21 -40 40 -58 40 -38 0 6 -9 28 -21 48 l-21 36 21 -24 c33 -36 37 -3 7 56 -13
27 -21 55 -17 61 5 9 11 4 19 -13 7 -14 12 -30 12 -35 0 -13 61 -110 88 -138
24 -28 30 -17 7 14 -17 22 -19 34 -6 34 5 0 13 -9 16 -20 4 -11 11 -18 16 -15
5 4 14 -5 20 -19 12 -26 35 -25 25 1 -3 8 -2 11 3 8 5 -3 15 -21 21 -41 l12
-36 19 28 c11 16 17 38 15 49 -4 18 -4 18 7 4 10 -13 12 1 15 74 2 96 10 114
76 185 16 17 24 32 18 32 -22 0 -92 -40 -92 -52 0 -6 -3 -8 -6 -5 -4 4 1 18
10 31 19 30 21 40 4 30 -7 -5 -8 -3 -3 6 13 20 -16 30 -42 13 -21 -14 -23 -14
-23 2 0 9 4 25 10 35 12 23 -15 36 -38 18 -13 -11 -14 -10 -8 8 8 26 -12 37
-35 20 -20 -14 -49 -69 -49 -92 0 -10 -3 -14 -7 -10 -4 3 -12 -6 -19 -21 l-12
-28 0 25 c-1 24 16 75 17 55 1 -14 50 67 51 83 0 7 -6 12 -12 10 -7 -1 -22 3
-34 9 -13 8 -33 9 -56 4 -31 -7 -36 -6 -30 7 4 12 1 14 -12 9 -13 -5 -17 -3
-13 7 5 13 -11 26 -32 26 -11 0 -31 -47 -31 -70 0 -11 -4 -20 -9 -20 -5 0 -12
-10 -16 -22 -7 -22 -7 -22 -12 -3 -3 11 -11 25 -19 32 -10 7 -12 13 -5 18 6 3
11 3 11 -1 0 -4 9 4 20 17 11 13 24 29 30 36 7 8 1 18 -19 32 l-29 21 -30 -25
-29 -25 4 40 c5 40 5 40 -22 30 -14 -5 -35 -15 -46 -20 -22 -12 -24 -7 -8 22
6 11 7 24 2 29 -9 9 -91 -8 -110 -24 -7 -5 -13 -6 -13 -1 0 12 16 36 21 33 2
-1 20 3 39 9 19 6 44 13 55 15 11 2 28 7 38 12 18 7 56 4 92 -9 20 -8 20 -7 1
8 -24 19 -113 20 -166 2z m-47 -148 c7 -24 -3 -41 -10 -20 -3 6 -8 12 -13 12
-11 0 -18 -89 -7 -93 4 -1 9 -22 11 -47 3 -51 32 -113 76 -164 17 -18 30 -38
30 -43 0 -17 -40 -58 -40 -42 -1 8 -8 2 -16 -13 -8 -16 -17 -28 -20 -28 -3 0
-2 5 1 10 3 6 2 10 -3 10 -5 0 -12 -9 -15 -20 -3 -11 -9 -20 -14 -19 -4 1 -21
-4 -38 -11 -36 -15 -75 -21 -75 -11 0 4 9 17 21 29 11 12 17 27 13 34 -5 8 -2
9 9 5 24 -9 31 11 13 38 -9 14 -14 25 -10 25 4 0 0 8 -7 18 -13 15 -12 16 3 3
10 -7 16 -17 13 -21 -2 -4 7 -18 20 -30 28 -26 33 -16 9 18 -8 12 -12 22 -8
22 3 0 0 8 -7 18 -11 14 -10 13 9 -2 12 -11 22 -25 22 -32 0 -20 16 -25 29
-10 9 11 9 16 0 22 -8 5 -9 3 -4 -6 5 -8 4 -11 -3 -6 -6 4 -10 12 -8 19 1 7 1
9 -1 4 -6 -9 -23 1 -23 13 0 14 28 5 52 -17 13 -11 32 -23 43 -27 19 -7 19 -6
-1 16 -12 13 -39 61 -60 108 -34 76 -38 93 -36 158 1 67 12 102 32 102 4 0 10
-10 13 -22z m-133 -647 c0 -12 53 -9 63 4 5 6 6 2 3 -8 -4 -11 2 -31 14 -47
l20 -28 -43 -10 c-101 -26 -489 -133 -512 -142 -22 -8 -27 -6 -40 20 l-15 29
72 22 c40 12 85 22 99 24 14 1 32 5 39 10 9 5 11 4 6 -3 -4 -7 -1 -12 8 -12 9
0 16 6 16 14 0 9 37 24 108 44 59 17 100 31 92 31 -13 1 -389 -102 -426 -116
-10 -4 -14 3 -14 24 0 28 1 29 139 67 77 21 144 35 149 32 6 -3 12 -2 14 3 1
6 17 12 33 15 17 2 30 5 30 6 0 1 12 4 28 6 15 3 27 0 27 -6 0 -6 11 -3 25 6
13 8 29 13 35 9 5 -3 10 -1 10 4 0 6 5 11 10 11 6 0 10 -4 10 -9z m434 -10 c3
-4 -25 -16 -62 -26 -36 -10 -61 -20 -55 -22 6 -2 37 3 69 11 56 15 82 13 55
-3 -7 -5 -37 -14 -68 -20 -30 -7 -52 -15 -50 -17 3 -3 32 1 66 9 34 8 64 11
66 7 3 -5 -1 -11 -7 -13 -8 -3 -6 -6 5 -6 30 -2 18 -20 -20 -30 -84 -22 -107
-29 -94 -30 7 -1 40 6 73 15 33 8 63 13 66 10 6 -6 0 -8 -80 -30 -73 -21 -78
-20 -78 7 0 19 8 26 38 34 l37 11 -42 -5 c-45 -6 -45 -5 -57 47 -5 24 -1 26
57 41 78 21 75 21 81 10z m-470 -136 c-17 -13 -16 -14 15 -4 26 9 35 9 42 -2
11 -17 9 -18 -161 -64 -74 -20 -179 -49 -232 -65 -53 -15 -100 -25 -103 -22
-3 3 -5 15 -5 27 0 19 14 26 133 58 165 45 187 49 187 34 0 -7 7 -4 15 6 7 10
35 25 62 32 64 18 70 18 47 0z m150 -37 c23 -32 21 -34 -31 -47 -27 -6 -155
-42 -287 -78 -231 -65 -239 -67 -252 -48 -21 29 -13 39 47 54 30 8 153 43 274
77 121 34 223 63 227 63 4 1 14 -9 22 -21z m24 -91 c2 -11 -3 -17 -15 -18 -15
0 -14 -2 4 -9 19 -8 50 -48 41 -54 -2 -1 -127 -38 -278 -81 -151 -43 -280 -80
-287 -82 -6 -3 -19 9 -27 26 l-16 30 32 9 c236 65 508 146 504 149 -2 2 -38
-6 -79 -18 -69 -20 -77 -20 -91 -6 -24 24 -24 24 57 43 9 2 27 7 40 10 45 11
52 11 64 2 9 -7 15 -5 19 6 8 20 28 16 32 -7z m-226 -68 c11 -7 -19 -17 -210
-68 -142 -39 -152 -39 -143 -5 6 23 17 29 96 50 104 27 170 44 205 50 13 3 27
8 30 11 3 2 7 -3 9 -14 2 -10 8 -21 13 -24z m278 -84 c0 -17 -7 -25 -22 -28
-21 -4 -21 -4 2 -6 17 -1 32 -11 43 -31 17 -28 17 -29 0 -39 -10 -5 -48 -14
-83 -21 -50 -9 -301 -74 -481 -126 -10 -3 -20 5 -27 21 -16 34 -17 31 19 44
40 14 52 14 44 1 -3 -5 -1 -10 4 -10 6 0 11 6 11 13 0 8 29 22 73 34 214 61
366 107 363 110 -2 3 -28 -3 -57 -11 -65 -20 -69 -20 -69 -1 0 8 -4 15 -9 15
-5 0 -7 -8 -4 -18 4 -15 -22 -25 -179 -71 -101 -29 -190 -54 -198 -55 -10 -1
-16 10 -18 34 l-3 35 196 58 c153 44 200 55 216 47 15 -9 19 -7 19 7 0 15 2
16 10 3 8 -13 10 -12 10 3 0 9 5 17 11 17 5 0 7 -5 4 -11 -7 -11 49 -4 90 11
26 10 35 4 35 -25z m-10 -137 c0 -10 2 -10 8 -1 10 16 52 5 52 -14 0 -8 9 -26
20 -41 11 -14 17 -29 13 -33 -4 -4 -134 -42 -288 -85 -154 -42 -287 -79 -296
-81 -17 -5 -45 45 -32 57 4 3 127 39 273 79 241 67 332 95 240 76 -27 -6 -426
-116 -512 -141 -14 -4 -18 1 -18 20 0 25 19 34 132 61 16 4 25 11 22 16 -3 5
1 6 9 3 8 -3 61 9 118 26 57 17 116 33 131 35 15 2 32 6 38 10 5 3 10 0 10 -7
0 -10 2 -10 8 -1 7 11 47 31 65 32 4 1 7 -5 7 -11z m86 -144 c30 4 34 2 34
-19 0 -12 7 -28 15 -35 15 -13 22 -45 7 -36 -9 6 -525 -133 -596 -160 -7 -3
-18 7 -25 22 -10 22 -9 29 1 35 10 7 9 9 -4 9 -13 0 -18 8 -18 28 0 27 3 28
171 75 93 26 174 45 179 42 4 -3 10 0 12 7 3 7 9 8 19 3 23 -15 38 -14 32 1
-3 9 1 14 12 14 9 0 14 -4 11 -9 -4 -5 2 -8 11 -6 10 2 35 7 56 10 21 3 35 10
32 16 -4 5 -3 15 2 22 5 9 8 7 11 -6 3 -13 11 -16 38 -13z m12 -141 c6 -2 12
1 12 5 0 4 11 9 24 10 40 3 25 -30 -20 -44 -46 -14 -34 -18 13 -5 29 9 35 7
53 -19 l20 -28 -98 -26 c-308 -83 -500 -136 -513 -141 -21 -8 -46 44 -27 56
10 7 9 9 -4 9 -13 0 -18 8 -18 29 0 28 0 29 168 75 92 26 177 44 189 42 13 -3
25 0 29 5 4 6 11 6 19 -1 10 -8 16 -7 24 7 6 10 11 14 11 9 0 -5 6 -4 13 1 20
16 56 22 60 9 3 -6 8 -3 12 7 4 10 11 15 14 10 3 -4 12 -9 19 -10z"/>
<path d="M951 1533 c-1 -7 -8 -13 -16 -13 -10 0 -15 -10 -15 -27 0 -16 -5 -35
-10 -43 -9 -13 -14 -11 -35 12 -13 16 -29 36 -35 45 -8 13 -13 14 -16 6 -4 -9
-15 -8 -45 4 -37 14 -41 14 -59 -2 -11 -10 -20 -25 -20 -34 0 -13 2 -13 9 -2
7 11 9 11 14 0 3 -8 7 -3 12 14 4 15 11 27 15 27 5 0 6 -10 2 -22 -4 -15 -2
-19 7 -13 10 6 11 2 6 -16 -7 -23 -7 -24 9 -4 l15 20 1 -20 1 -20 9 20 c6 13
9 15 9 5 1 -13 2 -13 11 0 7 11 10 11 10 2 0 -7 5 -10 10 -7 6 3 10 1 10 -4 0
-6 14 -30 31 -54 23 -31 30 -36 26 -19 -6 24 -5 24 16 5 12 -10 32 -28 44 -41
13 -13 23 -18 23 -12 0 6 4 9 9 6 5 -4 11 -1 13 6 3 9 9 8 22 -5 23 -22 29
-22 17 2 -6 10 -7 21 -4 25 3 3 1 6 -5 6 -6 0 -9 8 -6 18 3 9 -2 6 -10 -8 -12
-20 -15 -22 -16 -7 0 10 -5 15 -10 12 -6 -3 -13 1 -16 10 -5 11 -10 13 -19 5
-9 -8 -14 -6 -18 5 -5 11 0 14 21 11 26 -3 27 -2 23 43 -4 32 -6 38 -9 21 -4
-22 -6 -21 -17 15 -7 22 -13 34 -14 28z"/>
<path d="M3340 797 c0 -3 38 -37 85 -75 46 -38 82 -72 79 -75 -3 -2 17 -24 45
-47 28 -24 48 -46 46 -50 -3 -4 3 -14 12 -21 12 -10 14 -10 9 -1 -4 7 -2 12 6
12 8 1 6 6 -6 15 -11 8 -14 15 -7 15 7 0 10 4 6 9 -3 5 0 13 6 17 7 4 9 3 6
-3 -7 -11 22 -11 41 1 8 5 11 3 10 -6 -2 -7 4 -12 13 -12 9 1 16 -4 16 -11 0
-7 -7 -11 -16 -8 -13 4 -12 2 2 -10 16 -13 16 -15 1 -21 -14 -5 -14 -9 -3 -22
17 -21 23 -52 6 -35 -6 6 -15 11 -20 11 -12 0 1 -18 22 -29 16 -9 18 -4 17 60
l-1 69 -58 45 c-52 42 -62 45 -58 22 1 -5 -3 -7 -9 -5 -7 2 -12 8 -12 13 0 14
-16 32 -49 56 -26 18 -34 10 -16 -17 14 -23 -7 -22 -25 1 -11 14 -23 23 -27
20 -4 -2 -18 9 -30 26 -12 16 -26 27 -30 24 -5 -3 -12 2 -15 11 -4 9 -9 14
-13 11 -3 -4 -12 -2 -20 4 -7 6 -13 9 -13 6z"/>
<path d="M2975 640 c44 -47 120 -127 170 -179 l90 -93 -174 137 -174 138 -91
-22 c-107 -25 -111 -25 -94 -7 7 8 17 11 22 8 5 -3 6 0 3 6 -4 5 -15 9 -25 7
-9 -1 -22 2 -28 6 -20 16 -43 -1 -39 -29 2 -15 4 -33 4 -40 1 -7 6 -10 11 -7
6 3 10 3 10 -2 0 -4 9 -19 19 -32 14 -18 20 -21 26 -11 5 8 4 11 -2 7 -9 -6
-38 41 -30 49 9 9 200 55 211 51 7 -3 86 -65 177 -139 90 -73 193 -156 229
-185 36 -28 76 -63 89 -77 13 -14 28 -23 34 -19 6 3 7 1 4 -4 -8 -13 17 -36
28 -25 5 4 5 1 1 -6 -5 -8 18 -39 63 -86 39 -40 65 -73 57 -73 -8 0 -50 36
-93 80 -43 44 -72 76 -64 72 10 -6 12 -4 7 4 -5 7 -11 10 -14 6 -3 -3 -44 32
-91 77 -47 46 -79 76 -73 67 7 -9 10 -18 7 -20 -2 -3 45 -54 105 -114 61 -60
110 -114 110 -119 0 -4 -8 -2 -17 5 -10 7 -1 -5 20 -27 36 -39 39 -40 108 -41
64 -1 69 0 57 15 -11 15 -10 15 8 0 11 -10 34 -18 50 -18 28 0 29 2 31 44 l2
43 -216 204 c-119 112 -222 210 -230 217 -7 7 -13 10 -13 5 0 -4 -5 0 -11 10
-6 10 -22 22 -35 28 -16 6 -23 14 -18 21 4 7 3 9 -1 5 -5 -4 -38 21 -73 55
-36 35 -58 53 -50 41 8 -12 33 -38 56 -59 23 -20 40 -39 37 -43 -2 -4 36 -47
85 -96 49 -49 87 -92 84 -97 -3 -5 -2 -7 3 -6 4 2 9 -1 11 -7 1 -5 48 -57 105
-115 127 -130 208 -220 156 -172 -37 34 -61 33 -32 -2 18 -21 18 -21 -4 -2
-12 10 -21 22 -20 26 1 4 -2 9 -8 10 -16 2 -45 32 -40 40 2 4 -5 16 -18 26
-21 19 -21 19 -7 -1 14 -18 14 -19 -2 -6 -10 7 -16 16 -13 20 2 4 -30 41 -70
81 -41 41 -75 71 -75 66 0 -5 -62 53 -137 127 -76 75 -149 144 -162 154 -13
10 -47 38 -75 63 -37 32 -29 21 29 -40z"/>
<path d="M3364 663 c4 -8 2 -13 -6 -13 -7 0 1 -12 17 -26 17 -15 22 -23 13
-20 -36 11 -16 -14 80 -102 193 -178 247 -222 250 -207 2 8 -14 29 -34 47 -21
18 -80 70 -132 116 -51 45 -98 79 -104 76 -7 -5 -8 -2 -3 6 6 9 4 11 -5 5 -9
-6 -11 -4 -5 5 5 9 4 11 -4 6 -7 -5 -10 -2 -9 6 2 7 -3 12 -11 10 -12 -3 -12
-1 0 14 8 10 9 15 3 11 -6 -3 -11 0 -11 8 0 19 11 19 27 0 10 -12 10 -15 0
-15 -9 0 -7 -7 5 -20 21 -24 32 -25 32 -5 0 8 -5 11 -10 8 -6 -4 -7 -1 -2 7 6
9 4 11 -6 5 -11 -6 -12 -5 -1 6 10 11 15 10 29 -4 13 -12 14 -17 4 -17 -11 0
-11 -3 -1 -15 7 -8 9 -15 4 -15 -4 0 5 -13 21 -30 16 -16 33 -30 39 -30 5 0
-3 14 -19 30 -16 17 -25 30 -21 30 5 0 2 8 -5 17 -8 10 6 2 31 -17 32 -24 39
-27 23 -9 -12 13 -23 29 -25 34 -2 6 -7 9 -12 7 -5 -2 -36 21 -70 50 -33 29
-52 42 -42 30 25 -29 9 -28 -22 1 -14 12 -22 16 -18 10z"/>
<path d="M2899 406 c23 -27 39 -51 36 -54 -2 -3 39 -54 91 -114 53 -60 97
-115 98 -122 1 -7 20 -35 43 -62 32 -38 49 -50 73 -52 l32 -2 -47 52 c-26 29
-92 103 -146 163 -120 135 -239 262 -180 191z"/>
</g>
</svg>
