<?xml version="1.0" standalone="no"?>
<!DOCTYPE svg PUBLIC "-//W3C//DTD SVG 20010904//EN"
 "http://www.w3.org/TR/2001/REC-SVG-20010904/DTD/svg10.dtd">
<svg version="1.0" xmlns="http://www.w3.org/2000/svg"
 width="281.000000pt" height="301.000000pt" viewBox="0 0 281.000000 301.000000"
 preserveAspectRatio="xMidYMid meet">
<metadata>
Created by potrace 1.16, written by Peter Selinger 2001-2019
</metadata>
<g transform="translate(0.000000,301.000000) scale(0.100000,-0.100000)"
fill="#000000" stroke="none">
<path d="M2 2843 c1 -93 3 -151 5 -130 2 20 9 37 14 37 6 0 9 17 7 38 -2 27 2
41 16 53 11 9 20 24 21 35 2 30 29 84 41 84 7 0 15 7 18 17 6 15 8 14 20 -2 7
-10 11 -27 8 -38 -3 -10 1 -22 7 -27 9 -5 7 -18 -9 -49 -12 -22 -26 -43 -30
-46 -5 -3 -6 -13 -3 -23 5 -22 -32 -126 -52 -142 -8 -7 -15 -22 -15 -34 0 -12
-8 -32 -17 -45 -16 -23 -17 -23 -24 -5 -4 10 -7 -77 -7 -194 0 -126 3 -210 9
-206 5 3 9 14 9 26 0 11 17 36 37 56 21 21 42 44 48 53 51 79 76 116 86 128 7
8 14 24 15 36 1 12 17 43 34 69 18 25 33 52 34 59 1 7 18 34 39 61 20 27 37
54 37 61 0 6 11 22 25 35 14 13 25 30 25 37 0 8 19 32 43 55 29 28 52 41 75
43 23 1 30 -1 22 -9 -5 -5 -10 -16 -10 -22 0 -7 -13 -33 -30 -57 -16 -25 -30
-53 -30 -64 0 -10 -9 -24 -21 -31 -16 -10 -20 -21 -17 -42 4 -25 0 -31 -23
-39 -25 -9 -69 -75 -69 -104 0 -5 -13 -22 -30 -39 -16 -16 -30 -37 -30 -47 0
-10 -9 -26 -20 -36 -11 -10 -20 -24 -20 -32 0 -21 -31 -63 -46 -63 -8 0 -14
-3 -14 -7 0 -9 -37 -55 -74 -93 -13 -14 -27 -35 -30 -47 -4 -12 -22 -31 -41
-42 -19 -11 -35 -26 -35 -33 0 -17 38 -41 52 -32 6 4 9 1 6 -7 -3 -8 -11 -13
-17 -11 -7 1 -10 -2 -6 -8 5 -8 11 -8 20 0 10 8 15 8 20 0 5 -8 11 -8 21 1 8
6 14 8 14 3 0 -5 7 -1 14 9 8 10 20 19 28 21 7 1 18 5 25 9 6 4 14 3 18 -3 3
-6 -2 -13 -12 -17 -10 -3 -32 -16 -49 -29 -17 -13 -34 -20 -38 -17 -3 4 -6 2
-6 -4 0 -19 13 -23 25 -6 15 20 38 7 32 -18 -3 -11 -1 -17 4 -13 5 3 9 16 9
29 0 24 1 24 19 8 11 -9 18 -20 15 -25 -3 -4 1 -8 8 -8 8 0 6 -5 -5 -11 -9 -5
-21 -8 -26 -5 -5 4 -7 -3 -4 -15 3 -11 9 -16 12 -11 8 12 51 35 73 39 12 2 15
-2 12 -12 -7 -17 -24 -20 -24 -4 0 6 -13 -2 -30 -17 -29 -28 -34 -48 -5 -24 9
8 15 8 15 2 0 -6 -5 -14 -11 -18 -6 -3 -7 -9 -3 -13 15 -11 40 -45 27 -38 -6
4 -15 2 -19 -4 -4 -8 -3 -9 4 -5 7 4 12 3 12 -2 0 -10 -24 -33 -31 -29 -2 1
-3 0 -1 -2 7 -12 32 -8 32 5 0 8 8 14 18 15 9 0 12 3 6 5 -6 3 -9 16 -6 30 4
23 5 23 17 7 8 -10 17 -15 21 -10 4 4 2 7 -5 7 -7 0 -10 4 -6 9 9 16 -15 24
-30 11 -13 -10 -15 -8 -13 13 1 14 6 23 11 20 6 -3 19 -7 31 -7 13 -1 20 -7
18 -16 -3 -10 2 -9 17 4 12 11 21 15 21 10 0 -5 4 -2 9 5 6 9 6 22 0 32 -7 14
-4 19 11 24 11 3 19 12 17 18 -4 24 -21 25 -43 4 -20 -19 -20 -23 -8 -43 13
-18 12 -23 -1 -34 -12 -10 -15 -10 -15 0 0 7 -8 10 -20 7 -11 -3 -23 -1 -26 4
-3 5 4 9 15 9 22 0 29 24 10 36 -8 5 -6 10 5 16 18 10 22 28 5 28 -5 0 -8 -4
-5 -9 3 -5 0 -11 -8 -14 -8 -3 -18 5 -25 19 -11 24 -31 33 -31 14 0 -5 -8 -10
-17 -10 -13 0 -11 5 10 18 15 9 27 20 27 25 0 4 -5 5 -12 1 -7 -4 -8 -3 -4 5
10 15 27 4 24 -16 -2 -10 6 -17 19 -19 17 -3 21 0 18 16 -2 11 -6 24 -10 29
-3 5 4 12 15 16 11 4 18 11 15 16 -4 5 -1 9 5 9 17 0 50 -19 50 -29 0 -10 -19
-9 -35 1 -21 13 -35 -9 -25 -39 1 -5 2 -12 1 -16 -2 -16 30 -19 47 -5 21 18
62 30 62 17 0 -18 3 -24 19 -36 14 -11 13 -12 -6 -13 -17 0 -21 5 -18 20 3 16
-2 20 -21 20 -21 0 -23 -3 -15 -19 6 -10 7 -21 4 -25 -3 -3 -1 -6 5 -6 7 0 12
-6 12 -13 0 -8 9 -22 19 -31 11 -10 23 -36 26 -58 4 -21 9 -37 12 -34 8 8 43
-13 43 -25 0 -6 -5 -7 -12 -3 -7 5 -8 3 -4 -5 5 -7 11 -10 14 -7 9 10 31 -15
25 -30 -3 -10 -13 -12 -32 -7 -23 6 -25 5 -12 -10 8 -11 9 -17 2 -17 -6 0 -22
-18 -36 -40 -15 -24 -30 -38 -37 -34 -6 4 -8 3 -4 -4 3 -6 -2 -19 -13 -29 -10
-10 -26 -36 -36 -58 -31 -74 11 -140 96 -150 18 -3 28 0 26 8 -1 7 4 11 11 9
25 -5 24 29 -2 53 -15 13 -30 25 -34 25 -12 0 -8 73 4 77 11 4 27 -30 39 -80
3 -16 11 -27 18 -24 16 5 21 71 7 98 -9 16 -9 23 0 29 14 8 12 20 -7 38 -18
18 -6 35 19 29 14 -4 22 0 25 12 3 10 16 24 29 30 20 9 24 8 25 -7 0 -10 3
-12 6 -4 2 6 11 12 18 12 15 0 27 -38 14 -46 -5 -3 -9 0 -9 5 0 6 -4 11 -10
11 -5 0 -10 -6 -10 -14 0 -16 16 -16 45 2 14 8 16 12 5 12 -13 0 -13 1 0 10
12 7 12 10 1 10 -7 0 -11 6 -8 14 3 7 0 20 -6 27 -10 11 -9 11 5 0 15 -11 22
-9 53 14 19 15 35 22 35 16 0 -6 -5 -11 -11 -11 -5 0 -7 -5 -3 -12 4 -7 3 -8
-4 -4 -7 4 -12 2 -12 -3 0 -6 -6 -11 -14 -11 -21 0 -31 -21 -15 -30 7 -5 16
-7 20 -4 4 2 5 -5 2 -17 -3 -11 -11 -18 -18 -15 -7 2 -21 -5 -31 -17 -10 -12
-12 -17 -5 -10 18 15 40 6 34 -15 -2 -10 8 -29 26 -46 18 -17 27 -35 24 -45
-3 -9 4 -5 15 9 12 14 24 21 28 17 4 -4 2 -7 -4 -7 -7 0 -12 -4 -12 -10 0 -5
7 -10 16 -10 8 0 12 -5 8 -11 -4 -7 2 -9 17 -7 13 2 23 9 22 15 -2 7 3 10 11
7 8 -3 17 0 21 7 6 8 -1 10 -23 7 -25 -3 -33 0 -38 14 -5 18 -8 18 -29 4 -22
-14 -24 -14 -40 10 -17 26 -13 44 10 44 7 0 15 7 19 15 6 17 -9 21 -19 5 -4
-6 -11 -8 -16 -5 -5 4 -9 1 -9 -6 0 -7 -3 -10 -6 -6 -4 3 -3 14 0 24 6 15 9
15 17 3 9 -12 10 -10 6 7 -4 19 -2 21 19 13 26 -10 40 2 28 23 -4 6 5 0 20
-15 19 -19 26 -33 21 -47 -5 -16 -2 -18 16 -14 15 4 20 3 15 -5 -4 -7 -2 -12
3 -12 6 0 11 -6 11 -14 0 -8 5 -18 11 -21 16 -11 6 48 -11 63 -13 11 -12 11 7
3 12 -6 23 -15 25 -21 2 -5 9 -6 16 -1 11 6 8 14 -11 34 -14 13 -29 22 -34 18
-4 -3 -1 2 6 12 16 20 22 22 18 5 -3 -15 21 -18 46 -6 10 5 17 5 17 -2 0 -5
-6 -10 -14 -10 -8 0 -13 -8 -11 -17 2 -10 4 -18 5 -18 1 0 3 -7 5 -16 2 -12
-3 -15 -15 -12 -10 3 -21 0 -24 -6 -4 -6 -2 -11 3 -11 6 0 11 -7 11 -16 0 -8
-4 -12 -10 -9 -5 3 -11 1 -11 -4 -1 -6 -2 -16 -3 -23 0 -6 -10 -13 -21 -15
-63 -12 -84 -13 -90 -4 -9 16 -25 14 -25 -3 0 -8 -15 -17 -36 -21 -41 -7 -60
-22 -66 -51 -2 -10 -10 -18 -16 -17 -7 2 -11 0 -11 -5 5 -29 -2 -36 -19 -16
-30 36 -48 36 -89 -2 -42 -40 -51 -39 -136 1 -29 15 -55 21 -60 16 -10 -10 38
-61 58 -61 8 0 15 -3 15 -7 0 -10 92 -55 154 -75 57 -19 96 -10 96 21 0 13 5
18 14 15 8 -3 18 7 26 25 13 32 35 45 23 14 -5 -12 -3 -14 8 -9 8 4 4 -1 -8
-10 -13 -9 -23 -23 -23 -31 0 -24 32 -10 50 21 24 44 44 46 23 2 -9 -20 -14
-39 -10 -42 10 -11 44 24 51 52 4 14 11 22 17 19 5 -4 8 -3 7 2 -1 4 3 23 9
41 10 27 17 32 45 32 19 0 40 6 46 12 10 10 14 8 18 -10 4 -12 10 -19 15 -16
5 3 9 0 9 -5 0 -6 4 -11 9 -11 5 0 7 9 4 20 -3 11 -10 17 -16 13 -6 -4 -8 0
-4 9 3 9 0 21 -6 27 -8 8 -7 14 2 24 11 10 13 9 9 -4 -4 -10 4 -20 25 -29 27
-12 29 -14 11 -20 -18 -7 -18 -7 4 -14 13 -4 22 -15 22 -27 0 -16 -5 -19 -20
-14 -11 4 -20 2 -20 -4 0 -17 -27 -13 -34 4 -3 8 -13 15 -23 15 -14 0 -15 -2
-4 -9 18 -12 7 -27 -26 -36 -52 -13 -83 -46 -126 -133 -23 -48 -42 -88 -43
-90 -1 -1 -13 2 -27 9 -22 10 -31 8 -61 -11 -20 -12 -36 -26 -36 -31 0 -5 -7
-9 -16 -9 -8 0 -12 -4 -9 -10 3 -6 -1 -7 -9 -4 -9 3 -16 1 -16 -5 0 -6 5 -11
12 -11 6 0 8 -3 5 -7 -4 -3 -16 3 -26 14 -15 16 -17 23 -8 34 10 11 9 11 -5 0
-19 -14 -38 -7 -38 15 0 23 -42 74 -60 74 -9 0 -25 -9 -35 -20 -18 -20 -18
-21 1 -14 18 7 18 6 -1 -13 -13 -13 -22 -16 -25 -9 -3 6 -15 11 -27 10 -13 -1
-23 2 -23 7 0 5 -7 5 -17 2 -12 -5 -14 -3 -8 7 6 10 4 12 -8 7 -10 -3 -17 -2
-17 3 0 6 -5 10 -10 10 -6 0 -10 -6 -9 -13 3 -26 -1 -47 -11 -47 -5 0 -7 13
-4 29 8 37 -13 51 -26 17 -11 -31 -30 -34 -37 -6 -7 27 -33 25 -34 -2 -1 -18
-2 -19 -6 -5 -6 22 -23 12 -23 -14 0 -13 -4 -18 -12 -13 -7 4 -5 -2 5 -13 23
-26 22 -36 -3 -28 -14 5 -20 2 -20 -10 0 -10 5 -13 12 -9 7 5 8 3 4 -5 -5 -7
-14 -10 -22 -7 -7 3 -16 0 -20 -6 -4 -6 -3 -8 3 -5 17 11 24 -21 8 -37 -8 -7
-11 -17 -7 -21 4 -5 1 -5 -6 -1 -11 7 -10 11 2 25 15 16 14 18 -4 16 -11 -1
-23 -5 -27 -10 -5 -4 -2 -5 4 -1 18 10 16 -9 -2 -24 -16 -13 -11 -30 8 -30 8
0 8 3 -2 9 -7 5 -9 11 -4 14 6 4 15 -5 21 -18 13 -27 4 -32 -28 -15 -25 13
-21 -15 5 -33 14 -11 15 -16 5 -22 -9 -5 -11 -4 -6 3 4 7 1 12 -8 12 -10 0
-13 -6 -10 -15 4 -8 11 -15 17 -15 6 0 7 -3 4 -7 -4 -3 -1 -13 6 -21 10 -13 9
-15 -5 -9 -10 3 -20 2 -23 -3 -4 -6 2 -10 13 -10 10 0 21 -3 25 -6 7 -7 -14
-44 -26 -44 -4 0 -5 5 -2 10 3 6 1 10 -4 10 -6 0 -11 -7 -11 -15 0 -8 6 -15
13 -15 9 0 8 -3 -2 -9 -11 -7 -11 -10 0 -15 11 -5 11 -7 2 -12 -18 -8 -16 -61
1 -67 8 -3 17 1 20 9 3 8 1 14 -5 14 -6 0 -7 5 -4 10 3 6 1 10 -5 10 -6 0 -8
5 -5 10 3 6 11 10 16 10 6 0 8 -4 4 -9 -3 -5 2 -17 11 -25 12 -12 12 -16 2
-17 -7 0 -4 -4 7 -9 11 -5 14 -9 8 -9 -23 -2 -14 -21 14 -32 15 -6 36 -19 46
-30 17 -18 17 -19 -5 -20 -21 -1 -21 -1 5 -13 l28 -12 -23 -12 c-21 -10 -21
-11 -3 -11 16 -1 17 -3 6 -10 -9 -6 -19 -5 -26 2 -10 9 -9 14 4 24 9 7 11 13
5 13 -6 0 -18 -8 -27 -18 -16 -17 -16 -19 7 -31 13 -8 30 -10 37 -6 8 5 10 4
5 -3 -4 -7 -1 -12 8 -12 21 0 29 -17 10 -24 -8 -3 -13 -2 -10 3 3 5 -7 14 -24
19 -29 10 -53 0 -28 -12 7 -3 3 -3 -9 -1 -12 3 -24 1 -28 -5 -3 -5 -1 -10 6
-10 7 0 10 -2 7 -5 -3 -3 -13 -2 -22 1 -14 5 -15 9 -4 15 7 5 8 9 2 9 -5 0
-19 -7 -30 -15 -19 -14 -19 -14 2 -15 29 0 37 -24 14 -45 -21 -19 -32 -53 -19
-61 5 -3 9 -2 8 3 -4 22 3 25 17 7 15 -18 15 -17 1 7 -20 34 -6 50 37 42 30
-5 30 -5 11 11 -19 16 -18 16 13 4 34 -13 44 -33 17 -33 -8 0 -20 -6 -27 -13
-11 -11 -10 -12 6 -6 13 5 17 4 12 -4 -4 -7 -2 -12 6 -12 10 0 10 -2 0 -9 -31
-19 5 -49 38 -31 11 6 20 7 20 2 0 -6 -10 -13 -22 -16 l-23 -6 23 -13 c12 -7
19 -16 16 -20 -4 -4 -3 -7 2 -7 5 0 25 -10 44 -22 19 -12 38 -22 42 -23 4 0
17 -9 30 -19 12 -11 35 -19 50 -19 17 0 28 -6 28 -14 0 -10 5 -11 19 -3 25 13
44 13 36 1 -3 -6 5 -15 17 -22 21 -11 22 -11 9 5 -12 14 -12 16 2 11 8 -4 18
-1 22 4 3 6 10 9 15 6 5 -3 19 -1 32 4 15 5 31 5 41 0 13 -8 15 -6 10 8 -5 15
-3 16 8 6 19 -18 34 -16 19 2 -10 13 -9 15 10 15 18 0 82 23 99 36 2 2 -3 10
-12 18 -8 8 -17 13 -20 10 -3 -4 -11 -3 -17 1 -8 5 -7 14 4 31 18 26 21 48 7
40 -5 -4 -7 11 -4 33 4 31 1 42 -18 60 -20 19 -25 20 -27 7 -4 -19 -11 -20
-35 -2 -16 13 -15 15 15 25 31 11 32 13 15 26 -13 9 -15 14 -5 17 11 4 10 8
-1 21 -13 16 -11 16 25 1 52 -21 72 -40 100 -97 34 -66 42 -132 19 -157 -10
-11 -22 -17 -26 -14 -5 3 -9 0 -9 -5 0 -17 18 -13 40 9 27 27 26 82 -3 145
-18 39 -21 54 -13 70 10 18 18 20 101 14 50 -3 100 -12 112 -19 18 -12 28 -12
62 0 38 12 43 12 64 -8 26 -25 42 -28 53 -10 5 7 2 8 -7 3 -11 -6 -11 -5 -2 5
13 15 33 5 33 -17 0 -9 6 -13 15 -9 12 4 13 2 6 -13 -12 -22 -7 -28 38 -47 43
-18 68 -18 68 1 0 8 -7 15 -14 15 -8 0 -13 5 -11 11 6 18 22 13 35 -12 7 -13
13 -18 13 -10 0 11 4 11 18 -2 10 -10 24 -17 30 -17 7 0 12 -5 12 -12 0 -6 3
-8 7 -5 3 4 14 0 24 -9 16 -14 20 -14 46 3 25 16 27 16 14 0 -7 -9 -12 -17
-10 -18 34 -7 45 -6 57 3 10 9 12 8 10 -1 -2 -8 20 -20 55 -31 31 -10 77 -27
102 -39 50 -24 80 -27 91 -9 4 6 3 8 -3 5 -5 -3 -10 0 -10 7 0 15 12 12 56
-10 13 -7 29 -10 36 -7 18 6 27 33 16 47 -5 6 -14 31 -21 56 -14 53 -28 73
-47 66 -8 -3 -12 -2 -9 3 9 14 -25 37 -79 55 -36 11 -66 32 -102 69 -27 28
-53 60 -56 69 -4 12 -12 15 -23 11 -11 -4 -15 -3 -10 5 3 6 2 13 -4 17 -6 4
-5 13 2 25 9 15 9 24 -1 44 -8 14 -14 59 -15 103 -1 43 -3 80 -7 83 -10 9 -39
78 -39 92 0 20 20 37 36 31 10 -4 12 0 8 11 -6 15 -9 15 -30 -5 -24 -22 -24
-22 -24 -2 0 25 17 33 90 43 30 4 61 9 69 11 9 2 17 -4 19 -15 3 -15 0 -18
-17 -13 -12 3 -26 -1 -33 -10 -11 -14 -10 -15 10 -9 12 3 30 8 41 11 21 6 37
-20 19 -31 -7 -4 -14 -2 -16 4 -2 7 -8 12 -13 12 -4 0 -6 -6 -3 -13 3 -8 -5
-18 -18 -25 -13 -6 -17 -11 -10 -11 7 -1 11 -5 8 -10 -4 -5 4 -7 16 -3 15 3
19 2 14 -7 -8 -13 33 -9 56 5 7 5 9 2 6 -8 -4 -8 3 -20 14 -27 18 -11 20 -11
15 2 -3 9 1 14 14 13 26 -1 25 -14 -5 -37 -15 -12 -31 -17 -43 -13 -15 6 -16
5 -5 -7 10 -11 16 -11 30 -1 9 7 28 17 42 23 62 28 69 33 63 42 -3 5 3 6 15 3
13 -4 22 -1 25 8 5 12 0 14 -26 9 -33 -6 -50 -21 -41 -35 3 -4 -2 -5 -10 -2
-20 8 -20 10 2 32 11 11 29 17 42 15 13 -2 21 0 17 3 -10 10 13 34 32 33 10 0
8 -3 -7 -10 l-23 -9 28 -25 c15 -13 22 -25 16 -25 -7 0 -13 6 -13 13 0 6 -8 0
-18 -14 -9 -14 -23 -24 -31 -21 -8 3 -11 0 -7 -7 7 -10 -18 -16 -49 -12 -5 1
-3 -4 5 -11 19 -16 24 -44 10 -53 -5 -3 -10 -1 -10 5 0 6 -4 8 -10 5 -5 -3
-10 -1 -10 4 0 6 5 11 11 11 5 0 8 4 4 10 -3 5 -12 7 -21 3 -12 -4 -10 -12 10
-48 14 -23 23 -44 21 -47 -2 -2 4 -4 14 -4 10 0 18 6 18 12 0 7 -6 10 -12 7
-8 -2 -12 5 -11 18 1 16 8 23 24 24 12 1 28 7 34 13 13 13 20 45 9 38 -4 -3
-13 -1 -21 5 -12 7 -11 9 6 9 12 0 27 7 34 15 11 13 15 13 22 3 6 -10 10 -7
14 10 4 14 12 21 20 18 7 -3 24 4 38 15 15 11 32 19 39 16 7 -3 5 -8 -8 -13
-34 -13 -95 -56 -95 -67 0 -5 8 -16 18 -23 15 -12 15 -13 1 -14 -9 0 -22 11
-29 25 -7 13 -17 22 -22 19 -5 -3 -3 -13 5 -22 15 -18 12 -46 -4 -36 -5 3 -12
-2 -15 -10 -3 -9 -12 -16 -20 -16 -19 0 -18 -16 1 -24 8 -3 15 -1 15 4 0 6 5
10 11 10 5 0 7 -5 3 -11 -4 -7 -1 -10 7 -7 8 3 15 14 15 26 2 36 4 38 15 22 8
-11 12 -12 16 -2 2 6 12 12 21 12 11 0 7 -7 -13 -20 -18 -12 -24 -20 -15 -21
8 0 5 -4 -8 -10 -13 -5 -20 -14 -16 -20 5 -8 8 -8 14 0 7 13 40 4 40 -10 0 -5
-11 -9 -25 -9 -14 0 -25 -5 -25 -12 0 -6 3 -8 7 -5 3 4 13 1 21 -6 10 -8 13
-8 9 -1 -4 7 -1 14 6 17 7 3 21 -9 30 -25 13 -22 14 -29 4 -25 -8 3 -20 1 -28
-4 -11 -7 -10 -9 6 -9 17 0 17 -2 5 -10 -13 -8 -13 -10 2 -10 9 0 20 5 23 10
5 8 12 7 23 -2 15 -12 16 -11 3 4 -7 10 -10 18 -5 18 5 0 3 4 -5 9 -12 8 -12
12 -2 25 7 9 17 13 22 10 13 -8 11 10 -3 25 -7 8 -1 6 14 -4 15 -9 26 -21 23
-25 -3 -4 4 -10 15 -13 11 -3 20 -1 20 5 0 6 10 4 23 -5 12 -8 22 -21 22 -28
0 -16 56 -20 67 -4 4 5 21 10 38 11 25 1 28 -1 19 -12 -6 -8 -15 -12 -19 -9
-4 2 -15 -4 -25 -15 -18 -20 -18 -20 3 -17 12 2 25 6 28 10 4 4 16 0 26 -10
14 -13 18 -13 18 -2 0 11 2 11 10 -1 7 -11 10 -11 10 -2 0 7 4 11 10 7 5 -3 6
-13 3 -22 -4 -11 -3 -14 5 -9 8 4 12 0 13 -11 0 -15 2 -14 11 5 12 24 33 25
33 1 0 -25 61 -6 68 22 6 22 39 25 56 5 9 -11 9 -16 0 -22 -7 -4 -18 1 -26 12
-13 17 -14 17 -7 -10 6 -26 5 -29 -15 -23 -14 3 -24 0 -28 -9 -3 -8 -9 -12
-13 -9 -4 3 -10 -2 -14 -10 -3 -8 -11 -12 -19 -9 -8 3 -20 -2 -27 -10 -17 -21
-33 -10 -20 15 7 13 7 19 0 19 -9 0 -15 -21 -11 -42 2 -15 -44 -58 -57 -53 -8
3 -10 0 -6 -7 5 -8 2 -9 -10 -5 -11 5 -15 3 -10 -5 5 -8 2 -9 -10 -5 -10 4
-15 3 -11 -3 3 -6 -1 -13 -9 -16 -28 -11 -18 -27 12 -19 15 5 38 9 50 10 13 1
27 8 32 15 5 9 20 11 43 7 20 -3 39 -1 46 6 6 6 11 7 11 3 0 -5 6 -3 14 3 16
13 46 5 46 -13 0 -6 9 -12 19 -13 11 -1 31 -9 45 -18 24 -16 25 -18 10 -46
-15 -30 -39 -39 -46 -17 -2 6 -14 -3 -27 -20 -12 -18 -29 -32 -37 -32 -9 0
-14 -11 -14 -34 0 -18 -7 -39 -15 -46 -16 -13 -20 -40 -7 -40 34 0 169 119
166 147 -1 7 4 13 12 13 7 0 16 4 19 10 3 5 0 7 -9 4 -21 -8 -36 3 -29 21 3 9
18 15 34 15 16 0 29 5 29 11 0 6 6 9 13 6 6 -2 11 -10 10 -16 -4 -14 9 -14 42
1 24 11 34 28 16 28 -12 0 -8 30 5 33 5 1 10 -8 12 -20 4 -25 9 -27 32 -13 13
8 12 11 -5 24 -11 9 -15 15 -10 15 20 0 47 -28 42 -43 -7 -18 9 -31 18 -16 12
20 33 11 27 -12 -3 -14 -2 -19 6 -14 15 9 16 66 1 66 -5 0 -8 4 -5 9 4 5 0 12
-6 14 -8 3 -6 6 5 6 11 1 17 9 17 26 0 28 -3 29 -31 15 -13 -8 -19 -7 -19 0 0
6 11 16 25 22 18 8 25 19 25 40 l0 28 -57 -29 c-32 -17 -59 -28 -61 -27 -6 6
54 63 86 81 31 19 46 65 21 65 -8 0 -8 4 -1 13 8 9 11 171 11 507 1 434 -1
493 -14 476 -8 -10 -12 -22 -10 -27 3 -4 0 -11 -6 -15 -8 -5 -9 -3 -4 7 18 30
-9 -2 -38 -48 -94 -142 -130 -176 -157 -149 -8 8 -13 8 -18 0 -4 -6 -27 -14
-51 -17 -29 -4 -40 -2 -30 4 7 5 22 9 32 9 29 0 74 28 118 73 40 42 45 33 6
-11 -25 -27 -31 -53 -11 -45 8 3 14 8 14 12 0 3 15 30 34 58 24 37 31 54 23
62 -8 8 -7 15 2 24 10 10 11 9 6 -4 -4 -10 -1 -20 6 -25 7 -4 10 -3 5 4 -3 6
-1 23 5 39 6 15 13 39 15 52 3 14 18 44 35 68 32 49 34 53 18 53 -5 0 -7 -5
-3 -12 4 -7 3 -8 -5 -4 -6 4 -9 16 -6 27 4 11 2 19 -5 19 -6 0 -8 -5 -4 -11 4
-8 -1 -9 -17 -4 -25 8 -70 49 -68 62 1 4 0 15 -4 23 -10 27 -14 80 -5 80 4 0
8 4 8 8 0 5 -7 9 -16 9 -11 0 -14 -8 -11 -34 6 -38 -4 -42 -33 -11 -16 18 -32
22 -79 22 -33 1 -57 -3 -53 -8 3 -5 -5 -7 -16 -4 -12 4 -20 2 -16 -3 3 -5 -2
-9 -10 -9 -9 0 -16 -4 -16 -9 0 -18 -58 -73 -69 -67 -17 11 -13 82 4 96 9 7
14 18 11 25 -2 6 2 12 10 12 17 0 18 -13 3 -22 -6 -4 -8 -14 -5 -22 3 -8 2
-11 -3 -8 -5 3 -13 0 -17 -6 -5 -8 -3 -9 6 -4 12 7 10 -7 -8 -54 -3 -9 -1 -12
6 -8 6 4 13 21 17 37 7 32 59 95 73 86 4 -2 8 4 8 14 0 16 -3 17 -16 6 -33
-28 -42 -30 -28 -5 7 13 22 34 32 46 22 26 16 31 -8 7 -10 -9 -16 -11 -16 -4
0 6 7 18 16 27 8 9 13 22 10 29 -3 9 1 11 12 8 14 -5 14 -4 3 4 -21 15 -24 57
-6 72 21 18 45 6 38 -19 -4 -15 -1 -21 12 -21 12 0 15 5 10 19 -8 26 7 33 33
15 29 -20 30 -69 2 -71 -13 -1 -18 2 -13 10 10 17 -30 -15 -41 -33 -12 -19
-15 -90 -4 -90 4 0 8 -7 8 -16 0 -8 4 -13 9 -10 10 7 9 31 -2 42 -12 13 -7 65
7 80 8 8 17 10 20 5 4 -5 17 -8 29 -7 13 2 24 -2 24 -8 0 -6 4 -20 8 -31 7
-18 5 -17 -21 5 -25 22 -25 20 4 -11 37 -40 31 -56 -11 -34 -22 11 -27 11 -27
0 0 -17 25 -27 78 -29 39 -2 54 6 33 18 -10 6 -8 52 2 62 3 3 13 -9 22 -26 13
-25 14 -34 5 -40 -13 -8 -1 -39 28 -72 8 -10 21 -39 28 -65 7 -28 13 -38 13
-24 1 23 2 23 26 7 27 -18 32 -11 12 15 -7 9 -18 14 -25 12 -11 -4 -33 35 -26
48 1 3 -8 13 -22 23 -13 11 -24 23 -24 28 0 16 53 -26 81 -66 l29 -39 0 366
c0 202 -2 367 -4 367 -3 0 -10 -17 -17 -37 -12 -38 -63 -92 -86 -93 -15 0 -28
-44 -18 -60 3 -6 1 -9 -7 -8 -7 2 -12 -2 -11 -8 1 -7 3 -28 5 -48 1 -20 6 -36
10 -36 4 0 8 -4 8 -9 0 -5 -15 -9 -32 -8 -26 2 -34 7 -36 26 -3 16 0 21 9 16
8 -5 10 -4 5 4 -4 6 2 30 13 52 12 22 21 45 20 52 0 7 -5 1 -11 -13 -10 -23
-11 -23 -16 -5 -4 17 10 32 22 23 3 -2 12 6 19 17 13 16 13 22 1 40 -7 11 -11
36 -9 55 3 33 3 34 -8 10 -7 -14 -19 -26 -27 -28 -8 -2 -18 -8 -21 -14 -4 -6
-9 -5 -13 3 -3 8 -3 4 -1 -8 6 -24 -9 -40 -21 -22 -13 21 -52 -59 -49 -99 4
-38 -30 -127 -44 -117 -5 2 -8 -3 -7 -12 1 -11 -6 -17 -20 -17 -29 -1 -104 25
-104 36 0 5 -9 4 -19 -2 -27 -14 -28 -13 -33 18 -3 15 -7 34 -9 42 -3 9 2 14
13 14 10 -1 16 2 13 6 -3 4 10 15 28 23 33 16 57 40 76 76 8 13 17 18 28 14
13 -5 15 -2 10 11 -4 10 -7 20 -7 22 0 2 -11 -3 -25 -12 -14 -9 -25 -22 -25
-30 0 -18 -31 -54 -47 -54 -7 0 -13 -5 -13 -11 0 -5 -4 -8 -8 -5 -5 3 -20 -6
-34 -19 -26 -24 -26 -24 -47 -4 -12 11 -25 17 -30 14 -5 -3 -13 0 -16 6 -4 6
-18 8 -31 5 -16 -4 -24 -2 -24 6 0 8 -5 5 -11 -5 -6 -9 -14 -15 -20 -12 -5 4
-9 2 -9 -3 0 -5 -21 -13 -46 -17 -26 -3 -54 -9 -63 -12 -12 -4 -11 0 5 16 11
12 29 23 38 25 10 1 21 8 26 15 4 7 23 15 41 16 19 2 35 5 37 6 1 1 6 2 11 3
5 0 13 5 18 9 15 16 -72 4 -105 -15 -42 -23 -42 -23 -42 5 0 29 27 61 57 71
18 6 22 4 17 -8 -3 -9 -11 -13 -17 -9 -5 3 -7 1 -3 -5 3 -5 -6 -20 -21 -31
-16 -11 -22 -21 -15 -21 15 0 66 49 70 68 1 7 -4 20 -13 28 -8 9 -15 11 -15 5
0 -6 -8 -11 -18 -11 -20 0 -57 -64 -53 -92 1 -10 -3 -18 -9 -18 -6 0 -9 -4 -5
-9 3 -6 -3 -9 -14 -8 -18 1 -18 3 -2 37 9 19 19 37 24 38 4 2 14 19 22 38 13
31 26 38 61 33 4 0 10 5 14 11 5 9 9 9 14 1 4 -6 2 -11 -4 -11 -16 0 22 -49
39 -50 8 0 11 -6 7 -16 -6 -15 -4 -15 20 1 15 10 23 12 19 4 -6 -9 -3 -11 9
-6 10 4 29 7 43 7 18 0 24 4 20 15 -4 8 -2 17 4 20 5 4 7 11 3 16 -4 6 -11 6
-20 -2 -22 -18 -28 -4 -8 20 16 18 30 61 20 61 -3 0 -12 -8 -21 -17 -14 -13
-21 -14 -36 -5 -12 8 -20 8 -25 1 -3 -6 -12 -8 -19 -5 -8 3 -16 0 -19 -7 -2
-7 -4 -2 -2 10 1 12 11 32 22 45 17 20 17 21 0 8 -28 -22 -48 -22 -33 0 6 10
15 16 19 14 4 -3 8 2 8 12 0 13 3 14 15 4 12 -10 16 -9 20 2 3 7 15 15 27 15
29 3 60 -15 52 -29 -4 -6 -3 -8 3 -5 26 16 31 -69 5 -90 -9 -8 -11 -11 -3 -7
11 6 13 3 7 -11 -5 -15 -2 -14 17 5 13 14 21 30 17 35 -3 6 -6 27 -5 47 0 20
-1 35 -4 33 -4 -4 -31 20 -31 28 0 2 10 2 23 0 18 -3 26 4 43 41 12 27 15 41
7 35 -9 -8 -13 -8 -13 0 0 6 12 16 26 21 14 6 23 14 19 19 -3 5 9 3 26 -6 29
-14 30 -17 15 -28 -10 -8 -13 -14 -6 -17 8 -2 8 -10 0 -28 -9 -21 -10 -22 -6
-3 2 12 -2 24 -9 27 -21 8 -25 -19 -8 -44 13 -19 13 -24 2 -31 -12 -7 -11 -9
1 -9 10 0 16 -12 17 -35 2 -19 4 -40 5 -46 2 -7 -9 -15 -24 -19 -21 -6 -26 -5
-25 9 1 28 -35 94 -44 79 -5 -7 -3 -16 4 -20 7 -4 8 -8 3 -8 -4 0 -1 -11 8
-25 16 -24 16 -27 -4 -55 -12 -17 -30 -30 -40 -30 -10 0 -22 -4 -25 -10 -3 -5
-1 -10 5 -10 6 0 8 -6 4 -12 -4 -7 2 -5 13 5 11 9 27 17 36 17 9 0 22 8 29 18
7 10 19 22 26 26 11 7 12 4 3 -12 -14 -26 -14 -35 -1 -27 6 3 10 0 11 -7 0 -7
4 -3 9 10 5 12 15 22 22 22 9 0 9 3 -2 10 -10 6 -11 10 -2 10 6 0 12 9 12 20
0 11 5 20 10 20 7 0 9 -16 6 -41 -3 -32 -2 -39 10 -35 8 3 14 1 14 -3 0 -5 -7
-12 -16 -15 -28 -11 -4 -28 29 -20 31 6 32 6 14 -13 -9 -11 -15 -22 -12 -25 3
-3 -2 -11 -12 -19 -15 -12 -16 -12 -10 5 6 16 5 17 -8 6 -11 -9 -13 -15 -5
-20 13 -8 13 -20 -2 -37 -16 -20 -32 -15 -17 5 13 15 12 16 -3 3 -22 -16 -23
-31 -4 -31 19 0 48 29 41 40 -3 5 3 15 15 22 11 7 20 20 20 30 0 9 4 20 10 23
19 12 11 33 -10 28 -21 -6 -25 3 -11 25 5 9 17 11 34 6 16 -3 27 -2 27 4 0 6
-20 9 -50 8 -27 -2 -50 1 -50 5 0 5 3 8 8 7 4 -1 17 2 30 6 14 5 28 3 37 -4
12 -10 15 -10 15 2 0 8 -5 19 -12 26 -9 9 -9 12 0 12 7 0 12 -5 12 -11 0 -6 7
-8 16 -5 14 5 15 4 4 -9 -15 -18 -6 -32 12 -18 11 9 46 21 86 29 6 1 12 -4 12
-12 0 -8 6 -11 17 -7 11 4 14 3 9 -6 -4 -6 -14 -10 -21 -9 -8 2 -14 0 -14 -4
-3 -27 2 -29 24 -8 13 12 22 27 19 32 -3 5 -2 14 4 21 5 7 12 21 16 32 6 18 5
18 -17 -3 l-24 -23 -17 26 c-22 33 -30 32 -56 -11 -12 -19 -25 -33 -28 -30 -3
3 2 14 11 24 22 24 21 29 -5 36 -23 5 -77 -12 -79 -26 -1 -5 -2 -13 -3 -18 -1
-12 -26 -30 -40 -30 -4 0 -6 11 -4 25 5 22 3 24 -21 18 -23 -6 -24 -4 -13 10
8 9 20 13 29 10 13 -5 14 -3 3 18 -7 13 -19 27 -26 32 -14 8 -11 65 3 76 4 3
9 13 11 21 3 14 46 50 48 40 0 -3 8 1 16 8 28 22 87 11 115 -22 19 -23 21 -31
11 -37 -10 -7 -10 -9 0 -9 7 0 12 -14 12 -36 0 -29 -3 -35 -16 -30 -15 6 -15
4 -3 -11 7 -10 14 -19 15 -21 1 -1 9 9 19 24 9 15 12 23 6 19 -8 -5 -10 1 -6
18 4 14 2 35 -5 46 -9 17 -8 21 5 21 8 0 15 5 15 11 0 5 5 7 12 3 6 -4 8 -3 5
3 -4 6 11 23 32 37 22 15 42 37 45 49 7 30 0 33 -14 6 -13 -24 -60 -67 -93
-85 -17 -10 -24 -7 -42 14 -13 15 -32 25 -48 25 -17 0 -24 4 -20 11 3 6 0 6
-8 -1 -7 -7 -31 -13 -54 -13 -23 0 -46 -5 -52 -11 -8 -8 -13 -8 -17 0 -4 6
-15 11 -24 11 -15 -1 -15 -2 2 -15 12 -9 29 -12 45 -8 23 6 25 5 12 -10 -7
-10 -19 -17 -26 -17 -21 0 -66 41 -58 53 4 7 -1 6 -11 -2 -19 -16 -43 -22 -93
-23 -18 0 -30 -5 -27 -9 3 -5 0 -9 -6 -9 -6 0 -22 -11 -35 -24 -14 -14 -27
-21 -30 -16 -3 5 8 18 25 30 17 12 28 26 24 31 -3 5 -2 9 3 8 4 -1 11 0 16 1
4 1 13 3 19 4 7 0 14 10 15 21 3 18 2 18 -5 2 -9 -22 -22 -24 -33 -5 -5 8 -9
9 -9 2 0 -7 -9 -14 -20 -17 -11 -3 -20 -1 -20 4 0 5 7 9 17 9 9 0 14 3 10 6
-8 8 -67 -18 -61 -27 2 -4 0 -10 -6 -14 -5 -3 -10 -1 -10 6 0 6 -10 -1 -22
-17 -26 -36 -44 -54 -34 -36 4 6 2 12 -4 12 -6 0 -8 5 -4 13 6 9 4 9 -8 -1
-14 -11 -16 -9 -13 20 1 18 6 45 9 60 5 21 3 26 -8 22 -17 -6 -27 -91 -14
-116 5 -11 5 -18 -2 -18 -5 0 -10 8 -10 18 -1 16 -1 16 -10 0 -11 -17 -36 -17
-67 1 -11 6 -13 11 -5 11 17 0 42 25 42 42 0 10 -2 11 -8 0 -12 -18 -45 -3
-37 17 3 11 0 9 -12 -5 -20 -22 -87 -33 -98 -15 -3 6 0 18 9 26 17 17 30 20
21 5 -10 -16 1 -12 15 6 11 12 11 15 -1 12 -8 -2 -14 3 -14 10 0 6 5 12 10 13
6 0 17 7 26 15 19 17 71 23 76 7 2 -6 13 -8 25 -5 19 4 20 2 14 -22 l-7 -27
23 20 c12 12 28 21 37 21 18 0 6 13 -14 16 -8 1 -12 -2 -9 -8 4 -6 1 -9 -7 -6
-8 3 -13 14 -12 24 1 10 0 13 -3 7 -3 -7 -10 -13 -15 -13 -6 0 -8 4 -4 9 3 6
-207 10 -550 11 l-555 1 0 -31 c0 -42 -65 -128 -120 -159 -37 -20 -42 -21 -37
-7 4 10 7 24 7 31 0 7 11 27 25 43 14 17 25 35 25 40 0 13 41 56 67 71 14 8 1
10 -51 11 -68 0 -68 0 -62 -25 5 -20 -1 -32 -34 -64 -22 -21 -40 -45 -40 -52
0 -7 -11 -24 -23 -38 -13 -15 -30 -42 -37 -61 -16 -41 -29 -60 -42 -60 -5 0
-3 10 3 23 13 22 30 97 30 131 0 10 7 25 15 33 7 8 14 22 14 32 0 10 9 26 20
36 49 44 41 45 -335 45 l-355 0 2 -167z m2388 19 c0 -4 -9 -13 -21 -20 -12 -8
-18 -19 -15 -28 3 -8 -1 -17 -9 -20 -7 -3 -11 -12 -9 -19 3 -7 0 -16 -6 -20
-17 -11 -23 1 -11 24 6 11 7 22 2 25 -5 3 -12 -5 -15 -18 -6 -24 -34 -42 -45
-30 -3 4 0 9 7 11 6 3 12 9 12 14 0 5 -15 0 -34 -11 -19 -10 -43 -20 -53 -22
-22 -4 -43 -22 -43 -38 0 -6 -7 -13 -15 -16 -8 -4 -12 -10 -9 -15 3 -5 -1 -9
-8 -9 -10 0 -10 -2 0 -9 18 -11 -3 -47 -31 -55 -17 -4 -18 -1 -13 27 3 18 13
37 21 43 18 14 20 28 3 18 -7 -4 -10 -4 -6 0 3 4 10 7 15 7 4 0 23 14 41 31
17 18 32 28 32 23 0 -5 7 0 16 11 8 10 13 12 9 4 -4 -8 2 -4 13 10 12 14 19
26 17 29 -8 7 26 32 62 46 42 15 93 19 93 7z m-640 -23 c0 -5 5 -7 12 -3 16
10 78 11 78 1 0 -5 3 -6 8 -4 4 3 13 -1 19 -9 7 -7 9 -15 4 -19 -5 -3 -11 1
-13 7 -3 8 -10 3 -18 -12 -13 -24 -12 -24 5 -10 10 8 20 14 22 13 14 -11 24 1
19 22 -4 16 -2 25 5 25 7 0 10 -3 6 -6 -3 -3 -2 -17 4 -31 6 -17 6 -22 -2 -17
-7 4 -10 1 -7 -7 3 -8 11 -14 20 -14 8 0 26 -8 39 -17 l24 -17 -42 0 c-34 -1
-41 2 -37 14 5 13 1 12 -25 -2 -17 -10 -31 -22 -31 -26 0 -5 5 -5 10 -2 6 3
10 -3 10 -14 0 -16 5 -19 30 -16 31 4 106 -13 97 -22 -3 -2 -9 -5 -14 -5 -4 0
-16 -4 -27 -10 -12 -7 -16 -7 -12 0 7 12 -30 27 -56 23 -9 -1 -20 4 -25 11 -5
9 -9 2 -13 -20 -3 -18 -8 -33 -12 -32 -15 0 -44 -35 -35 -41 5 -4 6 -12 3 -18
-10 -15 -29 -14 -21 2 4 6 -5 -3 -20 -20 -14 -18 -31 -33 -36 -33 -13 0 12 52
38 76 12 12 19 25 16 28 -4 3 2 15 12 26 10 11 15 20 10 20 -4 0 -1 8 6 17 12
15 12 16 -3 10 -12 -4 -18 -2 -18 8 0 8 5 15 12 15 6 0 8 3 5 7 -9 9 13 34 24
27 5 -3 6 2 3 10 -3 8 0 24 6 35 11 21 9 21 -44 19 -31 -2 -56 -6 -56 -10 0
-5 -7 -8 -16 -8 -8 0 -12 -4 -9 -10 5 -8 -5 -12 -31 -9 -3 0 -15 -12 -26 -26
-12 -15 -27 -24 -35 -21 -8 3 -11 2 -8 -3 3 -5 -4 -12 -15 -16 -11 -3 -20 -11
-20 -16 0 -5 -7 -9 -15 -9 -28 0 -116 -50 -109 -62 5 -7 3 -8 -5 -3 -9 5 -6
14 13 34 27 28 35 48 14 35 -7 -4 -8 -3 -4 5 4 6 11 9 16 6 4 -3 13 2 20 10 8
10 20 13 34 9 19 -6 19 -5 7 10 -12 14 -12 16 4 10 13 -5 16 -4 11 5 -4 6 -4
11 1 10 21 -4 34 4 67 39 20 20 36 31 36 23 0 -10 4 -11 13 -3 6 5 23 12 37
15 14 2 28 5 33 6 4 0 7 -4 7 -10z m316 -172 c-8 -20 -20 -32 -31 -32 -10 0
-20 -6 -23 -13 -3 -9 3 -13 14 -12 34 4 37 0 19 -20 -10 -11 -21 -17 -26 -15
-4 3 -11 0 -15 -6 -4 -8 -3 -9 4 -5 8 5 12 -1 12 -16 0 -18 -2 -20 -10 -8 -8
12 -10 12 -10 -5 0 -11 -14 -35 -30 -54 -17 -18 -30 -37 -30 -42 0 -5 -8 -6
-17 -3 -16 5 -16 4 -3 -6 11 -9 12 -13 2 -17 -6 -2 -9 -9 -6 -15 5 -7 -2 -9
-20 -6 -14 3 -26 1 -26 -5 0 -6 -3 -7 -6 -4 -4 3 -15 2 -26 -4 -30 -16 -56
-20 -148 -24 -47 -2 -87 -4 -89 -4 -3 -1 4 -8 15 -17 10 -8 14 -13 7 -10 -6 4
-15 1 -18 -5 -5 -6 -22 -9 -44 -5 l-36 5 33 -15 c20 -9 30 -19 26 -26 -4 -6
-3 -8 3 -5 9 6 53 -26 53 -38 0 -6 -56 24 -88 46 -14 10 -26 31 -29 50 -10 65
-41 80 -40 19 1 -31 4 -37 14 -28 19 16 17 -51 -2 -72 -8 -9 -17 -32 -19 -51
-6 -47 -6 -47 -16 -24 -7 16 -9 14 -9 -14 -1 -19 -4 -32 -7 -28 -4 3 -3 27 1
53 5 35 9 44 17 33 8 -12 9 -12 5 1 -2 8 -10 15 -18 15 -19 0 -28 26 -17 50 9
20 9 20 -6 1 -12 -15 -14 -33 -10 -72 4 -29 3 -61 -2 -71 -9 -21 -12 -83 -3
-77 8 4 49 -43 49 -56 0 -6 5 -10 11 -10 6 0 9 -7 5 -15 -3 -8 -1 -15 4 -15
15 0 11 -73 -5 -94 -14 -18 -15 -18 -25 9 -8 20 -7 32 2 44 10 13 10 14 -1 4
-8 -7 -26 -9 -41 -6 -15 3 -31 0 -34 -6 -6 -10 13 -16 37 -12 5 1 5 -3 2 -9
-8 -14 23 -50 42 -50 7 0 16 7 19 15 4 8 14 15 23 14 10 0 11 -2 4 -6 -19 -7
-16 -24 7 -48 22 -23 39 -95 24 -95 -5 0 -8 -24 -6 -52 3 -49 2 -52 -13 -34
-8 11 -15 23 -15 27 0 4 -13 12 -30 18 -16 5 -31 15 -31 20 -1 6 -2 17 -3 24
0 6 -13 13 -29 15 -17 2 -25 8 -21 14 5 7 2 8 -5 4 -7 -5 -10 -14 -7 -22 7
-18 1 -18 -19 2 -13 13 -14 19 -4 25 19 11 -6 61 -28 57 -10 -2 -17 3 -16 9 2
7 5 37 7 65 2 29 13 80 24 113 13 39 16 62 9 66 -6 5 -1 21 13 44 17 28 23 53
24 105 0 37 4 64 7 58 3 -5 9 0 12 11 3 12 2 19 -3 16 -4 -3 -10 1 -12 8 -7
18 11 77 23 77 6 0 8 4 5 9 -3 5 1 14 9 21 8 7 15 9 15 4 0 -5 7 -1 14 9 8 10
20 19 28 21 7 1 19 5 26 9 7 5 12 4 12 -3 0 -6 10 -8 27 -4 22 6 25 4 19 -11
-5 -14 -4 -15 7 -7 7 6 30 11 52 10 22 0 63 0 90 1 79 2 135 -3 135 -11 0 -5
-12 -8 -26 -8 -14 0 -34 -5 -45 -11 -19 -10 -49 -15 -97 -18 -13 0 -21 -5 -17
-11 3 -5 13 -6 22 -3 12 5 14 3 8 -8 -6 -11 -5 -11 5 -2 7 6 19 9 26 6 8 -3
14 1 14 8 0 7 3 10 6 6 4 -3 19 0 35 8 15 8 37 15 48 15 13 0 28 13 41 38 14
25 19 29 14 12 -5 -22 -4 -23 8 -10 19 20 42 73 28 65 -7 -4 -9 2 -4 20 6 25
5 26 -22 19 -16 -4 -38 -13 -50 -21 -19 -12 -74 -15 -74 -3 1 17 56 40 98 43
28 1 48 5 46 8 -2 4 4 10 14 14 29 13 42 14 37 2 -3 -7 0 -3 7 8 24 36 80 84
94 78 11 -4 11 -10 0 -36z m-632 2 c-10 -12 -49 -51 -86 -87 -38 -36 -68 -72
-68 -79 0 -7 -5 -13 -11 -13 -5 0 -7 -5 -3 -12 5 -8 12 -1 21 21 l14 33 42
-26 c23 -14 41 -29 40 -34 -1 -6 6 -8 16 -5 30 8 32 -11 7 -46 -30 -40 -49
-112 -38 -142 11 -30 -4 -126 -27 -169 -19 -36 -27 -75 -37 -190 -6 -74 -14
-87 -41 -70 -16 10 -16 11 0 6 16 -5 22 5 17 29 -1 6 -3 17 -5 27 -2 9 3 24
10 35 19 24 18 33 0 33 -14 0 -19 -11 -16 -37 1 -7 -6 -13 -15 -13 -11 0 -14
5 -10 16 3 9 9 27 12 40 3 13 10 24 16 24 5 0 6 5 3 10 -4 6 5 27 20 46 15 19
29 50 32 67 3 18 10 35 16 39 7 4 6 12 -4 24 -9 11 -9 15 -1 10 17 -10 15 9
-2 24 -11 8 -12 18 -6 35 5 13 6 26 3 29 -4 3 -1 6 4 6 7 0 10 15 7 40 -6 48
7 75 49 100 38 24 33 25 -22 5 -22 -8 -41 -11 -41 -8 0 3 -14 -13 -31 -36 -17
-24 -33 -40 -36 -37 -4 3 -12 1 -20 -5 -11 -9 -12 -7 -9 12 3 13 5 30 5 37 1
7 4 11 9 9 4 -3 8 9 9 26 2 31 2 31 -17 11 -10 -10 -21 -38 -24 -61 -5 -41
-31 -93 -46 -93 -14 0 -32 29 -24 41 4 8 3 9 -4 5 -7 -4 -12 -2 -12 4 0 6 -5
8 -10 5 -6 -4 1 -20 16 -41 19 -24 25 -41 20 -59 -4 -14 -11 -25 -17 -25 -6 0
-8 -3 -6 -7 7 -11 -26 -76 -41 -81 -7 -2 -10 2 -7 10 3 8 -3 23 -13 33 -10 11
-18 31 -19 45 -2 22 0 21 17 -10 11 -19 19 -32 20 -27 0 4 -1 9 -2 10 -2 2 3
11 11 20 12 15 11 17 -5 17 -14 0 -19 8 -20 30 -1 16 2 27 7 25 4 -3 11 0 15
7 4 7 3 10 -1 5 -11 -9 -45 22 -45 41 0 11 4 10 18 -5 9 -10 14 -14 9 -7 -4 6
-5 20 -1 30 3 11 2 15 -3 9 -4 -6 -14 -10 -20 -9 -7 1 -17 2 -23 3 -5 0 -10 7
-10 15 0 7 -10 16 -22 19 -18 5 -19 9 -9 21 7 8 18 13 26 10 7 -3 16 0 21 7 4
7 3 10 -3 6 -6 -4 -16 0 -22 7 -10 12 -8 13 9 9 11 -3 23 -9 26 -14 3 -5 13
-5 23 0 10 6 31 12 47 14 21 3 28 9 26 22 -2 10 1 14 7 10 6 -3 11 -1 11 4 0
6 7 11 16 11 8 0 13 4 10 9 -3 5 1 11 9 15 8 3 15 1 15 -3 0 -24 90 29 140 81
27 28 89 76 99 78 2 0 -4 -10 -15 -21z m295 -36 c-10 -11 -10 -17 -3 -20 7 -2
5 -17 -8 -43 -22 -44 -35 -57 -63 -62 -11 -1 -26 -11 -33 -21 -9 -12 -18 -15
-29 -8 -9 4 -23 6 -33 4 -10 -3 -17 1 -17 10 0 10 9 14 23 12 14 -1 21 2 17 8
-4 7 1 8 13 3 10 -4 15 -4 11 0 -8 9 22 46 33 39 4 -2 7 2 7 9 0 8 -10 13 -24
12 -12 0 -23 -5 -23 -10 0 -4 -6 -6 -13 -3 -7 3 -21 -1 -32 -9 -22 -16 -61
-19 -70 -4 -3 5 -12 7 -20 3 -9 -3 -21 0 -29 6 -19 16 -54 22 -61 10 -6 -8 2
-11 22 -8 3 0 10 -6 15 -15 5 -9 13 -14 18 -11 6 3 25 2 43 -3 24 -7 43 -6 67
4 18 8 40 14 49 14 34 -1 -35 -28 -117 -45 -75 -16 -84 -17 -100 -2 -9 9 -28
20 -40 24 -22 8 -20 10 23 41 41 29 50 32 81 23 35 -10 43 -4 22 17 -9 9 -6
12 16 12 20 0 27 -4 23 -14 -5 -11 8 -15 59 -18 35 -2 64 0 64 4 0 4 21 5 46
2 35 -4 45 -2 41 8 -2 7 -12 12 -21 12 -9 -1 -16 2 -16 7 0 5 3 9 8 10 22 2
45 8 50 13 13 13 13 5 1 -11z m1062 -126 c-7 -17 -13 -39 -12 -47 7 -103 1
-130 -20 -100 -8 11 -9 9 -5 -10 21 -86 22 -83 -13 -78 -20 3 -30 1 -28 -6 6
-17 -82 -33 -133 -24 -109 20 -190 4 -190 -38 0 -19 -30 -5 -30 15 -1 9 -7 3
-14 -14 -14 -31 -11 -50 5 -40 5 3 6 -2 3 -12 -5 -16 -4 -16 10 1 8 10 13 23
10 27 -2 4 5 6 16 4 12 -2 18 0 14 6 -7 12 15 41 27 33 5 -3 9 0 9 7 0 7 3 9
6 6 8 -8 -14 -43 -56 -88 -17 -19 -39 -52 -50 -74 -19 -40 -59 -72 -96 -78
-11 -1 -25 -6 -32 -11 -7 -4 -19 -5 -27 -2 -8 3 -15 1 -15 -5 0 -6 -4 -8 -9
-4 -5 3 -13 0 -17 -6 -4 -7 -3 -9 4 -5 5 3 13 0 15 -6 4 -9 8 -10 14 -2 7 9
66 34 81 34 3 0 -7 -13 -23 -30 -16 -16 -34 -30 -41 -30 -19 0 -67 -20 -62
-26 3 -2 17 0 32 5 24 10 25 9 13 -9 -6 -11 -19 -23 -29 -25 -9 -3 -19 -12
-22 -20 -3 -8 -12 -15 -21 -15 -8 0 -15 -4 -15 -10 0 -5 -6 -10 -12 -10 -7 1
-2 10 11 20 13 11 18 20 12 20 -6 0 -19 -9 -28 -19 -9 -11 -20 -18 -25 -15 -4
3 -5 -1 -2 -9 3 -8 -6 -23 -20 -34 -14 -11 -22 -23 -19 -27 3 -3 -2 -6 -13 -6
-10 0 -33 -9 -50 -19 -17 -10 -46 -22 -64 -26 -24 -5 -29 -10 -19 -16 10 -7 6
-8 -12 -4 -15 4 -52 -2 -87 -14 -66 -23 -83 -25 -81 -13 5 32 -15 17 -46 -33
l-18 -30 27 30 27 30 -22 -43 c-21 -38 -24 -41 -31 -22 -4 11 -5 28 -2 38 4
13 3 14 -4 4 -7 -11 -11 -8 -15 9 -8 28 -2 35 16 21 16 -14 27 -6 27 19 0 14
8 19 33 19 66 1 97 5 97 12 0 5 3 7 8 7 21 -4 42 2 37 10 -11 20 67 61 120 64
11 1 26 7 33 14 8 7 18 11 23 8 5 -4 9 -3 9 2 0 4 14 14 30 21 17 8 35 23 41
34 11 20 10 20 -20 -1 -17 -12 -31 -20 -31 -18 0 22 42 75 86 109 30 22 54 45
54 51 0 5 -10 2 -22 -9 l-23 -19 19 22 c10 13 22 20 27 18 4 -3 11 0 15 6 5 8
8 8 14 -1 5 -8 9 -5 13 9 3 13 1 19 -5 15 -15 -9 1 37 20 58 22 26 44 6 32
-28 -10 -26 -2 -32 18 -12 9 9 12 9 12 -2 0 -9 8 -6 25 10 13 12 22 27 19 31
-3 5 0 9 5 9 6 0 11 10 10 23 0 20 -1 20 -8 3 -5 -12 -10 -16 -14 -9 -4 6 -3
22 2 35 5 14 5 31 1 38 -10 16 -3 33 10 25 5 -3 11 -1 15 5 3 5 -1 10 -9 10
-23 0 -20 17 4 23 11 3 20 11 20 19 0 10 -3 9 -10 -2 -7 -12 -9 -10 -8 6 2 21
3 21 45 7 25 -9 40 -19 36 -25 -4 -7 -1 -8 7 -3 11 7 75 16 133 18 9 1 17 5
17 10 0 7 48 5 130 -6 19 -3 26 1 26 14 0 17 -2 17 -18 2 -10 -9 -18 -11 -18
-5 0 6 4 13 10 17 5 3 0 15 -11 26 -16 16 -20 28 -15 52 6 32 13 73 15 91 1 5
4 6 8 3 3 -4 11 -3 17 2 8 7 11 -3 9 -32 0 -23 1 -46 4 -50 6 -10 33 11 33 26
0 6 -6 2 -14 -9 -13 -17 -14 -15 -11 28 3 56 31 106 48 89 8 -8 8 -20 -2 -44z
m-1999 -39 c-7 -7 -12 -23 -12 -37 -1 -33 -13 -49 -72 -91 -27 -18 -48 -39
-48 -46 0 -6 -10 -14 -23 -18 -13 -3 -29 -17 -37 -31 -7 -14 -17 -25 -22 -25
-5 0 -31 -22 -58 -50 -27 -27 -52 -50 -55 -50 -3 0 -14 -9 -25 -20 -11 -11
-26 -20 -34 -20 -19 0 -10 34 15 56 10 9 19 25 19 35 0 10 12 25 28 33 15 8
50 38 79 68 144 146 167 168 183 168 9 0 25 9 35 20 10 11 23 20 29 20 6 0 5
-5 -2 -12z m178 -38 c-12 -22 -13 -33 -2 -26 4 2 16 -3 27 -11 16 -13 17 -15
3 -10 -28 10 -21 -1 12 -18 17 -9 30 -22 30 -30 0 -8 5 -15 11 -15 12 0 4 -48
-10 -63 -11 -11 -42 3 -34 16 3 6 1 7 -5 3 -12 -7 -16 5 -13 32 3 23 -17 12
-21 -13 -3 -14 -1 -23 6 -22 17 3 19 -38 2 -52 -8 -7 -13 -18 -10 -26 3 -7 1
-16 -5 -19 -6 -4 -8 -13 -4 -21 3 -8 2 -23 -1 -32 -6 -14 -9 -15 -16 -4 -4 8
-4 24 0 37 5 12 6 24 3 27 -3 3 5 23 18 44 l22 38 -25 -23 -26 -24 -11 21
c-10 19 -8 24 9 23 3 0 7 9 7 20 1 12 8 25 15 29 7 5 9 9 3 9 -12 0 -43 -20
-32 -20 5 0 1 -7 -8 -16 -11 -11 -20 -13 -26 -7 -14 14 9 61 32 68 12 4 16 12
12 23 -5 11 -8 12 -11 3 -2 -7 -15 -16 -28 -21 -13 -5 -21 -15 -19 -22 3 -8
-1 -22 -10 -33 -13 -17 -16 -18 -25 -5 -6 10 -10 11 -10 3 0 -7 -4 -13 -9 -13
-17 0 2 51 32 83 28 30 30 31 38 12 6 -16 8 -17 8 -3 1 20 62 88 74 81 4 -2 3
-13 -3 -23z m1025 -21 c-6 -19 -4 -20 27 -14 18 3 41 9 52 12 12 3 16 1 12 -6
-10 -16 9 -14 23 3 17 20 54 28 47 10 -3 -8 -1 -14 4 -14 6 0 10 7 10 16 0 22
49 12 89 -17 30 -22 37 -43 31 -94 -2 -19 -30 -67 -30 -52 0 5 -15 -4 -34 -18
-21 -16 -37 -22 -41 -16 -3 6 -24 10 -47 9 -35 -1 -38 -3 -24 -14 11 -8 13
-14 7 -19 -6 -3 -11 -2 -11 4 0 6 -6 9 -12 7 -7 -1 -10 -1 -6 1 4 2 4 11 1 19
-4 12 -8 12 -21 2 -11 -9 -10 -5 3 16 18 28 18 29 0 42 -10 7 -23 10 -29 7 -6
-4 -1 6 12 21 24 32 29 51 10 41 -7 -4 -5 0 4 8 10 8 15 17 11 20 -11 12 -33
-15 -33 -42 0 -18 -3 -22 -9 -12 -7 10 -10 10 -13 1 -3 -10 -9 -10 -26 -1 -17
9 -21 18 -18 34 3 12 3 17 0 10 -3 -8 -18 -10 -37 -7 -27 4 -29 3 -10 -5 12
-6 31 -19 42 -30 l21 -21 -25 2 c-14 1 -25 8 -25 15 0 7 -4 14 -10 14 -20 3
-25 4 -37 12 -7 4 -24 -3 -40 -18 l-28 -25 33 11 c56 19 87 -8 34 -30 -19 -8
-36 -9 -54 -2 -21 8 -30 6 -47 -10 -11 -11 -21 -30 -21 -42 0 -26 -54 -117
-70 -117 -5 0 -10 -5 -10 -12 0 -6 -6 -19 -13 -27 -16 -19 -50 -162 -50 -211
0 -32 -2 -35 -26 -34 -14 1 -32 -3 -38 -9 -8 -5 -13 -6 -13 0 0 5 6 15 13 23
10 12 9 12 -5 1 -13 -9 -16 -21 -11 -39 4 -18 2 -23 -6 -18 -6 4 -9 12 -6 17
4 5 1 9 -5 9 -6 0 -2 14 10 30 12 17 26 27 32 24 6 -4 8 -2 5 3 -9 14 21 113
34 113 6 0 7 -4 4 -10 -3 -5 -2 -10 3 -10 6 0 12 7 16 15 3 8 2 14 -2 14 -20
-3 -19 5 2 49 13 26 27 67 31 91 7 43 8 44 20 21 18 -34 26 -2 8 34 -10 19
-11 26 -3 21 8 -5 11 -3 8 6 -3 8 -12 13 -20 11 -8 -1 -32 14 -54 33 -30 28
-34 35 -17 30 13 -4 35 -8 50 -11 34 -6 45 -13 38 -25 -4 -5 2 -6 11 -2 13 5
16 2 12 -8 -16 -43 -18 -58 -7 -65 7 -4 9 -3 6 3 -7 12 17 66 25 58 2 -3 5 2
5 10 0 8 -4 12 -9 9 -4 -3 -15 -1 -24 4 -13 7 -10 10 14 15 17 4 46 22 64 42
18 19 43 38 56 40 12 3 31 7 43 10 11 2 29 16 40 30 26 32 64 35 54 4z m-50
-149 c-2 -23 0 -38 6 -35 14 9 11 -8 -7 -33 -10 -15 -25 -22 -49 -22 -19 0
-36 -4 -40 -9 -3 -6 15 -8 44 -5 35 3 62 -2 93 -16 44 -20 93 -27 84 -11 -7
11 28 21 43 11 8 -4 10 -17 6 -33 -6 -21 -10 -24 -20 -14 -7 7 -11 15 -9 19 3
4 -8 3 -23 -1 -16 -5 -37 -5 -48 -1 -17 6 -54 6 -145 -2 -35 -3 -50 3 -50 20
0 14 2 15 10 2 8 -13 11 -13 22 -1 8 8 8 11 1 7 -6 -3 -13 0 -16 6 -6 17 12
50 23 43 5 -3 12 7 16 22 3 15 12 33 19 38 6 6 17 20 24 33 17 31 20 28 16
-18z m-1076 -2 c11 -11 12 -10 6 2 -4 8 5 2 19 -15 16 -17 25 -37 23 -47 -3
-10 -1 -16 4 -12 5 3 9 0 9 -5 0 -6 -4 -11 -10 -11 -5 0 -10 -10 -10 -21 0
-19 -2 -20 -17 -8 -15 11 -16 11 -5 -1 28 -32 -1 -52 -31 -20 -6 7 -7 10 -1 7
7 -4 11 5 12 25 1 28 0 29 -13 12 -7 -11 -15 -31 -18 -44 -3 -14 -5 -9 -3 13
2 38 2 38 -15 16 -13 -17 -15 -29 -8 -47 6 -15 5 -21 -1 -17 -5 3 -12 -6 -16
-20 -3 -13 -10 -22 -16 -19 -5 3 -7 12 -4 20 3 8 0 13 -7 11 -7 -1 -12 8 -11
21 0 12 -3 22 -6 22 -8 0 -7 19 4 72 5 21 12 35 17 32 5 -3 9 2 9 11 0 28 65
45 89 23z m286 -58 c-3 -5 1 -10 10 -10 12 0 15 -5 10 -17 -4 -10 -10 -26 -12
-35 -5 -16 -15 -22 -34 -20 -4 1 -6 -11 -6 -25 0 -24 1 -25 12 -10 18 25 20
22 22 -33 1 -28 -2 -50 -7 -50 -6 0 -10 -5 -10 -11 0 -5 4 -8 9 -5 5 3 9 -10
9 -29 0 -20 -5 -33 -11 -32 -7 1 -10 -10 -9 -30 2 -20 -5 -45 -21 -70 -36 -58
-50 -86 -39 -79 6 3 13 2 17 -4 3 -5 1 -10 -5 -10 -6 0 -9 -4 -6 -9 3 -5 -3
-20 -15 -32 -11 -13 -18 -18 -14 -11 10 20 0 14 -26 -15 -18 -21 -19 -24 -4
-13 17 12 18 12 7 0 -7 -8 -18 -15 -25 -15 -7 -1 -11 -6 -10 -11 1 -6 -14 -26
-34 -45 l-36 -34 51 96 c28 52 52 111 54 130 3 19 9 34 15 34 6 0 15 4 20 9 5
5 3 6 -4 2 -22 -13 -15 31 11 61 12 15 21 34 19 41 -3 6 0 12 7 12 6 0 8 4 5
10 -3 5 -1 19 5 30 7 13 7 20 1 20 -6 0 -14 -15 -19 -32 l-10 -33 -14 33 c-16
37 -15 145 1 150 6 2 9 7 7 11 -3 4 1 8 9 8 13 0 13 -4 -1 -25 -9 -13 -11 -21
-5 -18 6 4 11 2 11 -4 0 -6 5 -8 10 -5 6 4 8 10 5 15 -6 9 21 86 38 108 11 14
21 16 12 2z m1212 -122 c-23 -53 -40 -136 -33 -166 5 -20 4 -23 -4 -12 -8 12
-10 10 -10 -11 0 -15 -7 -46 -15 -70 -9 -24 -18 -59 -20 -78 -6 -48 -15 -52
-15 -7 0 33 -3 38 -19 33 -14 -3 -18 -1 -14 10 3 7 8 12 11 9 3 -3 15 14 28
39 23 42 31 94 18 108 -16 16 -80 -93 -70 -119 2 -6 -4 -26 -15 -44 -16 -25
-17 -35 -8 -46 7 -8 8 -18 4 -22 -4 -4 -10 -1 -13 7 -4 11 -6 11 -13 0 -13
-21 -12 7 2 33 14 26 9 29 -29 22 -38 -8 -43 -22 -7 -19 25 3 32 -5 18 -19 -4
-4 -9 -19 -10 -34 -3 -21 -1 -24 7 -12 5 8 10 10 10 4 0 -6 -8 -18 -17 -25
-10 -8 -14 -9 -10 -2 4 6 3 14 -2 17 -14 9 -21 -20 -8 -33 8 -8 14 -7 24 1 11
9 12 6 4 -16 -7 -17 -7 -26 -1 -26 6 0 10 7 10 15 0 7 8 19 18 24 9 6 12 11 5
11 -19 0 -11 40 8 40 9 0 22 14 29 30 15 36 31 39 28 5 -1 -14 -6 -25 -10 -25
-4 0 -5 -7 -2 -15 5 -13 9 -13 22 -3 9 8 4 -9 -12 -40 -28 -55 -41 -67 -32
-29 6 20 5 20 -4 2 -5 -11 -14 -39 -20 -62 -6 -24 -14 -43 -19 -43 -4 0 -13
-12 -19 -26 -7 -14 -17 -22 -22 -19 -6 3 -10 2 -10 -3 0 -5 -19 -31 -43 -57
-35 -37 -51 -47 -85 -52 -34 -5 -42 -3 -42 11 0 9 8 16 19 16 10 0 30 17 45
40 14 22 33 40 42 40 12 0 11 -5 -7 -21 -23 -19 -23 -20 -2 -10 12 6 37 25 55
42 18 18 27 29 21 25 -20 -11 -16 54 5 77 9 11 12 17 5 13 -8 -4 -15 2 -19 18
-8 32 -74 93 -96 88 -21 -4 -25 27 -5 48 6 8 2 6 -10 -4 -13 -11 -23 -15 -23
-10 0 9 40 38 50 36 3 0 8 8 12 19 4 11 12 17 18 14 5 -3 10 -2 10 3 0 16 48
33 54 19 2 -7 5 -4 5 6 1 11 6 15 13 11 7 -4 8 -3 4 5 -8 13 10 41 27 41 6 0
7 -16 3 -40 -3 -22 -4 -40 -2 -40 4 0 26 84 28 109 1 15 79 92 92 91 4 -1 14
9 20 22 7 13 17 32 23 43 7 11 14 29 18 39 3 10 8 16 11 13 3 -3 -1 -20 -9
-39z m-568 -178 c12 -6 21 -7 21 -1 0 5 -6 12 -12 14 -7 3 -3 6 10 6 20 1 27
-9 23 -32 -1 -5 3 -6 9 -2 6 3 8 10 5 15 -3 4 4 6 16 3 16 -4 17 -8 7 -14 -7
-5 4 -6 26 -2 35 5 39 4 33 -12 -6 -14 -3 -16 18 -11 15 4 25 2 25 -4 0 -6 5
-8 10 -5 6 3 10 2 10 -4 0 -20 -50 -39 -125 -46 -32 -3 -46 2 -70 22 l-30 26
28 -5 c31 -6 36 6 9 21 -20 11 -59 -16 -80 -55 -11 -21 -72 -51 -72 -36 0 4
-4 1 -9 -6 -4 -7 -14 -14 -22 -16 -8 -1 -24 -8 -36 -14 -21 -12 -27 -9 -24 11
0 4 -4 7 -11 7 -11 0 -2 15 10 15 19 2 56 19 72 33 39 36 55 47 62 45 4 -2 16
11 28 27 22 30 16 40 -10 18 -12 -11 -12 -10 -1 4 14 19 43 18 80 -2z m-1071
-22 c-3 -7 -20 -23 -39 -35 -37 -24 -114 -84 -155 -120 -14 -13 -31 -23 -38
-23 -8 0 -16 -11 -18 -25 -3 -14 -1 -25 3 -25 5 0 9 -14 9 -31 0 -17 5 -39 11
-50 6 -11 9 -25 7 -31 -2 -6 -12 6 -22 26 -14 29 -22 37 -37 33 -12 -3 -19 0
-19 9 0 10 -6 8 -20 -6 -21 -21 -27 -35 -11 -26 5 4 7 -3 4 -14 -3 -11 -9 -17
-14 -14 -5 3 -7 11 -3 17 3 7 -4 1 -15 -13 -11 -14 -21 -29 -21 -34 0 -5 -3
-7 -6 -4 -8 9 20 60 46 83 12 11 29 33 37 49 12 22 17 26 24 15 6 -9 9 -10 9
-2 0 6 -5 15 -10 18 -7 4 -1 16 15 31 27 25 52 33 39 12 -4 -7 -3 -8 4 -4 7 4
12 13 12 21 0 13 116 110 132 110 3 0 10 4 15 9 5 5 3 6 -4 2 -7 -4 -13 -4
-13 -1 0 6 59 34 73 35 5 0 7 -6 5 -12z m564 -58 c15 -7 25 -17 22 -21 -3 -5
0 -9 6 -9 7 0 10 -7 7 -15 -4 -8 -2 -17 3 -20 6 -4 10 -12 10 -18 0 -7 -4 -6
-10 3 -9 13 -10 13 -11 0 -1 -8 -2 -22 -3 -30 0 -8 5 -20 13 -26 15 -12 25
-77 16 -111 -9 -38 -20 -26 -18 19 0 24 -4 47 -10 51 -8 6 -5 7 6 3 21 -7 23
10 2 18 -9 3 -18 -1 -22 -10 -8 -23 -20 0 -18 36 1 16 -2 27 -7 24 -4 -3 -8
-11 -8 -19 0 -8 -4 -16 -9 -19 -4 -3 -6 7 -4 22 4 21 2 24 -6 12 -6 -8 -15
-16 -21 -16 -5 -1 -14 -2 -20 -3 -5 0 -7 -7 -4 -15 3 -8 13 -13 22 -10 9 2 1
-3 -18 -13 -19 -9 -38 -16 -42 -15 -5 1 -8 -3 -8 -9 0 -6 7 -9 15 -5 8 3 15 1
15 -4 0 -11 -11 -13 -34 -4 -9 3 -13 10 -10 15 3 5 1 9 -3 9 -10 0 -15 68 -6
90 7 18 10 27 12 39 2 17 46 58 66 63 29 6 47 4 77 -12z m282 -144 c-2 -12 -5
-36 -8 -54 -3 -19 -1 -30 5 -26 5 3 6 10 3 16 -4 6 -1 9 7 6 8 -3 14 -9 14
-14 1 -5 6 -19 13 -32 7 -12 10 -27 7 -32 -3 -6 1 -10 9 -10 22 0 21 -59 -1
-75 -18 -14 -47 -9 -37 6 3 5 0 9 -7 9 -8 0 -7 6 3 18 24 27 7 61 -27 54 -21
-4 -27 0 -32 17 -4 17 -8 19 -19 10 -11 -9 -13 -9 -9 3 3 7 -1 33 -9 56 -16
44 -5 58 15 20 6 -13 19 -30 29 -39 15 -15 16 -13 12 37 -2 29 -1 61 2 70 6
16 8 16 20 -1 7 -10 12 -27 10 -39z m466 -6 c0 -5 9 -10 21 -10 16 0 19 -4 14
-22 -5 -18 -4 -19 4 -8 8 12 12 9 20 -13 13 -35 14 -77 2 -77 -5 0 -8 -14 -7
-31 1 -16 -2 -33 -7 -36 -6 -3 -7 -1 -3 5 10 17 -1 15 -24 -5 -11 -10 -24 -17
-28 -17 -4 1 -17 -2 -29 -7 -16 -6 -23 -5 -24 4 0 9 -2 9 -6 -1 -9 -24 -22 -1
-13 24 6 14 6 23 1 20 -15 -9 -31 40 -18 54 9 10 9 11 -2 5 -11 -6 -13 -4 -8
9 4 10 3 15 -3 11 -6 -3 -10 1 -10 10 0 12 -6 15 -21 10 -21 -7 -21 -7 -4 22
10 17 29 37 44 46 29 18 101 23 101 7z m-180 -245 c-7 -8 -18 -15 -26 -15 -7
0 -15 -4 -18 -8 -3 -5 9 -8 27 -7 18 1 43 -2 56 -7 21 -7 22 -7 12 6 -7 9 -16
15 -19 14 -4 0 -13 0 -21 1 -27 2 10 31 40 31 23 0 27 -3 22 -17 -6 -15 -4
-16 8 -6 20 16 61 20 66 6 2 -6 -10 -19 -26 -28 -17 -8 -31 -19 -31 -24 0 -18
-50 -21 -80 -6 -37 19 -51 19 -26 0 33 -25 0 -34 -79 -21 -70 12 -115 14 -110
6 2 -4 -3 -7 -11 -7 -8 0 -13 6 -10 14 3 8 -5 15 -20 19 -19 5 -22 9 -12 15 9
6 5 9 -14 9 -20 0 -26 4 -22 15 7 17 79 21 89 5 4 -6 11 -7 17 -4 8 5 9 1 4
-11 -5 -15 -4 -16 9 -5 9 7 18 10 22 7 3 -4 12 -2 19 4 19 15 64 27 108 28 33
1 37 -1 26 -14z m-380 -78 c0 7 7 10 15 7 8 -4 21 -2 28 4 8 7 19 7 35 -2 l22
-12 -29 -22 c-41 -30 -53 -28 -16 4 24 20 18 18 -35 -11 -36 -20 -93 -50 -127
-67 -34 -18 -64 -37 -66 -42 -2 -6 -2 -1 0 12 2 12 -1 22 -7 22 -9 0 -15 -28
-11 -57 3 -21 -16 -15 -22 7 -3 12 -1 18 5 14 6 -4 9 -1 6 6 -2 8 -9 15 -15
17 -14 5 -23 -43 -10 -56 7 -7 5 -12 -7 -17 -9 -4 -20 -4 -23 0 -4 3 1 6 11 6
9 0 15 4 11 10 -8 12 -37 1 -53 -22 -21 -29 -42 -22 -42 13 0 17 4 28 10 24
14 -9 13 41 -2 68 -10 20 -10 21 5 8 10 -7 17 -22 17 -32 0 -10 5 -21 12 -25
8 -5 9 0 6 14 -4 12 -3 22 2 22 4 0 19 11 33 25 16 16 28 22 32 15 3 -6 11 -8
16 -4 5 3 7 10 4 15 -4 5 -2 9 4 9 5 0 14 -8 20 -17 9 -16 12 -15 38 11 15 16
22 26 16 22 -7 -4 -13 -3 -13 2 0 19 14 21 26 4 11 -14 15 -14 22 -4 5 8 12
13 16 13 17 -1 36 13 36 27 0 13 3 12 15 -4 8 -10 15 -14 15 -7z m-37 -97 c-5
-18 -2 -20 24 -16 26 5 31 1 51 -37 11 -23 21 -34 21 -24 1 9 6 17 11 17 7 0
7 -7 0 -20 -11 -21 -6 -40 11 -40 10 0 7 49 -5 68 -4 8 -2 10 8 6 18 -7 28
-32 19 -46 -3 -7 -1 -8 5 -4 7 4 12 1 12 -8 0 -23 20 -30 38 -12 13 13 13 16
2 16 -20 0 -2 16 42 39 24 12 35 14 31 5 -4 -12 -28 -26 -48 -28 -5 -1 -9 -9
-7 -19 2 -9 -4 -20 -13 -23 -22 -9 -18 -27 5 -21 11 3 20 1 20 -5 0 -5 6 -6
13 -2 7 5 7 1 -3 -12 -8 -10 -15 -21 -17 -23 -1 -2 -14 11 -29 28 -14 17 -31
28 -36 24 -7 -3 -8 -1 -4 5 4 7 1 12 -8 12 -29 0 -16 -26 19 -40 35 -14 43
-24 27 -34 -5 -3 -16 3 -24 12 -9 9 -34 30 -57 46 -22 16 -43 38 -47 48 -6 20
-19 24 -29 9 -3 -6 3 -14 12 -20 23 -14 7 -14 -18 -1 -13 7 -19 7 -19 0 0 -5
-9 -10 -21 -10 -14 0 -19 5 -17 18 2 9 11 16 20 16 9 -1 19 5 23 13 4 11 1 13
-11 9 -8 -3 -22 -6 -30 -6 -8 0 -14 -7 -14 -14 0 -13 -4 -13 -34 -1 -18 8 -37
11 -40 7 -4 -3 -4 1 -1 9 7 18 75 53 75 39 0 -6 3 -9 8 -9 19 3 25 -2 12 -11
-9 -6 -10 -10 -3 -10 21 0 26 21 7 34 -16 13 -16 14 2 24 10 6 20 12 21 12 0
0 -1 -9 -4 -20z m-463 -38 c48 -24 74 -71 60 -107 -7 -20 -8 -31 0 -39 5 -5
10 -26 9 -45 l-1 -36 -10 43 c-8 38 -11 41 -30 31 -16 -9 -19 -8 -13 2 6 9 3
11 -9 6 -14 -6 -15 -3 -6 13 6 11 7 21 3 21 -4 1 -24 2 -43 3 -19 2 -59 9 -87
17 -45 12 -53 17 -53 37 0 13 11 34 25 47 30 31 102 34 155 7z m360 -39 c0 -2
-9 -12 -21 -24 -15 -15 -20 -31 -18 -62 3 -51 -9 -99 -24 -90 -6 3 -7 1 -3 -5
4 -7 2 -12 -3 -12 -6 0 -11 6 -11 14 0 7 -8 20 -17 27 -17 13 -17 12 -3 -6 8
-11 -9 3 -38 30 -28 28 -52 53 -52 56 0 3 11 11 25 17 14 7 25 8 25 2 0 -5 16
2 36 15 20 14 43 25 50 25 8 0 14 4 14 9 0 6 9 9 20 8 11 -1 20 -3 20 -4z
m1074 -1 c6 -11 -51 -72 -68 -72 -8 0 -28 -11 -44 -25 -17 -14 -34 -25 -39
-25 -6 0 -18 -9 -28 -20 -10 -11 -26 -20 -35 -20 -9 0 -20 -4 -25 -9 -10 -8
-31 -17 -134 -52 -71 -25 -71 -25 -25 16 45 39 103 63 113 47 4 -7 12 -7 20
-3 7 5 10 14 7 20 -4 6 4 21 17 33 23 23 43 36 136 89 45 26 95 36 105 21z
m-1947 -32 c11 -23 8 -50 -7 -50 -4 0 -10 9 -13 21 -3 12 -10 18 -16 14 -11
-6 12 -51 34 -68 11 -8 -43 -58 -60 -55 -18 3 -55 -13 -55 -24 0 -5 -8 -7 -17
-4 -16 5 -16 5 -3 -6 9 -7 14 -21 12 -31 -3 -13 -10 -16 -30 -11 -23 4 -24 3
-9 -6 9 -6 17 -16 17 -23 0 -9 -3 -8 -9 1 -4 7 -14 12 -21 10 -10 -2 -14 11
-14 54 l-1 56 38 13 c40 13 45 32 9 37 -21 3 -29 21 -16 34 3 4 24 -2 47 -13
23 -10 52 -19 65 -19 21 0 22 2 10 23 -12 21 -12 36 -3 65 7 19 28 10 42 -18z
m1056 -37 c50 -25 25 -43 -63 -46 -48 -2 -55 -16 -41 -78 5 -24 9 -44 8 -45
-1 -1 -21 6 -45 17 -28 13 -40 24 -35 32 8 12 13 33 15 55 1 6 5 12 10 12 5 0
6 5 3 11 -4 5 -9 23 -12 39 l-4 29 68 -6 c37 -3 80 -12 96 -20z m-583 -23 c10
-6 11 -10 3 -10 -20 0 -15 -15 15 -45 21 -22 23 -27 7 -20 -30 12 -68 11 -72
-2 -2 -6 5 -14 17 -18 11 -3 18 -10 15 -15 -3 -4 2 -13 10 -20 17 -14 10 -34
-8 -24 -7 3 1 -5 17 -18 25 -21 27 -26 12 -31 -10 -4 -14 -11 -11 -17 3 -5 0
-10 -8 -10 -8 0 -21 -7 -28 -16 -12 -15 -9 -16 31 -9 42 6 44 6 25 -9 -19 -15
-19 -15 -1 -16 16 0 15 -3 -8 -21 -33 -26 -34 -47 -1 -25 31 20 47 21 18 1
-22 -16 -53 -68 -53 -91 0 -7 -4 -15 -9 -18 -5 -4 -7 12 -4 36 l5 43 -29 -31
c-15 -17 -34 -39 -40 -50 -8 -11 -6 -2 2 20 9 22 20 46 27 53 9 11 7 12 -7 7
-12 -5 -16 -4 -12 3 8 12 -53 24 -130 27 -29 0 -57 6 -63 12 -9 9 -5 10 14 7
16 -3 26 -1 26 6 0 6 -13 14 -30 18 -16 3 -30 9 -30 14 0 5 24 0 53 -11 28
-11 61 -20 71 -20 19 0 19 0 0 21 -10 12 -28 25 -39 30 -16 6 -14 8 15 9 52 3
87 14 72 24 -23 14 -12 26 28 32 32 5 38 9 29 20 -6 7 -32 16 -57 20 l-47 8
48 7 c56 9 62 12 54 34 -6 13 -49 22 -82 15 -6 -1 -5 4 1 10 6 6 31 14 54 17
39 6 41 7 25 20 -18 12 -17 13 8 13 17 0 27 5 27 15 0 17 18 19 40 5z m-750
-55 c0 -4 -7 -19 -15 -35 -9 -18 -11 -31 -5 -35 6 -3 10 1 10 9 0 19 6 23 53
31 23 5 37 3 37 -3 0 -6 -10 -8 -21 -5 -19 5 -20 4 -10 -16 7 -11 16 -21 21
-21 5 0 7 -7 4 -15 -5 -13 -10 -13 -33 0 -15 7 -33 10 -40 6 -8 -6 -3 -10 16
-14 34 -7 90 -55 94 -82 3 -14 -4 -21 -26 -28 -52 -16 -125 -50 -137 -64 -17
-20 -3 -16 50 17 27 17 57 30 66 30 21 0 20 -28 -3 -64 -13 -19 -17 -36 -12
-49 13 -34 1 -69 -20 -64 -26 7 -24 -2 3 -12 15 -5 21 -16 22 -39 1 -32 -4
-39 -18 -24 -4 4 -13 7 -19 7 -6 0 -20 15 -31 34 -18 31 -18 34 -3 28 24 -9
21 10 -3 25 -11 7 -20 18 -20 25 0 7 -4 13 -10 13 -14 0 -48 70 -50 105 -4 56
-2 61 16 43 14 -14 20 -14 50 -2 25 10 45 12 74 5 35 -8 42 -6 51 10 6 13 6
19 -1 19 -5 0 -10 -4 -10 -9 0 -5 -24 -9 -52 -8 -29 1 -65 -1 -80 -5 -27 -7
-27 -6 -11 19 9 13 28 30 42 35 22 10 23 12 7 16 -10 2 -23 -1 -29 -7 -6 -6
-17 -11 -25 -11 -22 0 -5 71 23 98 14 13 25 27 25 32 0 6 5 10 10 10 6 0 10
-2 10 -5z m926 -30 c-3 -9 0 -15 10 -15 12 0 15 -7 12 -25 -7 -35 5 -31 25 8
17 31 17 32 14 4 -4 -22 -2 -25 9 -16 8 6 14 8 15 3 1 -5 5 2 9 16 7 23 8 22
9 -10 2 -49 15 -68 30 -44 9 16 10 13 11 -18 0 -37 19 -55 21 -20 0 13 2 14 6
2 4 -8 12 -21 20 -28 7 -7 13 -20 13 -29 0 -9 6 -13 15 -9 11 4 15 -1 15 -17
1 -20 2 -21 14 -5 12 16 14 16 24 -6 9 -21 8 -23 -10 -18 -11 3 -24 -1 -29 -9
-6 -10 -9 -10 -9 -1 0 6 -6 12 -12 12 -7 0 -26 7 -43 16 -17 9 -40 13 -54 9
-25 -6 -25 -6 -7 14 17 19 17 21 2 27 -9 3 -16 15 -16 26 0 18 -2 18 -31 -6
-17 -14 -36 -26 -42 -25 -7 0 -2 5 10 11 51 25 25 68 -33 54 l-24 -6 20 32
c25 41 25 48 0 48 -22 0 -28 25 -7 33 19 8 19 8 13 -8z m19 -235 c-3 -5 9 -19
28 -30 19 -11 39 -32 45 -46 7 -14 17 -22 23 -19 6 4 -4 21 -25 41 -19 18 -31
36 -27 38 9 6 71 -33 71 -46 0 -5 4 -7 9 -4 5 4 7 -3 4 -14 -4 -16 -2 -19 11
-14 13 5 16 -1 16 -35 0 -23 -4 -41 -9 -41 -4 0 -6 11 -4 24 3 13 1 26 -4 29
-5 3 -10 -9 -11 -26 -3 -44 -23 -95 -38 -101 -10 -4 -11 1 -4 19 13 35 5 31
-20 -10 -17 -27 -25 -33 -38 -26 -9 4 -24 6 -32 3 -12 -4 -12 -1 2 14 9 10 22
32 27 48 9 23 16 27 37 23 l25 -4 -25 26 c-14 15 -26 32 -26 39 0 7 -4 12 -9
12 -5 0 -12 14 -16 30 -4 17 -10 28 -14 26 -4 -3 -15 3 -23 13 -15 17 -14 20
6 29 27 14 28 14 21 2z m-40 -38 c36 -33 83 -121 69 -130 -5 -4 -15 -18 -22
-32 -16 -31 -72 -71 -106 -74 -14 -2 -34 3 -43 10 -17 12 -16 13 4 14 12 0 39
12 60 26 l38 26 -41 -7 c-46 -7 -63 10 -44 45 6 10 10 29 10 42 0 13 7 32 15
42 8 11 15 30 15 43 0 30 8 29 45 -5z m-417 -31 c37 -30 52 -49 59 -80 12 -47
6 -51 -27 -16 -28 30 -40 32 -33 5 7 -26 -13 -50 -43 -50 -13 0 -44 16 -70 35
-25 19 -50 35 -55 35 -15 0 -10 32 8 52 9 10 12 18 7 18 -5 0 -19 -15 -31 -33
-14 -19 -23 -25 -23 -16 0 22 34 50 75 65 29 10 35 9 35 -2 0 -8 5 -14 11 -14
6 0 9 9 6 20 -8 33 26 24 81 -19z m2057 -7 c-47 -39 -113 -84 -124 -84 -5 0
-16 -8 -23 -19 -8 -11 -32 -21 -60 -25 -26 -4 -57 -15 -70 -25 -40 -31 -70
-43 -115 -47 l-44 -2 26 24 c14 13 37 27 51 30 13 3 27 10 30 16 3 5 38 24 78
42 40 19 76 41 79 50 4 9 11 16 17 16 6 0 27 8 48 17 56 26 74 31 107 32 l30
0 -30 -25z m-1439 -150 c-5 -13 -1 -15 21 -10 20 5 24 4 14 -3 -13 -8 -13 -12
-1 -26 25 -30 146 -81 179 -76 7 1 10 -2 6 -8 -3 -6 0 -9 8 -5 8 3 18 0 23 -7
5 -8 3 -10 -7 -5 -8 4 -5 0 5 -8 23 -19 32 -20 41 -6 3 6 11 10 18 10 6 0 2
-7 -9 -16 -17 -14 -17 -15 -1 -10 10 3 15 2 12 -3 -3 -5 5 -12 17 -15 13 -3
-1 -3 -30 -1 -29 2 -50 0 -47 -5 3 -5 0 -12 -6 -16 -7 -4 -9 -3 -5 4 9 14 -6
22 -49 26 -19 2 -45 12 -56 22 -12 11 -22 18 -23 16 -2 -6 -38 8 -121 46 -98
44 -107 52 -69 53 37 1 69 13 70 28 3 28 4 31 10 31 3 0 3 -7 0 -16z"/>
<path d="M2269 3006 c-2 -3 -37 -6 -77 -7 -39 -1 -72 -6 -72 -11 0 -4 7 -8 16
-8 12 0 11 -5 -7 -20 l-24 -21 24 13 c20 11 24 11 29 -1 4 -11 8 -10 21 6 16
20 16 20 34 1 19 -20 18 -20 -2 -13 -11 3 -26 3 -33 -2 -21 -12 -39 -12 -31 0
3 7 -3 3 -15 -7 -25 -21 -31 -36 -7 -16 11 9 15 9 15 1 0 -6 -11 -16 -25 -21
-14 -5 -25 -11 -25 -14 0 -7 27 -1 41 10 18 14 48 26 79 31 14 2 29 11 33 19
4 8 15 14 24 14 14 0 14 -2 -3 -16 -18 -14 -17 -14 6 -2 35 18 62 19 56 1 -3
-8 -1 -11 4 -8 6 3 10 1 10 -5 0 -6 9 -4 23 5 13 8 27 12 32 8 4 -5 5 -2 1 5
-4 7 -1 12 8 12 9 0 16 -4 16 -10 0 -5 7 -10 15 -10 8 0 15 5 15 11 0 8 15 9
45 4 28 -4 60 -2 82 6 26 8 38 9 41 1 2 -6 12 -2 23 9 11 11 25 17 31 13 7 -4
8 -3 4 4 -4 7 -3 12 3 12 5 0 12 -6 14 -12 3 -8 6 -6 6 5 1 20 -40 24 -61 5
-16 -16 -54 -22 -62 -10 -3 5 -18 7 -33 5 -16 -3 -36 -5 -45 -6 -10 -1 -18 -5
-18 -9 0 -3 -18 -6 -40 -6 -36 0 -45 7 -41 31 2 14 -12 7 -34 -17 -20 -22 -24
-23 -53 -10 -17 7 -34 9 -37 5 -8 -14 -42 -19 -56 -9 -11 7 -11 8 1 6 8 -1 25
3 38 10 12 7 26 11 30 8 4 -3 14 -1 22 5 11 6 9 9 -11 9 -14 0 -28 -2 -30 -4z"/>
<path d="M270 1741 c0 -7 -4 -10 -9 -6 -5 3 -12 1 -16 -5 -3 -5 -15 -10 -26
-10 -10 0 -19 -4 -19 -8 0 -5 -16 -15 -35 -22 -21 -8 -38 -23 -41 -36 -5 -21
-6 -21 -42 -4 -66 31 -84 34 -80 13 2 -11 34 -33 88 -60 47 -23 90 -46 95 -50
15 -12 69 -11 78 1 6 8 10 7 14 -2 4 -9 9 -10 18 -2 9 7 10 21 5 45 -4 19 -5
36 -3 39 3 3 -2 15 -11 28 -19 26 -21 42 -4 32 7 -4 8 -3 4 4 -4 7 -15 12 -24
12 -13 0 -13 2 4 14 10 8 16 18 11 22 -4 4 -7 2 -7 -5z"/>
<path d="M1606 796 c3 -8 1 -17 -5 -21 -17 -10 -14 -45 3 -39 8 3 30 -9 49
-28 19 -19 39 -32 45 -30 6 2 21 -4 35 -12 34 -23 110 -32 124 -15 15 19 18
59 6 89 -11 26 -44 33 -71 16 -7 -4 -12 -4 -12 1 0 4 -4 4 -8 -2 -17 -24 -46
-32 -71 -19 -15 7 -39 18 -55 24 -18 6 -26 15 -23 24 3 8 0 17 -8 20 -9 3 -12
0 -9 -8z"/>
<path d="M2710 410 c0 -5 -4 -10 -9 -10 -24 0 -64 -21 -55 -30 11 -11 66 -1
58 11 -3 5 3 9 12 9 10 0 15 -3 11 -6 -3 -3 3 -15 14 -27 23 -25 24 -37 5 -37
-8 0 -18 9 -21 20 -7 22 -20 26 -30 10 -3 -5 0 -10 8 -10 8 0 17 -8 20 -19 3
-14 12 -18 33 -15 16 2 23 1 15 -2 -11 -5 -11 -8 0 -16 11 -7 9 -8 -5 -6 -11
2 -32 -9 -47 -24 -28 -29 -54 -37 -46 -15 2 6 8 12 13 11 5 -1 17 7 26 17 13
14 14 20 5 26 -19 12 -38 12 -30 0 4 -6 1 -8 -8 -5 -43 16 -61 19 -55 10 4 -6
-2 -8 -14 -5 -14 4 -20 0 -20 -10 0 -10 -13 -18 -36 -23 -19 -4 -38 -12 -41
-19 -2 -7 -15 -16 -29 -19 -13 -4 -24 -11 -24 -16 0 -5 -33 -25 -72 -45 -40
-20 -77 -42 -83 -49 -5 -7 -23 -21 -38 -31 -40 -26 -26 -30 26 -7 25 11 60 23
78 27 19 4 43 14 54 21 11 8 31 14 46 14 15 0 32 7 39 15 8 9 21 13 36 9 13
-4 24 -2 24 4 0 8 19 18 98 49 25 10 11 -16 -18 -34 -16 -9 -30 -21 -30 -25 0
-12 34 -10 47 3 7 7 23 13 37 14 31 4 105 55 106 74 0 14 -9 9 -54 -31 -20
-18 -56 -24 -56 -10 0 13 55 50 84 58 25 6 37 24 15 24 -5 0 -8 4 -5 8 13 22
13 61 0 66 -8 3 -14 13 -14 23 -1 17 -2 16 -15 -1 -8 -11 -16 -17 -16 -13 -1
4 -2 10 -3 15 -5 25 -36 45 -36 22z"/>
<path d="M1696 178 c-3 -13 -6 -51 -6 -85 0 -71 -10 -80 -30 -28 -8 19 -17 35
-22 35 -4 0 -8 7 -8 16 0 8 -3 13 -7 11 -11 -7 -3 -127 8 -127 5 0 9 10 10 23
l0 22 9 -23 c14 -34 48 -29 58 10 l9 33 7 -32 c7 -31 10 -33 52 -33 48 0 54 9
25 37 -10 10 -22 41 -26 68 l-8 50 -11 -32 c-10 -30 -31 -60 -25 -38 1 6 0 17
-3 25 -4 8 -9 24 -14 35 -4 11 -6 28 -5 38 3 25 -6 21 -13 -5z"/>
<path d="M1265 154 c11 -8 25 -12 31 -10 7 3 10 -2 7 -12 -3 -13 13 -25 65
-49 109 -49 156 -47 165 10 4 24 0 38 -18 56 -23 23 -26 24 -64 11 -25 -8 -41
-20 -45 -33 -5 -19 -7 -20 -23 -5 -24 21 -90 48 -117 48 -21 -1 -21 -1 -1 -16z"/>
</g>
</svg>
