<?xml version="1.0" standalone="no"?>
<!DOCTYPE svg PUBLIC "-//W3C//DTD SVG 20010904//EN"
 "http://www.w3.org/TR/2001/REC-SVG-20010904/DTD/svg10.dtd">
<svg version="1.0" xmlns="http://www.w3.org/2000/svg"
 width="574.000000pt" height="622.000000pt" viewBox="0 0 574.000000 622.000000"
 preserveAspectRatio="xMidYMid meet">
<metadata>
Created by potrace 1.16, written by Peter Selinger 2001-2019
</metadata>
<g transform="translate(0.000000,622.000000) scale(0.100000,-0.100000)"
fill="#000000" stroke="none">
<path d="M6 6211 c-2 -3 -4 -271 -5 -595 -2 -474 1 -591 11 -597 10 -7 10 -9
1 -9 -17 0 -17 -76 0 -84 9 -5 9 -7 0 -12 -17 -7 -17 -31 0 -37 9 -4 9 -6 0
-6 -17 -1 -17 -38 0 -44 9 -4 9 -6 0 -6 -17 -1 -17 -38 0 -44 9 -4 9 -6 0 -6
-15 -1 -18 -31 -3 -31 6 0 5 -8 -2 -20 -11 -17 -10 -22 2 -30 10 -6 11 -10 3
-10 -7 0 -13 -9 -13 -20 0 -11 6 -20 13 -20 8 0 7 -4 -3 -10 -12 -8 -13 -13
-2 -30 7 -11 9 -20 4 -20 -4 0 -8 -266 -10 -592 -1 -463 1 -594 11 -600 9 -6
9 -8 0 -8 -7 0 -13 -9 -13 -21 0 -11 4 -17 10 -14 5 3 10 1 10 -4 0 -6 -4 -11
-10 -11 -5 0 -10 -18 -10 -40 0 -22 5 -40 10 -40 6 0 10 -5 10 -11 0 -5 -4 -7
-10 -4 -7 4 -10 -270 -10 -813 l0 -820 431 -432 c237 -237 428 -434 425 -438
-4 -3 -196 183 -427 414 -489 488 -429 430 -429 417 0 -12 859 -873 871 -873
5 0 9 -4 9 -10 0 -5 -5 -10 -11 -10 -7 0 -203 190 -436 423 -233 232 -426 424
-429 426 -2 2 -4 0 -4 -6 0 -5 163 -172 362 -371 198 -199 358 -365 355 -368
-3 -4 -164 150 -357 342 -400 397 -364 363 -359 347 2 -7 145 -154 317 -328
173 -173 308 -315 302 -315 -7 0 -102 89 -211 197 -316 316 -412 409 -408 396
2 -7 127 -136 278 -288 151 -151 271 -278 268 -282 -4 -3 -108 95 -231 218
-279 279 -319 317 -315 302 2 -7 116 -125 254 -263 137 -137 244 -250 237
-250 -6 0 -118 106 -249 235 -130 129 -239 232 -242 229 -3 -3 92 -103 212
-222 257 -257 233 -232 219 -232 -6 0 -104 92 -218 205 -114 113 -210 203
-213 200 -3 -3 82 -93 189 -200 107 -107 191 -197 188 -200 -3 -3 -88 75 -188
175 -100 100 -185 178 -188 175 -4 -3 69 -81 161 -173 92 -91 166 -171 164
-176 -2 -5 -74 61 -161 148 -86 87 -160 155 -163 152 -4 -4 57 -70 135 -147
78 -78 142 -143 142 -145 0 -18 -38 14 -145 122 -69 70 -128 124 -132 120 -3
-3 46 -58 110 -122 65 -63 117 -117 117 -120 0 -15 -27 8 -118 97 -57 56 -106
98 -110 94 -4 -3 35 -47 87 -96 51 -50 90 -93 87 -96 -3 -3 -13 0 -22 8 -13
11 -18 11 -21 2 -8 -21 -19 -15 -72 39 -28 28 -53 49 -57 46 -3 -3 9 -20 26
-38 36 -37 32 -55 -5 -20 l-25 23 0 -36 c0 -34 35 -85 49 -71 3 3 1 8 -4 12
-6 4 -16 15 -24 25 -23 30 5 19 43 -17 20 -19 36 -29 36 -22 0 6 -5 17 -12 24
-9 9 -9 12 0 12 7 0 33 -21 58 -46 24 -26 48 -43 52 -39 4 3 -6 18 -21 31 -16
13 -27 30 -25 36 3 7 18 -1 37 -21 34 -35 57 -36 26 -1 -10 11 -16 22 -13 25
7 7 58 -41 58 -55 0 -5 3 -10 8 -11 4 0 27 -2 52 -4 l44 -3 -32 28 c-33 28
-39 40 -23 40 12 0 70 -58 64 -63 -2 -3 3 -7 12 -10 23 -9 18 9 -10 37 -27 27
-31 36 -15 36 6 0 22 -12 35 -27 13 -16 26 -25 30 -22 3 4 -2 14 -11 23 -29
30 -5 31 26 1 22 -21 30 -25 30 -13 0 9 -6 18 -12 21 -7 2 -10 8 -5 12 4 5 21
-4 37 -20 28 -27 45 -24 18 3 -9 9 -8 12 5 12 9 0 17 -4 17 -8 0 -5 11 -15 25
-22 13 -7 26 -20 28 -29 3 -10 5 -8 6 7 0 12 -3 22 -9 22 -5 0 -10 5 -10 11 0
16 57 -21 70 -47 7 -12 23 -28 36 -35 13 -7 24 -18 24 -26 0 -7 5 -13 10 -13
17 0 11 18 -16 45 -14 14 -24 29 -21 32 3 3 51 -40 107 -96 55 -56 103 -101
105 -101 12 0 3 24 -13 36 -11 9 -13 13 -4 14 7 0 67 -54 132 -120 85 -86 114
-120 100 -120 -11 0 -19 6 -17 12 1 7 -4 12 -10 11 -7 -2 -13 2 -13 8 0 6 -6
16 -13 23 -14 14 -47 28 -47 20 0 -10 28 -34 39 -34 6 0 11 -6 11 -14 0 -8 6
-16 12 -19 7 -2 10 -7 7 -11 -4 -4 -31 16 -60 44 -30 28 -55 47 -57 41 -2 -6
18 -31 43 -56 26 -25 42 -45 36 -45 -5 0 -36 25 -68 56 -31 31 -59 51 -61 45
-4 -13 21 -41 37 -41 6 0 11 -5 11 -11 0 -14 25 -39 39 -39 6 0 11 -4 11 -10
0 -19 -27 -10 -46 15 -21 28 -34 32 -34 10 0 -8 7 -15 15 -15 8 0 15 -4 15
-10 0 -21 -24 -9 -62 30 -24 26 -38 35 -38 25 0 -9 14 -29 31 -46 17 -17 29
-33 26 -35 -3 -3 -46 35 -97 85 -50 50 -96 91 -101 91 -18 0 -9 -17 16 -30 14
-7 25 -19 25 -27 0 -7 5 -13 11 -13 11 0 39 -25 39 -35 0 -9 27 -35 37 -35 4
0 14 -9 21 -20 28 -45 -13 -16 -99 70 -85 85 -109 103 -109 80 0 -5 5 -10 11
-10 14 0 39 -25 39 -39 0 -6 5 -11 10 -11 11 0 110 -94 110 -105 0 -17 -29 5
-110 85 -86 85 -110 103 -110 80 0 -5 5 -10 11 -10 13 0 39 -25 39 -38 0 -5
11 -15 25 -22 14 -7 25 -19 25 -27 0 -7 5 -13 10 -13 6 0 24 -14 40 -30 19
-20 24 -30 15 -30 -9 0 -38 23 -66 51 -27 28 -55 48 -62 45 -9 -3 -9 -5 1 -5
6 -1 12 -8 12 -16 0 -8 5 -15 10 -15 6 0 29 -18 51 -40 27 -26 35 -40 25 -40
-9 0 -16 5 -16 10 0 6 -4 10 -10 10 -5 0 -39 30 -76 66 -36 36 -68 63 -71 60
-3 -3 27 -37 66 -76 39 -38 65 -70 57 -70 -8 0 -52 38 -100 85 -47 47 -90 85
-97 85 -6 0 28 -38 75 -84 47 -47 86 -87 86 -90 0 -3 -7 -6 -15 -6 -8 0 -15 7
-15 15 0 8 -4 15 -9 15 -5 0 -44 34 -86 75 -42 41 -80 75 -86 75 -6 0 28 -38
75 -85 48 -47 86 -88 86 -90 0 -3 -7 -5 -15 -5 -8 0 -15 6 -15 13 0 8 -11 20
-25 27 -14 7 -25 19 -25 27 0 7 -4 13 -8 13 -5 0 -25 16 -45 35 -21 20 -37 31
-37 25 0 -5 27 -37 60 -70 33 -33 60 -62 60 -65 0 -3 -7 -5 -15 -5 -8 0 -15 7
-15 15 0 8 -4 15 -9 15 -5 0 -39 30 -76 66 -36 36 -69 64 -72 61 -3 -3 32 -43
76 -88 45 -45 79 -84 75 -88 -4 -3 -9 0 -11 7 -3 6 -11 12 -19 12 -8 0 -14 5
-14 10 0 11 -71 82 -104 106 -45 31 -31 10 39 -61 41 -41 68 -75 61 -75 -8 0
-18 5 -21 10 -4 6 -13 4 -23 -6 -12 -13 -17 -14 -20 -4 -6 17 -82 90 -94 90
-4 0 -8 6 -8 14 0 14 -29 30 -38 21 -6 -5 49 -55 61 -55 4 0 7 -6 7 -13 0 -8
11 -20 25 -27 27 -14 35 -43 10 -34 -8 4 -15 10 -15 15 0 5 -5 9 -11 9 -7 0
-9 -9 -6 -21 5 -18 3 -18 -11 -7 -9 7 -31 27 -49 45 -35 37 -43 40 -43 18 0
-8 7 -15 15 -15 8 0 15 -4 15 -8 0 -5 9 -18 20 -30 12 -12 16 -22 11 -22 -5 0
-13 5 -16 11 -5 6 -12 4 -20 -8 -13 -17 -14 -17 -29 2 -14 18 -15 18 -16 3 0
-26 -15 -22 -52 14 -20 19 -28 33 -20 36 7 2 12 8 12 14 0 12 -41 47 -55 48
-7 0 -7 -3 0 -8 27 -20 37 -42 26 -56 -9 -11 -6 -18 14 -34 27 -21 32 -32 14
-32 -6 0 -35 25 -64 55 -30 30 -60 55 -66 55 -7 0 11 -23 40 -51 28 -27 51
-52 51 -55 0 -13 -24 -1 -45 23 -20 23 -24 25 -25 11 0 -10 5 -18 10 -18 6 0
10 -4 10 -10 0 -17 -22 -11 -40 10 -18 20 -18 20 -16 -19 2 -41 15 -66 23 -43
7 19 22 14 48 -15 20 -23 24 -25 25 -10 0 9 -4 17 -10 17 -5 0 -10 5 -10 10 0
18 30 11 30 -7 1 -17 1 -17 14 -1 16 22 23 22 42 4 16 -17 19 -36 4 -36 -5 0
-10 -7 -10 -16 0 -8 4 -13 9 -9 6 3 14 -3 20 -12 9 -16 10 -16 11 -1 0 9 -6
19 -12 22 -10 5 -10 7 -1 12 15 6 18 34 4 34 -5 0 -12 7 -15 16 -3 9 -2 12 5
9 5 -4 17 -1 25 6 13 10 17 10 26 -2 7 -11 11 -11 15 -1 6 16 30 16 37 0 5
-10 7 -10 12 0 7 14 34 16 34 2 0 -5 5 -10 11 -10 11 0 39 -24 39 -34 0 -3 8
-14 18 -24 17 -17 20 -17 30 -3 9 14 12 14 26 -4 15 -20 15 -20 16 2 0 12 -6
23 -12 26 -7 2 -9 8 -5 13 4 4 21 -7 37 -26 23 -27 30 -31 30 -17 0 20 -22 47
-39 47 -6 0 -11 6 -11 14 0 8 -6 17 -12 19 -10 4 -9 8 2 16 25 18 36 13 82
-33 39 -38 46 -42 56 -27 10 15 13 14 27 -3 13 -17 15 -18 15 -3 0 9 -4 17
-10 17 -5 0 -10 7 -10 15 0 8 -5 15 -11 15 -11 0 -39 24 -39 34 0 15 24 3 54
-29 38 -39 46 -42 46 -20 0 8 -5 15 -11 15 -16 0 -41 28 -37 41 5 14 78 -53
78 -72 0 -10 3 -10 12 -1 9 9 4 19 -20 42 -18 17 -32 32 -32 35 0 15 25 0 61
-36 22 -22 43 -38 46 -35 3 3 -11 22 -32 43 -20 20 -32 39 -26 41 13 4 91 -72
91 -90 1 -9 5 -7 14 4 15 21 32 23 39 6 2 -7 7 -10 11 -7 3 3 -9 23 -29 44
-21 23 -35 33 -35 24 0 -8 5 -20 12 -27 9 -9 9 -12 0 -12 -7 0 -26 13 -42 30
-26 27 -27 30 -10 30 11 0 20 -5 20 -11 0 -6 7 -3 17 6 15 15 18 14 44 -17 16
-18 29 -36 29 -40 0 -5 5 -8 10 -8 18 0 11 20 -15 44 -29 27 -31 36 -10 36 8
0 15 -7 15 -15 0 -8 7 -15 15 -15 8 0 15 -7 15 -16 0 -8 5 -12 10 -9 6 3 10
-1 10 -9 0 -9 5 -16 10 -16 18 0 10 19 -21 51 -17 17 -28 34 -25 37 3 3 14 -5
25 -16 10 -12 23 -22 30 -22 6 0 11 -7 11 -16 0 -8 4 -12 10 -9 5 3 10 -1 10
-9 0 -9 5 -16 10 -16 21 0 8 25 -32 62 -37 33 -39 38 -20 38 13 0 22 -6 22
-16 0 -8 5 -12 10 -9 5 3 10 -1 10 -9 0 -9 7 -16 15 -16 8 0 15 -7 15 -16 0
-8 4 -12 10 -9 5 3 10 -1 10 -9 0 -9 5 -16 10 -16 21 0 9 24 -30 61 -44 42
-49 52 -22 42 22 -9 42 -29 42 -42 0 -6 6 -11 14 -11 8 0 17 -8 19 -17 4 -17
5 -16 6 0 0 10 -13 32 -29 49 -17 17 -28 33 -24 37 4 3 9 0 11 -6 3 -7 11 -13
18 -13 7 0 16 -8 18 -17 4 -14 5 -13 6 4 0 12 -5 24 -11 26 -10 4 -9 6 1 6 7
1 24 -10 36 -23 13 -14 26 -22 29 -19 3 4 6 1 6 -6 0 -6 9 -21 20 -33 18 -19
20 -20 20 -4 0 19 -46 70 -70 78 -9 3 -10 7 -3 11 6 4 18 0 26 -8 9 -8 21 -15
27 -15 6 0 9 -4 5 -9 -3 -5 -1 -12 5 -16 5 -3 10 3 10 14 0 12 -7 21 -15 21
-8 0 -14 6 -12 13 1 6 -4 11 -10 10 -7 -2 -13 2 -13 7 0 16 22 12 36 -7 12
-16 13 -15 14 11 l0 29 47 -49 c26 -27 50 -48 55 -47 4 2 8 -2 8 -7 0 -6 9
-20 19 -32 l20 -21 -2 22 c-1 11 -7 21 -14 21 -7 0 -13 5 -13 11 0 14 -25 39
-39 39 -6 0 -11 7 -11 16 0 8 -4 12 -10 9 -6 -3 -10 1 -10 9 0 9 -7 16 -15 16
-8 0 -15 5 -15 10 0 19 20 10 49 -21 27 -27 30 -28 28 -10 -1 12 -7 21 -14 21
-7 0 -13 7 -13 16 0 8 -5 12 -10 9 -6 -3 -10 -1 -10 4 0 22 21 10 70 -40 42
-43 50 -48 50 -29 0 11 -4 19 -9 15 -5 -3 -12 -1 -16 5 -3 5 3 10 14 10 13 0
21 -7 21 -17 1 -17 1 -17 14 0 16 21 36 22 36 1 0 -8 5 -12 10 -9 6 4 8 11 5
16 -4 5 2 9 12 9 12 0 14 3 6 8 -9 6 -6 15 11 35 13 15 28 27 35 27 6 0 11 5
11 10 0 6 -7 10 -15 10 -8 0 -15 5 -15 10 0 6 -9 10 -21 10 -11 0 -17 -4 -14
-10 9 -15 -4 -12 -22 5 -8 8 -12 21 -10 28 4 9 6 9 6 0 1 -7 11 -13 23 -13 21
0 21 0 2 14 -18 14 -18 15 4 13 12 -1 22 -7 22 -14 0 -7 9 -13 20 -13 11 0 20
5 20 11 0 6 -7 9 -15 5 -8 -3 -15 -1 -15 4 0 6 9 10 20 10 11 0 20 -7 20 -15
0 -8 7 -15 15 -15 8 0 15 5 15 11 0 5 -5 7 -10 4 -6 -3 -10 -1 -10 4 0 6 9 11
20 11 25 0 27 -37 3 -43 -14 -4 -13 -5 4 -6 12 0 24 5 26 12 4 9 6 9 6 0 1 -7
7 -13 15 -13 8 0 17 -8 19 -18 3 -10 5 -6 6 11 1 19 6 27 19 27 14 0 15 -2 2
-10 -12 -7 -8 -10 15 -11 17 0 24 -3 18 -6 -7 -2 -13 -9 -13 -14 0 -6 4 -7 10
-4 5 3 10 -1 10 -9 0 -9 4 -16 9 -16 4 0 6 11 3 25 -2 15 0 25 7 25 6 0 11 -6
11 -14 0 -8 8 -13 18 -11 26 4 38 -7 16 -16 -18 -7 -18 -8 3 -8 12 -1 24 5 26
12 3 6 6 1 7 -13 1 -14 4 -19 7 -12 2 6 11 12 19 12 9 0 12 -4 9 -10 -3 -5 -1
-10 4 -10 6 0 11 -7 11 -15 0 -18 36 -20 43 -2 3 6 6 1 7 -13 1 -14 4 -19 7
-12 2 6 12 12 21 12 15 0 15 -2 2 -10 -12 -8 -9 -10 13 -10 15 0 27 -5 27 -11
0 -5 -4 -7 -10 -4 -5 3 -10 1 -10 -5 0 -8 9 -10 25 -6 19 5 25 2 26 -11 0 -11
3 -13 6 -5 2 6 12 12 21 12 15 0 15 -2 2 -10 -12 -8 -9 -10 13 -10 18 0 27 -5
27 -16 0 -8 5 -12 10 -9 6 3 10 2 10 -4 0 -5 -6 -12 -13 -14 -6 -3 9 -6 35 -6
28 -1 48 4 51 12 3 6 6 1 7 -13 1 -14 4 -19 7 -12 6 15 43 16 43 1 0 -5 5 -7
10 -4 6 3 10 1 10 -5 0 -6 11 -8 25 -6 17 3 25 0 25 -10 0 -12 4 -12 21 -2 17
10 23 10 26 1 3 -10 9 -10 23 -1 16 10 22 8 39 -11 19 -22 21 -22 38 -5 17 16
18 16 21 1 4 -18 22 -24 22 -7 0 6 7 10 15 10 8 0 15 -5 15 -11 0 -5 -4 -8 -9
-4 -5 3 -18 -6 -29 -20 -22 -27 -37 -32 -46 -12 -5 10 -7 10 -12 0 -7 -17 -31
-17 -36 -1 -3 9 -10 7 -23 -6 -15 -15 -20 -16 -24 -5 -2 8 -9 18 -15 22 -8 6
-7 10 2 14 14 6 16 33 2 33 -5 0 -9 -6 -7 -12 1 -7 -4 -12 -10 -11 -7 2 -13
-6 -13 -18 0 -11 4 -18 9 -14 5 3 12 1 15 -4 4 -5 2 -12 -3 -15 -10 -7 -51 27
-51 43 0 6 -4 11 -10 11 -5 0 -10 -7 -10 -15 0 -8 -7 -15 -15 -15 -8 0 -15 7
-15 15 0 8 -4 15 -10 15 -5 0 -10 -7 -10 -15 0 -8 -4 -15 -10 -15 -5 0 -10 -8
-9 -17 0 -11 3 -13 6 -5 2 6 14 11 26 11 17 -1 18 -2 5 -6 -10 -2 -18 -11 -18
-19 0 -8 -7 -14 -15 -14 -8 0 -15 7 -15 16 0 8 -4 13 -9 9 -6 -3 -14 3 -20 12
-10 17 -10 17 -11 1 0 -10 5 -18 10 -18 6 0 10 -4 10 -10 0 -5 -7 -10 -15 -10
-8 0 -15 7 -15 16 0 8 -5 12 -10 9 -6 -4 -8 -11 -5 -16 4 -5 -3 -9 -14 -9 -12
0 -21 6 -21 14 0 8 -8 17 -17 19 -17 4 -17 5 0 6 10 1 17 9 17 22 0 11 -5 17
-10 14 -6 -4 -8 -11 -5 -16 4 -5 -1 -9 -9 -9 -9 0 -16 -9 -16 -21 0 -11 4 -18
9 -14 5 3 12 1 16 -5 3 -5 -3 -10 -14 -10 -12 0 -21 5 -21 11 0 13 -20 34 -40
42 -12 4 -11 6 3 6 18 1 25 41 7 41 -5 0 -10 -7 -10 -16 0 -8 -4 -12 -10 -9
-5 3 -10 -1 -10 -9 0 -22 -37 -20 -43 1 -4 17 -5 17 -6 1 0 -10 -8 -18 -16
-18 -8 0 -15 -7 -15 -16 0 -8 -5 -12 -10 -9 -18 11 -10 -25 10 -47 17 -19 20
-19 20 -5 0 10 7 17 18 16 10 0 12 -3 5 -6 -7 -2 -13 -11 -13 -19 0 -8 -9 -14
-20 -14 -11 0 -20 7 -20 16 0 8 -5 12 -10 9 -6 -3 -10 1 -10 9 0 10 -8 16 -22
15 -17 -1 -19 -2 -5 -6 9 -2 17 -11 17 -19 0 -8 5 -14 10 -14 6 0 10 -8 9 -17
0 -11 -3 -13 -6 -5 -2 6 -11 12 -18 12 -7 0 -16 8 -18 18 -4 13 -5 12 -6 -5 0
-12 5 -24 12 -26 7 -3 5 -6 -5 -6 -14 -1 -18 7 -18 34 0 30 -3 35 -22 34 -17
-1 -19 -2 -5 -6 18 -5 24 -43 6 -43 -5 0 -8 4 -4 9 3 5 1 12 -5 16 -5 3 -10
-3 -10 -14 0 -11 8 -22 18 -24 13 -4 11 -5 -5 -6 -20 -1 -23 4 -23 34 0 25 -4
35 -16 35 -8 0 -13 4 -9 9 3 5 1 12 -5 16 -5 3 -10 -3 -10 -14 0 -12 7 -21 15
-21 8 0 15 -5 15 -11 0 -6 -7 -9 -15 -5 -10 3 -15 -1 -15 -14 0 -10 8 -21 18
-23 10 -3 5 -6 -13 -7 -41 -3 -59 0 -63 11 -2 5 -15 9 -28 9 -29 0 -34 36 -6
43 9 3 -14 6 -53 7 -38 1 -62 4 -52 7 9 2 17 9 17 15 0 5 -7 7 -16 4 -9 -3
-18 -6 -20 -6 -2 0 -4 -7 -4 -15 0 -8 7 -15 15 -15 8 0 15 -8 16 -17 0 -15 2
-15 9 2 7 17 9 17 9 3 1 -11 9 -18 20 -18 11 0 22 8 24 18 3 9 5 1 5 -18 0
-19 -2 -29 -5 -22 -2 6 -9 12 -14 12 -6 0 -7 -4 -4 -10 3 -5 1 -10 -4 -10 -6
0 -11 5 -11 10 0 6 -11 10 -24 10 -15 0 -26 7 -29 18 -4 16 -5 16 -6 0 0 -10
-9 -18 -18 -17 -11 0 -13 3 -5 6 18 7 15 41 -5 46 -17 4 -17 5 0 6 9 0 17 5
17 11 0 5 -8 6 -17 3 -12 -5 -15 -2 -10 10 3 9 2 17 -3 17 -6 0 -10 -7 -10
-16 0 -8 -4 -12 -10 -9 -5 3 -10 3 -10 0 0 -11 28 -35 40 -35 6 0 8 -4 5 -10
-10 -16 -35 -12 -35 6 0 12 -7 15 -24 12 -14 -3 -31 -1 -38 3 -10 7 -10 9 0 9
6 0 12 8 11 18 0 10 -3 12 -6 5 -7 -18 -43 -16 -43 1 0 10 -11 13 -35 11 -24
-1 -35 2 -35 12 0 7 -6 13 -14 13 -8 0 -17 8 -19 18 -4 16 -5 16 -6 0 -1 -21
-29 -24 -37 -4 -9 23 -135 21 -163 -3 -21 -18 -31 -58 -11 -46 5 3 10 -1 10
-9 0 -9 6 -16 14 -16 8 0 16 -8 18 -17 2 -13 6 -14 11 -6 4 7 -5 24 -22 42
-19 19 -25 31 -16 31 7 0 16 8 18 18 3 9 5 2 6 -16 1 -19 5 -31 11 -27 6 3 10
-1 10 -9 0 -9 6 -16 14 -16 8 0 17 -8 19 -17 4 -14 5 -12 6 5 0 12 -3 22 -9
22 -5 0 -10 6 -10 14 0 8 -8 17 -17 19 -14 4 -12 5 5 6 14 1 22 -5 22 -15 0
-8 4 -12 10 -9 5 3 10 0 10 -9 0 -8 6 -17 13 -19 10 -4 10 -6 0 -6 -7 -1 -13
-11 -13 -23 l0 -22 20 22 c24 26 25 31 3 48 -10 7 -13 14 -7 14 6 0 17 -7 24
-15 7 -8 19 -15 27 -15 8 0 11 -5 8 -10 -4 -6 -11 -8 -16 -5 -5 4 -9 -3 -9
-14 0 -12 5 -21 10 -21 6 0 10 5 10 11 0 6 7 17 15 25 13 14 15 12 16 -13 1
-17 3 -21 6 -10 5 18 43 24 43 7 0 -5 -6 -10 -14 -10 -10 0 -13 -8 -10 -27 7
-35 14 -43 14 -14 0 26 22 51 44 51 9 0 16 -8 16 -17 0 -15 -2 -15 -9 -4 -8
12 -12 12 -26 -2 -9 -10 -14 -25 -12 -35 4 -16 5 -16 6 1 1 22 38 22 44 -1 4
-16 5 -16 6 1 0 9 8 17 16 17 8 0 15 5 15 10 0 6 4 10 9 10 5 0 7 -9 4 -19 -3
-12 -11 -17 -19 -14 -8 3 -14 0 -14 -6 0 -6 9 -11 20 -11 11 0 20 7 20 15 0 8
9 15 20 15 11 0 20 -4 20 -10 0 -5 -5 -10 -11 -10 -6 0 -17 -7 -25 -15 -14
-13 -13 -15 6 -15 12 0 18 4 15 10 -3 5 1 10 9 10 9 0 16 6 16 13 0 9 2 9 8 0
4 -7 18 -11 30 -8 12 2 22 0 22 -5 0 -5 -12 -11 -27 -13 -16 -2 -5 -4 22 -5
36 0 44 2 30 8 -19 8 -19 9 3 9 12 1 22 -4 22 -9 0 -15 203 -11 212 4 6 8 8 8
8 -1 0 -17 37 -17 43 0 4 9 6 9 6 0 1 -7 10 -13 20 -13 11 0 22 6 24 13 4 10
6 10 6 0 1 -7 11 -12 24 -12 16 1 18 2 5 6 -24 6 -23 23 2 23 11 0 20 -7 20
-15 0 -9 9 -15 23 -14 16 1 18 2 5 6 -10 2 -18 11 -18 19 0 12 4 12 20 4 11
-6 20 -15 20 -20 0 -6 10 -9 23 -9 16 1 18 2 5 6 -10 2 -18 11 -18 18 0 7 -6
16 -12 18 -8 3 -6 6 5 6 9 1 17 -3 17 -9 0 -5 7 -10 15 -10 8 0 15 -7 15 -15
0 -9 9 -15 23 -14 16 1 18 2 5 6 -10 2 -18 11 -18 18 0 7 -6 16 -12 18 -8 3
-6 6 5 6 9 1 17 -3 17 -9 0 -5 7 -10 15 -10 8 0 15 -7 15 -15 0 -12 14 -15 68
-14 37 0 61 3 55 6 -7 2 -13 11 -13 19 0 8 -7 14 -15 14 -9 0 -15 9 -14 23 1
16 2 18 6 4 2 -9 10 -17 16 -17 7 0 21 -11 31 -25 10 -14 26 -25 35 -24 10 0
12 2 4 6 -7 2 -13 11 -13 19 0 8 -7 14 -15 14 -8 0 -15 7 -15 16 0 8 -4 12
-10 9 -5 -3 -10 -1 -10 4 0 6 7 11 15 11 8 0 15 -7 15 -15 0 -8 6 -15 13 -15
7 0 21 -11 31 -25 10 -14 26 -25 35 -24 10 0 12 2 4 6 -7 2 -13 11 -13 19 0 8
-5 14 -11 14 -11 0 -39 24 -39 34 0 16 25 2 60 -35 21 -23 45 -39 52 -36 10 4
10 6 1 6 -7 1 -13 8 -13 16 0 8 -5 15 -11 15 -11 0 -39 24 -39 34 0 3 4 6 10
6 12 0 70 -56 70 -68 0 -4 10 -8 23 -9 12 0 16 1 9 4 -17 7 -15 23 3 23 8 0
15 -7 15 -15 0 -8 9 -15 20 -15 16 0 10 10 -31 50 -29 28 -49 53 -47 56 3 3
13 -2 21 -11 9 -8 20 -15 26 -15 6 0 11 -7 11 -16 0 -8 5 -12 10 -9 6 3 10 -1
10 -9 0 -9 5 -16 11 -16 6 0 17 -7 25 -15 9 -8 20 -15 25 -15 5 0 -14 23 -42
50 -29 28 -50 52 -48 54 20 18 48 13 79 -14 19 -17 38 -30 43 -30 4 0 7 -6 7
-13 0 -18 39 -40 77 -43 39 -3 41 2 11 29 -16 13 -19 21 -10 24 20 8 14 29
-13 43 -14 7 -25 19 -25 26 0 7 -6 15 -12 17 -10 4 -10 6 0 6 7 1 47 -33 88
-74 41 -41 80 -75 87 -74 9 0 9 2 0 6 -7 2 -13 10 -13 17 0 7 -11 19 -25 26
-14 7 -25 19 -25 25 0 6 -11 18 -25 25 -14 7 -25 18 -25 23 0 5 -10 18 -22 28
-11 11 -18 22 -14 26 4 4 12 1 17 -7 8 -11 12 -12 16 -2 7 19 26 14 48 -12 18
-21 21 -21 32 -7 11 14 15 13 36 -11 27 -32 37 -35 37 -13 0 8 -5 15 -11 15
-14 0 -39 25 -39 39 0 6 -8 11 -17 11 -14 0 -15 2 -4 12 10 11 15 9 27 -6 12
-17 14 -18 14 -3 0 9 7 17 15 17 8 0 15 -4 15 -10 0 -5 -4 -10 -10 -10 -18 0
-10 -21 19 -51 33 -33 41 -36 41 -14 0 8 -5 15 -11 15 -18 0 -46 33 -31 38 6
2 12 10 12 17 0 15 42 28 64 19 9 -3 16 -1 16 5 0 24 24 9 81 -51 32 -35 59
-57 59 -50 0 7 -21 33 -47 58 -37 36 -43 48 -32 54 10 7 16 4 21 -8 4 -9 7
-11 7 -4 1 6 8 12 16 12 18 0 20 -17 3 -23 -10 -4 -10 -7 0 -18 10 -11 12 -10
12 4 0 9 5 17 10 17 14 0 12 27 -2 33 -10 4 -10 6 0 6 7 1 21 -6 29 -15 13
-13 14 -17 3 -24 -11 -7 -11 -11 0 -24 7 -9 10 -20 6 -24 -4 -4 -14 2 -22 12
-12 17 -14 18 -14 3 0 -9 5 -17 10 -17 6 0 10 -6 10 -14 0 -7 9 -16 20 -19 11
-3 20 -1 20 4 0 5 -4 9 -10 9 -5 0 -10 5 -10 10 0 16 19 12 42 -10 12 -11 24
-17 27 -14 3 4 0 9 -6 11 -22 8 -14 26 8 20 27 -7 49 1 49 19 0 19 -18 18 -22
-2 -3 -14 -6 -13 -25 4 -27 23 -29 32 -8 32 8 0 15 -8 15 -17 0 -14 3 -14 20
5 11 12 20 27 20 34 -1 8 -7 5 -16 -7 -14 -19 -16 -19 -28 -3 -12 16 -14 16
-29 -3 -20 -23 -21 -36 -4 -42 6 -2 8 -8 4 -13 -5 -5 -14 -1 -21 8 -7 10 -16
15 -19 11 -4 -3 -7 1 -7 10 0 9 5 17 10 17 6 0 10 7 10 15 0 8 -4 15 -10 15
-5 0 -10 5 -10 10 0 6 7 10 15 10 8 0 15 -7 15 -16 0 -8 5 -12 11 -9 6 4 8 14
5 22 -3 8 -1 11 4 8 6 -4 18 1 27 11 13 13 18 14 22 3 2 -7 -1 -15 -7 -17 -7
-2 -12 -11 -12 -20 0 -13 4 -12 20 6 11 12 20 26 20 32 0 6 5 8 10 5 6 -3 13
1 16 9 8 21 31 20 37 -2 4 -13 5 -12 6 5 1 16 6 21 16 17 8 -4 15 -1 15 5 0 6
7 11 15 11 8 0 15 -4 15 -10 0 -5 -7 -10 -15 -10 -16 0 -20 -12 -8 -23 3 -4
12 1 20 11 12 16 14 16 28 -2 13 -17 15 -18 15 -3 0 9 -4 17 -10 17 -5 0 -10
7 -10 16 0 8 4 13 9 10 5 -3 14 1 21 10 11 12 15 12 22 2 6 -11 10 -10 17 1 5
7 21 14 37 15 16 1 35 5 42 10 7 4 16 5 20 1 3 -3 0 -10 -8 -15 -8 -5 -11 -12
-8 -15 4 -4 17 2 29 14 13 12 30 21 38 21 13 -1 12 -3 -3 -15 -11 -8 -17 -18
-13 -21 3 -3 16 3 28 15 13 12 26 21 31 21 13 0 9 -18 -4 -23 -7 -2 -10 -8 -6
-12 4 -4 15 0 24 10 18 18 62 13 76 -8 6 -9 11 -8 18 3 8 13 11 13 19 1 5 -8
16 -11 24 -8 12 4 14 1 10 -11 -4 -9 -11 -21 -17 -25 -8 -6 -7 -10 2 -14 6 -2
12 -11 12 -18 0 -7 -6 -16 -12 -19 -10 -5 -10 -7 0 -12 6 -3 12 -11 12 -17 0
-7 9 -18 20 -25 17 -10 20 -10 20 4 0 8 -5 12 -10 9 -6 -3 -10 0 -10 9 0 8 -6
16 -12 19 -10 3 -10 8 1 21 13 15 13 19 0 28 -11 7 -11 11 -1 15 6 2 12 11 12
19 0 8 7 14 15 14 8 0 15 -7 15 -15 0 -13 3 -13 21 -3 18 11 23 11 26 0 4 -9
8 -10 18 -2 10 8 19 8 34 -2 22 -14 28 -28 11 -28 -5 0 -10 -8 -10 -17 0 -14
5 -12 24 10 27 31 32 32 53 12 15 -16 9 -33 -22 -58 -6 -6 -6 -10 3 -14 16 -6
16 -30 0 -36 -7 -2 -10 -8 -6 -12 8 -8 38 18 38 33 0 6 -6 13 -12 16 -10 5
-10 7 -1 12 7 3 13 12 13 20 0 8 8 14 18 14 16 1 16 1 0 14 -22 16 -23 26 -3
26 8 0 15 -5 15 -10 0 -6 10 -8 24 -4 15 3 29 -1 41 -13 13 -13 20 -14 23 -5
4 13 32 17 32 4 0 -5 19 -9 43 -9 81 -1 87 -3 87 -20 1 -16 2 -16 16 2 15 19
16 19 29 2 13 -18 14 -18 24 0 9 17 10 17 24 -1 13 -17 14 -17 20 -2 4 11 12
14 19 9 7 -4 57 -8 110 -8 78 -1 101 -5 117 -19 12 -11 21 -14 25 -7 6 10 39
-2 56 -19 3 -3 18 -6 34 -7 16 0 33 -9 39 -18 6 -12 12 -14 16 -6 9 14 111 -5
111 -21 0 -6 6 -6 15 2 11 9 18 10 28 1 11 -8 18 -6 33 10 15 17 16 22 4 29
-11 7 -11 11 -1 24 9 11 10 16 2 16 -6 0 -11 -4 -11 -9 0 -5 -9 -11 -19 -14
-12 -3 -18 0 -15 7 6 15 -108 17 -118 2 -5 -8 -11 -7 -20 2 -9 9 -9 12 5 12
18 0 23 15 8 24 -5 3 -14 -1 -21 -9 -13 -16 -31 -20 -29 -7 3 19 -2 23 -16 12
-9 -7 -19 -10 -22 -6 -4 4 -1 11 7 16 8 5 11 12 7 16 -4 4 -16 -3 -27 -16 -14
-16 -25 -20 -37 -15 -10 5 -24 7 -30 6 -8 -1 -10 4 -7 14 3 8 2 15 -4 15 -6 0
-12 -6 -15 -12 -3 -10 -7 -10 -19 -1 -11 10 -17 10 -27 0 -9 -9 -14 -9 -21 2
-7 12 -11 12 -23 2 -9 -7 -18 -8 -21 -3 -3 5 -25 8 -48 7 -57 -4 -88 4 -88 22
0 8 -5 11 -10 8 -6 -4 -8 -11 -5 -16 4 -5 -3 -9 -15 -9 -12 0 -19 4 -15 9 3 5
1 12 -5 16 -5 3 -10 -1 -10 -9 0 -21 -26 -20 -34 1 -6 14 -8 14 -21 -3 -15
-19 -15 -19 -26 0 -9 14 -13 15 -19 6 -5 -8 -15 -10 -26 -5 -11 4 -29 7 -41 6
-13 -1 -23 3 -23 9 0 6 4 8 10 5 5 -3 18 -1 29 4 14 8 20 8 23 -1 3 -8 13 -5
28 10 26 24 50 29 50 10 0 -6 10 -2 21 11 14 15 29 21 41 18 12 -4 29 2 41 14
11 10 24 19 29 19 13 0 9 -18 -4 -23 -7 -2 -10 -8 -6 -12 8 -8 38 18 38 33 0
11 47 25 59 18 4 -3 20 6 36 20 15 13 37 24 47 24 10 0 33 10 50 22 23 17 32
20 35 10 4 -9 13 -5 30 13 27 26 43 32 43 15 0 -5 5 -10 11 -10 6 0 8 7 5 16
-4 12 -2 15 9 11 8 -4 18 1 23 9 5 9 22 17 38 17 16 1 35 8 42 14 7 7 23 13
35 13 12 0 29 4 37 10 9 6 17 5 23 -3 7 -9 10 -9 14 1 2 6 11 12 18 12 7 0 16
-6 19 -12 5 -11 7 -11 12 0 7 14 34 16 34 2 0 -6 10 -8 23 -5 17 5 31 -2 55
-24 20 -20 37 -28 48 -24 13 5 15 2 9 -18 -7 -21 -6 -22 8 -11 13 11 19 11 36
0 12 -7 21 -16 21 -20 0 -5 7 -8 16 -8 8 0 12 -4 9 -10 -3 -5 3 -10 14 -10 15
0 19 -4 14 -17 -5 -13 -2 -15 11 -10 14 5 17 3 12 -8 -3 -9 0 -15 9 -15 8 0
15 -5 15 -11 0 -14 25 -39 39 -39 6 0 11 -5 11 -11 0 -14 25 -39 39 -39 6 0
11 -7 11 -16 0 -8 4 -12 10 -9 6 3 10 -1 10 -9 0 -9 7 -16 15 -16 8 0 15 -5
15 -11 0 -14 25 -39 39 -39 6 0 11 -4 11 -10 0 -5 10 -10 23 -10 12 0 34 -11
49 -25 15 -14 34 -25 42 -25 10 0 13 -6 9 -18 -6 -15 -5 -15 10 -3 14 11 20
11 35 0 9 -8 20 -18 25 -24 4 -6 10 -5 16 4 8 12 12 12 25 2 16 -14 36 -7 36
12 0 7 -12 13 -27 14 -15 0 -29 6 -31 12 -2 6 -8 11 -13 11 -6 0 -7 -5 -3 -12
5 -8 2 -9 -12 -4 -10 5 -27 11 -37 13 -11 4 -16 12 -13 20 4 11 1 13 -15 8
-14 -5 -32 2 -57 22 -20 15 -40 27 -44 25 -5 -1 -8 5 -8 14 0 10 -6 14 -15 11
-8 -4 -17 -2 -20 3 -4 6 -1 10 5 10 6 0 9 4 5 10 -3 5 -12 7 -20 3 -11 -4 -13
-1 -8 13 5 14 3 16 -11 11 -14 -5 -17 -3 -12 8 3 9 0 15 -9 15 -8 0 -15 7 -15
15 0 9 -6 12 -16 8 -13 -5 -15 -2 -9 18 7 20 6 22 -7 12 -17 -15 -29 -7 -21
13 4 10 0 12 -11 8 -12 -5 -15 -2 -10 10 4 11 1 16 -10 16 -9 0 -16 7 -16 15
0 16 48 28 127 29 29 0 53 4 53 8 0 5 7 8 15 8 8 0 15 -4 15 -10 0 -5 4 -10
10 -10 5 0 6 7 3 17 -4 11 -3 14 6 9 6 -4 19 -2 27 5 10 8 18 9 25 2 8 -8 17
-5 30 8 13 13 27 17 44 13 15 -4 25 -2 25 5 0 12 26 15 33 4 2 -5 2 -2 1 5 -2
7 2 12 9 11 26 -3 37 2 37 17 0 10 -6 14 -15 11 -8 -4 -17 -1 -21 5 -5 7 -12
5 -20 -7 -8 -11 -26 -18 -44 -18 -16 0 -30 -4 -30 -9 0 -4 -7 -8 -15 -8 -8 0
-15 5 -15 10 0 6 -5 10 -11 10 -6 0 -9 -7 -5 -15 5 -15 -13 -20 -56 -17 -10 1
-18 -3 -18 -8 0 -6 -9 -10 -21 -10 -11 0 -17 5 -14 10 3 6 2 10 -4 10 -5 0
-11 -5 -13 -11 -2 -6 -17 -12 -34 -13 -17 -2 -36 -6 -43 -10 -6 -4 -18 -3 -25
3 -10 9 -15 8 -20 -4 -7 -21 -33 -19 -39 3 -4 16 -5 16 -6 0 -1 -22 -27 -24
-35 -2 -3 8 -10 12 -16 9 -5 -3 -10 1 -10 10 0 9 -6 15 -12 14 -20 -2 -58 12
-58 22 0 5 -7 9 -15 9 -8 0 -15 5 -15 10 0 6 -7 10 -15 10 -8 0 -12 6 -9 14 4
10 0 13 -14 9 -27 -7 -90 29 -84 47 4 13 3 13 -11 2 -9 -8 -25 -11 -37 -7 -11
4 -20 2 -20 -4 0 -15 -27 -14 -33 2 -4 9 -8 9 -15 -2 -5 -7 -23 -13 -38 -13
-16 0 -35 -5 -43 -12 -11 -8 -15 -8 -18 2 -3 6 -9 12 -15 12 -6 0 -8 -7 -4
-15 3 -9 0 -15 -10 -15 -8 0 -26 -7 -39 -16 -13 -9 -29 -13 -35 -9 -6 4 -17
-1 -24 -10 -7 -10 -25 -18 -39 -18 -15 0 -27 -3 -27 -7 0 -4 -12 -12 -27 -19
-20 -9 -28 -9 -33 0 -6 8 -10 7 -16 -3 -13 -22 -62 -51 -73 -43 -6 3 -21 -3
-33 -15 -13 -12 -31 -19 -42 -16 -10 3 -27 -4 -39 -15 -25 -23 -33 -24 -41 -3
-4 12 -2 15 9 10 9 -3 15 0 15 9 0 8 4 15 10 15 5 0 56 48 114 106 85 88 107
105 125 99 11 -3 21 -3 21 2 0 5 14 17 30 26 27 16 30 17 30 2 0 -9 5 -13 11
-10 6 4 8 9 5 13 -3 3 6 11 21 19 21 11 28 11 35 1 8 -10 11 -10 15 0 2 6 11
12 18 12 7 0 16 -6 18 -12 4 -10 8 -10 15 1 6 9 15 10 23 5 19 -12 72 -12 81
0 4 6 13 4 23 -4 13 -11 18 -11 25 -1 4 7 27 17 51 21 47 9 63 5 39 -10 -8 -5
-11 -12 -6 -17 4 -4 12 -1 16 7 23 37 29 42 56 44 16 1 35 5 43 10 8 5 16 4
21 -4 7 -11 12 -10 25 3 15 16 53 23 99 18 11 -1 24 4 29 11 7 10 10 10 14 1
2 -7 11 -13 19 -13 9 0 13 4 10 9 -7 11 41 24 55 16 5 -4 17 2 27 11 16 16 17
16 20 1 2 -9 8 -17 14 -17 5 0 8 6 6 12 -3 7 7 18 20 26 21 10 27 10 34 0 8
-10 11 -10 15 0 6 16 30 16 36 0 2 -7 8 -9 13 -5 5 4 2 12 -6 17 -8 5 -11 12
-7 16 3 4 13 2 20 -4 10 -9 17 -6 31 9 12 14 25 19 39 15 11 -3 28 0 36 7 11
9 15 9 18 0 3 -7 9 -13 15 -13 6 0 5 6 -2 15 -7 9 -10 19 -6 22 4 4 11 1 16
-7 8 -12 10 -11 10 7 0 27 -21 35 -37 14 -11 -14 -13 -14 -28 4 -10 12 -15 14
-12 5 5 -18 -58 -53 -83 -45 -11 3 -20 0 -24 -10 -3 -8 -17 -15 -34 -15 -15 0
-34 -6 -41 -13 -11 -9 -14 -9 -18 1 -7 18 -23 15 -23 -5 0 -9 -3 -13 -7 -10
-3 4 -12 2 -20 -4 -9 -9 -17 -8 -27 0 -11 10 -16 8 -24 -5 -7 -13 -24 -18 -65
-19 -31 0 -59 -4 -63 -8 -4 -4 -13 -2 -21 5 -10 8 -16 7 -26 -6 -8 -10 -30
-17 -62 -19 -28 -2 -56 -7 -64 -11 -8 -5 -17 -3 -22 5 -6 10 -11 11 -16 3 -14
-20 -49 -34 -60 -23 -6 6 -14 5 -23 -6 -13 -16 -35 -21 -25 -6 3 5 1 12 -5 16
-5 3 -10 0 -10 -8 0 -16 -65 -26 -115 -17 -27 5 -28 6 -12 22 9 9 17 21 17 27
0 6 7 11 16 11 10 0 14 6 11 14 -4 10 -1 13 9 9 7 -3 14 0 14 6 0 6 -5 11 -11
11 -14 0 32 63 79 107 19 20 30 38 26 45 -5 8 -2 9 9 5 18 -7 33 8 17 18 -17
10 -12 18 53 85 81 85 120 113 135 98 9 -9 12 -8 12 5 0 9 6 17 13 17 8 0 20
11 27 25 7 14 17 25 21 25 4 0 21 14 39 30 22 20 39 29 51 25 11 -4 19 -3 19
2 0 15 69 55 85 49 8 -3 15 -1 15 3 0 16 67 52 84 45 11 -4 16 -1 16 10 0 9 7
16 15 16 8 0 15 4 15 8 0 12 56 42 80 42 11 0 18 5 15 10 -3 6 0 10 8 10 8 0
20 7 27 15 7 8 21 15 31 15 11 0 19 6 19 14 0 26 -21 29 -45 6 -16 -15 -30
-20 -44 -15 -16 5 -20 3 -15 -9 5 -12 2 -15 -10 -10 -9 3 -16 2 -16 -4 0 -17
-66 -53 -84 -46 -11 4 -16 1 -16 -10 0 -9 -5 -16 -11 -16 -6 0 -18 -7 -26 -16
-10 -10 -25 -13 -39 -10 -16 4 -24 2 -24 -6 -1 -17 -75 -68 -99 -68 -11 0 -21
-4 -23 -8 -9 -22 -86 -72 -101 -66 -12 4 -17 1 -17 -10 0 -9 -6 -16 -14 -16
-8 0 -16 -3 -18 -7 -7 -16 -68 -66 -74 -61 -3 3 6 17 20 31 14 15 26 31 26 37
0 5 7 10 15 10 8 0 15 5 15 10 0 6 -5 10 -11 10 -6 0 -1 13 10 29 12 16 21 34
21 40 0 6 8 11 17 11 13 0 14 3 6 11 -12 12 3 59 19 59 4 0 8 7 8 15 0 8 5 15
11 15 16 0 43 30 34 38 -4 4 -10 1 -12 -5 -5 -14 -23 -18 -23 -5 0 5 9 18 20
30 11 11 17 28 14 36 -6 16 25 76 40 76 11 0 35 31 35 45 0 6 -6 2 -14 -9 -7
-10 -19 -16 -26 -14 -8 3 -7 9 5 20 9 9 16 21 16 27 0 6 3 11 8 11 4 0 7 17 6
39 0 33 2 38 19 33 16 -4 19 -2 14 13 -8 20 21 72 52 95 12 8 21 20 21 27 0 7
7 13 16 13 14 0 15 2 3 17 -12 15 -12 16 3 10 10 -3 20 -2 23 3 4 6 1 10 -5
10 -17 0 2 29 59 88 28 30 49 58 46 63 -4 5 4 9 17 10 13 0 17 3 11 6 -21 8
-15 28 21 66 18 20 31 38 28 41 -3 4 2 6 11 6 10 0 17 5 17 10 0 6 -5 10 -11
10 -5 0 -8 4 -5 9 3 5 16 7 29 4 20 -4 21 -3 5 9 -16 13 -15 16 9 42 16 18 27
42 29 69 2 23 1 36 -2 30 -3 -7 -12 -13 -20 -13 -17 0 -19 -17 -1 -23 6 -2 9
-7 6 -11 -3 -3 -15 3 -27 14 -23 22 -42 26 -42 10 0 -5 5 -10 11 -10 14 0 39
-25 39 -39 0 -6 -4 -11 -10 -11 -5 0 -10 -7 -10 -15 0 -8 -7 -15 -15 -15 -8 0
-15 -7 -15 -15 0 -8 -4 -15 -10 -15 -5 0 -7 -6 -4 -14 4 -11 0 -13 -15 -9 -12
3 -21 1 -21 -5 0 -6 7 -12 15 -14 13 -2 12 -8 -7 -32 -13 -16 -34 -40 -48 -55
-14 -14 -24 -31 -22 -38 2 -8 -3 -10 -13 -7 -8 3 -15 2 -15 -4 0 -6 4 -12 9
-14 5 -1 1 -14 -10 -27 -16 -19 -22 -22 -29 -12 -6 11 -13 9 -31 -8 -19 -17
-20 -21 -6 -21 9 0 17 5 17 10 0 6 5 10 10 10 19 0 9 -18 -37 -66 -27 -27 -47
-52 -45 -56 1 -5 -5 -8 -13 -8 -18 0 -20 -17 -2 -23 8 -3 7 -10 -7 -26 -11
-11 -24 -21 -29 -21 -6 0 -2 9 9 21 15 17 16 22 4 29 -11 7 -12 12 -3 21 9 9
9 16 0 30 -9 15 -7 22 13 39 13 11 20 23 15 28 -4 4 -10 1 -12 -5 -6 -18 -23
-16 -23 2 0 8 5 15 10 15 6 0 8 10 4 24 -3 15 1 29 11 40 10 9 14 20 10 24 -4
4 -10 1 -12 -5 -5 -15 -23 -18 -23 -4 0 5 16 25 36 45 20 20 30 36 24 36 -7 0
-23 -12 -36 -28 -17 -18 -24 -22 -24 -11 0 8 5 20 12 27 9 9 8 12 -5 12 -22 0
-21 8 1 33 16 19 16 20 -4 15 -17 -4 -21 -1 -21 23 0 22 3 26 13 18 8 -6 14
-6 18 0 3 5 0 12 -6 14 -7 3 -3 6 10 6 22 1 33 21 11 21 -12 0 69 97 137 164
99 97 144 137 144 127 0 -21 21 -11 56 26 19 20 32 43 29 51 -3 7 -5 16 -5 18
0 2 -4 4 -9 4 -5 0 -7 -8 -4 -19 3 -11 -2 -21 -13 -25 -14 -5 -15 -4 -4 9 9
11 9 15 1 15 -7 0 -74 -61 -149 -135 -75 -74 -138 -130 -140 -125 -2 6 -8 10
-14 10 -7 0 -7 -5 1 -13 8 -11 6 -20 -10 -38 -15 -16 -23 -20 -26 -11 -3 6
-12 12 -21 12 -15 -1 -14 -3 2 -15 19 -15 19 -15 -2 -35 -11 -11 -24 -20 -27
-20 -11 0 -5 29 8 34 10 5 10 7 0 12 -20 9 -15 30 11 43 13 7 30 24 37 37 7
13 18 24 26 24 7 0 13 5 13 10 0 12 79 90 91 90 5 0 9 5 9 11 0 7 12 22 28 35
15 13 22 24 15 24 -7 0 -62 -50 -124 -111 -61 -61 -114 -108 -117 -104 -3 3
11 21 31 41 20 19 34 41 31 49 -4 10 0 12 15 8 12 -3 21 -1 21 5 0 6 -8 12
-17 14 -14 3 -13 7 10 30 15 15 27 32 27 38 0 5 6 10 13 10 8 0 20 11 27 25 7
14 19 25 27 25 7 0 13 5 13 10 0 18 -20 11 -45 -16 -14 -15 -25 -24 -25 -20 0
15 46 76 58 76 6 0 12 5 12 10 0 6 -7 10 -15 10 -8 0 -15 7 -15 15 0 8 7 15
15 15 8 0 15 5 15 10 0 6 -4 10 -10 10 -5 0 -10 4 -10 9 0 5 10 7 23 5 12 -2
16 -2 10 2 -25 12 -4 64 26 64 6 0 11 6 11 14 0 8 6 17 13 19 9 4 9 6 -1 6 -7
1 -36 -22 -63 -50 -30 -30 -49 -44 -49 -35 0 9 5 16 10 16 6 0 10 7 10 15 0 8
6 15 13 15 7 0 18 9 25 20 8 13 9 20 1 20 -14 0 -89 -76 -89 -90 0 -5 -4 -10
-10 -10 -19 0 -10 18 25 54 37 39 41 46 24 46 -13 0 -89 -75 -89 -88 0 -5 -11
-15 -25 -22 -27 -15 -33 -30 -11 -30 8 0 16 7 20 15 3 8 12 15 21 15 13 0 13
-3 3 -20 -7 -11 -18 -20 -24 -20 -6 0 -16 -10 -23 -23 -14 -26 -51 -53 -51
-37 0 6 9 20 20 32 22 24 19 38 -5 18 -10 -9 -15 -9 -15 -1 0 6 32 42 70 80
38 38 70 72 70 75 0 11 -28 6 -34 -6 -5 -10 -7 -10 -12 0 -9 19 -29 14 -43
-10 -14 -27 -61 -64 -61 -49 0 6 12 22 26 36 30 30 25 48 -6 20 -11 -10 -22
-16 -25 -13 -3 3 19 31 50 61 30 31 55 59 55 62 0 15 -28 2 -39 -19 -7 -13
-24 -29 -37 -36 -13 -7 -25 -20 -27 -29 -4 -14 -5 -14 -6 0 0 9 24 42 54 73
59 60 63 66 40 66 -8 0 -15 -4 -15 -8 0 -9 -76 -92 -84 -92 -18 0 4 29 89 114
l94 96 53 1 c29 1 56 7 60 13 5 8 8 7 8 -2 0 -7 -20 -32 -45 -56 -46 -46 -53
-56 -34 -56 14 0 39 25 39 39 0 6 5 11 11 11 14 0 39 25 39 39 0 12 29 15 54
5 20 -8 21 -24 1 -24 -8 0 -15 -4 -15 -10 0 -16 22 -12 36 8 13 16 13 16 14
-2 0 -14 5 -17 25 -12 25 6 36 -8 13 -17 -10 -4 -10 -6 0 -6 6 -1 12 -8 12
-16 0 -8 3 -15 8 -15 4 0 9 309 10 687 3 557 1 688 -10 694 -10 7 -10 9 0 9 6
0 12 9 12 21 0 11 -4 17 -10 14 -6 -3 -10 -1 -10 4 0 6 5 11 10 11 6 0 10 28
10 65 0 45 -4 65 -12 65 -9 0 -8 4 2 10 12 8 13 13 2 30 -7 12 -8 20 -2 20 14
0 12 27 -2 34 -10 5 -10 7 0 12 16 7 16 31 0 37 -10 4 -10 6 0 6 6 1 12 10 12
21 0 11 -6 20 -12 20 -9 0 -9 3 -3 8 7 5 12 230 13 680 l3 672 -101 0 c-73 0
-100 -3 -100 -12 0 -9 -3 -10 -8 -2 -11 17 -3053 19 -3064 2 -4 -8 -8 -8 -8
-2 0 17 -1831 19 -1842 2 -6 -10 -8 -10 -8 0 0 6 -9 12 -19 12 -11 0 -22 -6
-24 -12 -4 -10 -6 -10 -6 0 -1 8 -21 12 -66 12 -45 0 -65 -4 -65 -12 0 -10 -2
-10 -8 -1 -7 11 -410 15 -416 4z m2593 -390 c44 -44 81 -77 85 -74 3 3 -18 30
-47 59 -67 68 -80 84 -74 90 3 3 19 -9 36 -27 28 -28 31 -30 31 -11 0 11 -6
22 -12 25 -7 2 -10 7 -7 11 3 3 20 -8 37 -25 20 -19 32 -26 32 -17 0 8 -5 19
-12 26 -6 6 -9 14 -6 17 3 4 25 -13 47 -36 45 -45 68 -49 27 -4 -24 26 -33 45
-21 45 3 0 18 -14 35 -31 20 -22 30 -27 30 -16 0 8 -5 17 -11 19 -7 2 -10 10
-8 16 3 8 16 1 37 -19 22 -21 32 -26 32 -16 0 8 -5 17 -11 19 -7 2 -10 9 -8
16 4 11 87 -69 321 -305 117 -118 168 -166 168 -157 0 5 -34 42 -75 82 -41 40
-75 77 -75 83 0 5 -4 9 -8 9 -12 0 -209 200 -271 275 -7 9 -11 18 -8 21 2 2
10 -2 17 -11 16 -19 30 -19 30 1 0 8 5 12 10 9 8 -5 7 -11 -1 -21 -10 -12 6
-32 85 -111 53 -54 96 -93 96 -87 0 6 -27 36 -60 67 -33 32 -60 61 -60 66 0 4
-11 14 -25 21 -24 13 -35 40 -16 40 11 0 71 -58 71 -68 0 -4 9 -13 20 -20 32
-20 23 -3 -25 46 -25 25 -45 49 -45 54 0 15 18 8 41 -17 96 -103 369 -373 369
-364 0 6 -83 95 -185 197 -102 101 -185 189 -185 194 0 13 32 -7 64 -42 16
-17 31 -29 33 -26 3 3 -4 15 -16 27 -25 28 -28 47 -3 28 9 -8 72 -70 140 -138
67 -68 126 -121 129 -117 4 3 -38 51 -93 105 -130 129 -150 151 -135 151 6 0
25 -14 42 -31 17 -17 33 -28 37 -24 4 4 1 10 -5 12 -15 5 -18 23 -4 23 5 0 30
-21 56 -46 26 -25 50 -43 53 -40 3 3 -7 17 -21 30 -31 29 -33 36 -12 36 8 0
15 -4 15 -8 0 -5 14 -9 31 -9 17 0 35 -6 39 -14 5 -7 23 -14 41 -15 17 -1 35
-7 39 -14 4 -7 13 -9 20 -5 9 6 11 4 6 -4 -5 -8 26 -47 88 -108 53 -53 96 -91
96 -85 0 6 -38 49 -85 95 -47 46 -85 87 -85 90 0 14 19 6 41 -18 17 -16 31
-22 46 -19 18 5 35 -8 87 -62 35 -38 67 -66 70 -63 3 3 -8 20 -26 37 -17 18
-28 36 -24 39 4 4 48 -34 98 -85 50 -51 93 -90 96 -87 3 3 -21 32 -53 65 -94
95 -46 70 56 -30 51 -49 95 -87 98 -85 2 3 -9 19 -25 36 -20 22 -23 29 -9 21
27 -14 349 -333 410 -405 40 -48 46 -60 34 -68 -11 -8 -10 -9 6 -7 12 2 19 -2
17 -9 -1 -7 2 -13 8 -13 5 0 10 -5 10 -10 0 -6 10 -21 23 -33 36 -34 69 -86
62 -97 -3 -5 1 -10 10 -10 9 0 14 -4 10 -9 -3 -5 7 -22 21 -38 41 -43 57 -71
50 -88 -3 -9 0 -15 9 -15 8 0 15 -7 15 -15 0 -8 4 -15 8 -15 5 0 15 -12 22
-26 12 -22 12 -27 0 -35 -11 -8 -9 -9 8 -4 21 6 23 4 17 -14 -3 -12 -3 -21 2
-21 17 0 54 -67 47 -85 -5 -11 -3 -16 2 -12 14 8 75 -88 68 -107 -4 -11 -1
-16 10 -16 9 0 16 -6 16 -14 0 -7 7 -19 16 -27 10 -8 13 -21 9 -37 -4 -17 -2
-23 7 -20 18 6 50 -59 42 -85 -3 -12 -3 -19 1 -15 10 9 45 -55 45 -82 0 -11 4
-20 8 -20 5 0 14 -11 20 -25 9 -19 9 -25 -1 -25 -7 0 -4 -7 7 -15 11 -8 19
-28 20 -45 1 -16 4 -30 7 -30 12 0 31 -54 20 -58 -6 -2 -11 -8 -11 -14 0 -6 6
-8 13 -5 12 5 40 -46 43 -78 0 -5 5 -21 11 -35 6 -14 16 -45 23 -70 7 -25 17
-56 24 -69 9 -19 8 -25 -2 -29 -10 -3 -9 -7 3 -16 9 -7 18 -25 18 -42 1 -16 6
-32 10 -35 5 -4 10 -19 12 -35 1 -16 6 -37 10 -48 5 -11 3 -22 -6 -28 -11 -8
-10 -9 4 -4 13 4 17 -1 18 -22 3 -44 5 -56 12 -72 4 -8 8 -35 9 -60 2 -25 7
-48 11 -51 4 -3 9 -30 11 -60 2 -30 8 -63 12 -73 5 -13 3 -21 -5 -24 -9 -3 -8
-7 4 -16 11 -8 16 -33 18 -93 2 -46 6 -86 10 -89 4 -4 2 -14 -5 -21 -9 -11 -9
-16 1 -23 10 -6 14 -46 15 -161 0 -90 5 -157 11 -161 7 -5 6 -14 -3 -28 -7
-11 -8 -20 -3 -20 11 0 21 -53 23 -122 1 -27 6 -48 10 -48 11 0 10 -68 -1 -74
-5 -3 -9 -22 -8 -42 1 -20 3 -32 5 -25 2 6 7 9 11 7 11 -7 -3 -102 -14 -96 -5
3 -9 8 -8 13 2 4 -4 7 -12 7 -11 0 -14 -7 -9 -24 3 -14 0 -29 -10 -39 -20 -20
-21 -47 -1 -47 8 0 15 -2 15 -5 0 -15 -42 -85 -50 -85 -5 0 -7 -7 -4 -15 4 -8
1 -15 -5 -15 -6 0 -11 -7 -11 -15 0 -22 -138 -155 -161 -155 -10 0 -19 -4 -19
-10 0 -5 -4 -10 -9 -10 -6 0 -27 -16 -48 -35 -39 -36 -53 -42 -53 -25 0 6 -5
10 -11 10 -6 0 -9 -7 -5 -15 3 -8 1 -15 -5 -15 -5 0 -28 -12 -52 -27 -23 -15
-48 -26 -54 -25 -7 2 -13 -4 -13 -13 0 -9 -4 -13 -10 -10 -5 3 -10 -1 -10 -9
0 -9 -5 -16 -11 -16 -16 0 -32 -21 -47 -60 -26 -67 -26 -69 3 -80 15 -6 26
-12 24 -13 -2 -2 -13 -9 -23 -17 -18 -13 -19 -13 -14 2 9 24 -3 31 -18 10 -19
-24 -17 -40 6 -47 13 -4 17 -11 13 -18 -8 -12 -12 -87 -5 -87 13 0 31 31 25
45 -5 15 -3 16 17 5 16 -9 19 -15 11 -23 -19 -19 -12 -31 7 -14 23 21 42 21
68 2 10 -8 25 -15 32 -15 20 0 14 17 -8 23 -20 5 -28 27 -10 27 6 0 10 7 10
15 0 8 -4 15 -10 15 -18 0 -10 17 15 30 14 7 25 19 25 26 0 7 6 14 13 17 6 2
9 7 6 11 -7 7 -33 -15 -43 -36 -5 -10 -7 -10 -12 0 -3 6 -12 12 -20 12 -18 0
-17 20 1 44 12 16 18 17 27 8 21 -21 48 -15 47 11 -1 16 -2 18 -6 4 -6 -22 -9
-21 -35 3 -24 22 -18 40 7 20 12 -10 15 -10 15 4 0 9 7 16 15 16 8 0 15 -4 15
-10 0 -5 4 -10 10 -10 5 0 9 10 7 23 -2 17 3 22 23 23 14 0 24 6 23 12 -2 7 4
12 12 12 8 0 15 7 15 17 0 9 3 13 7 10 3 -4 21 4 39 18 34 26 50 32 39 15 -3
-5 -1 -10 5 -10 7 0 9 7 6 16 -3 9 -3 21 1 27 4 7 9 3 14 -9 7 -17 8 -17 8 -1
1 9 8 17 17 17 10 0 14 5 10 16 -4 10 -2 13 6 8 6 -4 27 11 50 37 21 24 38 37
38 30 0 -12 -29 -71 -41 -81 -11 -11 -59 -103 -59 -116 0 -7 -10 -20 -22 -28
-12 -9 -19 -16 -15 -16 12 0 -25 -52 -67 -92 -38 -38 -56 -47 -56 -28 0 6 -4
10 -10 10 -14 0 -13 -27 1 -32 14 -5 21 -58 7 -58 -16 0 -39 28 -28 35 5 3 10
1 10 -5 0 -6 5 -8 10 -5 6 4 3 15 -7 29 l-17 23 -18 -21 c-15 -19 -17 -19 -18
-3 0 9 -4 17 -10 17 -13 0 -13 -6 1 -33 12 -21 11 -21 -8 -5 -27 25 -46 23
-38 -2 4 -12 1 -28 -7 -37 -12 -15 -10 -16 20 -10 31 6 32 5 27 -21 -3 -15 -2
-20 1 -12 4 8 13 18 20 23 7 4 11 14 8 22 -8 20 9 19 33 -3 19 -16 19 -18 3
-45 -9 -15 -29 -41 -43 -57 -15 -16 -27 -34 -27 -40 0 -5 -4 -10 -10 -10 -5 0
-10 -6 -10 -12 0 -15 -77 -120 -97 -131 -7 -5 -11 -12 -8 -18 4 -5 0 -9 -8 -9
-8 0 -13 -10 -13 -22 1 -17 -7 -23 -34 -29 -19 -5 -43 -6 -52 -3 -10 3 -18 2
-18 -3 0 -10 -71 -49 -83 -45 -5 1 -26 -11 -47 -28 -25 -20 -44 -28 -56 -23
-12 4 -15 3 -10 -6 11 -17 -22 -51 -42 -44 -14 4 -14 3 -3 -5 7 -5 10 -15 6
-21 -5 -9 -11 -9 -22 1 -14 11 -15 10 -8 -11 6 -21 5 -22 -17 -16 -17 5 -19 4
-8 -4 12 -8 12 -13 2 -23 -9 -9 -12 -9 -12 0 0 7 -5 12 -11 12 -6 0 -9 -7 -5
-15 3 -9 0 -15 -9 -15 -8 0 -15 -7 -15 -15 0 -9 -6 -12 -15 -9 -9 4 -15 0 -15
-10 0 -9 -3 -16 -7 -16 -5 0 -24 -13 -43 -30 -23 -20 -41 -28 -54 -24 -12 4
-16 2 -12 -5 4 -6 0 -11 -10 -11 -9 0 -22 -7 -28 -15 -7 -10 -30 -16 -64 -18
-28 -1 -52 -5 -52 -9 0 -5 -7 -8 -15 -8 -8 0 -15 5 -15 10 0 6 -5 10 -11 10
-5 0 -7 -4 -4 -10 3 -5 -3 -10 -14 -10 -10 0 -22 6 -25 13 -5 10 -7 10 -12 0
-7 -17 -31 -17 -38 0 -5 9 -7 9 -12 0 -10 -22 -25 -14 -21 10 2 12 2 17 0 11
-2 -7 -13 -14 -24 -17 -16 -4 -19 -2 -14 14 4 11 2 19 -4 19 -6 0 -11 -7 -11
-15 0 -8 -7 -15 -15 -15 -8 0 -15 7 -15 15 0 8 -4 15 -10 15 -5 0 -10 -4 -10
-10 0 -5 -7 -10 -15 -10 -8 0 -15 5 -15 11 0 6 -7 9 -15 5 -10 -3 -15 1 -16
12 0 10 -3 12 -6 5 -6 -16 -43 -17 -43 -2 0 8 -5 7 -16 -2 -13 -10 -17 -10
-24 0 -4 8 -12 11 -18 7 -5 -3 -24 -3 -40 0 -22 5 -29 11 -26 23 5 13 4 13 -6
-1 -6 -10 -18 -18 -25 -18 -8 0 -15 8 -15 18 -1 16 -1 16 -14 0 -13 -17 -36
-25 -36 -12 0 4 8 13 17 20 10 7 15 16 11 19 -4 4 -22 -9 -41 -29 -19 -20 -40
-36 -48 -36 -7 0 0 13 16 30 16 16 26 32 23 36 -4 3 -25 -13 -47 -37 -23 -23
-44 -39 -47 -36 -4 3 10 23 30 43 20 20 36 43 36 50 0 8 -29 -17 -64 -54 -36
-37 -68 -64 -71 -60 -4 4 16 30 44 58 28 28 49 55 46 60 -3 5 -31 -19 -63 -53
-68 -73 -83 -86 -99 -87 -7 0 24 37 68 81 44 45 77 84 74 87 -3 4 -51 -40
-106 -96 -89 -89 -119 -114 -119 -97 0 2 45 50 101 105 55 56 98 104 95 107
-3 3 -59 -49 -126 -116 -66 -66 -127 -121 -134 -121 -8 0 42 56 110 125 68 69
124 130 124 136 0 6 -63 -53 -141 -130 -77 -78 -146 -141 -151 -141 -14 0 -1
14 151 166 68 69 121 127 118 130 -3 4 -76 -64 -162 -151 -86 -86 -160 -155
-166 -153 -5 2 60 73 145 158 86 85 155 161 156 169 0 7 -78 -66 -174 -163
-96 -97 -180 -176 -188 -176 -7 0 -1 11 15 25 15 13 27 29 27 35 0 5 4 10 9
10 7 0 110 102 246 243 26 27 44 51 41 54 -3 3 -93 -83 -200 -191 -107 -108
-200 -196 -206 -196 -6 0 64 75 155 168 247 250 274 282 245 282 -5 0 -10 -4
-10 -9 0 -14 -426 -441 -439 -441 -7 0 50 63 126 139 203 204 285 292 280 298
-6 5 -407 -395 -407 -406 0 -4 -13 -15 -30 -24 -16 -10 -30 -16 -30 -12 0 3
71 77 158 164 207 208 295 302 288 308 -5 5 -456 -447 -456 -458 0 -4 -9 -9
-20 -12 -11 -3 -20 -3 -20 -1 0 2 71 75 158 163 292 295 316 320 310 326 -5 5
-305 -293 -476 -471 -28 -30 -52 -32 -26 -3 10 12 105 109 209 215 275 278
279 283 273 290 -4 3 -84 -74 -180 -171 -286 -292 -351 -356 -356 -350 -6 6 3
16 263 280 266 269 279 284 273 290 -3 3 -68 -58 -144 -135 -299 -303 -326
-330 -335 -330 -5 0 -9 -5 -9 -10 0 -12 -79 -90 -91 -90 -13 0 6 21 289 307
232 237 275 283 257 283 -2 0 -59 -57 -127 -126 -291 -297 -460 -464 -469
-464 -11 0 30 44 321 339 253 257 265 270 258 277 -3 3 -33 -23 -67 -58 -206
-215 -551 -558 -561 -558 -11 0 71 86 443 462 92 94 165 173 162 176 -3 3
-147 -137 -321 -312 -173 -175 -318 -316 -320 -313 -5 5 107 122 439 459 97
99 177 185 177 191 0 6 -130 -120 -290 -281 -159 -161 -290 -296 -290 -302 0
-5 -4 -10 -9 -10 -4 0 -20 -12 -35 -27 -14 -14 -29 -24 -31 -21 -6 5 79 93
446 465 98 100 179 188 179 194 0 7 -135 -124 -300 -290 -165 -167 -300 -308
-300 -312 0 -5 -5 -9 -11 -9 -7 0 -22 -12 -35 -27 -13 -15 -26 -24 -29 -21 -3
3 76 89 177 191 398 403 498 507 498 519 0 6 -128 -118 -285 -277 -157 -158
-285 -292 -285 -296 0 -5 -6 -9 -13 -9 -8 0 -20 -11 -27 -25 -7 -14 -19 -25
-27 -25 -7 0 -13 -7 -13 -15 0 -8 -5 -15 -11 -15 -7 0 -20 -10 -30 -22 -11
-11 -19 -16 -19 -10 0 6 78 89 173 185 427 433 517 527 517 538 0 6 -119 -109
-265 -256 -146 -146 -265 -267 -265 -269 0 -7 -133 -136 -141 -136 -5 0 -9 -7
-9 -15 0 -8 -7 -15 -16 -15 -8 0 -12 -4 -9 -10 3 -5 -3 -10 -14 -10 -13 0 49
69 202 224 396 400 487 495 487 506 0 10 -180 -168 -583 -580 -54 -55 -100
-100 -103 -100 -17 0 21 43 207 231 116 118 267 271 336 342 70 70 124 130
120 133 -5 5 -276 -264 -574 -570 -62 -64 -113 -110 -113 -102 0 12 107 123
568 588 69 70 123 130 120 134 -6 6 -236 -222 -570 -565 -76 -78 -140 -141
-143 -141 -3 0 -5 7 -5 15 0 8 7 15 15 15 8 0 15 4 15 8 0 5 142 152 315 328
173 175 311 320 306 322 -8 3 -165 -153 -534 -528 -79 -81 -145 -140 -155
-139 -14 1 -15 2 -1 6 9 2 22 15 29 28 7 14 19 25 25 25 6 0 18 11 25 25 7 14
19 25 27 25 7 0 13 4 13 9 0 4 114 123 253 264 343 347 341 346 335 352 -3 3
-99 -89 -214 -205 -465 -471 -524 -529 -524 -519 0 11 43 56 442 461 153 155
275 284 273 288 -3 4 -89 -78 -192 -182 -286 -290 -295 -298 -304 -298 -5 0
-9 -4 -9 -10 0 -5 -52 -62 -115 -125 -102 -103 -117 -114 -130 -101 -8 8 -15
20 -15 27 0 8 5 6 13 -5 12 -17 19 -12 85 53 40 40 72 73 72 75 0 1 128 132
285 291 157 158 285 293 285 299 0 6 -160 -150 -356 -347 -196 -197 -358 -357
-360 -354 -5 5 106 121 478 499 131 132 238 245 238 251 0 13 -16 -1 -117
-105 -229 -235 -373 -376 -377 -369 -2 3 103 116 235 250 131 134 239 248 239
252 0 5 -4 9 -10 9 -5 0 -10 -3 -10 -7 0 -13 -727 -743 -739 -743 -6 0 27 38
74 85 47 47 85 90 85 95 0 6 4 10 9 10 5 0 52 44 105 97 53 54 177 180 276
280 99 101 180 188 180 195 0 6 -139 -129 -310 -301 -170 -171 -310 -316 -310
-322 0 -5 -4 -9 -9 -9 -12 0 -91 -78 -91 -90 0 -5 -7 -10 -15 -10 -8 0 -16 -8
-16 -17 -1 -16 -2 -16 -6 -2 -3 11 54 76 169 193 498 505 568 578 568 588 0 6
-128 -118 -285 -276 -157 -159 -285 -283 -285 -276 0 6 62 74 138 150 266 267
413 422 408 427 -3 3 -132 -122 -286 -277 -154 -155 -284 -280 -287 -277 -3 4
68 80 158 171 284 285 389 395 389 406 0 11 -462 -449 -562 -559 -26 -28 -51
-51 -56 -51 -5 0 -15 -11 -22 -25 -7 -14 -19 -25 -27 -25 -7 0 -13 -4 -13 -8
0 -9 -76 -92 -84 -92 -3 0 -6 7 -6 15 0 8 7 15 15 15 8 0 15 4 15 9 0 6 99
110 221 233 122 123 264 267 317 320 53 54 93 100 90 103 -5 6 -418 -400 -418
-410 0 -8 -84 -85 -92 -85 -4 0 -8 -4 -8 -10 0 -9 -126 -140 -135 -140 -19 0
26 50 256 282 435 438 463 467 457 473 -5 5 -478 -461 -478 -471 0 -7 -133
-134 -141 -134 -5 0 -9 -5 -9 -11 0 -11 -24 -39 -34 -39 -20 0 20 45 240 267
405 408 428 432 422 439 -4 3 -64 -53 -135 -124 -70 -72 -235 -239 -366 -371
-138 -140 -244 -241 -255 -240 -13 0 -14 2 -2 6 16 7 40 28 40 36 0 3 145 151
321 329 339 341 383 387 376 395 -4 4 -184 -175 -332 -329 -20 -21 -40 -38
-45 -38 -6 0 -10 -4 -10 -8 0 -9 -346 -362 -355 -362 -3 0 -5 7 -5 15 0 8 6
15 13 15 8 0 19 11 26 24 7 13 24 30 37 37 13 7 24 16 24 21 0 5 39 47 87 93
48 47 84 88 80 91 -4 4 -70 -57 -147 -135 -77 -78 -140 -135 -140 -127 0 8 6
17 13 20 10 5 10 7 0 12 -15 7 -17 34 -3 34 6 0 10 7 10 15 0 8 5 15 11 15 13
0 39 25 39 38 0 6 6 12 13 15 6 2 9 8 5 12 -4 4 -29 -15 -56 -43 -41 -43 -50
-48 -65 -37 -23 16 -22 23 7 50 14 13 22 26 19 29 -4 3 1 6 10 6 9 0 17 -4 17
-10 0 -24 27 -4 118 90 53 55 206 211 340 347 133 135 242 250 242 255 0 4 -4
8 -10 8 -5 0 -10 -4 -10 -8 0 -15 -671 -685 -678 -677 -4 3 1 12 10 19 10 7
15 16 11 19 -3 4 -1 7 6 7 6 0 39 29 74 65 34 36 182 187 330 336 147 149 267
276 267 282 0 6 -157 -147 -350 -342 -192 -194 -350 -357 -350 -362 0 -5 -6
-9 -13 -9 -8 0 -20 -11 -27 -25 -7 -14 -19 -25 -27 -25 -7 0 -13 -5 -13 -10 0
-6 -8 -5 -20 2 -22 14 -26 34 -8 40 7 3 -7 24 -35 50 -52 51 -56 59 -27 51 11
-3 20 -10 20 -15 0 -13 26 -38 39 -38 6 0 11 -7 11 -15 0 -23 9 -18 46 20 20
22 27 35 18 35 -8 0 -14 -4 -14 -10 0 -5 -4 -10 -10 -10 -21 0 -8 23 42 71 28
27 45 49 37 49 -16 -1 -49 -24 -49 -34 0 -4 -7 -14 -16 -23 -14 -14 -16 -14
-28 2 -10 15 -15 15 -21 5 -5 -9 -4 -15 3 -18 16 -5 15 -29 0 -36 -10 -5 -10
-7 0 -12 6 -3 12 -13 12 -21 0 -9 -18 3 -46 31 -25 26 -43 50 -40 53 3 4 14
-4 25 -15 17 -20 41 -30 41 -16 0 3 -23 27 -51 54 -29 28 -46 51 -40 55 6 3
11 1 11 -4 0 -20 21 -11 53 21 20 20 27 33 19 36 -6 2 -12 8 -12 14 0 13 26
38 39 38 6 0 11 5 11 10 0 18 -22 11 -46 -15 -21 -23 -24 -24 -33 -7 -9 16
-11 15 -31 -6 -24 -25 -20 -43 4 -22 13 10 18 9 31 -3 19 -19 19 -25 0 -43
-13 -14 -20 -9 -64 36 -29 31 -55 49 -61 45 -8 -5 3 -21 31 -46 24 -21 40 -41
37 -45 -3 -3 -36 25 -73 61 -36 37 -64 70 -60 73 3 4 10 0 14 -7 5 -7 14 -10
20 -6 8 4 -6 24 -40 56 -29 27 -49 52 -46 55 3 4 22 -10 42 -30 19 -20 40 -34
46 -30 7 4 1 15 -15 29 -28 24 -33 41 -14 47 15 5 -13 38 -31 38 -15 0 -14
-17 2 -23 6 -2 9 -8 5 -12 -4 -4 -24 9 -43 30 -27 27 -40 34 -48 26 -8 -8 -6
-11 6 -11 9 0 17 -7 17 -15 0 -20 -7 -19 -31 3 -19 19 -19 19 6 38 27 20 32
40 13 47 -7 2 -9 8 -5 13 4 5 12 2 17 -6 8 -12 13 -11 32 9 14 16 18 26 10 29
-21 7 -13 21 34 68 26 24 43 48 40 52 -4 3 -32 -20 -63 -52 -44 -45 -53 -60
-43 -66 8 -5 11 -12 7 -17 -5 -4 -12 -1 -17 7 -8 13 -13 11 -32 -9 -16 -16
-19 -25 -10 -28 6 -3 12 -12 12 -21 0 -12 -4 -11 -21 7 -17 18 -18 25 -8 37
10 13 10 17 -1 24 -8 5 -11 13 -6 17 5 4 11 2 13 -4 6 -18 33 -16 33 1 0 8 6
16 13 19 6 2 9 8 5 12 -4 4 -14 2 -22 -5 -13 -10 -18 -9 -31 4 -15 14 -14 18
4 38 18 18 21 19 21 5 0 -9 -4 -17 -10 -17 -5 0 -10 -4 -10 -10 0 -15 19 -12
36 4 17 18 18 33 2 39 -10 3 -10 8 1 21 12 14 12 19 2 25 -10 7 -10 12 0 30 8
11 19 21 26 21 7 0 13 7 13 15 0 8 3 15 8 15 12 0 62 47 62 59 0 21 -16 11
-64 -39 -27 -28 -51 -48 -54 -45 -3 3 23 35 58 70 36 36 58 65 50 65 -8 0 -62
-47 -119 -105 -82 -83 -107 -103 -118 -94 -10 9 -17 8 -28 -1 -20 -17 -19 -3
2 18 12 12 18 13 21 4 2 -6 7 -12 12 -12 12 0 190 178 190 190 0 5 6 10 14 10
8 0 17 6 19 13 4 9 8 9 15 -2 8 -11 14 -10 33 8 19 17 20 21 6 21 -9 0 -17 -4
-17 -10 0 -5 -4 -10 -10 -10 -17 0 -11 16 16 44 17 16 21 26 13 26 -8 0 -68
-54 -133 -120 -65 -66 -121 -119 -123 -116 -2 2 39 48 91 101 89 90 108 115
88 115 -4 0 -38 -32 -76 -70 -38 -39 -71 -69 -73 -66 -3 3 31 41 76 86 45 45
78 87 75 92 -4 6 -49 -32 -102 -86 -52 -54 -97 -95 -100 -92 -3 3 5 14 16 25
23 19 29 41 12 41 -5 0 -14 -8 -19 -17 -7 -12 -10 -13 -11 -5 0 8 20 33 45 58
25 24 45 48 45 54 0 5 5 10 10 10 13 0 13 -17 0 -25 -13 -8 -13 -25 1 -25 11
0 23 11 49 44 14 18 13 18 -8 12 -14 -5 -29 -3 -37 4 -12 10 -15 10 -15 1 0
-8 -8 -10 -19 -6 -16 5 -18 2 -14 -15 6 -22 -12 -28 -21 -7 -3 6 -3 2 0 -10 7
-28 -6 -29 -34 -3 -24 23 -31 10 -7 -14 21 -20 19 -29 -5 -21 -11 4 -20 2 -20
-4 0 -6 5 -11 11 -11 5 0 7 -5 3 -12 -6 -9 -9 -9 -12 0 -2 7 -10 12 -17 12 -7
0 -15 6 -18 13 -2 6 -8 9 -12 5 -5 -5 2 -16 13 -27 26 -22 27 -28 6 -48 -13
-13 -17 -14 -24 -3 -7 11 -11 11 -24 0 -9 -7 -20 -9 -24 -5 -4 4 -1 10 6 12
16 6 16 30 0 36 -7 2 -10 8 -6 12 5 5 19 -5 33 -20 13 -16 27 -26 31 -23 3 4
-8 22 -26 39 -26 26 -34 30 -41 18 -8 -12 -10 -12 -18 1 -6 8 -13 11 -16 8 -4
-4 2 -17 14 -29 11 -12 17 -27 14 -33 -4 -7 -8 -6 -11 2 -5 17 -20 15 -44 -8
-18 -16 -19 -20 -6 -20 9 0 18 6 20 12 3 9 9 8 21 -4 21 -21 22 -35 1 -17 -13
10 -17 10 -24 -1 -7 -12 -12 -11 -28 3 -10 9 -25 17 -33 16 -10 0 -10 -2 -1
-6 24 -9 12 -23 -15 -17 -26 7 -27 6 -13 -11 14 -16 13 -17 -8 -11 -23 8 -32
-9 -9 -17 6 -2 9 -8 5 -12 -4 -4 -21 7 -39 24 -17 18 -29 35 -25 38 3 4 13 -2
20 -13 8 -10 18 -16 22 -12 4 4 1 15 -7 24 -12 15 -11 16 9 10 13 -5 22 -3 22
3 0 6 7 11 15 11 8 0 15 5 15 11 0 13 25 39 38 39 6 0 12 -6 15 -12 2 -7 8
-10 12 -6 4 4 2 14 -5 22 -10 13 -9 18 3 31 18 17 37 20 37 5 0 -5 5 -10 10
-10 6 0 6 7 -2 19 -9 15 -8 22 5 35 8 9 20 16 26 16 6 0 11 5 11 10 0 5 19 29
41 51 l41 41 34 -37 c31 -35 34 -36 50 -21 9 9 13 20 10 24 -4 3 -11 0 -15 -7
-7 -10 -16 -7 -40 17 l-32 30 31 32 c27 27 33 30 47 18 14 -11 15 -10 9 10 -6
19 0 30 29 58 21 19 40 32 44 29 3 -4 -10 -19 -29 -35 -19 -16 -32 -32 -28
-35 4 -4 17 2 29 14 25 23 39 27 39 10 0 -5 5 -7 12 -3 9 6 9 9 0 12 -17 5
-15 32 3 32 8 0 15 -5 15 -10 0 -13 39 9 61 35 10 11 21 16 25 12 5 -4 2 -12
-6 -17 -8 -5 -11 -12 -7 -16 4 -4 18 5 33 21 14 15 37 28 52 29 15 1 33 5 41
10 10 6 16 5 19 -2 2 -8 9 -8 23 1 16 10 21 9 29 -3 8 -13 10 -12 10 3 0 16
18 22 60 19 8 0 17 3 20 7 11 16 77 50 84 43 4 -4 6 0 4 8 -2 10 3 14 15 12 9
-2 17 2 17 8 0 6 -4 8 -10 5 -35 -22 26 59 107 141 29 30 53 58 53 63 0 4 11
14 25 21 14 7 25 17 25 22 0 4 6 8 13 8 8 0 22 9 32 20 10 11 23 20 28 20 6 0
63 35 126 77 63 42 124 76 135 75 15 -1 17 1 7 7 -9 6 -10 11 -2 15 6 4 16 4
21 1 6 -3 10 1 10 9 0 9 6 16 13 16 15 0 227 214 227 229 0 6 5 11 11 11 12 0
39 25 39 37 0 4 15 18 33 30 17 13 43 31 57 40 l25 17 -20 -24 c-11 -13 -31
-34 -45 -46 -14 -12 -22 -25 -18 -29 10 -10 269 257 264 271 -2 6 2 23 9 38
19 36 0 33 -36 -5 -16 -18 -33 -29 -36 -25 -4 3 15 29 42 56 27 28 45 50 40
50 -5 0 -31 -21 -57 -47 -26 -26 -51 -44 -55 -40 -3 4 15 28 40 54 26 26 47
51 47 57 0 6 -28 -18 -63 -54 -62 -65 -62 -65 -119 -65 -32 -1 -58 3 -58 8 0
5 27 36 60 69 33 33 60 65 60 71 0 6 -34 -23 -76 -66 -67 -69 -94 -89 -94 -71
0 3 34 38 75 78 41 40 72 76 69 79 -4 3 -42 -30 -86 -73 -70 -70 -84 -79 -107
-73 -14 3 -27 7 -29 8 -1 1 27 32 64 69 36 37 64 69 61 72 -3 3 -37 -27 -76
-66 -58 -59 -74 -70 -86 -60 -8 6 -19 9 -25 5 -30 -19 -1 20 66 88 42 43 75
80 72 82 -5 5 -61 -48 -131 -124 -37 -39 -57 -51 -57 -32 0 4 12 20 26 35 15
14 22 26 16 26 -6 0 -19 -10 -29 -23 -10 -13 -23 -26 -30 -30 -18 -11 -63 3
-63 20 0 13 -3 13 -16 2 -12 -10 -17 -10 -23 -1 -4 7 -15 10 -24 6 -13 -5 -16
-2 -11 9 3 9 12 18 20 21 9 3 12 11 8 17 -4 7 -14 2 -29 -15 -24 -28 -40 -33
-49 -13 -5 10 -7 10 -12 0 -3 -7 -12 -13 -19 -13 -7 0 -16 6 -19 13 -5 10 -7
10 -12 0 -3 -7 -12 -13 -19 -13 -7 0 -16 6 -18 13 -4 9 -8 8 -16 -3 -5 -8 -13
-11 -17 -7 -4 3 -1 13 6 22 8 10 9 15 1 15 -6 0 -11 -4 -11 -9 0 -11 -70 -45
-77 -37 -3 3 -14 1 -24 -4 -10 -6 -20 -6 -23 -1 -3 5 1 12 10 15 9 4 14 9 11
13 -4 3 -23 -9 -43 -26 -21 -19 -42 -30 -51 -26 -9 3 -22 0 -30 -7 -11 -9 -17
-9 -25 3 -7 11 -11 11 -15 2 -6 -15 -33 -17 -33 -3 0 6 -4 10 -10 10 -5 0 -10
-7 -10 -15 0 -15 -16 -20 -57 -16 -12 1 -24 -3 -28 -9 -3 -6 -16 1 -31 17 -13
14 -28 23 -32 18 -4 -4 -1 -10 6 -12 21 -8 13 -25 -8 -18 -11 4 -20 2 -20 -4
0 -15 -27 -14 -33 2 -3 9 -7 9 -21 -2 -14 -12 -19 -10 -40 14 -15 17 -26 23
-30 16 -4 -6 -2 -11 3 -11 6 0 11 -7 11 -16 0 -14 -2 -15 -17 -3 -13 11 -17
11 -20 2 -7 -20 -23 -15 -45 13 -11 14 -23 23 -26 20 -2 -3 1 -12 8 -21 24
-29 0 -29 -30 0 -17 16 -30 23 -30 17 0 -7 5 -12 10 -12 6 0 10 -7 10 -15 0
-18 -11 -19 -29 -2 -11 9 -14 9 -18 0 -5 -15 -40 0 -60 26 -7 9 -13 11 -13 5
0 -5 5 -15 12 -22 15 -15 4 -27 -14 -16 -17 11 -229 13 -222 2 11 -18 -14 -6
-36 17 -25 27 -22 46 3 20 26 -25 30 -17 7 16 -12 16 -19 33 -15 37 4 4 10 1
12 -5 3 -7 9 -13 14 -13 5 0 1 12 -8 27 -17 26 -17 27 0 20 11 -4 17 -2 17 8
0 8 -4 15 -10 15 -5 0 -10 7 -10 16 0 8 4 13 9 9 6 -3 9 13 7 40 -2 40 0 45
16 39 22 -6 25 11 3 20 -20 7 -19 26 2 26 13 0 14 3 5 12 -31 31 -6 37 27 7
43 -40 33 -10 -12 38 -52 54 -55 71 -5 24 18 -17 36 -31 41 -31 14 0 7 15 -13
27 -10 7 -24 22 -31 34 -9 19 -9 21 4 16 20 -8 29 3 16 20 -7 8 -8 13 -1 13
11 0 88 -75 102 -99 5 -9 11 -13 15 -9 7 7 -25 48 -68 87 -15 14 -27 32 -27
40 0 10 7 8 25 -9 14 -13 27 -21 30 -18 3 3 -8 18 -25 34 -32 31 -39 47 -15
38 20 -8 19 6 -2 36 -12 19 -7 16 20 -9 20 -19 39 -32 43 -28 6 6 -2 18 -39
59 -29 31 -14 30 20 -2 49 -46 62 -36 17 13 -27 30 -28 50 -1 22 19 -19 27
-19 27 0 0 9 6 12 15 9 25 -10 17 13 -15 46 -17 17 -30 35 -30 41 0 5 11 -1
24 -15 13 -15 26 -26 30 -26 14 0 4 20 -25 50 -41 41 -32 49 10 9 40 -38 55
-30 18 9 -31 32 -34 44 -11 35 13 -5 15 -2 9 16 -6 20 -5 21 14 9 12 -7 21
-16 21 -20 0 -5 4 -8 9 -8 5 0 7 22 5 49 -2 37 0 51 12 55 9 3 20 4 25 0 5 -3
9 -1 9 5 0 5 -4 12 -9 15 -5 3 -11 14 -14 25 -4 17 -2 18 14 8 10 -6 19 -15
19 -19 0 -5 6 -8 14 -8 8 0 17 -8 19 -17 4 -16 5 -16 6 -1 0 9 -3 20 -9 23
-16 10 -11 25 6 18 14 -5 14 -3 3 16 -8 11 -17 21 -21 21 -14 0 -8 20 12 40
15 15 20 16 20 6 0 -8 -6 -16 -12 -19 -10 -3 -10 -7 1 -20 19 -24 30 -21 23 6
-5 20 -4 21 11 8 15 -12 17 -11 17 3 0 10 4 15 9 11 5 -3 12 -1 16 5 3 5 -1
10 -9 10 -25 0 -20 35 5 37 14 1 19 -3 15 -13 -3 -8 1 -14 9 -14 8 0 15 -5 15
-11 0 -11 25 -39 34 -39 4 0 4 11 0 25 -4 15 -2 25 5 25 6 0 11 -7 11 -15 0
-8 5 -15 10 -15 14 0 12 -28 -2 -33 -7 -2 -10 -7 -7 -11 4 -4 14 0 22 9 20 19
27 19 27 0 0 -8 -7 -15 -15 -15 -8 0 -15 -4 -15 -10 0 -5 5 -10 11 -10 11 0
39 -24 39 -34 0 -2 -11 -3 -25 0 -14 2 -25 0 -25 -6 0 -5 5 -10 11 -10 14 0
39 -25 39 -39 0 -6 5 -11 11 -11 11 0 39 -25 39 -35 0 -8 26 -35 34 -35 3 0 6
7 6 15 0 8 -4 15 -10 15 -5 0 -10 5 -10 10 0 6 7 10 15 10 8 0 15 -5 15 -11 0
-14 25 -39 39 -39 6 0 11 -8 11 -17 1 -17 1 -17 14 0 7 9 18 17 25 17 6 0 11
-8 11 -17 1 -17 1 -17 14 0 7 9 19 17 27 17 10 -1 9 -4 -3 -14 -17 -12 -25
-36 -12 -36 10 0 64 58 64 69 0 15 -17 14 -23 -1 -2 -7 -7 -10 -11 -7 -3 3 3
15 14 27 26 27 25 31 -2 25 -18 -5 -21 -3 -11 7 6 7 9 19 6 26 -4 11 -11 8
-29 -11 -13 -14 -28 -25 -34 -25 -5 0 14 22 42 50 29 27 60 57 69 65 19 18 34
8 18 -12 -16 -18 -1 -16 18 3 10 9 25 13 38 10 14 -4 28 0 35 9 7 8 19 15 27
15 13 0 13 -3 3 -15 -7 -8 -8 -15 -2 -15 5 0 15 6 21 14 15 18 84 17 77 -1 -7
-16 6 -17 22 -1 10 10 15 10 22 -2 9 -13 11 -13 19 -1 8 13 12 13 26 1 13 -11
18 -11 24 -1 4 6 26 14 49 16 33 3 40 1 35 -12 -3 -8 7 -3 22 11 15 14 36 26
46 26 24 0 69 21 69 32 0 12 -18 10 -22 -3 -2 -6 -20 -12 -39 -13 -20 -2 -41
-6 -47 -10 -6 -3 -13 0 -16 6 -5 10 -7 10 -12 1 -3 -7 -12 -13 -19 -13 -7 0
-16 6 -18 13 -4 9 -8 8 -16 -3 -9 -13 -14 -13 -32 -2 -19 12 -21 12 -16 -1 4
-12 -4 -15 -39 -14 -24 0 -44 4 -44 9 0 5 -10 6 -21 3 -13 -5 -25 -2 -30 6 -6
10 -12 9 -28 -5 -19 -17 -21 -17 -21 -3 0 21 -7 21 -28 1 -15 -15 -16 -15 -22
1 -5 15 -7 16 -19 1 -9 -11 -30 -16 -67 -16 -30 0 -54 -4 -54 -10 0 -5 -7 -10
-15 -10 -9 0 -21 -11 -27 -25 -6 -14 -15 -25 -19 -25 -4 0 -15 -7 -23 -16 -9
-8 -21 -14 -28 -12 -6 2 22 36 62 76 57 57 76 69 90 62 12 -6 22 -3 36 13 16
20 19 20 22 5 5 -23 11 -23 33 3 16 18 21 20 35 8 13 -10 17 -10 24 1 7 11 11
11 24 1 13 -11 19 -11 32 0 13 10 17 10 24 -1 7 -11 12 -11 22 -2 11 9 18 9
27 -1 11 -9 14 -9 18 1 3 6 11 12 18 12 7 0 16 -6 19 -12 5 -10 7 -10 12 0 7
14 34 16 34 2 0 -5 5 -10 11 -10 6 0 9 6 6 13 -3 8 7 13 27 14 17 1 41 5 54 8
13 3 22 1 22 -6 0 -7 9 -4 21 7 17 16 22 16 30 4 8 -11 12 -12 16 -2 6 14 33
16 33 2 0 -5 5 -10 11 -10 5 0 7 5 4 10 -3 6 1 10 9 10 9 0 16 4 16 8 0 15 54
35 58 23 2 -6 8 -9 12 -6 5 3 7 12 3 20 -4 11 -1 13 11 9 10 -4 16 -1 17 7 0
8 21 29 45 47 39 28 48 31 62 20 13 -11 15 -10 10 10 -5 19 -3 22 13 17 14 -5
19 -2 19 11 0 10 3 15 6 12 3 -3 17 5 31 18 28 26 43 30 43 13 0 -5 4 -8 10
-4 5 3 6 13 3 22 -4 11 -3 14 5 9 7 -4 25 6 45 26 52 54 98 83 107 68 6 -9 10
-8 17 5 6 9 23 18 39 19 16 1 35 5 43 10 8 5 16 4 22 -5 8 -12 10 -12 18 0 8
12 12 13 25 1 21 -16 33 -5 16 15 -18 22 -3 18 20 -5 11 -11 27 -20 35 -20 8
0 15 -7 15 -16 0 -14 1 -14 16 0 8 9 28 16 44 16 21 0 27 4 25 18 -1 9 0 11 2
4 3 -7 9 -10 14 -7 14 10 11 -3 -8 -25 -13 -14 -20 -17 -30 -8 -26 21 -12 -8
17 -35 21 -20 30 -24 30 -14 0 9 6 18 13 20 9 4 9 8 -2 15 -7 5 -10 15 -7 21
10 15 26 14 26 -2 0 -7 9 -18 20 -25 12 -7 20 -8 20 -2 0 5 -4 10 -10 10 -5 0
-10 5 -10 10 0 6 -11 21 -25 34 -23 21 -24 24 -8 31 17 6 17 7 1 19 -22 16
-23 36 -3 36 8 0 15 -5 15 -11 0 -13 29 -38 45 -39 5 0 -10 18 -33 40 -23 23
-42 44 -42 48 0 4 -9 13 -20 20 -12 7 -20 8 -20 2 0 -5 5 -10 10 -10 6 0 10
-6 10 -14 0 -8 6 -16 13 -19 6 -2 9 -7 5 -11 -8 -9 -48 15 -48 29 0 6 -9 16
-20 23 -12 7 -20 8 -20 2 0 -5 5 -10 12 -10 9 0 9 -3 0 -12 -9 -9 -16 -6 -30
10 -24 27 -35 28 -27 2 4 -11 2 -20 -4 -20 -6 0 -11 6 -11 12 0 7 -10 3 -22
-9 -12 -13 -19 -26 -14 -30 4 -4 12 -1 17 7 8 11 12 12 16 3 2 -7 11 -13 19
-13 8 0 14 -4 14 -10 0 -14 -27 -12 -33 3 -4 9 -8 9 -15 -2 -8 -12 -14 -12
-25 -3 -11 10 -17 9 -27 -3 -11 -14 -14 -13 -26 2 -11 15 -13 15 -14 3 0 -23
-43 -40 -64 -24 -15 10 -15 15 -4 33 18 29 30 26 22 -4 -4 -16 -2 -25 6 -25 7
0 10 7 6 15 -3 9 0 15 9 15 8 0 15 5 15 11 0 5 4 8 9 5 5 -3 14 1 21 9 14 17
35 21 25 5 -11 -18 12 -10 31 11 15 17 16 22 4 29 -8 5 -11 12 -7 16 3 4 13 1
22 -6 12 -10 15 -10 15 4 0 10 -4 14 -10 11 -5 -3 -10 0 -10 7 0 7 -9 19 -20
26 -12 7 -20 8 -20 2 0 -5 5 -10 10 -10 15 0 12 -19 -6 -37 -13 -13 -20 -14
-35 -5 -16 10 -19 9 -19 -3 0 -13 -4 -14 -21 -5 -11 7 -23 9 -27 6 -3 -3 0 -6
6 -6 7 0 12 -5 12 -11 0 -7 -10 -9 -25 -5 -14 4 -25 3 -25 -2 0 -13 -60 -44
-76 -38 -7 3 -14 2 -14 -3 0 -5 -18 -20 -40 -35 -22 -14 -40 -33 -40 -40 0 -8
-6 -16 -12 -19 -9 -3 -7 -9 7 -20 11 -8 22 -13 25 -11 2 3 -2 9 -9 13 -10 7
-9 13 5 29 14 16 21 19 31 10 7 -6 17 -7 21 -3 4 4 1 10 -5 12 -7 3 -13 9 -13
15 0 7 5 6 14 -1 12 -10 20 -9 39 4 24 15 26 15 30 -2 4 -14 5 -13 6 5 1 21 3
22 16 8 8 -8 15 -20 15 -27 0 -7 -3 -10 -6 -6 -4 3 -13 -1 -21 -9 -14 -13 -17
-13 -30 3 -13 17 -14 16 -7 -6 5 -19 3 -23 -10 -18 -9 4 -16 2 -16 -3 0 -6 -5
-10 -10 -10 -6 0 -20 -9 -32 -20 -11 -10 -36 -26 -54 -35 -19 -9 -59 -39 -90
-68 -31 -29 -66 -56 -77 -62 -12 -5 -24 -12 -27 -15 -8 -9 -100 -50 -111 -50
-6 0 -23 -8 -37 -19 -15 -10 -35 -19 -44 -20 -10 -1 -27 -2 -38 -3 -11 -1 -20
-5 -20 -8 0 -8 -2 -8 -101 -13 -41 -2 -80 -7 -86 -10 -7 -4 -14 -3 -18 3 -4 6
-13 5 -26 -3 -16 -10 -21 -9 -29 3 -6 10 -10 11 -10 3 0 -7 -9 -13 -21 -13
-11 0 -18 4 -14 9 10 17 -12 21 -25 6 -14 -17 -35 -21 -25 -5 3 6 1 10 -4 10
-6 0 -11 -6 -11 -12 0 -7 -13 -13 -30 -14 -27 -1 -28 0 -12 12 27 21 1 16 -35
-6 -41 -25 -42 -19 -1 22 19 20 33 28 36 20 6 -18 22 -14 46 11 19 20 24 22
35 10 11 -12 16 -12 30 1 23 21 31 20 31 -1 1 -17 2 -17 15 1 8 10 27 19 44
20 16 1 33 5 37 9 17 16 26 6 10 -12 -11 -12 -14 -21 -7 -26 6 -3 11 -1 11 6
0 12 29 38 43 39 4 0 3 -9 -3 -19 -13 -25 -13 -31 0 -31 6 0 10 6 10 13 1 16
66 48 85 41 8 -4 15 -1 15 5 0 6 7 11 15 11 8 0 15 -5 15 -12 0 -6 11 -1 25
12 21 19 25 21 25 7 0 -9 5 -17 10 -17 6 0 10 5 10 10 0 6 6 10 13 10 7 0 18
9 25 20 7 11 17 20 23 20 8 0 7 -5 -1 -15 -7 -9 -10 -18 -7 -21 8 -8 47 28 41
38 -3 4 0 8 7 8 7 0 21 7 31 17 17 15 18 15 18 0 0 -10 5 -17 10 -17 6 0 10 8
10 17 0 9 2 14 5 11 3 -3 29 16 56 43 50 48 69 59 69 39 0 -6 8 -5 20 2 11 7
20 17 20 21 0 13 -30 40 -37 33 -4 -3 -1 -12 5 -18 15 -15 15 -28 1 -28 -5 0
-8 4 -5 9 3 5 -1 11 -9 15 -9 3 -15 0 -15 -9 0 -8 -7 -15 -15 -15 -8 0 -15 -4
-15 -8 0 -4 -26 -21 -57 -37 -32 -17 -66 -36 -76 -44 -9 -8 -25 -15 -35 -16
-9 -1 -26 -6 -36 -10 -13 -6 -21 -4 -24 3 -2 8 -13 5 -33 -9 -24 -17 -33 -18
-44 -9 -12 10 -15 9 -15 -3 0 -8 3 -17 8 -20 4 -2 1 -2 -7 0 -7 2 -20 -2 -28
-8 -18 -16 -29 -3 -13 16 20 24 1 17 -26 -10 -29 -29 -55 -24 -28 6 9 10 14
19 10 19 -10 0 -36 -27 -36 -37 0 -5 -10 -9 -22 -10 -13 -1 -38 -5 -55 -8 -21
-4 -33 -2 -33 5 0 7 -6 8 -19 0 -14 -7 -22 -7 -26 1 -5 7 -14 4 -26 -7 -11
-10 -19 -12 -19 -6 0 16 -27 15 -33 0 -4 -10 -8 -9 -16 2 -9 13 -14 13 -40 -3
-40 -24 -47 -21 -17 7 30 27 32 36 11 36 -8 0 -15 -7 -15 -15 0 -8 -4 -15 -8
-15 -5 0 -18 -9 -31 -21 -12 -12 -25 -19 -28 -16 -3 3 14 24 37 46 34 32 46
38 57 29 10 -8 17 -8 25 0 9 9 8 12 -5 12 -9 0 -17 7 -17 15 0 19 -9 19 -32
-2 -24 -21 -24 1 0 25 17 17 19 17 42 -5 26 -25 40 -29 40 -13 0 6 -7 10 -16
10 -8 0 -12 5 -9 10 3 6 -1 10 -9 10 -9 0 -16 5 -16 11 0 6 -27 38 -61 71 -34
33 -59 62 -56 64 2 3 35 -27 73 -65 64 -66 94 -85 94 -61 0 6 -7 10 -15 10 -8
0 -15 4 -15 9 0 5 -20 30 -45 55 -25 26 -45 51 -45 57 0 5 22 -13 49 -41 27
-27 54 -50 60 -50 17 0 13 9 -16 36 -14 13 -24 26 -21 29 3 3 17 -6 31 -21 14
-14 31 -23 37 -19 6 4 -10 26 -41 56 -29 27 -50 51 -47 54 2 2 25 -16 51 -40
41 -40 67 -55 67 -40 0 3 -19 24 -42 45 -56 54 -43 61 15 7 31 -28 45 -49 43
-62 -2 -11 -1 -14 1 -7 3 6 11 12 19 12 8 0 14 5 14 10 0 6 -7 10 -15 10 -8 0
-15 4 -15 9 0 5 -22 31 -50 59 -73 74 -50 69 28 -6 49 -47 68 -60 70 -48 2 9
10 16 18 16 8 0 14 5 14 10 0 6 -7 10 -15 10 -8 0 -15 4 -15 9 0 5 -17 25 -37
45 -21 20 -33 36 -27 36 6 0 23 -13 39 -30 36 -38 65 -42 38 -6 -10 14 -28 30
-40 37 -19 10 -33 39 -19 39 3 0 27 -24 55 -52 27 -29 53 -50 56 -46 4 4 -9
24 -29 45 -20 21 -36 42 -36 47 0 10 53 -35 76 -64 7 -8 16 -11 20 -7 4 4 -17
32 -46 62 -60 61 -58 77 2 18 43 -42 66 -37 25 5 -45 47 -30 49 18 2 52 -51
75 -47 25 5 -19 19 -28 35 -22 35 7 0 15 -7 18 -15 7 -16 34 -21 34 -6 0 5
-12 19 -27 30 -14 12 -23 24 -20 27 3 3 27 -15 54 -40 45 -43 63 -55 63 -40 0
4 -16 22 -36 41 -20 19 -34 37 -30 40 3 4 20 -6 36 -22 17 -16 30 -23 30 -16
0 8 -12 25 -26 38 -14 13 -24 26 -21 29 5 6 44 -25 78 -60 13 -13 19 -15 19
-7 0 8 -16 29 -36 48 -20 19 -34 37 -30 40 3 4 14 -2 25 -13 38 -40 83 -75 88
-70 4 3 -4 15 -16 25 -19 17 -21 22 -9 40 13 22 28 28 28 12 0 -5 -6 -11 -12
-14 -10 -4 -10 -7 0 -18 10 -11 12 -10 12 4 0 9 7 17 16 17 14 0 14 3 4 15
-13 16 -10 21 33 69 9 11 17 23 17 28 0 17 -19 6 -50 -28 -17 -20 -34 -33 -38
-29 -4 4 -1 10 6 12 13 5 17 33 4 33 -4 0 -14 -6 -21 -12 -11 -10 -14 -10 -18
-1 -3 9 -9 10 -23 1 -16 -10 -22 -8 -40 12 -11 13 -23 21 -26 17 -3 -3 3 -16
15 -28 26 -28 20 -36 -11 -15 -29 20 -44 21 -28 1 7 -9 10 -18 7 -22 -4 -3
-23 11 -42 32 -20 20 -39 34 -43 31 -3 -4 8 -20 26 -37 18 -16 32 -35 32 -41
0 -11 -23 4 -51 34 -9 10 -22 18 -29 18 -7 0 -1 -12 14 -26 37 -38 32 -53 -6
-18 -18 16 -37 35 -41 42 -5 7 -13 10 -19 6 -5 -4 6 -23 28 -45 51 -53 31 -50
-23 3 -49 48 -72 44 -25 -5 46 -48 39 -58 -8 -12 -42 41 -57 30 -17 -13 46
-51 -4 -14 -73 52 -39 38 -73 66 -76 63 -3 -3 28 -41 70 -83 41 -43 73 -81 70
-83 -2 -3 -34 24 -69 59 -35 35 -67 61 -71 57 -4 -3 21 -34 54 -69 34 -34 59
-64 56 -67 -2 -3 -34 24 -69 59 -36 36 -65 58 -65 50 0 -8 28 -43 63 -78 107
-110 44 -63 -80 59 -191 189 -325 330 -320 336 3 3 52 -43 108 -101 93 -96
127 -124 117 -96 -1 5 -48 54 -102 110 -55 55 -97 103 -94 106 3 3 51 -41 106
-97 55 -55 105 -100 111 -98 6 2 -33 48 -86 102 -53 53 -94 100 -90 103 3 3
47 -37 98 -90 83 -86 117 -114 107 -87 -1 6 -43 51 -92 101 -49 50 -87 92 -84
95 2 3 48 -38 100 -91 53 -53 98 -92 101 -87 3 5 -34 49 -83 99 -49 49 -90 93
-90 99 0 5 43 -33 95 -85 52 -52 98 -91 102 -87 4 4 -31 46 -77 92 -46 46 -82
87 -79 89 3 3 42 -30 86 -74 45 -44 87 -80 94 -80 8 0 -23 37 -69 83 -45 45
-82 87 -82 92 0 5 38 -28 85 -75 46 -46 88 -81 92 -77 4 4 -25 40 -65 80 -40
40 -72 77 -72 82 0 5 36 -26 80 -70 49 -48 80 -73 80 -63 0 9 -3 18 -7 20 -15
7 -128 130 -116 127 6 -2 41 -33 78 -68 36 -35 68 -61 72 -58 3 4 -21 34 -53
67 -84 87 -80 98 5 15 39 -38 71 -63 71 -54 0 8 -22 37 -50 64 -27 27 -50 54
-50 59 0 6 27 -16 60 -49 33 -32 63 -55 67 -51 4 4 -14 28 -40 52 -26 25 -47
50 -47 57 0 6 24 -12 53 -41 29 -29 56 -49 60 -45 4 4 -12 26 -35 50 -23 24
-38 43 -33 43 5 0 33 -23 62 -52 63 -62 72 -44 11 20 -24 25 -38 43 -31 41 15
-5 110 -95 122 -117 5 -9 12 -14 16 -10 6 6 -7 24 -74 100 -59 67 -16 41 53
-33 37 -39 70 -69 73 -66 5 5 -19 35 -80 100 -48 53 -38 62 13 12 47 -46 65
-41 20 5 -17 18 -29 35 -26 38 4 3 20 -9 37 -26 17 -18 35 -32 40 -32 5 0 9
-5 9 -11 0 -14 29 -43 36 -36 6 6 -18 38 -55 74 -13 13 -21 26 -17 30 3 4 21
-8 38 -26 19 -19 34 -28 36 -21 2 6 -6 21 -18 32 -12 11 -19 23 -15 26 3 3 21
-11 39 -31 18 -20 36 -37 39 -37 13 0 7 16 -18 42 -25 27 -30 38 -19 38 3 0
40 -36 83 -79z m-246 -2217 c-3 -8 -9 -14 -14 -14 -5 0 -9 -7 -9 -15 0 -8 -7
-15 -15 -15 -8 0 -15 -4 -15 -10 0 -19 18 -10 47 25 17 19 35 35 42 35 16 0
14 -11 -6 -26 -13 -10 -14 -13 -4 -14 7 0 22 10 32 21 15 18 21 19 33 9 9 -6
21 -8 27 -4 9 5 10 2 6 -9 -7 -18 8 -24 18 -7 9 15 25 12 25 -5 0 -8 -4 -15
-10 -15 -5 0 -10 -5 -10 -12 0 -7 6 -6 18 4 35 30 45 32 37 7 -8 -24 -8 -24
14 -5 27 24 40 13 16 -14 -23 -26 -11 -26 17 0 12 11 25 20 30 20 13 0 9 -18
-4 -23 -7 -2 -10 -8 -6 -12 4 -4 15 1 25 10 13 13 18 14 21 5 3 -7 -3 -19 -13
-27 -10 -7 -16 -16 -12 -19 4 -4 19 5 33 20 16 16 31 23 38 18 6 -5 22 -9 36
-10 13 -1 31 -9 38 -19 10 -13 16 -14 19 -5 3 6 11 12 18 12 7 0 16 -6 19 -12
5 -10 7 -10 12 0 6 12 34 17 34 6 0 -4 -8 -13 -17 -20 -10 -7 -13 -14 -7 -14
5 0 20 9 32 20 26 24 42 26 42 3 0 -9 -3 -13 -7 -10 -3 4 -17 -2 -29 -14 -14
-13 -31 -20 -42 -17 -12 3 -23 -2 -31 -13 -6 -11 -16 -19 -22 -19 -5 0 -29 -9
-53 -19 -23 -11 -67 -22 -97 -25 -29 -3 -85 -10 -124 -15 -38 -5 -72 -8 -74
-5 -2 2 -10 -1 -18 -7 -9 -9 -17 -8 -27 0 -10 9 -15 8 -20 -4 -3 -9 -18 -15
-36 -15 -17 0 -38 -7 -46 -15 -9 -8 -25 -15 -38 -15 -12 0 -37 -11 -56 -25
-20 -15 -41 -23 -52 -19 -10 3 -18 1 -18 -5 0 -5 -16 -22 -36 -37 -30 -23 -37
-25 -46 -13 -8 11 -9 11 -4 -3 3 -12 0 -18 -9 -18 -9 0 -29 -13 -46 -30 -25
-23 -37 -28 -57 -23 -16 4 -23 2 -19 -4 9 -14 -27 -22 -80 -18 -24 1 -43 -2
-43 -6 0 -14 -28 -11 -32 3 -3 9 -10 8 -23 -5 -11 -11 -26 -16 -38 -13 -12 3
-27 0 -35 -7 -13 -10 -14 -8 -8 11 10 29 0 28 -30 -5 -21 -23 -27 -25 -35 -13
-6 10 -12 11 -16 5 -13 -17 -53 -36 -53 -25 0 15 -19 12 -36 -5 -9 -8 -21 -15
-27 -15 -8 0 -7 3 2 9 8 5 9 11 3 15 -5 3 -21 -5 -36 -19 -14 -13 -26 -20 -26
-15 0 6 -7 10 -16 10 -14 0 -14 -3 -4 -15 7 -9 9 -19 5 -23 -4 -4 -10 -1 -12
6 -3 6 -9 12 -15 12 -6 0 -8 -7 -4 -15 3 -10 -1 -15 -11 -15 -9 0 -35 -19 -57
-43 -23 -23 -57 -55 -77 -70 -20 -15 -49 -46 -65 -68 l-28 -40 -28 30 c-32 34
-33 37 -15 56 33 35 48 58 41 63 -4 4 -9 1 -11 -5 -5 -14 -23 -18 -23 -5 0 5
9 18 21 31 12 12 18 25 14 29 -4 4 -10 1 -12 -5 -3 -7 -9 -13 -14 -13 -18 0
-9 23 19 46 20 18 23 24 10 24 -9 0 -18 -6 -21 -12 -2 -7 -8 -9 -13 -5 -5 5 2
18 17 31 24 21 45 56 32 56 -3 0 -14 -10 -24 -22 -11 -11 -22 -18 -26 -15 -3
4 4 18 17 32 13 14 21 27 18 30 -3 4 -60 -49 -127 -116 -67 -67 -124 -119
-127 -116 -3 3 21 32 55 65 34 33 61 63 61 66 0 18 -26 -3 -112 -89 -52 -52
-98 -92 -101 -89 -7 8 18 34 32 34 6 0 11 5 11 11 0 14 25 39 39 39 6 0 11 5
11 11 0 14 25 39 39 39 6 0 11 4 11 10 0 5 43 53 95 106 53 53 92 100 89 103
-4 3 -9 0 -11 -6 -3 -7 -8 -13 -13 -13 -4 0 -31 -23 -59 -52 -28 -29 -51 -47
-51 -40 0 7 25 37 55 67 30 30 55 60 55 67 0 13 -28 -13 -166 -151 -46 -46
-86 -82 -89 -79 -3 2 53 64 125 136 112 113 145 152 126 152 -3 0 -39 -35 -82
-77 -99 -101 -93 -80 9 26 65 69 89 101 74 101 -2 0 -75 -72 -162 -160 -88
-87 -162 -156 -165 -153 -3 3 1 8 8 10 6 3 12 11 12 19 0 8 4 14 9 14 5 0 59
51 119 113 154 156 182 187 182 200 0 6 -73 -62 -162 -151 -89 -88 -164 -159
-167 -157 -2 3 59 69 136 147 171 173 195 200 188 206 -2 3 -95 -85 -205 -194
-111 -109 -203 -201 -206 -203 -2 -2 -4 -1 -4 3 0 5 87 96 193 202 105 107
193 203 195 214 2 11 10 20 18 20 8 0 14 7 14 15 0 8 6 14 13 12 6 -1 11 4 10
11 -2 6 4 12 13 12 10 0 14 6 10 15 -7 20 3 19 26 -2 22 -20 36 -10 17 13 -13
16 -12 16 8 6 29 -16 36 -15 29 3 -3 8 -3 15 0 15 3 0 12 -7 20 -15 9 -8 20
-15 26 -15 5 0 8 7 4 15 -8 21 1 19 32 -10 15 -14 30 -25 34 -25 13 0 9 17 -7
30 -9 7 -13 15 -11 17 3 3 17 -7 33 -21 16 -15 30 -21 32 -15 2 6 -3 15 -10
20 -7 4 -10 11 -7 15 4 3 15 -1 24 -11 13 -13 19 -14 25 -4 6 10 10 10 23 0 9
-7 21 -9 28 -5 7 5 74 9 148 10 74 0 144 5 154 9 14 6 21 4 24 -4 3 -10 6 -10
12 -2 4 7 22 13 41 14 19 1 40 7 48 12 10 5 16 4 19 -3 2 -8 10 -7 26 3 12 8
42 16 66 18 25 1 55 9 68 15 12 7 27 10 32 7 5 -3 18 -1 29 4 14 8 21 8 24 -2
3 -9 9 -8 22 5 24 22 187 24 178 2z m574 -200 c-15 -14 -32 -22 -38 -19 -5 4
-20 -4 -32 -18 -12 -13 -49 -44 -82 -67 -33 -24 -61 -47 -63 -52 -2 -4 -10 -8
-18 -8 -8 0 -14 -6 -14 -12 0 -19 -133 -171 -164 -187 -14 -8 -26 -18 -26 -23
0 -4 -6 -8 -14 -8 -8 0 -16 -3 -18 -7 -5 -13 -70 -59 -115 -82 -23 -11 -57
-34 -75 -50 -18 -15 -48 -36 -67 -46 -19 -9 -62 -39 -96 -66 -35 -27 -68 -49
-74 -49 -6 0 -11 -7 -11 -15 0 -9 -6 -12 -17 -8 -12 5 -15 2 -10 -10 4 -12 1
-17 -9 -17 -10 0 -14 -6 -10 -15 4 -11 0 -15 -12 -13 -11 2 -16 -3 -14 -13 4
-25 -107 -140 -132 -137 -13 2 -20 -2 -19 -9 2 -7 -4 -13 -12 -13 -8 0 -15 -3
-15 -7 0 -16 -48 -31 -59 -20 -8 8 -14 8 -23 -1 -9 -9 -15 -9 -25 0 -10 8 -17
7 -26 -4 -13 -17 -97 -32 -97 -17 0 5 8 9 17 9 12 0 14 3 6 11 -8 8 -20 2 -43
-21 -23 -22 -37 -29 -52 -24 -12 4 -24 1 -30 -7 -7 -11 -11 -11 -15 -1 -2 6
-11 12 -18 12 -7 0 -16 6 -19 13 -5 9 -7 9 -12 0 -3 -7 -11 -13 -18 -13 -7 0
-25 -14 -39 -32 -15 -17 -29 -29 -32 -27 -3 3 4 15 15 27 24 26 25 30 3 34
-15 3 -15 4 1 21 10 10 16 21 12 24 -3 4 -15 -3 -26 -15 -25 -26 -49 -30 -29
-5 8 10 24 27 36 39 13 11 20 24 16 28 -4 3 -17 -4 -30 -16 -12 -12 -26 -18
-30 -15 -3 4 7 18 23 32 19 17 24 25 13 25 -8 0 -20 -5 -27 -12 -9 -9 -12 -9
-12 -1 0 7 -10 13 -22 15 l-23 3 25 23 c19 18 21 22 7 22 -20 0 -22 11 -4 29
10 11 10 14 0 18 -18 7 -16 33 2 33 8 0 15 -4 15 -10 0 -5 5 -10 12 -10 6 0 3
9 -8 21 -10 12 -26 18 -37 15 -16 -4 -16 -2 -5 12 7 9 34 37 61 62 26 25 45
49 41 53 -11 11 -24 8 -24 -5 0 -7 -16 -23 -35 -36 -46 -30 -44 -19 7 31 25
24 43 36 46 29 2 -7 8 -12 14 -12 5 0 61 52 124 115 62 63 119 115 126 114 10
0 10 -2 1 -6 -7 -2 -13 -9 -13 -14 0 -17 22 -9 40 14 10 12 21 19 25 16 3 -4
-26 -39 -65 -78 -38 -39 -70 -76 -70 -81 0 -6 -6 -10 -13 -10 -15 0 -38 -35
-29 -44 6 -7 62 53 62 67 0 4 5 7 11 7 6 0 20 11 31 25 22 28 38 32 38 10 0
-8 -5 -15 -11 -15 -18 0 -70 -58 -58 -65 10 -7 38 21 39 38 0 14 30 7 30 -8 0
-8 -6 -15 -13 -15 -7 0 -18 -9 -25 -20 -7 -12 -8 -20 -2 -20 5 0 10 5 10 10 0
14 27 12 34 -2 5 -10 7 -10 12 0 7 15 31 16 36 0 3 -8 12 -5 28 10 18 17 20
22 8 22 -9 0 -19 -6 -21 -12 -4 -10 -8 -10 -15 1 -9 12 -13 13 -26 1 -30 -24
-30 0 0 29 88 87 147 151 142 157 -4 3 -41 -29 -83 -71 -42 -42 -79 -74 -83
-71 -3 4 11 23 31 42 35 34 46 54 30 54 -4 0 -18 -12 -30 -27 -13 -14 -26 -23
-30 -19 -4 3 10 23 30 42 20 20 37 40 37 44 0 4 9 10 20 13 26 7 25 -1 -2 -24
-11 -11 -18 -22 -14 -26 4 -4 21 8 38 26 23 25 36 31 54 27 12 -3 26 -1 29 4
5 8 11 7 21 -1 11 -9 18 -8 30 2 13 10 17 10 24 -1 6 -10 13 -8 31 9 26 24 35
26 45 9 5 -8 10 -7 18 3 17 22 70 57 81 53 6 -2 32 16 59 41 27 25 51 43 54
41 3 -3 -1 -12 -8 -21 -7 -9 -8 -15 -2 -15 6 0 12 3 14 8 9 20 82 73 95 68 8
-3 26 3 40 14 45 35 37 12 -12 -35 -26 -26 -44 -49 -41 -52 3 -3 32 21 64 54
32 32 66 62 76 66 16 6 17 5 6 -8 -10 -12 -10 -15 4 -15 9 0 16 3 16 8 0 4 10
13 21 21 18 11 23 11 30 -1 7 -10 11 -9 21 4 7 10 32 20 58 23 l45 6 -40 -42
c-22 -22 -73 -75 -114 -116 -40 -40 -71 -76 -68 -80 3 -3 62 53 131 123 68 71
128 125 133 120 4 -4 -4 -18 -19 -31 -16 -13 -28 -26 -28 -29 0 -3 -28 -33
-62 -66 -33 -33 -59 -62 -56 -65 2 -3 51 43 108 101 80 81 109 104 124 100 11
-3 28 2 38 11 23 21 34 11 12 -11 -9 -9 -14 -19 -11 -22 3 -4 25 12 48 35 24
23 50 41 59 40 10 0 11 -2 3 -6 -7 -2 -13 -9 -13 -15 0 -5 16 4 35 21 37 32
68 43 45 16 -18 -22 3 -19 26 4 10 10 21 17 24 14 2 -2 -8 -15 -23 -29z
m-1827 -423 c0 -4 -11 -17 -25 -27 -25 -19 -34 -44 -15 -44 6 0 13 7 16 15 4
8 10 15 15 15 5 0 9 -7 9 -15 0 -8 -5 -15 -11 -15 -14 0 -39 -25 -39 -39 0
-16 20 -13 26 4 4 8 10 15 15 15 5 0 9 -7 9 -15 0 -8 -5 -15 -11 -15 -6 0 -17
-7 -25 -15 -12 -12 -12 -18 -2 -35 7 -11 17 -20 23 -20 6 0 16 -9 23 -20 10
-17 10 -23 -2 -35 -17 -17 -36 -20 -36 -5 0 6 7 10 15 10 8 0 15 5 15 10 0 6
-7 10 -16 10 -8 0 -13 4 -9 9 3 5 0 13 -6 16 -17 11 -23 -3 -9 -21 11 -13 11
-17 0 -24 -12 -7 -12 -11 0 -25 12 -15 11 -16 -13 -10 -17 5 -27 3 -27 -4 0
-8 -6 -7 -20 1 -23 14 -26 34 -7 41 8 3 5 12 -11 28 -19 20 -24 22 -32 9 -5
-8 -12 -11 -15 -8 -4 4 22 35 57 69 37 36 58 64 51 66 -20 7 -16 21 15 52 28
30 42 37 42 22z m4175 -1226 c-14 -19 -23 -40 -20 -46 14 -21 -126 -197 -158
-199 -4 0 -21 -10 -37 -21 -16 -13 -35 -19 -45 -15 -13 5 -15 2 -9 -16 5 -17
3 -20 -10 -15 -11 4 -28 -4 -47 -22 -18 -18 -38 -28 -50 -26 -21 4 -27 -11 -6
-18 6 -2 9 -7 5 -11 -3 -4 -15 -2 -27 6 -18 11 -24 9 -56 -26 -19 -21 -35 -42
-35 -46 0 -4 -7 -11 -16 -14 -8 -3 -12 -10 -9 -16 3 -5 2 -10 -4 -10 -22 0
-18 18 13 50 18 19 31 42 29 51 -6 23 27 55 38 37 7 -10 9 -9 9 5 0 9 5 17 11
17 6 0 24 10 41 21 25 18 32 19 39 8 7 -11 9 -10 9 4 0 10 4 16 9 12 6 -3 13
1 18 8 4 7 23 24 42 36 27 20 35 21 42 10 8 -11 9 -9 7 6 -2 14 2 19 15 17 9
-2 16 1 15 7 -2 5 1 9 5 10 17 1 122 125 155 184 27 47 46 68 50 56 2 -5 -8
-25 -23 -44z m-4782 -598 c170 -169 307 -312 305 -318 -2 -5 -161 149 -353
343 -193 193 -330 336 -305 317 25 -19 184 -173 353 -342z"/>
<path d="M2790 5438 c0 -9 6 -18 12 -20 8 -3 -4 -21 -30 -47 -51 -50 -64 -51
-22 -1 53 62 33 71 -23 10 -39 -43 -44 -56 -24 -63 9 -3 9 -7 0 -19 -11 -12
-8 -19 17 -42 28 -24 32 -25 47 -11 8 9 12 19 9 23 -4 3 -11 1 -15 -7 -7 -11
-12 -11 -30 0 -28 18 -27 33 4 49 14 7 25 17 25 22 0 4 5 8 11 8 8 0 8 -4 1
-13 -7 -8 -7 -18 -2 -27 8 -13 10 -12 10 3 0 9 5 17 11 17 7 0 18 8 25 17 7
10 16 14 21 10 4 -5 -1 -15 -11 -23 -20 -14 -20 -14 0 -29 25 -19 40 -19 24 0
-10 13 -9 19 5 35 19 21 35 19 17 -2 -8 -10 -3 -22 20 -46 16 -19 32 -31 36
-27 3 3 2 9 -3 13 -27 19 -37 42 -26 56 9 10 9 16 1 21 -8 5 -6 13 6 26 20 23
34 24 34 4 0 -9 -6 -12 -15 -9 -8 4 -15 2 -15 -4 0 -6 6 -12 13 -15 9 -3 9 -7
-1 -20 -11 -13 -8 -20 18 -47 35 -36 54 -34 21 1 -23 25 -26 35 -11 44 5 3 6
13 3 23 -6 15 -5 15 12 -1 15 -16 16 -20 4 -28 -11 -7 -10 -12 9 -31 19 -19
22 -20 22 -5 0 9 -5 17 -12 17 -9 0 -9 3 -1 11 9 9 18 4 37 -17 24 -27 25 -28
26 -7 0 12 -6 24 -12 26 -10 4 -10 6 -1 6 6 1 15 -3 18 -9 9 -15 25 -12 25 6
0 8 4 13 9 10 5 -3 9 11 8 31 -1 27 -9 45 -29 65 -15 15 -30 23 -33 19 -2 -5
7 -17 20 -27 25 -19 32 -34 17 -34 -5 0 -18 9 -30 20 -26 24 -30 25 -34 3 -3
-16 -4 -16 -20 0 -21 21 -26 21 -30 0 -3 -14 -8 -12 -31 11 -16 15 -31 25 -35
21 -4 -4 -1 -10 6 -12 13 -5 17 -23 4 -23 -5 0 -18 9 -31 21 -12 12 -25 18
-29 14 -3 -3 0 -10 7 -15 11 -6 8 -15 -18 -40 -35 -35 -53 -37 -21 -2 25 26
25 28 0 54 -16 18 -20 19 -20 6z"/>
<path d="M3110 5410 c0 -5 5 -10 10 -10 17 0 11 -27 -7 -34 -14 -6 -15 -9 -3
-16 11 -7 11 -11 1 -24 -24 -28 -1 -38 26 -11 14 14 31 25 37 25 6 0 -2 -12
-18 -26 -21 -19 -26 -28 -17 -37 8 -8 11 -7 11 6 0 9 5 17 11 17 6 0 8 -9 4
-20 -7 -21 20 -58 33 -45 4 4 1 10 -5 12 -7 3 -13 11 -13 19 0 9 4 13 9 9 5
-3 12 -1 16 4 3 5 -2 14 -11 19 -11 6 -13 12 -6 16 13 8 36 -30 27 -44 -3 -5
3 -20 14 -32 18 -18 21 -19 21 -5 0 9 -4 17 -10 17 -5 0 -10 5 -10 10 0 6 5
10 11 10 14 0 39 -25 39 -39 0 -6 5 -11 10 -11 6 0 10 7 10 15 0 8 6 15 14 15
8 0 16 6 19 13 2 7 8 8 13 3 5 -5 4 -11 -3 -13 -19 -7 -16 -27 7 -41 12 -7 20
-8 20 -2 0 5 -4 10 -10 10 -5 0 -10 5 -10 10 0 15 20 12 38 -7 12 -12 13 -18
4 -21 -18 -6 -15 -26 8 -40 12 -7 20 -8 20 -2 0 5 -4 10 -10 10 -18 0 -10 28
9 33 14 3 18 1 14 -9 -6 -16 25 -50 35 -39 4 4 1 10 -5 12 -15 5 -18 23 -4 23
5 0 35 -25 67 -55 100 -94 72 -50 -39 61 -64 63 -107 100 -107 90 0 -14 -7
-12 -36 10 -29 22 -37 25 -44 14 -5 -8 -12 -11 -17 -7 -4 5 -1 12 7 17 13 8
11 13 -7 32 -13 12 -23 17 -23 10 0 -6 5 -12 11 -12 8 0 7 -5 -1 -15 -11 -13
-15 -13 -22 -3 -6 11 -10 10 -17 -1 -7 -11 -14 -8 -36 15 -18 19 -29 25 -32
17 -8 -22 -25 -14 -18 7 4 12 0 26 -9 35 -17 17 -26 19 -26 5z"/>
<path d="M3187 4933 c3 -7 -2 -13 -11 -13 -9 0 -16 -4 -16 -8 0 -5 -11 -15
-25 -22 -14 -7 -25 -19 -25 -27 0 -7 -3 -13 -7 -13 -5 0 -41 -32 -82 -70 -40
-38 -83 -72 -95 -76 -36 -11 -117 -75 -109 -87 5 -8 8 -8 11 1 2 7 8 12 13 12
6 0 22 11 36 24 25 23 28 24 39 8 12 -16 13 -16 14 -1 0 9 7 20 16 23 9 4 14
9 11 13 -4 3 10 15 31 26 20 11 42 26 48 35 8 11 13 12 18 3 12 -18 25 -3 19
22 -5 17 -3 19 7 11 9 -9 17 -7 31 7 11 11 17 25 13 31 -5 8 -2 9 9 5 11 -4
17 -1 17 8 0 8 7 15 15 15 8 0 15 5 15 10 0 6 7 10 15 10 8 0 15 -7 15 -16 0
-8 5 -12 10 -9 8 5 7 11 -1 21 -6 8 -8 18 -4 22 4 4 10 1 12 -5 8 -23 25 -14
18 10 -6 17 -5 19 5 10 10 -9 17 -9 32 0 15 10 20 9 27 -2 6 -9 11 -10 15 -2
8 12 43 -2 59 -23 6 -8 10 -7 14 2 6 14 33 16 33 2 0 -5 5 -10 11 -10 6 0 8 7
5 16 -4 12 -2 15 9 10 9 -3 15 0 15 9 0 16 -2 16 -65 20 -22 1 -42 3 -45 5 -3
1 -44 3 -91 4 -67 1 -86 -1 -82 -11z"/>
<path d="M4000 4472 c0 -4 6 -14 13 -21 10 -11 9 -14 -2 -18 -7 -3 -23 -17
-35 -31 -11 -14 -45 -50 -74 -80 -30 -29 -51 -56 -48 -59 3 -3 23 13 46 36 22
22 43 41 45 41 13 0 1 -20 -34 -58 -23 -25 -34 -42 -25 -42 8 0 14 4 14 9 0
10 30 24 37 17 3 -2 -12 -21 -33 -40 -21 -20 -33 -36 -26 -36 7 0 25 11 40 25
15 14 31 25 35 25 11 0 -26 -41 -115 -130 -37 -37 -65 -70 -61 -74 3 -3 37 25
74 64 38 38 74 70 80 70 15 0 -9 -27 -120 -137 -46 -46 -81 -86 -78 -90 3 -3
44 33 90 81 47 47 90 86 96 86 6 0 11 6 11 13 0 6 14 -3 31 -21 17 -18 29 -36
26 -39 -8 -7 -37 22 -37 36 0 12 -13 15 -23 5 -3 -3 5 -18 18 -32 13 -14 21
-30 17 -36 -4 -7 -8 -5 -10 4 -3 18 -41 44 -50 36 -3 -4 0 -12 6 -18 9 -9 9
-15 0 -25 -9 -11 -5 -21 20 -46 39 -39 52 -30 21 15 -15 21 -17 28 -6 19 9 -7
24 -10 33 -7 14 5 15 4 4 -9 -18 -22 4 -19 23 3 22 24 21 33 0 26 -17 -5 -17
-5 0 6 9 6 17 17 17 23 0 18 138 152 147 144 6 -7 -18 -33 -131 -148 -11 -10
-15 -19 -10 -19 14 0 235 226 228 233 -4 3 -21 -10 -39 -29 -18 -18 -35 -34
-39 -34 -15 0 -3 20 31 54 21 20 32 36 25 36 -7 0 -12 -4 -12 -10 0 -5 -6 -10
-14 -10 -8 0 -16 -6 -19 -12 -2 -7 -8 -10 -12 -5 -5 4 2 18 15 32 20 22 21 25
7 39 -9 9 -22 16 -29 16 -8 -1 -6 -6 7 -15 18 -15 17 -17 -35 -70 -29 -30 -57
-52 -62 -49 -5 3 7 22 27 42 19 20 35 40 35 44 0 4 7 8 15 8 20 0 19 10 -2 26
-11 8 -13 13 -5 14 6 0 12 7 12 17 0 15 1 15 18 0 10 -10 22 -14 25 -10 4 3 7
-1 7 -10 0 -9 6 -17 13 -17 7 0 21 -11 31 -25 10 -13 22 -22 27 -19 5 3 9 -2
9 -10 0 -8 8 -16 17 -18 13 -2 -2 -22 -56 -78 -222 -228 -265 -270 -272 -270
-5 0 -9 -4 -9 -10 0 -5 3 -10 8 -10 4 0 85 79 180 175 162 164 200 197 186
160 -5 -11 -2 -13 12 -8 14 5 16 3 11 -11 -5 -12 -2 -16 11 -14 11 2 16 -3 14
-14 -2 -11 3 -15 15 -12 33 8 262 -213 263 -253 0 -7 5 -13 11 -13 6 0 9 -5 7
-12 -2 -6 6 -22 19 -36 13 -14 23 -30 23 -36 0 -6 12 -33 25 -61 14 -27 25
-57 25 -65 0 -8 7 -24 15 -34 8 -11 15 -27 15 -36 0 -10 11 -38 25 -64 13 -25
21 -46 17 -46 -4 0 0 -6 8 -13 22 -18 42 -57 30 -57 -5 0 -10 -4 -10 -10 0 -5
8 -6 17 -3 12 5 15 2 10 -10 -4 -11 -1 -17 8 -17 8 0 20 -10 26 -22 7 -13 17
-27 24 -33 29 -26 95 -114 95 -129 0 -9 4 -16 8 -16 10 0 44 -72 41 -86 -1 -5
3 -22 9 -37 23 -54 5 -262 -28 -332 -5 -11 -22 -52 -39 -92 -34 -82 -74 -146
-85 -136 -4 4 -4 1 -1 -8 9 -25 -59 -95 -111 -113 -26 -9 -50 -13 -55 -10 -5
3 24 35 65 71 70 61 91 91 98 138 3 17 -2 20 -39 19 -24 0 -54 -6 -68 -12 -14
-7 -36 -17 -50 -23 -13 -7 -37 -24 -52 -38 -15 -15 -63 -56 -105 -91 -44 -36
-73 -67 -67 -71 6 -3 2 -9 -10 -12 -14 -3 -21 0 -21 9 0 20 -7 18 -38 -11 -27
-25 -43 -32 -41 -18 3 20 -2 24 -15 14 -10 -8 -16 -9 -21 -1 -3 5 -1 10 4 10
6 0 11 5 11 11 0 6 -9 8 -22 3 -20 -6 -21 -5 -9 10 15 18 8 21 -20 6 -13 -8
-19 -7 -19 0 0 6 7 13 16 17 8 3 13 12 10 19 -3 8 2 14 12 15 12 0 13 2 3 6
-8 3 -22 -5 -32 -18 -14 -18 -19 -20 -19 -8 0 9 7 22 15 29 8 7 15 17 15 23 0
5 -9 2 -20 -8 -33 -30 -23 0 12 34 24 23 35 28 45 20 10 -9 13 -8 13 5 0 9 4
16 9 16 5 0 24 14 42 31 20 19 40 29 51 26 10 -3 18 -1 18 4 0 5 4 9 9 9 5 0
22 13 38 28 59 60 25 141 -60 142 -23 0 -36 4 -32 10 3 6 2 10 -4 10 -5 0 -11
-5 -13 -11 -2 -7 -28 -13 -60 -14 -30 -1 -61 -6 -68 -10 -6 -4 -17 -2 -23 4
-7 7 -14 6 -22 -5 -6 -9 -23 -17 -38 -17 -15 -1 -27 -5 -27 -9 0 -5 -5 -8 -11
-8 -6 0 -36 -25 -66 -56 -45 -46 -52 -58 -42 -70 10 -12 8 -18 -9 -30 -12 -8
-22 -22 -22 -30 0 -8 -4 -14 -10 -14 -14 0 -12 13 5 36 19 26 19 39 -1 20 -29
-29 -52 -38 -56 -20 -2 13 -7 12 -25 -6 -41 -37 -24 -1 18 41 22 22 38 43 35
46 -3 3 -28 -17 -56 -46 -27 -28 -50 -45 -50 -37 0 8 73 88 163 179 326 331
602 617 605 627 4 12 -15 14 -20 1 -3 -7 -158 -168 -676 -699 -51 -52 -96 -92
-99 -88 -4 3 13 27 38 52 24 25 94 96 154 158 61 62 193 198 294 302 101 104
213 219 249 256 36 37 63 71 59 74 -4 4 -13 0 -20 -8 -11 -15 -478 -495 -699
-719 -54 -54 -98 -93 -98 -85 0 7 73 87 163 177 324 329 622 640 625 652 3 12
-201 -193 -616 -618 -112 -114 -205 -205 -209 -202 -3 3 1 13 8 20 8 8 143
147 301 309 442 453 498 512 498 523 -1 9 -95 -85 -607 -610 -117 -120 -213
-211 -213 -204 0 8 8 22 18 30 21 20 565 578 689 707 51 53 89 99 87 102 -3 3
-89 -80 -191 -185 -462 -475 -643 -657 -643 -646 0 7 10 22 23 35 80 83 637
655 705 725 45 46 82 89 82 95 0 6 -73 -63 -161 -154 -89 -91 -269 -275 -400
-409 -131 -133 -239 -247 -239 -252 0 -5 -4 -9 -10 -9 -31 0 -15 18 300 339
352 359 510 524 510 535 0 6 -69 -59 -152 -144 -484 -496 -688 -702 -688 -692
0 6 5 14 10 17 18 11 11 27 -10 22 -11 -3 -20 -3 -20 -1 0 3 33 38 73 78 78
80 615 630 691 710 26 26 44 51 41 54 -3 4 -98 -88 -209 -203 -365 -377 -596
-608 -596 -598 0 6 23 35 51 64 142 150 171 179 180 179 5 0 9 4 9 9 0 5 119
130 264 278 264 268 315 323 299 323 -4 0 -98 -93 -208 -206 -371 -383 -575
-587 -581 -581 -5 5 61 75 305 323 35 36 60 68 57 71 -3 3 -89 -79 -191 -182
-102 -103 -188 -186 -190 -183 -6 6 53 68 463 487 169 172 313 322 320 332 36
52 -20 0 -200 -183 -108 -112 -198 -197 -198 -190 0 7 82 97 183 200 236 241
229 233 223 239 -2 3 -108 -100 -235 -229 -127 -128 -231 -230 -231 -226 0 13
31 47 235 255 110 113 202 209 203 214 9 24 -19 1 -105 -88 -343 -355 -360
-371 -370 -354 -9 14 -16 10 -52 -27 -22 -24 -41 -37 -41 -29 0 13 73 90 418
439 74 76 133 141 129 144 -3 3 -72 -62 -154 -146 -81 -84 -210 -216 -286
-294 -76 -77 -142 -145 -147 -151 -16 -17 -130 -132 -213 -216 -44 -44 -73
-79 -67 -79 7 0 46 35 86 77 41 43 74 71 74 63 -1 -20 -24 -50 -39 -50 -6 0
-11 -4 -11 -9 0 -5 -42 -51 -92 -103 -121 -122 -125 -128 -104 -128 10 0 15 3
13 8 -2 4 43 53 100 109 57 57 103 97 103 89 0 -7 -43 -57 -95 -110 -53 -53
-91 -96 -84 -96 6 0 45 34 85 75 41 41 74 68 74 60 0 -7 -54 -68 -120 -134
-66 -66 -120 -122 -120 -126 0 -3 7 -5 15 -5 8 0 15 7 15 15 0 8 5 15 11 15
11 0 39 24 39 34 0 6 115 122 143 145 9 7 17 9 17 3 0 -6 -31 -42 -70 -81 -38
-38 -70 -73 -70 -76 0 -3 7 -5 15 -5 8 0 15 5 15 11 0 11 95 109 105 109 17 0
-6 -30 -91 -115 -53 -53 -94 -98 -91 -101 3 -3 44 33 91 80 47 47 88 86 91 86
14 0 -23 -48 -77 -102 -34 -32 -58 -61 -55 -64 3 -3 30 20 61 51 31 31 61 55
66 53 13 -4 -83 -108 -99 -108 -6 0 -11 -4 -11 -10 0 -21 22 -8 69 40 27 28
52 47 54 42 3 -4 -5 -18 -19 -31 -13 -13 -24 -27 -24 -32 0 -5 -7 -9 -15 -9
-8 0 -15 -4 -15 -10 0 -18 20 -11 45 16 13 14 29 24 34 22 6 -1 -3 -18 -20
-36 -17 -18 -29 -36 -26 -38 3 -3 19 9 36 27 28 28 31 30 31 11 0 -12 -8 -22
-17 -24 -12 -2 -14 -6 -6 -11 6 -4 19 0 27 9 15 14 16 14 16 0 0 -9 -4 -16
-10 -16 -5 0 -10 -5 -10 -10 0 -6 11 -8 25 -4 25 6 36 -11 13 -19 -7 -2 -3 -2
10 0 14 2 22 -2 22 -11 0 -10 6 -13 15 -10 10 4 15 0 15 -11 0 -9 5 -13 10
-10 6 3 10 1 10 -4 0 -6 7 -11 15 -11 8 0 15 -7 15 -16 0 -8 5 -12 11 -9 17
11 59 -4 59 -21 0 -12 4 -14 13 -7 6 6 48 9 92 8 117 -3 127 -4 120 -15 -9
-14 5 -12 38 4 15 8 27 11 27 6 0 -4 -6 -10 -12 -13 -7 -2 -10 -8 -6 -12 5 -5
17 0 28 10 25 22 27 9 3 -18 -14 -15 -15 -19 -3 -15 15 5 41 -46 43 -84 1 -10
5 -18 10 -18 12 0 37 -26 37 -39 0 -6 5 -11 11 -11 6 0 9 7 5 15 -7 20 9 19
30 -2 13 -13 19 -14 22 -5 5 16 29 16 36 0 3 -7 3 -1 1 13 -2 17 2 26 11 26 7
0 11 -4 9 -8 -3 -4 11 -7 29 -6 19 0 33 3 31 6 -1 4 12 14 31 23 32 17 34 17
34 0 0 -13 2 -14 9 -3 6 10 13 10 28 2 17 -8 24 -6 43 14 27 28 40 32 40 10 0
-8 -6 -15 -14 -15 -17 0 -41 -28 -32 -37 4 -4 11 -1 16 7 7 12 12 12 22 2 14
-14 32 -16 23 -2 -3 6 3 10 14 10 11 0 23 5 26 10 5 8 11 7 21 -1 11 -9 14 -8
14 5 0 9 4 16 9 16 10 0 136 127 137 138 0 7 27 68 67 152 12 25 22 47 23 50
7 34 18 60 26 60 5 0 7 3 5 8 -3 4 -1 41 4 82 15 128 16 145 8 155 -4 6 -9 33
-11 60 -1 28 -7 53 -12 56 -5 4 -9 21 -10 38 -1 17 -6 31 -13 31 -7 0 -13 6
-13 14 0 8 -3 16 -7 18 -5 2 -25 25 -46 52 -28 38 -34 52 -25 59 9 6 8 7 -5 3
-13 -4 -20 2 -27 20 -5 13 -20 35 -34 47 -35 33 -65 87 -59 106 4 9 3 13 -2 9
-10 -9 -48 59 -42 75 2 7 -3 17 -11 23 -9 6 -15 25 -15 43 0 17 -2 29 -5 26
-7 -7 -42 63 -42 85 0 11 -4 20 -8 20 -5 0 -14 12 -21 27 -10 21 -9 28 1 36 9
6 8 7 -4 3 -13 -4 -18 0 -18 13 0 11 -3 21 -7 23 -5 2 -36 35 -70 75 -59 67
-76 92 -53 78 6 -3 10 -1 10 5 0 7 -6 10 -14 7 -12 -5 -78 47 -191 151 -27 26
-53 46 -57 44 -5 -1 -8 5 -8 13 0 8 -7 15 -15 15 -8 0 -14 6 -12 13 1 6 -6 11
-15 9 -12 -2 -16 2 -12 13 5 11 2 14 -12 8 -13 -5 -16 -3 -11 10 4 11 1 17 -8
17 -8 0 -15 7 -15 16 0 10 -6 14 -15 11 -15 -6 -31 8 -18 16 5 2 2 2 -5 1 -17
-5 -62 17 -62 29 0 5 -7 3 -17 -4 -13 -11 -17 -11 -20 -1 -3 6 -11 12 -19 12
-8 0 -14 5 -14 11 0 6 -7 9 -15 6 -8 -4 -17 -2 -20 3 -7 12 -25 13 -25 2z"/>
<path d="M4229 4206 c-24 -24 -96 -96 -159 -161 -63 -64 -116 -112 -118 -105
-2 6 -18 25 -34 42 l-30 31 -35 -37 c-20 -20 -29 -36 -22 -36 8 0 23 11 33 25
10 14 23 25 27 25 15 0 10 -22 -8 -36 -17 -13 -17 -13 0 -14 9 0 17 5 17 10 0
17 15 11 29 -12 13 -21 13 -22 -2 -10 -12 10 -17 10 -23 1 -4 -7 -2 -15 4 -17
14 -4 -2 -40 -27 -59 -15 -11 -15 -12 0 -13 9 0 19 7 23 15 8 21 24 19 22 -2
0 -10 4 -17 10 -16 6 1 11 -5 11 -13 0 -7 -4 -14 -9 -14 -4 0 -25 -18 -45 -40
-21 -23 -84 -88 -141 -145 -56 -58 -98 -105 -92 -105 12 0 210 198 210 211 0
5 4 9 10 9 5 0 26 17 47 39 306 311 404 413 400 418 -5 4 -242 -230 -336 -332
-23 -25 -52 -26 -31 0 6 7 7 20 4 30 -5 11 2 25 17 40 105 102 301 306 297
310 -3 3 -25 -14 -49 -39z"/>
<path d="M4137 3868 c-132 -133 -234 -244 -228 -246 25 -8 5 -34 -124 -165
-75 -75 -130 -137 -124 -137 7 0 65 55 130 122 65 67 122 119 125 115 6 -6 -5
-19 -88 -104 -18 -18 -26 -33 -19 -33 7 0 28 17 48 38 22 23 38 32 40 25 7
-20 27 -15 42 8 11 18 11 23 -1 30 -10 6 5 27 59 81 237 240 431 443 427 448
-6 6 -474 -468 -474 -481 0 -5 -4 -9 -10 -9 -14 0 -12 24 2 38 10 10 10 15 -1
21 -17 11 -28 -3 229 260 178 181 224 232 208 231 -2 0 -110 -109 -241 -242z"/>
<path d="M4460 4004 c0 -5 -121 -131 -268 -280 -242 -245 -271 -271 -295 -267
-15 3 -27 1 -27 -4 0 -6 -72 -83 -160 -172 -88 -88 -155 -161 -148 -161 6 0
82 73 170 161 87 89 161 159 165 156 7 -8 -1 -17 -195 -212 -84 -85 -148 -155
-141 -155 6 0 26 16 45 35 18 19 37 35 43 35 6 0 11 4 11 10 0 5 57 67 128
138 331 337 681 698 682 705 1 5 -1 11 -4 15 -3 3 -6 1 -6 -4z"/>
<path d="M4387 3873 c-47 -49 -176 -180 -286 -291 -111 -112 -201 -208 -201
-213 0 -5 -7 -9 -15 -9 -8 0 -15 -4 -15 -8 0 -5 -61 -70 -135 -145 -75 -76
-131 -137 -125 -137 12 0 84 72 595 595 244 249 286 295 273 295 -3 0 -43 -39
-91 -87z"/>
<path d="M4363 3798 c-118 -120 -364 -370 -584 -595 -45 -46 -76 -83 -70 -83
6 0 60 49 119 110 628 641 685 700 670 700 -3 0 -63 -60 -135 -132z"/>
<path d="M4379 3368 c-129 -133 -307 -315 -396 -405 -89 -89 -157 -165 -153
-168 5 -3 40 26 77 65 64 67 126 130 517 530 190 194 213 220 199 220 -5 0
-115 -109 -244 -242z"/>
<path d="M2322 2131 c-19 -20 -103 -107 -188 -193 -86 -87 -150 -158 -144
-158 6 0 76 65 155 145 79 80 146 145 150 145 16 0 -9 -28 -158 -179 -88 -89
-153 -161 -147 -161 7 0 27 16 46 35 18 19 35 35 38 35 15 0 2 -20 -45 -68
-27 -28 -45 -52 -38 -52 6 0 27 16 46 36 19 20 37 34 40 30 8 -8 -68 -94 -84
-95 -7 -1 -13 -6 -13 -11 0 -6 -28 -37 -62 -70 -34 -32 -59 -62 -56 -65 6 -6
104 90 446 438 56 57 102 109 102 115 0 6 -72 -62 -160 -150 -88 -89 -163
-158 -167 -155 -3 4 41 54 98 111 150 150 212 216 207 222 -6 6 -158 -146
-158 -158 0 -4 -4 -8 -9 -8 -5 0 -36 -28 -69 -62 -33 -35 -64 -60 -68 -56 -3
4 29 43 72 86 147 147 213 219 208 225 -3 3 -16 -6 -29 -21 -13 -15 -27 -24
-31 -19 -4 4 9 25 30 46 21 21 34 41 29 43 -4 2 -23 -12 -41 -31z"/>
<path d="M2198 1805 c-101 -102 -252 -255 -336 -340 -84 -85 -147 -155 -141
-155 6 0 26 16 45 35 18 19 35 35 38 35 15 0 3 -25 -21 -46 -16 -13 -22 -24
-15 -24 20 0 80 62 64 68 -6 2 -12 7 -12 12 0 5 125 135 277 290 257 260 303
310 289 310 -3 0 -88 -83 -188 -185z"/>
<path d="M2225 1735 c-151 -153 -203 -200 -213 -193 -9 8 -30 -7 -84 -61 -39
-39 -66 -71 -59 -71 6 0 39 28 72 61 33 34 62 59 66 56 3 -4 -6 -19 -20 -33
-15 -15 -27 -31 -27 -35 0 -5 -6 -9 -13 -9 -7 0 -18 -9 -25 -20 -20 -33 6 -24
42 15 37 38 46 43 46 20 0 -8 -6 -15 -13 -15 -8 0 -20 -11 -27 -25 -7 -14 -18
-25 -24 -25 -6 0 -17 -9 -24 -20 -10 -16 -10 -20 2 -20 8 0 16 6 19 13 2 6 8
9 12 4 5 -4 -2 -17 -14 -28 -19 -18 -25 -19 -33 -8 -7 11 -11 11 -15 2 -2 -7
-11 -13 -19 -13 -8 0 -14 -6 -14 -13 0 -8 -11 -20 -25 -27 -26 -14 -33 -30
-14 -30 7 0 27 16 46 36 32 35 60 42 33 8 -12 -13 -11 -17 1 -24 12 -8 10 -13
-8 -32 -12 -12 -26 -18 -30 -14 -4 4 0 13 10 20 21 16 22 26 2 26 -8 0 -15 -7
-15 -15 0 -8 -5 -15 -11 -15 -12 0 -59 -50 -59 -62 0 -5 -7 -8 -15 -8 -8 0
-15 -5 -15 -11 0 -11 -24 -39 -34 -39 -15 0 -3 25 22 46 15 13 21 24 14 24 -7
0 -33 -20 -59 -45 -27 -27 -39 -45 -30 -45 8 0 18 6 21 13 5 9 7 10 12 0 10
-23 25 -14 86 48 33 34 62 58 66 54 4 -4 -2 -13 -12 -21 -17 -12 -17 -14 -3
-20 21 -8 22 -34 1 -34 -8 0 -12 -4 -9 -10 3 -5 -1 -10 -9 -10 -9 0 -16 -4
-16 -10 0 -20 22 -9 60 32 22 23 40 45 40 50 0 4 6 8 14 8 8 0 16 6 19 13 2 6
8 9 12 5 5 -5 -10 -26 -33 -47 -22 -21 -38 -42 -35 -45 4 -3 1 -6 -5 -6 -17 0
-52 -32 -46 -42 3 -4 -2 -8 -10 -8 -9 0 -16 -4 -16 -10 0 -5 4 -10 9 -10 12 0
141 130 141 142 0 4 4 8 10 8 5 0 27 18 47 40 21 23 132 136 246 251 114 116
205 214 202 217 -3 3 -105 -95 -227 -218 -122 -124 -223 -219 -226 -212 -5 16
-29 16 -36 0 -5 -10 -7 -10 -12 0 -3 6 -12 12 -19 12 -7 0 -15 -6 -18 -12 -2
-7 -8 -10 -12 -5 -5 4 2 17 15 29 16 15 25 18 28 10 7 -21 19 -14 80 50 33 35
64 59 68 55 4 -4 -16 -29 -44 -56 -56 -53 -60 -61 -37 -61 8 0 15 4 15 8 0 5
81 91 181 191 99 101 178 186 174 189 -3 3 -66 -56 -141 -132 -75 -76 -138
-135 -142 -132 -6 7 10 25 217 233 79 79 140 147 137 150 -3 4 -94 -83 -202
-191 -108 -109 -199 -195 -202 -191 -3 3 5 16 18 28 67 61 153 157 147 163 -4
4 -29 -16 -56 -45 -47 -49 -61 -59 -61 -43 0 4 75 83 166 175 91 93 163 171
160 174 -3 4 -87 -76 -186 -177 -99 -101 -183 -180 -187 -176 -4 4 6 20 22 36
59 57 331 335 344 353 7 9 10 17 5 16 -5 0 -99 -92 -209 -204z"/>
<path d="M1839 1640 c-70 -71 -124 -131 -121 -134 3 -3 -2 -6 -11 -6 -9 0 -17
5 -17 10 0 6 -8 10 -17 10 -16 -1 -16 -2 1 -15 19 -15 19 -15 -2 -35 -25 -24
-32 -25 -32 -5 0 8 7 15 15 15 8 0 15 5 15 10 0 6 -7 10 -15 10 -8 0 -15 7
-15 15 0 8 6 15 14 15 8 0 17 6 19 13 4 9 8 8 16 -3 9 -13 13 -12 33 8 18 18
19 22 6 22 -9 0 -19 -6 -22 -12 -5 -10 -7 -10 -12 0 -3 6 -12 12 -19 12 -7 0
-16 -6 -19 -12 -5 -10 -7 -10 -12 0 -3 6 -13 12 -22 12 -15 -1 -14 -3 2 -15
19 -15 19 -15 -4 -37 -16 -15 -25 -18 -28 -10 -2 7 -11 12 -20 12 -13 0 -12
-4 6 -20 24 -23 38 -25 45 -7 2 6 8 8 13 4 5 -5 1 -14 -9 -22 -18 -13 -18 -14
0 -23 17 -10 17 -12 -4 -31 -26 -25 -33 -26 -33 -6 0 8 7 15 15 15 8 0 15 5
15 10 0 6 -7 10 -15 10 -8 0 -15 5 -15 10 0 6 -8 10 -17 10 -17 -1 -17 -2 0
-14 16 -12 16 -17 5 -35 -12 -20 -38 -29 -38 -13 0 16 -48 62 -66 62 -16 0
-16 -2 4 -20 12 -11 26 -20 32 -20 6 0 9 -4 6 -8 -5 -9 29 -42 43 -42 5 0 12
6 15 13 5 10 7 10 12 0 3 -7 12 -13 19 -13 7 0 15 6 18 13 2 6 8 9 13 4 4 -4
-12 -25 -36 -47 -37 -34 -41 -40 -23 -40 12 0 24 6 26 13 4 9 6 8 6 -2 1 -7
-11 -24 -26 -37 -22 -19 -24 -24 -10 -24 9 0 17 5 17 10 0 6 7 10 15 10 8 0
15 8 15 18 1 16 1 16 14 0 15 -20 36 -24 36 -7 0 14 25 39 39 39 6 0 11 5 11
10 0 6 32 42 71 81 39 39 68 73 65 76 -3 4 -51 -39 -106 -95 -55 -56 -102
-102 -105 -102 -3 0 -5 7 -5 15 0 8 -4 15 -10 15 -5 0 -10 5 -10 11 0 14 25
39 39 39 6 0 11 4 11 9 0 4 23 31 51 60 29 28 47 51 40 51 -6 0 -33 -22 -60
-50 -53 -54 -61 -58 -61 -35 0 8 6 15 13 15 8 0 20 11 27 25 7 14 19 25 27 25
7 0 13 4 13 9 0 5 61 70 135 145 75 75 130 136 123 135 -7 0 -70 -58 -139
-129z"/>
<path d="M5427 3107 c-26 -28 -43 -53 -36 -56 6 -2 16 3 21 10 7 11 11 11 15
2 2 -7 11 -13 18 -13 7 0 15 6 18 13 2 6 8 9 12 4 5 -4 -2 -17 -15 -29 -16
-15 -25 -18 -28 -10 -6 20 -28 14 -42 -13 -7 -14 -17 -25 -22 -25 -10 0 -38
-25 -38 -34 0 -16 25 -2 54 29 37 38 46 43 46 20 0 -8 -6 -15 -13 -15 -7 0
-18 -9 -25 -20 -10 -16 -10 -20 2 -20 8 0 17 6 20 13 5 10 7 10 12 0 3 -7 12
-13 19 -13 7 0 16 6 19 13 5 10 7 10 12 0 3 -7 12 -13 19 -13 7 0 16 6 19 13
5 10 7 10 12 0 7 -16 34 -17 34 -2 0 7 9 20 21 30 19 16 20 20 6 34 -21 21
-24 20 -64 -22 -22 -24 -38 -33 -40 -25 -3 6 -11 12 -18 12 -7 0 -15 -6 -18
-12 -2 -7 -8 -9 -13 -5 -4 4 4 18 19 31 15 13 27 28 27 35 0 6 5 11 11 11 14
0 39 25 39 39 0 6 7 11 15 11 8 0 15 5 15 11 0 8 5 7 15 -1 13 -11 19 -9 36 8
15 17 16 22 5 22 -8 0 -17 -6 -20 -12 -5 -10 -7 -10 -12 0 -9 20 -25 14 -62
-25 -22 -23 -37 -33 -40 -25 -5 16 -29 16 -35 0 -2 -7 -8 -10 -12 -6 -4 4 4
20 18 34 15 15 27 30 27 35 0 4 8 10 18 12 14 4 14 5 -3 5 -12 1 -40 -20 -68
-51z"/>
</g>
</svg>
