<?xml version="1.0" standalone="no"?>
<!DOCTYPE svg PUBLIC "-//W3C//DTD SVG 20010904//EN"
 "http://www.w3.org/TR/2001/REC-SVG-20010904/DTD/svg10.dtd">
<svg version="1.0" xmlns="http://www.w3.org/2000/svg"
 width="300.000000pt" height="428.000000pt" viewBox="0 0 300.000000 428.000000"
 preserveAspectRatio="xMidYMid meet">

<g transform="translate(0.000000,428.000000) scale(0.100000,-0.100000)"
fill="#000000" stroke="none">
<path d="M0 2140 l0 -2140 538 0 c417 0 541 3 551 13 11 9 13 9 7 0 -5 -10 5
-13 38 -13 34 0 46 4 49 18 4 16 5 16 6 0 1 -13 10 -18 30 -18 34 0 51 18 30
31 -12 7 -12 10 0 21 10 10 12 10 7 1 -5 -8 -1 -13 10 -13 12 0 15 -6 11 -21
-8 -29 6 -12 21 26 11 27 11 28 -2 12 -14 -18 -15 -18 -26 2 -12 24 -5 45 12
35 7 -5 9 -1 5 9 -4 10 -2 16 5 14 7 -1 13 4 14 11 1 6 2 16 3 21 2 16 73 102
79 97 3 -4 -10 -22 -28 -41 -19 -19 -31 -35 -27 -35 4 0 22 16 39 35 17 20 33
33 36 30 3 -2 11 0 19 6 7 6 13 8 13 4 0 -4 7 -2 15 5 8 7 12 17 8 24 -3 6 -2
8 2 3 5 -4 26 9 47 30 21 20 41 34 44 30 10 -10 105 96 100 110 -3 7 0 15 6
19 7 4 8 3 4 -4 -4 -7 -2 -12 4 -12 6 0 16 11 22 25 6 14 15 25 20 25 5 0 7 4
3 9 -3 5 -1 12 5 16 5 3 10 1 10 -6 0 -7 3 -9 7 -6 3 4 -2 15 -11 26 -12 13
-14 21 -6 26 6 4 17 -1 25 -11 13 -18 15 -16 34 26 11 25 20 39 20 33 1 -7 6
-13 12 -13 5 0 8 4 4 9 -3 5 -1 12 5 16 5 3 10 13 10 21 0 11 -4 12 -19 4 -26
-14 -31 -13 -25 5 4 8 1 15 -5 15 -6 0 -8 7 -5 15 4 8 10 12 15 9 15 -9 10 12
-5 25 -8 7 -12 22 -10 34 2 12 2 16 -2 9 -3 -6 -10 -10 -14 -7 -8 5 -35 -32
-33 -45 1 -3 -1 -7 -4 -10 -2 -3 -4 0 -3 5 1 6 2 21 1 34 -1 24 -2 24 -26 -10
-14 -19 -30 -34 -35 -34 -4 0 -12 -3 -16 -8 -4 -4 -2 -7 4 -7 22 0 12 -47 -18
-85 -17 -21 -30 -41 -30 -44 1 -3 12 8 25 24 14 17 25 25 25 18 0 -7 -13 -27
-29 -45 -16 -18 -40 -51 -55 -72 -14 -21 -26 -34 -26 -27 0 11 -34 10 -46 -2
-12 -12 -26 -8 -18 5 8 13 -12 3 -39 -20 -9 -8 -17 -12 -17 -8 0 4 -21 -13
-47 -38 -48 -45 -73 -55 -37 -15 l19 22 -30 -18 c-46 -28 -65 -47 -59 -56 3
-5 1 -9 -5 -9 -6 0 -17 -13 -26 -30 -18 -35 -19 -44 -3 -34 7 4 8 3 4 -5 -4
-6 -12 -9 -17 -6 -5 4 -12 -1 -15 -9 -3 -9 -13 -16 -22 -16 -8 0 -13 -3 -9 -6
3 -3 -6 -17 -21 -30 -15 -13 -22 -24 -16 -24 7 0 15 7 18 16 3 8 11 12 16 9
12 -8 -31 -45 -51 -45 -7 0 -30 -16 -50 -36 -29 -28 -42 -34 -59 -29 l-22 7
22 24 c13 12 27 22 32 21 6 -1 15 6 21 15 9 14 8 20 -8 32 -12 9 -15 15 -7 16
7 0 12 8 10 18 -2 9 2 16 8 15 10 -2 8 28 -6 82 -9 38 21 94 54 99 22 3 56 37
49 49 -4 6 -1 7 6 3 15 -10 53 23 44 38 -4 6 1 5 10 -3 14 -11 17 -11 18 0 1
8 1 18 0 22 -1 5 3 6 9 2 5 -3 37 10 71 30 69 40 73 33 4 -10 -37 -24 -42 -31
-28 -36 10 -3 20 -2 21 2 2 5 9 6 14 3 7 -4 8 -2 4 4 -4 6 4 16 16 23 22 12
22 11 8 -6 -13 -17 -13 -18 0 -10 51 29 99 67 97 77 -1 6 4 13 12 16 9 3 11 0
6 -8 -5 -8 -4 -11 3 -6 6 3 9 16 7 28 -3 12 3 30 12 40 15 17 15 18 -2 18 -14
0 -15 3 -5 15 7 8 17 12 24 8 6 -3 4 2 -6 12 -16 17 -44 12 -32 -6 3 -5 0 -16
-6 -24 -7 -8 -9 -15 -5 -15 5 0 0 -9 -10 -20 -10 -11 -14 -20 -10 -20 4 0 0
-9 -9 -19 -13 -15 -14 -20 -4 -24 7 -2 9 -8 5 -13 -4 -5 -12 -2 -16 5 -5 7
-14 10 -20 7 -6 -4 -11 0 -11 9 0 9 4 14 9 11 5 -3 14 1 20 8 8 9 8 16 2 20
-5 4 -12 2 -16 -4 -4 -6 -11 -8 -16 -5 -5 4 -9 1 -9 -6 0 -7 -6 -5 -13 5 -13
18 -15 18 -35 -4 -12 -13 -25 -19 -33 -15 -7 5 -10 4 -5 -3 8 -13 -23 -31 -43
-24 -8 3 7 17 40 36 30 17 65 41 77 54 l22 22 -48 -4 c-26 -3 -64 -12 -85 -21
-45 -19 -51 -19 -44 -1 12 30 -30 30 -98 0 -59 -26 -66 -26 -60 2 3 13 7 35
10 47 4 21 10 24 54 23 58 -1 70 7 53 34 -15 24 -9 26 12 5 14 -14 18 -14 41
1 14 9 25 23 25 30 0 8 4 14 8 14 18 0 83 64 78 76 -3 7 0 15 7 18 8 3 7 5 -2
5 -8 1 -24 -7 -35 -17 -21 -17 -21 -17 -2 6 11 12 23 22 28 22 5 0 17 7 25 16
11 11 18 12 23 4 10 -17 32 14 34 50 1 16 -3 30 -8 30 -6 1 5 10 26 20 42 23
46 35 47 160 1 47 3 117 5 155 6 116 40 270 57 259 14 -8 10 52 -6 120 -17 65
-54 146 -68 146 -5 0 -5 -6 -1 -12 3 -7 -6 1 -21 17 -17 20 -25 24 -21 12 5
-15 0 -14 -25 7 -17 14 -38 26 -48 26 -9 0 -26 7 -37 15 -22 16 -38 20 -29 6
6 -11 -41 1 -72 17 -11 6 -37 42 -57 79 -43 80 -57 102 -73 120 -6 7 -15 23
-19 35 -4 12 -13 28 -20 36 -10 10 -12 31 -8 85 5 55 3 81 -10 111 -18 42 -21
92 -7 100 5 4 7 -4 4 -16 -4 -18 -1 -16 12 7 9 17 21 35 27 40 8 7 9 6 4 -2
-10 -19 4 -16 27 5 20 17 20 17 2 -10 -10 -17 -13 -28 -6 -28 6 0 11 6 11 13
0 8 3 7 10 -3 6 -10 4 -20 -6 -32 -9 -9 -14 -25 -11 -35 3 -15 6 -13 15 10 15
35 20 34 14 -3 -2 -17 -8 -30 -13 -30 -6 0 -5 -8 1 -19 5 -11 11 -32 11 -48 1
-15 6 2 13 38 6 37 16 73 22 80 6 8 14 21 17 29 5 12 4 -21 -2 -65 -1 -5 -6
-3 -11 5 -7 11 -9 2 -9 -30 1 -41 2 -42 9 -15 7 28 8 27 9 -13 0 -24 5 -41 10
-38 5 4 7 -3 4 -14 -4 -15 -9 -17 -23 -10 -9 5 -20 6 -24 3 -10 -11 -7 -53 5
-53 5 0 7 5 4 10 -3 6 -3 16 1 22 5 8 15 -13 24 -52 l16 -65 13 140 c7 77 13
151 15 165 4 42 18 92 24 86 3 -3 14 1 23 10 10 9 30 18 44 19 l25 3 -24 -29
c-20 -23 -26 -46 -33 -111 -4 -46 -7 -87 -6 -93 16 -80 29 -117 64 -189 41
-85 60 -108 52 -63 -3 13 5 60 16 106 12 46 21 85 21 87 0 2 5 4 11 4 5 0 7
-4 4 -10 -7 -11 -13 -38 -21 -85 -3 -16 -7 -37 -10 -45 -26 -72 -6 -101 96
-135 43 -14 84 -34 92 -43 14 -16 49 -99 63 -150 4 -13 9 -22 11 -19 2 2 -5
33 -16 68 -24 77 -24 74 -5 59 8 -7 15 -19 15 -26 0 -18 14 -18 30 1 7 8 16
13 20 10 4 -2 15 4 24 14 9 10 35 24 57 31 38 13 42 12 56 -6 8 -10 18 -18 23
-17 5 2 24 -15 42 -37 18 -23 62 -61 97 -87 69 -50 96 -95 86 -144 -4 -16 -2
-29 3 -29 5 0 8 -22 8 -49 -1 -27 2 -47 6 -45 3 2 11 -20 18 -49 6 -28 22 -72
35 -97 72 -141 153 -362 199 -548 19 -79 24 -118 19 -170 -3 -43 0 -78 8 -97
7 -16 13 -32 14 -35 1 -3 7 -18 13 -33 15 -36 15 -52 -3 -109 -8 -27 -10 -48
-5 -48 4 0 6 -10 3 -21 -6 -20 -7 -20 -19 7 -13 29 -13 28 -7 -11 3 -22 10
-41 14 -43 5 -2 9 -10 9 -18 0 -8 5 -14 10 -14 6 0 10 5 10 12 0 6 2 9 5 6 3
-3 0 -49 -6 -102 -10 -86 -9 -99 6 -122 9 -14 14 -28 11 -31 -2 -3 -1 -16 4
-29 6 -15 6 -24 0 -24 -6 0 -10 -6 -10 -14 0 -11 49 -14 280 -15 l280 -2 0
2140 0 2141 -335 0 c-184 0 -335 -3 -335 -7 0 -5 7 -20 14 -35 8 -15 13 -43
10 -63 -2 -20 0 -35 6 -35 5 0 10 5 10 10 0 6 5 10 11 10 7 0 9 -26 4 -86 -5
-59 -4 -88 3 -93 14 -8 -5 -181 -22 -198 -2 -2 -28 4 -57 14 -72 24 -205 111
-220 144 -16 34 -202 122 -306 145 l-72 16 -25 54 c-20 43 -23 60 -16 80 6 14
7 30 4 35 -7 12 -214 10 -214 -2 0 -5 6 -9 13 -9 8 0 24 -23 37 -51 13 -28 28
-53 33 -56 5 -3 4 5 -3 18 -11 23 -10 23 4 5 9 -11 16 -27 17 -35 0 -9 6 2 13
24 l11 39 23 -31 c22 -31 62 -50 62 -30 0 16 20 -15 20 -31 0 -7 -6 -12 -12
-11 -7 1 -20 -1 -28 -4 -8 -4 -61 -22 -117 -41 -57 -18 -119 -44 -138 -57 -39
-27 -71 -92 -87 -178 -12 -63 -56 -181 -68 -181 -5 0 -16 -3 -26 -7 -15 -5
-16 -2 -10 23 6 23 5 27 -5 17 -16 -16 -49 -17 -49 -2 0 6 -9 8 -22 3 -21 -6
-22 -5 -8 10 13 16 11 18 -20 15 -50 -3 -126 11 -109 21 7 5 21 4 30 -1 11 -6
20 -5 24 1 3 5 15 10 26 10 25 0 26 38 2 56 -10 7 -13 14 -7 14 6 0 18 -8 25
-17 8 -9 34 -29 58 -44 34 -22 46 -25 56 -16 11 10 9 16 -8 36 -12 13 -15 20
-7 16 8 -5 23 -10 34 -10 16 -2 17 0 4 9 -20 15 2 38 24 25 12 -7 15 -3 14 20
-1 15 -7 36 -15 45 -7 9 -10 16 -6 16 5 0 1 8 -7 18 -23 26 -33 46 -20 38 7
-4 12 -3 12 3 0 5 -5 13 -11 16 -6 4 -8 14 -5 22 3 8 2 12 -3 9 -5 -3 -12 1
-15 10 -3 8 -2 12 4 9 6 -3 7 1 4 9 -3 9 -10 13 -15 10 -5 -3 -6 1 -3 9 3 8
-1 21 -8 28 -7 8 -14 19 -14 24 -1 6 -5 25 -9 44 -6 30 -5 33 11 27 16 -6 17
-5 2 11 -29 34 -33 46 -9 31 12 -7 21 -16 21 -20 0 -5 8 -8 18 -9 10 0 12 -3
5 -6 -18 -7 -16 -23 2 -23 14 0 17 -5 19 -39 1 -8 7 -16 15 -19 11 -4 13 2 8
27 -4 18 -2 31 3 31 6 0 5 8 -2 19 -7 11 -15 18 -20 15 -10 -6 -22 42 -13 55
3 6 2 11 -3 11 -6 0 -8 9 -5 20 5 19 -3 19 -601 20 l-606 0 0 -2140z m1189
2068 c1 -5 -3 -8 -9 -8 -5 0 -10 12 -9 28 0 24 1 25 9 7 5 -11 9 -23 9 -27z
m1218 -200 c-3 -7 -5 -2 -5 12 0 14 2 19 5 13 2 -7 2 -19 0 -25z m-1996 -111
c55 -9 91 -22 125 -46 31 -20 40 -30 24 -25 -14 4 -32 8 -40 9 -8 1 -28 7 -44
13 -16 7 -37 10 -47 7 -10 -3 -27 -1 -37 4 -26 14 -105 24 -98 12 3 -4 35 -22
70 -39 65 -31 158 -113 137 -120 -7 -2 -19 2 -29 9 -9 7 -1 -4 18 -26 l35 -38
-49 36 c-50 38 -78 49 -56 22 7 -8 8 -15 2 -15 -14 0 -33 25 -25 33 3 4 2 7
-4 7 -6 0 -43 27 -82 60 -97 81 -118 78 -71 -11 12 -22 35 -26 26 -4 -9 25 -1
18 60 -52 32 -38 45 -57 30 -43 l-29 25 6 -25 c6 -24 6 -24 -10 -5 -15 19 -15
19 -11 -7 3 -16 4 -28 2 -28 -2 0 -15 20 -30 45 -31 53 -41 54 -19 2 8 -20 15
-44 15 -54 0 -39 -29 13 -49 87 -11 41 -27 95 -35 119 -27 74 -26 74 62 68 42
-4 111 -12 153 -20z m2009 -29 c0 -5 -4 -8 -10 -8 -5 0 -10 10 -10 23 0 18 2
19 10 7 5 -8 10 -18 10 -22z m-826 -2 c-21 -15 -30 -14 -19 3 3 6 14 11 23 11
13 0 13 -2 -4 -14z m28 -18 c-7 -7 -12 -8 -12 -2 0 14 12 26 19 19 2 -3 -1
-11 -7 -17z m16 -18 c-7 -10 -14 -17 -17 -15 -4 4 18 35 25 35 2 0 -1 -9 -8
-20z m102 -15 c0 -5 -70 2 -70 7 0 18 34 25 51 9 11 -8 19 -16 19 -16z m-570
-37 c0 -4 -11 2 -25 14 -14 12 -25 26 -25 32 0 5 11 -1 25 -14 14 -13 25 -27
25 -32z m18 36 c5 3 9 -1 9 -9 0 -16 -31 -4 -43 18 -6 8 -3 8 9 -1 9 -8 20
-11 25 -8z m425 -4 c3 -11 1 -18 -4 -14 -5 3 -9 12 -9 20 0 20 7 17 13 -6z
m-117 -27 c2 -22 1 -22 -11 -7 -8 11 -17 14 -26 9 -11 -7 -12 -6 -2 6 19 23
38 19 39 -8z m58 2 c3 -8 12 -15 21 -15 21 0 19 -24 -5 -45 -19 -18 -20 -17
-20 3 0 13 -6 22 -15 22 -8 0 -15 5 -15 11 0 5 5 7 10 4 6 -3 10 1 10 10 0 10
-5 13 -12 9 -7 -4 -8 -3 -4 4 10 16 23 15 30 -3z m190 -13 c-5 -15 -4 -15 9 1
15 18 16 18 27 -3 7 -13 19 -20 32 -18 12 2 23 -3 25 -9 3 -7 -1 -13 -8 -13
-6 0 -18 -8 -26 -17 -7 -10 -13 -13 -12 -8 6 43 -15 47 -30 5 -5 -16 -12 -30
-15 -30 -3 0 -2 10 3 23 7 18 5 26 -9 35 -10 6 -21 8 -24 5 -10 -10 -7 -55 3
-49 5 3 8 -5 7 -19 -1 -29 -21 -33 -29 -6 -3 12 -12 18 -23 17 -11 -2 -23 2
-27 8 -5 7 -7 2 -4 -10 2 -12 1 -27 -3 -34 -11 -17 -10 41 1 62 5 9 17 15 28
13 18 -3 61 42 61 65 0 6 4 9 10 5 5 -3 7 -13 4 -23z m-351 -7 c-3 -9 -8 -14
-10 -11 -3 3 -2 9 2 15 9 16 15 13 8 -4z m307 -5 c-5 -9 -17 -16 -27 -17 -10
-1 -25 -3 -33 -5 -9 -2 -16 6 -18 18 -3 20 1 22 42 21 37 -1 43 -4 36 -17z
m-223 -27 c-3 -10 -5 -4 -5 12 0 17 2 24 5 18 2 -7 2 -21 0 -30z m463 17 c0
-5 -5 -10 -11 -10 -5 0 -7 5 -4 10 3 6 8 10 11 10 2 0 4 -4 4 -10z m50 4 c0
-13 -42 -58 -57 -60 -9 -2 -41 -27 -72 -57 -31 -30 -70 -62 -88 -71 -102 -51
-167 -125 -165 -188 0 -16 -4 -26 -9 -23 -5 4 -9 13 -9 21 0 8 -4 14 -10 14
-5 0 -10 7 -10 15 0 8 5 15 11 15 7 0 9 10 7 24 -4 20 1 27 34 42 22 10 49 30
61 45 12 15 40 36 62 47 22 11 70 47 107 79 115 99 138 115 138 97z m-387 -49
c-5 -25 -7 -27 -13 -10 -4 11 -3 26 3 33 14 17 16 12 10 -23z m389 3 c-7 -7
-12 -8 -12 -2 0 14 12 26 19 19 2 -3 -1 -11 -7 -17z m313 -24 c22 -5 43 -7 48
-6 4 1 7 -14 7 -34 0 -19 5 -44 10 -54 6 -11 11 -38 13 -60 1 -22 5 -40 8 -40
6 0 29 -45 29 -57 0 -3 -13 10 -28 30 -16 19 -43 47 -60 62 -18 15 -32 35 -32
46 0 10 -25 46 -55 80 -30 34 -55 66 -55 70 0 5 17 1 38 -10 21 -11 56 -23 77
-27z m-1587 6 c13 0 40 -13 60 -29 20 -16 63 -36 94 -45 31 -9 70 -27 86 -41
45 -38 130 -71 197 -78 l60 -6 -56 28 c-31 15 -67 36 -80 45 -24 17 -24 17 16
10 56 -9 100 -29 154 -68 25 -18 64 -43 86 -54 43 -22 127 -102 107 -102 -7 0
-31 9 -53 21 -30 15 -63 21 -127 23 -48 1 -96 6 -107 10 l-20 8 20 -17 c11
-10 44 -28 72 -42 29 -13 55 -28 58 -34 6 -9 4 -8 -93 30 -29 12 -64 21 -78
21 -19 0 -48 23 -112 88 -85 85 -136 121 -309 214 -40 22 -73 41 -73 42 0 2
17 -2 38 -10 20 -7 47 -13 60 -14z m-183 10 c3 -5 1 -10 -4 -10 -6 0 -11 5
-11 10 0 6 2 10 4 10 3 0 8 -4 11 -10z m895 0 c0 -5 -2 -10 -4 -10 -3 0 -8 5
-11 10 -3 6 -1 10 4 10 6 0 11 -4 11 -10z m450 5 c0 -2 -20 -18 -45 -35 -32
-22 -43 -26 -38 -14 5 14 3 16 -12 11 -15 -6 -16 -5 -5 8 8 9 21 13 36 9 17
-4 26 -1 30 10 5 14 34 24 34 11z m-394 -29 c10 -10 12 -46 3 -52 -8 -4 -9 -3
-5 4 4 7 1 12 -6 12 -7 0 -18 12 -25 26 -11 23 -10 24 10 18 12 -3 23 -7 23
-8z m37 -1 c-3 -9 -8 -14 -10 -11 -3 3 -2 9 2 15 9 16 15 13 8 -4z m-83 -20
c0 -8 -6 -12 -13 -9 -16 6 -20 -35 -6 -52 12 -15 -5 -54 -24 -54 -7 0 -6 4 3
10 8 5 11 10 5 11 -5 1 -14 2 -20 4 -5 1 -18 3 -28 3 -10 1 -16 6 -12 12 3 5
-6 15 -20 23 -22 11 -24 15 -12 25 8 7 29 14 48 16 18 2 35 9 37 14 2 6 10 8
19 5 12 -5 14 -3 8 7 -5 9 -4 11 3 6 7 -4 12 -14 12 -21z m151 11 c5 3 9 0 9
-6 0 -6 6 -8 13 -4 6 4 4 -2 -5 -13 -22 -24 -23 -53 -3 -53 8 0 15 -4 15 -9 0
-5 -20 -1 -44 7 -25 9 -40 20 -34 23 6 4 17 5 25 2 7 -3 13 0 13 6 0 6 -3 10
-7 10 -28 -4 -43 3 -43 22 0 11 4 18 8 15 4 -2 14 -1 22 4 9 6 16 6 18 0 2 -6
8 -8 13 -4z m360 -13 c-12 -20 -14 -14 -5 12 4 9 9 14 11 11 3 -2 0 -13 -6
-23z m-1497 -42 c-5 -6 -33 31 -33 44 -1 6 8 -1 19 -15 10 -14 17 -27 14 -29z
m1468 27 c-7 -7 -12 -8 -12 -2 0 14 12 26 19 19 2 -3 -1 -11 -7 -17z m-162 -8
c0 -5 -7 -10 -16 -10 -8 0 -12 5 -9 10 3 6 10 10 16 10 5 0 9 -4 9 -10z m-94
-18 c0 -10 -6 -19 -12 -19 -7 0 -10 7 -6 15 4 11 1 13 -8 7 -9 -5 -11 -4 -6 3
11 18 32 14 32 -6z m235 -6 c-7 -8 -14 -22 -16 -32 -3 -11 -14 -44 -24 -74
-11 -30 -20 -67 -21 -81 0 -15 -9 -37 -21 -50 -11 -13 -18 -18 -14 -11 9 18
-26 15 -55 -5 -22 -14 -22 -13 4 15 17 18 26 32 20 32 -5 0 0 7 10 15 11 8 16
18 13 22 -4 3 1 16 12 27 10 12 27 35 37 51 l18 30 -24 -20 c-14 -12 -20 -14
-15 -5 13 22 77 100 82 100 3 0 0 -6 -6 -14z m-446 -14 c-3 -3 -11 0 -18 7 -9
10 -8 11 6 5 10 -3 15 -9 12 -12z m-959 -90 c18 -12 18 -13 -2 -9 -12 3 -28 0
-37 -4 -9 -6 -18 -5 -22 0 -3 6 -12 8 -20 5 -9 -4 -18 9 -28 43 -7 26 -12 52
-9 56 2 4 25 -11 51 -35 26 -24 56 -49 67 -56z m167 77 c-6 -23 -32 -32 -49
-18 -13 11 -19 2 -15 -23 1 -8 -89 30 -103 43 -6 5 -1 9 11 9 12 0 24 -4 27
-8 6 -10 100 -5 104 6 5 17 29 8 25 -9z m842 -64 c6 0 16 4 23 8 7 5 12 4 12
-2 0 -6 0 -14 0 -18 0 -4 -7 -8 -16 -9 -21 -3 -57 20 -47 30 4 3 9 3 12 -2 3
-4 11 -7 16 -7z m445 3 c0 -4 -9 -8 -20 -8 -11 0 -20 4 -20 8 0 4 9 8 20 8 11
0 20 -4 20 -8z m-360 -8 c0 -5 -5 -10 -11 -10 -5 0 -7 5 -4 10 3 6 8 10 11 10
2 0 4 -4 4 -10z m-1210 -35 c0 -5 -5 -3 -10 5 -5 8 -10 20 -10 25 0 6 5 3 10
-5 5 -8 10 -19 10 -25z m1600 25 c0 -5 -5 -10 -11 -10 -5 0 -7 5 -4 10 3 6 8
10 11 10 2 0 4 -4 4 -10z m-192 -24 c0 -18 -7 -25 -24 -29 -14 -2 -27 0 -31 6
-3 5 -1 7 4 4 6 -4 18 4 27 18 20 31 24 31 24 1z m-1063 -1 c11 -2 32 -8 46
-13 15 -6 36 -8 48 -5 12 3 21 1 21 -4 0 -13 50 -49 80 -57 20 -6 15 2 -25 39
-27 26 -45 45 -39 43 6 -2 38 -28 71 -59 56 -51 58 -69 6 -41 -37 20 -33 14
23 -43 30 -30 60 -55 66 -55 6 0 8 -3 5 -7 -4 -3 3 -17 15 -30 l22 -23 -31 11
c-18 6 -39 21 -48 35 -8 13 -23 24 -33 24 -9 1 -33 9 -52 20 -37 20 -36 26 2
11 20 -8 24 -6 25 13 2 23 -33 42 -172 91 -38 13 -63 25 -55 25 10 0 7 7 -10
21 -20 17 -21 20 -5 14 11 -4 29 -9 40 -10z m1272 -2 c-3 -3 4 -14 16 -24 24
-20 18 -25 -11 -10 -9 6 -30 12 -45 16 -36 7 -28 19 13 22 18 1 30 0 27 -4z
m-124 -28 c-3 -9 -8 -14 -10 -11 -3 3 -2 9 2 15 9 16 15 13 8 -4z m-93 -20
c-7 -8 -18 -15 -24 -15 -6 0 -2 7 8 15 25 19 32 19 16 0z m207 9 c-3 -3 -12
-4 -19 -1 -8 3 -5 6 6 6 11 1 17 -2 13 -5z m-67 -8 c0 -2 -8 -10 -17 -17 -16
-13 -17 -12 -4 4 13 16 21 21 21 13z m-1310 -18 c0 -10 2 -10 8 -1 6 9 13 7
26 -8 16 -20 16 -22 0 -40 -9 -10 -22 -19 -29 -19 -7 0 -26 -22 -43 -50 -20
-31 -36 -48 -45 -44 -13 5 -37 -32 -43 -66 -1 -8 -6 -26 -10 -39 -5 -18 -4
-22 5 -17 15 9 33 53 40 95 1 7 30 -33 31 -41 0 -5 -5 -8 -11 -8 -5 0 -7 5 -4
10 3 6 2 10 -4 10 -12 0 -24 -37 -16 -50 3 -5 -15 -31 -40 -56 l-47 -46 6 31
c3 17 9 44 12 60 3 16 12 32 20 35 8 3 14 10 14 16 0 20 -28 9 -65 -27 l-37
-36 7 34 c9 43 14 51 26 44 5 -4 9 -3 10 2 4 53 10 76 32 118 15 28 36 61 47
75 l21 25 -17 -35 -17 -35 27 24 c14 14 26 19 26 12 0 -22 -21 -55 -65 -101
-23 -25 -42 -55 -43 -67 0 -13 2 -23 4 -23 12 0 36 32 46 61 6 17 13 27 17 22
14 -19 30 -10 36 20 15 73 26 107 34 102 5 -3 11 2 15 10 7 18 26 20 26 3z
m1370 8 c0 -2 -7 -6 -15 -10 -8 -3 -15 -1 -15 4 0 6 7 10 15 10 8 0 15 -2 15
-4z m-110 -31 c-7 -9 -15 -13 -17 -11 -7 7 7 26 19 26 6 0 6 -6 -2 -15z m55
-54 c-7 -6 -55 21 -55 31 0 5 13 1 30 -8 16 -10 27 -20 25 -23z m-1219 17 c1
-2 -13 -28 -32 -58 l-34 -54 0 50 c0 27 5 55 11 61 10 10 45 10 55 1z m204 -8
c8 -5 11 -10 5 -10 -5 0 -17 5 -25 10 -8 5 -10 10 -5 10 6 0 17 -5 25 -10z
m911 -14 c-20 -11 -18 -13 28 -25 27 -7 56 -20 63 -28 12 -14 11 -15 -9 -5
-27 15 -33 15 -33 0 0 -15 30 -48 44 -48 6 1 0 10 -13 20 -13 11 -19 20 -15
20 16 0 36 -17 47 -41 7 -13 23 -26 37 -30 14 -4 18 -8 10 -9 -10 -1 -8 -5 7
-12 24 -12 37 -34 23 -43 -4 -3 -14 1 -22 8 -18 19 -56 28 -54 13 2 -17 46
-71 57 -71 11 0 29 -25 29 -40 0 -5 -5 -3 -10 5 -9 13 -10 13 -10 0 0 -8 -9
-1 -19 16 -11 18 -24 34 -29 38 -14 8 -6 -36 12 -72 20 -39 20 -53 1 -28 -19
25 -19 9 0 -24 16 -28 20 -54 5 -30 -9 13 -10 13 -9 0 0 -8 4 -24 9 -35 8 -19
8 -19 17 4 10 24 10 24 15 3 4 -12 3 -20 -2 -17 -9 5 -21 -33 -25 -78 -2 -15
-6 -31 -10 -35 -4 -4 -6 2 -4 13 1 11 -1 34 -5 52 -12 50 -33 30 -44 -40 -8
-54 -10 -59 -18 -38 -7 16 -6 42 3 85 16 73 8 149 -19 191 l-20 30 21 -24 c46
-52 13 16 -35 73 -18 21 -31 43 -28 47 2 4 -5 13 -16 19 -11 6 -20 15 -20 21
0 6 5 7 10 4 13 -8 8 18 -5 27 -5 4 -10 12 -10 17 0 6 -9 17 -20 25 -19 14
-19 15 8 12 25 -3 28 -1 24 20 -3 17 1 24 17 27 32 5 41 -4 17 -17z m189 13
c0 -6 7 -9 15 -5 8 3 15 1 15 -4 0 -6 -6 -10 -12 -10 -8 0 -5 -7 6 -15 16 -12
17 -15 4 -15 -8 0 -21 7 -28 15 -14 17 -50 20 -50 5 0 -5 -6 -10 -12 -10 -16
0 33 49 50 49 6 1 12 -4 12 -10z m-1253 -55 c-3 -46 -9 -60 -35 -87 -26 -26
-32 -28 -32 -13 0 38 32 126 46 126 8 0 14 7 14 15 0 8 2 15 5 15 3 0 4 -25 2
-56z m951 24 c-8 -13 -18 -32 -21 -43 -7 -19 -6 -19 7 -2 18 23 26 22 23 -5
-1 -16 6 -26 27 -36 16 -8 24 -17 19 -21 -6 -3 -8 -15 -6 -26 3 -11 6 -38 8
-61 1 -22 8 -51 14 -62 15 -28 -4 -30 -21 -2 -7 11 -20 20 -29 20 -9 0 -24 9
-35 21 -28 31 -32 179 -7 214 23 31 40 33 21 3z m-1109 -60 c-27 -71 -39 -81
-39 -35 0 29 7 44 28 62 15 13 28 25 29 25 2 0 -7 -24 -18 -52z m231 35 c0
-15 2 -16 10 -3 9 13 10 13 11 0 2 -27 -1 -44 -18 -83 -11 -26 -19 -34 -25
-25 -9 15 -11 89 -2 112 8 21 24 20 24 -1z m1183 3 c3 -8 0 -19 -7 -26 -10 -8
-15 -7 -20 5 -3 8 -1 15 5 15 6 0 7 5 4 10 -3 6 -2 10 3 10 6 0 12 -6 15 -14z
m-838 -46 c11 0 42 -11 70 -24 27 -13 72 -33 98 -45 26 -12 46 -25 43 -30 -3
-5 1 -14 9 -21 8 -7 15 -17 15 -22 0 -5 11 -24 25 -42 14 -18 25 -38 25 -44 0
-6 5 -14 12 -18 7 -5 8 -3 3 6 -5 8 -4 11 2 7 6 -4 8 -18 5 -32 -2 -15 0 -25
7 -25 6 0 10 -3 9 -7 -3 -13 13 -57 27 -73 8 -8 15 -19 17 -25 2 -5 6 -9 10
-8 4 2 5 -3 2 -11 -3 -8 -1 -17 4 -20 6 -3 8 -14 5 -24 -2 -10 8 -35 22 -56
14 -21 20 -36 14 -34 -7 2 -33 45 -58 94 -25 50 -56 104 -68 120 -12 17 -24
42 -27 56 -4 23 -100 128 -117 128 -3 0 -19 12 -34 26 -28 26 -29 26 -4 20 13
-3 3 4 -22 17 -25 12 -54 30 -63 39 -9 9 -43 27 -76 39 -33 12 -60 25 -60 30
0 5 -6 6 -13 3 -8 -3 -14 1 -14 9 0 10 14 8 56 -10 31 -12 65 -23 76 -23z
m862 13 c-9 -2 -15 -9 -12 -14 4 -5 1 -9 -4 -9 -12 0 -14 13 -4 23 3 4 13 6
22 6 13 -1 12 -2 -2 -6z m-689 -41 c40 -31 41 -37 2 -17 -17 9 -36 13 -42 9
-7 -4 -8 -3 -4 4 4 7 3 12 -1 12 -5 0 -18 7 -29 15 -18 14 -17 15 11 9 17 -4
45 -18 63 -32z m712 -2 c0 -5 -2 -10 -4 -10 -3 0 -8 5 -11 10 -3 6 -1 10 4 10
6 0 11 -4 11 -10z m-1180 -28 c0 -16 -6 -36 -13 -45 -10 -15 -12 -11 -9 28 4
49 22 63 22 17z m58 12 c12 -21 -4 -94 -24 -114 -13 -13 -14 -13 -9 1 3 9 2
33 -3 55 -12 55 14 97 36 58z m149 -10 c-3 -3 -12 -4 -19 -1 -8 3 -5 6 6 6 11
1 17 -2 13 -5z m-480 -35 c-8 -29 8 -31 23 -4 7 14 18 25 23 25 5 0 4 -6 -2
-14 -13 -15 -5 -42 21 -70 22 -24 23 -33 3 -33 -8 0 -19 13 -24 29 -15 41 -26
34 -29 -19 -2 -45 -2 -46 13 -28 16 20 16 20 6 -1 -5 -11 -18 -27 -27 -35 -16
-13 -17 -10 -12 33 4 31 1 51 -7 58 -6 5 -10 23 -7 40 3 21 0 30 -9 30 -11 0
-11 2 1 9 19 13 33 3 27 -20z m1178 11 c10 -11 14 -20 9 -20 -5 0 -15 9 -22
20 -7 11 -11 20 -9 20 2 0 12 -9 22 -20z m293 -25 c-3 -3 -9 2 -12 12 -6 14
-5 15 5 6 7 -7 10 -15 7 -18z m-1525 -2 c-5 -11 -3 -14 6 -8 10 6 11 2 6 -16
-11 -37 -35 -70 -45 -64 -13 8 -13 -2 1 -27 6 -12 7 -18 1 -14 -5 3 -15 -1
-22 -9 -11 -13 -10 -14 6 -8 16 6 15 2 -6 -23 -14 -17 -27 -27 -28 -22 -3 7
21 120 34 158 4 13 6 13 14 0 8 -12 10 -11 10 6 0 11 5 25 12 32 16 16 19 15
11 -5z m701 -43 c11 -10 18 -21 15 -24 -9 -10 -58 7 -61 21 -2 9 -18 21 -37
27 -19 6 -36 17 -39 24 -6 18 96 -22 122 -48z m-238 37 c10 3 12 -3 9 -25 -4
-38 -28 -84 -32 -62 -7 49 -7 98 0 91 5 -5 15 -7 23 -4z m415 -14 l24 -26 -32
23 c-34 25 -39 30 -25 30 5 0 19 -12 33 -27z m93 -56 c3 4 -6 20 -21 37 -25
28 -24 28 9 -3 21 -19 35 -38 32 -43 -3 -4 6 -23 20 -41 14 -19 23 -37 19 -40
-3 -4 4 -18 17 -32 13 -14 20 -25 16 -25 -12 0 -125 102 -131 119 -4 10 1 9
16 -5 l22 -19 -19 35 c-10 19 -26 44 -34 56 -8 11 -1 5 16 -13 17 -18 34 -30
38 -26z m493 33 c10 -18 26 -30 38 -30 13 0 16 -3 8 -8 -12 -8 -12 -36 0 -48
10 -11 8 -34 -3 -34 -5 0 -12 12 -16 28 -12 54 -16 62 -41 92 -13 17 -20 30
-14 30 5 0 18 -13 28 -30z m-476 3 c13 -16 12 -17 -3 -4 -17 13 -22 21 -14 21
2 0 10 -8 17 -17z m250 0 c13 -16 12 -17 -3 -4 -17 13 -22 21 -14 21 2 0 10
-8 17 -17z m-1071 3 c0 -3 -4 -8 -10 -11 -5 -3 -10 -1 -10 4 0 6 5 11 10 11 6
0 10 -2 10 -4z m81 -19 c-6 -8 -8 -16 -5 -19 3 -3 1 -9 -4 -12 -6 -3 -9 0 -8
6 2 16 15 38 23 38 3 0 0 -6 -6 -13z m1674 3 c3 -5 1 -10 -4 -10 -6 0 -11 5
-11 10 0 6 2 10 4 10 3 0 8 -4 11 -10z m-1381 -26 c5 -17 0 -34 -15 -56 -21
-28 -23 -29 -30 -12 -4 10 -7 35 -7 54 0 19 2 27 5 18 6 -24 23 -23 23 2 0 29
17 25 24 -6z m881 -14 c9 -16 13 -30 11 -30 -3 0 -12 14 -21 30 -9 17 -13 30
-11 30 3 0 12 -13 21 -30z m-1396 -12 c-5 -18 -9 -40 -9 -48 0 -13 1 -13 10 0
15 23 12 -4 -6 -61 -23 -70 -38 -74 -30 -8 10 79 27 149 36 149 5 0 4 -15 -1
-32z m161 13 c-13 -25 -13 -34 0 -26 6 3 10 -3 10 -14 0 -30 -17 -35 -31 -9
l-12 23 -9 -30 c-4 -16 -6 -35 -4 -42 3 -6 -2 -17 -11 -25 -15 -12 -16 -9 -10
29 8 47 -9 70 -18 26 -3 -15 -10 -43 -15 -61 -7 -28 -6 -31 6 -21 28 23 24 1
-6 -31 l-30 -32 0 33 c0 44 40 167 56 173 9 3 11 -1 7 -12 -6 -16 -5 -16 14 1
11 9 22 15 25 12 3 -3 11 1 18 10 17 21 23 19 10 -4z m593 -21 c62 -47 128
-127 93 -114 -9 3 -16 11 -16 18 0 6 -14 20 -30 30 -17 9 -28 21 -25 26 6 10
-63 60 -83 60 -7 0 -10 5 -7 10 9 15 11 14 68 -30z m-213 -52 c0 -10 -4 -18
-10 -18 -5 0 -10 15 -10 33 0 24 3 28 10 17 5 -8 10 -23 10 -32z m30 32 c0 11
3 10 12 -4 8 -14 7 -29 -2 -60 -13 -39 -14 -40 -21 -16 -11 39 -11 98 1 80 9
-13 10 -13 10 0z m628 -9 c1 -1 -3 -11 -10 -23 -7 -13 -11 -27 -10 -31 1 -5
-2 -6 -7 -3 -5 4 -12 0 -15 -6 -3 -7 -2 0 1 16 4 21 3 27 -6 21 -10 -5 -10 -3
0 13 10 16 22 20 47 13z m-244 -42 c18 -30 18 -32 0 -47 -17 -16 -17 -16 -5 1
12 15 12 17 -3 11 -9 -3 -16 -2 -17 2 0 5 -2 21 -4 37 -5 36 6 34 29 -4z
m-799 -10 c-6 -19 -4 -21 14 -16 12 3 19 2 16 -3 -3 -4 1 -10 9 -13 16 -6 36
11 37 33 0 9 4 6 9 -7 5 -13 14 -23 19 -23 6 0 8 -6 5 -14 -10 -26 18 -30 38
-5 15 19 17 20 9 4 -5 -12 -9 -29 -8 -40 2 -21 -23 -31 -50 -21 -12 5 -13 9
-3 21 15 18 5 35 -22 35 -19 0 -20 -5 -16 -50 3 -27 1 -50 -3 -50 -10 0 -14
30 -10 70 1 14 -1 22 -5 18 -4 -5 -13 -3 -20 3 -19 16 -36 1 -33 -29 1 -15 -5
-43 -14 -62 l-17 -35 6 65 c10 102 12 110 24 125 17 21 22 19 15 -6z m1755 0
c0 -6 -4 -7 -10 -4 -5 3 -10 11 -10 16 0 6 5 7 10 4 6 -3 10 -11 10 -16z
m-415 2 c-3 -5 -1 -12 4 -15 5 -3 7 -15 4 -26 -3 -11 -9 -17 -15 -14 -5 3 -5
11 2 19 8 9 8 15 0 20 -13 8 -13 25 1 25 5 0 8 -4 4 -9z m-864 -78 c-9 -15
-10 -13 -11 14 0 17 3 40 8 50 5 14 8 11 10 -14 2 -18 -1 -41 -7 -50z m1337
40 c8 -24 8 -41 2 -47 -15 -15 -12 -36 5 -36 14 0 24 -26 23 -60 0 -8 3 -31 6
-50 5 -26 4 -30 -3 -15 -10 20 -10 20 -10 0 -1 -12 3 -25 8 -30 5 -6 10 -28
11 -50 3 -58 1 -67 -10 -60 -5 3 -10 0 -11 -7 0 -7 -4 -3 -10 10 -5 13 -13 20
-19 17 -6 -4 -10 6 -10 22 0 15 -4 42 -9 59 -8 28 -6 33 16 45 20 11 24 19 21
53 -2 34 -7 42 -26 44 -17 3 -20 7 -13 16 12 15 15 60 5 99 -10 41 11 33 24
-10z m-1270 -54 l-13 -44 -6 50 c-7 58 -2 73 18 52 13 -12 13 -21 1 -58z
m1215 43 c17 2 21 -1 19 -17 -2 -11 -6 -22 -9 -25 -8 -8 -43 41 -42 59 1 13 2
13 6 -2 3 -12 12 -17 26 -15z m-1034 -34 c10 -30 9 -31 -4 -14 -8 11 -15 26
-15 33 0 22 8 14 19 -19z m591 -47 c0 -3 -7 4 -15 15 -8 10 -14 30 -14 44 0
20 3 17 14 -15 8 -22 15 -42 15 -44z m-1105 38 c-14 -17 -23 -34 -20 -37 3 -4
10 0 15 8 8 13 10 13 10 -1 0 -9 -6 -19 -14 -22 -8 -3 -16 -16 -19 -29 -4 -19
-4 -18 -6 6 l-1 29 -20 -23 c-11 -13 -20 -27 -20 -32 0 -5 -4 -7 -9 -4 -4 3
-16 -13 -24 -36 -9 -23 -19 -39 -22 -36 -7 7 17 148 26 148 3 0 4 -11 1 -25
-3 -18 0 -25 9 -23 18 4 48 40 43 53 -4 9 52 53 69 54 5 1 -3 -13 -18 -30z
m1510 21 c3 -5 1 -10 -4 -10 -6 0 -11 5 -11 10 0 6 2 10 4 10 3 0 8 -4 11 -10z
m-1695 -35 c0 -5 -5 -3 -10 5 -5 8 -10 20 -10 25 0 6 5 3 10 -5 5 -8 10 -19
10 -25z m600 5 c0 -16 -4 -30 -10 -30 -5 0 -10 14 -10 30 0 17 5 30 10 30 6 0
10 -13 10 -30z m304 -6 c7 -19 2 -18 -19 6 -16 17 -16 20 -3 15 9 -4 19 -13
22 -21z m-664 -12 c0 -5 -7 -17 -16 -28 -8 -10 -14 -14 -11 -9 2 6 7 18 10 28
7 17 17 23 17 9z m703 -111 c13 -26 13 -29 -2 -26 -9 1 -16 6 -16 11 0 5 -11
25 -25 44 -14 19 -24 37 -22 40 1 3 -2 5 -7 5 -14 0 -25 13 -27 33 -3 21 79
-68 99 -107z m-943 77 c0 -23 -3 -29 -9 -19 -8 12 -4 51 5 51 2 0 4 -15 4 -32z
m617 10 c-3 -8 -6 -5 -6 6 -1 11 2 17 5 13 3 -3 4 -12 1 -19z m633 -43 c-4
-27 -9 -41 -10 -30 -4 24 -1 55 5 74 10 26 12 6 5 -44z m-64 -31 c-3 -9 -11
-12 -17 -8 -8 5 -10 -6 -5 -37 12 -85 12 -92 -7 -95 -10 -1 -14 2 -10 9 3 6 6
41 5 78 -2 49 2 70 13 79 8 7 16 20 16 29 1 9 4 3 6 -12 3 -16 2 -35 -1 -43z
m170 29 c-1 -17 9 -40 24 -57 17 -20 20 -27 8 -23 -17 6 -19 -8 -4 -32 6 -9 5
-12 -2 -7 -7 4 -9 -5 -5 -29 4 -23 2 -35 -6 -35 -6 0 -11 7 -11 15 0 9 -6 12
-15 9 -8 -4 -12 -10 -9 -15 3 -5 -2 -9 -10 -9 -21 0 -21 53 -1 110 8 23 15 55
15 71 0 16 4 29 9 29 4 0 7 -12 7 -27z m-1320 -11 c-8 -16 -21 -34 -29 -40
-12 -10 -14 -8 -14 15 0 16 2 22 4 15 3 -8 12 -4 25 13 26 33 32 32 14 -3z
m218 -24 c3 -15 14 -29 24 -32 10 -3 18 -15 18 -25 0 -11 -4 -17 -8 -15 -10 6
-10 1 -2 -20 3 -9 11 -13 17 -9 6 3 7 1 3 -5 -4 -7 -14 -12 -22 -12 -8 0 -13
-3 -10 -8 2 -4 -2 -15 -9 -25 -11 -16 -13 -16 -19 -2 -4 11 -2 14 6 9 6 -4 8
-3 5 4 -4 5 -16 8 -26 5 -20 -5 -19 -24 2 -51 8 -10 7 -16 -4 -23 -12 -7 -12
-9 1 -9 13 0 13 -1 0 -10 -8 -5 -11 -12 -8 -16 9 -8 -9 -44 -22 -44 -6 0 -10
7 -10 15 0 8 -4 15 -8 15 -5 0 -9 6 -9 13 0 6 -12 31 -27 55 -31 49 -50 118
-25 92 27 -29 44 -54 32 -46 -16 9 -16 4 -1 -29 6 -14 18 -25 27 -25 13 0 13
-2 2 -9 -7 -5 -9 -11 -4 -14 6 -4 16 6 22 20 10 22 10 29 -2 38 -12 9 -12 15
4 45 23 42 24 63 4 80 -8 6 -13 25 -12 41 2 34 1 33 21 14 13 -13 15 -13 22 7
4 13 8 19 10 13 1 -5 5 -22 8 -37z m1457 9 c-10 -9 -11 -8 -5 6 3 10 9 15 12
12 3 -3 0 -11 -7 -18z m51 4 c7 11 8 10 6 -5 -5 -30 -24 -29 -25 1 0 17 1 21
4 9 4 -15 7 -16 15 -5z m-548 -73 c-3 -10 -10 -18 -16 -18 -5 0 -7 7 -4 16 3
9 6 30 7 47 l1 32 9 -30 c5 -16 6 -38 3 -47z m-538 25 c-7 -7 -26 7 -26 19 0
6 6 6 15 -2 9 -7 13 -15 11 -17z m-543 -13 c3 -11 1 -20 -4 -20 -5 0 -9 9 -9
20 0 11 2 20 4 20 2 0 6 -9 9 -20z m39 2 c-17 -5 -15 -19 7 -41 11 -11 15 -24
11 -31 -9 -15 -35 20 -45 62 -6 24 -5 26 16 21 13 -4 18 -8 11 -11z m499 -55
c-12 -12 -41 8 -41 29 0 12 5 11 26 -2 17 -11 22 -20 15 -27z m210 6 c13 -16
12 -17 -3 -4 -10 7 -18 15 -18 17 0 8 8 3 21 -13z m-251 -24 c0 -4 -7 -6 -15
-3 -8 4 -15 10 -15 15 0 4 7 6 15 3 8 -4 15 -10 15 -15z m-36 -18 c-2 -2 2
-11 9 -20 8 -9 17 -24 20 -33 12 -33 -32 -21 -53 15 -25 41 -25 42 4 42 13 0
22 -2 20 -4z m-474 -51 c12 -16 17 -30 13 -30 -5 0 -19 14 -31 30 -13 17 -18
30 -13 30 5 0 19 -13 31 -30z m1127 -12 c-3 -8 -6 -5 -6 6 -1 11 2 17 5 13 3
-3 4 -12 1 -19z m554 -45 c-9 -16 -10 -16 -11 4 0 12 3 30 7 40 7 16 8 16 11
-4 2 -12 -1 -30 -7 -40z m-511 16 c0 -5 -7 -9 -15 -9 -13 0 -14 -4 -4 -21 8
-17 8 -20 -1 -14 -14 9 -6 -22 17 -67 7 -16 10 -28 7 -28 -4 0 1 -9 11 -20 10
-11 14 -20 9 -20 -13 0 -59 70 -59 89 0 9 -5 14 -10 11 -6 -3 -10 -17 -10 -33
0 -15 -7 -32 -15 -37 -12 -7 -10 -9 7 -7 12 0 19 5 16 11 -3 5 -1 6 6 2 9 -6
9 -11 1 -21 -6 -7 -8 -20 -4 -29 5 -14 3 -15 -20 -6 -24 9 -26 7 -26 -16 0
-15 -4 -23 -10 -19 -6 4 -8 15 -5 24 3 10 -1 23 -8 29 -8 7 -12 27 -10 50 2
36 1 38 -25 36 -25 -1 -27 2 -28 35 0 20 1 30 3 24 3 -9 10 -10 24 -3 16 9 19
7 19 -15 0 -14 4 -25 9 -25 5 0 9 12 9 26 0 26 19 47 34 38 4 -3 8 2 8 11 0 9
4 14 9 10 6 -3 16 1 23 9 13 14 38 4 38 -15z m551 -3 c-7 -8 -11 -23 -8 -33 3
-16 5 -15 13 5 9 21 11 19 28 -27 9 -27 16 -60 13 -73 -4 -20 -5 -19 -7 7 -2
21 -5 14 -10 -25 l-7 -55 -1 58 c-1 31 -6 57 -11 57 -5 0 -12 10 -15 23 -7 21
-7 21 -15 2 -5 -11 -4 -30 0 -43 6 -15 4 -34 -6 -55 l-14 -32 4 50 c3 33 1 45
-5 35 -8 -13 -10 -13 -10 2 0 9 4 19 9 23 5 3 13 20 17 37 7 35 26 70 33 63 2
-3 -2 -11 -8 -19z m-1696 -6 c18 -8 18 -9 2 -9 -15 -1 -16 -4 -6 -23 11 -23
11 -23 -15 1 -40 37 -31 52 19 31z m464 -56 c3 -17 0 -16 -23 5 -14 14 -26 29
-26 34 0 17 45 -20 49 -39z m1133 -11 c-10 -28 -10 -28 -11 12 -1 28 2 36 10
28 8 -8 8 -19 1 -40z m-1560 -2 c-11 -7 -11 -9 2 -14 9 -4 16 -11 16 -16 0 -6
-8 -7 -17 -4 -14 6 -14 3 3 -19 15 -21 20 -23 22 -10 6 34 12 43 23 36 8 -5 8
-9 -1 -14 -9 -5 -9 -9 -1 -14 7 -5 6 -15 -6 -32 -15 -24 -15 -27 6 -54 25 -35
26 -40 6 -40 -8 0 -15 -7 -15 -15 0 -8 -5 -15 -11 -15 -7 0 -9 10 -5 26 8 29
-1 64 -15 64 -12 0 -70 40 -86 60 -19 24 -15 30 18 30 27 0 30 -2 19 -15 -11
-13 -9 -20 10 -40 13 -14 27 -25 32 -25 16 0 7 47 -13 66 -11 10 -25 27 -30
36 -8 16 -5 18 23 18 22 0 29 -3 20 -9z m418 -62 c0 -25 -36 -13 -60 21 -29
41 -25 44 20 19 22 -13 40 -30 40 -40z m90 30 c-7 -11 -14 -19 -16 -16 -7 7 7
37 17 37 6 0 5 -9 -1 -21z m840 -4 c7 -9 8 -15 2 -15 -5 0 -12 7 -16 15 -3 8
-4 15 -2 15 2 0 9 -7 16 -15z m315 -35 c-4 -12 -9 -19 -12 -17 -3 3 -2 15 2
27 4 12 9 19 12 17 3 -3 2 -15 -2 -27z m-1285 -21 c0 -6 -4 -7 -10 -4 -5 3
-10 11 -10 16 0 6 5 7 10 4 6 -3 10 -11 10 -16z m598 -51 c-12 -24 -28 -23
-28 3 0 11 -4 18 -9 15 -10 -7 -20 23 -14 41 3 8 14 2 32 -15 20 -20 25 -32
19 -44z m-110 17 c-3 -3 -9 2 -12 12 -6 14 -5 15 5 6 7 -7 10 -15 7 -18z m42
10 c7 -9 8 -15 2 -15 -5 0 -12 7 -16 15 -3 8 -4 15 -2 15 2 0 9 -7 16 -15z
m687 -27 c-3 -7 -5 -2 -5 12 0 14 2 19 5 13 2 -7 2 -19 0 -25z m50 -5 c-3 -10
-5 -4 -5 12 0 17 2 24 5 18 2 -7 2 -21 0 -30z m-1682 17 c22 0 26 -3 15 -10
-12 -7 -12 -11 3 -28 16 -18 16 -20 2 -26 -21 -8 -36 1 -71 43 l-29 35 25 -7
c14 -4 39 -7 55 -7z m433 -2 c7 -7 12 -15 12 -20 0 -12 -28 2 -34 18 -7 17 6
18 22 2z m139 -36 l-28 -27 5 25 c2 14 5 27 5 30 1 3 5 -2 11 -10 8 -12 10
-12 16 3 3 10 9 15 12 12 3 -3 -6 -18 -21 -33z m1150 16 c-3 -8 -6 -5 -6 6 -1
11 2 17 5 13 3 -3 4 -12 1 -19z m-657 -28 c0 -5 -2 -10 -4 -10 -3 0 -8 5 -11
10 -3 6 -1 10 4 10 6 0 11 -4 11 -10z m460 -39 c8 -15 8 -21 1 -17 -19 12 -12
-23 9 -44 11 -11 20 -25 20 -31 0 -6 -9 -1 -21 12 -11 13 -19 17 -16 9 2 -8 1
-24 -3 -35 -4 -11 -3 -26 2 -32 8 -9 6 -13 -6 -13 -18 0 -17 -18 1 -38 7 -7
10 -19 7 -27 -7 -18 12 -20 20 -2 3 6 3 -4 0 -23 -4 -19 -10 -36 -15 -38 -5
-2 -9 -13 -9 -25 l0 -21 -15 21 c-16 23 -21 99 -10 143 4 14 9 62 12 108 3 45
7 81 8 80 1 -2 8 -14 15 -27z m-1536 10 c4 -5 0 -11 -6 -14 -9 -3 -7 -11 7
-28 14 -17 10 -15 -13 5 -23 22 -29 32 -20 38 17 10 26 10 32 -1z m122 -73
c-2 -25 2 -39 12 -43 8 -3 12 -8 9 -11 -3 -4 0 -13 8 -20 8 -8 12 -20 9 -28
-3 -7 2 -19 11 -26 8 -7 15 -18 15 -26 0 -7 7 -19 15 -28 9 -9 11 -17 5 -21
-15 -9 -12 -45 4 -45 16 0 16 -31 1 -42 -6 -5 -5 -11 5 -17 9 -6 14 -24 13
-50 -1 -26 4 -44 14 -53 9 -7 18 -12 20 -10 11 8 22 0 17 -13 -4 -8 -11 -12
-16 -9 -12 8 -28 -14 -28 -40 0 -13 5 -17 20 -13 32 8 23 -1 -20 -22 -34 -16
-40 -17 -40 -4 0 8 9 28 20 44 17 23 19 32 10 49 -6 12 -13 38 -16 58 -9 85
-38 132 -65 105 -9 -9 -5 -18 16 -37 30 -28 22 -33 -19 -14 -20 9 -23 14 -15
25 6 7 8 13 4 13 -14 0 -45 -33 -45 -47 0 -10 -7 -12 -22 -8 -41 13 -40 22 6
39 24 9 50 23 56 31 10 12 7 17 -16 26 -16 6 -37 17 -46 26 -17 15 -17 17 0
29 23 18 31 17 26 -3 -5 -24 45 -62 56 -43 10 16 33 3 24 -13 -5 -9 -4 -9 5
-1 7 6 9 27 5 57 -7 50 -17 56 -57 36 -18 -9 -20 -9 -9 2 18 19 15 63 -8 91
-10 14 -16 28 -13 32 4 3 6 28 4 54 -2 43 -1 45 13 27 8 -11 13 -36 12 -57z
m-36 45 c0 -5 -9 -19 -18 -31 l-18 -24 -17 25 c-16 25 -16 26 6 30 38 7 47 7
47 0z m-86 -69 c25 -24 19 -36 -9 -18 -25 16 -33 34 -16 34 5 0 17 -7 25 -16z
m90 -40 c25 -9 19 -26 -6 -20 -13 3 -17 3 -10 0 7 -3 17 -15 23 -26 10 -19 10
-19 -16 -2 -14 9 -30 25 -36 35 -8 16 -6 19 10 19 11 0 26 -3 35 -6z m1463
-16 c-3 -8 -6 -5 -6 6 -1 11 2 17 5 13 3 -3 4 -12 1 -19z m-1512 -41 c-17 -13
-17 -15 6 -30 35 -25 10 -21 -31 5 l-35 22 25 7 c43 12 56 11 35 -4z m112 -57
c0 -24 -3 -27 -14 -19 -16 14 -17 36 0 42 6 3 12 6 13 6 0 1 1 -12 1 -29z
m1440 -12 c-3 -8 -6 -5 -6 6 -1 11 2 17 5 13 3 -3 4 -12 1 -19z m-1252 -25
c-1 -15 -7 -29 -12 -30 -6 -2 -8 -16 -7 -31 2 -15 1 -20 -3 -12 -3 8 -12 21
-20 28 -12 12 -11 16 3 27 9 6 14 17 10 23 -5 9 6 19 26 21 3 1 5 -11 3 -26z
m1233 2 c1 -13 -2 -27 -7 -30 -7 -4 -8 29 -2 53 3 9 7 -2 9 -23z m-1191 -7
c-3 -8 -6 -5 -6 6 -1 11 2 17 5 13 3 -3 4 -12 1 -19z m-319 -10 c-2 -4 6 -14
17 -23 19 -14 18 -15 -9 -5 -43 16 -50 22 -35 31 15 10 32 7 27 -3z m379 -20
c-3 -8 -6 -5 -6 6 -1 11 2 17 5 13 3 -3 4 -12 1 -19z m-57 -14 c0 -8 -4 -12
-10 -9 -5 3 -10 10 -10 16 0 5 5 9 10 9 6 0 10 -7 10 -16z m1176 -6 c4 -7 3
-8 -4 -4 -7 4 -12 2 -12 -5 0 -7 -3 -10 -6 -6 -6 5 3 27 11 27 2 0 7 -5 11
-12z m-1496 -2 c0 -3 -4 -8 -10 -11 -5 -3 -10 -1 -10 4 0 6 5 11 10 11 6 0 10
-2 10 -4z m1504 -41 c-24 -18 -34 -19 -34 -2 0 7 12 14 27 15 26 2 26 1 7 -13z
m-1249 -5 c3 -5 -1 -10 -10 -10 -9 0 -13 5 -10 10 3 6 8 10 10 10 2 0 7 -4 10
-10z m-195 -26 c0 -2 -7 -4 -15 -4 -8 0 -15 4 -15 10 0 5 7 7 15 4 8 -4 15 -8
15 -10z m0 -14 c23 12 33 13 26 1 -3 -5 5 -12 19 -15 14 -4 25 -11 25 -17 0
-14 -80 -3 -94 12 -16 15 -29 11 -22 -7 4 -9 1 -23 -5 -30 -9 -11 -8 -14 6
-14 14 0 16 -5 11 -27 -4 -16 -7 -36 -7 -46 0 -9 -4 -15 -9 -12 -10 6 -24 -31
-15 -44 3 -5 1 -12 -4 -15 -11 -7 -20 -59 -23 -138 -2 -36 -6 -54 -13 -48 -6
5 -11 -12 -13 -48 -1 -32 -10 -73 -19 -92 -11 -25 -13 -41 -7 -60 6 -14 7 -38
3 -55 -4 -16 -7 -22 -8 -12 -2 32 -17 18 -29 -28 -14 -51 -15 -83 -1 -45 8 24
8 23 6 -6 -2 -20 1 -31 10 -31 8 0 11 7 8 15 -6 17 3 34 15 27 5 -3 2 -24 -6
-47 -7 -22 -14 -55 -14 -72 -1 -29 -2 -30 -15 -12 -13 17 -15 18 -21 2 -3 -9
-4 -31 -1 -49 4 -23 4 -27 -3 -12 -5 11 -12 38 -15 60 -7 39 -7 39 -19 16 -20
-37 -29 2 -11 46 17 41 19 56 4 30 -6 -9 -15 -15 -20 -11 -6 3 0 19 14 37 29
38 70 128 62 136 -4 3 -10 -1 -15 -9 -6 -8 -10 -11 -10 -7 0 4 8 19 17 34 9
14 18 48 20 75 2 27 10 73 18 101 8 29 17 86 20 127 3 41 7 86 9 100 2 14 7
48 10 75 3 28 10 65 15 83 5 17 7 32 5 32 -3 0 -3 4 1 9 3 6 20 4 40 -5 26
-10 41 -12 55 -4z m1658 -5 c11 19 11 18 13 -10 1 -16 3 -43 4 -60 2 -16 8
-77 14 -135 20 -207 22 -223 33 -244 10 -19 10 -20 -7 -6 -16 14 -17 13 -11
-8 5 -13 3 -22 -3 -22 -6 0 -11 -8 -11 -17 -1 -10 -8 -29 -16 -43 l-15 -25 6
25 c15 64 18 93 8 87 -6 -4 -10 1 -9 11 0 9 -3 16 -9 15 -6 -1 -11 31 -13 75
-3 78 -5 95 -14 122 -23 68 -30 99 -35 160 -5 61 -4 70 11 70 9 0 20 8 23 18
6 14 8 13 13 -8 6 -24 6 -24 18 -5z m-1398 -29 c0 -6 -7 -2 -15 8 -8 11 -15
25 -15 30 0 6 7 2 15 -8 8 -11 15 -25 15 -30z m1068 -16 c7 -19 7 -30 1 -30
-9 0 -29 41 -29 61 0 19 18 -1 28 -31z m-1318 1 c0 -14 -18 -23 -30 -16 -6 4
-8 11 -5 16 8 12 35 12 35 0z m225 -20 c-3 -6 -14 -11 -23 -11 -15 1 -15 2 2
15 21 16 32 13 21 -4z m1075 -23 c0 -5 5 -6 11 -2 7 4 9 0 5 -13 -4 -11 -2
-33 4 -48 7 -19 7 -31 -1 -41 -6 -7 -9 -29 -8 -48 4 -44 -6 -56 -16 -19 -7 26
-8 26 -15 8 -8 -19 -9 -19 -9 2 -1 27 -21 41 -22 16 0 -10 -6 7 -13 37 -6 30
-18 65 -24 78 -11 19 -10 22 3 22 9 0 18 6 21 13 5 15 64 11 64 -5z m-1250 -9
c0 -5 -6 -9 -12 -9 -7 0 -24 -3 -37 -7 -21 -5 -22 -4 -12 14 7 15 17 19 36 16
14 -3 25 -9 25 -14z m173 -9 c-3 -12 -14 -20 -27 -20 -21 1 -21 1 3 20 29 25
30 25 24 0z m-198 -43 c-8 -12 -19 -54 -24 -91 -6 -38 -14 -73 -19 -78 -7 -7
-7 6 -2 33 5 24 12 70 15 102 5 48 10 57 26 57 18 0 18 -2 4 -23z m111 -48
c-1 -17 -10 -36 -20 -41 -20 -11 -20 -7 -2 37 18 43 27 45 22 4z m49 11 c-10
-11 -23 -20 -28 -20 -6 0 -2 9 8 20 10 11 23 20 28 20 6 0 2 -9 -8 -20z m1228
-36 c-3 -8 0 -27 5 -44 6 -16 7 -32 2 -35 -13 -8 -9 -155 6 -197 11 -33 11
-38 -2 -38 -13 0 -15 -8 -10 -42 5 -38 4 -40 -4 -13 -17 51 -17 422 -1 396 5
-8 7 -20 4 -27z m-1138 -85 c-21 -97 -53 -207 -73 -244 -9 -16 -15 -34 -13
-40 1 -5 -3 -4 -10 3 -7 6 -18 12 -25 12 -13 0 -54 -61 -58 -85 -1 -9 -5 -15
-9 -15 -4 0 -12 0 -18 0 -5 0 -7 5 -4 10 3 6 -1 10 -9 10 -9 0 -13 -7 -11 -20
2 -11 -3 -26 -11 -33 -35 -29 -44 -39 -44 -49 0 -5 7 -7 16 -4 8 3 12 2 9 -3
-3 -5 -1 -12 5 -16 5 -3 10 1 10 9 0 9 7 16 17 16 15 0 15 -1 0 -18 -19 -20
-47 -25 -48 -8 0 6 -4 2 -9 -9 -7 -17 -9 -17 -9 -2 -1 9 -6 17 -11 17 -6 0 -3
11 6 24 8 14 15 27 15 30 -3 23 0 30 8 17 6 -9 11 -10 15 -2 4 6 -4 15 -18 21
-30 11 -31 16 -11 36 8 9 15 11 15 5 0 -6 5 -11 10 -11 13 0 9 32 -5 42 -5 4
-16 1 -25 -5 -13 -11 -13 -10 -1 6 8 10 22 17 31 14 10 -3 16 2 16 14 0 14 -6
17 -23 13 -14 -4 -23 -2 -23 5 0 6 3 10 8 10 19 -3 42 2 41 9 -3 19 2 33 11
27 15 -9 12 1 -4 18 -12 12 -13 20 -2 50 8 26 16 33 23 26 7 -7 12 7 16 47 3
31 11 62 16 67 6 6 11 19 11 28 0 31 28 42 99 40 42 -1 72 2 76 9 15 24 15 0
0 -71z m1024 -38 c0 -21 -3 -19 -14 14 -7 22 -13 31 -14 21 -1 -11 -4 -17 -7
-13 -4 3 -3 14 0 24 7 17 8 17 22 -1 8 -11 14 -31 13 -45z m-948 26 c-10 -9
-11 -8 -5 6 3 10 9 15 12 12 3 -3 0 -11 -7 -18z m986 -39 c-3 -7 -5 -2 -5 12
0 14 2 19 5 13 2 -7 2 -19 0 -25z m-967 6 c0 -14 -3 -14 -15 -4 -8 7 -15 14
-15 16 0 2 7 4 15 4 8 0 15 -7 15 -16z m947 -26 c-3 -8 -6 -5 -6 6 -1 11 2 17
5 13 3 -3 4 -12 1 -19z m-1360 -20 c-3 -8 -6 -5 -6 6 -1 11 2 17 5 13 3 -3 4
-12 1 -19z m388 -40 c0 -29 4 -64 8 -78 7 -24 7 -23 -8 3 -9 15 -22 27 -30 27
-11 0 -15 13 -15 50 0 45 2 50 23 50 20 0 22 -5 22 -52z m957 20 c-7 -7 -12
-8 -12 -2 0 6 3 14 7 17 3 4 9 5 12 2 2 -3 -1 -11 -7 -17z m18 -69 c0 -7 -6
-4 -15 7 -19 25 -19 40 0 20 8 -8 15 -20 15 -27z m430 -62 c0 -5 -6 -5 -12 -1
-7 3 2 -7 20 -23 31 -28 53 -77 51 -118 0 -20 0 -20 -9 0 -7 17 -9 16 -10 -10
-1 -28 -2 -29 -14 -12 -8 10 -17 41 -21 68 -4 27 -11 49 -17 49 -5 0 -7 4 -3
9 3 5 1 12 -4 15 -5 3 -9 23 -9 43 0 37 0 37 14 13 7 -14 13 -29 14 -33z
m-423 21 c-3 -8 -6 -5 -6 6 -1 11 2 17 5 13 3 -3 4 -12 1 -19z m-1323 -3 c-4
-8 -8 -15 -10 -15 -2 0 -4 7 -4 15 0 8 4 15 10 15 5 0 7 -7 4 -15z m1692 -42
c-3 -4 -6 0 -6 8 0 11 -2 11 -10 -1 -8 -13 -10 -13 -10 1 0 24 13 32 23 14 5
-9 6 -19 3 -22z m140 5 c4 -7 3 -8 -4 -4 -7 4 -12 3 -12 -1 0 -5 9 -14 20 -21
12 -7 20 -23 20 -38 0 -14 5 -35 11 -47 10 -21 10 -21 -5 -3 -16 19 -16 19
-17 -5 0 -13 -7 0 -15 30 -8 30 -19 60 -24 66 -6 7 -5 16 2 23 15 15 15 15 24
0z m-141 -31 c10 -8 19 -27 21 -43 2 -16 6 -40 9 -54 5 -23 4 -23 -8 -7 -8 9
-19 17 -25 17 -7 0 -14 11 -18 25 -3 14 -10 25 -15 25 -5 0 -8 11 -7 25 3 28
15 31 43 12z m-1538 -22 c-13 -27 -33 -35 -23 -9 3 9 6 20 6 25 0 5 6 9 14 9
11 0 12 -5 3 -25z m203 10 c11 -13 10 -14 -3 -10 -9 4 -15 1 -14 -7 0 -7 -1
-23 -1 -36 -2 -20 -4 -21 -22 -10 -24 16 -25 35 -3 60 20 22 27 22 43 3z
m1545 -45 c3 -6 -1 -7 -9 -4 -9 3 -16 9 -16 13 0 3 -3 17 -6 31 -6 24 -5 24 9
-2 9 -16 19 -32 22 -38z m-1705 24 c-6 -14 -11 -37 -11 -52 -1 -17 -3 -21 -6
-9 -2 9 -9 17 -14 17 -12 0 1 53 15 62 20 14 26 8 16 -18z m49 -41 c-1 -27 -4
-39 -6 -28 -3 11 -10 26 -15 32 -12 15 -4 43 12 43 5 0 9 -21 9 -47z m1186 -1
c8 -26 9 -39 2 -35 -6 4 -8 -3 -3 -20 8 -34 19 -132 20 -178 1 -29 5 -36 18
-34 9 2 25 -6 35 -18 l18 -22 -22 19 c-13 11 -23 15 -23 9 0 -11 34 -45 41
-41 2 2 1 -1 -3 -6 -4 -5 -17 3 -29 18 -12 15 -25 24 -29 19 -4 -4 -10 -35
-14 -68 -6 -56 -6 -59 9 -38 11 16 14 34 9 65 -4 32 -3 39 5 28 6 -8 11 -26
11 -40 0 -14 9 -36 20 -50 29 -36 24 -46 -6 -13 -14 15 -23 23 -20 16 10 -18
-4 -41 -22 -39 -11 2 -18 14 -20 32 -2 16 -7 31 -11 34 -18 12 -21 58 -4 71
15 12 16 12 10 -3 -3 -10 -2 -28 3 -40 8 -20 9 -19 9 12 1 19 -5 46 -12 60
-18 34 -27 70 -18 70 8 0 7 16 -5 164 -5 62 -4 78 6 74 7 -2 19 -23 25 -46z
m-1471 -7 c3 -8 1 -15 -4 -15 -6 0 -10 7 -10 15 0 8 2 15 4 15 2 0 6 -7 10
-15z m0 -44 c3 -5 -1 -11 -9 -14 -9 -4 -12 -1 -8 9 6 16 10 17 17 5z m161 -11
c4 -6 -1 -7 -11 -3 -10 4 -15 2 -11 -3 3 -5 -3 -10 -13 -10 -14 0 -16 3 -8 13
12 15 34 17 43 3z m79 -31 c-3 -5 -10 -7 -15 -3 -5 3 -7 10 -3 15 3 5 10 7 15
3 5 -3 7 -10 3 -15z m170 -34 c-4 -8 -8 -15 -10 -15 -2 0 -4 7 -4 15 0 8 4 15
10 15 5 0 7 -7 4 -15z m-664 -92 c0 -22 2 -25 10 -13 8 13 10 13 10 -2 0 -28
-16 -29 -29 -2 -14 31 -14 44 -1 44 6 0 10 -12 10 -27z m51 -24 c-10 -23 -10
-23 -10 7 -1 17 2 34 7 38 11 12 14 -18 3 -45z m480 8 c-6 -8 -8 -16 -5 -20 3
-3 -3 -11 -14 -18 -11 -7 -18 -19 -15 -26 3 -7 0 -13 -7 -13 -6 0 -8 5 -5 10
3 6 0 10 -7 10 -7 0 1 9 17 20 17 11 26 20 21 20 -5 0 -3 7 4 15 7 8 15 15 17
15 3 0 0 -6 -6 -13z m1269 -21 c0 -5 -6 -3 -13 3 -8 6 -18 7 -23 3 -4 -4 -2 1
5 11 11 14 16 15 22 5 5 -7 9 -17 9 -22z m-1813 -58 c-3 -7 -5 -2 -5 12 0 14
2 19 5 13 2 -7 2 -19 0 -25z m1873 -9 c0 -6 -4 -7 -10 -4 -5 3 -10 11 -10 16
0 6 5 7 10 4 6 -3 10 -11 10 -16z m-1450 -24 c0 -2 -7 -5 -15 -9 -9 -3 -15 0
-15 9 0 9 6 12 15 9 8 -4 15 -7 15 -9z m-106 -79 c-3 -8 -12 -12 -21 -9 -12 5
-12 7 -1 14 20 13 28 11 22 -5z m-313 -40 c-16 -22 -19 -43 -5 -43 8 0 14 7
14 16 0 18 23 -22 32 -55 7 -26 -11 -50 -36 -49 -21 0 -31 -31 -14 -42 7 -3 8
-1 4 5 -4 7 -3 12 3 12 5 0 12 -6 14 -12 3 -7 6 -4 6 6 1 11 3 17 6 14 10 -10
-7 -58 -17 -52 -7 4 -8 -8 -3 -34 6 -38 5 -40 -14 -35 -12 3 -21 1 -22 -3 -4
-40 -12 -70 -20 -72 -5 -2 -7 -7 -5 -11 3 -4 -4 -12 -15 -19 -17 -11 -19 -9
-19 9 0 17 -3 19 -13 10 -11 -9 -13 0 -9 47 4 56 23 92 48 92 7 0 17 8 22 18
12 22 -26 66 -47 53 -9 -6 -10 -11 -2 -15 6 -4 11 -2 11 5 0 7 3 10 6 7 8 -9
-37 -99 -53 -105 -7 -3 -13 -15 -13 -28 0 -13 -8 -33 -19 -46 -16 -21 -20 -21
-34 -8 -13 14 -13 21 2 65 13 41 21 50 42 52 17 2 29 11 32 24 3 11 10 17 16
13 15 -8 14 8 -1 23 -8 8 -17 8 -32 0 -21 -11 -21 -11 -2 11 11 11 16 21 13
21 -7 0 32 62 64 102 12 15 27 24 32 21 6 -3 7 -1 3 6 -4 7 -5 20 -1 29 6 16
8 15 21 -2 8 -11 10 -24 5 -30z m959 4 c-16 -31 -23 -18 -8 15 7 15 14 23 16
17 2 -6 -2 -21 -8 -32z m-657 -12 c-2 -5 -9 -8 -14 -8 -6 0 -7 5 -3 12 5 8 2
9 -9 5 -10 -3 -17 -2 -17 2 0 5 6 11 12 13 15 5 38 -14 31 -24z m437 17 c-10
-12 -10 -15 0 -15 8 0 11 -3 7 -6 -3 -3 -11 -3 -17 1 -8 5 -8 11 1 21 6 8 14
14 16 14 3 0 0 -7 -7 -15z m246 -42 c-18 -33 -21 -26 -6 13 6 15 13 24 16 21
3 -3 -1 -18 -10 -34z m57 8 c-3 -14 -10 -30 -15 -36 -6 -6 -7 1 -2 19 5 21 4
27 -4 22 -7 -4 -10 -2 -6 7 2 7 11 14 19 14 11 0 13 -8 8 -26z m-933 -29 c0
-21 -2 -24 -10 -12 -13 20 -13 53 0 45 6 -3 10 -18 10 -33z m410 -17 c0 -2
-10 -9 -22 -15 -22 -11 -22 -10 -4 4 21 17 26 19 26 11z m170 0 c0 -2 -10 -10
-22 -16 -21 -11 -22 -11 -9 4 13 16 31 23 31 12z m271 -42 c-12 -20 -14 -14
-5 12 4 9 9 14 11 11 3 -2 0 -13 -6 -23z m-891 -14 c0 -15 -18 -19 -23 -6 -3
8 1 14 9 14 8 0 14 -4 14 -8z m47 -31 c-3 -8 -6 -5 -6 6 -1 11 2 17 5 13 3 -3
4 -12 1 -19z m813 18 c0 -2 -8 -10 -17 -17 -16 -13 -17 -12 -4 4 13 16 21 21
21 13z m880 -15 c5 -11 10 -28 10 -39 0 -11 7 -26 17 -33 15 -13 15 -12 5 8
-7 12 -12 37 -11 55 l1 33 13 -40 c7 -22 13 -33 14 -25 1 11 7 8 20 -9 11 -15
20 -19 22 -12 3 8 11 4 24 -11 13 -15 14 -18 3 -10 -11 9 -18 10 -23 2 -3 -5
-1 -10 5 -10 6 0 9 -3 6 -8 -5 -8 18 -42 31 -45 4 -1 8 -8 8 -15 0 -7 13 -28
29 -48 19 -24 26 -42 22 -57 -3 -11 0 -27 6 -34 6 -8 8 -16 4 -20 -3 -3 -6 -1
-6 6 0 9 -5 9 -21 0 -20 -10 -21 -9 -16 11 4 15 2 20 -8 17 -9 -4 -15 11 -19
57 -8 68 -13 79 -39 89 -10 4 -15 11 -12 17 3 6 -1 7 -10 4 -12 -5 -15 -14
-10 -31 5 -21 4 -22 -14 -11 -15 9 -17 17 -10 35 16 41 8 40 -12 -2 -10 -22
-19 -35 -19 -30 0 6 -5 3 -10 -5 -8 -12 -10 -12 -10 5 0 17 -2 17 -10 5 -8
-12 -10 -12 -10 5 0 15 -3 17 -9 7 -6 -11 -10 -10 -15 4 -9 23 24 60 37 42 6
-10 7 -9 4 2 -2 8 -10 14 -16 12 -7 -1 -9 7 -5 25 4 22 3 25 -5 13 -9 -13 -11
-12 -11 3 0 23 18 57 30 57 5 0 14 -9 20 -19z m-2050 -40 c0 -5 -6 -14 -14
-21 -8 -6 -16 -24 -18 -38 -2 -15 -7 -26 -13 -24 -13 4 -8 41 10 69 15 23 35
31 35 14z m54 -32 c-14 -14 -29 -42 -35 -62 -7 -26 -16 -37 -28 -37 -16 0 -18
6 -14 48 7 59 22 77 67 77 l35 0 -25 -26z m990 16 c-4 -8 -11 -15 -16 -15 -6
0 -5 6 2 15 7 8 14 15 16 15 2 0 1 -7 -2 -15z m46 11 c0 -2 -8 -10 -17 -17
-16 -13 -17 -12 -4 4 13 16 21 21 21 13z m853 -46 c-3 -12 -8 -19 -11 -16 -5
6 5 36 12 36 2 0 2 -9 -1 -20z m-933 -69 c0 -5 -7 -12 -16 -15 -14 -5 -15 -4
-4 9 14 17 20 19 20 6z m1266 -28 c28 -38 34 -57 23 -74 -7 -12 -9 -12 -9 0 0
8 -11 29 -25 47 -25 33 -32 54 -17 54 5 0 17 -12 28 -27z m-224 -27 c3 -13 1
-32 -4 -41 -6 -9 -7 -23 -4 -31 4 -11 2 -12 -12 -5 -11 6 -24 6 -32 1 -22 -14
-27 -4 -25 46 1 32 7 51 20 60 23 17 51 3 57 -30z m-2012 27 c0 -5 -7 -17 -15
-27 -15 -20 -20 -10 -9 18 6 16 24 22 24 9z m2115 -71 c-2 -20 -4 -39 -5 -42
0 -3 -5 2 -10 10 -8 12 -10 9 -10 -12 0 -22 4 -26 18 -21 14 5 15 4 4 -8 -11
-12 -15 -11 -27 4 -10 13 -14 15 -18 5 -3 -7 -6 1 -7 17 -1 17 -4 46 -6 65 -3
25 1 39 13 48 27 19 53 -17 48 -66z m-1535 -107 c-7 -9 -15 -13 -19 -10 -3 3
1 10 9 15 21 14 24 12 10 -5z m1407 -17 c-3 -7 -5 -2 -5 12 0 14 2 19 5 13 2
-7 2 -19 0 -25z"/>
<path d="M1373 3623 c-18 -7 -16 -43 2 -43 8 0 15 5 15 11 0 5 5 7 11 3 8 -4
8 0 0 15 -7 11 -13 21 -14 20 -1 0 -8 -3 -14 -6z"/>
<path d="M440 3526 c0 -2 8 -10 18 -17 15 -13 16 -12 3 4 -13 16 -21 21 -21
13z"/>
<path d="M414 3508 c-4 -7 -4 -10 1 -6 4 4 15 2 24 -5 14 -11 14 -10 2 6 -16
20 -18 21 -27 5z"/>
<path d="M1550 2996 c0 -2 8 -10 18 -17 15 -13 16 -12 3 4 -13 16 -21 21 -21
13z"/>
<path d="M2542 2625 c0 -16 2 -22 5 -12 2 9 2 23 0 30 -3 6 -5 -1 -5 -18z"/>
<path d="M971 2694 c0 -11 3 -14 6 -6 3 7 2 16 -1 19 -3 4 -6 -2 -5 -13z"/>
<path d="M1000 2671 c5 -18 6 -39 3 -48 -4 -10 -2 -14 4 -10 19 12 20 52 1 71
-17 18 -17 18 -8 -13z"/>
<path d="M1066 1143 c-6 -14 -5 -15 5 -6 7 7 10 15 7 18 -3 3 -9 -2 -12 -12z"/>
<path d="M1015 1100 c-4 -6 3 -10 14 -10 25 0 27 6 6 13 -8 4 -17 2 -20 -3z"/>
<path d="M686 594 c-5 -14 -4 -15 9 -4 17 14 19 20 6 20 -5 0 -12 -7 -15 -16z"/>
<path d="M1745 4271 c-6 -11 9 -23 19 -14 9 9 7 23 -3 23 -6 0 -12 -4 -16 -9z"/>
<path d="M1911 4230 c1 -32 6 -47 15 -47 8 0 14 10 14 23 0 43 16 32 18 -12 1
-31 -2 -43 -10 -38 -7 5 -8 3 -2 -7 4 -8 7 -25 6 -39 -2 -20 -1 -22 7 -10 6 8
11 34 11 58 0 23 4 42 9 42 4 0 7 -16 5 -35 -1 -19 2 -35 7 -35 5 0 9 9 9 19
0 11 6 22 13 24 6 3 8 6 2 6 -6 1 -9 22 -7 49 l4 48 -51 1 -51 0 1 -47z m76
-12 c-3 -8 -6 -5 -6 6 -1 11 2 17 5 13 3 -3 4 -12 1 -19z"/>
<path d="M2030 4258 c0 -13 -3 -34 -7 -47 -4 -17 -3 -22 5 -17 7 4 12 18 12
32 0 14 4 23 8 20 4 -2 8 4 8 15 0 10 -6 19 -13 19 -7 0 -13 -10 -13 -22z"/>
<path d="M2085 4270 c-3 -5 -6 -30 -7 -56 0 -32 -3 -42 -10 -33 -7 10 -8 6 -3
-11 4 -14 7 -38 7 -53 -1 -18 3 -25 10 -21 8 5 9 2 5 -9 -4 -10 -2 -17 4 -17
6 0 9 -7 6 -15 -4 -8 -2 -17 3 -20 6 -4 10 -1 10 4 0 6 5 11 10 11 6 0 10 -11
10 -24 0 -33 10 -57 21 -50 5 3 9 0 9 -5 0 -6 4 -11 10 -11 6 0 6 9 0 26 -6
14 -10 35 -9 47 1 20 2 20 8 -3 12 -44 24 -3 16 57 -5 39 -3 53 4 49 6 -4 11
-20 11 -37 0 -16 4 -29 9 -29 10 0 21 75 21 151 l0 59 -69 0 c-39 0 -72 -4
-76 -10z m72 -202 c-3 -7 -5 -2 -5 12 0 14 2 19 5 13 2 -7 2 -19 0 -25z"/>
<path d="M2240 4251 c0 -16 3 -36 6 -45 5 -13 8 -13 20 -1 8 7 14 19 14 25 0
7 7 10 15 6 11 -4 15 1 15 19 0 22 -4 25 -35 25 -32 0 -35 -2 -35 -29z"/>
<path d="M1670 4215 c0 -11 49 -94 50 -84 0 4 -11 27 -25 50 -14 24 -25 40
-25 34z"/>
<path d="M1077 2513 c-4 -3 -7 -16 -6 -27 0 -19 1 -19 10 3 10 24 8 36 -4 24z"/>
<path d="M1200 2231 c0 -10 7 -24 15 -31 13 -11 13 -8 4 19 -12 35 -19 40 -19
12z"/>
<path d="M1330 2086 c0 -2 8 -10 18 -17 15 -13 16 -12 3 4 -13 16 -21 21 -21
13z"/>
<path d="M1395 2050 c10 -11 23 -20 28 -20 6 0 2 9 -8 20 -10 11 -23 20 -28
20 -6 0 -2 -9 8 -20z"/>
<path d="M1440 2032 c0 -4 11 -19 25 -32 14 -13 25 -20 25 -15 0 5 7 0 15 -11
14 -19 21 -9 7 11 -12 18 -72 57 -72 47z"/>
<path d="M1654 1732 c1 -34 8 -68 15 -75 10 -9 11 -9 7 3 -4 8 -10 42 -16 75
l-9 60 3 -63z"/>
<path d="M1550 1591 c0 -6 4 -13 10 -16 6 -3 7 1 4 9 -7 18 -14 21 -14 7z"/>
<path d="M1740 1526 c0 -2 8 -10 18 -17 15 -13 16 -12 3 4 -13 16 -21 21 -21
13z"/>
<path d="M1690 1517 c0 -3 12 -12 26 -22 15 -9 23 -12 20 -6 -7 11 -46 35 -46
28z"/>
<path d="M1830 1395 c13 -14 26 -25 28 -25 3 0 -5 11 -18 25 -13 14 -26 25
-28 25 -3 0 5 -11 18 -25z"/>
<path d="M2043 795 c0 -27 2 -38 4 -22 2 15 2 37 0 50 -2 12 -4 0 -4 -28z"/>
<path d="M1856 815 c-9 -26 -7 -32 5 -12 6 10 9 21 6 23 -2 3 -7 -2 -11 -11z"/>
<path d="M2075 770 c-3 -5 -1 -10 4 -10 6 0 11 5 11 10 0 6 -2 10 -4 10 -3 0
-8 -4 -11 -10z"/>
<path d="M1818 754 c-6 -33 3 -88 13 -73 11 18 11 60 0 78 -7 11 -10 10 -13
-5z"/>
<path d="M2091 723 c-1 -12 -4 -30 -7 -40 -5 -15 -4 -15 5 -3 9 13 11 13 11 1
0 -11 4 -9 15 5 16 21 20 8 5 -16 -6 -10 -4 -20 5 -30 7 -8 21 -40 29 -70 l16
-55 -4 50 -4 50 19 -44 c11 -24 22 -42 25 -39 9 10 -8 87 -20 85 -6 -1 -11 8
-10 20 0 12 -3 21 -8 20 -4 -1 -14 9 -21 23 -7 14 -19 25 -26 25 -8 0 -17 9
-22 20 -7 19 -8 19 -8 -2z m59 -76 c0 -5 -4 -5 -10 -2 -5 3 -10 14 -10 23 0
15 2 15 10 2 5 -8 10 -19 10 -23z"/>
<path d="M2041 684 c0 -11 3 -14 6 -6 3 7 2 16 -1 19 -3 4 -6 -2 -5 -13z"/>
<path d="M1852 649 c-5 -19 -7 -38 -3 -44 3 -5 9 8 13 29 10 49 2 60 -10 15z"/>
<path d="M2091 650 c0 -14 28 -72 29 -59 0 4 -7 22 -15 40 -8 19 -14 27 -14
19z"/>
<path d="M1365 640 c-3 -5 -1 -10 4 -10 6 0 11 5 11 10 0 6 -2 10 -4 10 -3 0
-8 -4 -11 -10z"/>
<path d="M2211 625 c0 -16 4 -50 10 -75 5 -25 10 -63 10 -85 0 -22 2 -34 6
-27 4 10 9 9 20 -5 13 -16 14 -15 8 20 -7 42 6 49 23 12 6 -14 8 -25 4 -25 -4
0 -8 -8 -9 -17 0 -10 -1 -31 -3 -48 -1 -16 1 -48 4 -70 l5 -40 -12 32 c-19 51
-27 50 -27 -3 0 -37 -3 -45 -11 -34 -7 11 -9 5 -7 -25 1 -22 -1 -46 -5 -52 -4
-6 -4 -19 0 -30 7 -17 6 -17 -12 1 -11 11 -21 14 -23 8 -2 -6 -10 -8 -19 -5
-13 5 -14 3 -5 -13 8 -15 5 -23 -14 -41 -13 -12 -24 -31 -24 -42 0 -11 -4 -22
-10 -26 -5 -3 -6 -13 -3 -21 5 -14 8 -12 20 7 12 21 13 21 11 4 -3 -18 4 -20
51 -23 47 -3 53 -1 42 12 -10 12 -9 16 6 25 10 6 14 11 9 11 -11 0 14 30 26
30 5 0 6 -10 3 -21 -5 -15 -4 -19 4 -15 6 4 11 15 11 25 0 10 6 31 14 47 53
110 57 125 58 223 0 95 -15 176 -32 166 -4 -3 -11 7 -15 23 -6 25 -8 26 -20 9
-12 -16 -13 -16 -20 5 l-7 23 -8 -25 c-7 -23 -8 -22 -9 10 -1 25 -4 31 -10 21
-7 -11 -13 -2 -24 35 -13 41 -16 44 -16 19z m104 -224 c3 -5 1 -12 -5 -16 -5
-3 -10 1 -10 9 0 18 6 21 15 7z m-8 -103 c-3 -7 -5 -2 -5 12 0 14 2 19 5 13 2
-7 2 -19 0 -25z m-20 -110 c-3 -7 -5 -2 -5 12 0 14 2 19 5 13 2 -7 2 -19 0
-25z m-7 -83 c0 -8 -4 -15 -10 -15 -5 0 -7 7 -4 15 4 8 8 15 10 15 2 0 4 -7 4
-15z"/>
<path d="M1817 556 c-9 -20 -12 -38 -7 -46 5 -8 6 -18 3 -24 -3 -5 -1 -6 5 -2
7 4 12 15 13 24 0 10 3 12 5 5 3 -7 0 -22 -7 -35 -11 -20 -11 -22 3 -10 27 21
31 -4 8 -48 l-20 -40 22 4 c17 2 25 12 29 37 4 19 14 52 24 74 17 39 17 40 -2
23 -26 -24 -36 -22 -27 5 15 48 15 51 -1 27 l-16 -25 4 27 c6 39 -17 42 -36 4z"/>
<path d="M2121 534 c0 -11 3 -14 6 -6 3 7 2 16 -1 19 -3 4 -6 -2 -5 -13z"/>
<path d="M2096 443 c-4 -27 -9 -66 -12 -88 -5 -32 -4 -38 7 -28 12 12 27 163
16 163 -3 0 -8 -21 -11 -47z"/>
<path d="M2375 470 c-3 -5 -1 -10 4 -10 6 0 11 5 11 10 0 6 -2 10 -4 10 -3 0
-8 -4 -11 -10z"/>
<path d="M1783 455 c-9 -24 1 -27 15 -5 8 13 8 20 2 20 -6 0 -13 -7 -17 -15z"/>
<path d="M1808 425 c-22 -29 -23 -36 -3 -28 9 3 13 8 11 11 -3 3 -1 11 6 19 6
7 9 15 7 17 -2 2 -12 -6 -21 -19z"/>
<path d="M2062 345 c0 -16 2 -22 5 -12 2 9 2 23 0 30 -3 6 -5 -1 -5 -18z"/>
<path d="M2027 293 c-9 -9 -9 -41 1 -46 4 -3 7 8 7 24 0 16 0 29 -1 29 0 0 -4
-3 -7 -7z"/>
<path d="M1992 213 c-6 -2 -10 -9 -7 -13 3 -5 -5 -19 -17 -31 -23 -21 -23 -21
-1 -10 12 6 23 8 26 3 2 -4 2 -1 1 6 -2 6 0 12 4 12 4 0 8 9 9 20 1 11 1 20 0
19 -1 0 -8 -3 -15 -6z"/>
<path d="M2396 135 c-3 -8 -1 -15 4 -15 6 0 10 7 10 15 0 8 -2 15 -4 15 -2 0
-6 -7 -10 -15z"/>
<path d="M1950 122 c-13 -15 -16 -25 -11 -49 2 -15 22 15 27 40 5 31 4 31 -16
9z"/>
<path d="M2120 120 c0 -5 5 -10 11 -10 5 0 7 5 4 10 -3 6 -8 10 -11 10 -2 0
-4 -4 -4 -10z"/>
<path d="M1606 102 c-3 -5 1 -9 9 -9 8 0 12 4 9 9 -3 4 -7 8 -9 8 -2 0 -6 -4
-9 -8z"/>
<path d="M1027 85 c3 -8 9 -12 14 -9 12 7 11 11 -5 17 -10 4 -13 1 -9 -8z"/>
<path d="M1520 85 c-7 -9 -11 -17 -9 -20 3 -2 10 5 17 15 14 24 10 26 -8 5z"/>
<path d="M1905 89 c-4 -6 -5 -12 -2 -15 2 -3 7 2 10 11 7 17 1 20 -8 4z"/>
<path d="M2410 90 c0 -5 7 -7 15 -4 8 4 15 8 15 10 0 2 -7 4 -15 4 -8 0 -15
-4 -15 -10z"/>
<path d="M1451 55 c-13 -20 -21 -38 -17 -42 3 -3 6 -3 6 0 0 4 11 2 25 -3 16
-6 25 -6 25 0 0 6 -7 10 -15 10 -8 0 -15 5 -15 10 0 6 3 10 8 10 4 0 8 11 8
25 1 14 1 25 0 25 0 0 -12 -16 -25 -35z"/>
<path d="M1547 57 l-17 -32 20 24 c17 20 26 41 18 41 -2 0 -11 -15 -21 -33z"/>
<path d="M2112 65 c0 -16 2 -22 5 -12 2 9 2 23 0 30 -3 6 -5 -1 -5 -18z"/>
<path d="M1576 65 c-3 -8 0 -16 7 -18 9 -3 8 -8 -2 -21 -8 -9 -12 -19 -9 -22
4 -4 48 60 48 69 0 10 -40 3 -44 -8z"/>
<path d="M2404 55 c3 -9 0 -15 -8 -15 -22 0 -7 -36 15 -37 16 -2 19 3 15 25
-2 15 -5 30 -5 35 -1 4 -6 7 -12 7 -6 0 -9 -7 -5 -15z"/>
<path d="M1815 29 c-4 -6 -5 -12 -2 -15 2 -3 7 2 10 11 7 17 1 20 -8 4z"/>
</g>
</svg>
