<?xml version="1.0" standalone="no"?>
<!DOCTYPE svg PUBLIC "-//W3C//DTD SVG 20010904//EN"
 "http://www.w3.org/TR/2001/REC-SVG-20010904/DTD/svg10.dtd">
<svg version="1.0" xmlns="http://www.w3.org/2000/svg"
 width="336.000000pt" height="280.000000pt" viewBox="0 0 336.000000 280.000000"
 preserveAspectRatio="xMidYMid meet">
<metadata>
Created by potrace 1.16, written by Peter Selinger 2001-2019
</metadata>
<g transform="translate(0.000000,280.000000) scale(0.100000,-0.100000)"
fill="#000000" stroke="none">
<path d="M431 2780 c-15 -13 -21 -26 -17 -37 4 -10 -2 -25 -15 -40 -13 -12
-17 -23 -11 -23 17 0 15 -65 -2 -79 -8 -7 -24 -14 -37 -16 -12 -3 -27 -9 -33
-15 -5 -5 -22 -10 -37 -10 -15 0 -34 -6 -41 -13 -7 -8 -37 -22 -66 -31 -28
-10 -52 -20 -52 -22 0 -2 6 -13 13 -24 10 -17 9 -26 -6 -51 -9 -17 -17 -34
-17 -39 0 -12 123 27 135 43 6 8 34 26 63 41 50 25 52 26 42 6 -6 -11 -8 -25
-5 -30 23 -37 -45 -98 -119 -107 -43 -5 -96 -37 -96 -57 0 -7 -16 -30 -35 -50
-19 -21 -35 -42 -35 -47 0 -5 16 -9 35 -9 19 0 35 -3 35 -7 0 -5 4 -14 8 -21
17 -26 142 53 142 91 0 8 6 17 14 20 22 9 9 -131 -15 -166 -16 -22 -19 -37
-13 -73 5 -38 9 -44 25 -39 11 4 19 2 19 -5 0 -6 -13 -13 -30 -16 -29 -6 -29
-7 -14 -35 17 -33 11 -51 -13 -42 -14 5 -15 1 -10 -25 5 -23 2 -34 -10 -41
-14 -8 -15 -12 -4 -25 8 -9 14 -36 15 -60 0 -24 4 -48 8 -52 4 -4 5 -18 2 -31
-6 -24 0 -42 57 -154 30 -59 36 -93 19 -104 -6 -3 -9 -30 -9 -58 1 -45 2 -48
8 -18 6 33 7 32 22 -30 13 -49 14 -59 3 -44 -8 10 -14 23 -14 29 0 5 -3 7 -6
4 -6 -7 28 -78 57 -120 12 -16 15 -29 9 -33 -35 -21 -144 -49 -260 -66 -74
-10 -137 -20 -140 -20 -3 -1 8 -5 25 -9 l30 -8 -28 -1 c-27 -1 -28 -2 -24 -58
2 -32 9 -69 16 -83 10 -24 11 -23 5 7 -4 25 -2 33 9 33 9 0 18 -6 20 -12 3 -7
6 -4 6 7 1 17 3 17 11 5 7 -11 10 -12 10 -2 0 7 -7 20 -15 28 -13 14 -15 13
-15 -2 0 -10 -2 -15 -5 -12 -4 3 -3 18 1 34 7 26 8 27 15 6 6 -14 14 -20 29
-17 11 2 18 0 15 -6 -4 -5 0 -9 9 -9 8 0 16 6 19 13 3 8 7 6 12 -5 12 -31 -2
-46 -75 -83 -38 -19 -70 -39 -70 -45 0 -19 19 -19 33 0 12 18 15 18 20 5 4 -8
2 -15 -3 -15 -19 0 -50 -35 -50 -56 0 -50 50 -40 180 35 58 34 108 61 112 61
4 0 5 -7 1 -16 -3 -9 0 -19 6 -24 9 -5 8 -9 -4 -13 -9 -4 -13 -3 -10 2 3 5 1
12 -3 15 -11 7 -33 -64 -25 -77 3 -6 1 -7 -5 -3 -7 4 -14 -3 -18 -19 -3 -14
-15 -30 -25 -36 -33 -17 -66 -81 -74 -144 -4 -32 -16 -81 -26 -108 -23 -58
-24 -76 -4 -91 9 -6 23 -29 31 -51 l15 -40 -6 35 c-3 19 -15 45 -27 57 -22 24
-22 24 -4 76 10 29 24 59 30 67 7 8 18 29 24 45 11 28 11 28 -3 11 -14 -19
-15 -17 -15 22 0 37 6 48 56 99 31 32 62 73 70 90 13 30 26 44 23 26 -4 -28 2
-53 12 -47 9 5 10 -9 7 -50 -3 -32 -1 -51 3 -44 5 7 9 20 9 29 0 9 9 24 19 33
18 16 20 16 36 -6 l16 -23 -6 25 c-3 14 -6 36 -7 50 -1 14 -9 34 -19 45 -22
25 -51 94 -44 105 8 13 132 80 147 80 13 0 38 -35 73 -103 26 -51 79 -97 111
-97 32 0 68 -39 106 -115 17 -33 48 -82 69 -109 22 -27 39 -53 39 -59 0 -33
-262 -355 -296 -363 -12 -3 -24 -13 -27 -23 -2 -10 -28 -26 -63 -39 -33 -12
-68 -28 -79 -36 -19 -14 -18 -15 17 -13 21 2 46 11 58 22 11 10 20 14 20 9 0
-5 5 -2 11 6 9 13 10 13 6 0 -2 -8 -9 -15 -14 -15 -6 0 -14 -3 -17 -6 -4 -3 6
-5 21 -4 22 1 27 6 25 21 -2 15 -1 16 7 5 5 -8 7 -20 4 -28 -4 -9 5 -13 30
-13 34 0 35 1 41 48 12 82 28 115 82 174 55 60 161 194 181 230 l11 20 11 -20
c6 -11 11 -28 11 -37 0 -38 64 -225 77 -225 7 0 13 -5 13 -11 0 -5 -4 -7 -10
-4 -5 3 -10 1 -10 -4 0 -6 7 -11 15 -11 8 0 15 -5 15 -11 0 -5 -5 -7 -10 -4
-11 7 -6 -27 11 -73 7 -17 5 -24 -6 -27 -8 -3 -22 -7 -30 -10 -8 -2 -15 -11
-15 -20 0 -19 7 -19 26 0 32 32 140 31 127 -1 -5 -13 25 -15 259 -14 l265 2
-5 26 c-5 24 -6 24 -13 7 -6 -19 -7 -19 -14 -2 -4 10 -1 24 6 34 12 15 12 16
-1 7 -16 -9 -60 -13 -60 -5 0 2 8 14 17 25 10 12 11 15 3 9 -23 -21 -35 -15
-15 7 10 12 25 18 33 15 12 -4 12 -2 4 8 -7 8 -9 17 -6 20 4 4 -3 4 -16 2 -16
-3 -20 0 -16 10 4 10 -2 15 -17 15 -20 1 -20 2 -4 11 13 8 22 7 33 -2 12 -10
13 -9 8 5 -4 10 -18 16 -37 16 -17 0 -27 3 -23 8 8 7 13 8 44 11 14 1 15 3 2
10 -8 6 -18 7 -24 4 -5 -4 -6 -1 -1 6 4 7 17 10 29 7 20 -5 20 -4 2 9 -10 8
-22 13 -25 10 -4 -2 -7 5 -7 16 0 13 7 19 24 19 13 0 21 4 17 10 -3 5 -12 7
-20 3 -8 -3 -15 0 -15 6 0 6 12 11 28 12 22 1 24 2 7 7 -11 4 -21 13 -23 21
-3 12 0 12 12 1 13 -10 16 -10 16 0 0 10 3 10 15 0 21 -17 19 -5 -2 16 -17 17
-17 17 3 12 22 -6 26 5 11 29 -6 9 -3 11 10 6 16 -6 17 -5 3 12 -14 17 -13 18
16 13 24 -3 31 -1 27 9 -3 7 -9 11 -13 8 -5 -3 -12 0 -16 6 -4 8 -3 9 4 5 8
-5 12 1 12 16 0 20 2 18 18 -11 30 -60 45 -62 96 -12 24 24 52 61 62 83 15 34
19 37 25 22 6 -16 8 -16 8 -3 1 10 9 16 19 15 11 0 17 6 18 19 3 56 5 65 15
65 6 0 8 -9 4 -21 -6 -19 -5 -20 8 -8 8 8 13 17 10 21 -2 5 1 16 7 25 9 14 10
14 7 2 -3 -9 -1 -22 4 -30 7 -11 9 -10 9 6 0 15 2 17 9 6 7 -11 10 -11 17 0 4
7 3 14 -4 17 -7 2 -12 8 -12 13 0 21 21 -4 37 -42 8 -21 19 -39 23 -39 8 0 -2
60 -14 78 -10 16 -36 136 -27 126 5 -5 21 -49 36 -99 36 -115 112 -275 164
-345 104 -138 257 -266 369 -305 113 -41 131 -50 135 -70 3 -13 5 -9 6 10 1
27 6 32 44 42 23 7 62 29 87 49 39 33 41 34 16 7 -15 -17 -47 -41 -70 -54 -35
-18 -42 -26 -38 -45 4 -22 9 -23 83 -22 69 0 78 2 68 15 -7 8 -21 12 -31 10
-11 -3 -18 0 -18 9 0 17 -31 18 -49 1 -11 -10 -13 -9 -7 1 4 7 25 21 46 32 21
11 42 25 46 31 5 8 3 9 -5 4 -9 -5 -9 -1 1 14 29 46 55 18 61 -64 l3 -60 2 63
2 63 38 -20 c20 -11 71 -30 112 -42 41 -12 81 -26 88 -32 9 -7 11 -6 6 7 -3 9
-1 16 5 16 17 0 74 -31 68 -37 -3 -2 -14 0 -26 6 -12 7 -22 7 -26 2 -7 -13 18
-18 93 -20 l62 -2 0 75 c0 63 -3 75 -17 79 -17 4 -17 5 0 6 19 1 25 41 6 41
-8 0 -7 6 2 17 8 10 9 14 2 10 -6 -4 -14 -3 -18 2 -3 6 -12 8 -20 4 -22 -8
-18 15 5 27 16 9 19 8 13 -6 -4 -12 -2 -15 8 -12 8 2 15 14 17 25 4 26 -26 24
-62 -4 -16 -13 -34 -19 -48 -15 -14 3 -19 1 -14 -6 4 -7 14 -12 23 -12 9 0 14
-3 10 -6 -3 -4 -19 -2 -35 4 -22 7 -33 7 -43 -1 -11 -10 -11 -9 0 5 7 10 17
16 21 13 5 -3 12 -1 15 5 4 6 14 10 23 9 31 -3 43 1 37 11 -4 6 -16 8 -28 4
-22 -7 -22 -6 -3 15 19 21 9 30 -11 10 -8 -8 -16 -8 -30 0 -16 10 -16 11 6 8
16 -1 25 4 26 15 2 9 10 31 19 49 13 26 13 29 1 19 -18 -15 -49 -5 -39 12 4 7
4 10 0 6 -5 -4 -19 4 -33 18 -15 15 -32 23 -40 20 -11 -5 -13 -2 -9 10 6 15 4
15 -11 3 -15 -12 -16 -12 -9 5 7 19 6 19 -14 1 -11 -10 -20 -13 -20 -7 0 5 -8
8 -19 5 -10 -3 -22 1 -26 8 -5 8 -4 10 4 5 6 -4 18 -2 26 4 11 10 15 10 15 1
0 -7 5 -9 11 -5 16 9 -10 24 -30 16 -13 -4 -13 -2 2 15 12 14 15 23 7 28 -6 3
-9 1 -8 -6 2 -6 -3 -14 -11 -17 -10 -3 -11 0 -5 9 7 12 5 12 -9 0 -9 -7 -14
-18 -11 -25 3 -6 0 -4 -8 5 -7 8 -22 21 -33 27 -19 11 -19 11 3 9 12 -1 22 -6
22 -11 0 -10 15 2 15 12 0 4 4 14 9 22 7 12 6 13 -5 3 -17 -17 -32 -17 -23 0
6 9 5 9 -7 0 -11 -9 -25 -9 -57 -1 l-41 10 22 19 c12 10 18 18 13 19 -5 0 -3
7 4 15 15 18 4 20 -14 2 -7 -7 -11 -18 -9 -24 3 -7 -4 -11 -16 -10 -20 1 -20
1 -1 22 24 26 26 43 3 24 -15 -12 -16 -12 -10 5 7 17 6 17 -10 5 -15 -13 -16
-12 -11 9 4 15 2 20 -5 15 -6 -4 -22 -8 -36 -9 -17 -2 -21 0 -13 8 12 12 -12
43 -26 34 -5 -3 -9 1 -9 8 0 9 7 12 16 8 13 -5 13 -3 -2 12 -9 10 -14 23 -10
29 4 7 -5 4 -20 -6 l-28 -18 7 28 c7 26 6 27 -11 13 -17 -14 -18 -13 -12 2 4
13 2 15 -10 11 -12 -5 -14 -3 -8 7 6 10 4 12 -9 7 -13 -5 -17 -3 -13 7 4 11 1
13 -10 9 -11 -4 -14 -2 -9 5 4 8 2 10 -7 6 -8 -3 -21 2 -30 10 -8 8 -18 12
-22 8 -4 -4 -4 4 -1 18 6 23 6 23 -7 8 -17 -22 -28 -23 -21 -3 4 8 2 15 -4 15
-6 0 -8 10 -5 23 5 22 5 22 -10 2 -16 -20 -16 -19 -10 4 4 17 3 22 -5 17 -8
-5 -10 -1 -5 10 4 11 3 15 -4 11 -6 -4 -14 -1 -16 5 -4 10 -6 10 -6 1 -1 -7
-6 -13 -12 -13 -6 0 -9 7 -6 14 4 10 1 13 -7 10 -8 -3 -17 0 -22 7 -5 8 -3 10
6 4 8 -5 11 -4 7 3 -4 5 -17 8 -30 5 -27 -7 -22 -2 26 31 l38 26 29 -22 c17
-12 30 -23 30 -25 0 -6 -22 7 -43 25 -9 8 -19 13 -22 11 -2 -3 18 -22 46 -43
41 -31 53 -35 61 -25 8 11 9 10 5 -3 -4 -11 11 -28 49 -57 61 -46 64 -47 64
-26 0 8 -6 12 -14 9 -8 -3 -17 0 -22 7 -5 9 -2 10 9 6 10 -4 17 -1 17 6 0 7 5
4 11 -6 6 -10 8 -24 6 -31 -4 -9 63 -64 181 -152 254 -190 323 -238 316 -221
-3 8 -1 18 5 22 6 3 11 -2 12 -12 1 -13 3 -11 9 7 4 14 8 19 9 12 1 -8 6 -10
14 -6 8 5 7 2 -2 -9 -8 -10 -11 -20 -7 -24 3 -3 6 -1 6 5 0 7 4 12 10 12 5 0
7 -7 4 -15 -4 -8 -1 -15 5 -15 6 0 11 6 11 14 0 8 7 16 15 20 8 3 15 1 15 -4
0 -6 -4 -10 -10 -10 -5 0 -10 -7 -10 -16 0 -14 2 -14 15 0 19 18 21 60 3 50
-10 -6 -10 -4 0 7 14 15 18 214 4 205 -5 -3 -18 3 -29 14 -12 10 -24 16 -27
12 -4 -3 -4 1 -1 11 6 15 9 15 22 2 8 -9 19 -12 25 -9 7 5 8 2 3 -6 -5 -9 -4
-11 3 -6 17 10 15 36 -5 59 -10 11 -12 17 -5 13 15 -9 17 10 2 19 -8 5 -7 11
1 21 9 11 9 21 1 39 -15 32 -49 24 -49 -12 0 -13 -5 -29 -9 -33 -9 -9 -154 80
-468 286 l-118 77 6 51 c3 28 6 68 6 88 l0 38 67 -43 c61 -39 99 -79 60 -64
-11 4 -14 -1 -13 -19 0 -13 5 -24 9 -24 5 0 5 -6 1 -13 -5 -7 0 -6 11 3 11 9
16 10 11 3 -4 -7 -4 -13 1 -14 4 0 18 -2 31 -3 24 -3 31 21 11 41 -8 8 -8 13
0 17 6 4 11 2 11 -4 0 -6 4 -9 9 -6 5 3 12 -1 15 -10 3 -8 10 -12 16 -9 5 3
10 1 10 -5 0 -6 5 -8 10 -5 6 4 8 10 5 14 -8 14 -246 154 -280 165 -22 8 -50
35 -85 81 -29 39 -49 67 -45 63 4 -4 17 -1 29 7 22 16 40 20 32 7 -3 -5 18 3
45 16 35 18 46 28 37 33 -7 5 -8 9 -3 9 6 0 3 4 -5 10 -8 5 -12 11 -9 14 3 3
16 -4 28 -15 21 -20 25 -20 59 -6 53 22 153 58 181 64 13 3 26 14 28 24 5 19
23 27 23 10 0 -4 16 -3 35 3 23 7 35 17 35 28 0 10 5 18 10 18 6 0 10 -4 10
-10 0 -5 4 -10 10 -10 5 0 7 7 4 15 -7 18 17 20 34 3 18 -18 33 9 25 41 -4 16
-2 22 5 17 5 -3 9 -17 8 -30 -2 -19 1 -22 16 -18 11 2 17 10 14 17 -2 6 4 18
15 26 10 7 19 20 19 27 0 8 6 12 14 9 8 -3 17 -2 20 4 2 5 3 4 1 -3 -1 -7 -7
-12 -13 -11 -5 1 -13 -4 -16 -13 -9 -25 34 -35 58 -13 10 10 23 16 27 13 15
-9 21 17 7 33 -9 12 -9 15 0 9 8 -5 12 2 12 23 0 18 -5 31 -12 31 -10 0 -10 2
0 9 14 8 14 81 0 81 -4 0 -8 -4 -8 -10 0 -5 -5 -10 -11 -10 -5 0 -8 4 -5 9 4
5 0 12 -6 15 -9 4 -8 5 2 5 36 -3 40 2 38 41 -1 22 -5 40 -10 40 -4 0 -8 5 -8
11 0 5 4 8 9 5 11 -7 9 13 -3 33 -6 9 -5 12 1 8 6 -4 10 21 10 70 0 72 -1 74
-14 48 -8 -15 -17 -24 -21 -21 -3 4 -1 11 5 17 6 6 9 18 6 25 -3 8 1 14 11 14
13 0 16 9 14 40 -1 22 -6 40 -10 40 -4 0 -8 7 -8 16 0 8 5 12 11 9 7 -5 9 13
8 54 -2 60 -12 79 -21 43 -5 -18 -38 -27 -38 -10 0 4 -5 8 -11 8 -5 0 -8 -4
-5 -9 4 -5 -3 -7 -13 -4 -11 3 -28 -4 -40 -16 -12 -12 -21 -18 -21 -15 0 4 -6
1 -14 -5 -8 -6 -18 -11 -22 -10 -5 1 -13 0 -19 -1 -5 -1 -14 -3 -20 -4 -71
-13 -86 -19 -80 -34 4 -12 3 -13 -10 -2 -12 10 -15 10 -15 -3 0 -11 -6 -13
-22 -9 -13 3 -19 1 -15 -5 4 -7 -11 -13 -38 -17 -33 -5 -45 -12 -45 -24 0 -15
-2 -15 -10 -2 -9 13 -12 13 -21 -2 -6 -12 -22 -18 -44 -18 -25 0 -35 -5 -40
-20 -3 -11 -15 -20 -26 -20 -11 0 -19 -7 -20 -17 0 -15 -2 -15 -9 2 -7 17 -9
17 -9 3 -1 -10 -9 -18 -18 -18 -14 0 -15 2 -4 9 8 5 9 11 3 15 -13 8 -42 -3
-42 -15 0 -5 -11 -9 -25 -9 -14 0 -28 -7 -31 -15 -4 -8 -12 -15 -20 -15 -8 0
-14 -4 -14 -10 0 -5 -5 -10 -11 -10 -6 0 -9 7 -6 14 4 10 1 13 -8 9 -8 -3 -13
-9 -10 -13 4 -7 -2 -10 -40 -19 -5 -2 -16 -7 -22 -13 -9 -7 -13 -7 -13 1 0 7
-9 6 -25 -5 -13 -8 -29 -13 -35 -9 -5 3 -10 -2 -10 -14 0 -16 -5 -19 -26 -15
-16 3 -23 1 -19 -6 5 -9 -22 -15 -47 -11 -5 0 -8 -5 -8 -11 0 -9 -4 -8 -10 2
-6 9 -10 11 -10 3 0 -8 -7 -10 -17 -6 -16 6 -17 5 -3 -12 14 -17 13 -18 -3 -8
-28 15 -67 5 -59 -16 5 -14 4 -14 -11 -2 -15 12 -17 12 -11 -3 8 -20 6 -20
-69 5 -52 18 -67 19 -95 9 -27 -10 -42 -8 -98 10 -35 12 -71 19 -79 16 -8 -3
-18 -20 -23 -38 -7 -27 -13 -32 -33 -30 -13 2 -25 5 -26 6 -2 2 4 23 12 48
l16 45 127 46 c70 25 258 91 417 147 160 55 364 127 455 160 91 32 258 91 373
131 114 41 207 77 207 80 0 4 -28 -3 -62 -16 -66 -25 -127 -47 -758 -268 -212
-74 -470 -166 -574 -203 l-188 -67 -25 -57 c-24 -56 -24 -56 -82 -68 -39 -8
-61 -18 -66 -30 -10 -28 -27 -303 -22 -360 3 -31 2 -50 -4 -47 -5 4 -9 -5 -9
-18 0 -19 -9 -28 -39 -40 -22 -9 -41 -24 -44 -36 -3 -12 -1 -19 4 -15 5 3 9
-6 9 -20 0 -14 3 -27 8 -29 4 -3 7 13 7 34 1 26 7 44 20 54 34 25 38 17 29
-52 -4 -38 -7 -78 -7 -91 1 -22 0 -22 -13 -5 -8 11 -13 13 -14 5 0 -18 -47 14
-53 36 -2 9 -2 2 0 -16 3 -21 0 -32 -6 -28 -5 4 -12 2 -16 -4 -4 -7 -12 -7
-24 0 -14 7 -23 4 -37 -11 -20 -22 -28 -53 -11 -42 6 4 8 0 4 -10 -3 -10 -2
-17 3 -17 6 0 10 6 10 12 0 7 7 2 16 -10 8 -12 19 -20 24 -17 5 3 12 0 16 -6
5 -9 0 -10 -14 -7 -12 4 -20 2 -17 -2 3 -5 -10 -12 -30 -16 -44 -8 -82 15 -97
57 -6 17 -12 28 -15 26 -8 -9 25 -75 44 -85 16 -10 15 -12 -16 -25 -46 -19
-81 -8 -100 31 -18 35 -31 41 -32 15 0 -11 -3 -13 -6 -5 -7 18 -27 15 -58 -10
l-27 -21 13 22 c12 18 12 23 -1 31 -13 8 -13 13 2 37 19 32 52 46 41 17 -5
-13 -3 -15 8 -8 22 14 42 14 31 1 -7 -8 -5 -16 4 -25 11 -10 14 -10 14 1 0 7
5 18 12 25 6 6 13 22 15 34 6 38 52 64 54 31 0 -14 2 -13 9 4 7 18 75 63 94
63 3 0 3 -15 1 -32 -4 -31 -4 -31 6 4 7 25 19 40 38 48 25 10 29 18 35 73 4
34 7 70 7 81 0 10 7 29 16 43 13 20 14 26 3 33 -8 5 -10 17 -6 34 5 19 2 28
-8 32 -10 4 -13 15 -9 40 4 25 2 34 -9 34 -10 0 -14 12 -13 45 1 32 -2 45 -12
45 -8 0 -13 12 -13 30 0 27 -3 30 -30 30 -28 0 -29 2 -23 30 5 26 3 29 -12 24
-14 -6 -16 -3 -10 15 7 24 2 24 -52 4 -9 -3 -13 4 -13 22 0 20 -4 26 -15 21
-31 -12 -14 36 28 77 56 55 117 142 117 167 0 10 6 23 13 27 8 4 22 30 33 57
10 28 33 72 51 98 35 50 36 83 3 53 -10 -9 -24 -15 -32 -14 -21 4 -68 -19 -68
-33 0 -7 -9 -24 -20 -38 -11 -14 -20 -34 -20 -46 0 -11 -18 -51 -41 -88 -22
-37 -45 -81 -51 -97 -5 -16 -14 -29 -19 -29 -5 0 -24 -29 -41 -65 -29 -57 -48
-80 -48 -57 0 4 -4 13 -9 21 -8 13 -12 13 -26 1 -15 -12 -18 -12 -27 3 -5 10
-14 15 -19 11 -6 -3 -13 3 -16 14 -4 19 -6 18 -31 -5 l-27 -25 -3 26 c-4 31
-6 31 -46 8 -43 -25 -60 -22 -64 11 -3 20 3 33 22 48 13 11 41 53 60 94 20 41
40 75 45 75 12 0 51 85 51 109 0 9 23 61 50 116 28 55 50 101 50 102 0 10 -30
1 -40 -12 -7 -8 -20 -15 -30 -15 -24 0 -100 -84 -100 -110 0 -26 -56 -159 -76
-181 -7 -8 -14 -21 -14 -27 0 -18 -61 -145 -86 -178 -13 -17 -20 -34 -17 -38
4 -3 -1 -6 -11 -6 -9 0 -19 7 -22 15 -5 11 -11 9 -32 -10 -33 -31 -34 -31 -54
2 l-16 28 -7 -27 c-11 -42 -30 -53 -60 -34 -23 15 -25 15 -35 -4 -6 -11 -16
-17 -25 -14 -8 4 -15 1 -15 -6 0 -9 -11 -11 -35 -7 -25 4 -35 2 -34 -6 4 -26
-14 -47 -41 -47 -16 0 -30 -6 -33 -12 -2 -7 -7 -10 -11 -7 -3 3 1 22 9 42 10
24 13 51 9 75 -4 29 -1 43 14 62 18 22 27 24 97 25 l77 0 13 38 c23 66 27 107
12 107 -7 0 -17 -4 -23 -9 -8 -9 -116 -41 -135 -41 -9 0 -5 102 4 118 5 6 23
12 42 12 27 0 34 -5 39 -25 4 -14 10 -25 14 -25 4 0 28 19 53 43 44 40 66 77
61 104 -1 6 8 35 22 65 13 29 29 70 34 91 10 36 10 37 -18 37 -36 0 -96 -60
-105 -104 -8 -42 -35 -72 -72 -80 l-32 -7 13 48 c7 27 18 58 23 68 6 11 13 32
17 48 6 25 4 27 -26 26 -18 -1 -25 -3 -15 -6 21 -5 22 -25 3 -66 -8 -18 -17
-43 -21 -57 -23 -87 -23 -91 -8 -97 8 -3 19 -1 26 6 6 6 18 11 28 11 12 0 15
-6 11 -25 -3 -18 -11 -25 -28 -25 -65 0 -88 -30 -98 -132 -7 -67 -9 -66 84
-38 36 11 71 20 78 20 15 0 16 -21 1 -53 -9 -21 -18 -24 -62 -24 -90 0 -117
-11 -134 -51 -9 -21 -17 -64 -18 -96 -1 -35 -7 -62 -13 -64 -7 -2 -12 -12 -12
-23 0 -20 -46 -56 -57 -45 -4 4 -2 15 4 26 7 10 15 42 18 72 3 29 11 77 17
106 6 28 8 55 5 59 -9 8 -87 -44 -87 -60 -1 -39 -81 -84 -93 -53 -4 9 -16 16
-28 16 l-22 0 21 23 c12 13 22 30 22 38 0 18 50 49 78 49 26 0 123 45 133 62
5 7 9 30 9 50 0 20 4 48 10 62 6 17 6 27 -1 32 -13 7 -128 -53 -149 -78 -21
-25 -57 -14 -63 20 -3 15 -4 28 -2 30 3 3 81 33 165 64 76 27 93 47 96 109 2
29 7 56 13 62 5 5 7 15 5 22 -3 6 2 18 11 25 16 13 20 30 8 30 -5 -1 -19 -10
-32 -20z m683 -84 c-4 -12 -18 -43 -31 -70 -13 -26 -25 -58 -27 -70 -3 -29
-28 -79 -43 -89 -7 -5 -29 -41 -48 -81 -34 -71 -59 -105 -71 -93 -3 3 6 31 20
63 14 31 26 65 26 75 0 11 4 19 10 19 13 0 69 124 76 171 7 41 50 96 77 96 13
0 16 -6 11 -21z m332 -180 c-20 -41 -41 -78 -46 -81 -6 -3 -10 -15 -10 -26 0
-23 -42 -86 -95 -143 -44 -47 -57 -40 -21 12 14 21 26 42 26 46 0 4 20 39 45
77 25 38 45 79 45 91 0 23 36 87 60 105 33 26 32 -8 -4 -81z m-765 -423 c-13
-47 -14 -86 -2 -78 5 3 17 30 25 60 9 30 21 57 27 61 8 4 9 -1 3 -17 -4 -13
-7 -45 -5 -71 1 -37 -1 -47 -12 -42 -9 3 -21 -12 -37 -48 -20 -45 -24 -49 -27
-28 -2 14 -6 41 -9 60 l-6 35 -19 -40 c-9 -22 -18 -55 -18 -74 -1 -27 -4 -31
-14 -22 -8 6 -20 29 -27 51 -9 27 -18 39 -27 36 -15 -6 -17 13 -7 64 l7 32 20
-43 21 -44 6 43 c4 23 14 50 23 60 16 15 17 15 17 -6 0 -34 13 -26 40 24 27
52 37 45 21 -13z m1234 31 c17 -8 22 -12 12 -9 -66 18 -67 18 -67 -8 0 -14 -3
-32 -6 -41 -3 -9 -1 -16 5 -16 6 0 11 12 12 28 l0 27 11 -25 c7 -17 12 -20 15
-11 4 10 7 10 13 2 4 -7 16 -13 28 -14 21 -1 20 -12 0 -12 -6 0 -13 -6 -16
-14 -3 -9 0 -11 8 -6 8 5 11 4 6 -3 -4 -7 -17 -8 -38 -1 -35 10 -52 5 -18 -6
18 -6 20 -12 15 -33 -4 -15 -8 -28 -10 -30 -2 -2 -22 6 -46 18 -45 23 -138 31
-192 17 -27 -7 -28 -6 -25 25 2 28 9 35 38 45 19 7 62 11 95 11 40 -1 48 -3
23 -5 -51 -6 -48 -19 3 -18 22 1 42 -3 45 -7 3 -4 10 -8 15 -8 6 0 3 10 -5 22
-19 26 -20 51 -5 79 11 21 25 20 84 -7z m482 -85 c-8 -28 3 -56 14 -38 6 10
10 9 15 -6 4 -11 14 -24 21 -30 9 -7 10 -15 3 -25 -9 -13 -11 -13 -21 0 -9 12
-10 11 -4 -5 3 -11 16 -53 28 -92 11 -40 25 -73 30 -73 4 0 5 5 1 12 -4 7 -3
8 4 4 7 -4 12 -16 12 -27 0 -11 4 -18 9 -15 12 8 41 -4 41 -16 0 -6 -7 -5 -15
2 -9 7 -19 10 -23 6 -4 -4 4 -17 18 -28 l25 -21 -25 8 c-22 7 -23 6 -11 -9 8
-9 11 -20 7 -23 -10 -11 -26 18 -26 47 0 14 -5 32 -11 40 -8 12 -10 10 -6 -10
26 -128 29 -148 18 -168 -6 -11 -11 -37 -11 -57 0 -19 -11 -87 -25 -151 -15
-69 -25 -148 -25 -195 0 -52 -5 -90 -15 -109 -18 -34 -25 -39 -18 -11 2 10 -1
24 -9 32 -7 8 -14 32 -15 54 0 22 -1 48 -2 58 -1 10 -10 17 -23 18 -17 1 -19
2 -5 6 19 5 24 33 6 33 -8 0 -7 5 1 15 11 13 10 14 -4 9 -9 -3 -16 -1 -16 5 0
6 6 11 13 12 9 0 9 2 0 5 -7 3 -10 11 -7 19 3 7 -5 21 -18 30 -16 13 -18 16
-5 11 13 -4 17 -2 14 6 -2 7 -13 12 -23 10 -15 -2 -16 -1 -4 7 8 5 18 7 22 5
4 -3 8 0 8 6 0 6 -10 15 -22 20 -21 8 -22 9 -3 10 l20 1 -20 9 c-11 5 -14 9
-8 9 8 1 12 15 10 40 -1 22 -5 37 -9 34 -14 -8 -8 11 15 49 l23 36 17 -61 c9
-34 18 -73 20 -87 3 -18 5 -16 6 10 1 34 -26 155 -49 217 -9 25 -9 37 1 55 13
23 13 23 28 -14 9 -21 22 -38 30 -38 11 0 11 3 1 15 -7 9 -10 18 -7 21 3 3 -3
26 -14 51 -23 55 -31 92 -23 117 6 18 8 17 21 -8 19 -37 52 -136 53 -158 0
-10 4 -18 9 -18 8 0 5 18 -13 95 -10 43 -30 103 -46 140 -17 40 -18 47 -5 72
8 16 15 34 15 41 0 6 3 12 6 12 4 0 4 -9 1 -21z m-647 -89 c-24 -6 -23 -7 10
-14 32 -7 33 -8 13 -16 -12 -5 -27 -19 -33 -32 -10 -21 -10 -21 3 -6 8 10 17
15 20 11 4 -3 7 0 7 7 0 9 5 7 16 -6 8 -10 12 -12 8 -4 -7 13 -6 13 10 1 9 -8
14 -21 11 -29 -5 -12 -3 -13 10 -2 9 7 13 20 10 29 -5 13 -4 13 6 4 9 -9 9
-15 0 -26 -14 -17 -4 -46 24 -69 11 -10 15 -17 8 -18 -6 0 -14 6 -16 13 -3 7
-6 7 -6 1 -1 -6 8 -19 19 -29 18 -16 18 -20 5 -52 -23 -54 9 -99 37 -53 20 31
27 23 16 -17 -14 -54 -22 -58 -48 -26 l-23 28 7 -30 c12 -51 8 -64 -38 -133
-52 -78 -81 -107 -156 -156 -82 -54 -88 -51 -92 42 -2 42 1 80 6 83 5 4 6 43
3 88 -4 53 -2 81 5 81 7 0 8 27 3 81 -5 59 -4 80 4 75 10 -7 18 69 12 132 -1
17 3 22 21 22 20 -1 21 -2 6 -11 -17 -10 -14 -39 4 -39 5 0 6 6 2 13 -5 8 -2
8 9 -2 15 -12 17 -11 18 5 0 15 2 16 7 4 11 -24 40 -21 35 4 -3 13 -2 17 4 9
6 -8 13 -9 23 -2 13 8 12 11 -3 20 -14 8 -15 14 -7 24 6 8 19 11 28 7 14 -5
12 -7 -8 -12z m-692 -128 c6 -16 21 -38 31 -49 13 -14 16 -24 9 -31 -7 -7 -3
-12 11 -17 12 -3 21 -13 21 -21 0 -8 11 -18 23 -23 13 -5 24 -16 25 -25 1 -9
3 -23 4 -31 1 -8 5 -15 10 -15 5 0 6 -16 2 -35 -4 -24 -2 -35 5 -35 7 0 9 -4
6 -10 -3 -5 6 -12 20 -16 14 -3 22 -11 18 -17 -3 -5 -1 -7 5 -4 5 4 9 15 8 25
-2 9 9 35 24 57 15 22 38 57 51 77 13 21 27 38 30 38 14 0 30 -31 35 -67 l4
-38 -12 32 c-7 17 -16 35 -20 38 -9 9 -71 -111 -78 -150 -3 -20 -14 -34 -35
-44 -16 -8 -39 -19 -50 -24 -11 -6 -72 -32 -136 -58 l-117 -47 -21 27 c-12 14
-19 19 -15 11 7 -13 6 -13 -9 -1 -22 18 -88 24 -122 11 -15 -6 -25 -6 -25 0 0
5 -18 3 -40 -5 -44 -15 -49 -8 -24 30 9 14 14 32 10 40 -4 11 3 19 19 25 34
13 31 17 -9 12 -26 -3 -33 -8 -29 -19 3 -8 0 -19 -8 -23 -16 -10 -52 7 -44 21
4 5 2 9 -4 9 -16 0 -22 -35 -12 -64 6 -14 8 -26 5 -26 -4 0 0 -8 7 -17 8 -9 9
-14 2 -10 -7 4 -14 -1 -18 -14 -5 -15 -9 -18 -15 -9 -5 9 -13 9 -27 1 -11 -5
-23 -8 -27 -6 -3 3 -4 3 -2 0 2 -3 -9 -19 -25 -35 -16 -15 -27 -34 -24 -42 2
-7 7 -30 10 -51 5 -36 3 -39 -30 -52 -19 -8 -36 -15 -38 -15 -11 0 -79 149
-73 159 4 6 11 9 16 6 5 -3 11 -1 14 4 4 5 2 12 -4 16 -6 4 -8 11 -5 16 3 5
-1 6 -9 3 -16 -6 -17 19 -1 33 4 5 5 2 0 -6 -5 -9 2 -7 18 5 15 10 25 24 22
31 -2 7 1 15 8 19 7 4 9 4 5 -1 -4 -4 0 -14 10 -22 11 -8 12 -12 3 -11 -7 2
-15 -2 -18 -9 -2 -7 4 -11 15 -10 14 1 19 7 16 22 -2 11 0 26 5 33 10 17 43
12 49 -7 3 -9 0 -11 -8 -6 -9 5 -11 4 -6 -3 10 -17 36 -15 43 4 4 12 8 11 17
-8 12 -23 56 -38 56 -19 0 17 -23 61 -32 61 -4 0 -8 -12 -9 -27 -1 -20 -4 -16
-10 16 -7 34 -5 52 10 84 12 26 20 35 24 26 4 -8 5 -1 4 15 -1 16 3 31 9 33 7
2 10 -6 7 -22 -3 -14 -1 -25 6 -25 5 0 8 6 5 14 -3 8 3 16 15 19 12 3 21 1 21
-3 0 -5 14 -11 30 -15 17 -4 30 -11 30 -15 0 -5 6 -7 14 -4 8 3 17 0 22 -7 5
-8 3 -10 -6 -4 -9 5 -11 4 -6 -3 4 -7 14 -12 22 -12 8 0 12 -4 9 -10 -3 -5 -3
-10 2 -10 13 0 30 14 36 30 3 10 6 7 6 -8 1 -13 5 -20 11 -17 6 3 7 -1 4 -9
-5 -12 0 -16 19 -16 14 0 29 -5 33 -12 5 -7 2 -9 -7 -4 -8 4 -5 0 5 -8 25 -20
30 -20 47 1 8 9 9 14 4 11 -6 -4 -15 9 -21 28 -6 19 -7 34 -2 34 5 0 6 5 3 10
-3 6 -2 10 4 10 17 0 68 49 74 70 5 19 3 18 -24 -4 -46 -39 -143 -59 -177 -37
-11 6 -10 16 3 49 15 37 22 43 71 57 60 17 100 12 115 -16 11 -22 44 -26 36
-6 -3 8 -1 20 3 27 9 15 -15 45 -29 36 -5 -3 -11 1 -15 9 -3 8 -2 14 2 13 4
-2 18 5 32 14 21 14 25 24 23 58 -2 47 7 51 25 12z m1501 -298 c3 -25 4 -26
11 -9 6 17 10 15 37 -22 29 -40 30 -45 25 -120 -2 -43 -6 -80 -7 -81 -2 -2
-17 6 -34 19 -29 21 -31 27 -32 88 -2 71 -4 63 -14 -42 -5 -53 -11 -69 -27
-78 -15 -8 -19 -8 -14 0 4 6 2 11 -5 11 -8 0 -8 4 1 15 7 8 9 15 5 15 -4 0 -3
6 3 13 23 27 34 156 17 204 -2 6 -1 14 3 17 12 13 27 -1 31 -30z m-389 -14 c8
-5 10 -10 4 -10 -6 0 -11 -7 -11 -15 0 -8 6 -15 14 -15 7 0 12 -3 12 -7 -4
-22 3 -33 19 -33 10 0 3 -7 -17 -17 -19 -9 -28 -19 -21 -21 9 -3 9 -6 -1 -13
-10 -6 -7 -9 11 -10 14 0 19 -3 13 -6 -7 -2 -13 -9 -13 -14 0 -6 8 -6 19 1 32
17 38 11 11 -10 -14 -11 -19 -20 -12 -20 17 0 15 -20 -2 -20 -8 0 -18 -4 -21
-10 -4 -7 3 -7 20 0 34 13 58 13 50 0 -4 -6 -11 -8 -16 -5 -5 4 -12 -1 -15 -9
-3 -9 -12 -16 -19 -16 -7 0 -18 -7 -25 -15 -10 -12 -9 -15 4 -15 10 0 15 -4
11 -9 -3 -6 1 -16 8 -23 12 -11 12 -15 -2 -25 -15 -12 -15 -13 1 -7 9 3 25 0
35 -6 16 -10 16 -11 1 -6 -10 3 -20 1 -23 -4 -4 -6 -3 -10 2 -11 55 -6 104 -5
109 2 3 5 11 9 17 9 7 0 3 -7 -8 -16 -11 -8 -29 -13 -40 -10 -12 3 -34 1 -50
-3 l-30 -9 30 -2 30 -3 -35 -7 c-25 -5 -28 -8 -12 -9 15 0 26 -9 29 -21 5 -20
15 -24 43 -20 8 1 12 -1 8 -6 -4 -4 -3 -13 3 -21 16 -19 5 -16 -49 11 -58 30
-96 70 -111 116 -6 20 -10 94 -9 170 0 74 -2 150 -6 168 -6 27 -5 32 11 32 10
0 25 -5 33 -10z m-210 -70 c6 0 9 4 6 9 -12 19 41 20 79 1 30 -15 41 -17 48
-7 6 9 8 8 5 -2 -8 -30 -35 -36 -79 -16 l-42 19 -16 -24 c-9 -13 -35 -46 -58
-74 -23 -27 -40 -53 -37 -58 3 -5 1 -7 -4 -6 -6 2 -34 -15 -63 -36 -29 -21
-90 -56 -136 -78 -51 -24 -81 -43 -77 -50 5 -7 2 -8 -6 -3 -9 6 -11 22 -5 59
3 28 7 56 7 62 1 6 11 9 22 7 46 -9 188 99 262 199 l35 46 24 -24 c13 -13 29
-24 35 -24z m151 -150 c-6 -30 -9 -64 -7 -75 2 -11 6 -41 10 -67 9 -59 25 -75
114 -118 39 -19 71 -39 69 -44 -2 -6 -59 -30 -128 -53 -149 -53 -327 -120
-352 -134 -10 -5 -22 -7 -27 -4 -4 3 -10 1 -12 -4 -1 -4 -13 -11 -24 -15 -24
-7 -33 6 -40 64 -3 19 -7 43 -10 53 -3 10 0 25 8 34 9 12 9 15 1 9 -9 -5 -13
2 -14 26 -1 18 -3 42 -5 53 -14 91 -14 87 7 82 11 -3 17 -1 13 5 -4 6 -1 9 6
6 7 -2 23 5 35 16 12 12 48 39 80 61 32 22 76 60 99 84 76 83 108 111 117 105
5 -3 9 -1 9 3 0 5 12 14 28 19 25 9 27 8 30 -21 2 -16 -1 -55 -7 -85z m-1029
30 c-3 -38 0 -57 17 -85 l21 -36 -24 -9 c-51 -19 -91 -12 -99 18 -4 15 -5 15
-6 1 0 -9 6 -22 15 -30 13 -11 10 -15 -28 -29 -48 -18 -97 -8 -78 15 7 9 6 16
-5 25 -19 16 -19 37 0 73 9 19 10 25 2 21 -8 -5 -9 -4 -2 4 6 5 27 17 48 26
36 15 37 14 38 -7 2 -21 2 -21 6 1 3 16 18 30 46 43 23 10 45 19 48 19 3 0 4
-22 1 -50z m394 -47 c11 -36 69 -143 77 -143 5 0 7 -6 4 -12 -8 -25 19 -67 62
-98 37 -27 42 -35 37 -58 l-6 -27 13 24 c13 22 14 21 21 -36 8 -68 -6 -113
-34 -113 -20 0 -34 -39 -20 -56 7 -7 5 -25 -4 -51 -43 -123 -139 -257 -272
-382 -92 -85 -159 -125 -268 -156 -63 -18 -76 -14 -76 30 0 26 108 89 130 75
8 -5 18 -6 22 -4 4 3 8 -1 8 -8 1 -8 4 -7 10 4 14 24 2 52 -16 37 -9 -7 -14
-8 -14 -1 0 16 69 86 77 78 4 -4 1 -12 -7 -17 -12 -9 -12 -10 3 -5 9 3 17 1
17 -4 0 -6 -10 -10 -22 -11 -21 0 -22 -1 -4 -8 19 -7 19 -8 -2 -13 -12 -4 -22
-12 -22 -18 0 -8 7 -9 18 -5 9 4 23 8 30 8 7 0 11 6 8 13 -3 8 0 11 10 7 10
-4 21 11 38 50 14 30 29 57 33 58 5 2 18 17 31 33 19 25 60 63 156 144 14 12
31 22 36 22 6 0 10 7 10 15 0 8 4 15 10 15 10 0 60 69 60 83 0 4 -33 -26 -72
-66 -93 -94 -195 -187 -207 -187 -14 0 -7 40 9 51 11 8 9 9 -10 3 l-25 -7 20
23 20 23 -23 -8 c-22 -6 -23 -5 -12 15 10 18 9 21 -1 15 -8 -6 -11 -4 -7 6 17
45 20 61 9 55 -14 -9 -14 0 0 26 8 15 8 19 0 14 -12 -8 -10 74 3 109 7 16 6
17 -4 5 -9 -12 -10 -8 -5 18 4 20 3 32 -4 32 -6 0 -11 9 -11 21 0 11 -4 18 -8
15 -4 -2 -8 11 -8 30 0 20 -6 39 -13 44 -8 4 -11 12 -7 18 3 6 2 12 -4 14 -6
2 -2 35 10 83 11 44 20 92 20 108 0 20 5 27 19 27 10 0 24 7 31 15 7 8 16 12
21 9 5 -3 9 -1 9 4 0 9 51 29 78 31 7 1 15 -7 18 -16z m-213 -80 c5 -28 -11
-54 -133 -208 -67 -86 -87 -103 -123 -111 -15 -4 -30 -11 -33 -15 -3 -5 -14
-9 -25 -9 -10 0 -19 -5 -19 -11 0 -6 -7 -8 -16 -5 -9 4 -13 2 -8 -5 4 -8 -1
-9 -16 -4 -17 5 -21 4 -15 -5 5 -9 4 -11 -4 -6 -6 4 -26 3 -44 -3 -17 -5 -50
-12 -72 -14 -22 -3 -47 -8 -56 -11 -11 -5 -23 4 -40 28 -25 37 -52 34 -42 -5
17 -62 -85 81 -115 161 -3 7 53 24 82 25 7 0 13 -33 19 -122 1 -18 4 -33 7
-33 12 0 57 60 49 66 -18 11 -9 53 14 67 12 8 56 20 97 27 41 6 88 16 103 21
17 5 25 5 22 -1 -4 -6 6 -10 20 -10 18 0 25 4 22 13 -3 7 3 13 13 13 10 0 16
-4 14 -8 -3 -4 0 -8 5 -8 6 0 10 -4 8 -9 -1 -5 2 -9 7 -9 5 0 13 -6 17 -14 5
-7 9 -8 10 -3 0 6 2 23 4 39 2 16 -3 38 -11 50 -7 11 -14 30 -14 42 0 18 13
25 88 48 48 15 105 33 127 41 54 18 52 19 58 -12z m-706 -66 c6 -13 8 -30 3
-37 -8 -13 -2 -48 11 -66 6 -7 -4 -15 -28 -22 -20 -6 -39 -9 -42 -7 -2 3 2 5
10 5 11 0 11 2 -1 10 -12 8 -13 13 -3 29 9 14 9 22 2 27 -6 3 -14 16 -19 28
-8 19 -9 18 -11 -9 -1 -16 -2 -35 -2 -40 0 -6 -7 -11 -16 -12 -9 0 -26 -3 -39
-6 -15 -4 -25 -1 -29 10 -7 19 9 68 22 68 6 1 20 7 33 14 13 7 29 10 36 8 6
-3 20 1 31 9 25 19 30 18 42 -9z m-174 -84 c3 -31 12 -53 26 -64 21 -17 21
-17 -16 -30 -30 -10 -38 -9 -47 3 -6 8 -15 15 -21 16 -5 1 -12 8 -13 18 -3 11
0 14 9 9 8 -5 10 -4 5 3 -4 7 -11 12 -17 12 -16 0 -10 -36 11 -63 l21 -26 -37
3 c-20 2 -40 10 -45 17 -9 14 -13 109 -5 109 2 0 11 3 20 6 12 5 16 0 17 -17
1 -24 1 -24 10 2 9 24 39 47 65 48 6 1 14 -20 17 -46z m901 -143 c15 -41 20
-370 5 -370 -5 0 -9 -5 -9 -11 0 -5 5 -7 10 -4 16 10 12 -7 -7 -27 -9 -11 -11
-18 -5 -18 7 0 12 5 12 10 0 6 6 6 13 -2 16 -14 11 -48 -7 -45 -6 1 -10 -5 -8
-14 1 -9 -4 -21 -11 -27 -10 -9 -13 -5 -12 14 0 14 9 32 19 40 11 8 16 14 11
14 -5 0 -17 -8 -28 -18 -14 -12 -21 -13 -24 -5 -2 6 -18 30 -34 52 -16 23 -36
63 -45 89 -9 26 -23 55 -31 64 -8 9 -12 22 -8 27 6 11 -7 15 -32 12 -7 -1 -11
4 -9 11 1 7 1 10 -1 5 -3 -4 -9 -5 -14 -1 -9 5 -13 -9 -10 -35 2 -8 -2 -10
-10 -5 -9 5 -10 2 -5 -12 5 -10 11 -27 13 -36 3 -10 9 -18 14 -18 5 0 9 -5 9
-10 0 -6 10 -21 21 -33 12 -12 30 -35 40 -52 10 -16 19 -25 19 -18 0 6 -20 41
-45 77 -24 36 -40 68 -35 71 6 3 10 11 10 18 0 6 -7 2 -15 -9 -16 -21 -21 -8
-6 15 8 12 15 9 40 -15 17 -16 31 -32 31 -35 0 -4 12 -33 27 -65 15 -33 28
-68 29 -79 2 -11 0 -14 -2 -7 -3 6 -12 12 -20 12 -12 0 -12 -4 -4 -20 6 -10
16 -17 24 -14 8 3 12 -2 11 -13 -3 -21 -23 -72 -24 -59 -1 5 -9 2 -18 -5 -15
-12 -16 -12 -10 5 5 14 3 17 -8 12 -10 -3 -17 3 -21 19 -3 14 -9 23 -13 21 -4
-3 -13 9 -20 26 -15 34 -103 128 -119 128 -25 0 -19 -19 8 -30 32 -13 57 -39
27 -27 -26 10 -20 -1 11 -18 16 -10 19 -14 7 -11 l-20 6 20 -15 c11 -9 29 -23
40 -31 l20 -15 -20 6 c-16 5 -18 4 -7 -6 6 -7 12 -17 12 -22 0 -4 -6 -5 -12
-2 -7 4 -5 0 5 -8 9 -8 17 -19 17 -26 0 -6 4 -11 10 -11 5 0 7 -6 4 -14 -3 -9
3 -17 15 -21 31 -9 26 -21 -16 -38 -29 -11 -41 -12 -52 -3 -11 8 -13 8 -8 -1
4 -6 2 -15 -4 -19 -8 -4 -9 -3 -5 4 4 7 2 12 -5 12 -7 0 -4 7 7 15 16 13 17
16 4 25 -8 5 -12 10 -8 10 3 0 -6 13 -20 30 -19 22 -28 26 -35 17 -5 -7 -6 -4
-2 9 4 16 -6 35 -43 75 -49 55 -182 244 -182 261 0 9 65 -16 87 -33 7 -6 13
-8 13 -4 0 4 -8 14 -17 20 -15 11 -11 12 24 6 27 -5 52 -4 71 5 17 7 33 10 36
7 3 -4 6 -1 6 6 0 7 4 10 9 6 14 -8 24 13 14 28 -4 7 5 -1 20 -18 16 -16 26
-24 22 -17 -3 6 -1 12 5 12 7 0 9 12 5 33 -4 22 -1 38 10 52 10 12 15 14 12 5
-3 -8 -8 -24 -12 -35 -3 -11 3 -4 14 15 22 38 27 36 11 -5 -7 -17 -7 -24 0
-20 6 3 10 14 10 23 0 13 2 14 9 4 7 -11 9 -10 14 3 4 9 3 13 -3 10 -6 -3 -10
-1 -10 4 0 6 6 11 14 11 10 0 12 7 9 23 -5 22 -5 22 11 2 10 -11 15 -14 11 -7
-3 6 0 12 7 12 13 0 21 14 75 118 l28 54 13 -49 c7 -26 19 -64 26 -83z m1074
39 c2 -5 10 -9 18 -9 8 0 14 -4 14 -9 0 -20 -19 -20 -44 0 -45 35 -29 13 31
-43 116 -109 112 -103 93 -153 -6 -15 -15 -23 -21 -19 -8 4 -9 -1 -5 -17 3
-13 3 -18 0 -11 -4 8 -10 10 -17 3 -18 -14 -29 -14 -38 1 -6 10 -9 8 -9 -7 0
-11 5 -27 10 -35 8 -12 10 -12 10 -1 0 8 3 12 6 8 3 -3 3 -10 -1 -16 -9 -16
-45 5 -45 27 0 15 -2 15 -10 2 -8 -12 -10 -12 -10 5 -1 18 -2 18 -11 -3 -6
-16 -5 -31 3 -45 7 -12 11 -28 10 -34 -2 -7 3 -13 10 -14 7 0 4 -4 -7 -9 -12
-5 -14 -9 -6 -9 11 -1 10 -5 -5 -16 -11 -8 -14 -15 -6 -15 6 0 12 -4 12 -9 0
-6 -10 -8 -22 -6 -22 4 -22 4 -4 -10 19 -15 19 -15 -2 -15 -14 0 -27 9 -34 26
-10 22 -10 28 5 39 24 17 22 20 -24 34 -43 13 -58 33 -40 55 8 9 8 17 2 20 -5
3 -12 0 -14 -6 -3 -7 -4 2 -2 21 l3 35 -18 -24 -18 -24 4 30 c3 23 2 25 -4 9
-9 -19 -9 -19 -21 4 -7 13 -11 32 -8 42 3 10 1 19 -4 19 -5 0 -5 10 -1 23 11
29 4 57 -14 57 -8 0 -14 6 -14 13 0 27 27 48 94 72 38 14 72 28 75 31 8 8 75
-6 79 -17z m67 -60 c-4 -5 -2 -9 4 -9 5 0 26 -16 47 -35 20 -19 43 -35 50 -35
9 0 11 -6 7 -17 -6 -16 -5 -16 10 -4 15 12 17 12 11 -3 -4 -10 0 -18 10 -22 9
-3 13 -10 10 -15 -3 -5 0 -9 5 -9 6 0 21 -11 33 -25 12 -14 29 -25 37 -25 14
0 14 1 1 10 -8 5 -10 10 -5 10 6 0 17 -5 25 -10 10 -6 11 -10 3 -10 -7 0 -13
-4 -13 -10 0 -5 7 -10 16 -10 8 0 12 -5 9 -11 -8 -13 23 -38 48 -39 10 0 15
-5 12 -11 -4 -6 2 -13 14 -16 11 -3 18 -9 15 -14 -3 -5 2 -9 10 -9 8 0 18 -4
21 -10 3 -6 -1 -7 -12 -4 -17 5 -17 5 0 -6 10 -6 25 -9 34 -6 14 6 14 4 2 -10
-12 -15 -11 -16 11 -11 14 4 19 4 13 1 -21 -9 -15 -24 13 -34 14 -6 23 -14 19
-19 -3 -5 4 -12 15 -16 11 -4 18 -11 15 -16 -4 -5 6 -14 20 -19 33 -13 48 -13
40 0 -4 6 1 7 11 3 15 -6 15 -7 -1 -15 -9 -5 -23 -7 -31 -4 -9 4 -12 2 -8 -5
15 -26 -19 0 -83 61 -37 36 -140 131 -228 211 -251 229 -256 234 -249 241 10
10 46 -11 39 -23z m-748 -146 c-8 -15 -22 -53 -32 -83 -10 -30 -25 -66 -33
-78 -13 -20 -13 -25 -1 -34 11 -8 11 -9 -2 -5 -20 7 -64 -37 -54 -53 3 -6 3
-9 -2 -8 -5 2 -26 -16 -47 -39 -21 -24 -35 -43 -32 -43 4 0 1 -6 -6 -14 -7 -8
-17 -13 -23 -13 -5 1 -9 -5 -10 -13 0 -22 -168 -145 -260 -191 -96 -47 -145
-59 -145 -35 0 9 8 16 20 16 10 0 41 7 67 16 111 37 157 68 274 184 125 125
172 193 249 363 29 63 46 91 48 78 2 -11 -3 -32 -11 -48z m179 22 c0 -24 -2
-31 -9 -23 -6 9 -7 4 -4 -14 2 -15 1 -25 -3 -23 -4 3 -15 -22 -24 -54 -9 -32
-30 -77 -47 -101 -39 -54 -31 -63 11 -13 18 21 28 29 22 18 -11 -22 -59 -70
-70 -70 -4 0 -6 -3 -5 -7 5 -15 -11 -8 -34 14 -31 29 -30 84 2 185 l25 78 62
21 c35 12 65 22 68 22 3 1 5 -14 6 -33z m849 -180 c55 -53 93 -93 85 -89 -12
6 -13 4 -2 -7 14 -15 17 -33 4 -25 -5 3 -8 -8 -7 -24 1 -16 -3 -28 -9 -27 -6
1 -10 -4 -8 -12 5 -21 -7 -43 -18 -36 -8 5 -7 11 1 21 7 9 8 14 1 14 -6 0 -14
-5 -17 -10 -3 -6 -12 -10 -18 -10 -7 1 -2 9 11 19 12 11 22 23 22 27 0 4 -8 0
-17 -8 -34 -29 -48 -31 -23 -3 27 30 15 26 -36 -12 -44 -33 -54 -28 -16 7 18
17 37 30 43 30 5 0 9 5 9 11 0 6 -14 0 -31 -12 -26 -18 -33 -19 -40 -8 -11 17
-11 29 -1 29 4 0 13 10 21 22 l13 21 -27 -21 c-15 -12 -34 -22 -43 -22 -8 0 2
13 23 30 21 17 33 30 27 30 -6 0 -14 -4 -17 -10 -3 -5 -14 -14 -24 -19 -16 -9
-17 -7 -7 24 7 22 13 30 18 22 5 -7 7 -3 5 10 -4 27 -17 43 -17 21 0 -19 -52
-56 -57 -41 -2 6 -10 18 -17 28 -11 15 -11 21 2 36 8 10 16 30 18 46 2 16 0
22 -5 15 -4 -6 -16 -19 -27 -28 -16 -13 -16 -15 -1 -10 23 7 21 -5 -6 -30 -37
-34 -51 -40 -38 -16 6 12 15 24 21 27 5 3 7 12 4 20 -3 7 3 18 14 24 11 6 23
26 26 46 l7 36 27 -20 c15 -11 72 -63 127 -116z m-285 -48 c0 -13 -8 -32 -17
-43 -23 -26 -47 -68 -35 -60 12 7 23 -18 14 -31 -4 -5 9 8 28 29 41 44 60 50
32 11 -27 -40 -34 -53 -28 -53 12 0 56 77 53 91 -2 8 -2 11 0 7 3 -5 11 -8 19
-8 11 0 8 -10 -11 -37 -14 -21 -25 -41 -25 -44 0 -15 33 -1 49 19 l16 22 3
-25 c1 -14 3 -36 5 -49 1 -13 5 -22 10 -19 4 2 7 -4 7 -14 1 -11 6 -7 14 13
17 39 38 48 59 24 14 -17 13 -20 -17 -49 -28 -27 -36 -30 -61 -22 -81 24 -191
93 -180 111 3 6 -1 10 -9 10 -18 0 -21 16 -6 25 6 4 10 12 9 18 -1 7 -1 21 1
32 l1 20 8 -20 c8 -19 8 -19 15 3 4 12 11 22 16 22 5 0 12 9 15 20 8 27 15 25
15 -3z"/>
<path d="M1644 1858 c-3 -4 -10 -6 -15 -3 -13 8 -11 2 6 -31 12 -24 15 -25 15
-9 1 19 1 19 14 2 16 -21 29 -8 20 20 -5 17 -5 17 6 0 6 -10 9 -24 6 -32 -7
-18 24 -8 42 13 11 14 12 14 12 0 0 -9 -8 -19 -17 -23 -10 -3 -38 -23 -63 -44
l-45 -39 0 -127 c0 -114 2 -128 19 -141 37 -26 137 -11 151 24 16 37 25 102
30 199 4 91 2 104 -14 115 -10 7 -23 24 -30 38 -11 24 -11 24 3 6 14 -17 16
-18 16 -3 0 17 -3 19 -37 21 -10 0 -24 6 -31 13 -14 14 -80 15 -88 1z"/>
<path d="M1371 1230 c-1 -8 6 -40 14 -70 29 -102 53 -235 50 -275 -1 -22 1
-44 3 -49 6 -11 9 -25 18 -98 7 -54 15 -60 32 -22 7 14 8 23 2 19 -14 -9 -12
19 3 34 10 10 8 11 -8 5 -18 -6 -17 -4 5 20 21 24 26 25 29 10 2 -13 5 -14 11
-3 5 7 12 10 16 6 4 -3 1 -15 -7 -24 -11 -14 -8 -14 10 2 l24 20 -13 -25 c-12
-22 -12 -24 2 -12 11 9 17 9 20 2 2 -6 9 3 15 20 11 29 10 30 -4 18 -15 -11
-16 -11 -10 6 7 17 6 17 -10 5 -15 -12 -16 -12 -10 4 6 15 -3 22 -25 18 -5 0
-8 3 -8 9 0 5 -7 6 -17 3 -9 -4 -14 -2 -10 3 3 6 -3 15 -14 22 -16 10 -19 9
-20 -5 -2 -22 -21 72 -23 110 0 15 -4 27 -8 27 -4 0 -5 12 -4 28 2 15 -1 30
-6 33 -4 3 -11 21 -13 40 -5 38 -44 142 -44 119z"/>
<path d="M756 2775 c-9 -13 -16 -29 -16 -34 0 -5 -11 -32 -25 -59 -14 -28 -25
-63 -25 -80 0 -16 -7 -46 -15 -65 -8 -20 -15 -39 -15 -42 0 -3 7 -5 15 -5 8 0
15 4 15 9 0 5 9 13 20 16 11 3 23 17 26 31 4 13 23 50 43 82 32 50 81 150 81
166 0 3 -20 6 -44 6 -35 0 -47 -5 -60 -25z"/>
<path d="M913 2713 c-23 -18 -64 -86 -61 -100 3 -14 -14 -67 -28 -89 -22 -37
-52 -132 -44 -141 4 -4 10 -16 12 -26 2 -14 14 -7 56 34 43 44 52 58 52 88 0
23 11 52 30 81 16 25 30 49 30 53 0 5 7 24 16 42 9 19 14 42 12 52 -4 24 -47
28 -75 6z m51 -12 c7 -10 -13 -63 -53 -141 -16 -30 -31 -71 -35 -91 -4 -23
-16 -43 -35 -57 -49 -36 -47 7 5 114 21 43 29 69 33 116 1 10 61 68 71 68 5 0
11 -4 14 -9z"/>
<path d="M1263 2547 c-11 -12 -28 -44 -38 -70 -10 -26 -22 -50 -26 -53 -5 -3
-9 -17 -9 -32 0 -15 -9 -46 -20 -69 -10 -24 -17 -43 -14 -43 14 0 124 122 124
137 0 10 9 32 19 49 11 18 21 47 23 64 2 27 -1 33 -18 36 -12 2 -29 -6 -41
-19z"/>
<path d="M2202 313 c8 -10 18 -26 21 -35 4 -10 11 -18 17 -18 5 0 10 -9 10
-19 0 -11 4 -23 10 -26 6 -4 7 1 3 12 -3 10 18 -6 48 -34 30 -29 65 -60 78
-70 23 -15 23 -17 6 -30 -18 -13 -18 -13 1 -14 18 0 18 -1 -1 -9 -18 -8 -18
-9 5 -9 20 -1 22 -3 10 -11 -13 -8 -12 -10 3 -10 10 0 15 -5 12 -10 -8 -13 8
-13 22 1 7 7 13 8 17 0 4 -6 -3 -13 -16 -15 -13 -3 -32 -7 -43 -9 -11 -3 45
-5 124 -6 126 -1 142 1 131 14 -7 8 -20 15 -29 15 -32 0 -127 43 -196 88 -38
25 -108 83 -155 129 -79 77 -113 106 -78 66z"/>
<path d="M2184 143 c2 -9 8 -19 14 -21 7 -2 12 -8 12 -13 0 -5 -12 -2 -26 8
-14 9 -36 17 -49 18 -22 1 -22 0 -6 -22 9 -12 25 -25 35 -29 19 -6 18 -7 -3
-18 -12 -7 -19 -15 -15 -18 3 -4 -4 -4 -17 -1 l-23 6 25 9 c22 9 23 10 7 22
-10 7 -15 16 -11 20 4 4 0 4 -10 0 -9 -3 -14 -10 -11 -15 3 -5 -2 -9 -11 -9
-9 0 -14 4 -11 8 2 4 -4 9 -15 9 -11 1 -19 -5 -19 -14 0 -10 -6 -13 -17 -8
-15 5 -16 4 -5 -6 22 -23 13 -32 -14 -14 -25 16 -25 16 -16 -1 11 -19 -6 -44
-29 -44 -7 0 -10 -3 -6 -6 3 -4 31 4 61 16 l54 23 120 -23 c66 -12 126 -20
133 -18 8 3 -26 12 -75 21 -49 9 -91 19 -94 22 -12 12 8 16 27 5 15 -8 21 -8
21 0 0 7 9 9 23 5 19 -5 20 -4 5 5 -10 6 -18 20 -18 31 0 11 5 17 10 14 6 -4
8 -10 5 -15 -3 -4 2 -10 10 -13 11 -5 12 -1 5 19 -13 34 -14 34 20 24 19 -5
28 -5 25 1 -4 5 -15 9 -25 9 -10 0 -22 5 -25 10 -4 6 -14 10 -23 8 -10 -1 -22
1 -29 5 -7 4 -10 1 -9 -10z"/>
</g>
</svg>
