<?xml version="1.0" standalone="no"?>
<!DOCTYPE svg PUBLIC "-//W3C//DTD SVG 20010904//EN"
 "http://www.w3.org/TR/2001/REC-SVG-20010904/DTD/svg10.dtd">
<svg version="1.0" xmlns="http://www.w3.org/2000/svg"
 width="728.000000pt" height="454.000000pt" viewBox="0 0 728.000000 454.000000"
 preserveAspectRatio="xMidYMid meet">

<g transform="translate(0.000000,454.000000) scale(0.100000,-0.100000)"
fill="#000000" stroke="none">
<path d="M236 4460 c8 -93 3 -111 -25 -103 -18 4 -21 13 -21 54 0 26 -4 51
-10 54 -6 4 -10 -12 -10 -41 l0 -46 -32 6 c-18 4 -57 9 -86 12 l-52 5 0 -40
c0 -29 5 -41 18 -44 16 -4 16 -5 -1 -6 -15 -1 -17 -11 -15 -88 1 -49 7 -91 13
-95 6 -5 5 -8 -2 -8 -18 0 -18 -306 -1 -313 10 -4 10 -6 1 -6 -10 -1 -13 -202
-13 -970 l0 -969 67 -7 c38 -4 82 -13 98 -20 27 -12 169 -54 287 -85 27 -7 48
-17 48 -21 0 -5 10 -9 23 -9 12 0 28 -4 36 -9 21 -13 -44 -41 -97 -41 -25 0
-62 -5 -84 -12 -34 -10 -41 -9 -56 8 -11 11 -52 27 -98 37 -43 11 -88 24 -99
30 -11 6 -31 11 -45 12 -14 2 -37 6 -52 10 l-28 7 0 -326 0 -326 36 15 c28 12
40 12 51 4 11 -10 10 -14 -7 -26 -24 -17 -26 -30 -3 -35 13 -2 10 -6 -10 -15
-23 -11 -27 -10 -27 2 0 8 -9 15 -20 15 -20 0 -20 -7 -20 -321 l0 -321 23 6
c77 23 177 17 177 -10 0 -8 5 -14 11 -14 6 0 8 -9 4 -20 -5 -15 -2 -20 12 -21
18 -1 -18 -11 -87 -23 l-35 -6 30 11 c44 17 58 30 46 42 -7 7 -18 4 -33 -9
-32 -28 -72 -44 -97 -37 -43 11 -50 -18 -51 -190 l0 -157 114 1 c80 1 120 5
133 15 12 9 13 13 5 14 -24 0 14 30 48 37 19 3 27 9 20 13 -8 5 -7 9 5 14 26
10 39 -5 17 -20 -11 -7 -22 -27 -24 -44 -4 -26 -1 -30 18 -30 20 0 23 4 18 28
-8 37 1 43 123 86 56 19 116 42 132 50 19 10 56 16 101 16 40 0 70 4 70 10 0
10 -31 14 -75 11 -19 -2 -19 -1 -2 13 14 11 26 11 57 4 22 -6 37 -14 34 -19
-3 -5 1 -6 9 -4 20 8 67 -33 83 -72 8 -18 15 -33 17 -33 10 1 80 29 72 30 -5
0 6 10 25 23 l35 22 -30 6 c-26 5 -24 6 23 13 28 4 50 12 47 16 -3 5 8 14 25
22 40 17 38 28 -5 21 -19 -3 -42 -2 -52 1 -17 7 -17 8 1 22 14 10 16 14 5 14
-35 0 -59 -13 -59 -32 0 -15 -5 -19 -20 -15 -28 7 -25 0 7 -17 16 -8 24 -16
18 -16 -9 -1 -46 -6 -100 -12 -33 -5 -28 25 15 82 38 50 93 89 131 90 8 0 19
4 25 10 10 10 139 60 156 60 12 0 2 -15 -10 -15 -4 -1 -25 -12 -47 -26 -52
-32 -91 -49 -115 -49 -11 0 -19 -6 -17 -12 1 -7 -8 -14 -20 -16 -13 -2 -23 -7
-23 -12 0 -5 14 -4 31 2 22 8 34 7 42 -1 6 -6 21 -11 34 -11 13 0 23 -4 23
-10 0 -5 19 -9 43 -9 33 2 36 3 12 6 -36 5 -58 23 -28 23 11 0 29 12 39 26 15
20 25 24 47 20 15 -3 27 -1 27 4 0 6 -9 10 -21 10 -11 0 -17 4 -14 10 3 5 23
9 44 8 l39 -1 -51 -99 c-33 -63 -57 -98 -67 -97 -27 2 -43 -1 -37 -8 10 -9
-61 -33 -100 -33 -17 0 -35 -5 -38 -11 -5 -7 5 -8 29 -4 39 8 53 -12 16 -22
-11 -3 -20 -12 -20 -19 0 -10 -13 -14 -44 -14 -25 0 -48 -4 -51 -10 -3 -5 -2
-10 3 -10 5 0 15 -11 22 -25 l13 -25 913 0 c721 0 913 3 917 12 4 10 6 10 6 1
1 -10 43 -13 176 -13 146 0 175 2 175 14 0 8 5 18 11 22 8 4 9 0 4 -15 -6 -21
-6 -21 219 -21 144 0 226 4 226 10 0 6 16 10 36 10 21 0 33 -4 29 -10 -4 -7
70 -10 214 -10 122 0 221 4 221 9 0 9 135 144 168 167 12 8 31 16 42 17 11 1
20 6 20 13 0 6 9 19 19 28 25 23 36 5 22 -37 -11 -32 -51 -69 -51 -46 0 8 -4
8 -14 0 -13 -11 -56 -121 -56 -143 0 -5 182 -8 405 -8 247 0 405 4 405 10 0 5
-13 16 -29 24 -16 9 -31 23 -35 32 -5 13 -9 14 -21 4 -12 -10 -15 -10 -15 0 0
9 -4 9 -16 -1 -15 -12 -16 -11 -8 11 5 14 9 54 8 90 0 54 -5 72 -27 104 -40
58 -87 86 -141 86 -26 0 -46 4 -46 8 0 15 -90 52 -128 52 -20 0 -43 4 -51 9
-13 8 13 16 84 24 17 2 38 7 48 12 13 5 16 3 12 -7 -9 -24 79 -47 192 -51 94
-4 105 -6 124 -28 12 -14 16 -25 9 -27 -8 -3 -8 -8 1 -18 13 -16 45 -19 53 -5
3 5 15 7 27 4 12 -3 25 0 29 7 10 16 104 -3 126 -25 9 -8 26 -15 39 -15 13 0
27 -5 30 -10 3 -6 1 -10 -4 -10 -6 0 -11 -4 -11 -9 0 -5 8 -7 19 -4 10 3 22 0
25 -6 4 -6 18 -11 32 -11 13 0 24 -6 24 -13 0 -8 17 -18 38 -23 23 -6 41 -17
47 -31 6 -14 18 -23 32 -23 13 0 23 -5 23 -11 0 -16 -32 -83 -44 -91 -6 -4 -8
-8 -3 -8 4 0 0 -11 -9 -25 l-16 -25 886 0 886 0 0 1159 c0 639 -4 1161 -9
1163 -4 2 -5 65 0 143 4 77 8 575 8 1108 l1 967 -305 0 c-237 0 -305 -3 -305
-12 0 -10 -2 -10 -8 0 -6 9 -37 12 -118 10 l-109 -3 -6 -45 -6 -45 -1 48 -2
47 -1708 0 -1709 0 0 -30 c0 -16 4 -30 9 -30 4 0 8 -13 8 -30 0 -16 -4 -30
-10 -30 -5 0 -10 -6 -10 -13 0 -10 -43 -20 -157 -37 -87 -12 -162 -27 -168
-32 -9 -9 33 -5 90 8 20 5 20 5 1 -10 -19 -16 -19 -16 -1 -16 18 0 18 -1 2
-17 -14 -15 -21 -15 -37 -5 -16 10 -18 9 -14 -3 4 -8 1 -15 -5 -15 -6 0 -11
-6 -11 -14 0 -8 -6 -17 -12 -20 -21 -8 160 4 267 18 58 8 104 10 109 5 6 -6 4
-9 -5 -9 -7 0 -59 -7 -114 -14 -144 -21 -338 -44 -425 -51 -41 -3 -91 -9 -110
-13 -30 -5 -25 -7 45 -17 60 -7 80 -14 80 -25 0 -11 -7 -14 -25 -10 -14 2 -43
3 -65 2 -22 -1 -87 -3 -145 -4 -58 -2 -113 -7 -123 -12 -10 -5 -88 -3 -180 4
-181 14 -169 14 -325 2 -62 -4 -117 -13 -124 -20 -12 -12 -9 -14 27 -16 18 -1
20 -8 20 -58 0 -31 3 -54 8 -51 4 2 7 -48 7 -111 0 -101 -2 -115 -17 -119 -14
-4 -12 -5 5 -6 20 -1 22 -6 22 -55 0 -30 -4 -57 -9 -61 -5 -3 -7 -30 -4 -60 4
-34 2 -55 -4 -55 -6 0 -10 -10 -9 -22 2 -29 -26 -60 -50 -56 -14 2 -20 -4 -22
-24 -2 -19 -10 -28 -25 -30 -26 -4 -50 -47 -37 -64 6 -6 8 -37 5 -68 -4 -41
-1 -67 10 -89 l15 -31 -25 24 c-15 14 -23 30 -20 40 3 10 1 28 -5 41 -10 22
-10 21 -6 -8 3 -18 3 -33 0 -33 -4 0 -24 18 -45 39 l-39 39 22 38 c14 24 18
39 11 41 -8 3 -7 12 3 31 12 23 11 28 -1 35 -16 9 -45 -13 -45 -34 0 -7 -10
-10 -29 -6 -19 4 -31 2 -34 -6 -3 -7 -24 8 -53 38 -151 160 -148 156 -133 167
11 8 11 9 -3 4 -11 -3 -31 8 -58 34 -44 42 -48 50 -24 50 8 0 12 -4 9 -10 -3
-5 2 -11 12 -11 33 -2 58 3 61 12 2 5 23 9 47 9 50 0 59 8 46 43 -14 35 -45
43 -193 47 -72 2 -72 2 -58 -15 23 -28 5 -23 -25 7 l-30 29 135 -6 c91 -4 130
-3 120 4 -12 9 -79 17 -196 26 -21 1 -44 -1 -50 -6 -7 -6 -27 7 -56 38 -25 27
-87 91 -136 143 -131 137 -154 164 -142 168 5 2 10 10 10 18 0 8 7 17 15 20
21 9 12 49 -11 49 -10 0 -23 10 -29 23 -5 12 -16 22 -23 22 -9 0 -12 12 -10
38 3 37 3 37 -31 34 -19 -2 -31 0 -27 6 3 5 -1 18 -9 28 -13 18 -14 18 -21 1
-3 -10 -2 -23 4 -29 6 -6 8 -17 5 -24 -3 -10 0 -12 10 -9 18 8 33 -25 15 -36
-8 -5 -9 -11 -1 -21 5 -7 13 -22 17 -33 6 -17 4 -17 -18 4 -20 18 -23 28 -16
42 6 10 6 20 1 23 -5 3 -11 -3 -14 -15 -5 -19 -8 -18 -61 16 -30 19 -59 35
-64 35 -9 0 -22 101 -22 173 0 31 -3 37 -21 37 -19 0 -20 -4 -13 -80z m2894
-10 c0 -5 -5 -10 -11 -10 -5 0 -7 5 -4 10 3 6 8 10 11 10 2 0 4 -4 4 -10z m78
-27 c-10 -2 -26 -2 -35 0 -10 3 -2 5 17 5 19 0 27 -2 18 -5z m-3108 -112 c0
-5 8 -8 18 -7 10 0 16 -5 13 -14 -2 -8 -3 -28 -2 -44 1 -25 -1 -28 -24 -24
-17 4 -25 1 -25 -8 0 -9 11 -14 30 -14 17 0 30 -2 30 -4 0 -2 3 -11 6 -20 5
-13 -1 -16 -30 -16 -29 0 -36 -4 -36 -20 0 -16 7 -20 33 -22 l32 -1 -30 -4
c-28 -4 -30 -7 -28 -41 1 -20 4 -67 6 -105 l3 -67 -16 33 c-19 39 -18 34 -26
155 -3 50 -2 92 3 92 5 0 8 26 8 58 0 55 8 82 26 82 5 0 9 -4 9 -9z m100 -30
c0 -5 9 -13 20 -16 17 -5 20 -15 20 -61 0 -46 -3 -54 -19 -54 -14 0 -21 10
-26 38 -13 64 -14 102 -5 102 6 0 10 -4 10 -9z m129 -60 c18 -12 29 -75 36
-211 4 -87 3 -109 -5 -90 -6 14 -9 42 -6 62 3 21 1 38 -3 38 -5 0 -12 14 -16
30 -4 17 -13 30 -21 30 -11 0 -14 17 -14 75 0 75 3 82 29 66z m235 -13 c-3 -4
0 -8 7 -8 10 0 10 -3 1 -12 -8 -8 -15 -8 -26 2 -18 14 -14 27 8 27 8 0 13 -4
10 -9z m2033 -80 c-3 -7 -5 -2 -5 12 0 14 2 19 5 13 2 -7 2 -19 0 -25z m-2172
-19 c4 -17 9 -28 12 -25 13 13 55 -44 60 -82 6 -44 -10 -59 -22 -21 -7 20 -7
20 -27 3 -11 -10 -19 -14 -18 -9 4 20 0 35 -11 35 -6 0 -8 -8 -5 -17 2 -10 7
-57 11 -105 7 -86 7 -87 36 -93 38 -9 38 -23 -1 -17 -23 3 -30 0 -30 -12 0 -9
-5 -16 -11 -16 -5 0 -8 3 -6 8 2 4 -1 75 -7 157 -12 158 -10 225 4 225 5 0 11
-14 15 -31z m5008 6 c60 -17 76 -36 30 -34 -46 1 -146 33 -151 48 -6 17 30 13
121 -14z m-5190 -12 c-7 -2 -19 -2 -25 0 -7 3 -2 5 12 5 14 0 19 -2 13 -5z
m2287 -3 c0 -12 57 -13 64 -2 3 5 31 3 63 -4 32 -8 87 -18 123 -23 l65 -9 -79
5 c-44 3 -91 9 -104 12 -13 4 -41 5 -61 2 -29 -3 -32 -5 -16 -12 15 -5 10 -7
-17 -7 -21 1 -39 7 -42 15 -3 7 -16 18 -28 23 -22 8 -22 9 5 9 15 1 27 -3 27
-9z m-82 -10 c23 0 42 -3 42 -8 0 -9 -209 3 -218 13 -4 4 25 5 63 1 39 -3 89
-6 113 -6z m-752 -360 c3 -353 -9 -273 -20 130 -5 180 -3 229 5 210 8 -17 13
-130 15 -340z m1742 172 c33 4 42 14 42 52 0 40 9 29 12 -16 4 -60 28 -35 30
31 l2 56 3 -50 c5 -60 12 -68 47 -59 18 4 29 16 35 38 l9 31 1 -28 c1 -15 -8
-38 -20 -50 -17 -18 -18 -23 -5 -25 20 -4 32 -68 16 -87 -13 -16 -6 -65 10
-65 6 0 10 5 10 12 0 6 7 3 16 -8 8 -10 13 -13 9 -6 -3 6 -2 12 3 12 5 0 23
-6 39 -12 23 -10 28 -19 26 -40 -1 -16 2 -28 8 -28 5 0 9 12 9 26 0 16 5 24
13 21 6 -2 10 -11 8 -18 -11 -43 -10 -50 4 -20 8 19 18 31 22 28 3 -4 13 -1
21 6 13 10 14 9 8 -10 -4 -12 -3 -24 2 -27 6 -3 13 -21 16 -41 4 -19 14 -42
23 -50 16 -17 15 -19 -40 -56 -5 -4 -9 -18 -9 -32 0 -27 -31 -47 -73 -47 -13
0 -27 -5 -30 -10 -4 -6 -10 -8 -14 -6 -11 7 -119 -20 -136 -34 -8 -7 -12 -17
-9 -22 3 -5 -3 -4 -13 3 -15 9 -25 9 -39 1 -17 -10 -19 -23 -19 -164 l0 -153
-25 3 c-14 2 -26 8 -28 13 -2 5 -11 9 -20 9 -15 1 -15 2 -2 13 18 14 25 47 11
47 -23 0 -39 -59 -19 -72 8 -5 1 -8 -18 -8 l-32 0 -6 123 c-7 163 -6 267 4
267 5 0 10 -4 12 -9 2 -5 19 -11 38 -13 l35 -3 3 48 c3 46 -10 63 -22 31 -4
-9 -13 -14 -21 -10 -8 3 -15 1 -15 -4 0 -6 -9 -10 -20 -10 -18 0 -20 7 -20 61
0 38 -4 58 -10 54 -6 -3 -13 1 -16 9 -7 18 -30 22 -36 6 -1 -5 -13 -7 -25 -4
-23 6 -37 41 -24 58 5 6 9 28 9 49 1 35 0 37 -31 39 -18 0 -42 0 -55 -1 -22
-2 -22 -1 -5 19 12 13 30 20 55 20 40 0 68 21 68 50 0 10 5 22 10 25 6 3 10
-3 10 -14 0 -14 5 -19 16 -14 11 4 14 1 12 -10 -2 -9 2 -15 7 -14 6 1 9 4 9 7
-16 56 -15 72 5 77 21 5 27 19 34 78 3 19 5 13 6 -18 1 -57 21 -55 21 2 0 21
3 60 8 87 6 43 7 37 10 -49 l3 -98 27 3z m12 184 c0 -3 -4 -8 -10 -11 -5 -3
-10 -1 -10 4 0 6 5 11 10 11 6 0 10 -2 10 -4z m-1639 -54 c-7 -2 -18 1 -23 6
-8 8 -4 9 13 5 13 -4 18 -8 10 -11z m59 2 c0 -2 -9 -4 -21 -4 -11 0 -18 4 -14
10 5 8 35 3 35 -6z m-1258 -111 c35 -36 40 -45 28 -53 -13 -9 -13 -11 0 -19 9
-7 17 -6 21 0 4 7 12 4 23 -6 25 -25 19 -38 -14 -33 -16 2 -31 0 -33 -5 -5
-15 -47 25 -47 45 0 9 -5 20 -11 23 -6 5 -4 12 8 20 14 11 15 16 6 26 -7 7
-16 9 -20 5 -4 -4 -2 -10 4 -14 9 -5 6 -11 -7 -20 -19 -12 -20 -9 -19 60 1 58
2 67 9 44 5 -16 28 -49 52 -73z m5606 89 c8 -2 12 -28 13 -89 1 -91 16 -84 18
7 1 25 6 52 11 60 7 11 8 5 4 -20 l-5 -35 15 25 15 25 1 -25 c1 -14 4 -19 7
-12 7 18 23 15 23 -5 0 -21 16 -6 23 22 3 14 5 11 6 -10 1 -16 6 -37 11 -45 7
-11 10 0 10 38 0 37 3 51 11 46 8 -4 10 -28 7 -68 -3 -34 -2 -74 2 -91 l8 -30
1 27 c1 31 21 49 21 19 0 -32 20 -25 21 7 l1 27 8 -25 8 -25 1 28 c1 15 6 27
11 27 7 0 8 -13 4 -35 -8 -42 9 -47 25 -7 l11 27 -3 -33 c-3 -25 0 -32 10 -28
30 12 34 -42 18 -250 -8 -112 -15 -217 -15 -233 0 -24 -4 -29 -20 -26 -11 2
-20 0 -20 -6 0 -5 -31 -9 -69 -9 -69 0 -100 -13 -61 -25 11 -3 23 -4 28 -1 4
2 23 1 42 -4 37 -8 37 -8 -155 -14 l-50 -1 3 -48 c3 -53 -23 -112 -38 -87 -5
8 -16 15 -26 16 -18 3 -34 21 -34 42 0 19 -20 14 -21 -5 -5 -83 -14 -107 -29
-83 -10 16 -60 22 -60 8 0 -4 8 -8 18 -8 14 0 15 -2 2 -9 -8 -6 -18 -7 -23 -4
-5 3 -7 -5 -5 -18 3 -26 38 -40 38 -16 0 12 13 15 60 14 33 -1 60 -5 60 -9 0
-3 9 -4 20 -1 15 4 20 0 20 -15 0 -16 -7 -20 -36 -20 -19 0 -38 -3 -42 -6 -3
-4 7 -6 24 -4 16 1 35 -1 41 -5 13 -8 63 12 63 25 0 5 -5 6 -12 2 -7 -4 -8 -3
-4 4 5 9 12 8 27 -1 19 -11 18 -13 -12 -25 -42 -17 -32 -24 47 -31 58 -5 64
-8 52 -22 -11 -14 -28 -15 -118 -8 -58 4 -149 9 -202 11 -74 2 -98 6 -98 17 0
7 6 11 13 8 10 -4 12 3 9 24 -4 25 -1 29 20 29 21 0 25 4 20 25 -3 18 -11 25
-28 25 -15 0 -24 6 -24 15 0 10 -9 14 -25 13 -14 -1 -25 -6 -25 -11 0 -5 -7
-3 -16 4 -13 11 -17 10 -26 -4 -7 -13 -18 -16 -41 -13 -18 3 -54 8 -81 11 -31
4 -45 10 -36 15 9 5 3 10 -19 15 -33 7 -89 32 -83 37 2 2 0 11 -4 21 -3 10 -1
30 5 44 10 21 9 29 -5 44 -9 11 -22 19 -29 19 -8 0 -11 29 -9 103 12 382 11
366 35 415 12 26 27 58 32 72 17 46 25 55 41 52 10 -2 16 4 17 15 0 17 1 17 8
-1 6 -16 9 -16 22 -5 32 32 71 51 82 40 5 -5 16 -43 24 -82 7 -40 19 -77 26
-81 21 -14 37 -9 46 15 5 12 12 21 17 19 5 -2 14 23 19 55 8 47 14 58 30 60
11 2 30 4 42 5 12 1 24 10 26 20 3 12 15 18 34 19 15 0 37 4 48 8 17 7 76 8
123 3z m-2523 -103 c36 -8 34 -9 -28 -14 -30 -3 -46 -1 -42 5 4 6 11 8 16 5 5
-4 10 17 11 47 l1 53 6 -45 c5 -40 9 -46 36 -51z m3102 -36 c-2 -21 -4 -4 -4
37 0 41 2 58 4 38 2 -21 2 -55 0 -75z m198 -51 c-13 -14 -16 13 -8 85 l8 78 3
-79 c2 -43 0 -81 -3 -84z m-6539 78 c8 0 14 -4 14 -10 0 -5 -4 -10 -10 -10 -5
0 -11 -10 -11 -22 -1 -19 -3 -17 -9 7 -4 17 -8 41 -7 55 0 23 0 23 4 3 2 -13
11 -23 19 -23z m3459 -46 c0 -68 2 -77 24 -93 17 -13 20 -20 11 -26 -6 -4 -17
-2 -23 4 -18 18 -29 13 -17 -8 13 -26 13 -48 0 -35 -12 12 -15 53 -5 77 4 10
3 17 -4 17 -6 0 -11 -4 -11 -10 0 -5 -6 -10 -14 -10 -15 0 -16 35 -2 59 6 10
3 12 -11 7 -17 -5 -20 -2 -20 19 0 15 5 25 13 25 8 0 14 5 14 10 0 6 7 10 15
10 9 0 18 7 21 15 4 8 7 15 8 15 1 0 2 -34 1 -76z m3041 -52 c-11 -10 -12 3
-6 68 l5 65 3 -64 c2 -35 1 -66 -2 -69z m-6739 81 c-3 -10 -5 -4 -5 12 0 17 2
24 5 18 2 -7 2 -21 0 -30z m121 -28 c-3 -3 -9 2 -12 12 -6 14 -5 15 5 6 7 -7
10 -15 7 -18z m172 -17 c0 -26 -4 -38 -8 -30 -8 12 -4 72 4 72 2 0 4 -19 4
-42z m3233 12 c3 -13 0 -20 -9 -20 -8 0 -14 9 -14 20 0 11 4 20 9 20 5 0 11
-9 14 -20z m-3253 -11 c0 -5 -4 -9 -10 -9 -5 0 -10 7 -10 16 0 8 5 12 10 9 6
-3 10 -10 10 -16z m3179 7 c8 -10 9 -16 1 -21 -5 -3 -10 -1 -10 4 0 6 -7 11
-15 11 -8 0 -15 5 -15 10 0 15 26 12 39 -4z m113 -37 c5 -3 4 -16 -1 -30 -9
-23 -16 -12 -12 20 2 7 -2 11 -6 8 -5 -3 -15 -1 -23 5 -12 8 -12 9 3 4 11 -4
17 0 18 12 0 14 2 14 6 2 3 -8 10 -18 15 -21z m188 21 c0 -5 -2 -10 -4 -10 -3
0 -8 5 -11 10 -3 6 -1 10 4 10 6 0 11 -4 11 -10z m-3493 -16 c-3 -3 -12 -4
-19 -1 -8 3 -5 6 6 6 11 1 17 -2 13 -5z m3173 -14 c0 -5 -4 -10 -10 -10 -5 0
-10 5 -10 10 0 6 5 10 10 10 6 0 10 -4 10 -10z m99 -6 c1 -1 1 -8 -1 -14 -2
-8 -13 -4 -28 10 l-25 21 25 -7 c14 -3 27 -8 29 -10z m101 -36 c0 -16 -3 -28
-8 -28 -4 0 -7 18 -7 39 0 22 3 34 7 28 4 -7 8 -24 8 -39z m-3590 32 c0 -5 -4
-10 -10 -10 -5 0 -10 5 -10 10 0 6 5 10 10 10 6 0 10 -4 10 -10z m100 0 c0 -5
-7 -10 -15 -10 -8 0 -15 5 -15 10 0 6 7 10 15 10 8 0 15 -4 15 -10z m314 -10
c22 0 36 -3 32 -7 -11 -11 -129 -4 -141 9 -7 7 2 9 30 4 22 -3 58 -6 79 -6z
m4704 -7 c5 -10 5 -111 0 -233 -10 -233 -13 -244 -68 -238 l-25 3 4 235 c2
129 5 238 8 243 9 15 72 7 81 -10z m-1554 -8 c3 -8 1 -15 -4 -15 -6 0 -10 7
-10 15 0 8 2 15 4 15 2 0 6 -7 10 -15z m2750 -97 c-4 -57 -12 -164 -20 -238
l-13 -135 5 130 c8 240 16 345 26 345 5 0 6 -41 2 -102z m-2718 15 c-4 -4 -11
-1 -16 7 -16 25 -11 35 7 17 9 -9 13 -20 9 -24z m3324 -68 c-1 -49 -5 -124 -9
-165 l-6 -75 -194 -3 -194 -2 7 142 c3 79 9 153 12 165 8 27 29 30 233 29
l154 -1 -3 -90z m-3277 51 c4 -11 1 -13 -10 -9 -11 4 -14 2 -9 -5 4 -7 2 -12
-3 -12 -13 0 -13 3 -5 24 8 20 20 21 27 2z m2844 -203 c-6 -84 -14 -153 -18
-153 -12 0 -15 248 -4 313 l10 57 11 -32 c8 -24 8 -74 1 -185z m-5670 191 c-3
-3 -12 -4 -19 -1 -8 3 -5 6 6 6 11 1 17 -2 13 -5z m-290 -26 c-3 -8 -6 -5 -6
6 -1 11 2 17 5 13 3 -3 4 -12 1 -19z m58 2 c8 -13 -5 -13 -25 0 -13 8 -13 10
2 10 9 0 20 -4 23 -10z m3072 -22 c-3 -7 -5 -2 -5 12 0 14 2 19 5 13 2 -7 2
-19 0 -25z m-2976 -145 c16 -4 19 -15 19 -59 0 -43 -3 -54 -16 -54 -10 0 -14
-5 -10 -15 3 -9 -1 -18 -10 -22 -25 -9 -96 80 -99 123 -1 19 2 34 7 34 4 0 8
4 8 10 0 11 -32 1 -41 -13 -3 -5 -9 1 -12 12 -3 12 -1 19 4 15 5 -3 9 1 9 8 0
9 2 10 8 1 5 -8 18 -9 42 -3 19 4 27 8 16 9 -15 1 -16 4 -6 15 6 8 18 12 26 9
8 -3 14 1 15 8 1 8 6 -6 11 -30 6 -29 16 -45 29 -48z m2069 57 c0 -5 -2 -10
-4 -10 -3 0 -8 5 -11 10 -3 6 -1 10 4 10 6 0 11 -4 11 -10z m847 -14 c-4 -9 3
-16 16 -20 25 -6 22 -11 -14 -19 -22 -6 -28 -3 -32 15 -4 13 -1 26 6 30 19 12
30 9 24 -6z m47 2 c-3 -4 -9 -8 -15 -8 -5 0 -9 4 -9 8 0 5 7 9 15 9 8 0 12 -4
9 -9z m-777 -53 c-10 -11 -13 -10 -20 1 -12 21 2 38 18 24 11 -9 12 -15 2 -25z
m155 -24 c0 -32 4 -51 11 -51 8 0 7 -3 -1 -9 -8 -4 -13 -11 -13 -15 3 -23 0
-199 -3 -195 -5 5 -9 162 -7 263 1 79 12 85 13 7z m-2820 32 c21 -19 24 -35 5
-27 -14 5 -41 44 -30 44 3 0 15 -7 25 -17z m604 -14 c25 -26 26 -30 9 -27 -18
3 -20 -2 -18 -37 4 -54 22 -97 39 -91 10 4 14 -4 14 -28 0 -19 3 -41 6 -50 3
-9 1 -16 -5 -16 -6 0 -11 11 -11 25 0 15 -6 25 -15 25 -7 0 -19 8 -25 18 -8
13 -9 5 -5 -33 4 -41 3 -46 -5 -25 -6 14 -17 28 -24 32 -8 5 -14 32 -15 75 -2
37 -4 79 -4 92 -2 19 4 26 23 31 21 6 23 8 8 15 -10 4 -18 11 -18 16 0 17 16
9 46 -22z m2056 -46 c-3 -16 -7 -22 -10 -15 -4 13 4 42 11 42 2 0 2 -12 -1
-27z m-2645 -89 c-3 -3 -12 -4 -19 -1 -8 3 -5 6 6 6 11 1 17 -2 13 -5z m116
-3 c16 0 26 -4 24 -8 -3 -5 -33 -6 -66 -5 -34 2 -59 7 -56 12 3 5 20 7 38 6
17 -2 45 -4 60 -5z m682 -18 l18 -28 -21 19 c-12 11 -22 23 -22 28 0 14 7 9
25 -19z m3487 -70 c-2 -38 -5 -70 -7 -71 -7 -7 -17 108 -11 123 13 35 21 11
18 -52z m295 51 c-3 -3 -12 -4 -19 -1 -8 3 -5 6 6 6 11 1 17 -2 13 -5z m-4532
-24 c3 -5 2 -10 -4 -10 -5 0 -13 5 -16 10 -3 6 -2 10 4 10 5 0 13 -4 16 -10z
m86 -5 c0 -5 -7 -12 -16 -13 -23 -5 -47 6 -40 19 8 13 56 8 56 -6z m74 -15
c16 -16 25 -30 19 -30 -12 1 -70 60 -58 60 6 0 23 -13 39 -30z m595 -16 c0 -7
-7 -25 -15 -40 -15 -29 -15 -28 -15 30 0 55 1 58 15 40 8 -10 15 -24 15 -30z
m-83 4 c-3 -8 -6 -5 -6 6 -1 11 2 17 5 13 3 -3 4 -12 1 -19z m3835 -29 l-10
-34 -1 45 c-1 31 2 41 10 33 7 -7 7 -21 1 -44z m-4317 -6 c8 4 17 2 20 -3 7
-12 -20 -12 -95 -3 l-55 8 45 5 c25 3 51 2 57 -3 7 -5 19 -7 28 -4z m485 -5
c0 -19 -2 -20 -10 -8 -13 19 -13 30 0 30 6 0 10 -10 10 -22z m3760 -18 c0 -5
-2 -10 -4 -10 -3 0 -8 5 -11 10 -3 6 -1 10 4 10 6 0 11 -4 11 -10z m564 -26
c9 -24 8 -25 -13 -12 -11 7 -17 16 -15 20 8 13 21 9 28 -8z m-4747 0 c-10 -11
-57 -13 -57 -3 0 5 14 9 32 9 17 0 28 -3 25 -6z m2500 -26 c-3 -7 -5 -2 -5 12
0 14 2 19 5 13 2 -7 2 -19 0 -25z m1106 15 c-7 -2 -19 -2 -25 0 -7 3 -2 5 12
5 14 0 19 -2 13 -5z m-56 -25 c-3 -8 -6 -5 -6 6 -1 11 2 17 5 13 3 -3 4 -12 1
-19z m1010 16 c-3 -3 -12 -4 -19 -1 -8 3 -5 6 6 6 11 1 17 -2 13 -5z m1421
-10 c12 -8 22 -20 22 -26 0 -7 -7 -5 -17 4 -33 28 -39 27 -41 -5 -3 -44 -32
-80 -65 -81 -22 -1 -27 3 -29 24 -2 39 -3 44 -11 58 -5 8 -2 14 10 18 10 3 25
9 33 14 24 14 74 11 98 -6z m-2001 -41 c-3 -10 -5 -4 -5 12 0 17 2 24 5 18 2
-7 2 -21 0 -30z m203 27 c0 -5 -4 -10 -10 -10 -5 0 -10 5 -10 10 0 6 5 10 10
10 6 0 10 -4 10 -10z m50 -67 c-9 -15 -10 -12 -6 16 3 18 7 41 8 50 0 9 3 1 5
-16 2 -18 -1 -41 -7 -50z m857 35 c-3 -8 -6 -5 -6 6 -1 11 2 17 5 13 3 -3 4
-12 1 -19z m-5012 -10 c6 -6 -11 -7 -50 -3 -78 9 -93 23 -18 17 32 -2 63 -9
68 -14z m2173 -17 c3 -8 -1 -12 -9 -9 -7 2 -15 10 -17 17 -3 8 1 12 9 9 7 -2
15 -10 17 -17z m1916 -22 c-9 -10 -22 -15 -30 -12 -11 4 -10 9 3 29 12 19 18
22 30 13 11 -10 11 -15 -3 -30z m947 -19 c24 0 38 -4 34 -10 -3 -5 -16 -10
-28 -10 -18 0 -19 -2 -7 -10 11 -7 -5 -10 -52 -10 -38 0 -68 3 -68 8 0 4 -21
6 -47 5 l-48 -2 50 15 c28 9 66 22 85 28 28 10 36 10 38 -1 2 -8 19 -13 43
-13z m485 8 c29 -13 49 -65 22 -55 -7 2 -12 11 -10 21 2 12 -5 16 -34 16 -31
0 -35 2 -24 15 15 18 11 18 46 3z m-1391 -48 c-9 -17 -20 -28 -26 -24 -6 4 -2
15 12 30 30 32 33 30 14 -6z m-3281 4 c23 -22 20 -24 -16 -13 -18 5 -34 9 -36
9 -2 0 0 5 3 10 9 15 31 12 49 -6z m2049 -18 c-10 -13 -20 -20 -21 -15 -5 12
17 39 30 39 5 0 1 -11 -9 -24z m-2732 -3 c13 -16 12 -17 -3 -4 -10 7 -18 15
-18 17 0 8 8 3 21 -13z m3787 -8 c-3 -3 -9 2 -12 12 -6 14 -5 15 5 6 7 -7 10
-15 7 -18z m1785 18 c-7 -2 -19 -2 -25 0 -7 3 -2 5 12 5 14 0 19 -2 13 -5z
m-5616 -17 c8 -8 -138 3 -147 11 -3 3 28 3 67 1 40 -2 76 -8 80 -12z m749 -58
c8 -16 13 -28 11 -28 -6 0 -57 79 -57 87 1 10 28 -25 46 -59z m3964 2 c11 -7
-3 -10 -47 -10 -34 0 -65 5 -68 10 -8 13 95 13 115 0z m-3423 -6 c-3 -3 -12
-4 -19 -1 -8 3 -5 6 6 6 11 1 17 -2 13 -5z m130 0 c-3 -3 -12 -4 -19 -1 -8 3
-5 6 6 6 11 1 17 -2 13 -5z m1132 -10 c9 -8 -155 -2 -174 6 -11 5 21 6 75 3
52 -3 97 -7 99 -9z m46 6 c-28 -12 -37 -12 -30 0 3 6 16 10 28 9 21 0 21 -1 2
-9z m-1928 -97 c-2 -16 -4 -5 -4 22 0 28 2 40 4 28 2 -13 2 -35 0 -50z m3280
-25 c-3 -8 -6 -5 -6 6 -1 11 2 17 5 13 3 -3 4 -12 1 -19z m-3697 -23 c13 -14
21 -25 18 -25 -2 0 -15 11 -28 25 -13 14 -21 25 -18 25 2 0 15 -11 28 -25z
m1453 18 c-7 -2 -19 -2 -25 0 -7 3 -2 5 12 5 14 0 19 -2 13 -5z m2917 -40 c0
-1 -9 -7 -20 -13 -16 -8 -20 -8 -20 4 0 9 8 14 20 13 11 -1 20 -2 20 -4z
m-1696 -43 c-31 -47 -37 -50 -23 -13 12 32 28 53 40 53 5 0 -3 -18 -17 -40z
m1566 10 c0 -11 -6 -20 -14 -20 -9 0 -12 7 -9 20 3 11 9 20 14 20 5 0 9 -9 9
-20z m287 -27 c-3 -10 -5 -2 -5 17 0 19 2 27 5 18 2 -10 2 -26 0 -35z m-3567
27 c0 -12 -8 -12 -35 0 -18 8 -17 9 8 9 15 1 27 -3 27 -9z m1379 6 c-3 -3 -25
-6 -49 -7 -25 -1 -64 -6 -88 -12 -30 -7 -50 -6 -65 1 -12 6 -31 13 -42 15 -11
3 40 5 114 6 74 0 132 -1 130 -3z m-1326 -13 c-7 -2 -19 -2 -25 0 -7 3 -2 5
12 5 14 0 19 -2 13 -5z m280 0 c-7 -2 -21 -2 -30 0 -10 3 -4 5 12 5 17 0 24
-2 18 -5z m409 -24 c-3 -19 0 -34 8 -39 11 -7 10 -13 -3 -33 -9 -14 -13 -27
-10 -31 4 -3 49 -5 102 -5 86 1 90 2 41 9 -75 10 -100 19 -100 36 0 13 2 13
14 1 8 -8 37 -15 68 -16 29 -1 60 -3 68 -6 8 -2 103 -13 210 -24 107 -12 219
-23 248 -27 50 -5 52 -5 52 19 0 33 28 99 39 92 9 -5 3 -36 -17 -102 -18 -55
-2 -64 129 -72 63 -4 168 -7 234 -5 66 1 174 2 240 3 132 0 189 10 358 59 104
30 67 8 -54 -32 l-106 -36 -289 -8 c-297 -8 -305 -7 -724 38 -98 11 -337 32
-545 50 -137 12 -185 19 -185 29 0 4 42 14 93 22 l92 15 3 34 c4 48 9 60 25
60 9 0 12 -9 9 -31z m48 12 c13 -26 13 -54 -1 -46 -6 4 -8 10 -5 13 4 3 -1 16
-9 29 -9 13 -11 23 -6 23 6 0 15 -9 21 -19z m2424 10 c8 -12 -22 -36 -32 -26
-4 4 -1 10 7 13 11 4 11 6 0 13 -11 7 -10 9 3 9 9 0 19 -4 22 -9z m-4089 -21
c10 -11 16 -20 13 -20 -3 0 -13 9 -23 20 -10 11 -16 20 -13 20 3 0 13 -9 23
-20z m1098 8 c-5 -10 -79 -9 -113 1 -16 5 1 7 47 7 39 -1 69 -4 66 -8z m-1098
-57 c-6 -5 -25 10 -25 20 0 5 6 4 14 -3 8 -7 12 -15 11 -17z m5760 -46 c-1
-78 -12 -192 -20 -205 -11 -17 -44 -11 -56 11 -9 17 -13 19 -20 8 -4 -7 -10
-11 -11 -9 -2 3 -2 63 0 133 l4 128 52 -3 51 -3 0 -60z m-3710 31 c0 -13 -3
-22 -7 -19 -5 2 -8 13 -8 24 0 10 3 19 8 19 4 0 7 -11 7 -24z m3852 16 c8 -5
9 -39 2 -131 -5 -69 -11 -127 -14 -129 -2 -2 -24 -7 -50 -9 l-45 -6 0 59 c0
33 3 96 7 142 l6 82 41 0 c23 0 46 -4 53 -8z m-977 -12 c0 -5 -5 -10 -11 -10
-5 0 -7 5 -4 10 3 6 8 10 11 10 2 0 4 -4 4 -10z m67 -12 c-3 -8 -6 -5 -6 6 -1
11 2 17 5 13 3 -3 4 -12 1 -19z m-4484 5 c-7 -2 -21 -2 -30 0 -10 3 -4 5 12 5
17 0 24 -2 18 -5z m4808 -3 c5 0 9 -13 9 -30 0 -32 -11 -36 -57 -24 -16 4 -23
14 -23 29 0 24 22 36 48 29 8 -2 18 -4 23 -4z m-656 -10 c-3 -5 -17 -10 -31
-10 -13 0 -24 5 -24 10 0 6 14 10 31 10 17 0 28 -4 24 -10z m-3972 -7 c-7 -2
-19 -2 -25 0 -7 3 -2 5 12 5 14 0 19 -2 13 -5z m110 -10 c-13 -2 -33 -2 -45 0
-13 2 -3 4 22 4 25 0 35 -2 23 -4z m-775 -27 c24 -2 40 0 36 5 -9 14 6 10 23
-6 13 -14 7 -15 -59 -9 -40 4 -77 10 -81 14 -5 4 2 6 15 4 13 -2 42 -5 66 -8z
m872 3 c-19 -5 -69 -13 -110 -19 -41 -5 -87 -12 -102 -16 -16 -3 -28 -2 -28 3
0 9 164 37 235 40 l40 1 -35 -9z m4030 -19 c0 -19 -55 -79 -72 -80 -5 0 -8 23
-8 50 l0 50 40 0 c33 0 40 -3 40 -20z m70 -20 c0 -22 -4 -40 -10 -40 -5 0 -10
18 -10 40 0 22 5 40 10 40 6 0 10 -18 10 -40z m-4462 -6 c-2 -13 -15 -18 -50
-21 -40 -4 -52 0 -75 21 -22 20 -23 24 -7 21 10 -3 42 -1 69 3 54 9 69 4 63
-24z m4259 -4 c-5 -47 -4 -45 -38 -53 -22 -6 -28 -3 -33 16 -16 59 -6 75 47
76 28 1 29 0 24 -39z m-2277 4 c0 -2 -14 -4 -31 -4 -16 0 -28 4 -25 9 5 8 56
3 56 -5z m2150 -8 c0 -14 -6 -28 -12 -33 -7 -4 -74 -8 -149 -9 -75 0 -140 -3
-145 -6 -13 -7 -191 16 -178 24 5 4 58 7 116 7 58 0 113 4 122 7 20 7 178 31
219 33 22 1 27 -3 27 -23z m-5265 -20 c-1 -17 -8 -21 -41 -22 -21 0 -46 3 -54
8 -12 7 -11 8 4 4 13 -5 17 -2 13 8 -6 15 11 21 59 23 15 0 20 -5 19 -21z
m255 4 c-8 -6 -24 -9 -35 -9 l-20 1 20 5 c11 3 24 9 29 14 5 5 12 6 15 3 3 -3
-1 -9 -9 -14z m2977 14 c-3 -3 -12 -4 -19 -1 -8 3 -5 6 6 6 11 1 17 -2 13 -5z
m96 -1 c-7 -2 -19 -2 -25 0 -7 3 -2 5 12 5 14 0 19 -2 13 -5z m1432 -3 c3 -5
2 -10 -4 -10 -5 0 -13 5 -16 10 -3 6 -2 10 4 10 5 0 13 -4 16 -10z m-4626 -36
c2 -2 -5 -4 -16 -4 -12 0 -23 7 -27 15 -5 13 -2 14 17 4 12 -6 24 -13 26 -15z
m4616 16 c4 -6 -5 -10 -20 -10 -15 0 -24 4 -20 10 3 6 12 10 20 10 8 0 17 -4
20 -10z m-4562 -7 c-7 -2 -21 -2 -30 0 -10 3 -4 5 12 5 17 0 24 -2 18 -5z
m5327 -9 c0 -8 -4 -12 -10 -9 -5 3 -10 10 -10 16 0 5 5 9 10 9 6 0 10 -7 10
-16z m-3920 -14 l25 -7 -30 -7 c-16 -4 -37 -10 -45 -13 -46 -15 -270 -49 -281
-42 -19 11 -6 14 136 34 66 9 131 19 145 22 l25 7 -25 7 -25 7 25 0 c14 0 36
-3 50 -8z m501 -36 c-5 -16 -10 -21 -10 -12 -1 18 10 51 15 45 2 -1 -1 -16 -5
-33z m36 -31 c-2 -16 -4 -5 -4 22 0 28 2 40 4 28 2 -13 2 -35 0 -50z m-980 41
c3 -8 1 -20 -5 -26 -6 -6 -8 -16 -6 -23 7 -18 -17 -30 -27 -14 -12 20 -11 37
2 19 8 -12 9 -10 4 9 -5 16 -4 21 4 17 6 -4 11 -2 11 3 0 16 -16 13 -30 -4
-17 -21 -24 -12 -10 14 13 25 48 28 57 5z m893 -8 c0 -3 -4 -8 -10 -11 -5 -3
-10 -1 -10 4 0 6 5 11 10 11 6 0 10 -2 10 -4z m-1136 -23 c16 -11 -22 -23 -92
-29 -58 -6 -74 -4 -87 10 -13 13 -14 17 -3 21 38 13 159 12 182 -2z m1313 -15
c-3 -8 -6 -5 -6 6 -1 11 2 17 5 13 3 -3 4 -12 1 -19z m-577 -32 c0 -34 -4 -46
-17 -49 -10 -3 1 -3 25 0 26 4 42 2 42 -5 0 -15 -53 -24 -81 -13 -31 11 -71
-2 -174 -58 -48 -26 -81 -39 -87 -33 -12 12 15 34 61 48 43 14 13 18 -39 5
-27 -6 -44 -4 -70 11 -19 10 -41 18 -48 18 -9 0 -10 5 -2 19 5 11 10 31 10 44
0 22 3 24 42 21 22 -2 43 -6 46 -8 2 -3 13 -1 23 5 13 6 51 5 121 -6 130 -19
128 -19 128 8 0 21 7 37 17 37 2 0 3 -20 3 -44z m3782 2 c-7 -7 -10 -5 -7 8 5
29 6 30 12 16 3 -8 1 -18 -5 -24z m-4812 12 c0 -5 -4 -10 -10 -10 -5 0 -10 5
-10 10 0 6 5 10 10 10 6 0 10 -4 10 -10z m80 0 c-20 -13 -53 -13 -45 0 3 6 18
10 33 10 21 0 24 -2 12 -10z m1340 -20 c0 -5 -5 -10 -11 -10 -5 0 -7 5 -4 10
3 6 8 10 11 10 2 0 4 -4 4 -10z m317 -22 c-3 -7 -5 -2 -5 12 0 14 2 19 5 13 2
-7 2 -19 0 -25z m-1277 2 c0 -5 -8 -10 -18 -10 -32 0 -39 -17 -31 -77 4 -31 5
-61 2 -66 -3 -4 3 -17 12 -27 16 -18 16 -18 -4 -13 -12 3 -21 9 -21 14 0 5
-10 8 -22 8 -17 -1 -19 -2 -5 -6 22 -6 22 -12 -5 -34 -27 -24 -27 -24 -25 9 2
27 1 27 -55 26 -40 -1 -56 2 -51 10 3 6 -6 0 -19 -14 -18 -18 -21 -26 -11 -28
7 -2 13 -8 13 -13 0 -6 -8 -6 -19 1 -15 7 -56 2 -163 -20 -157 -33 -194 -45
-202 -65 -4 -11 -12 -11 -41 -2 -35 10 -38 9 -64 -21 -21 -23 -31 -28 -39 -20
-7 7 -12 16 -12 20 0 17 -46 57 -72 63 -23 6 -28 4 -28 -11 0 -23 -6 -16 -14
18 -6 25 -3 27 37 33 23 4 80 16 127 27 47 11 137 31 200 44 63 14 144 31 180
39 36 7 81 21 100 31 35 18 35 18 10 24 -37 9 -14 18 108 45 126 27 132 28
132 15z m70 -16 c0 -2 -7 -4 -15 -4 -8 0 -15 4 -15 10 0 5 7 7 15 4 8 -4 15
-8 15 -10z m-380 -35 c-25 -4 -65 -8 -90 -8 -36 0 -41 2 -27 10 10 6 30 8 45
4 16 -3 39 -2 52 3 13 5 33 6 45 3 14 -4 7 -7 -25 -12z m1040 5 c0 -2 -11 -4
-25 -4 -14 0 -25 4 -25 9 0 4 11 6 25 3 14 -2 25 -6 25 -8z m66 5 c4 -8 26
-10 61 -6 41 4 55 2 59 -8 3 -8 11 -12 18 -9 7 3 59 -3 117 -11 57 -9 163 -25
234 -36 161 -25 560 -83 720 -106 109 -16 116 -18 80 -26 -39 -8 -67 -7 -205
12 -155 21 -850 123 -902 132 -52 9 -59 8 -78 -11 -11 -11 -31 -20 -45 -20
-24 0 -24 -1 -8 -20 14 -16 30 -20 88 -20 66 -1 122 -18 118 -37 -1 -4 4 -7
12 -5 7 1 16 -2 20 -8 3 -5 -1 -10 -9 -10 -9 0 -16 -5 -16 -11 0 -6 7 -9 15
-5 8 3 15 0 15 -6 0 -6 9 -3 20 7 12 10 19 24 16 31 -3 8 1 11 10 7 7 -3 14
-9 14 -15 0 -5 9 -6 20 -3 15 5 20 2 20 -12 0 -11 -3 -14 -8 -7 -4 6 -16 8
-26 4 -16 -5 -11 -10 27 -26 26 -10 47 -22 47 -26 0 -4 -7 -4 -17 -1 -11 4
-14 3 -9 -5 4 -7 16 -12 26 -12 11 0 28 -9 39 -21 11 -12 25 -18 31 -14 9 5
10 1 5 -14 -4 -12 -2 -21 4 -21 6 0 11 5 11 10 0 17 46 11 73 -10 28 -22 37
-25 37 -11 0 5 -8 12 -17 15 -12 3 -9 5 7 4 40 0 47 3 25 12 -16 7 -13 8 15 7
80 -3 110 2 104 18 -4 8 -4 15 -1 15 15 0 13 -32 -4 -51 -15 -17 -22 -20 -31
-11 -7 7 -19 12 -27 12 -12 -1 -11 -4 4 -12 11 -7 26 -18 34 -25 8 -9 21 -11
35 -6 11 4 32 7 44 6 19 -1 23 3 19 18 -3 10 -1 19 4 19 5 0 9 5 9 11 0 8 -4
8 -14 0 -16 -13 -46 -4 -46 14 0 15 38 27 42 13 2 -5 22 -13 45 -17 35 -7 40
-6 35 7 -4 11 -2 13 9 6 21 -13 39 -14 65 -4 13 5 24 6 24 2 0 -4 12 -8 28 -9
15 -1 56 -5 92 -9 36 -4 69 -7 73 -6 4 1 16 -2 26 -8 10 -5 36 -12 56 -14 21
-3 43 -10 48 -15 6 -6 15 -11 21 -11 5 0 2 6 -9 13 -17 13 -17 14 4 20 45 11
57 -1 70 -71 7 -37 15 -78 18 -92 2 -14 19 -37 37 -52 36 -29 60 -76 54 -104
-3 -15 -7 -13 -35 10 -27 23 -39 26 -90 24 -32 -1 -64 1 -71 6 -14 9 -16 43
-3 48 6 2 -12 10 -39 19 -54 18 -60 5 -10 -23 56 -32 34 -43 -72 -38 -42 2
-78 -7 -78 -20 0 -4 38 -5 85 -2 60 3 85 1 85 -7 0 -6 -5 -11 -11 -11 -7 0
-18 -8 -25 -17 -15 -20 -18 -37 -5 -29 11 7 135 -13 139 -23 4 -11 78 3 96 18
13 11 46 6 46 -8 0 -3 -10 -13 -22 -21 -25 -17 -98 -31 -98 -19 0 4 -25 5 -57
2 -39 -4 -54 -3 -49 5 4 7 -11 10 -46 9 -58 -1 -98 9 -98 24 0 5 17 9 38 10
28 0 32 2 17 8 -11 5 -33 4 -48 -2 -15 -5 -39 -7 -53 -4 -14 2 -40 -2 -57 -11
-30 -15 -62 -12 -119 13 -11 4 -18 3 -18 -3 0 -6 9 -14 20 -17 11 -3 27 -14
36 -22 12 -12 21 -14 33 -7 11 7 23 7 39 -1 25 -14 75 -8 66 7 -4 5 -15 8 -25
5 -11 -3 -19 -2 -19 3 0 4 15 10 33 13 26 4 37 0 58 -24 30 -33 39 -36 39 -13
0 11 5 14 16 10 9 -3 29 -6 45 -6 16 0 29 -5 29 -10 0 -6 -11 -8 -26 -4 -21 5
-25 3 -22 -12 2 -16 -4 -19 -33 -20 -21 -1 -45 -4 -55 -8 -17 -7 -17 -9 6 -21
24 -13 23 -14 -20 -13 -25 0 -51 5 -59 12 -12 9 -13 8 -6 -3 6 -11 4 -13 -9
-8 -10 4 -23 7 -29 7 -25 0 19 20 45 20 15 0 30 5 34 11 5 8 -1 10 -20 7 -14
-3 -29 -1 -32 3 -8 13 -24 11 -21 -2 1 -6 -11 -13 -28 -15 -16 -1 -46 -5 -65
-8 -19 -2 -27 -2 -17 1 14 3 15 8 7 18 -8 10 -8 19 -1 33 16 30 -7 44 -44 27
-17 -7 -38 -16 -47 -19 -10 -3 -18 -10 -18 -15 0 -5 8 -7 18 -5 9 2 31 0 47
-5 29 -9 29 -9 -12 -10 -27 -1 -43 -6 -44 -13 0 -9 -2 -9 -6 1 -5 11 -7 11
-14 0 -8 -11 -12 -10 -24 5 -11 15 -12 23 -3 33 13 16 12 17 -31 29 -34 9 -34
10 -15 29 19 19 19 19 -1 10 -31 -13 -175 -19 -175 -7 0 6 8 13 18 15 9 3 -15
5 -55 6 -49 1 -76 6 -87 16 -8 8 -19 15 -25 15 -6 0 -11 4 -11 9 0 5 -14 14
-31 20 -39 14 -49 14 -49 1 0 -5 8 -10 17 -10 9 0 13 -3 10 -6 -7 -7 -66 15
-68 25 -1 3 -3 20 -5 36 -10 94 -26 200 -31 208 -3 5 5 19 17 32 29 31 23 55
-18 72 -19 8 -31 9 -28 4 11 -17 -14 -23 -30 -7 -21 22 -230 21 -285 -1 -45
-17 -53 -52 -19 -76 18 -13 19 -19 11 -63 -5 -27 -13 -75 -16 -106 -4 -32 -9
-59 -13 -62 -4 -2 -22 -1 -39 1 -22 4 -33 11 -33 22 0 9 -9 52 -20 96 -11 44
-25 108 -30 142 -6 34 -13 69 -16 77 -5 13 1 16 30 16 35 0 36 1 36 36 0 19 7
42 15 50 8 9 15 26 15 39 0 24 2 25 92 41 38 6 52 23 42 49 -7 17 11 20 22 4z
m3231 -5 c-3 -3 -12 -4 -19 -1 -8 3 -5 6 6 6 11 1 17 -2 13 -5z m68 -4 c19 -8
19 -9 -2 -9 -12 -1 -25 4 -28 9 -7 12 2 12 30 0z m-3491 -15 c-10 -8 -23 -14
-29 -14 -5 0 -1 6 9 14 11 8 24 15 30 15 5 0 1 -7 -10 -15z m-587 -45 c9 -18
9 -26 -2 -37 -25 -25 -45 -16 -45 20 0 53 24 62 47 17z m83 0 c0 -5 -4 -10
-10 -10 -5 0 -10 5 -10 10 0 6 5 10 10 10 6 0 10 -4 10 -10z m-710 -10 c0 -5
-5 -10 -11 -10 -5 0 -7 5 -4 10 3 6 8 10 11 10 2 0 4 -4 4 -10z m1520 -30 c0
-5 -6 -10 -14 -10 -8 0 -18 5 -21 10 -3 6 3 10 14 10 12 0 21 -4 21 -10z
m-650 -10 c0 -7 -115 -40 -140 -40 -30 0 6 20 46 26 25 3 41 10 35 13 -6 4 5
7 24 8 19 1 35 -2 35 -7z m3850 0 c0 -5 -4 -10 -10 -10 -5 0 -10 5 -10 10 0 6
5 10 10 10 6 0 10 -4 10 -10z m-978 -67 c-2 -7 -9 -13 -14 -13 -6 0 -7 7 -4
16 3 9 6 25 7 37 1 20 2 20 8 -3 4 -14 6 -31 3 -37z m435 51 c-3 -3 -12 -4
-19 -1 -8 3 -5 6 6 6 11 1 17 -2 13 -5z m96 -11 c-7 -2 -19 -2 -25 0 -7 3 -2
5 12 5 14 0 19 -2 13 -5z m64 -9 c-3 -3 -12 -4 -19 -1 -8 3 -5 6 6 6 11 1 17
-2 13 -5z m-3777 -14 c0 -5 -4 -10 -10 -10 -5 0 -10 5 -10 10 0 6 5 10 10 10
6 0 10 -4 10 -10z m2630 1 c0 -4 63 -18 140 -31 l140 -23 0 -29 c0 -16 4 -37
9 -47 11 -20 4 -61 -10 -61 -5 0 -9 6 -9 14 0 9 -7 12 -19 9 -15 -4 -18 0 -14
20 8 43 -39 51 -242 45 -51 -1 -104 5 -100 12 2 3 -10 4 -28 2 -42 -6 -35 0
48 42 l70 36 -70 2 -70 1 65 7 c36 4 71 7 78 8 6 1 12 -2 12 -7z m1197 3 c-3
-3 -12 -4 -19 -1 -8 3 -5 6 6 6 11 1 17 -2 13 -5z m-262 -34 c13 -5 14 -9 5
-9 -8 0 -24 4 -35 9 -13 5 -14 9 -5 9 8 0 24 -4 35 -9z m402 -22 c-3 -8 -6 -5
-6 6 -1 11 2 17 5 13 3 -3 4 -12 1 -19z m-2692 2 c3 -5 2 -10 -4 -10 -5 0 -13
5 -16 10 -3 6 -2 10 4 10 5 0 13 -4 16 -10z m-1057 -42 c-3 -41 -4 -43 -51
-56 -27 -8 -51 -11 -54 -9 -6 6 88 106 100 106 5 1 7 -18 5 -41z m1219 24 c8
-5 7 -12 -4 -27 -15 -19 -15 -19 -8 5 6 20 5 23 -6 13 -18 -18 -33 -16 -17 2
15 17 19 17 35 7z m136 -22 c9 -10 8 -12 -5 -7 -10 4 -18 2 -18 -3 0 -6 -8
-10 -17 -10 -16 -1 -16 -2 2 -17 l20 -16 -20 8 c-11 4 -35 11 -52 17 -42 11
-43 28 -2 28 17 0 28 4 24 10 -9 14 54 5 68 -10z m-1990 -6 c42 -7 60 -24 25
-24 -31 0 -137 26 -146 35 -7 7 46 2 121 -11z m1745 4 c8 -8 15 -8 26 1 10 8
16 9 21 1 3 -5 1 -10 -6 -10 -8 0 -7 -5 2 -17 12 -16 12 -17 -1 -7 -8 6 -27
14 -42 18 -16 3 -28 11 -28 16 0 13 13 13 28 -2z m305 5 c-7 -2 -21 -2 -30 0
-10 3 -4 5 12 5 17 0 24 -2 18 -5z m800 0 c-13 -2 -33 -2 -45 0 -13 2 -3 4 22
4 25 0 35 -2 23 -4z m747 -15 c14 -6 54 -11 90 -13 68 -4 292 -34 299 -41 2
-2 -13 -4 -35 -4 -39 -1 -39 -1 -14 -15 14 -8 33 -14 43 -15 33 0 17 -18 -28
-29 -25 -6 -45 -16 -45 -21 0 -13 57 -13 65 0 7 12 92 12 120 0 15 -7 9 -9
-25 -9 -25 -1 -56 -8 -68 -17 -12 -8 -22 -11 -22 -5 0 5 8 15 18 20 16 10 16
10 0 11 -9 0 -21 -7 -26 -16 -8 -15 -29 -14 -233 15 -285 40 -272 37 -264 61
3 10 7 37 8 60 l1 41 46 -7 c25 -4 56 -11 70 -16z m-3225 -18 c-10 -11 -31
-20 -47 -20 -42 0 -34 16 15 27 23 6 44 11 46 12 2 0 -4 -8 -14 -19z m1175 0
c0 -10 -31 -22 -38 -15 -3 3 0 5 7 5 7 0 11 7 8 14 -4 10 -1 13 9 9 7 -3 14
-9 14 -13z m610 10 c0 -5 -4 -10 -10 -10 -5 0 -10 5 -10 10 0 6 5 10 10 10 6
0 10 -4 10 -10z m2217 -12 c-3 -8 -6 -5 -6 6 -1 11 2 17 5 13 3 -3 4 -12 1
-19z m-5144 -3 c20 -4 37 -11 37 -15 0 -5 23 -11 50 -15 28 -4 50 -10 50 -14
0 -4 23 -7 50 -7 28 0 56 -6 62 -12 7 -7 27 -12 45 -12 40 0 43 -17 6 -31 -22
-8 -50 -5 -133 16 -58 15 -145 36 -195 47 -49 11 -94 24 -99 28 -26 25 38 32
127 15z m2782 5 c-3 -5 -14 -10 -23 -9 -14 0 -13 2 3 9 27 11 27 11 20 0z
m1118 3 c-7 -2 -19 -2 -25 0 -7 3 -2 5 12 5 14 0 19 -2 13 -5z m-1247 -15 c3
-4 -8 -8 -25 -8 -16 0 -32 4 -36 9 -3 5 8 9 25 9 17 -1 33 -5 36 -10z m574 8
c0 -2 -7 -6 -15 -10 -8 -3 -15 -1 -15 4 0 6 7 10 15 10 8 0 15 -2 15 -4z m807
-13 c3 -7 -4 -11 -16 -10 -12 1 -21 4 -21 8 0 4 -8 10 -17 13 -10 2 -3 4 16 3
19 -1 36 -7 38 -14z m-754 0 c-7 -2 -19 -2 -25 0 -7 3 -2 5 12 5 14 0 19 -2
13 -5z m-2307 -46 l67 -13 -49 -31 c-51 -32 -121 -59 -131 -49 -3 3 -8 26 -11
52 -5 49 8 68 40 58 10 -3 47 -11 84 -17z m1874 13 c0 -5 -4 -10 -10 -10 -5 0
-10 5 -10 10 0 6 5 10 10 10 6 0 10 -4 10 -10z m1973 3 c-7 -2 -21 -2 -30 0
-10 3 -4 5 12 5 17 0 24 -2 18 -5z m-2797 -80 c-2 -32 -4 -82 -5 -111 -1 -37
-5 -54 -16 -59 -9 -3 -18 -3 -21 -1 -7 8 29 228 38 228 4 0 6 -26 4 -57z m233
0 c35 -172 39 -203 25 -203 -7 0 -11 -6 -8 -14 3 -7 14 -11 27 -9 12 2 54 -10
92 -28 l70 -32 -45 -9 c-35 -6 -52 -4 -80 9 -19 10 -36 21 -38 26 -2 4 -14 7
-27 7 -26 0 -30 18 -41 190 -3 52 -6 97 -6 100 -1 13 3 20 11 20 4 0 14 -26
20 -57z m-84 -10 c3 -32 11 -88 16 -125 11 -70 8 -88 -16 -88 -9 0 -12 6 -8
16 5 13 2 15 -17 9 -15 -5 -20 -4 -16 4 5 7 1 9 -8 5 -9 -3 -16 -1 -16 4 0 6
-10 12 -22 14 -25 3 -24 -2 -18 138 2 36 5 68 7 73 2 4 24 7 48 7 l44 0 6 -57z
m-775 28 c0 -25 -14 -41 -36 -41 -27 0 -105 -36 -116 -54 -15 -22 -8 -53 15
-64 20 -10 19 -11 -10 -6 -25 3 -33 1 -33 -11 0 -9 7 -18 15 -21 14 -6 13 -8
-1 -19 -12 -8 -14 -14 -6 -19 7 -4 17 -4 22 -1 6 3 10 -1 10 -9 0 -8 -8 -14
-19 -13 -11 0 -19 6 -18 12 1 5 -10 11 -25 13 -16 2 -28 8 -28 14 0 6 11 8 25
6 29 -6 34 7 6 15 -11 3 -28 -3 -39 -14 -16 -14 -21 -15 -26 -4 -2 7 -1 16 5
19 5 2 4 3 -2 2 -15 -3 -21 -34 -8 -42 11 -6 2 -24 -12 -24 -6 0 -7 5 -4 10 3
6 0 13 -9 16 -8 3 -13 11 -10 19 4 8 -3 11 -20 10 -37 -4 -41 11 -6 23 22 8
28 16 25 31 -2 13 4 26 16 35 16 11 17 15 5 19 -8 3 -25 4 -38 1 -12 -2 0 4
27 15 28 11 60 20 72 20 12 1 23 5 25 10 3 9 157 59 186 60 6 1 12 -3 12 -8z
m3537 -17 c-3 -3 -12 -4 -19 -1 -8 3 -5 6 6 6 11 1 17 -2 13 -5z m206 -36 c-4
-8 -33 -11 -33 -4 0 2 3 11 6 20 5 12 9 13 19 3 7 -7 11 -15 8 -19z m-3425
-20 c-6 -18 -25 -21 -25 -3 0 8 7 15 15 15 7 0 12 -5 10 -12z m3852 -8 c0 -5
-4 -10 -10 -10 -5 0 -10 5 -10 10 0 6 5 10 10 10 6 0 10 -4 10 -10z m-35 -29
c-3 -6 -11 -11 -16 -11 -5 0 -4 6 3 14 14 16 24 13 13 -3z m-1439 -14 c12 -11
52 -8 56 4 5 14 127 -4 137 -19 3 -5 26 -12 50 -16 24 -4 52 -13 63 -20 19
-14 19 -14 -2 -21 -12 -4 -35 -1 -51 5 -18 8 -50 10 -82 7 -29 -4 -46 -3 -39
2 22 14 -45 33 -115 34 -51 1 -63 4 -63 17 0 17 32 21 46 7z m-3654 -52 c7 -8
-12 -97 -24 -112 -6 -7 -21 -13 -33 -13 -30 0 -41 17 -39 61 2 60 9 69 52 69
21 0 41 -2 44 -5z m3655 -20 c-14 -14 -47 -8 -47 9 0 8 11 11 29 8 23 -3 27
-7 18 -17z m1543 8 c-14 -9 -28 -22 -32 -27 -5 -7 -8 -4 -8 7 0 10 10 22 23
27 36 14 43 11 17 -7z m-4373 -15 c-3 -8 -6 -5 -6 6 -1 11 2 17 5 13 3 -3 4
-12 1 -19z m346 5 c25 -8 21 -22 -9 -33 -39 -15 -44 -13 -44 21 0 26 3 30 18
24 9 -4 25 -10 35 -12z m-113 -27 c0 -36 -26 -58 -36 -31 -9 23 5 65 21 65 10
0 15 -11 15 -34z m-90 14 c0 -3 -6 -12 -12 -19 -10 -11 -10 -13 0 -7 8 5 12 0
12 -17 0 -22 -10 -29 -82 -65 -10 -5 3 71 15 86 5 6 6 12 1 13 -5 0 0 4 11 9
22 9 55 9 55 0z m-1084 -85 c5 -33 3 -35 -68 -64 -33 -13 -36 -27 -8 -36 18
-6 18 -8 5 -21 -16 -16 -20 -28 -7 -20 4 2 14 1 22 -4 12 -7 11 -12 -6 -27
-11 -10 -23 -26 -27 -35 -3 -10 -16 -18 -27 -18 -11 0 -20 -6 -20 -13 0 -8
-11 -19 -25 -25 -35 -16 -38 -15 -32 8 3 11 2 20 -3 20 -9 0 -40 130 -40 169
0 23 8 31 48 51 26 12 59 34 75 48 15 15 40 31 55 37 24 10 28 9 40 -14 7 -13
15 -39 18 -56z m3851 79 c-3 -3 -12 -4 -19 -1 -8 3 -5 6 6 6 11 1 17 -2 13 -5z
m246 -1 c-7 -2 -21 -2 -30 0 -10 3 -4 5 12 5 17 0 24 -2 18 -5z m-3343 -17 c0
-8 -14 -18 -31 -21 -23 -5 -28 -9 -18 -16 11 -7 11 -9 1 -9 -8 0 -22 10 -32
23 -17 20 -17 23 -2 29 32 13 82 9 82 -6z m114 -39 c-3 -9 -14 -18 -23 -19 -9
0 -21 -2 -28 -2 -6 -1 -15 -5 -19 -9 -10 -10 -34 -9 -34 2 0 5 10 12 23 16 20
7 32 10 64 14 7 0 10 8 6 19 -4 13 -3 14 6 6 6 -6 9 -18 5 -27z m2285 27 c35
-7 37 -30 2 -27 -11 2 -21 -2 -21 -7 0 -13 -80 -13 -100 0 -8 5 -12 10 -10 12
45 29 71 33 129 22z m916 -4 l30 -8 -30 0 c-16 0 -39 3 -50 8 l-20 9 20 -1
c11 0 34 -4 50 -8z m1452 4 c-3 -3 -12 -4 -19 -1 -8 3 -5 6 6 6 11 1 17 -2 13
-5z m-4757 -24 c0 -5 -9 -10 -20 -10 -11 0 -20 5 -20 10 0 6 9 10 20 10 11 0
20 -4 20 -10z m3497 -14 c4 -3 -10 -6 -30 -6 -20 0 -37 4 -37 10 0 10 56 7 67
-4z m-3334 -5 c12 -2 8 -21 -6 -21 -7 0 -24 -11 -39 -25 -32 -29 -58 -33 -58
-7 0 13 2 14 9 3 10 -16 31 -6 31 15 0 8 7 14 16 14 10 0 14 6 11 14 -4 9 0
13 11 11 9 -2 20 -4 25 -4z m1320 -8 c-7 -2 -19 -2 -25 0 -7 3 -2 5 12 5 14 0
19 -2 13 -5z m30 -20 c-7 -2 -19 -2 -25 0 -7 3 -2 5 12 5 14 0 19 -2 13 -5z
m-1529 -18 c-7 -17 -39 -20 -49 -6 -3 5 5 12 17 14 13 2 26 5 30 6 4 0 5 -6 2
-14z m176 -5 c0 -5 -2 -10 -4 -10 -3 0 -8 5 -11 10 -3 6 -1 10 4 10 6 0 11 -4
11 -10z m1517 -6 c47 -18 58 -44 18 -44 -14 0 -25 4 -25 9 0 5 -19 18 -42 29
-36 18 -39 21 -18 22 13 0 44 -7 67 -16z m-2487 -28 c0 -3 -4 -8 -10 -11 -5
-3 -10 -1 -10 4 0 6 5 11 10 11 6 0 10 -2 10 -4z m3222 -18 c-7 -7 -12 -8 -12
-2 0 14 12 26 19 19 2 -3 -1 -11 -7 -17z m603 -5 c19 -12 18 -13 -7 -13 -36 0
-58 10 -58 25 0 15 34 9 65 -12z m-650 8 c-12 -12 -65 -25 -65 -17 0 8 39 24
60 25 9 1 10 -2 5 -8z m-92 -8 c-7 -2 -19 -2 -25 0 -7 3 -2 5 12 5 14 0 19 -2
13 -5z m-3349 -45 c4 -24 16 -80 28 -126 20 -81 20 -83 2 -97 -21 -16 -90 -20
-98 -7 -3 5 15 21 39 37 33 20 45 34 45 52 0 15 -4 22 -11 17 -6 -3 -9 -15 -6
-25 3 -11 1 -17 -3 -14 -5 3 -22 -6 -38 -20 -16 -14 -34 -25 -39 -25 -4 0 -14
-9 -21 -20 -12 -19 -10 -20 35 -20 27 0 55 -5 63 -10 12 -8 9 -10 -12 -10 -20
0 -28 -5 -28 -18 0 -12 -14 -26 -37 -37 -21 -10 -46 -22 -57 -27 -10 -6 -34
-11 -53 -13 -54 -5 -52 -15 3 -16 l49 0 -45 -21 c-25 -11 -61 -21 -80 -22 -34
-1 -35 0 -31 34 1 19 6 37 10 40 3 3 11 14 17 25 6 11 22 26 35 32 l24 13 -29
0 -29 0 21 19 c12 10 22 23 22 29 0 5 7 13 16 16 8 3 13 10 9 15 -3 6 4 15 16
22 17 9 19 13 8 20 -11 7 -10 11 6 23 11 9 23 16 28 16 4 0 7 11 7 25 0 14 7
28 15 31 8 4 13 10 10 15 -3 4 6 16 20 25 13 9 23 20 20 24 -6 10 33 40 51 40
6 0 14 -19 18 -42z m296 22 c-20 -13 -33 -13 -25 0 3 6 14 10 23 10 15 0 15
-2 2 -10z m2568 -10 c31 -14 56 -18 90 -14 43 5 45 4 25 -8 -23 -14 -23 -14
-3 -28 20 -14 20 -15 -12 -27 l-33 -13 40 6 c38 5 39 4 19 -10 -26 -19 -64
-10 -64 15 0 17 -8 19 -87 19 -64 0 -99 -6 -128 -19 -36 -16 -101 -78 -133
-127 -7 -10 -5 -4 4 15 9 18 33 51 55 72 25 24 34 40 26 43 -7 3 -1 3 12 0 13
-3 21 -2 18 3 -3 5 6 10 21 11 36 3 49 18 22 27 -12 4 -27 2 -33 -4 -14 -14
-47 -14 -47 -1 0 6 11 15 25 20 14 5 25 14 25 19 0 24 104 25 158 1z m1382 10
c12 -8 10 -10 -10 -10 -18 0 -21 -3 -11 -9 11 -7 9 -10 -8 -16 -11 -3 -26 -3
-33 2 -7 4 -20 8 -28 9 -45 3 -51 5 -46 13 3 5 24 9 47 9 23 1 44 3 47 6 8 9
25 7 42 -4z m1181 1 c-8 -5 -10 -14 -6 -22 6 -11 5 -11 -5 -2 -14 12 -6 33 13
33 8 0 7 -3 -2 -9z m-1124 -17 c-3 -3 -12 -4 -19 -1 -8 3 -5 6 6 6 11 1 17 -2
13 -5z m-1222 -22 c-3 -3 -11 0 -18 7 -9 10 -8 11 6 5 10 -3 15 -9 12 -12z
m1250 8 c3 -5 1 -10 -4 -10 -6 0 -11 5 -11 10 0 6 2 10 4 10 3 0 8 -4 11 -10z
m-800 -20 c3 -6 -4 -10 -17 -10 -18 0 -20 -2 -8 -10 8 -5 10 -10 4 -10 -6 0
-18 8 -25 17 -10 11 -10 14 -1 9 6 -4 12 -2 12 3 0 14 27 14 35 1z m-425 -13
c22 -18 23 -37 2 -37 -11 0 -24 11 -30 25 -13 28 1 34 28 12z m243 -24 c-7 -2
-21 -2 -30 0 -10 3 -4 5 12 5 17 0 24 -2 18 -5z m-53 -7 c0 -2 -9 -6 -20 -9
-11 -3 -20 -1 -20 4 0 5 9 9 20 9 11 0 20 -2 20 -4z m1347 -2 c-3 -3 -12 -4
-19 -1 -8 3 -5 6 6 6 11 1 17 -2 13 -5z m-2039 -29 c3 -3 -4 -15 -15 -28 -27
-29 -83 -137 -83 -159 0 -10 -4 -18 -10 -18 -5 0 -7 7 -4 15 4 10 0 15 -16 15
-11 0 -18 5 -15 10 3 6 -2 10 -12 11 -16 0 -16 1 2 9 11 5 16 9 10 9 -5 1 -3
6 5 11 13 8 13 10 -1 10 -9 0 -22 7 -29 15 -11 14 -1 15 70 6 2 -1 -1 -6 -8
-13 -7 -7 -12 -23 -12 -37 l0 -26 20 30 c26 40 25 52 -5 59 -30 8 -24 26 7 26
21 0 21 0 2 21 -18 20 -18 21 1 36 19 13 79 13 93 -2z m530 6 c19 -1 14 -21
-5 -21 -15 0 -16 -2 -3 -10 8 -6 31 -8 50 -5 19 3 42 1 50 -5 12 -7 8 -10 -15
-10 -16 0 -40 -3 -52 -6 -14 -4 -28 1 -42 15 -12 12 -28 21 -37 21 -8 0 -22 7
-30 15 -14 13 -11 15 28 11 24 -3 49 -5 56 -5z m96 3 c16 -6 23 -34 9 -34 -15
1 -43 27 -36 33 8 8 8 8 27 1z m-266 -26 c-8 -5 1 -6 24 -2 26 4 44 1 59 -10
22 -15 19 -16 -49 -13 -66 2 -72 4 -72 23 0 17 5 20 26 16 19 -3 22 -7 12 -14z
m-650 -26 c19 -6 39 -9 46 -6 7 3 19 -2 26 -11 12 -15 9 -16 -34 -10 -26 3
-45 2 -43 -2 3 -5 -18 -9 -46 -11 -28 -1 -61 -9 -73 -17 -13 -8 -31 -15 -39
-15 -15 0 -15 -2 0 -17 11 -10 19 -12 23 -6 4 6 18 14 32 18 21 6 23 5 12 -6
-11 -12 -5 -16 35 -26 45 -11 46 -12 11 -10 -21 2 -38 -1 -38 -5 0 -4 -7 -8
-15 -8 -8 0 -15 4 -15 9 0 13 -62 23 -74 11 -5 -5 -18 -10 -29 -10 -25 0 -11
-20 16 -21 16 -1 17 -3 5 -6 -22 -6 -58 14 -58 32 0 8 -8 19 -17 24 -22 13
-11 22 57 48 25 10 52 25 60 35 19 21 78 37 105 28 11 -4 35 -12 53 -18z
m-2182 -7 c-25 -19 -41 -19 -24 0 7 8 20 14 28 14 11 0 10 -3 -4 -14z m2319 5
c16 -7 13 -9 -17 -9 -20 -1 -40 4 -43 9 -7 12 32 12 60 0z m-1008 -16 c-3 -3
-12 -4 -19 -1 -8 3 -5 6 6 6 11 1 17 -2 13 -5z m1490 -36 c-3 -8 -6 -5 -6 6
-1 11 2 17 5 13 3 -3 4 -12 1 -19z m-512 -9 c10 -16 -1 -22 -26 -14 -17 6 -19
9 -8 16 19 12 26 11 34 -2z m771 -4 c-3 -8 -2 -14 2 -14 17 3 32 -2 32 -9 0
-10 -57 -9 -66 1 -7 7 17 36 30 37 4 0 6 -7 2 -15z m452 -17 c-3 -29 -6 -33
-33 -33 -24 0 -29 4 -27 20 4 22 29 45 50 45 9 0 12 -10 10 -32z m121 21 c18
-6 31 -18 31 -27 0 -15 -2 -15 -10 -2 -9 14 -15 7 -11 -14 1 -5 -4 -4 -13 3
-10 8 -16 9 -21 1 -3 -5 -15 -10 -26 -10 -13 0 -19 7 -19 23 0 39 14 45 69 26z
m-4159 -9 c0 -5 -4 -10 -10 -10 -5 0 -10 5 -10 10 0 6 5 10 10 10 6 0 10 -4
10 -10z m3364 -5 c3 -8 1 -15 -4 -15 -6 0 -10 7 -10 15 0 8 2 15 4 15 2 0 6
-7 10 -15z m-3400 -27 c-3 -4 -13 -8 -24 -8 -13 0 -17 5 -13 19 4 17 8 18 23
8 10 -6 16 -15 14 -19z m3852 17 c17 -17 12 -18 -37 -8 -28 5 -30 7 -14 14 29
11 35 11 51 -6z m57 -12 c-7 -2 -19 -2 -25 0 -7 3 -2 5 12 5 14 0 19 -2 13 -5z
m-353 -13 c0 -5 11 -10 25 -10 14 0 25 -4 25 -10 0 -12 -50 -13 -69 -1 -7 5
-10 14 -7 20 9 14 26 14 26 1z m-163 -55 c-8 -20 -37 -19 -37 1 0 10 6 14 15
10 8 -3 15 0 15 6 0 6 3 9 6 5 4 -3 4 -13 1 -22z m-538 9 c26 -5 29 -9 19 -21
-10 -12 -7 -13 15 -8 21 6 27 4 27 -9 0 -17 -38 -45 -85 -62 -16 -6 -39 -15
-50 -19 -20 -8 -20 -8 -2 13 18 20 18 20 -2 15 -12 -3 -21 -9 -21 -14 0 -10
-34 -12 -79 -3 -43 9 -28 26 17 19 32 -5 34 -4 15 6 -22 11 -21 12 14 30 20
10 53 22 72 25 52 9 60 18 26 25 -16 4 -23 7 -14 8 9 0 31 -2 48 -5z m111 -4
c0 -5 -2 -10 -4 -10 -3 0 -8 5 -11 10 -3 6 -1 10 4 10 6 0 11 -4 11 -10z m573
3 c10 -10 -13 -32 -28 -27 -7 3 -16 1 -20 -5 -3 -6 -23 -11 -43 -10 l-37 1 34
10 c18 5 40 16 48 24 15 15 35 18 46 7z m200 0 c-7 -2 -19 -2 -25 0 -7 3 -2 5
12 5 14 0 19 -2 13 -5z m-146 -9 c-3 -3 -12 -4 -19 -1 -8 3 -5 6 6 6 11 1 17
-2 13 -5z m543 -24 c0 -5 -4 -10 -10 -10 -5 0 -10 5 -10 10 0 6 5 10 10 10 6
0 10 -4 10 -10z m-739 -14 c-9 -11 -9 -15 1 -19 7 -3 3 -6 -9 -6 -22 -1 -34
-21 -12 -21 5 0 7 -4 4 -10 -13 -21 -25 -9 -25 24 0 24 5 36 18 39 31 8 35 7
23 -7z m-3071 -22 c0 -2 -7 -4 -15 -4 -8 0 -15 4 -15 10 0 5 7 7 15 4 8 -4 15
-8 15 -10z m3530 -25 c0 -4 -7 -6 -15 -3 -8 4 -15 10 -15 15 0 4 7 6 15 3 8
-4 15 -10 15 -15z m860 6 c-7 -8 -17 -15 -22 -15 -6 0 -5 7 2 15 7 8 17 15 22
15 6 0 5 -7 -2 -15z m-3790 -9 c0 -2 -11 -6 -25 -8 -14 -3 -25 -1 -25 3 0 5
11 9 25 9 14 0 25 -2 25 -4z m72 -14 c-7 -2 -12 -10 -12 -17 0 -7 -11 -15 -25
-17 l-24 -5 27 26 c15 15 31 25 37 22 5 -3 4 -6 -3 -9z m3833 8 c3 -5 1 -10
-4 -10 -6 0 -11 5 -11 10 0 6 2 10 4 10 3 0 8 -4 11 -10z m-4038 -6 c-3 -3
-12 -4 -19 -1 -8 3 -5 6 6 6 11 1 17 -2 13 -5z m-37 -16 c0 -4 -7 -8 -16 -8
-8 0 -13 -4 -9 -10 4 -6 15 -6 32 1 22 8 47 7 142 -6 8 -1 17 -7 19 -13 2 -7
10 -12 18 -12 8 0 14 -4 14 -10 0 -5 7 -10 15 -10 8 0 15 -4 15 -9 0 -5 -7
-11 -15 -15 -8 -3 -15 -1 -15 3 0 5 -11 4 -25 -2 -29 -14 -33 -27 -6 -27 10 0
24 -6 30 -14 10 -12 8 -14 -16 -12 -15 2 -32 0 -38 -4 -5 -4 -19 -10 -30 -13
-13 -3 -10 -5 12 -6 17 0 38 -8 47 -16 18 -18 56 -20 56 -2 0 17 20 -14 20
-32 0 -9 -8 -12 -25 -9 -16 3 -25 1 -25 -7 0 -7 -6 -12 -12 -12 -21 2 -127
-23 -248 -58 -63 -18 -131 -36 -150 -39 l-35 -5 35 19 c19 10 43 19 53 20 10
0 17 8 17 20 0 12 -7 20 -17 21 -10 1 -1 6 20 11 20 6 37 14 37 19 0 5 7 9 15
9 20 0 19 10 -2 26 -17 12 -17 13 -1 14 9 0 24 -7 33 -16 11 -11 24 -14 42 -9
27 6 27 6 -12 24 -39 17 -39 18 -18 29 12 7 32 12 45 13 22 0 22 1 3 9 -19 8
-18 9 5 11 14 1 39 1 56 0 18 -1 35 2 39 8 4 7 -15 11 -57 11 -52 0 -67 4 -81
21 -12 13 -16 27 -11 37 14 31 12 53 -3 48 -8 -3 -11 -1 -8 4 7 11 55 9 55 -2z
m2185 -36 c-3 -3 -5 0 -5 6 0 18 -38 14 -49 -5 -10 -17 -12 -17 -25 0 -7 9
-19 17 -27 18 -8 0 -3 5 11 10 14 6 37 8 53 5 17 -4 27 -1 28 7 0 6 5 1 10
-12 5 -13 7 -26 4 -29z m882 42 c-3 -3 -12 -4 -19 -1 -8 3 -5 6 6 6 11 1 17
-2 13 -5z m-334 -11 c-7 -2 -19 -2 -25 0 -7 3 -2 5 12 5 14 0 19 -2 13 -5z
m1349 -15 c31 -11 43 -34 23 -42 -8 -3 -17 3 -20 15 -4 10 -11 19 -16 19 -6 0
-7 -4 -4 -10 12 -19 -21 -10 -54 15 l-34 24 39 -5 c21 -3 51 -10 66 -16z
m-4143 3 c10 -7 7 -9 -12 -8 -14 1 -23 5 -20 10 6 9 15 9 32 -2z m2676 -2 c-4
-6 -1 -10 6 -8 27 3 94 -3 77 -8 -10 -2 -18 -8 -18 -13 0 -4 -6 -8 -12 -7 -41
1 -56 -6 -68 -30 -20 -44 -22 -73 -2 -66 13 5 12 2 -4 -20 -37 -51 -44 -28
-19 67 15 58 31 96 41 96 3 0 2 -5 -1 -11z m-3195 -18 c-8 -5 -36 -11 -62 -14
-39 -5 -46 -4 -42 8 5 11 22 15 63 15 35 0 50 -4 41 -9z m3793 -11 c4 -4 -3
-6 -17 -6 -14 1 -31 8 -38 15 -11 10 -7 11 17 5 17 -3 34 -10 38 -14z m-1579
4 c9 -3 13 -10 10 -16 -3 -5 -11 -5 -19 2 -9 8 -15 8 -20 0 -3 -5 0 -10 7 -10
7 -1 24 -10 37 -21 23 -19 23 -20 5 -34 -23 -17 -34 -19 -34 -5 0 6 7 10 15
10 8 0 15 4 15 10 0 9 -14 14 -61 22 -13 2 -15 8 -8 26 8 22 24 27 53 16z
m575 -49 c1 -5 -6 -2 -15 7 -10 9 -13 21 -8 29 5 9 9 8 15 -7 4 -10 8 -23 8
-29z m1798 39 c-3 -3 -12 -4 -19 -1 -8 3 -5 6 6 6 11 1 17 -2 13 -5z m-2660
-16 c4 9 12 7 30 -8 14 -11 33 -20 41 -20 13 0 12 -3 -3 -14 -18 -13 -18 -14
8 -9 15 3 27 9 27 14 0 5 36 9 80 9 85 0 101 -10 48 -30 -70 -26 -79 -30 -74
-39 4 -5 -3 -7 -14 -4 -11 3 -20 9 -20 14 0 14 -83 10 -110 -6 -14 -8 -33 -14
-43 -15 -19 0 -94 -46 -115 -70 -60 -71 -122 -204 -142 -307 -7 -35 -17 -63
-21 -63 -12 0 -1 51 33 155 31 95 54 138 101 192 44 50 21 40 -39 -17 -29 -27
-51 -50 -49 -50 2 0 -10 -30 -27 -67 -18 -38 -39 -101 -47 -142 -9 -43 -22
-76 -30 -79 -11 -4 -12 5 -6 44 4 27 10 54 14 59 4 6 20 42 36 80 15 39 30 76
32 83 4 10 -2 11 -23 6 -16 -4 -34 -11 -41 -16 -8 -7 -10 -3 -6 11 3 12 11 17
19 14 8 -3 14 0 14 7 0 8 -9 10 -25 6 -14 -4 -25 -2 -25 4 0 5 10 11 23 11 12
1 32 3 44 4 14 1 20 -2 16 -11 -10 -25 12 -14 39 20 21 26 23 33 10 31 -52
-11 -122 -13 -122 -5 0 6 10 10 23 10 18 0 19 2 7 10 -10 6 -11 10 -2 10 6 0
12 7 12 15 0 8 -7 15 -15 15 -8 0 -15 -7 -15 -15 0 -8 -4 -15 -10 -15 -5 0 -7
7 -4 15 4 10 0 15 -11 15 -11 0 -15 -5 -11 -15 3 -9 -1 -18 -10 -22 -13 -5
-13 -7 -2 -14 9 -6 7 -9 -9 -9 -17 0 -20 4 -16 23 3 12 12 30 20 39 8 9 12 22
8 27 -3 6 1 11 9 11 19 0 21 16 4 23 -10 3 -9 9 4 22 10 11 23 15 33 11 15 -5
15 -9 4 -23 -11 -13 -11 -17 -1 -20 18 -7 4 -23 -21 -23 -44 -1 9 -20 72 -26
54 -6 61 -5 61 11 0 14 3 15 15 5 10 -8 13 -21 8 -39 l-6 -26 27 24 c14 14 26
30 26 37 0 7 16 16 35 20 19 3 32 10 29 16 -3 5 -20 6 -37 2 -28 -6 -30 -5
-18 9 7 9 10 21 6 27 -3 5 1 10 9 10 8 0 19 7 24 16 13 23 84 45 101 31 11 -9
15 -9 18 1z m2020 6 c-3 -3 -12 -4 -19 -1 -8 3 -5 6 6 6 11 1 17 -2 13 -5z
m-98 -7 c-2 -1 -13 -9 -24 -17 -19 -14 -19 -14 -6 3 7 9 18 17 24 17 6 0 8 -1
6 -3z m904 -47 c5 0 8 -3 5 -6 -13 -13 -45 19 -40 40 5 19 6 18 15 -7 5 -15
14 -27 20 -27z m-725 31 c20 -12 11 -55 -12 -59 -18 -4 -19 -3 -3 13 21 20 21
20 1 39 -16 17 -8 21 14 7z m-3503 -11 c-3 -5 -16 -10 -28 -9 -21 0 -21 1 -2
9 28 12 37 12 30 0z m381 -4 c17 -13 17 -15 3 -21 -22 -8 -82 8 -87 23 -5 17
60 15 84 -2z m4045 -26 c-13 -11 -28 -20 -33 -20 -6 0 0 9 13 20 13 10 29 19
34 19 6 0 -1 -9 -14 -19z m-1120 -7 c13 -16 12 -17 -3 -4 -10 7 -18 15 -18 17
0 8 8 3 21 -13z m286 -3 c-1 -11 -5 -20 -10 -20 -4 0 -5 -4 -2 -10 3 -5 2 -10
-3 -10 -4 0 -16 -16 -26 -36 -21 -45 -29 -39 -20 16 9 55 65 111 61 60z m586
-52 c-2 -29 -5 -80 -6 -113 -2 -69 -16 -89 -79 -111 -35 -12 -44 -12 -74 2
-56 27 -58 36 -19 93 67 97 165 203 176 189 3 -4 4 -31 2 -60z m-4156 56 c-3
-3 -12 -4 -19 -1 -8 3 -5 6 6 6 11 1 17 -2 13 -5z m530 -22 c47 -18 51 -27 28
-52 -13 -15 -13 -23 5 -75 16 -46 17 -60 8 -67 -9 -5 -7 -8 7 -8 25 -1 53 -38
60 -81 3 -18 8 -36 11 -40 3 -5 -11 -7 -30 -6 -19 1 -36 -2 -36 -8 -3 -20 -33
-45 -55 -45 -29 0 -37 10 -22 28 8 11 8 14 0 9 -6 -4 -23 -2 -38 5 -23 10 -26
16 -20 44 5 27 2 34 -15 39 -11 3 -20 11 -20 16 0 5 -5 9 -11 9 -7 0 -9 -10
-4 -27 21 -82 29 -74 -120 -126 -55 -19 -114 -41 -131 -48 -28 -11 -33 -10
-52 9 -12 12 -22 26 -22 31 0 5 21 23 48 40 26 17 52 35 58 40 24 20 72 39
127 51 31 6 55 15 52 20 -3 5 -16 5 -31 0 -18 -7 -24 -7 -22 3 2 6 -2 13 -7
13 -18 3 -35 -8 -35 -22 0 -16 -16 -17 -78 -5 -23 5 -72 5 -108 2 -71 -8 -76
-5 -94 59 -8 27 -7 28 64 48 39 11 98 23 131 27 33 4 73 14 88 22 22 11 32 12
43 2 16 -13 19 -55 4 -64 -16 -10 -12 -42 6 -49 9 -3 27 3 41 14 14 11 21 20
15 20 -6 0 -17 -7 -26 -15 -8 -8 -17 -11 -20 -6 -3 5 1 14 9 21 7 6 11 18 8
26 -3 9 2 14 15 14 12 0 23 4 27 9 3 5 19 12 36 16 17 4 42 13 57 21 23 12 24
14 7 14 -11 0 -32 -6 -46 -14 -14 -7 -41 -16 -60 -20 -34 -6 -35 -5 -62 50
-16 31 -26 59 -23 61 25 26 164 22 233 -5z m3771 11 c-10 -2 -28 -2 -40 0 -13
2 -5 4 17 4 22 1 32 -1 23 -4z m-2684 -12 c3 -5 -1 -12 -10 -15 -8 -3 -13 -2
-9 3 3 5 -1 12 -7 14 -8 4 -7 6 4 6 9 1 19 -3 22 -8z m114 -9 c2 -7 -3 -12
-11 -12 -9 0 -22 -7 -31 -15 -10 -10 -24 -13 -41 -9 -38 9 -45 28 -7 21 38 -8
53 9 20 23 -19 7 -15 9 21 6 25 -1 47 -8 49 -14z m979 -2 c-1 -12 -5 -16 -10
-11 -5 5 -6 14 -3 20 11 16 15 13 13 -9z m483 16 c0 -2 -7 -6 -15 -10 -8 -3
-15 -1 -15 4 0 6 7 10 15 10 8 0 15 -2 15 -4z m173 -3 c-7 -2 -21 -2 -30 0
-10 3 -4 5 12 5 17 0 24 -2 18 -5z m50 0 c-7 -2 -19 -2 -25 0 -7 3 -2 5 12 5
14 0 19 -2 13 -5z m-2229 -24 c15 -14 -2 -23 -18 -10 -11 9 -20 10 -36 1 -23
-12 -50 -7 -50 9 0 21 82 21 104 0z m-1438 -14 c-8 -8 -17 -15 -20 -15 -3 0
-6 7 -6 15 0 9 9 15 21 15 18 0 19 -2 5 -15z m1794 -27 c0 -5 -7 -8 -15 -8
-10 0 -15 10 -15 27 0 26 1 26 15 7 8 -10 15 -22 15 -26z m210 22 c0 -5 -4
-10 -10 -10 -5 0 -10 5 -10 10 0 6 5 10 10 10 6 0 10 -4 10 -10z m-2085 -10
c-3 -5 -11 -10 -16 -10 -6 0 -7 5 -4 10 3 6 11 10 16 10 6 0 7 -4 4 -10z
m-155 -11 c0 -6 -7 -8 -17 -5 -9 4 -20 1 -25 -6 -5 -9 -8 -9 -8 -1 0 6 -9 9
-22 5 -14 -3 -19 -2 -14 6 9 15 86 16 86 1z m1215 -20 c5 -5 -1 -9 -17 -9 -15
0 -30 -4 -33 -10 -6 -10 5 -13 40 -11 17 2 18 0 5 -9 -12 -9 -10 -10 10 -8 14
1 39 -7 56 -19 17 -13 35 -19 40 -15 5 3 5 2 -1 -4 -15 -16 -125 -55 -136 -48
-6 3 -16 0 -24 -6 -12 -10 -18 -10 -31 0 -33 28 -53 90 -28 90 8 0 14 5 14 10
0 6 7 10 15 10 28 0 15 18 -22 31 l-38 13 30 6 c33 7 105 -6 120 -21z m908 24
c-7 -2 -19 -2 -25 0 -7 3 -2 5 12 5 14 0 19 -2 13 -5z m136 -9 c10 -3 11 -7 2
-18 -8 -10 -9 -16 -1 -21 5 -3 10 -12 10 -18 0 -8 -3 -7 -9 2 -5 8 -16 11 -26
7 -21 -8 -44 15 -42 42 1 21 14 22 66 6z m-2069 -8 c0 -2 -7 -6 -15 -10 -8 -3
-15 -1 -15 4 0 6 7 10 15 10 8 0 15 -2 15 -4z m1140 -16 c-8 -5 -17 -7 -19 -4
-3 3 1 9 9 14 8 5 17 7 19 4 3 -3 -1 -9 -9 -14z m834 -8 c2 -4 -5 -9 -17 -9
-17 -2 -19 0 -7 7 18 12 18 12 24 2z m-2154 -12 c0 -5 -13 -10 -30 -10 -16 0
-30 5 -30 10 0 6 14 10 30 10 17 0 30 -4 30 -10z m1385 -20 c-3 -5 -12 -10
-18 -10 -7 0 -6 4 3 10 19 12 23 12 15 0z m4034 -118 c-24 -39 -37 -52 -54
-52 -5 0 -4 4 3 9 11 6 10 10 -4 15 -11 4 -20 2 -22 -3 -6 -17 -32 -13 -32 4
0 9 -9 15 -21 15 -17 0 -19 -3 -10 -14 9 -11 1 -14 -41 -19 -30 -4 -57 -2 -62
3 -7 7 -1 10 17 10 16 0 27 6 27 13 0 15 68 39 83 30 6 -4 8 0 4 9 -5 13 0 14
35 6 22 -5 41 -7 42 -6 8 13 27 64 26 67 -1 2 4 8 12 12 24 15 22 -57 -3 -99z
m-1738 55 c-16 -16 -25 -1 -10 16 8 8 16 11 18 5 2 -5 -2 -15 -8 -21z m-3245
-9 c6 -18 13 -40 15 -47 3 -11 -13 -18 -61 -27 -55 -10 -73 -10 -117 4 -54 16
-63 25 -40 39 13 9 166 61 182 62 6 1 15 -14 21 -31z m1029 -7 c-3 -12 -12
-21 -18 -20 -21 2 -63 17 -50 18 7 1 10 8 6 18 -5 13 -2 15 11 10 10 -4 23 -7
29 -7 7 0 6 -5 -3 -11 -13 -9 -13 -10 0 -6 8 2 14 12 13 22 -1 11 2 14 9 7 5
-5 7 -19 3 -31z m565 19 c0 -5 -2 -10 -4 -10 -3 0 -8 5 -11 10 -3 6 -1 10 4
10 6 0 11 -4 11 -10z m35 0 c3 -5 1 -10 -4 -10 -6 0 -11 5 -11 10 0 6 2 10 4
10 3 0 8 -4 11 -10z m1399 -16 c3 -8 2 -12 -4 -9 -6 3 -10 10 -10 16 0 14 7
11 14 -7z m-324 -10 c14 -8 17 -13 8 -10 -10 3 -18 1 -18 -4 0 -14 -27 -12
-36 2 -5 7 -3 8 6 3 10 -6 12 -4 7 8 -8 21 0 21 33 1z m237 -16 c-3 -8 -6 -5
-6 6 -1 11 2 17 5 13 3 -3 4 -12 1 -19z m-1988 -5 c6 -13 4 -22 -7 -32 -13
-13 -14 -12 -9 11 5 17 3 28 -6 31 -9 4 -9 6 0 6 7 1 16 -7 22 -16z m801 7
c12 -7 10 -9 -8 -7 -12 0 -22 5 -22 9 0 11 12 10 30 -2z m185 -28 c-3 -3 -11
0 -18 7 -9 10 -8 11 6 5 10 -3 15 -9 12 -12z m1100 -22 c-3 -6 -10 -10 -16
-10 -7 0 -7 12 1 50 0 3 5 -3 11 -13 5 -9 7 -22 4 -27z m-2160 20 c-3 -5 -11
-10 -16 -10 -6 0 -7 5 -4 10 3 6 11 10 16 10 6 0 7 -4 4 -10z m905 6 c0 -2 -7
-7 -16 -10 -8 -3 -12 -2 -9 4 6 10 25 14 25 6z m-42 -20 c-2 -1 -11 -7 -20
-14 -14 -11 -16 -10 -11 7 3 12 11 17 19 14 8 -3 14 -6 12 -7z m144 3 c-4 -4
-18 -9 -32 -13 -14 -3 -19 -3 -11 0 11 5 11 8 0 15 -9 6 -3 8 18 6 18 -1 29
-5 25 -8z m1087 -1 c14 5 14 4 2 -11 -19 -24 -41 -21 -41 5 0 16 3 19 11 11 6
-6 19 -9 28 -5z m1784 5 c-7 -2 -19 -2 -25 0 -7 3 -2 5 12 5 14 0 19 -2 13 -5z
m-4518 -16 c-58 -40 -116 -68 -126 -61 -7 4 -9 3 -6 -3 11 -17 -23 -25 -97
-23 -87 2 -114 12 -112 41 1 17 9 25 31 31 17 4 46 11 65 16 19 6 87 10 150
11 99 1 112 -1 95 -12z m605 -7 c0 -12 -8 -12 -35 0 -18 8 -17 9 8 9 15 1 27
-3 27 -9z m50 0 c-8 -5 -19 -10 -25 -10 -5 0 -3 5 5 10 8 5 20 10 25 10 6 0 3
-5 -5 -10z m-1030 -31 c0 -4 -7 -9 -15 -13 -8 -3 -15 -1 -15 5 0 6 -7 6 -19
-1 -11 -5 -26 -10 -33 -10 -7 1 -1 8 15 16 15 8 27 19 27 24 0 6 9 5 20 -2 11
-7 20 -16 20 -19z m3135 21 c3 -5 -1 -10 -10 -10 -9 0 -13 5 -10 10 3 6 8 10
10 10 2 0 7 -4 10 -10z m-2215 -10 c0 -5 -7 -10 -16 -10 -8 0 -12 5 -9 10 3 6
10 10 16 10 5 0 9 -4 9 -10z m205 0 c-3 -5 -11 -10 -16 -10 -6 0 -7 5 -4 10 3
6 11 10 16 10 6 0 7 -4 4 -10z m810 -10 c3 -5 -3 -10 -15 -10 -12 0 -18 5 -15
10 3 6 10 10 15 10 5 0 12 -4 15 -10z m3148 -10 c-29 -13 -44 -27 -49 -44 -7
-28 -24 -35 -24 -11 0 21 46 63 73 68 42 8 42 5 0 -13z m-3903 -4 c0 -2 -13
-6 -30 -8 -16 -3 -30 -1 -30 4 0 4 14 8 30 8 17 0 30 -2 30 -4z m-1258 -34
c29 5 55 14 56 19 6 16 19 10 25 -11 11 -42 -111 -99 -245 -115 -36 -4 -58 -3
-58 3 0 6 -10 8 -22 5 -29 -7 -22 0 21 22 30 15 33 15 28 1 -9 -24 8 -19 34 9
13 13 32 25 41 25 10 0 22 9 28 20 6 11 8 20 4 20 -3 0 -1 7 7 16 12 14 14 14
20 -4 7 -18 12 -19 61 -10z m1141 4 c-4 -20 -8 -22 -18 -13 -11 10 -11 14 3
25 21 16 20 16 15 -12z m3932 14 c-3 -5 -13 -10 -21 -10 -8 0 -14 5 -14 10 0
6 9 10 21 10 11 0 17 -4 14 -10z m-5325 -14 c0 -3 -4 -8 -10 -11 -5 -3 -10 -1
-10 4 0 6 5 11 10 11 6 0 10 -2 10 -4z m1209 -13 c8 8 11 5 9 -16 -3 -33 -14
-34 -39 -5 -24 27 -24 31 -1 19 13 -7 23 -6 31 2z m856 -9 c-9 -9 -19 -13 -23
-10 -3 4 0 11 8 16 24 15 33 11 15 -6z m313 3 c9 4 13 1 10 -7 -2 -7 -13 -17
-25 -21 -18 -6 -21 -4 -19 16 0 14 5 20 10 15 5 -5 15 -6 24 -3z m-2411 -3
c-3 -3 -12 -4 -19 -1 -8 3 -5 6 6 6 11 1 17 -2 13 -5z m987 -9 c-6 -16 -64
-14 -64 2 0 8 13 12 34 11 22 -1 33 -5 30 -13z m1316 11 c0 -3 -4 -8 -10 -11
-5 -3 -10 -1 -10 4 0 6 5 11 10 11 6 0 10 -2 10 -4z m3010 -8 c0 -7 -7 -22
-15 -32 -12 -16 -19 -18 -40 -8 -29 14 -32 27 -7 41 24 14 62 13 62 -1z
m-4769 -19 c8 -17 8 -23 -2 -30 -9 -5 -5 -10 14 -14 22 -6 25 -10 17 -25 -7
-13 -6 -20 1 -22 17 -6 -19 -38 -42 -38 -10 0 -19 -4 -19 -9 0 -5 -8 -11 -17
-15 -10 -3 -24 -9 -30 -12 -19 -9 -15 17 5 33 15 13 15 14 -10 9 -22 -5 -26
-3 -22 9 4 8 1 15 -5 15 -6 0 -11 -4 -11 -10 0 -5 -7 -10 -15 -10 -8 0 -12 -6
-10 -13 4 -9 -10 -13 -47 -14 l-53 -2 0 32 c0 18 4 38 9 46 7 11 5 13 -7 8 -9
-3 -19 -2 -22 3 -4 6 -2 10 3 10 5 0 29 16 53 34 41 33 49 35 121 35 69 1 79
-1 89 -20z m1579 1 c-8 -5 -19 -10 -25 -10 -5 0 -3 5 5 10 8 5 20 10 25 10 6
0 3 -5 -5 -10z m-1060 -10 c0 -5 -7 -10 -15 -10 -8 0 -15 -7 -15 -15 0 -8 9
-15 20 -15 11 0 20 -3 20 -6 0 -15 -22 -44 -35 -44 -7 0 -16 -6 -18 -12 -4
-10 -8 -9 -16 2 -10 13 -12 12 -11 -5 1 -3 -6 -13 -15 -22 -9 -8 -14 -17 -12
-20 8 -7 57 9 57 18 0 5 7 9 16 9 8 0 12 5 9 10 -3 6 1 10 9 10 9 0 16 4 16
10 0 5 13 7 28 4 19 -4 32 -1 41 10 8 9 18 16 24 16 5 0 18 10 29 23 18 20 20
21 16 2 -1 -11 2 -20 9 -20 6 0 15 -3 19 -7 4 -4 -10 -7 -30 -6 -23 1 -43 -5
-54 -15 -13 -14 -14 -17 -2 -17 8 -1 -1 -9 -20 -19 -19 -10 -40 -17 -47 -14
-13 5 -69 -11 -121 -34 -31 -15 -58 -10 -37 5 12 9 35 53 38 73 2 14 26 49 57
87 13 14 40 16 40 2z m4733 -27 c-7 -2 -19 -2 -25 0 -7 3 -2 5 12 5 14 0 19
-2 13 -5z m-5566 -61 l-22 -13 22 6 c33 9 35 -10 2 -22 -27 -10 -30 -9 -35 13
-5 20 -12 24 -42 24 -50 0 -33 11 30 19 59 7 81 -6 45 -27z m2500 6 c-3 -7 -5
-2 -5 12 0 14 2 19 5 13 2 -7 2 -19 0 -25z m-2888 8 c-9 -8 -99 -13 -99 -5 0
4 21 9 48 11 46 3 59 2 51 -6z m4601 -1 c0 -2 -10 -9 -22 -15 -22 -11 -22 -10
-4 4 21 17 26 19 26 11z m1200 1 c0 -2 -9 -6 -20 -9 -11 -3 -18 -1 -14 4 5 9
34 13 34 5z m-5630 -16 c-20 -13 -50 -13 -50 0 0 6 15 10 33 10 24 0 28 -3 17
-10z m130 -5 c0 -6 -73 -55 -83 -55 -5 0 -2 7 7 15 8 8 17 15 21 15 4 0 13 7
21 15 15 14 34 20 34 10z m3075 -38 c22 -6 46 -10 53 -8 7 1 12 -2 11 -6 -5
-30 3 -41 29 -39 15 0 27 -3 27 -9 0 -5 -7 -8 -15 -6 -8 1 -30 -16 -50 -38
-32 -38 -40 -42 -96 -47 -38 -4 -68 -2 -80 4 -16 9 -10 11 33 12 60 0 89 10
121 39 30 29 28 53 -7 74 -47 27 -111 32 -175 12 -46 -15 -57 -23 -62 -44 -3
-14 -10 -37 -15 -51 -6 -18 -7 -13 -3 20 7 56 19 68 86 91 52 18 64 17 143 -4z
m281 4 c44 -27 84 -83 79 -109 -5 -30 -20 -54 -46 -77 -12 -11 -19 -15 -16 -9
4 7 -3 15 -16 19 -19 6 -19 8 -4 12 18 5 24 23 7 23 -5 0 -10 5 -10 10 0 6 7
10 16 10 14 0 14 3 4 15 -9 11 -16 13 -24 5 -15 -15 -36 -12 -36 5 0 9 6 12
16 8 12 -4 15 -2 12 8 -3 8 -24 17 -49 20 -24 3 -38 7 -30 7 31 4 2 15 -79 31
-24 4 -31 9 -22 15 17 10 106 -2 151 -22 20 -9 41 -15 48 -14 14 3 53 -45 54
-67 0 -12 2 -11 8 4 10 25 -15 60 -71 98 -46 31 -40 37 8 8z m1071 -33 c2 -28
-4 -52 -18 -75 -20 -32 -22 -33 -35 -16 -7 10 -14 21 -14 25 0 4 -11 24 -25
44 -31 45 -21 62 38 66 23 2 44 2 47 0 2 -2 6 -21 7 -44z m-4377 22 c0 -5 -4
-10 -10 -10 -5 0 -10 5 -10 10 0 6 5 10 10 10 6 0 10 -4 10 -10z m74 -3 c24
-24 28 -55 9 -65 -36 -19 -193 -70 -193 -62 0 8 40 26 83 36 29 7 36 28 12 38
-18 6 -9 36 11 36 8 0 17 7 20 15 7 18 41 20 58 2z m-304 -7 c0 -5 -5 -10 -11
-10 -5 0 -7 5 -4 10 3 6 8 10 11 10 2 0 4 -4 4 -10z m75 -10 c3 -5 -3 -10 -14
-10 -12 0 -21 -4 -21 -10 0 -5 5 -10 11 -10 6 0 9 -7 5 -15 -3 -10 1 -16 12
-16 16 -2 27 -3 62 -8 10 -2 7 -6 -8 -12 -29 -11 -69 -2 -76 17 -3 8 -15 14
-26 14 -11 0 -20 3 -20 8 1 11 30 47 30 37 0 -5 5 -4 12 3 15 15 25 15 33 2z
m1325 1 c0 -5 -9 -7 -20 -4 -11 3 -20 7 -20 9 0 2 9 4 20 4 11 0 20 -4 20 -9z
m-313 -28 c0 -7 -3 -13 -7 -13 -3 0 -14 -13 -23 -30 -20 -33 -48 -41 -40 -11
2 10 15 23 29 29 14 7 21 17 18 25 -3 8 1 14 9 14 7 0 14 -6 14 -14z m-109
-37 c-24 -24 -58 -41 -58 -28 0 21 34 52 56 52 l25 0 -23 -24z m-318 10 c0 -2
-7 -6 -15 -10 -8 -3 -15 -1 -15 4 0 6 7 10 15 10 8 0 15 -2 15 -4z m2770 -6
c0 -5 -2 -10 -4 -10 -3 0 -8 5 -11 10 -3 6 -1 10 4 10 6 0 11 -4 11 -10z
m-640 -10 c0 -5 -2 -10 -4 -10 -3 0 -8 5 -11 10 -3 6 -1 10 4 10 6 0 11 -4 11
-10z m-686 -9 c3 -5 -1 -11 -9 -15 -9 -3 -15 0 -15 9 0 16 16 20 24 6z m1296
-2 c0 -7 14 -8 39 -4 24 4 42 2 46 -4 4 -7 -5 -12 -22 -12 -24 -2 -25 -2 -5
-6 13 -3 21 -10 19 -16 -3 -7 -11 -10 -18 -8 -8 3 -27 5 -44 6 -62 4 -65 5
-65 26 0 15 5 19 15 15 8 -3 15 -1 15 4 0 6 5 10 10 10 6 0 10 -5 10 -11z
m-3375 -14 c14 -3 25 -9 25 -14 0 -5 -19 -5 -42 0 -24 4 -49 8 -56 9 -7 0 -10
5 -7 10 3 6 17 8 31 5 13 -3 35 -7 49 -10z m3071 -12 c-6 -6 -36 9 -36 18 0 5
9 4 20 -3 10 -7 18 -14 16 -15z m-2188 -21 c2 -7 -6 -12 -17 -12 -12 0 -24 0
-28 -1 -17 -1 -13 20 4 24 24 6 36 3 41 -11z m2102 4 c0 -16 -27 -29 -42 -19
-7 3 -8 1 -4 -5 3 -6 -3 -16 -15 -22 -15 -8 -19 -9 -15 -1 4 6 2 11 -3 11 -23
0 -9 22 22 35 41 18 57 18 57 1z m40 10 c0 -11 -19 -15 -25 -6 -3 5 1 10 9 10
9 0 16 -2 16 -4z m-3065 -16 c-3 -5 -10 -10 -16 -10 -5 0 -9 5 -9 10 0 6 7 10
16 10 8 0 12 -4 9 -10z m1025 0 c0 -5 -2 -10 -4 -10 -3 0 -8 5 -11 10 -3 6 -1
10 4 10 6 0 11 -4 11 -10z m2360 -33 c0 -18 -2 -19 -10 -7 -13 20 -13 43 0 35
6 -3 10 -16 10 -28z m-1801 -21 c-9 -8 -10 -7 -5 7 3 10 7 24 7 30 1 7 3 4 6
-7 3 -10 -1 -23 -8 -30z m1884 14 c13 -12 -5 -19 -36 -13 -15 3 -27 12 -27 19
0 11 7 13 28 8 15 -4 31 -10 35 -14z m1197 10 c0 -5 -5 -10 -11 -10 -5 0 -7 5
-4 10 3 6 8 10 11 10 2 0 4 -4 4 -10z m-3780 -36 c0 -16 -16 -19 -25 -4 -8 13
4 32 16 25 5 -4 9 -13 9 -21z m2660 11 c-7 -8 -17 -15 -23 -15 -6 0 -2 7 9 15
25 19 30 19 14 0z m1150 -6 c0 -11 -4 -17 -10 -14 -5 3 -10 13 -10 21 0 8 5
14 10 14 6 0 10 -9 10 -21z"/>
<path d="M440 4047 c0 -8 3 -16 6 -20 8 -8 34 3 34 15 0 5 -4 6 -10 3 -5 -3
-10 -1 -10 4 0 6 -4 11 -10 11 -5 0 -10 -6 -10 -13z"/>
<path d="M410 4040 c0 -5 5 -10 10 -10 6 0 10 5 10 10 0 6 -4 10 -10 10 -5 0
-10 -4 -10 -10z"/>
<path d="M3310 3643 c0 -12 5 -25 10 -28 13 -8 13 15 0 35 -8 12 -10 11 -10
-7z"/>
<path d="M3780 3628 c0 -36 4 -35 14 5 4 16 2 27 -4 27 -5 0 -10 -14 -10 -32z"/>
<path d="M3693 3643 c-22 -8 -14 -20 12 -20 14 0 25 3 25 7 0 11 -22 18 -37
13z"/>
<path d="M3741 3623 c0 -6 -4 -20 -7 -30 -5 -14 -4 -15 5 -7 7 7 11 20 8 30
-3 11 -5 14 -6 7z"/>
<path d="M3810 3583 c0 -18 5 -33 10 -33 13 0 13 30 0 50 -7 11 -10 7 -10 -17z"/>
<path d="M3435 3139 c-4 -6 -5 -12 -2 -15 2 -3 7 2 10 11 7 17 1 20 -8 4z"/>
<path d="M6320 3751 c0 -5 10 -12 23 -14 12 -2 2 -5 -22 -6 -61 -2 -47 -10 25
-15 33 -3 67 -6 75 -8 9 -2 15 7 17 25 3 27 3 27 -57 27 -34 0 -61 -4 -61 -9z"/>
<path d="M6026 3743 c-3 -3 -5 -31 -5 -62 1 -31 3 -48 6 -38 2 9 9 17 14 17
11 0 12 77 0 84 -4 3 -11 3 -15 -1z"/>
<path d="M6022 3530 c0 -19 2 -27 5 -17 2 9 2 25 0 35 -3 9 -5 1 -5 -18z"/>
<path d="M6362 3460 c0 -14 2 -19 5 -12 2 6 2 18 0 25 -3 6 -5 1 -5 -13z"/>
<path d="M6345 3420 c-19 -8 -19 -9 3 -9 12 -1 22 4 22 9 0 6 -1 10 -2 9 -2 0
-12 -4 -23 -9z"/>
<path d="M6011 3373 c-1 -24 4 -43 9 -43 12 0 12 24 0 60 -7 21 -8 19 -9 -17z"/>
<path d="M6363 3362 c-13 -2 -23 -7 -23 -11 0 -5 -30 -9 -66 -9 -37 -1 -69 -4
-72 -7 -3 -3 15 -5 40 -5 24 0 70 -5 102 -11 31 -7 59 -10 61 -7 3 2 6 15 7
27 3 25 -8 30 -49 23z"/>
<path d="M6168 3333 c7 -3 16 -2 19 1 4 3 -2 6 -13 5 -11 0 -14 -3 -6 -6z"/>
<path d="M5810 3229 c30 -5 76 -7 103 -4 27 3 47 2 47 -4 0 -11 -63 -21 -125
-20 -22 0 -69 -4 -105 -8 -54 -7 -65 -11 -68 -28 -3 -19 3 -20 90 -20 51 0
125 -4 163 -8 39 -4 93 -10 120 -13 36 -4 46 -2 35 5 -10 7 -11 11 -2 11 7 0
12 14 12 38 l0 38 -40 -4 c-31 -3 -40 -1 -38 9 2 11 -22 14 -122 15 -105 2
-116 0 -70 -7z"/>
<path d="M6110 3230 c0 -6 7 -10 15 -10 8 0 15 2 15 4 0 2 -7 6 -15 10 -8 3
-15 1 -15 -4z"/>
<path d="M5975 2970 c3 -5 11 -10 16 -10 6 0 7 5 4 10 -3 6 -11 10 -16 10 -6
0 -7 -4 -4 -10z"/>
<path d="M7121 3535 c-2 -16 -4 -34 -6 -40 -1 -5 -3 -24 -3 -42 -2 -24 -7 -33
-24 -36 -20 -4 -19 -4 4 -6 33 -1 41 20 35 100 -2 31 -5 41 -6 24z"/>
<path d="M6830 3446 c0 -31 3 -36 23 -35 18 1 19 2 4 6 -14 4 -18 11 -14 29 2
14 0 27 -4 30 -5 3 -9 -11 -9 -30z"/>
<path d="M879 3491 c-26 -27 -30 -48 -8 -54 20 -5 26 7 8 18 -6 5 -4 11 7 19
9 7 15 17 13 23 -2 6 -11 3 -20 -6z"/>
<path d="M920 3440 c0 -5 5 -10 10 -10 6 0 10 5 10 10 0 6 -4 10 -10 10 -5 0
-10 -4 -10 -10z"/>
<path d="M1031 3324 c0 -11 3 -14 6 -6 3 7 2 16 -1 19 -3 4 -6 -2 -5 -13z"/>
<path d="M2220 2240 c-13 -9 -13 -10 0 -10 8 0 22 5 30 10 13 9 13 10 0 10 -8
0 -22 -5 -30 -10z"/>
<path d="M2085 2160 c-3 -5 -2 -10 4 -10 5 0 13 5 16 10 3 6 2 10 -4 10 -5 0
-13 -4 -16 -10z"/>
<path d="M1305 2105 c-5 -2 -23 -6 -38 -9 -38 -9 -24 -26 21 -26 50 0 84 10
79 24 -4 11 -43 18 -62 11z"/>
<path d="M2765 2040 c3 -5 8 -10 11 -10 2 0 4 5 4 10 0 6 -5 10 -11 10 -5 0
-7 -4 -4 -10z"/>
<path d="M2800 2000 c0 -5 5 -10 11 -10 5 0 7 5 4 10 -3 6 -8 10 -11 10 -2 0
-4 -4 -4 -10z"/>
<path d="M2915 2000 c3 -5 14 -10 23 -10 15 0 15 2 2 10 -20 13 -33 13 -25 0z"/>
<path d="M2868 1982 c18 -9 32 -19 32 -24 0 -4 20 -8 45 -8 28 0 45 -5 45 -12
0 -6 3 -8 7 -5 3 4 -1 15 -10 25 -10 10 -14 23 -10 27 5 5 -4 1 -19 -8 -28
-17 -58 -14 -58 7 0 8 -13 13 -32 13 l-32 0 32 -15z"/>
<path d="M3464 1885 c11 -8 25 -15 32 -15 7 0 20 -3 30 -7 12 -4 15 -3 10 5
-4 7 -18 12 -31 12 -13 0 -27 5 -30 10 -3 6 -12 10 -18 10 -7 0 -3 -7 7 -15z"/>
<path d="M3450 1855 c7 -8 16 -15 21 -15 5 0 6 7 3 15 -4 8 -13 15 -21 15 -13
0 -13 -3 -3 -15z"/>
<path d="M3508 1843 c6 -2 18 -2 25 0 6 3 1 5 -13 5 -14 0 -19 -2 -12 -5z"/>
<path d="M3595 1840 c-3 -5 -1 -10 4 -10 6 0 11 5 11 10 0 6 -2 10 -4 10 -3 0
-8 -4 -11 -10z"/>
<path d="M3520 1813 c-13 -15 -12 -16 4 -10 10 4 22 7 27 7 5 0 9 5 9 10 0 15
-23 11 -40 -7z"/>
<path d="M3408 1813 c6 -2 18 -2 25 0 6 3 1 5 -13 5 -14 0 -19 -2 -12 -5z"/>
<path d="M3455 1810 c3 -5 13 -10 21 -10 8 0 12 5 9 10 -3 6 -13 10 -21 10 -8
0 -12 -4 -9 -10z"/>
<path d="M3388 1763 c7 -3 16 -2 19 1 4 3 -2 6 -13 5 -11 0 -14 -3 -6 -6z"/>
<path d="M3415 1750 c-3 -6 1 -7 9 -4 18 7 21 14 7 14 -6 0 -13 -4 -16 -10z"/>
<path d="M3598 1733 c7 -3 16 -2 19 1 4 3 -2 6 -13 5 -11 0 -14 -3 -6 -6z"/>
<path d="M3560 1700 c0 -5 9 -10 20 -10 11 0 20 5 20 10 0 6 -9 10 -20 10 -11
0 -20 -4 -20 -10z"/>
<path d="M3618 1693 c7 -3 16 -2 19 1 4 3 -2 6 -13 5 -11 0 -14 -3 -6 -6z"/>
<path d="M3235 1680 c-3 -5 1 -10 9 -10 8 0 18 5 21 10 3 6 -1 10 -9 10 -8 0
-18 -4 -21 -10z"/>
<path d="M3510 1680 c-8 -5 -10 -10 -5 -10 6 0 17 5 25 10 8 5 11 10 5 10 -5
0 -17 -5 -25 -10z"/>
<path d="M3710 1670 c0 -6 -7 -10 -16 -10 -11 0 -14 -6 -8 -22 9 -31 9 -31 33
-18 24 12 28 45 6 54 -8 3 -15 1 -15 -4z"/>
<path d="M3990 1666 c0 -8 71 -46 86 -46 16 0 18 9 5 28 -5 9 -17 11 -34 6
-17 -4 -27 -2 -27 5 0 6 -7 11 -15 11 -8 0 -15 -2 -15 -4z"/>
<path d="M3300 1640 c0 -5 7 -7 15 -4 8 4 15 8 15 10 0 2 -7 4 -15 4 -8 0 -15
-4 -15 -10z"/>
<path d="M3295 1560 c11 -5 34 -8 50 -8 29 0 29 0 5 8 -14 4 -36 8 -50 8 -23
1 -23 0 -5 -8z"/>
<path d="M3388 1563 c7 -3 16 -2 19 1 4 3 -2 6 -13 5 -11 0 -14 -3 -6 -6z"/>
<path d="M3718 1563 c6 -2 18 -2 25 0 6 3 1 5 -13 5 -14 0 -19 -2 -12 -5z"/>
<path d="M3215 1540 c-3 -5 3 -10 15 -10 12 0 18 5 15 10 -3 6 -10 10 -15 10
-5 0 -12 -4 -15 -10z"/>
<path d="M3600 1450 c0 -5 5 -10 11 -10 5 0 7 5 4 10 -3 6 -8 10 -11 10 -2 0
-4 -4 -4 -10z"/>
<path d="M3735 1450 c3 -5 10 -10 16 -10 5 0 9 5 9 10 0 6 -7 10 -16 10 -8 0
-12 -4 -9 -10z"/>
<path d="M3270 1969 c0 -5 5 -7 10 -4 6 3 10 8 10 11 0 2 -4 4 -10 4 -5 0 -10
-5 -10 -11z"/>
<path d="M2910 1540 c0 -13 20 -13 40 0 12 8 9 10 -12 10 -16 0 -28 -4 -28
-10z"/>
<path d="M400 1130 c-13 -9 -13 -10 0 -10 8 0 22 5 30 10 13 9 13 10 0 10 -8
0 -22 -5 -30 -10z"/>
<path d="M2706 1201 c-3 -5 2 -11 12 -13 11 -3 19 0 19 8 0 16 -23 19 -31 5z"/>
<path d="M2655 1140 c3 -5 8 -10 11 -10 2 0 4 5 4 10 0 6 -5 10 -11 10 -5 0
-7 -4 -4 -10z"/>
<path d="M2886 1029 c5 -9 74 -17 74 -8 0 4 -18 9 -39 11 -22 2 -37 0 -35 -3z"/>
<path d="M897 915 c-11 -7 -25 -11 -33 -8 -8 3 -14 0 -14 -6 0 -13 39 -14 59
-2 7 5 12 13 10 19 -3 7 -11 6 -22 -3z"/>
<path d="M878 783 c7 -3 16 -2 19 1 4 3 -2 6 -13 5 -11 0 -14 -3 -6 -6z"/>
<path d="M931 761 c-9 -6 -10 -11 -2 -15 14 -9 51 2 51 15 0 11 -30 12 -49 0z"/>
<path d="M1018 763 c6 -2 18 -2 25 0 6 3 1 5 -13 5 -14 0 -19 -2 -12 -5z"/>
<path d="M3008 943 c7 -3 16 -2 19 1 4 3 -2 6 -13 5 -11 0 -14 -3 -6 -6z"/>
<path d="M1327 783 c-13 -12 -7 -23 13 -23 11 0 20 7 20 15 0 15 -21 21 -33 8z"/>
<path d="M1260 750 c0 -5 5 -10 10 -10 6 0 10 5 10 10 0 6 -4 10 -10 10 -5 0
-10 -4 -10 -10z"/>
<path d="M1245 660 l-20 -9 20 0 c11 0 27 4 35 9 13 9 13 10 0 9 -8 0 -24 -4
-35 -9z"/>
<path d="M1038 643 c7 -3 16 -2 19 1 4 3 -2 6 -13 5 -11 0 -14 -3 -6 -6z"/>
<path d="M1088 633 c7 -3 16 -2 19 1 4 3 -2 6 -13 5 -11 0 -14 -3 -6 -6z"/>
<path d="M960 619 c0 -5 5 -7 10 -4 6 3 10 8 10 11 0 2 -4 4 -10 4 -5 0 -10
-5 -10 -11z"/>
<path d="M1330 620 c-9 -6 -10 -10 -3 -10 6 0 15 5 18 10 8 12 4 12 -15 0z"/>
<path d="M1005 610 c-19 -8 -19 -9 2 -9 12 -1 30 -4 40 -8 17 -6 17 -6 1 10
-9 9 -18 17 -20 16 -2 0 -12 -4 -23 -9z"/>
<path d="M1072 608 c5 -15 28 -18 29 -3 0 6 -7 12 -17 13 -10 3 -15 -1 -12
-10z"/>
<path d="M1327 588 c6 -11 45 -9 63 2 11 7 4 9 -27 8 -22 -2 -39 -6 -36 -10z"/>
<path d="M1280 579 c0 -5 5 -7 10 -4 6 3 10 8 10 11 0 2 -4 4 -10 4 -5 0 -10
-5 -10 -11z"/>
<path d="M938 563 c7 -3 16 -2 19 1 4 3 -2 6 -13 5 -11 0 -14 -3 -6 -6z"/>
<path d="M1387 523 c-13 -3 -16 -11 -11 -31 9 -36 12 -39 19 -16 4 10 11 27
16 37 9 17 7 18 -24 10z"/>
<path d="M1448 523 c7 -3 16 -2 19 1 4 3 -2 6 -13 5 -11 0 -14 -3 -6 -6z"/>
<path d="M871 501 c-8 -5 -21 -7 -29 -4 -8 4 -22 -4 -33 -18 -26 -34 -23 -44
6 -25 13 9 33 16 44 16 11 0 23 5 26 10 3 6 15 10 26 10 10 0 19 5 19 10 0 12
-40 13 -59 1z"/>
<path d="M758 483 c7 -3 16 -2 19 1 4 3 -2 6 -13 5 -11 0 -14 -3 -6 -6z"/>
<path d="M820 370 c0 -5 5 -10 11 -10 5 0 7 5 4 10 -3 6 -8 10 -11 10 -2 0 -4
-4 -4 -10z"/>
<path d="M858 323 c7 -3 16 -2 19 1 4 3 -2 6 -13 5 -11 0 -14 -3 -6 -6z"/>
<path d="M460 4530 c0 -5 -7 -7 -15 -4 -10 4 -15 0 -15 -14 0 -34 11 -52 31
-52 16 0 18 -2 7 -14 -9 -10 -15 -11 -20 -2 -4 6 -8 -6 -8 -26 0 -29 4 -38 18
-39 28 -2 47 2 50 12 2 4 9 3 17 -4 7 -7 11 -16 8 -20 -5 -8 30 -47 42 -47 3
0 5 11 5 25 0 14 -5 25 -10 25 -7 0 -7 7 0 21 17 30 8 144 -10 144 -8 1 -18
-4 -22 -9 -4 -6 -13 -5 -22 3 -13 11 -16 11 -16 -3 0 -9 -4 -16 -10 -16 -5 0
-10 7 -10 15 0 8 -4 15 -10 15 -5 0 -10 -4 -10 -10z m103 -65 c-3 -9 -8 -14
-10 -11 -3 3 -2 9 2 15 9 16 15 13 8 -4z m-23 -37 c0 -4 -9 -6 -20 -5 -23 2
-24 3 -7 21 11 13 26 4 27 -16z"/>
<path d="M637 4529 c7 -7 15 -10 18 -7 3 3 -2 9 -12 12 -14 6 -15 5 -6 -5z"/>
<path d="M1324 4413 c1 -71 5 -134 10 -141 5 -9 0 -22 -13 -36 -24 -26 -41
-96 -23 -96 6 0 9 -7 6 -15 -14 -34 7 -123 35 -156 l29 -32 13 21 c8 12 24 22
36 22 12 0 25 5 28 10 7 12 -20 58 -44 76 -12 10 -11 13 8 24 13 7 37 9 56 6
19 -4 36 -3 39 2 3 5 -27 12 -66 16 -61 5 -72 4 -83 -11 -8 -10 -17 -15 -21
-10 -15 14 34 47 71 47 19 0 35 5 35 10 0 6 -7 10 -15 10 -8 0 -19 9 -25 20
-6 11 -17 20 -25 20 -16 0 -17 41 0 52 7 5 6 8 -1 8 -11 0 -11 11 2 84 6 31 4
37 -6 31 -9 -5 -11 -4 -6 3 11 18 9 118 -3 141 -7 11 -18 21 -25 21 -11 0 -13
-26 -12 -127z"/>
<path d="M1500 4463 c0 -57 -4 -81 -17 -95 -9 -10 -12 -18 -7 -18 14 0 44 38
44 55 0 7 20 33 45 56 24 23 42 46 38 51 -3 6 1 14 8 19 9 5 -9 9 -48 9 l-63
0 0 -77z m27 25 c-3 -8 -6 -5 -6 6 -1 11 2 17 5 13 3 -3 4 -12 1 -19z"/>
<path d="M1638 4512 c-33 -52 -43 -67 -48 -72 -3 -3 -21 -25 -40 -50 -19 -25
-38 -46 -42 -48 -4 -2 -8 -13 -8 -24 0 -15 -4 -18 -21 -13 -16 5 -19 4 -14 -6
6 -8 4 -11 -6 -7 -10 4 -15 -1 -15 -12 0 -14 8 -18 28 -18 29 1 37 12 16 22
-7 3 -3 3 8 1 15 -4 26 2 37 17 9 13 30 39 46 58 70 80 113 130 132 154 l20
26 -38 0 c-31 0 -41 -5 -55 -28z"/>
<path d="M1709 4478 c-30 -35 -58 -66 -63 -69 -10 -8 1 -29 14 -29 5 0 7 6 4
14 -3 7 6 20 20 29 40 27 107 98 100 108 -10 17 -22 9 -75 -53z"/>
<path d="M2230 4498 c0 -24 -11 -66 -25 -95 -24 -54 -21 -68 8 -35 39 43 63
172 32 172 -11 0 -15 -11 -15 -42z"/>
<path d="M2428 4440 l-3 -100 28 0 c38 0 50 35 41 127 -6 72 -7 73 -35 73
l-28 0 -3 -100z"/>
<path d="M2643 4527 c0 -7 6 -18 13 -25 19 -17 29 5 10 23 -18 18 -23 19 -23
2z"/>
<path d="M2710 4520 c-6 -11 -8 -20 -5 -20 8 0 -27 -63 -39 -71 -16 -12 5 -30
27 -23 12 4 31 8 41 9 11 1 22 7 24 15 3 7 0 10 -6 6 -7 -4 -7 5 1 29 6 19 14
35 19 35 4 0 8 9 8 20 0 16 -7 20 -30 20 -19 0 -33 -7 -40 -20z"/>
<path d="M1400 4463 c0 -32 5 -65 10 -73 7 -10 10 7 10 58 0 41 -4 72 -10 72
-6 0 -10 -26 -10 -57z"/>
<path d="M2900 4489 c0 -5 5 -7 10 -4 6 3 10 8 10 11 0 2 -4 4 -10 4 -5 0 -10
-5 -10 -11z"/>
<path d="M2630 4409 c0 -5 5 -7 10 -4 6 3 10 8 10 11 0 2 -4 4 -10 4 -5 0 -10
-5 -10 -11z"/>
<path d="M1586 4328 c-44 -54 -56 -87 -23 -60 8 7 17 9 20 5 4 -3 7 0 7 8 0 8
14 30 30 49 31 37 35 46 22 54 -4 2 -29 -22 -56 -56z"/>
<path d="M2395 4350 c3 -5 8 -10 11 -10 2 0 4 5 4 10 0 6 -5 10 -11 10 -5 0
-7 -4 -4 -10z"/>
<path d="M1421 4314 c0 -11 3 -14 6 -6 3 7 2 16 -1 19 -3 4 -6 -2 -5 -13z"/>
<path d="M535 4290 c4 -6 11 -8 16 -5 14 9 11 15 -7 15 -8 0 -12 -5 -9 -10z"/>
<path d="M1608 4273 c7 -3 16 -2 19 1 4 3 -2 6 -13 5 -11 0 -14 -3 -6 -6z"/>
<path d="M1699 4261 c8 -5 -13 -10 -58 -13 -41 -2 -76 -9 -83 -17 -11 -11 -8
-12 15 -7 23 5 27 3 27 -14 0 -16 7 -20 33 -21 l32 -1 -40 -13 c-40 -14 -40
-14 38 -12 45 1 77 6 78 12 0 5 2 18 4 28 2 9 -1 17 -7 17 -5 0 -8 6 -6 12 5
15 -15 38 -34 38 -10 0 -10 -2 1 -9z m5 -42 c-3 -5 -24 -8 -47 -8 -23 1 -34 3
-24 6 9 2 17 8 17 12 0 4 13 6 30 3 16 -2 27 -8 24 -13z"/>
<path d="M831 4234 c0 -11 3 -14 6 -6 3 7 2 16 -1 19 -3 4 -6 -2 -5 -13z"/>
<path d="M1478 4223 c12 -2 32 -2 45 0 12 2 2 4 -23 4 -25 0 -35 -2 -22 -4z"/>
<path d="M1240 4170 c0 -5 5 -10 10 -10 6 0 10 5 10 10 0 6 -4 10 -10 10 -5 0
-10 -4 -10 -10z"/>
<path d="M575 4160 c-3 -5 -1 -10 4 -10 6 0 11 5 11 10 0 6 -2 10 -4 10 -3 0
-8 -4 -11 -10z"/>
<path d="M2143 4163 c4 -3 19 -7 34 -8 16 -2 46 -5 68 -9 l40 -6 -45 15 c-45
15 -109 21 -97 8z"/>
<path d="M648 4153 c7 -3 16 -2 19 1 4 3 -2 6 -13 5 -11 0 -14 -3 -6 -6z"/>
<path d="M2033 4153 c15 -2 37 -2 50 0 12 2 0 4 -28 4 -27 0 -38 -2 -22 -4z"/>
<path d="M577 4120 c9 -11 19 -17 21 -15 6 6 -18 35 -29 35 -5 0 -1 -9 8 -20z"/>
<path d="M1353 3910 c-3 -11 -9 -20 -14 -20 -13 0 -11 -44 2 -57 15 -15 59 23
59 52 0 40 -38 60 -47 25z"/>
<path d="M810 3889 c0 -5 5 -7 10 -4 6 3 10 8 10 11 0 2 -4 4 -10 4 -5 0 -10
-5 -10 -11z"/>
<path d="M1008 3823 c-10 -2 -18 -9 -18 -14 0 -14 16 -11 30 6 7 8 11 14 9 14
-2 -1 -12 -3 -21 -6z"/>
<path d="M1360 3800 c0 -5 5 -10 11 -10 5 0 7 5 4 10 -3 6 -8 10 -11 10 -2 0
-4 -4 -4 -10z"/>
<path d="M1346 3771 c-27 -10 -7 -20 27 -14 21 4 25 8 15 14 -15 10 -17 10
-42 0z"/>
<path d="M1483 3743 c9 -2 23 -2 30 0 6 3 -1 5 -18 5 -16 0 -22 -2 -12 -5z"/>
<path d="M1100 3621 c-8 -5 -18 -7 -22 -5 -4 3 -8 -2 -8 -10 0 -18 16 -21 25
-6 9 14 27 1 21 -15 -2 -7 -2 -16 2 -20 4 -4 7 -11 7 -16 0 -12 64 -79 76 -79
6 0 -1 11 -15 24 -30 27 -32 36 -11 36 8 0 15 -4 15 -9 0 -5 15 -4 35 2 39 12
36 23 -10 31 -19 4 -36 0 -49 -12 -18 -16 -19 -16 -13 2 4 10 3 24 -3 31 -8 9
-5 14 12 18 15 4 19 10 13 16 -16 15 -59 22 -75 12z"/>
<path d="M1330 3546 c0 -8 5 -18 10 -21 6 -3 10 3 10 14 0 12 -4 21 -10 21 -5
0 -10 -6 -10 -14z"/>
<path d="M1440 3514 c0 -15 27 -50 34 -43 4 3 -2 17 -13 30 -11 13 -20 19 -21
13z"/>
<path d="M1361 3481 c-9 -6 -10 -11 -3 -15 6 -4 9 -13 6 -20 -3 -7 2 -16 10
-19 10 -4 16 -1 16 8 0 8 5 15 10 15 6 0 5 8 -2 20 -14 22 -17 23 -37 11z"/>
<path d="M1282 3406 c-12 -7 -20 -15 -16 -19 4 -4 13 -2 21 4 9 9 13 8 13 0 0
-6 5 -11 10 -11 12 0 14 27 2 34 -4 2 -17 -1 -30 -8z"/>
<path d="M1396 3315 c-9 -26 -7 -32 5 -12 6 10 9 21 6 23 -2 3 -7 -2 -11 -11z"/>
<path d="M140 415 c-7 -8 -8 -15 -2 -15 5 0 15 7 22 15 7 8 8 15 2 15 -5 0
-15 -7 -22 -15z"/>
<path d="M935 260 c3 -5 8 -10 11 -10 2 0 4 5 4 10 0 6 -5 10 -11 10 -5 0 -7
-4 -4 -10z"/>
<path d="M5300 241 c-25 -7 -25 -7 -3 -13 13 -4 27 0 34 8 12 15 8 16 -31 5z"/>
<path d="M903 223 c9 -2 23 -2 30 0 6 3 -1 5 -18 5 -16 0 -22 -2 -12 -5z"/>
<path d="M1120 210 c8 -5 22 -9 30 -9 10 0 8 3 -5 9 -27 12 -43 12 -25 0z"/>
<path d="M5310 190 c0 -5 5 -10 10 -10 6 0 10 5 10 10 0 6 -4 10 -10 10 -5 0
-10 -4 -10 -10z"/>
<path d="M5500 142 c0 -4 9 -8 19 -8 11 0 17 4 15 8 -3 4 -12 8 -20 8 -8 0
-14 -4 -14 -8z"/>
<path d="M770 90 c0 -5 4 -10 9 -10 6 0 13 5 16 10 3 6 -1 10 -9 10 -9 0 -16
-4 -16 -10z"/>
<path d="M520 15 c-11 -13 -8 -15 13 -15 19 0 25 4 21 15 -8 19 -18 19 -34 0z"/>
<path d="M573 23 c9 -2 23 -2 30 0 6 3 -1 5 -18 5 -16 0 -22 -2 -12 -5z"/>
<path d="M655 10 c3 -5 8 -10 11 -10 2 0 4 5 4 10 0 6 -5 10 -11 10 -5 0 -7
-4 -4 -10z"/>
<path d="M910 10 c0 -5 4 -10 9 -10 6 0 13 5 16 10 3 6 -1 10 -9 10 -9 0 -16
-4 -16 -10z"/>
</g>
</svg>
