<?xml version="1.0" standalone="no"?>
<!DOCTYPE svg PUBLIC "-//W3C//DTD SVG 20010904//EN"
 "http://www.w3.org/TR/2001/REC-SVG-20010904/DTD/svg10.dtd">
<svg version="1.0" xmlns="http://www.w3.org/2000/svg"
 width="451.000000pt" height="649.000000pt" viewBox="0 0 451.000000 649.000000"
 preserveAspectRatio="xMidYMid meet">
<metadata>
Created by potrace 1.16, written by Peter Selinger 2001-2019
</metadata>
<g transform="translate(0.000000,649.000000) scale(0.100000,-0.100000)"
fill="#000000" stroke="none">
<path d="M2402 6453 c-19 -13 -25 -14 -32 -3 -6 9 -16 1 -39 -30 -17 -24 -31
-47 -31 -53 0 -5 -7 -7 -14 -4 -11 4 -13 1 -9 -10 5 -13 -1 -12 -26 6 -25 18
-40 22 -70 17 -48 -7 -89 17 -69 42 7 8 -9 -1 -35 -21 -27 -21 -53 -35 -58
-31 -5 3 -9 -4 -9 -15 0 -30 -25 -26 -39 5 -11 25 -13 26 -31 9 -10 -9 -24
-14 -29 -10 -6 3 -11 2 -11 -3 0 -5 -19 -12 -42 -15 -24 -3 -44 -11 -47 -18
-6 -19 -90 -93 -108 -95 -8 -2 -25 -12 -38 -24 -17 -16 -24 -18 -28 -8 -3 7
-6 3 -6 -9 -1 -13 -4 -23 -9 -23 -4 0 -12 -10 -17 -22 -7 -15 -22 -25 -45 -28
-46 -8 -59 -16 -70 -45 -5 -13 -22 -32 -37 -42 -15 -10 -36 -26 -45 -35 -10
-10 -25 -18 -33 -18 -15 0 -17 -5 -19 -45 -1 -10 -12 -25 -26 -32 -20 -10 -25
-20 -26 -50 -2 -50 -21 -97 -66 -158 -42 -56 -45 -72 -22 -117 10 -20 13 -39
8 -57 -4 -14 -7 -38 -8 -53 0 -16 -3 -28 -7 -28 -12 0 1 -73 23 -127 11 -29
25 -53 31 -53 6 0 7 -3 4 -6 -4 -4 2 -19 13 -34 11 -16 20 -34 19 -42 0 -7 -4
-4 -9 7 -7 19 -8 19 -15 2 -4 -10 -3 -28 3 -40 18 -34 36 -166 47 -333 4 -57
3 -62 -15 -57 -23 6 -23 8 -10 -37 6 -19 13 -58 15 -87 4 -56 28 -135 50 -170
13 -19 21 -48 40 -135 7 -35 29 -37 22 -2 -3 18 -1 24 9 20 8 -3 25 -1 39 4
22 8 25 16 25 57 0 27 -5 64 -11 83 -24 78 -36 320 -18 380 7 25 12 49 11 53
-2 5 2 6 7 3 5 -3 13 0 19 7 11 15 12 48 0 41 -4 -3 -8 1 -8 10 0 8 -5 16 -11
18 -9 3 -9 10 0 27 7 12 10 29 7 38 -5 11 -2 14 11 9 10 -4 14 -4 11 0 -4 4
-3 15 3 26 17 32 20 60 6 55 -19 -7 -12 61 8 83 8 9 15 21 15 27 0 6 4 13 10
15 5 2 11 12 13 23 2 11 13 36 25 55 12 19 22 37 23 40 0 3 3 14 7 25 3 11 6
53 7 94 0 70 2 74 33 102 31 28 38 30 100 26 37 -2 74 -1 83 4 9 4 27 10 40
13 13 3 39 9 57 15 37 11 36 11 59 11 9 0 13 3 9 7 -7 8 76 32 114 33 14 0 36
9 50 19 18 15 29 17 43 9 10 -5 31 -7 45 -3 15 4 40 9 56 11 17 2 33 10 37 16
5 7 28 13 53 13 26 0 46 3 46 8 0 4 9 7 20 7 11 0 20 5 20 10 0 7 6 7 18 1 15
-9 80 -24 107 -25 6 -1 16 -10 23 -21 12 -19 13 -19 7 3 -7 25 7 29 25 7 7 -8
16 -13 20 -10 5 3 11 1 15 -4 3 -6 27 -13 53 -17 26 -3 52 -9 57 -12 15 -9 36
-13 77 -13 21 0 40 -4 43 -10 4 -5 14 -9 23 -9 32 0 137 -94 126 -113 -4 -6
-3 -9 1 -4 11 10 45 -42 38 -59 -3 -8 -1 -14 5 -14 5 0 15 -21 21 -47 7 -27
20 -59 29 -73 33 -49 53 -106 54 -150 0 -3 4 -13 10 -24 7 -14 7 -17 -2 -11
-8 5 -11 1 -8 -11 2 -11 8 -18 14 -17 10 1 13 -82 2 -92 -3 -4 0 -21 7 -39 9
-22 14 -76 14 -162 1 -71 4 -165 7 -209 3 -44 7 -107 9 -140 1 -33 3 -62 4
-64 0 -2 10 4 22 15 15 13 19 27 16 48 -2 16 -1 65 4 108 6 61 15 91 43 141
33 59 54 133 35 121 -5 -3 -9 2 -9 11 0 9 4 14 8 11 5 -3 8 27 6 67 -7 209 -5
264 11 311 19 57 23 269 6 290 -8 10 -7 17 4 26 38 32 19 171 -28 211 -11 8
-21 28 -22 43 -2 16 -8 33 -14 39 -6 6 -11 20 -11 31 0 22 -45 69 -93 99 -15
10 -27 23 -26 30 5 43 -3 59 -35 72 -19 8 -38 20 -41 26 -4 5 -14 8 -22 5 -8
-3 -12 -2 -9 3 3 5 -10 18 -30 30 -42 25 -44 25 -44 6 0 -8 -9 -19 -20 -25
-20 -11 -22 -9 -24 20 -1 9 -9 14 -20 12 -15 -3 -17 1 -12 21 8 33 2 36 -51
26 -59 -11 -113 4 -113 32 0 11 -22 36 -52 60 -50 39 -55 41 -106 36 -51 -5
-53 -5 -89 34 -24 25 -45 39 -62 39 -24 0 -24 -1 -5 -14 34 -25 5 -31 -41 -8
-25 12 -47 22 -48 21 -1 0 -12 -7 -25 -16z"/>
<path d="M1767 5009 c-26 -17 -52 -29 -59 -26 -8 3 -3 9 12 16 l25 11 -25 -3
c-18 -1 -25 -8 -25 -24 0 -13 -4 -22 -8 -22 -5 0 -17 -10 -28 -23 -10 -13 -23
-28 -29 -35 -5 -7 -10 -17 -10 -22 0 -5 -5 -13 -12 -17 -7 -5 -8 -2 -3 7 6 11
4 10 -8 -1 -22 -21 -33 -70 -16 -70 11 0 11 -2 -1 -10 -8 -5 -12 -12 -9 -15 9
-9 70 29 65 40 -10 29 80 95 129 95 17 0 66 -13 110 -28 137 -49 185 -81 123
-83 l-33 -1 35 -8 c77 -18 95 -26 98 -48 3 -20 2 -21 -23 -8 -15 8 -57 17 -94
21 -81 8 -108 21 -65 30 49 11 51 13 11 14 -51 1 -126 -18 -158 -40 -14 -10
-29 -15 -33 -12 -4 4 -9 -3 -13 -15 -3 -14 -13 -22 -27 -21 -15 0 -17 2 -6 7
8 4 16 16 17 27 1 18 0 18 -11 3 -9 -12 -14 -13 -22 -5 -5 7 -8 10 -7 8 2 -2
-2 -10 -7 -16 -14 -17 -1 -48 17 -41 8 4 11 1 8 -5 -4 -5 -17 -9 -28 -8 -12 0
-29 1 -37 0 -13 -1 -13 -2 0 -11 10 -6 11 -10 3 -10 -7 0 -13 -11 -13 -25 0
-29 10 -31 51 -9 34 17 59 6 59 -25 0 -17 67 -57 78 -47 3 3 -3 8 -12 12 -9 3
-13 10 -10 15 3 5 0 9 -5 9 -6 0 -11 4 -11 9 0 13 40 23 88 21 24 -1 42 3 42
9 0 6 -6 11 -14 11 -7 0 -19 7 -26 15 -15 18 -12 18 43 5 25 -7 58 -8 82 -3
33 7 42 14 50 40 10 30 12 31 35 19 14 -7 24 -20 24 -29 -1 -11 6 -17 20 -18
11 0 33 -3 49 -5 17 -3 27 0 28 8 0 7 4 4 8 -7 5 -11 5 -28 0 -37 -5 -9 -9
-28 -9 -42 0 -14 -8 -31 -18 -38 -26 -18 -47 -85 -33 -102 7 -9 3 -29 -18 -73
-16 -33 -31 -80 -34 -104 -3 -24 -9 -60 -12 -80 -6 -28 -1 -47 19 -87 15 -29
31 -52 36 -52 5 0 18 -9 29 -21 11 -12 24 -18 30 -14 6 3 11 2 11 -2 0 -9 35
-9 60 0 8 3 29 8 45 12 27 7 28 8 11 19 -10 6 -39 28 -64 48 -25 21 -58 40
-72 43 -36 8 -36 36 0 28 27 -5 27 -4 35 59 7 62 12 126 14 181 1 17 7 27 16
27 8 0 15 8 14 18 0 10 -3 12 -6 5 -8 -22 -21 -14 -19 12 1 26 12 33 18 13 2
-6 5 6 5 28 1 21 4 74 8 116 7 76 7 78 -26 122 -18 25 -36 46 -41 46 -4 0 -8
7 -8 16 0 9 -5 12 -12 8 -7 -5 -9 -2 -5 8 4 11 -7 24 -34 42 -21 15 -39 30
-39 34 0 8 -71 43 -113 56 -10 3 -16 9 -13 14 5 8 -23 21 -92 42 -29 9 -38 16
-30 22 9 5 7 8 -8 8 -11 0 -42 -14 -67 -31z"/>
<path d="M2913 5004 c3 -5 -28 -10 -69 -12 -59 -3 -89 -10 -151 -39 -42 -19
-82 -40 -87 -47 -25 -26 -69 -89 -58 -82 7 4 12 3 12 -2 0 -5 11 -12 25 -14
14 -3 25 -2 25 2 0 4 19 14 43 23 23 8 76 29 117 47 105 45 244 48 284 5 19
-20 19 -20 13 3 -3 13 0 22 6 22 7 1 -4 14 -23 30 -21 19 -41 28 -52 24 -19
-6 -67 16 -67 31 0 5 -5 11 -12 14 -6 2 -9 0 -6 -5z"/>
<path d="M2664 4788 c-18 -6 -53 -29 -78 -53 -58 -52 -55 -73 11 -73 40 0 44
2 40 19 -4 13 3 25 19 36 14 8 26 14 27 12 2 -2 9 -17 15 -33 12 -28 14 -29
70 -23 42 4 61 11 71 26 16 25 31 27 31 6 0 -16 7 -18 87 -19 29 -1 53 2 53 7
0 4 7 7 16 7 11 0 2 11 -22 31 -42 33 -81 52 -129 62 -21 5 -16 0 20 -18 l50
-24 -45 3 c-25 3 -71 8 -102 13 -31 5 -55 6 -52 2 2 -4 -5 -7 -16 -6 -27 2
-20 20 11 28 20 6 18 7 -11 7 -19 0 -49 -5 -66 -10z"/>
<path d="M3321 3970 c-1 -30 -4 -86 -7 -125 -7 -74 0 -88 10 -20 3 22 5 43 6
48 0 4 4 7 9 7 13 0 -1 -265 -14 -279 -3 -2 -5 29 -5 70 -1 69 -2 72 -15 49
-17 -29 -19 -44 -6 -36 5 4 7 -3 4 -14 -7 -28 -14 -19 -18 24 -2 21 1 34 6 31
5 -4 9 -1 9 4 0 6 -4 11 -10 11 -5 0 -7 7 -4 15 4 8 -3 33 -15 55 -13 26 -19
50 -15 65 3 13 1 32 -4 42 -10 17 -11 16 -20 -7 -5 -14 -6 -29 -2 -35 6 -9 10
-45 5 -45 -2 0 -9 8 -16 17 -12 14 -12 16 0 8 10 -5 12 -4 7 3 -11 18 -13 16
-40 -30 -35 -63 -48 -223 -16 -203 13 8 30 -62 30 -125 0 -108 -75 -283 -146
-339 -13 -10 -21 -21 -18 -23 2 -3 -2 -11 -11 -18 -8 -7 -15 -18 -15 -25 0
-26 -63 -136 -89 -154 -37 -26 -121 -67 -156 -76 -29 -7 -29 -7 -7 -16 26 -10
42 -46 42 -95 0 -40 -43 -175 -65 -208 -12 -16 -15 -56 -15 -176 0 -149 -14
-444 -25 -560 -16 -157 -28 -243 -45 -334 -14 -70 -17 -102 -9 -105 21 -7 80
-64 95 -92 33 -66 7 -156 -54 -184 -20 -9 -55 -26 -78 -36 -22 -10 -45 -19
-52 -19 -6 0 -15 -8 -20 -17 -11 -21 -65 -182 -111 -328 -17 -55 -35 -109 -40
-120 -14 -31 -98 -257 -106 -282 -7 -24 9 -33 18 -10 3 7 6 8 6 1 1 -6 12 -9
26 -6 14 2 22 9 18 15 -3 5 -2 7 4 4 16 -10 64 -16 58 -8 -4 8 17 15 80 28 11
2 22 8 23 13 2 6 8 8 13 4 5 -3 12 2 15 11 6 13 8 14 15 3 7 -10 9 -10 9 3 0
21 28 77 43 85 8 5 8 3 0 -7 -7 -7 -13 -20 -13 -29 0 -8 7 -2 15 14 8 15 12
33 8 39 -4 6 -1 7 7 2 10 -6 12 -4 7 8 -3 10 -2 17 2 17 5 0 11 -6 13 -12 3
-7 7 -3 10 9 4 17 2 20 -10 15 -14 -5 -15 -4 -2 10 14 14 16 14 28 -6 8 -13
11 -14 8 -4 -3 10 0 20 5 24 6 3 9 15 6 25 -3 11 -1 17 4 13 5 -3 9 -13 10
-22 0 -10 3 -12 5 -5 3 7 12 9 21 6 12 -5 14 -3 8 8 -4 8 -5 11 0 7 4 -4 15
-2 24 5 14 10 14 10 4 -4 -19 -24 -3 -31 16 -8 15 19 18 19 30 5 11 -13 10
-15 -9 -11 -13 2 -20 1 -16 -2 15 -16 58 -9 71 11 15 20 15 20 15 1 1 -18 1
-19 11 -2 5 9 15 17 21 17 6 0 5 -7 -3 -17 -12 -16 -12 -17 2 -6 9 7 20 9 24
5 5 -4 5 -1 1 6 -12 20 4 35 22 20 12 -10 14 -10 8 0 -7 11 12 18 38 13 5 -1
3 6 -5 15 -8 10 -9 15 -2 11 6 -4 14 -1 16 5 4 8 6 7 6 -4 1 -9 5 -19 10 -22
5 -4 7 2 4 12 -2 10 3 24 11 31 9 8 16 18 16 24 0 6 -7 2 -16 -9 -14 -18 -15
-18 -4 3 6 13 16 22 23 20 7 -1 11 4 9 12 -2 11 0 12 11 3 8 -7 18 -8 22 -4 5
4 5 1 1 -5 -4 -7 -2 -13 4 -13 6 0 8 -4 5 -10 -3 -6 1 -7 9 -4 9 3 13 11 10
16 -4 6 6 2 20 -7 17 -12 25 -24 21 -34 -3 -11 0 -10 10 3 15 20 15 20 16 0 0
-10 3 -13 6 -6 2 6 8 10 13 7 5 -3 20 -1 34 5 22 8 26 7 27 -8 0 -14 2 -14 9
3 5 11 9 14 9 6 1 -7 7 -11 14 -8 8 3 20 1 28 -5 11 -8 11 -9 -3 -4 -10 3 -19
2 -22 -2 -9 -16 33 -10 46 6 11 13 11 14 -1 7 -11 -6 -13 -4 -8 9 4 10 7 24 7
32 0 8 5 14 11 14 5 0 7 -5 3 -11 -3 -6 0 -15 7 -20 8 -4 14 -14 14 -21 1 -7
6 -12 12 -11 6 1 19 -8 29 -20 11 -12 12 -16 4 -10 -12 9 -15 7 -15 -12 0 -19
3 -21 19 -13 12 7 16 7 12 0 -3 -6 -1 -14 5 -18 8 -4 9 -3 5 4 -4 7 -2 12 4
12 6 0 8 5 4 13 -6 9 -5 9 8 0 8 -7 18 -10 21 -7 4 4 4 -3 2 -15 -3 -14 0 -19
7 -15 8 5 9 1 4 -11 -6 -18 -6 -18 12 -2 14 13 21 14 30 5 9 -9 14 -6 21 13 5
13 10 18 10 10 1 -9 6 -8 19 6 9 10 13 12 8 3 -8 -11 -5 -11 9 2 18 17 18 24
5 155 -7 76 -14 163 -14 195 -1 31 -5 51 -9 45 -4 -7 -6 15 -3 48 3 39 2 49
-3 30 -5 -21 -7 -7 -7 47 1 43 4 78 7 78 9 0 22 -49 23 -87 1 -18 4 -33 9 -33
4 0 7 -9 7 -20 0 -26 21 -73 38 -83 9 -6 10 -12 3 -21 -7 -8 -5 -12 8 -12 14
0 18 10 20 50 1 28 6 55 11 61 6 7 4 19 -6 33 -12 17 -12 26 -4 42 9 17 14 19
26 9 8 -6 14 -10 15 -8 6 32 5 39 -7 39 -15 0 -19 16 -6 24 7 4 7 44 0 124 -1
6 -4 12 -8 12 -3 0 -7 10 -8 23 -2 12 -4 31 -6 42 -4 34 -18 79 -30 94 -8 11
-8 13 1 7 9 -5 11 -2 7 9 -4 11 -13 14 -28 9 -21 -6 -21 -6 -1 9 17 13 18 19
8 36 -11 17 -10 19 2 15 8 -4 15 -1 15 5 0 6 -7 11 -15 11 -18 0 -19 12 -2 29
10 10 9 11 -6 5 -14 -5 -16 -2 -10 12 5 13 3 16 -10 11 -22 -8 -22 9 1 22 16
10 16 10 0 11 -10 0 -18 5 -18 10 0 16 -2 23 -10 46 -5 13 -4 26 3 34 8 8 5 8
-10 -1 -13 -8 -23 -21 -23 -30 0 -9 -7 -22 -15 -29 -12 -10 -15 -75 -5 -100 1
-3 3 -14 4 -25 0 -11 8 -20 16 -20 18 0 20 -27 3 -32 -7 -3 -13 0 -13 6 0 6
-5 11 -12 11 -6 0 -3 -10 8 -21 14 -16 15 -23 7 -26 -7 -3 -13 -11 -13 -19 0
-9 5 -12 12 -8 7 5 8 3 3 -6 -8 -13 -8 -58 -1 -122 3 -30 -8 -38 -18 -13 -3 8
0 15 6 15 7 0 7 4 0 13 -11 12 -24 99 -59 382 -12 101 -19 133 -25 115 -5 -16
-6 -1 -4 39 3 39 1 59 -5 50 -6 -10 -9 -4 -9 20 0 18 -4 50 -10 70 -5 20 -28
110 -50 199 -22 90 -45 172 -50 183 -6 10 -8 19 -4 19 3 0 2 6 -4 13 -9 11
-31 79 -68 215 -8 29 -28 74 -44 99 -17 26 -30 50 -30 54 0 4 14 10 31 14 20
5 29 12 25 21 -3 7 3 19 13 26 9 7 28 29 42 48 13 19 30 41 37 48 6 7 12 24
12 38 0 31 23 104 32 104 5 0 8 7 8 15 0 8 -4 15 -10 15 -5 0 -10 5 -10 10 0
6 13 10 29 10 17 0 32 4 35 8 2 4 -12 6 -31 4 l-36 -5 6 53 c8 64 21 82 41 54
8 -10 17 -31 20 -46 9 -44 22 -33 18 15 -5 53 -13 62 -53 65 -41 3 -45 7 -29
27 10 12 10 15 -3 15 -26 0 -25 35 4 146 18 71 23 102 13 90 -7 -11 -17 -35
-20 -53 -4 -19 -11 -32 -17 -30 -21 7 -24 53 -10 147 18 117 27 244 19 276 -5
17 -11 22 -24 18 -11 -4 -13 -3 -5 3 9 7 9 20 -2 58 l-13 50 -1 -55z"/>
<path d="M1991 3950 c-8 -5 -1 -14 23 -28 20 -12 36 -26 36 -32 0 -6 5 -8 12
-4 7 5 8 3 4 -5 -5 -7 0 -19 10 -27 11 -9 13 -13 7 -9 -7 3 -13 2 -13 -3 0 -6
7 -12 15 -16 8 -3 15 -15 15 -26 0 -11 5 -20 10 -20 6 0 10 -6 10 -13 0 -16
51 -61 74 -65 12 -2 15 3 13 20 -2 12 -9 24 -15 26 -7 2 -9 8 -6 13 3 6 24 0
47 -14 47 -27 107 -34 107 -12 0 8 7 11 20 8 11 -3 20 -1 20 5 0 10 -29 26
-42 24 -5 -1 -8 4 -8 12 0 9 22 15 76 20 42 4 79 5 82 2 7 -8 -19 -37 -28 -31
-4 3 -13 -2 -20 -10 -7 -9 -21 -13 -31 -10 -11 4 -19 2 -19 -5 0 -14 78 -7
109 9 11 6 26 11 33 11 30 -1 -51 -35 -97 -41 l-50 -6 51 -2 c52 -1 115 20
147 49 35 32 45 39 51 33 3 -4 6 -2 6 4 0 9 39 52 73 80 8 6 18 9 23 5 4 -4 4
-2 1 4 -4 6 1 20 9 30 9 10 13 13 9 6 -5 -10 -1 -10 19 -1 39 18 21 29 -37 22
-35 -3 -57 -12 -66 -24 -7 -11 -19 -19 -26 -19 -7 0 -15 -9 -18 -21 -4 -16
-12 -20 -34 -17 -16 2 -35 -4 -44 -13 -12 -12 -37 -15 -130 -13 -127 2 -198
14 -210 37 -5 9 -17 13 -28 10 -12 -3 -29 4 -43 17 l-23 23 52 -7 c29 -4 71
-13 94 -21 23 -8 53 -14 68 -14 21 1 20 3 -9 8 -20 4 -41 11 -48 15 -16 10
-41 15 -137 26 -44 6 -92 12 -106 14 -15 2 -32 0 -38 -4z"/>
<path d="M1665 3603 c11 -24 12 -31 2 -27 -8 3 -13 -3 -13 -15 0 -11 4 -17 9
-14 5 3 7 0 5 -8 -3 -8 -11 -13 -17 -11 -6 1 -10 -1 -10 -5 3 -19 -2 -23 -21
-13 -11 6 -17 16 -14 25 4 8 11 12 18 8 7 -4 7 -1 -1 9 -7 8 -10 18 -6 22 4 4
0 4 -10 0 -9 -3 -15 -10 -12 -14 3 -5 1 -12 -5 -15 -8 -5 -7 -11 1 -21 11 -13
4 -18 -21 -16 -4 0 -6 -10 -6 -23 0 -13 4 -21 8 -19 4 3 8 11 8 19 0 17 23 25
41 14 11 -7 10 -11 -6 -23 -16 -12 -17 -16 -6 -30 7 -8 23 -14 35 -12 11 2 31
0 44 -5 13 -5 22 -5 22 1 0 6 9 1 20 -10 25 -25 42 -26 33 -3 -4 10 32 -20 80
-66 85 -82 137 -126 123 -103 -16 27 17 9 75 -40 86 -73 166 -129 218 -153 24
-11 101 -48 170 -81 134 -66 243 -106 265 -98 8 3 12 21 11 49 0 24 2 43 5 43
11 -2 40 15 40 23 0 6 -10 4 -22 -2 -27 -15 -88 -23 -88 -12 0 5 -15 9 -32 11
-60 4 -68 6 -68 17 0 5 -26 11 -58 12 -108 3 -235 62 -409 192 -124 93 -263
212 -258 221 3 5 -9 23 -26 41 -52 56 -79 95 -71 103 4 4 1 6 -5 4 -7 -1 -24
11 -38 27 l-26 30 16 -32z"/>
<path d="M1156 3141 c-6 -10 52 -81 66 -81 4 0 8 7 8 15 0 18 12 19 28 3 7 -7
12 -8 12 -4 0 5 9 -3 21 -18 11 -14 26 -26 33 -26 6 0 27 -13 46 -30 19 -16
40 -29 45 -30 6 0 34 -22 63 -49 53 -51 60 -54 42 -20 -8 15 -7 19 5 19 8 0
15 4 15 8 0 13 -100 125 -122 138 -10 5 -17 12 -14 15 2 2 -7 5 -20 5 -13 1
-24 -3 -24 -8 0 -6 -6 -6 -15 2 -8 6 -22 9 -32 6 -10 -3 -31 1 -47 9 -15 8
-32 12 -37 9 -5 -3 -9 -1 -9 5 0 6 -7 8 -15 5 -10 -4 -14 -1 -12 7 2 8 2 11 0
7 -3 -5 -9 -8 -14 -8 -6 0 -8 4 -4 9 3 5 1 12 -4 15 -5 4 -12 2 -15 -3z"/>
<path d="M258 2905 c-60 -25 -135 -72 -159 -101 -13 -16 -12 -17 9 -12 19 5
22 2 22 -24 0 -16 -4 -27 -9 -24 -14 9 -23 -26 -11 -38 8 -8 9 -6 5 6 -7 17
17 20 32 3 4 -4 2 -5 -4 -1 -14 8 -19 -19 -5 -28 8 -5 51 16 50 24 -10 41 59
84 122 77 l35 -3 -32 -14 c-18 -8 -33 -18 -33 -22 0 -12 15 -10 59 8 39 16 58
38 41 49 -5 3 -5 16 2 30 6 13 15 22 19 19 5 -3 9 2 9 11 0 12 -6 14 -27 9
-25 -7 -27 -6 -14 9 37 46 -23 58 -111 22z"/>
<path d="M500 2786 c0 -7 53 -97 88 -148 33 -51 71 -188 89 -326 6 -42 6 -43
37 -36 17 3 34 8 39 11 14 8 7 33 -13 45 -11 7 -20 19 -20 26 0 8 -8 27 -17
43 -16 27 -16 29 1 42 16 12 16 14 -3 31 -25 23 -28 73 -5 78 13 2 7 13 -24
45 -22 23 -46 52 -53 65 -28 53 -119 148 -119 124z"/>
<path d="M537 2015 c-10 -23 -25 -51 -33 -61 -9 -11 -12 -13 -8 -5 5 11 -7 12
-65 9 -58 -4 -69 -2 -60 9 9 10 8 13 -3 13 -23 0 -55 -28 -62 -55 -4 -14 -11
-25 -16 -25 -6 0 -10 -6 -10 -13 0 -7 -9 -18 -20 -25 -11 -7 -20 -16 -20 -22
0 -5 -17 -27 -39 -49 -21 -22 -54 -69 -72 -105 -42 -82 -50 -80 -10 4 29 60
30 63 15 100 -23 57 -38 56 -57 -4 -21 -66 -21 -108 -1 -148 l16 -32 21 30
c35 50 159 168 217 205 74 48 160 83 172 71 6 -6 5 -25 -2 -53 -7 -23 -9 -56
-6 -72 3 -17 1 -36 -4 -43 -8 -8 -8 -14 0 -19 18 -11 11 -34 -15 -51 -21 -13
-28 -14 -41 -3 -13 11 -21 7 -52 -26 -32 -32 -34 -37 -14 -32 16 4 22 1 22
-12 0 -22 -36 -61 -55 -61 -8 0 -15 -4 -15 -10 0 -5 -8 -10 -17 -10 -15 0 -15
-2 -4 -9 21 -14 -3 -66 -25 -57 -26 10 -44 -13 -44 -55 0 -32 -4 -39 -19 -39
-30 0 -51 -11 -51 -27 0 -8 -4 -11 -10 -8 -9 6 -6 16 21 65 5 8 18 34 29 58
11 23 25 42 30 42 6 0 10 6 10 14 0 7 7 20 17 27 23 19 83 115 83 133 0 8 9
18 20 21 25 8 27 38 3 33 -28 -5 -121 -128 -145 -192 -13 -32 -32 -64 -43 -70
-11 -6 -23 -15 -27 -21 -14 -18 -56 -160 -61 -202 -7 -60 10 -64 18 -4 6 46
28 92 38 81 7 -9 -21 -134 -38 -161 -26 -46 -9 -208 35 -324 5 -11 13 -34 20
-52 6 -17 18 -34 26 -37 8 -3 19 -16 24 -28 6 -13 36 -64 68 -114 76 -120 213
-237 302 -257 22 -5 28 0 49 48 28 61 36 64 114 41 42 -13 47 -12 63 5 22 25
34 8 25 -35 -13 -58 0 -77 39 -56 13 7 19 6 24 -6 3 -8 10 -13 14 -10 5 3 7
-5 5 -18 -4 -20 0 -24 29 -30 18 -3 38 -6 43 -6 60 4 76 9 100 38 16 19 36 32
50 32 13 0 31 7 39 16 9 8 20 12 26 9 6 -3 17 1 26 9 15 15 39 20 77 17 9 -1
17 3 17 9 0 7 8 9 20 5 26 -8 51 11 43 33 -6 14 -4 15 8 5 18 -15 32 -7 135
83 46 40 69 66 64 74 -6 9 -13 9 -29 0 -12 -6 -31 -8 -43 -4 -16 5 -20 3 -15
-9 4 -11 0 -13 -13 -10 -17 5 -16 10 15 56 19 29 35 55 35 59 0 4 -37 8 -82 8
-46 -1 -108 4 -138 9 -30 5 -63 7 -73 5 -13 -2 -17 1 -13 11 3 8 1 15 -4 15
-6 0 -10 -7 -10 -15 0 -12 -7 -14 -27 -9 -45 9 -83 26 -83 35 0 5 -11 9 -25 9
-14 0 -25 5 -25 11 0 5 -4 8 -9 5 -5 -3 -15 2 -22 11 -12 14 -12 16 0 8 11 -6
13 -4 8 9 -7 18 4 15 34 -11 14 -11 17 -10 28 13 9 21 14 24 25 15 8 -7 12
-22 10 -34 -3 -13 -1 -16 3 -7 3 8 13 21 22 28 15 11 14 12 0 6 -10 -3 -20 -1
-24 5 -3 6 -2 11 3 11 6 0 13 7 16 16 6 14 4 15 -9 4 -9 -7 -15 -9 -14 -4 4
24 -3 34 -24 34 -22 0 -53 26 -72 59 -5 9 -4 12 3 7 7 -4 12 -2 12 4 0 6 4 9
9 5 5 -3 13 0 17 6 4 7 3 9 -4 5 -6 -3 -13 -2 -17 4 -3 5 2 10 12 10 15 0 16
2 3 10 -9 6 -10 10 -3 10 6 0 20 -13 29 -30 13 -21 21 -26 30 -19 9 7 16 5 24
-8 10 -16 11 -16 6 -1 -3 10 -1 20 4 23 5 3 8 11 6 18 -1 7 -1 9 1 5 9 -16 25
-7 20 11 -3 15 0 17 17 13 33 -8 44 -20 39 -46 -4 -20 3 -29 39 -50 25 -14 55
-26 69 -26 21 0 18 6 -31 55 -30 30 -51 55 -47 55 4 0 30 -12 57 -26 60 -31
85 -21 57 24 -14 22 3 13 26 -14 19 -21 32 -26 82 -28 65 -3 88 1 80 14 -3 5
-1 11 4 15 6 3 7 13 4 23 -4 13 -2 13 10 -3 16 -21 19 -3 4 23 -5 6 -6 16 -3
21 3 5 -1 14 -8 20 -24 20 -7 106 22 108 9 1 22 2 27 3 30 6 46 -5 70 -49 26
-48 42 -60 99 -81 25 -9 27 -8 22 6 -5 14 -4 15 8 5 17 -14 60 -5 51 10 -4 5
-2 9 2 9 5 0 9 10 10 21 1 12 -1 19 -4 16 -3 -3 -10 -2 -17 4 -6 5 -23 18 -38
30 -16 11 -28 29 -28 39 0 10 -7 21 -16 24 -15 6 -15 4 -3 -11 7 -10 2 -8 -12
5 -24 21 -29 32 -30 75 0 9 -4 15 -9 12 -4 -3 -6 4 -3 15 5 19 3 20 -23 9 -30
-11 -40 -13 -116 -24 -40 -5 -48 -3 -48 10 0 9 5 13 11 9 7 -4 10 1 7 12 -2
11 -13 20 -28 23 -14 1 -36 11 -50 21 -14 10 -42 25 -63 33 -46 20 -52 35 -38
93 l12 46 -48 44 c-28 26 -51 40 -56 35 -6 -6 -16 -5 -27 1 -34 21 -118 -50
-112 -94 2 -9 -2 -20 -9 -24 -7 -4 -9 -3 -5 4 3 6 2 14 -4 17 -8 5 -7 11 1 21
9 11 8 15 -5 20 -9 3 -22 2 -29 -3 -28 -21 -70 5 -91 57 -9 22 -19 41 -23 41
-5 1 -19 4 -33 6 -58 10 -206 10 -219 -1 -11 -8 -13 -8 -7 2 5 8 -4 17 -28 27
-19 8 -38 19 -41 25 -4 6 -11 8 -16 4 -5 -3 -9 -2 -8 3 4 13 -23 63 -34 63 -5
0 -7 7 -4 14 4 9 1 13 -6 10 -15 -5 -20 22 -18 86 4 91 4 105 2 126 -2 40 -26
34 -44 -11z"/>
<path d="M2150 843 c0 -32 -113 -121 -143 -114 -5 1 -6 -2 -3 -7 3 -5 -8 -16
-25 -26 -16 -10 -26 -22 -23 -28 4 -7 2 -8 -4 -4 -6 3 -16 -3 -22 -14 -11 -20
-10 -21 9 -11 42 23 73 32 65 18 -6 -9 -5 -9 8 0 18 16 32 5 17 -14 -6 -7 -8
-13 -4 -13 3 0 -8 -12 -26 -27 -18 -16 -35 -27 -37 -25 -2 2 -13 -8 -26 -22
-12 -14 -27 -26 -34 -26 -7 0 -12 -4 -12 -10 0 -5 -11 -12 -24 -16 -26 -6 -77
-54 -57 -54 22 0 76 27 95 48 10 12 23 19 27 16 5 -3 9 -1 9 4 0 5 14 8 31 6
27 -3 31 -1 26 16 -4 14 2 25 19 36 23 16 63 72 68 97 4 18 16 50 27 70 40 74
51 99 45 104 -3 4 -6 1 -6 -4z"/>
</g>
</svg>
