<?xml version="1.0" standalone="no"?>
<!DOCTYPE svg PUBLIC "-//W3C//DTD SVG 20010904//EN"
 "http://www.w3.org/TR/2001/REC-SVG-20010904/DTD/svg10.dtd">
<svg version="1.0" xmlns="http://www.w3.org/2000/svg"
 width="960.000000pt" height="392.000000pt" viewBox="0 0 960.000000 392.000000"
 preserveAspectRatio="xMidYMid meet">

<g transform="translate(0.000000,392.000000) scale(0.100000,-0.100000)"
fill="#000000" stroke="none">
<path d="M170 3905 c7 -8 9 -26 5 -43 -4 -22 -11 -29 -28 -28 -14 1 -23 8 -25
22 -5 34 -45 47 -87 27 l-35 -17 0 -167 0 -167 38 -5 c20 -2 61 0 90 6 66 12
88 3 126 -52 58 -83 29 -177 -68 -223 l-48 -22 -18 22 c-26 32 -40 27 -40 -15
0 -55 -19 -116 -41 -131 -22 -15 -25 -62 -8 -94 10 -18 8 -25 -10 -39 -21 -17
-21 -23 -21 -318 l0 -301 25 10 c15 6 46 11 71 12 25 1 47 6 49 12 2 6 6 23 9
39 8 33 22 35 30 3 3 -14 24 -35 51 -51 l45 -26 -17 -30 c-18 -31 -28 -35 -38
-19 -11 17 -35 12 -28 -7 5 -13 2 -15 -12 -10 -29 12 -43 -9 -38 -57 6 -49
-12 -71 -26 -34 -9 20 -10 18 -10 -18 -1 -22 5 -46 11 -53 11 -10 7 -18 -20
-42 -18 -16 -43 -29 -55 -29 -31 0 -47 -18 -47 -52 0 -26 2 -27 24 -17 27 13
96 4 96 -11 0 -6 9 -10 20 -10 35 0 35 -27 -1 -57 -18 -16 -41 -31 -51 -35
-10 -4 -18 -15 -18 -23 0 -9 -5 -25 -11 -36 -10 -19 -12 -19 -35 -4 l-25 16 5
-193 c2 -106 9 -233 15 -283 6 -49 12 -118 14 -152 3 -60 2 -62 -15 -46 -17
15 -18 10 -18 -142 0 -124 3 -156 12 -147 7 7 19 12 27 12 8 0 27 15 43 33
l28 32 -10 -28 c-6 -16 -10 -30 -10 -32 0 -1 15 -5 33 -8 17 -3 42 -8 55 -12
20 -7 22 -4 22 31 l1 39 13 -30 c12 -30 13 -30 24 -8 7 12 12 31 12 42 0 12 5
21 10 21 12 0 13 -37 1 -44 -4 -3 -11 -20 -15 -37 -5 -25 -1 -39 18 -64 29
-37 59 -105 46 -105 -11 0 -43 -96 -37 -113 3 -10 36 51 49 92 7 23 41 -59 45
-109 6 -69 -9 -134 -31 -138 -17 -4 -45 25 -37 37 6 9 -27 21 -59 21 -48 0
-80 19 -103 60 -10 19 -34 51 -52 70 -18 19 -44 53 -59 75 l-26 40 0 -373 0
-372 208 0 c114 0 244 3 288 6 76 6 82 9 98 35 10 16 14 29 9 30 -22 2 37 18
68 18 20 1 56 12 80 25 38 20 59 24 148 25 74 0 114 -4 134 -14 16 -8 34 -12
39 -9 8 5 41 -4 93 -27 11 -5 27 -8 35 -7 35 3 61 -3 55 -12 -4 -6 10 -10 35
-10 25 0 39 4 35 10 -3 6 1 10 10 10 9 0 13 -4 10 -10 -3 -5 -1 -10 4 -10 6 0
11 5 11 10 0 6 7 10 15 10 8 0 15 -4 15 -10 0 -6 42 -10 105 -10 63 0 105 4
105 10 0 6 5 10 11 10 5 0 7 -5 4 -10 -4 -6 9 -11 32 -12 32 -1 30 -2 -17 -8
l-55 -7 55 -3 c30 -1 63 -2 72 -1 10 1 18 -3 18 -8 0 -6 -15 -12 -32 -13 -18
-1 17 -5 77 -8 141 -9 2462 -12 2584 -3 56 4 87 9 79 15 -10 6 -10 10 2 18 12
8 8 10 -15 11 -26 0 -27 2 -10 9 11 5 14 9 8 9 -7 1 -13 7 -13 15 0 7 -7 20
-16 27 -9 8 -27 31 -40 51 -18 28 -31 38 -50 38 -17 0 -28 7 -31 20 -3 11 -12
20 -20 20 -13 0 -13 3 -3 15 7 8 18 15 26 15 7 0 22 13 33 28 15 22 17 32 8
41 -17 17 -13 224 5 248 6 7 7 17 4 22 -4 6 -2 18 3 28 14 24 41 126 41 151 0
11 21 51 46 89 25 37 52 82 59 100 7 17 22 34 34 38 13 4 24 20 31 46 7 25 19
43 32 48 11 4 32 25 47 46 14 21 34 43 44 49 9 6 55 47 102 91 46 44 90 81 97
83 7 2 15 7 18 11 8 11 111 51 131 51 21 0 24 -11 9 -26 -15 -15 6 -59 35 -72
13 -6 40 -14 60 -18 20 -3 39 -13 42 -20 8 -22 32 -16 42 9 5 12 15 36 22 54
8 17 25 37 39 43 14 6 41 22 60 35 19 13 49 26 67 30 26 5 34 2 46 -17 14 -22
16 -64 5 -84 -16 -27 -18 -71 -3 -84 23 -19 19 -26 -37 -54 -29 -14 -73 -37
-97 -51 -24 -14 -55 -25 -68 -25 -12 0 -23 -4 -23 -10 0 -5 -6 -10 -13 -10 -7
0 -32 -9 -55 -20 -22 -11 -49 -20 -59 -20 -10 0 -27 -6 -38 -13 -11 -8 -35
-17 -53 -20 -32 -7 -131 -76 -162 -114 -39 -46 -60 -83 -60 -101 0 -12 -4 -24
-10 -27 -6 -3 -10 -18 -10 -32 0 -24 3 -25 36 -20 42 7 64 0 64 -19 0 -10 7
-13 25 -8 16 4 36 -1 58 -15 19 -11 37 -18 40 -14 4 3 7 0 7 -9 0 -8 8 -23 19
-32 10 -9 21 -34 25 -55 3 -22 15 -56 25 -77 35 -70 52 -134 40 -156 -7 -13
-7 -23 0 -32 12 -15 -5 -37 -23 -30 -7 3 -13 -7 -14 -22 -4 -46 -22 -101 -37
-114 -8 -7 -15 -19 -15 -27 0 -12 -7 -14 -29 -10 -20 4 -33 1 -42 -9 -7 -9
-21 -13 -30 -11 -10 3 -32 -6 -50 -19 -18 -13 -36 -21 -40 -18 -5 2 -17 -4
-29 -16 -18 -18 -18 -20 -2 -22 9 0 -5 -4 -33 -8 -46 -6 -47 -7 -12 -8 20 -1
37 -6 37 -12 0 -5 -17 -11 -37 -12 -128 -6 454 -16 1028 -17 580 -1 678 1 695
14 10 8 16 15 12 15 -5 0 1 24 13 52 19 51 36 108 93 321 14 54 36 111 48 127
33 42 108 72 157 64 52 -8 120 24 152 71 13 19 34 37 46 40 12 3 34 21 49 40
l26 34 41 -20 41 -21 18 22 c10 13 22 29 26 37 6 11 17 11 57 2 28 -6 69 -11
91 -10 23 1 59 -6 80 -15 29 -12 75 -17 174 -19 135 -2 135 -3 232 -45 115
-50 146 -49 197 5 18 19 39 35 47 35 26 0 61 -45 67 -87 7 -40 23 -62 49 -67
49 -9 55 -17 86 -119 18 -57 32 -115 32 -130 0 -55 52 -48 132 17 93 75 175
109 348 142 100 19 195 13 273 -16 62 -24 83 -25 121 -5 37 20 49 19 71 -5 19
-21 55 -26 71 -10 6 6 24 1 49 -13 30 -17 41 -30 43 -52 5 -40 -19 -55 -86
-55 -47 0 -57 -4 -83 -31 -16 -17 -29 -36 -30 -43 0 -6 -32 -27 -72 -46 -82
-40 -108 -76 -125 -168 -9 -51 -9 -52 16 -59 14 -3 82 -3 151 0 105 6 127 10
135 24 9 17 85 94 119 121 35 27 49 15 46 -40 -1 -29 -8 -63 -15 -75 -17 -28
-4 -33 88 -33 l70 0 -5 58 c-2 31 -11 76 -18 99 -11 36 -11 51 1 95 9 35 14
135 17 298 l4 245 -33 17 c-42 22 -80 29 -153 29 -33 0 -77 5 -98 11 -32 10
-40 9 -55 -6 -16 -16 -16 -18 2 -32 11 -8 31 -14 44 -14 13 0 36 -8 50 -19 15
-10 36 -20 46 -22 42 -8 26 -28 -31 -39 -32 -6 -70 -18 -86 -25 -21 -11 -29
-11 -37 -2 -51 63 -59 79 -70 137 -6 35 -18 76 -26 92 -8 15 -14 37 -14 50 0
13 -7 33 -15 45 -8 11 -17 39 -21 61 -5 34 -3 43 16 59 12 10 28 31 37 46 13
27 15 27 27 11 17 -22 9 -52 -12 -50 -13 1 -16 -6 -15 -28 3 -41 21 -56 38
-33 19 26 66 19 81 -11 6 -13 14 -23 18 -23 3 1 6 -2 6 -6 -1 -5 -10 -7 -22
-5 -36 6 -68 -7 -68 -28 0 -23 30 -40 115 -64 33 -10 69 -21 80 -26 11 -5 36
-11 55 -15 19 -3 42 -7 52 -8 9 -2 22 -8 30 -14 7 -5 23 -13 36 -16 l22 -5 -1
471 c-1 260 -3 464 -6 455 -4 -18 -14 -21 -85 -33 l-36 -6 -8 58 c-5 39 -3 58
5 61 6 2 11 16 11 30 0 21 -3 24 -10 12 -11 -18 -16 -13 -25 28 -8 38 7 48 48
33 26 -10 27 -9 27 20 0 44 15 66 50 74 l31 7 -5 241 c-2 133 -6 256 -9 272
-2 17 -5 36 -5 43 -1 6 -7 12 -13 12 -5 0 -30 17 -55 37 -36 30 -44 43 -44 70
0 20 6 36 14 39 25 10 87 -27 102 -60 12 -28 13 -14 14 128 0 125 -3 161 -14
170 -10 7 -15 35 -17 81 -3 101 -1 115 16 115 11 0 15 11 15 38 0 37 -1 38
-28 34 -32 -4 -56 17 -50 45 2 11 17 21 41 26 40 10 45 21 23 46 -8 9 -18 36
-23 60 -4 25 -14 46 -22 49 -14 5 -13 -9 4 -94 6 -28 0 -37 -75 -113 -68 -70
-83 -81 -96 -70 -21 17 -44 64 -44 89 0 12 -10 25 -25 32 -23 10 -28 8 -64
-31 -46 -49 -57 -91 -36 -131 8 -16 15 -33 15 -39 0 -19 -94 -9 -137 15 -53
30 -59 30 -38 -2 15 -23 25 -62 42 -161 6 -37 2 -39 -95 -64 -46 -11 -54 -11
-68 3 -14 14 -21 14 -67 0 -29 -8 -56 -18 -62 -22 -33 -24 -105 -17 -105 11 0
6 -11 20 -25 31 -28 22 -33 59 -9 79 13 10 20 10 42 -2 33 -19 142 -14 142 5
0 16 31 45 45 43 6 -1 11 7 13 18 8 55 -125 107 -163 65 -23 -25 -46 -25 -78
0 -14 11 -32 20 -40 20 -25 0 -50 37 -43 62 4 13 9 39 12 58 7 52 11 60 34 60
27 0 25 18 -4 41 -38 30 -41 63 -9 120 l28 50 -33 30 c-21 19 -43 29 -63 29
-25 0 -32 -6 -45 -36 -12 -28 -13 -43 -5 -66 16 -45 -1 -68 -48 -68 -45 0 -73
26 -95 87 -8 23 -24 55 -36 71 -29 39 -39 91 -40 195 l0 87 -110 0 -110 0 2
-31 c2 -24 -3 -36 -20 -47 -12 -8 -22 -20 -22 -26 0 -7 -20 -32 -45 -56 -42
-42 -45 -47 -45 -100 -1 -66 -18 -95 -52 -87 -34 9 -51 60 -36 109 10 34 8 43
-22 100 -53 99 -67 116 -98 110 -15 -3 -32 -9 -38 -14 -13 -10 -38 -2 -76 24
-22 15 -47 18 -166 18 -128 0 -143 -2 -183 -24 -24 -13 -62 -26 -85 -29 -37
-4 -43 -2 -58 24 -17 29 -19 29 -107 29 l-89 0 21 -21 c29 -29 20 -85 -18
-116 -31 -26 -54 -28 -86 -11 -68 36 -59 108 12 108 12 0 21 4 21 8 0 5 10 14
23 20 16 8 -134 11 -560 11 -396 1 -584 -2 -588 -9 -5 -8 -11 -8 -20 0 -9 8
-97 10 -287 8 -237 -3 -277 -5 -303 -21 -38 -22 -47 -21 -95 3 -33 17 -59 20
-159 20 -127 0 -151 -4 -151 -26 0 -20 -18 -17 -32 6 -12 19 -24 20 -353 20
-329 0 -341 -1 -353 -20 -17 -28 -72 -28 -72 0 0 19 -7 20 -208 20 -196 0
-208 -1 -220 -20 -10 -17 -16 -18 -37 -8 -14 6 -25 15 -25 20 0 4 -405 8 -900
8 l-900 0 0 -21 c0 -11 7 -33 15 -47 8 -15 19 -39 25 -54 7 -22 16 -28 39 -28
32 0 41 -14 41 -61 0 -60 -28 -83 -69 -58 -10 7 -29 9 -43 6 -33 -9 -56 -84
-36 -117 15 -24 3 -50 -31 -65 -22 -9 -23 -14 -17 -74 7 -66 -8 -111 -38 -111
-18 0 -46 33 -46 53 0 9 -4 17 -10 17 -5 0 -10 -9 -10 -20 0 -38 -22 -69 -59
-80 -20 -6 -53 -20 -73 -31 -36 -19 -77 -18 -104 2 -21 17 -5 188 24 260 9 22
6 32 -16 63 -21 30 -24 41 -16 63 12 35 28 39 51 14 17 -18 23 -19 51 -9 27
10 37 10 61 -5 42 -24 93 -22 117 6 28 32 44 64 44 86 0 11 4 22 9 26 12 7 3
71 -15 107 -8 15 -14 38 -14 53 0 24 -3 25 -54 25 -50 0 -56 -3 -73 -30 -9
-16 -20 -30 -24 -30 -4 0 -14 -2 -21 -5 -8 -3 -35 10 -61 30 l-46 35 -110 0
-109 0 -7 -32 c-4 -18 -23 -48 -41 -67 -19 -20 -47 -52 -64 -71 l-30 -35 -20
24 c-11 13 -20 31 -20 40 0 24 29 61 56 71 18 7 24 17 24 40 l0 30 -120 0
c-119 0 -120 0 -120 -23 0 -13 -4 -27 -9 -32 -5 -6 -13 -26 -18 -45 -7 -28
-15 -36 -38 -38 -34 -4 -89 24 -106 54 -6 13 -9 36 -6 53 l7 31 -166 0 c-145
0 -165 -2 -154 -15z m6359 -53 c7 -14 5 -21 -10 -30 -26 -16 -48 -15 -55 3
-14 37 46 62 65 27z m-2335 -16 c-3 -8 -1 -17 5 -21 25 -15 -6 -130 -41 -151
-16 -10 -46 -88 -54 -141 -4 -26 -15 -59 -25 -73 -10 -14 -20 -35 -22 -47 -2
-12 -12 -32 -22 -43 -17 -18 -26 -21 -65 -15 -25 4 -55 13 -67 21 -27 17 -30
59 -7 92 16 23 88 65 97 56 2 -3 14 27 26 65 14 44 29 74 41 81 26 14 40 43
46 93 7 72 13 85 37 90 45 9 56 7 51 -7z m-419 -6 c4 -6 10 -24 15 -41 7 -24
5 -34 -11 -50 -28 -28 -59 -25 -59 5 0 14 -4 28 -10 31 -11 7 -14 48 -3 58 10
11 61 8 68 -3z m1028 -23 c21 -24 17 -79 -8 -130 -12 -25 -12 -31 7 -62 20
-35 34 -43 40 -25 2 7 15 7 38 0 31 -9 37 -8 55 13 11 13 41 34 66 47 88 45
135 -1 89 -86 -21 -38 -22 -46 -12 -82 7 -22 19 -45 27 -52 19 -16 19 -54 0
-73 -22 -23 -106 -38 -146 -27 -26 8 -35 7 -41 -4 -7 -12 -16 -10 -52 10 -36
20 -45 31 -51 62 -10 51 -23 72 -45 72 -11 0 -38 18 -60 40 -48 48 -52 82 -15
120 22 23 24 31 15 54 -14 39 -12 83 6 122 14 29 20 33 43 28 14 -3 34 -16 44
-27z m-2509 -3 c14 -37 6 -93 -18 -121 -17 -20 -23 -36 -19 -56 5 -26 19 -32
64 -29 30 2 53 -36 57 -98 4 -57 4 -59 -28 -75 -26 -14 -37 -14 -60 -5 -29 12
-85 6 -95 -10 -3 -5 6 -33 20 -64 31 -69 33 -122 3 -153 -12 -13 -32 -23 -44
-23 -13 0 -26 -5 -29 -10 -9 -15 -58 0 -75 24 -8 12 -24 31 -36 43 -55 55 -70
107 -38 133 11 10 14 23 9 51 -22 127 -9 229 30 229 7 0 22 11 33 25 11 14 38
33 61 43 24 11 56 38 76 65 37 49 77 63 89 31z m3474 -8 c7 -6 19 -17 27 -23
18 -17 31 -16 60 3 35 23 105 9 167 -32 27 -19 62 -34 77 -34 37 0 65 -33 65
-75 0 -19 4 -35 8 -35 4 0 8 4 8 9 0 11 70 23 148 25 34 0 66 6 70 11 16 24
66 55 88 55 37 0 74 -41 74 -83 0 -20 -4 -38 -9 -42 -6 -3 -13 -26 -17 -51 -5
-35 -3 -49 11 -64 10 -11 19 -41 22 -74 4 -47 -1 -66 -27 -121 -28 -58 -34
-65 -53 -59 -39 12 -47 25 -48 78 -2 84 -13 150 -30 174 l-17 24 -34 -23 c-44
-29 -88 -90 -88 -123 0 -56 -77 -88 -114 -47 -22 24 -29 91 -10 98 9 3 14 20
14 44 0 32 -5 41 -29 54 -17 8 -36 23 -43 34 -7 10 -24 22 -38 26 -14 4 -33
14 -42 22 -14 12 -28 13 -84 4 -46 -7 -73 -7 -86 0 -20 11 -40 1 -66 -33 -7
-10 -19 -18 -26 -18 -12 0 -66 -104 -66 -125 0 -5 -7 -16 -16 -26 -12 -13 -22
-15 -43 -9 -35 10 -124 1 -133 -14 -12 -18 13 -36 49 -36 29 0 36 -5 48 -33
13 -32 10 -83 -6 -93 -14 -8 -10 -24 6 -24 25 0 30 -48 8 -73 -10 -12 -25 -39
-32 -60 -11 -32 -10 -39 4 -54 13 -12 16 -30 13 -75 -3 -54 -1 -60 22 -71 48
-24 30 -77 -31 -92 -40 -10 -56 16 -41 69 12 48 2 105 -23 126 -12 10 -24 10
-57 0 -87 -24 -177 -17 -196 16 -5 9 0 39 11 74 18 53 23 60 47 60 16 0 37 11
54 29 l28 29 -23 39 c-20 36 -21 43 -9 72 7 17 26 50 43 73 16 23 31 57 32 75
2 37 19 61 51 73 19 8 22 16 20 64 -1 45 -6 59 -24 72 -40 28 -22 114 24 114
14 0 46 13 70 30 101 68 150 79 192 46z m1413 -45 c23 -18 23 -18 5 -64 -9
-25 -32 -66 -51 -90 -32 -41 -33 -47 -22 -76 9 -26 9 -37 -3 -59 -20 -36 -98
-63 -148 -51 -22 5 -41 4 -48 -2 -13 -11 -54 46 -54 75 0 60 99 137 116 91 4
-9 19 -15 36 -15 21 0 27 4 21 13 -9 14 -9 16 -22 77 -14 64 -13 74 9 98 28
30 126 32 161 3z m195 -6 c12 -9 42 -14 81 -15 57 0 65 -3 100 -35 23 -21 44
-33 54 -30 40 13 79 -24 84 -80 2 -11 6 -42 10 -68 10 -61 -3 -86 -60 -117
-55 -30 -60 -42 -35 -82 39 -65 -19 -92 -80 -38 -18 17 -42 30 -52 30 -18 0
-22 -10 -33 -89 -5 -37 -4 -42 8 -32 18 15 31 0 52 -59 15 -43 12 -105 -6
-116 -6 -3 -28 13 -50 35 -38 37 -40 43 -34 79 6 35 3 42 -20 59 -21 15 -28
30 -32 67 l-6 48 -48 -4 c-37 -4 -52 -1 -64 12 -19 21 -11 44 20 58 24 11 24
12 9 62 -17 59 -14 73 27 130 23 31 36 41 50 37 11 -3 26 1 33 9 8 8 22 11 30
8 19 -7 20 0 5 28 -9 17 -17 19 -54 13 -39 -5 -46 -3 -60 18 -34 53 21 109 71
72z m-2928 -35 c17 -11 32 -24 32 -29 0 -5 15 -28 34 -50 40 -48 52 -79 37
-94 -7 -7 -7 -16 0 -29 16 -30 7 -72 -18 -83 -14 -6 -21 -18 -21 -35 1 -14 -4
-36 -11 -48 -7 -13 -9 -32 -6 -43 12 -35 -23 -149 -45 -149 -9 0 -60 134 -60
156 0 9 9 27 20 41 21 27 27 63 11 63 -18 0 -41 -31 -41 -55 0 -15 -10 -31
-26 -41 -14 -9 -23 -22 -20 -29 2 -7 1 -16 -3 -21 -5 -5 -20 -41 -35 -80 -45
-121 -91 -142 -135 -63 -21 36 -24 38 -36 23 -7 -10 -10 -26 -7 -37 4 -14 1
-18 -7 -13 -6 4 -50 14 -96 21 -47 8 -92 18 -101 23 -25 14 -53 -21 -61 -73
-5 -37 -2 -51 18 -80 21 -31 28 -35 54 -30 17 3 44 13 61 22 62 32 86 -12 39
-72 -23 -31 -23 -33 -5 -38 13 -3 17 -11 13 -26 -4 -17 -12 -21 -47 -20 -23 1
-63 -8 -93 -21 -55 -23 -69 -21 -83 14 -5 14 -23 27 -48 34 -22 7 -47 22 -55
35 -16 25 -84 63 -129 72 -26 5 -28 9 -28 58 0 28 5 69 11 90 12 45 12 46 -29
51 -26 4 -39 -4 -82 -45 -28 -27 -58 -66 -67 -86 -18 -45 -28 -53 -66 -53 -20
0 -32 -8 -45 -30 -12 -22 -24 -30 -44 -30 -16 0 -28 -4 -28 -9 0 -15 -51 -23
-66 -10 -18 15 -54 95 -54 120 0 20 -25 23 -85 10 -31 -7 -29 -11 20 -36 21
-11 35 -75 16 -75 -6 0 -15 -19 -21 -42 -16 -64 -28 -88 -43 -88 -8 0 -22 -9
-32 -20 -24 -27 -32 -25 -50 10 -14 26 -21 30 -59 30 -27 0 -48 6 -56 15 -8 9
-17 12 -24 7 -18 -15 -57 -21 -87 -15 -37 7 -40 44 -5 62 25 14 101 7 111 -10
4 -5 14 -4 23 2 17 11 22 70 9 109 -3 8 -8 23 -11 32 -3 11 3 26 17 38 17 16
19 23 9 29 -11 6 -10 10 3 15 27 10 45 7 45 -9 0 -18 50 -45 84 -45 19 0 27 8
36 34 11 36 71 106 89 106 6 0 11 4 11 10 0 12 58 2 87 -16 16 -10 24 -28 29
-64 6 -46 9 -50 28 -43 27 8 46 8 70 -2 17 -7 18 -4 12 41 -9 65 16 108 74
125 43 13 49 28 25 69 -38 67 -11 90 106 89 107 -1 111 -5 104 -104 l-4 -67
27 5 c18 4 36 -1 52 -13 21 -16 25 -28 27 -82 1 -35 2 -66 3 -70 0 -13 13 -9
39 11 21 16 24 26 22 64 -1 38 2 48 19 57 12 6 34 8 51 5 21 -5 31 -2 35 9 3
8 16 19 27 23 21 7 38 9 141 17 26 2 52 9 56 16 4 7 13 9 20 5 7 -5 0 16 -16
46 -27 49 -28 57 -17 89 6 19 12 47 12 62 1 37 12 41 40 12 30 -32 40 -23 36
30 -2 28 2 51 11 65 15 21 74 57 74 45 0 -14 41 30 68 72 24 39 37 49 67 53 6
0 25 -8 43 -19z m-805 -28 c22 -19 22 -56 0 -77 -9 -9 -20 -39 -24 -67 -9 -52
-29 -77 -64 -78 -12 0 -26 -5 -32 -11 -9 -9 -19 -9 -42 1 -26 11 -34 9 -64 -9
-43 -26 -69 -27 -92 -1 -15 16 -26 19 -49 14 -16 -3 -36 -13 -44 -20 -15 -16
-29 -10 -54 22 -16 20 -22 21 -52 12 -47 -15 -68 -5 -64 29 2 18 14 35 35 48
17 11 37 34 45 50 12 27 18 30 68 33 51 3 56 1 81 -29 27 -33 27 -33 69 -19
26 9 46 23 55 41 20 38 51 42 101 13 40 -24 65 -20 49 7 -11 17 4 57 23 62 19
4 30 0 55 -21z m3002 2 c9 -9 15 -28 13 -43 -2 -20 -9 -27 -32 -29 -31 -4 -46
10 -46 44 0 41 36 56 65 28z m-3901 -111 c16 -34 14 -53 -5 -53 -5 0 -23 -10
-39 -22 l-30 -21 -30 31 c-44 46 -40 78 14 106 37 19 68 5 90 -41z m151 37
c10 -11 24 -42 31 -70 7 -27 26 -67 43 -87 16 -21 33 -51 37 -66 4 -18 11 -26
20 -23 19 7 18 -18 -1 -34 -12 -10 -18 -10 -29 -1 -11 9 -20 9 -35 2 -11 -6
-31 -11 -45 -11 -14 0 -28 -4 -31 -10 -3 -5 -15 -10 -26 -10 -22 0 -42 41 -32
65 3 9 -3 26 -15 38 -51 54 -49 117 5 185 38 47 52 51 78 22z m-1992 -28 c23
-21 39 -84 29 -114 -5 -12 -7 -29 -5 -36 6 -15 -24 -52 -41 -52 -13 0 -66 -51
-66 -64 0 -6 -9 -17 -21 -24 -34 -21 -49 1 -49 69 0 33 -2 59 -6 59 -13 0 -84
-46 -84 -55 1 -5 7 -18 15 -28 24 -33 1 -73 -59 -101 -84 -40 -118 -130 -47
-124 39 3 61 -18 61 -58 0 -56 -27 -100 -71 -113 -30 -9 -40 -18 -49 -46 -6
-19 -9 -38 -6 -43 2 -4 1 -26 -4 -47 -7 -33 -6 -41 11 -52 10 -8 24 -23 29
-34 16 -28 -5 -95 -35 -115 -23 -15 -27 -15 -49 0 -14 9 -37 31 -52 50 l-28
34 -37 -21 c-41 -24 -56 -56 -39 -87 12 -23 -1 -34 -30 -25 -13 4 -20 2 -20
-6 0 -7 -7 -21 -16 -31 -14 -15 -15 -20 -3 -34 12 -14 11 -16 -6 -13 -11 2
-26 19 -34 37 -8 17 -20 32 -27 32 -17 0 -73 33 -78 45 -2 6 1 39 5 75 8 53 7
65 -6 73 -11 6 -15 25 -15 67 0 53 2 60 20 60 11 0 20 -3 20 -7 0 -5 10 -25
23 -46 l23 -37 32 42 c19 24 32 53 32 70 0 34 28 50 42 25 5 -10 20 -17 33
-17 13 0 26 -4 30 -9 6 -10 63 -41 75 -41 3 0 14 15 23 34 11 24 27 38 51 46
20 6 36 17 36 23 0 22 -53 57 -87 57 -22 0 -36 6 -40 16 -8 21 15 35 50 31 15
-2 27 -2 27 -1 0 1 3 10 6 18 4 11 2 15 -8 11 -24 -10 -40 20 -33 59 5 26 16
41 40 56 28 17 35 30 50 92 9 40 22 76 27 79 5 3 5 16 -1 32 -10 26 -11 26
-49 13 -55 -20 -86 -4 -90 47 -4 41 20 70 94 116 32 19 44 22 67 13 18 -7 39
-7 63 0 25 6 50 6 84 -3 43 -11 52 -10 91 9 46 23 71 21 102 -6z m7205 6 c18
-18 14 -63 -6 -81 -10 -10 -22 -14 -25 -10 -4 3 -7 -11 -8 -33 -3 -134 -20
-184 -62 -184 -43 1 -64 30 -71 98 -7 61 -6 64 25 92 22 21 41 30 65 30 38 0
39 2 23 29 -18 28 -3 71 24 71 13 0 28 -5 35 -12z m-5603 -8 c3 -5 -1 -10 -9
-10 -9 0 -16 5 -16 10 0 6 4 10 9 10 6 0 13 -4 16 -10z m-581 -96 c24 -35 17
-75 -16 -94 -25 -14 -28 -13 -42 5 -30 40 -12 115 29 115 7 0 20 -12 29 -26z
m4815 -48 c20 -44 42 -56 107 -56 31 0 32 -31 1 -85 -32 -56 -58 -57 -95 -3
-16 24 -42 54 -56 67 -30 28 -34 66 -10 99 22 32 32 28 53 -22z m-4944 -45 c3
-5 -4 -12 -14 -16 -11 -3 -18 -12 -15 -20 10 -26 -16 -26 -28 0 -10 22 -9 28
3 36 18 11 46 12 54 0z m870 -11 c13 -20 -6 -71 -30 -80 -27 -10 -45 -57 -45
-114 0 -55 11 -71 38 -57 56 30 90 -5 67 -69 -7 -19 -10 -40 -8 -46 2 -6 -3
-17 -12 -24 -12 -10 -21 -10 -41 -1 -35 16 -45 6 -42 -42 3 -33 -1 -42 -16
-45 -10 -2 -28 5 -40 17 -11 11 -31 29 -43 41 -30 26 -29 36 8 72 29 29 29 32
16 62 -11 23 -13 48 -7 98 9 84 30 118 70 118 27 0 30 3 30 33 0 19 3 37 7 40
10 11 41 8 48 -3z m1035 -21 c0 -5 -9 -9 -20 -9 -13 0 -18 5 -14 14 6 15 34
11 34 -5z m-470 -19 c15 -28 3 -59 -27 -71 -47 -18 -72 33 -36 73 21 24 50 23
63 -2z m-2840 -28 c0 -24 -6 -31 -37 -43 -42 -16 -86 -14 -80 4 2 7 20 20 39
29 20 10 39 22 43 28 13 21 35 10 35 -18z m5968 -18 c32 -22 28 -44 -7 -44
-29 0 -43 20 -34 48 6 16 14 15 41 -4z m-3398 -6 c0 -7 3 -23 6 -36 5 -17 3
-21 -9 -16 -8 3 -18 1 -22 -5 -10 -18 -25 -12 -25 9 0 11 6 29 12 40 14 22 38
27 38 8z m2708 0 c-6 -18 -28 -21 -28 -4 0 9 7 16 16 16 9 0 14 -5 12 -12z
m1368 -14 c-15 -10 -10 -13 33 -19 55 -7 95 -33 104 -64 3 -11 -4 -36 -14 -56
-14 -26 -18 -47 -13 -73 11 -69 11 -68 62 -68 l47 1 0 -60 c1 -55 -2 -63 -35
-97 -23 -25 -51 -42 -83 -50 -57 -15 -77 -6 -93 41 -11 33 -59 89 -69 79 -3
-3 0 -18 7 -32 9 -22 9 -32 0 -47 -9 -14 -9 -25 -2 -39 14 -26 13 -30 -9 -30
-13 0 -21 8 -23 23 -2 17 -15 26 -51 37 -48 15 -71 36 -60 54 3 5 -1 14 -9 20
-19 14 -38 50 -38 72 0 10 -9 37 -20 60 -20 39 -20 45 -6 79 13 31 20 36 43
33 17 -2 32 -12 39 -27 17 -34 65 -63 81 -49 7 6 13 9 14 7 0 -2 2 -13 4 -23
2 -11 15 -30 28 -44 29 -28 64 -25 97 8 28 28 25 40 -17 86 -30 32 -37 48 -41
91 -6 65 3 100 24 100 15 0 15 -1 0 -13z m-2340 -59 c14 -57 -29 -88 -60 -43
-20 29 -20 52 0 72 20 20 51 5 60 -29z m1276 33 c43 -36 62 -100 36 -127 -11
-10 -10 -14 5 -22 10 -6 17 -22 17 -39 0 -19 7 -33 20 -40 11 -6 29 -28 40
-50 11 -21 36 -51 55 -66 40 -31 47 -67 14 -84 -28 -16 -68 -4 -92 26 -13 17
-28 24 -46 23 -44 -4 -68 9 -75 43 -12 58 -6 99 20 146 17 31 22 48 14 50 -30
10 -61 50 -67 84 -9 56 22 85 59 56z m-4085 -14 c9 -23 -27 -51 -39 -30 -11
19 0 46 18 46 8 0 17 -7 21 -16z m1003 -9 c0 -8 -7 -15 -15 -15 -16 0 -20 12
-8 23 11 12 23 8 23 -8z m3761 -15 c16 -9 49 -58 49 -75 0 -11 -116 -5 -128 7
-19 19 -14 45 10 62 26 19 42 20 69 6z m1255 1 c5 -6 25 -5 51 2 58 15 91 2
119 -48 12 -22 20 -43 18 -46 -5 -9 44 -41 81 -54 17 -6 31 -18 33 -30 6 -33
30 -53 57 -47 17 3 27 -1 31 -12 8 -22 -15 -48 -36 -41 -13 4 -21 -2 -28 -25
-13 -35 -25 -37 -69 -10 -24 14 -33 27 -34 47 0 19 -13 38 -39 61 -37 32 -40
33 -62 18 -12 -9 -42 -16 -65 -16 -51 0 -83 29 -83 75 0 22 -6 33 -22 40 -26
11 -34 45 -18 74 11 22 49 28 66 12z m-2699 -25 c21 -20 18 -42 -10 -94 -23
-42 -33 -52 -54 -52 -69 0 -86 79 -28 137 35 35 62 38 92 9z m1117 -1 c14 -13
26 -28 27 -32 0 -4 2 -20 3 -35 1 -17 16 -40 39 -62 45 -41 46 -52 6 -61 -37
-8 -64 12 -73 56 -5 25 -10 29 -41 29 -34 0 -75 27 -75 51 0 19 33 68 49 72
31 9 38 7 65 -18z m-4565 -14 c31 -23 50 -27 74 -17 35 16 50 -1 44 -49 -9
-59 -23 -80 -74 -107 -24 -13 -43 -28 -43 -35 0 -7 -20 -21 -44 -31 -24 -11
-47 -25 -50 -31 -11 -17 -33 -13 -39 8 -2 10 -1 53 3 95 7 68 12 81 49 131 23
30 44 55 47 55 3 0 18 -9 33 -19z m4066 -15 c37 -37 32 -68 -15 -109 -38 -32
-40 -37 -29 -60 13 -29 6 -57 -14 -57 -7 0 -32 20 -55 43 l-43 44 11 68 c6 38
15 74 20 80 4 5 29 11 54 13 38 2 50 -2 71 -22z m-4831 -3 c3 -8 -8 -18 -28
-27 -28 -12 -38 -24 -56 -74 -19 -51 -27 -61 -60 -76 -37 -16 -39 -19 -42 -69
l-3 -52 -33 3 c-49 3 -82 -23 -82 -65 0 -31 4 -36 39 -50 22 -9 42 -24 44 -35
3 -11 15 -22 27 -25 16 -4 21 -12 18 -32 -1 -14 0 -31 4 -36 3 -6 9 -25 13
-43 8 -38 25 -48 54 -32 16 8 21 8 21 -3 0 -7 -5 -18 -12 -25 -6 -6 -12 -23
-12 -37 -1 -14 -8 -30 -16 -35 -14 -9 -22 -130 -7 -130 4 0 7 -7 7 -15 0 -8 5
-15 10 -15 6 0 10 6 10 13 0 44 165 131 288 153 89 16 129 17 136 6 3 -5 -8
-9 -24 -9 -28 0 -76 -30 -65 -41 2 -3 -4 -17 -15 -32 -11 -16 -20 -33 -20 -39
0 -7 -7 -14 -15 -17 -8 -4 -15 -15 -15 -25 0 -10 -7 -19 -15 -19 -14 0 -19
-16 -16 -52 3 -23 -35 -59 -53 -52 -15 6 -16 -11 -2 -34 4 -7 2 -19 -4 -27 -8
-9 -8 -15 -2 -15 14 0 33 -58 21 -65 -5 -4 -9 -16 -9 -29 0 -30 61 -52 91 -33
16 10 21 9 29 -2 6 -11 12 -12 22 -4 15 13 42 11 81 -5 37 -16 34 -27 -10 -38
-32 -7 -38 -13 -38 -36 -1 -23 3 -26 35 -26 19 0 41 5 48 10 16 14 15 -2 -3
-25 -7 -11 -17 -36 -20 -58 -4 -21 -11 -37 -16 -33 -5 3 -7 9 -4 14 5 8 -17
20 -36 20 -15 0 -10 -26 11 -53 24 -30 26 -47 5 -47 -13 0 -14 -4 -5 -21 17
-31 6 -33 -25 -5 -16 15 -35 26 -44 26 -10 0 -22 5 -27 10 -6 6 -31 11 -56 12
-31 0 -55 8 -72 22 l-27 21 19 37 c12 23 22 71 27 123 6 80 5 88 -18 128 -16
27 -45 54 -81 76 -51 31 -62 33 -111 28 -53 -5 -55 -5 -55 18 0 13 4 25 9 27
6 2 4 26 -4 58 -10 41 -14 47 -14 25 -1 -28 -2 -28 -18 -12 -15 14 -15 22 -5
50 7 18 12 48 12 66 0 30 -2 33 -24 27 -28 -7 -44 10 -27 27 11 11 16 57 6 57
-2 0 -21 -11 -41 -25 -40 -27 -63 -32 -65 -12 -1 6 -3 28 -5 47 -10 108 -9
105 -38 108 -30 4 -44 25 -29 45 12 15 43 110 43 132 0 9 7 27 16 40 14 21 14
31 3 74 -10 40 -10 56 0 77 11 25 15 26 56 21 36 -5 49 -3 72 16 16 12 37 27
48 33 11 6 23 28 27 49 14 65 40 84 120 82 29 0 49 -5 52 -14z m1804 -11 c2
-12 -1 -22 -7 -22 -13 0 -32 35 -24 44 12 12 28 0 31 -22z m2186 12 c9 -3 16
-14 16 -24 0 -10 16 -27 35 -39 35 -20 35 -21 21 -49 -8 -16 -22 -35 -31 -42
-9 -7 -23 -26 -31 -41 -13 -26 -12 -30 11 -53 14 -14 25 -32 25 -40 0 -8 -16
-45 -35 -82 -26 -50 -34 -75 -30 -96 4 -15 4 -36 0 -47 -7 -23 -93 -83 -107
-75 -5 3 -20 30 -33 60 -22 49 -23 62 -16 123 10 81 19 100 67 140 35 28 36
31 25 59 -7 16 -10 47 -7 68 15 125 37 158 90 138z m3606 -44 c26 -26 25 -48
-2 -77 -27 -29 -51 -29 -78 -1 -27 29 -35 64 -20 83 18 22 76 19 100 -5z
m-7102 -43 c55 -53 46 -75 -55 -125 -94 -48 -105 -46 -117 13 -8 37 22 88 71
121 43 28 63 27 101 -9z m5093 23 c10 -6 19 -19 19 -28 0 -10 14 -37 32 -61
26 -36 30 -47 22 -69 -12 -33 -35 -38 -80 -17 -43 20 -68 16 -72 -12 -2 -12
-10 -27 -18 -33 -8 -7 -14 -25 -14 -39 0 -21 8 -31 34 -44 27 -13 33 -20 29
-37 -12 -46 -58 -38 -131 22 -41 33 -52 48 -52 71 0 46 28 94 66 112 22 10 34
23 34 36 0 29 40 79 75 95 37 16 33 16 56 4z m-1771 -15 c7 -8 21 -15 31 -15
11 0 19 -6 19 -12 0 -9 4 -8 10 2 5 8 10 12 10 8 0 -3 3 -13 6 -22 4 -11 0
-16 -14 -16 -13 0 -21 -9 -25 -28 -6 -31 -76 -122 -93 -122 -6 0 -17 -7 -24
-16 -8 -8 -29 -22 -49 -30 -20 -8 -45 -24 -57 -35 l-22 -21 -48 49 c-27 26
-53 49 -59 49 -5 1 -16 2 -24 3 -11 1 -12 15 -7 74 4 39 8 82 9 95 2 26 12 28
26 5 8 -15 11 -15 26 -3 24 20 45 21 69 4 11 -8 17 -14 13 -14 -5 0 -5 -5 -2
-11 5 -7 14 -4 27 8 58 53 153 78 178 48z m-3703 -33 c12 -6 26 -27 33 -46 6
-19 17 -37 25 -40 21 -8 19 -50 -5 -93 -26 -49 -10 -69 26 -30 22 24 47 33 72
25 22 -8 -14 -88 -41 -88 -5 0 -24 -7 -42 -16 -19 -9 -42 -14 -51 -12 -20 3
-50 51 -70 107 -7 21 -24 42 -41 52 -25 14 -28 21 -31 77 -2 50 1 65 17 81 17
17 23 18 53 7 18 -6 43 -17 55 -24z m1195 26 c24 -19 32 -57 14 -64 -23 -9
-56 14 -56 40 0 37 15 45 42 24z m7020 -69 c17 -62 17 -64 -3 -106 -35 -72
-89 -84 -89 -20 0 19 -7 40 -15 47 -19 16 -19 36 -1 43 10 4 15 20 14 48 0 49
21 72 55 60 15 -6 26 -26 39 -72z m-6866 34 c-10 -10 -19 5 -10 18 6 11 8 11
12 0 2 -7 1 -15 -2 -18z m-331 -44 c4 -11 4 -32 1 -45 -4 -16 -1 -30 9 -40 25
-26 18 -63 -19 -98 -43 -40 -56 -66 -56 -110 0 -48 13 -52 46 -12 53 61 62 71
98 104 37 33 51 38 75 23 10 -6 12 -22 9 -56 -5 -44 -4 -48 23 -64 28 -15 40
-41 54 -108 5 -26 3 -33 -10 -33 -8 0 -18 -7 -22 -16 -3 -8 -12 -13 -19 -10
-17 6 -74 -50 -74 -72 1 -16 2 -15 14 1 20 26 29 21 24 -15 -3 -20 0 -38 9
-46 8 -8 12 -21 9 -29 -3 -8 -6 -23 -6 -34 0 -10 -4 -19 -10 -19 -5 0 -10 8
-10 18 0 11 -3 13 -8 5 -9 -14 -30 -18 -62 -10 -14 3 -46 9 -72 12 l-48 6 0
-30 c0 -17 -4 -31 -9 -31 -13 0 -19 108 -9 154 6 27 6 42 -1 44 -6 2 -11 10
-11 18 0 22 -16 16 -28 -11 -18 -39 -39 -30 -69 28 -57 112 -21 309 69 375 26
19 22 32 -11 32 -16 0 -31 6 -34 15 -7 17 11 31 36 27 10 -2 31 8 48 22 37 31
55 33 64 5z m1335 11 c0 -5 -7 -10 -15 -10 -8 0 -15 5 -15 10 0 6 7 10 15 10
8 0 15 -4 15 -10z m838 -29 c20 -10 51 -25 67 -33 25 -12 30 -20 28 -48 -1
-27 -12 -45 -51 -82 -32 -31 -56 -46 -66 -42 -8 3 -28 29 -45 58 -72 128 -39
201 67 147z m3222 9 c0 -5 -4 -10 -9 -10 -6 0 -13 5 -16 10 -3 6 1 10 9 10 9
0 16 -4 16 -10z m192 -37 c13 -12 15 -20 6 -39 -6 -13 -18 -25 -27 -25 -30 -2
-36 -4 -69 -22 -23 -13 -50 -17 -90 -15 -50 3 -57 6 -60 25 -4 25 16 38 73 49
22 4 53 18 69 31 32 26 66 25 98 -4z m-4233 -10 c6 -11 5 -26 -1 -42 -28 -75
-24 -238 6 -228 6 2 16 -9 23 -25 16 -38 25 -35 45 13 21 50 45 49 63 -4 7
-20 18 -44 25 -52 17 -21 68 -19 113 5 71 38 112 16 58 -32 -17 -15 -40 -28
-50 -28 -23 0 -169 -46 -184 -58 -18 -14 -45 -10 -63 9 -19 21 -11 39 17 39
11 0 19 7 19 16 0 12 -6 15 -21 11 -12 -3 -22 0 -26 9 -7 19 -32 18 -39 -1 -8
-20 -23 -19 -94 5 -58 19 -60 19 -102 1 -24 -10 -49 -26 -57 -35 -25 -30 -48
-20 -54 27 -4 23 -9 54 -13 68 -8 36 15 43 62 19 66 -34 119 0 93 61 -10 26
-9 32 7 43 14 11 17 25 15 63 -2 46 0 52 32 76 30 23 90 54 109 56 4 1 11 -7
17 -16z m4482 -19 c8 -9 13 -34 13 -55 -1 -33 2 -39 20 -39 27 0 51 -15 51
-32 1 -13 8 -14 35 -4 19 8 55 -17 46 -32 -4 -7 -17 -8 -35 -2 -33 9 -81 2
-86 -14 -12 -39 -15 -87 -6 -81 6 3 11 17 11 30 0 21 2 22 24 12 27 -13 35
-46 32 -130 -2 -36 -7 -51 -24 -62 -12 -9 -19 -22 -16 -30 4 -8 2 -15 -4 -15
-6 0 -12 6 -15 13 -3 9 -8 7 -18 -5 -8 -9 -40 -25 -71 -36 -68 -22 -100 -58
-102 -110 -1 -27 -7 -39 -23 -48 -13 -6 -32 -19 -44 -30 -19 -17 -19 -19 -2
-25 14 -5 10 -9 -21 -23 -21 -9 -42 -16 -45 -16 -13 0 -43 -74 -32 -78 34 -11
-10 -74 -98 -140 -17 -13 -31 -29 -31 -36 0 -8 -12 -11 -35 -8 -32 4 -34 6
-29 31 4 14 11 34 16 44 7 14 5 24 -10 40 -24 27 -66 143 -58 162 3 8 28 29
56 46 27 17 50 35 50 40 0 5 9 9 20 9 11 0 20 6 20 13 0 21 -11 27 -31 16 -15
-8 -22 -3 -39 30 -11 22 -25 43 -30 46 -6 4 -15 18 -20 31 -19 50 82 183 140
184 14 0 30 8 35 19 41 76 61 111 87 144 31 39 56 50 43 20 -22 -53 -21 -78 3
-110 34 -46 68 -45 76 2 5 24 19 44 45 66 36 29 39 34 40 85 1 83 29 118 62
78z m723 0 c21 -8 21 -50 0 -58 -27 -10 -64 4 -64 25 0 16 10 25 47 38 1 1 8
-2 17 -5z m-3242 -61 c35 -31 14 -109 -28 -101 -22 4 -29 34 -19 84 7 38 19
42 47 17z m3012 1 c9 -8 16 -23 17 -32 0 -11 2 -12 6 -4 9 24 41 13 52 -18 11
-34 7 -56 -14 -64 -11 -4 -12 -12 -4 -35 l11 -31 36 35 c39 36 72 46 72 20 0
-8 5 -14 11 -12 14 2 22 -81 14 -130 -8 -43 -21 -41 -60 4 l-32 38 -22 -35
c-11 -19 -21 -42 -21 -51 0 -9 -5 -30 -11 -48 -8 -23 -17 -31 -35 -31 -28 0
-30 -7 -8 -31 21 -24 10 -39 -30 -39 -44 0 -47 5 -30 47 15 34 13 63 -3 63
-13 0 -31 -49 -26 -69 6 -24 -13 -36 -32 -21 -12 10 -15 9 -15 -9 0 -11 -4
-21 -9 -21 -13 0 -51 49 -51 65 0 7 -18 20 -41 29 -31 13 -39 20 -35 34 3 10
6 38 7 62 0 25 5 60 11 78 8 28 14 33 36 30 16 -2 31 -13 39 -27 12 -26 32
-40 63 -46 24 -5 80 -45 81 -59 1 -6 1 -22 0 -36 0 -15 2 -19 6 -10 3 8 19 41
34 74 27 53 37 88 23 74 -3 -4 -41 11 -85 33 -43 21 -86 39 -94 39 -10 0 -15
10 -15 28 0 40 83 117 132 121 4 1 14 -6 22 -15z m-2454 -45 c0 -52 -92 -86
-138 -52 -33 24 -41 60 -15 65 10 3 48 5 86 5 59 0 67 -2 67 -18z m750 -58 c0
-54 11 -65 58 -57 34 5 47 1 88 -27 37 -24 51 -41 58 -68 13 -52 2 -85 -33
-97 -16 -6 -39 -20 -50 -31 -17 -17 -28 -19 -73 -14 -29 3 -61 10 -70 14 -9 5
-34 9 -56 9 -49 0 -67 19 -58 62 4 18 10 53 13 78 3 25 9 50 15 57 5 6 7 26 4
45 -7 39 17 74 55 80 35 6 49 -9 49 -51z m2331 49 c14 -8 19 -21 19 -51 0 -22
8 -51 17 -65 16 -25 16 -27 -8 -45 -13 -10 -28 -19 -34 -19 -5 0 -27 -16 -48
-35 l-37 -34 -42 21 c-39 20 -111 28 -126 13 -11 -11 34 -35 80 -41 57 -8 72
-23 63 -64 -10 -45 -46 -50 -109 -15 -47 25 -85 60 -86 77 0 4 7 14 16 22 14
15 14 18 -8 35 -16 13 -25 16 -30 8 -5 -8 -9 -6 -14 6 -7 19 21 58 40 55 6 0
19 3 30 7 13 6 21 3 28 -8 5 -10 15 -17 23 -17 8 0 20 -9 27 -20 21 -33 27
-23 22 36 -6 80 20 115 101 135 44 10 54 10 76 -1z m215 -59 c-5 -8 -13 -8
-27 0 -17 8 -18 13 -8 25 11 13 14 13 27 0 8 -8 11 -19 8 -25z m-7872 4 c21
-33 20 -61 -4 -85 -19 -19 -20 -19 -60 7 -48 32 -51 54 -7 82 41 27 51 26 71
-4z m5955 6 c9 -6 11 -18 7 -35 -5 -20 -13 -26 -34 -26 -20 0 -30 -8 -40 -28
-11 -24 -11 -28 8 -41 19 -13 19 -15 3 -45 -9 -17 -21 -41 -27 -53 -14 -28
-19 -28 -88 -3 -72 26 -84 45 -68 111 13 53 55 98 93 100 12 0 42 6 67 13 58
17 62 17 79 7z m-3389 -56 c7 -9 14 -43 16 -75 l2 -59 -44 -26 c-24 -14 -49
-23 -54 -20 -18 11 -10 51 14 75 22 20 23 24 10 37 -17 17 -19 74 -2 91 12 12
36 3 58 -23z m2001 18 c1 -10 2 -29 2 -43 1 -22 6 -26 41 -30 32 -4 46 -1 64
14 34 30 28 -2 -8 -43 -43 -48 -39 -101 7 -101 14 0 37 -8 51 -19 15 -10 51
-31 80 -46 42 -22 57 -36 69 -67 l15 -39 62 2 c33 0 69 3 79 6 24 6 22 23 -3
23 -33 0 -34 26 -7 93 14 34 28 74 31 90 4 15 11 27 16 27 27 0 59 -23 84 -59
27 -39 29 -45 23 -114 -6 -62 -3 -77 14 -106 l20 -34 -31 7 c-17 3 -43 15 -57
26 -20 15 -41 20 -90 20 -77 0 -122 -21 -175 -79 -20 -23 -41 -40 -45 -39 -4
2 -12 -10 -17 -25 -8 -22 -7 -30 4 -38 12 -7 11 -10 -7 -15 -23 -6 -41 -36
-24 -42 6 -2 6 -12 -1 -28 -9 -19 -9 -27 0 -33 15 -9 16 -74 4 -131 -7 -28 -7
-49 -1 -55 13 -13 11 -22 -6 -29 -18 -7 -56 49 -48 70 3 8 -2 26 -12 40 -14
21 -15 35 -6 89 5 35 7 73 4 84 -3 13 7 37 31 70 20 27 36 54 36 60 0 16 -42
24 -80 14 -42 -11 -78 -66 -59 -89 21 -25 2 -27 -45 -3 -30 14 -46 29 -46 41
0 19 -14 48 -42 87 -38 51 -11 117 71 176 27 20 51 41 54 48 6 18 -3 37 -18
37 -8 0 -22 11 -33 25 -16 20 -20 42 -21 100 0 43 4 75 9 75 6 0 11 -8 11 -17z
m-794 -5 c16 -20 13 -105 -3 -119 -25 -21 -42 -2 -49 55 -4 30 -4 59 0 65 9
15 40 14 52 -1z m-2684 -18 c13 -12 4 -41 -15 -53 -25 -16 -68 7 -68 36 0 13
3 27 7 31 8 8 64 -2 76 -14z m377 8 c0 -19 -18 -43 -25 -36 -9 9 4 48 16 48 5
0 9 -6 9 -12z m1767 -28 c18 -16 45 -30 58 -30 14 0 25 -6 25 -13 0 -7 9 -29
20 -50 12 -21 19 -46 16 -55 -7 -22 9 -49 18 -33 14 22 42 11 59 -24 23 -48
22 -62 -5 -59 -13 1 -24 3 -25 3 -2 1 -6 1 -10 2 -16 1 -43 33 -43 49 0 12 -7
15 -34 12 -36 -4 -46 11 -46 71 0 23 -4 27 -18 23 -11 -4 -32 4 -51 19 -26 19
-38 22 -52 14 -11 -5 -19 -15 -19 -22 1 -31 20 -90 33 -100 8 -7 17 -20 20
-29 5 -14 1 -18 -18 -18 -18 0 -25 5 -25 19 0 31 -18 34 -32 5 -9 -19 -28 -32
-63 -44 -27 -9 -58 -20 -68 -25 -13 -6 -20 0 -32 28 -8 19 -21 37 -30 40 -10
4 -15 20 -15 47 0 25 -4 39 -10 35 -5 -3 -10 -24 -10 -46 l0 -40 -30 21 c-28
20 -30 25 -24 58 8 40 31 87 61 121 17 20 25 21 103 16 47 -3 101 -8 121 -10
30 -4 38 -1 49 20 17 33 35 32 77 -5z m103 2 c0 -13 -12 -22 -22 -16 -10 6 -1
24 13 24 5 0 9 -4 9 -8z m495 -12 c3 -5 1 -10 -4 -10 -6 0 -11 5 -11 10 0 6 2
10 4 10 3 0 8 -4 11 -10z m4002 -7 c4 -10 17 -28 30 -41 25 -22 25 -49 1 -79
-16 -20 -71 -16 -90 6 -26 30 -25 46 2 90 26 44 47 52 57 24z m-1789 -17 c2
-10 -1 -23 -7 -29 -14 -14 -41 9 -41 35 0 26 43 21 48 -6z m-6044 -42 c4 -9
13 -14 21 -10 20 7 68 -11 60 -24 -9 -14 -78 -13 -93 2 -14 14 -16 48 -3 48 5
0 12 -7 15 -16z m447 -25 c46 -55 64 -105 51 -134 -6 -14 -18 -25 -27 -25 -10
0 -15 -10 -15 -27 -1 -25 -3 -24 -25 19 -21 39 -31 48 -60 54 -28 5 -36 12
-41 33 -3 14 -9 44 -14 65 -5 22 -6 44 -3 49 3 5 28 7 56 4 42 -4 55 -10 78
-38z m3512 19 c15 -7 27 -15 27 -18 0 -3 -18 -21 -40 -39 -46 -38 -50 -50 -16
-44 13 3 27 0 31 -6 9 -16 -15 -43 -35 -38 -10 3 -16 -2 -16 -14 0 -11 1 -19
2 -19 18 0 64 26 64 36 0 16 26 19 35 4 11 -17 20 -3 23 31 3 39 18 59 43 59
17 0 19 -8 19 -60 0 -57 -1 -60 -25 -60 -14 0 -25 -3 -26 -7 0 -5 -2 -18 -5
-31 -3 -20 -2 -21 15 -10 11 7 17 17 13 23 -3 5 2 4 11 -4 21 -17 21 -24 1
-67 -13 -28 -14 -40 -5 -60 17 -37 14 -42 -28 -49 -46 -8 -125 11 -115 27 4 6
1 9 -6 6 -53 -17 30 -60 113 -59 42 0 59 -3 63 -14 4 -10 15 -12 35 -8 21 4
29 2 29 -8 1 -10 5 -8 15 5 11 15 17 17 29 7 9 -7 17 -8 20 -2 3 5 0 12 -6 14
-8 4 -7 6 4 6 9 1 20 13 25 28 l10 28 17 -28 c10 -15 16 -34 12 -42 -9 -24
-87 -55 -185 -74 -83 -17 -85 -18 -46 -24 22 -4 55 -7 73 -7 17 0 32 -4 32
-10 0 -5 7 -10 16 -10 8 0 12 -5 9 -10 -4 -6 -10 -8 -15 -5 -5 3 -11 1 -14 -3
-3 -5 -54 -12 -113 -16 -84 -5 -118 -3 -151 8 -23 8 -42 13 -42 11 0 -14 76
-45 128 -51 58 -6 62 -8 56 -28 -8 -26 -22 -35 -54 -37 -49 -2 41 -21 127 -26
77 -5 87 -3 150 27 37 17 71 36 75 43 5 7 8 2 8 -13 0 -20 -10 -29 -51 -48
-27 -13 -76 -27 -107 -33 -31 -6 -63 -18 -69 -27 -11 -13 -13 -13 -13 -1 0 11
-2 11 -9 1 -4 -7 -14 -12 -21 -10 -7 2 -15 -3 -17 -9 -3 -9 6 -13 25 -13 31 0
66 -25 57 -40 -3 -5 -24 -11 -48 -15 -53 -8 -115 -33 -144 -58 -24 -22 -45
-15 -36 11 3 9 3 14 -1 11 -4 -4 -21 7 -37 22 -17 16 -40 29 -51 29 -12 0 -36
9 -54 21 -28 17 -46 20 -100 16 -86 -6 -160 12 -157 39 1 10 -3 22 -9 25 -14
9 -82 -7 -86 -21 -7 -20 -22 1 -22 31 0 23 4 29 21 29 12 0 19 5 16 13 -2 6
-10 11 -16 10 -6 -2 -11 0 -11 3 0 11 23 49 42 71 12 12 17 27 13 34 -5 7 -4
10 3 5 19 -11 34 30 20 54 -14 23 -43 28 -35 6 3 -8 -1 -17 -10 -20 -11 -4
-14 -2 -9 9 3 9 0 15 -8 15 -9 0 -12 18 -11 68 0 37 -5 84 -11 105 -7 21 -8
37 -2 37 5 0 36 -27 70 -59 54 -53 64 -59 91 -54 17 4 49 18 71 33 23 15 51
31 64 34 12 4 22 11 22 16 0 5 7 7 15 4 9 -4 17 1 21 12 3 11 12 32 21 47 9
17 12 39 8 56 -4 21 1 38 19 66 15 21 26 44 26 52 0 12 84 73 100 73 3 0 18
-6 33 -12z m-4207 -29 c55 -14 60 -37 7 -31 -39 4 -63 17 -63 33 0 11 2 11 56
-2z m1504 -31 c25 -16 27 -63 3 -73 -27 -12 -74 -5 -115 16 -44 23 -46 31 -15
59 18 18 30 21 64 16 24 -3 52 -11 63 -18z m5970 -3 c0 -22 -99 -70 -114 -55
-17 17 46 70 84 70 20 0 30 -5 30 -15z m-8341 -34 c8 -14 7 -20 -3 -24 -16 -6
-36 11 -36 30 0 20 28 16 39 -6z m3727 8 c4 -7 7 -24 6 -40 0 -23 5 -30 34
-39 49 -17 42 -31 -13 -26 -60 6 -83 14 -83 32 0 8 -7 14 -15 14 -20 0 -20
-77 -1 -103 22 -29 9 -57 -28 -57 -17 0 -37 4 -44 9 -15 9 -12 14 33 46 19 14
19 16 2 29 -10 8 -17 22 -15 32 5 27 -19 28 -38 0 -17 -27 -54 -36 -54 -13 0
31 96 107 149 118 54 10 59 10 67 -2z m5244 -29 c0 -5 -6 -10 -14 -10 -8 0
-18 5 -21 10 -3 6 3 10 14 10 12 0 21 -4 21 -10z m-8693 -39 c46 -33 73 -67
73 -92 0 -23 -230 -139 -275 -139 -29 0 -33 4 -38 33 -12 86 46 183 129 212
55 20 66 19 111 -14z m6133 -6 c0 -20 -28 -31 -42 -17 -6 6 -17 8 -24 5 -8 -3
-14 -1 -14 5 0 13 18 20 53 21 18 1 27 -4 27 -14z m-4131 -16 c30 -11 31 -13
31 -70 0 -32 -4 -59 -8 -59 -5 0 -14 23 -21 50 -7 28 -16 48 -20 45 -5 -2 -13
7 -19 20 -13 28 -8 30 37 14z m-269 -20 c0 -5 -4 -9 -10 -9 -5 0 -10 7 -10 16
0 8 5 12 10 9 6 -3 10 -10 10 -16z m660 -9 c0 -20 -23 -43 -33 -33 -9 8 -9 48
-1 56 11 11 34 -5 34 -23z m130 8 c0 -7 -13 -20 -29 -29 -21 -13 -30 -26 -33
-53 -3 -23 0 -36 8 -36 6 0 14 -9 17 -20 3 -12 14 -20 25 -20 11 0 31 -13 44
-30 l23 -30 49 15 c27 8 68 15 90 14 l41 -1 -35 -9 c-19 -5 -57 -19 -83 -31
-32 -15 -51 -18 -55 -11 -10 15 -57 9 -57 -8 0 -8 -4 -20 -9 -27 -6 -10 -16 1
-35 40 -21 40 -32 52 -47 50 -31 -5 -38 -5 -54 2 -23 9 -81 -30 -74 -49 4 -9
13 -14 22 -10 8 3 23 -2 33 -11 11 -10 19 -14 19 -9 0 4 11 0 24 -9 15 -10 27
-12 31 -6 3 6 16 10 27 10 21 0 21 0 -2 -25 -13 -13 -32 -27 -42 -31 -14 -4
-16 -9 -9 -18 6 -7 8 -16 4 -20 -4 -4 2 -15 14 -24 27 -22 42 -65 18 -56 -9 4
-22 19 -31 35 -8 16 -19 29 -25 29 -8 0 -8 4 0 13 6 8 8 17 4 20 -3 4 -12 -1
-19 -11 -11 -16 -13 -16 -33 2 -11 10 -21 28 -23 39 -2 12 -11 23 -20 25 -24
5 -44 -44 -26 -65 7 -8 13 -22 14 -31 3 -17 22 -32 42 -32 21 0 42 -27 36 -45
-6 -15 -4 -15 14 -4 28 17 33 11 25 -35 -4 -24 -10 -35 -18 -32 -16 6 -45 -25
-45 -47 0 -9 -4 -16 -9 -15 -14 4 -50 -42 -45 -57 3 -7 1 -16 -5 -20 -14 -8
-14 -55 -1 -55 6 0 10 4 10 9 0 5 27 9 60 10 55 0 79 -11 48 -22 -7 -2 -9 -8
-5 -13 5 -5 17 1 27 14 25 30 50 29 50 -2 0 -14 -4 -28 -10 -31 -6 -4 -5 -13
3 -26 11 -18 6 -25 -40 -68 -40 -37 -53 -44 -56 -32 -3 10 -5 7 -6 -7 0 -13
-5 -20 -11 -17 -5 3 -10 0 -10 -9 0 -8 -6 -17 -12 -19 -10 -4 -9 -8 2 -16 12
-8 16 -6 22 12 5 18 6 16 7 -11 1 -19 5 -31 11 -27 6 3 11 -4 11 -17 1 -18 2
-19 6 -5 3 10 -1 25 -8 33 -8 10 -9 18 -3 22 6 4 13 14 16 23 8 20 49 29 93
19 23 -5 36 -4 39 4 2 6 5 3 5 -6 1 -14 9 -18 34 -17 55 2 82 13 82 35 0 12 6
28 12 36 14 17 11 71 -5 90 -20 25 -25 96 -8 125 8 15 22 45 30 66 8 20 20 37
25 37 23 0 9 36 -26 72 -20 21 -32 38 -26 38 6 0 16 -7 23 -15 7 -8 17 -15 22
-15 15 0 46 -42 53 -70 9 -37 34 -63 90 -93 54 -29 155 -67 195 -73 109 -17
101 -12 94 -55 -4 -26 -3 -39 5 -39 15 0 13 -50 -3 -79 -15 -27 -112 -60 -178
-61 -20 0 -39 -4 -43 -9 -7 -12 30 -75 45 -77 5 -1 13 -2 18 -3 14 -2 -69 -71
-93 -77 -14 -3 -43 -4 -64 -2 -33 3 -42 0 -52 -18 -6 -12 -23 -27 -37 -34 -38
-17 -52 8 -52 93 0 37 -5 77 -11 88 -10 20 -11 20 -30 3 -23 -21 -25 -36 -3
-27 15 5 15 3 0 -25 -9 -17 -22 -34 -28 -38 -9 -5 -8 -2 1 9 8 10 12 20 9 23
-8 7 -88 -86 -88 -102 0 -7 -5 -16 -12 -20 -8 -5 -9 -1 -5 12 5 15 3 14 -10
-4 -9 -13 -38 -46 -65 -75 -26 -28 -48 -60 -48 -70 0 -11 -11 -41 -25 -69 -35
-69 -33 -92 5 -50 34 37 49 43 26 10 -9 -12 -16 -31 -16 -42 0 -20 0 -20 14 0
13 17 13 14 2 -20 -8 -22 -22 -45 -32 -53 -35 -26 -48 -16 -72 60 -12 39 -22
80 -22 89 0 12 -24 26 -80 48 -70 26 -167 49 -179 41 -2 -2 -7 3 -11 9 -5 8
-9 7 -13 -5 -4 -10 -3 -14 4 -9 8 4 9 -4 4 -27 -4 -25 -3 -30 4 -19 9 13 11
13 11 -1 0 -9 -9 -27 -21 -40 l-21 -24 8 30 7 29 -29 -23 -29 -23 -8 32 c-4
17 -12 28 -16 25 -14 -8 -32 21 -25 39 5 12 0 19 -15 23 -14 4 -22 14 -23 32
-2 46 -7 75 -19 123 -11 42 -10 50 4 66 10 10 17 24 17 31 0 7 5 9 10 6 6 -4
18 -1 26 6 13 10 12 15 -7 36 -13 12 -32 23 -45 23 -34 0 -87 26 -111 54 l-23
26 22 37 c30 53 90 146 103 159 13 13 51 34 62 34 4 0 0 -5 -9 -11 -10 -5 -18
-15 -18 -22 0 -7 -7 -25 -15 -40 -13 -25 -13 -29 1 -34 9 -3 20 0 26 8 6 10 7
4 3 -18 -5 -26 -2 -34 15 -43 11 -6 24 -9 28 -6 4 2 7 -10 7 -27 -3 -72 -4
-75 -25 -70 -24 6 -26 -3 -5 -24 8 -8 13 -19 10 -24 -4 -5 -1 -9 4 -9 6 0 11
5 11 10 0 6 7 10 15 10 8 0 15 -7 15 -16 0 -11 5 -14 18 -9 9 3 37 12 61 18
45 12 67 41 55 72 -4 8 -2 15 3 15 5 0 17 16 26 35 9 19 21 35 26 35 6 0 27
16 48 35 21 19 44 35 51 35 18 0 14 58 -8 105 l-19 40 0 -34 c-2 -61 -12 -26
-22 75 -9 85 -14 103 -36 126 -26 27 -26 27 -13 104 6 43 14 83 17 90 3 9 -4
11 -24 9 -15 -2 -53 -5 -83 -5 -70 -2 -90 -8 -90 -27 0 -8 -6 -13 -12 -10 -7
2 -21 -2 -30 -10 -15 -14 -16 -12 -11 19 3 18 9 38 14 44 12 15 70 24 189 31
54 2 101 10 110 17 20 17 89 36 131 36 27 1 38 7 54 33 31 49 135 91 135 55z
m618 1 c-5 -14 -98 -50 -110 -43 -14 9 3 26 22 21 10 -2 25 4 34 14 17 20 60
26 54 8z m283 1 c5 0 9 -4 9 -10 0 -5 -11 -10 -25 -10 -16 0 -25 6 -25 16 0
11 5 14 16 10 9 -3 20 -6 25 -6z m-1320 -20 c27 -22 22 -25 -15 -10 -14 5 -26
14 -26 20 0 16 15 12 41 -10z m5269 -15 c21 -25 1 -31 -22 -7 -18 18 -19 22
-6 22 8 0 21 -7 28 -15z m980 -26 c0 -5 -6 -9 -14 -9 -15 0 -28 24 -19 34 7 7
33 -13 33 -25z m-5162 10 c17 -6 33 -17 36 -25 4 -10 13 -13 31 -8 15 4 25 2
25 -5 0 -6 -11 -11 -24 -11 -25 0 -70 -44 -79 -77 -8 -28 -20 -77 -22 -88 -1
-5 -3 -14 -3 -19 -1 -5 -12 4 -24 20 -13 16 -33 37 -45 47 -37 30 -25 68 22
72 25 2 35 19 35 61 0 48 2 49 48 33z m1804 -25 c38 -5 44 -9 43 -30 0 -28
-30 -51 -71 -56 -26 -3 -29 0 -29 26 0 16 -5 31 -12 33 -15 5 -5 33 12 33 7 0
32 -3 57 -6z m1725 -40 c12 -17 12 -19 -2 -22 -11 -3 -14 -10 -10 -23 4 -11 8
-33 10 -49 4 -27 0 -32 -33 -46 -20 -9 -54 -16 -76 -15 -55 3 -78 -20 -69 -72
l6 -40 -21 21 c-11 11 -28 34 -36 51 -9 16 -25 32 -36 36 -11 3 -20 10 -20 15
0 4 -14 10 -30 12 -29 4 -30 4 -15 -16 9 -12 32 -54 52 -95 28 -57 36 -85 36
-125 -1 -100 -10 -242 -18 -293 -6 -46 -5 -53 9 -53 9 0 16 -3 16 -6 0 -3 -34
-42 -75 -87 -66 -70 -75 -85 -75 -118 0 -41 -13 -57 -34 -40 -7 6 -35 16 -62
23 -27 7 -61 22 -75 33 -22 18 -25 28 -26 99 -2 114 -34 193 -123 311 -34 46
-52 128 -39 179 12 50 36 129 44 149 6 14 2 17 -22 17 -20 0 -43 -13 -77 -45
-27 -25 -53 -45 -57 -45 -9 0 2 34 22 73 13 23 65 77 75 77 3 0 19 12 34 28
54 51 71 63 88 60 9 -1 22 1 29 5 22 14 170 21 177 8 4 -6 18 -11 32 -11 17 0
24 -5 24 -20 0 -14 7 -20 23 -20 13 0 29 -6 35 -12 10 -10 17 -10 35 2 12 7
51 29 87 47 57 30 72 34 124 30 43 -2 62 -9 73 -23z m-1537 10 c0 -12 -21 -44
-29 -44 -12 0 -23 29 -15 41 6 10 44 13 44 3z m-3761 -40 c12 -19 21 -41 21
-49 0 -14 24 -27 34 -18 3 4 6 26 6 51 0 38 2 43 15 32 8 -7 19 -27 23 -44 5
-20 15 -32 29 -34 13 -2 24 -13 28 -30 4 -15 12 -30 18 -34 7 -4 -2 -18 -23
-38 l-33 -31 -22 21 -22 21 5 -53 c2 -29 5 -54 6 -55 2 -2 20 6 42 17 45 24
100 20 147 -9 l28 -18 -41 -28 c-22 -16 -44 -33 -48 -40 -13 -20 -66 -52 -104
-63 -33 -9 -39 -7 -59 14 -12 13 -29 24 -36 24 -8 0 -12 4 -9 9 9 14 -18 61
-35 61 -19 0 -29 -28 -29 -87 0 -52 -15 -56 -24 -7 -6 27 -14 38 -37 46 -16 5
-29 16 -29 23 0 17 -132 135 -150 135 -12 0 -40 60 -40 85 0 34 34 10 42 -29
11 -51 14 -53 39 -30 16 14 23 15 26 7 8 -22 41 4 48 37 7 33 25 41 25 11 0
-33 19 -34 46 -1 15 17 40 38 56 46 20 10 28 21 24 30 -5 14 2 64 9 64 2 0 12
-16 24 -36z m6941 -26 c0 -6 -13 -8 -32 -4 -40 8 -44 12 -29 30 11 14 16 13
37 -1 13 -8 24 -20 24 -25z m-3040 7 c11 -13 8 -13 -19 -4 -35 12 -40 19 -12
19 10 0 24 -7 31 -15z m-104 -33 c-11 -12 -19 -13 -27 -5 -8 8 -4 15 13 27 28
20 39 3 14 -22z m2199 28 c3 -5 1 -10 -4 -10 -6 0 -11 5 -11 10 0 6 2 10 4 10
3 0 8 -4 11 -10z m-4608 -36 c-3 -3 -12 -4 -19 -1 -8 3 -5 6 6 6 11 1 17 -2
13 -5z m4608 -4 c-4 -6 13 -10 44 -10 74 0 62 -18 -14 -22 -46 -2 -66 1 -70
10 -2 7 5 17 18 22 29 12 29 12 22 0z m-2276 -91 c-13 -10 -28 -19 -33 -19 -6
0 -3 6 6 13 9 6 19 26 23 42 l7 30 11 -23 c9 -21 7 -27 -14 -43z m-2499 41
c-8 -5 -19 -10 -25 -10 -5 0 -3 5 5 10 8 5 20 10 25 10 6 0 3 -5 -5 -10z
m5178 4 c18 -5 52 -48 52 -67 0 -2 -45 -2 -100 1 l-99 5 12 -27 c11 -24 13
-25 25 -8 11 15 14 15 22 2 13 -20 13 -33 0 -25 -5 3 -10 0 -10 -8 0 -10 -7
-13 -20 -10 -30 8 -109 -26 -146 -62 -34 -35 -58 -92 -52 -127 3 -15 9 -3 17
35 7 32 15 57 17 55 9 -10 11 -54 2 -65 -14 -18 -2 -44 16 -37 23 9 43 -40 26
-61 -8 -9 -22 -14 -32 -12 -10 3 -18 1 -18 -5 0 -6 -10 -8 -23 -6 -13 2 -29
-2 -36 -9 -8 -9 -17 -11 -24 -5 -8 6 -23 4 -42 -7 -22 -12 -29 -22 -27 -39 3
-17 -2 -25 -17 -29 -12 -3 -21 -10 -21 -15 0 -9 23 -4 70 15 25 11 25 11 3 14
-36 7 -27 30 15 37 69 11 72 10 61 -26 -12 -42 -11 -58 1 -58 10 0 21 34 24
75 1 17 7 25 20 25 12 0 16 -5 12 -15 -3 -8 0 -20 7 -27 7 -7 13 -37 14 -67 1
-30 7 -57 14 -62 18 -11 -30 -78 -56 -81 -41 -3 -61 3 -81 27 -15 18 -24 21
-32 13 -23 -23 -59 7 -77 64 -22 69 -42 114 -73 161 -22 33 -23 39 -10 50 27
21 65 91 72 133 6 32 3 45 -13 65 -13 17 -19 40 -19 73 0 47 0 48 29 44 16 -3
34 1 39 7 14 17 200 10 211 -7 5 -8 11 -4 18 14 15 41 16 41 191 56 8 1 25 -1
38 -4z m-6914 -51 c85 -12 105 -24 115 -73 5 -28 14 -34 79 -60 78 -30 105
-47 96 -61 -3 -5 1 -7 8 -4 7 3 19 -5 27 -17 13 -21 13 -22 -3 -9 -25 21 -31
5 -18 -44 7 -25 12 -65 12 -90 0 -44 1 -45 33 -45 17 0 48 4 67 10 55 14 123
18 150 8 40 -15 127 -76 150 -106 l22 -27 -21 -3 c-21 -3 -30 -22 -11 -22 5 0
14 -9 20 -20 24 -44 -32 -106 -102 -115 -26 -3 -32 -13 -19 -29 8 -10 9 -16 1
-21 -5 -3 -10 -12 -9 -18 0 -7 7 -2 16 10 17 25 34 28 65 12 20 -11 20 -11 -5
-35 -14 -13 -35 -24 -45 -24 -14 0 -25 -13 -35 -39 -9 -22 -20 -42 -26 -45 -5
-3 -7 -15 -4 -26 3 -11 1 -20 -5 -20 -6 0 -12 12 -14 27 -2 14 -9 29 -17 31
-11 4 -12 -3 -8 -29 4 -19 3 -39 -1 -44 -13 -19 -61 -45 -84 -45 -18 -1 -20
-3 -8 -9 8 -5 84 -12 169 -15 153 -7 171 -9 171 -26 0 -10 -39 -25 -56 -22 -6
1 -26 -4 -45 -12 l-34 -15 33 -7 c47 -10 50 -24 4 -24 -31 0 -41 -4 -45 -20
-3 -13 -14 -20 -28 -20 -37 0 -9 -19 36 -25 44 -5 108 11 100 26 -8 12 6 11
25 -1 19 -12 8 -22 -46 -40 -42 -14 -44 -17 -30 -35 14 -19 15 -19 50 -2 20 9
36 13 36 8 0 -6 -9 -13 -20 -16 -11 -4 -18 -10 -15 -15 8 -13 -6 -40 -21 -40
-18 0 -62 27 -88 53 -20 21 -40 11 -41 -21 -2 -47 -19 -122 -27 -122 -6 0 -23
9 -39 21 -22 15 -29 28 -29 54 0 18 5 35 11 37 14 5 -6 47 -30 65 -23 17 -25
8 -5 -23 18 -27 17 -26 -60 14 -55 29 -83 39 -91 32 -7 -6 -27 -7 -45 -4 -30
6 -32 5 -25 -15 5 -15 1 -23 -12 -28 -26 -9 -33 -24 -22 -45 9 -17 12 -17 25
-3 18 17 30 19 39 5 3 -6 -2 -14 -12 -18 -10 -4 -19 -18 -21 -32 -2 -19 0 -22
10 -12 6 6 15 12 18 12 8 0 6 -32 -3 -47 -4 -6 -4 -18 -1 -27 3 -9 3 -16 -1
-16 -17 0 -64 35 -75 56 -7 12 -23 27 -36 32 -12 6 -31 24 -41 39 -17 27 -33
43 -43 43 -12 0 -39 -57 -31 -66 5 -5 11 -24 15 -42 5 -30 4 -33 -17 -30 -17
2 -23 -3 -26 -22 -1 -14 -8 -28 -15 -32 -6 -5 -1 -8 12 -8 18 0 22 4 17 19 -7
24 21 36 30 13 3 -9 1 -18 -4 -20 -6 -2 -11 -10 -11 -18 0 -8 -8 -14 -17 -14
-9 0 -24 -6 -32 -13 -9 -7 -62 -24 -118 -37 -107 -25 -130 -39 -65 -41 26 -1
19 -4 -28 -10 -79 -11 -98 -6 -79 18 11 13 11 17 2 20 -17 6 -16 36 1 76 20
48 163 190 231 230 33 19 84 40 113 47 28 7 52 16 52 21 0 5 -10 19 -22 31
-19 19 -20 24 -9 52 7 17 14 40 15 51 0 11 7 24 14 28 6 4 12 17 12 28 0 11 5
30 11 42 9 16 9 22 0 25 -6 2 -11 10 -11 18 0 8 -4 14 -10 14 -5 0 -10 -6 -10
-14 0 -24 -41 -148 -47 -142 -3 3 1 34 10 68 8 35 21 99 27 143 12 78 43 163
76 208 16 22 16 22 10 -13 -3 -18 -10 -36 -14 -40 -19 -14 -30 -48 -20 -58 16
-16 38 4 38 34 0 13 5 24 11 24 7 0 8 -7 4 -17 -3 -10 -9 -31 -11 -48 -5 -25
0 -21 25 24 37 64 57 118 48 127 -3 3 -20 9 -38 13 l-32 6 51 67 50 67 -39 53
c-42 58 -50 72 -73 138 -14 41 -22 49 -82 78 -44 22 -64 37 -61 46 7 18 -22
26 -90 26 -49 0 -53 2 -53 24 0 14 5 37 11 53 9 24 12 26 22 13 7 -10 43 -20
91 -27z m1874 -50 c12 -17 22 -41 22 -52 0 -20 -2 -20 -22 -7 -13 8 -26 15
-30 16 -5 0 -8 3 -9 8 0 4 -7 15 -16 24 -13 14 -13 22 -2 55 l12 38 11 -25 c6
-14 21 -40 34 -57z m1114 21 l84 -16 0 -32 c-1 -18 -5 -33 -11 -32 -30 2 -105
-17 -99 -25 3 -6 -4 -13 -17 -16 -22 -6 -22 -7 -3 -14 17 -7 17 -8 1 -8 -10
-1 -16 -5 -13 -9 9 -15 -11 -33 -50 -46 -30 -10 -43 -22 -59 -55 -23 -49 -40
-50 -73 -1 -13 19 -34 42 -47 50 -32 19 -37 35 -25 80 13 47 52 90 82 90 22 0
68 54 68 80 0 5 18 1 39 -11 21 -11 77 -27 123 -35z m295 29 c-15 -35 -29 -46
-39 -30 -12 19 -10 26 20 41 15 8 28 15 29 16 2 0 -3 -12 -10 -27z m-1530 -57
c2 -20 0 -36 -5 -36 -4 0 -9 10 -9 23 -1 12 -5 33 -8 47 -5 19 -4 22 6 13 6
-6 13 -28 16 -47z m2666 34 c31 -11 62 -20 70 -20 7 0 35 -20 62 -43 48 -43
49 -44 27 -56 -19 -10 -22 -9 -22 6 0 13 -11 6 -35 -24 -34 -39 -38 -41 -82
-38 -51 4 -56 10 -75 74 -9 32 -22 50 -46 64 -38 23 -37 39 4 48 16 4 31 7 34
8 3 0 31 -8 63 -19z m1811 -59 c7 -10 -33 -23 -46 -15 -5 3 -6 10 -3 15 8 12
42 12 49 0z m-4288 -19 c13 -8 15 -44 2 -36 -4 3 -8 -3 -8 -13 0 -13 -4 -10
-15 11 -19 37 -8 58 21 38z m3729 -22 c16 -30 9 -40 -13 -18 -12 12 -17 48 -7
48 2 0 11 -13 20 -30z m517 -4 c11 -20 10 -20 -9 -3 -11 9 -25 17 -32 17 -7 0
-10 4 -6 10 8 14 34 1 47 -24z m-252 -6 c0 -10 -9 -24 -20 -30 -17 -9 -19 -8
-13 7 7 19 23 43 29 43 2 0 4 -9 4 -20z m-7126 3 c4 -5 12 -8 18 -8 6 0 13
-11 14 -25 3 -21 2 -23 -9 -9 -6 8 -20 18 -29 22 -10 3 -18 11 -18 17 0 12 13
13 24 3z m5807 -52 c19 -32 16 -39 -23 -64 -32 -20 -42 -22 -31 -4 10 15 10
18 12 62 1 43 20 46 42 6z m-2841 -22 c0 -5 -9 -1 -20 8 -11 10 -20 22 -20 27
0 5 9 1 20 -9 11 -10 20 -22 20 -26z m4050 21 c-8 -5 -26 -10 -40 -10 -20 0
-22 2 -10 10 8 5 26 10 40 10 20 0 22 -2 10 -10z m130 -16 c0 -2 -7 -4 -15 -4
-8 0 -15 4 -15 10 0 5 7 7 15 4 8 -4 15 -8 15 -10z m-3960 -38 c0 -7 -9 -21
-20 -31 -18 -17 -21 -17 -45 -1 -33 22 -32 36 4 36 17 0 33 5 36 10 8 13 25 3
25 -14z m520 -7 c-63 -18 -104 -18 -84 1 10 10 52 17 109 18 37 0 36 -1 -25
-19z m4240 17 c0 -3 -4 -8 -10 -11 -5 -3 -10 -1 -10 4 0 6 5 11 10 11 6 0 10
-2 10 -4z m50 -21 c11 -13 8 -15 -14 -15 -25 0 -33 10 -19 23 10 11 19 8 33
-8z m-3930 -1 c0 -2 -9 -8 -20 -14 -15 -8 -18 -8 -14 3 4 11 34 21 34 11z
m-2490 -34 c6 -11 8 -20 6 -20 -3 0 -10 9 -16 20 -6 11 -8 20 -6 20 3 0 10 -9
16 -20z m1089 -22 c1 -5 -6 -8 -14 -8 -15 0 -21 31 -8 44 7 6 20 -17 22 -36z
m3469 9 c18 3 32 1 32 -5 0 -5 -21 -12 -47 -14 -51 -5 -233 -86 -233 -103 0
-5 -7 -23 -16 -40 -10 -19 -11 -31 -5 -33 6 -2 11 -10 11 -18 0 -8 16 -22 35
-30 19 -8 35 -19 35 -24 0 -6 35 -10 83 -10 90 0 102 -5 122 -43 21 -40 -8
-134 -61 -197 -27 -31 -28 -31 -36 -11 -14 39 -26 22 -33 -46 -3 -38 -8 -86
-12 -108 -4 -33 -3 -38 8 -27 20 18 39 15 39 -8 0 -13 7 -20 20 -20 23 0 26
-13 7 -29 -22 -17 -139 -9 -159 12 -10 9 -25 17 -33 17 -9 0 -35 10 -57 21
-28 14 -43 18 -46 10 -5 -16 -27 -14 -42 4 -7 8 -21 15 -30 15 -10 0 -20 3
-22 8 -1 4 -20 15 -41 25 -36 16 -38 19 -31 50 3 17 17 45 29 62 25 34 39 110
24 137 -7 12 -3 35 11 75 34 92 35 105 15 120 -11 7 -16 13 -12 13 4 0 2 11
-3 25 -6 17 -6 33 2 49 10 23 12 24 33 10 21 -14 29 -12 106 24 126 59 154 70
193 77 20 4 39 11 42 16 3 5 12 5 22 0 9 -5 32 -6 50 -4z m-2086 -9 c-9 -9
-15 -9 -24 0 -9 9 -7 12 12 12 19 0 21 -3 12 -12z m-7 -28 c3 -5 -1 -10 -9
-10 -9 0 -16 5 -16 10 0 6 4 10 9 10 6 0 13 -4 16 -10z m2881 -6 c-3 -9 -6
-21 -6 -27 0 -8 -3 -8 -10 -1 -12 12 -3 44 12 44 6 0 7 -7 4 -16z m1332 0 c34
-4 62 -9 62 -12 0 -4 -18 -24 -39 -47 -44 -45 -81 -106 -81 -134 0 -35 -22
-81 -39 -81 -9 0 -37 -11 -63 -25 -26 -14 -50 -25 -53 -25 -3 0 2 11 11 25 9
14 22 25 28 25 7 0 30 25 51 55 35 52 37 59 31 109 -3 29 -13 66 -21 82 -21
41 -19 47 18 40 17 -3 60 -9 95 -12z m-4258 -24 c0 -5 -9 -10 -20 -10 -11 0
-20 -4 -20 -10 0 -5 -5 -10 -12 -10 -23 0 -120 -54 -149 -82 -21 -21 -29 -25
-29 -14 0 9 -4 16 -10 16 -5 0 -10 -7 -10 -15 0 -8 -7 -15 -15 -15 -9 0 -15
-9 -15 -25 0 -42 -18 -28 -25 19 -8 53 -2 66 30 66 18 0 23 4 18 16 -5 13 -2
15 15 10 11 -4 23 -2 27 4 3 5 17 10 30 10 13 0 27 5 30 11 4 6 13 8 21 5 7
-3 16 0 20 5 3 6 14 9 23 6 10 -2 26 2 36 9 22 16 55 18 55 4z m3870 -30 c0
-5 -2 -10 -4 -10 -3 0 -8 5 -11 10 -3 6 -1 10 4 10 6 0 11 -4 11 -10z m-4362
-9 c11 -7 10 -10 -3 -15 -20 -7 -38 1 -30 15 7 11 16 11 33 0z m-678 -16 c0
-2 -10 -10 -22 -16 -21 -11 -22 -11 -9 4 13 16 31 23 31 12z m3164 -4 c17 -6
16 -9 -8 -24 -30 -20 -46 -15 -46 14 0 20 19 24 54 10z m-3105 -15 c10 -12 8
-13 -8 -9 -12 3 -21 9 -21 14 0 14 16 11 29 -5z m2169 -17 c-3 -8 -7 -3 -11
10 -4 17 -3 21 5 13 5 -5 8 -16 6 -23z m-2836 -1 c-7 -7 -12 -8 -12 -2 0 6 3
14 7 17 3 4 9 5 12 2 2 -3 -1 -11 -7 -17z m6618 12 c0 -5 -4 -10 -10 -10 -5 0
-10 5 -10 10 0 6 5 10 10 10 6 0 10 -4 10 -10z m-8970 -8 c0 -13 -12 -22 -22
-16 -10 6 -1 24 13 24 5 0 9 -4 9 -8z m9013 -6 c9 -7 17 -18 17 -25 0 -6 6
-11 13 -12 13 0 -21 -17 -38 -18 -24 -1 -36 17 -29 42 7 30 12 32 37 13z
m-7875 -43 c13 -20 26 -50 29 -67 6 -28 5 -30 -10 -17 -9 7 -17 22 -17 33 0
11 -9 31 -20 45 -11 14 -20 30 -20 34 0 19 16 7 38 -28z m-748 -128 c7 -22 19
-49 26 -60 8 -11 14 -31 14 -45 0 -14 9 -38 20 -55 23 -35 26 -71 6 -91 -21
-20 -36 -17 -36 6 0 29 -29 82 -40 75 -6 -4 -10 3 -10 14 0 15 -5 19 -22 16
-24 -5 -48 -24 -32 -26 5 -1 -18 -7 -51 -14 -52 -11 -55 -13 -25 -15 19 -1 29
-4 23 -7 -26 -10 -12 -21 17 -13 17 5 30 5 30 0 0 -5 12 -13 28 -18 23 -9 24
-11 6 -11 -12 -1 -27 -8 -34 -16 -7 -8 -22 -15 -34 -15 -46 -1 -121 -27 -119
-41 2 -8 -10 -20 -27 -26 -17 -6 -30 -8 -30 -3 0 4 10 10 23 14 20 5 22 11 21
53 -2 31 4 58 16 78 14 23 17 42 13 80 -4 35 -2 47 5 40 6 -5 12 -23 14 -39 4
-38 25 -45 34 -11 5 19 11 24 23 20 9 -4 42 -8 74 -11 l57 -4 -6 43 c-4 23
-11 48 -16 54 -6 7 -8 19 -5 26 3 7 1 37 -4 65 -7 38 -7 58 3 74 12 21 13 18
19 -37 3 -33 12 -78 19 -100z m-370 115 c0 -11 -7 -20 -15 -20 -18 0 -19 12
-3 28 16 16 18 15 18 -8z m2400 16 c0 -3 -4 -8 -10 -11 -5 -3 -10 -1 -10 4 0
6 5 11 10 11 6 0 10 -2 10 -4z m5647 -48 c-3 -8 -6 -5 -6 6 -1 11 2 17 5 13 3
-3 4 -12 1 -19z m-5696 -41 c-10 -9 -11 -8 -5 6 3 10 9 15 12 12 3 -3 0 -11
-7 -18z m47 -8 c-3 -8 -7 -3 -11 10 -4 17 -3 21 5 13 5 -5 8 -16 6 -23z m2456
5 c3 -9 6 -27 6 -42 0 -35 -17 -17 -25 26 -5 33 8 45 19 16z m-429 -19 c50 -8
93 -15 98 -15 4 0 7 -10 7 -22 0 -21 1 -21 17 -6 15 16 18 16 34 -3 14 -17 17
-17 23 -4 3 9 10 14 16 10 10 -6 -6 -44 -25 -57 -13 -9 -27 1 -19 14 4 7 2 8
-4 4 -7 -4 -12 -2 -12 4 0 6 -4 8 -10 5 -5 -3 -10 -11 -10 -16 0 -6 5 -7 10
-4 6 3 10 2 10 -3 0 -11 -57 -28 -125 -38 -27 -4 -52 -10 -55 -13 -8 -10 -69
-51 -75 -51 -10 0 -55 104 -55 128 0 12 4 30 9 40 5 9 12 25 15 36 5 14 12 17
34 12 15 -3 68 -13 117 -21z m3685 5 c0 -5 -5 -10 -11 -10 -5 0 -7 5 -4 10 3
6 8 10 11 10 2 0 4 -4 4 -10z m-1762 -21 c25 -8 33 -18 38 -45 3 -19 4 -37 1
-41 -7 -6 -87 76 -87 89 0 11 11 10 48 -3z m1942 -33 c0 -31 -20 -47 -51 -39
l-24 7 25 6 c14 3 27 15 29 25 3 17 1 18 -13 6 -9 -7 -16 -9 -16 -4 0 15 11
23 32 23 12 0 18 -7 18 -24z m-6070 -16 c0 -15 -5 -12 -26 11 -19 22 -19 22 4
10 12 -6 22 -16 22 -21z m-170 10 c0 -5 -5 -10 -11 -10 -5 0 -7 5 -4 10 3 6 8
10 11 10 2 0 4 -4 4 -10z m6950 -50 c0 -16 -4 -30 -10 -30 -5 0 -10 14 -10 30
0 17 5 30 10 30 6 0 10 -13 10 -30z m-5045 -43 c-8 -28 -17 -73 -20 -99 -3
-26 -11 -51 -17 -54 -7 -5 -9 4 -4 27 4 19 8 43 10 54 16 104 25 137 36 130 5
-3 2 -29 -5 -58z m2377 27 c-2 -16 -3 -50 -2 -75 0 -25 -6 -59 -15 -75 -8 -16
-15 -35 -15 -42 0 -28 -31 -72 -50 -72 -24 0 -25 19 -5 85 8 27 17 80 21 117
5 54 11 72 28 83 29 21 42 13 38 -21z m-3348 -103 c-30 -49 -57 -103 -60 -120
-4 -17 -9 -31 -13 -31 -12 0 -71 -56 -71 -68 0 -7 -4 -12 -8 -12 -5 0 -13 -10
-19 -22 -9 -20 -10 -19 -8 12 3 52 14 81 48 123 20 26 32 35 37 26 11 -16 36
25 55 89 15 50 26 64 54 69 7 1 18 6 24 12 6 6 12 11 14 11 1 0 -23 -40 -53
-89z m5656 54 c0 -19 -48 -31 -63 -16 -9 9 -8 14 3 21 23 15 60 12 60 -5z m60
-5 c-20 -13 -43 -13 -35 0 3 6 16 10 28 10 18 0 19 -2 7 -10z m-7640 -55 c9
-10 9 -15 1 -15 -6 0 -11 4 -11 9 0 5 -12 12 -27 14 l-28 4 26 2 c15 0 32 -6
39 -14z m5965 -24 c1 -22 10 -55 20 -75 15 -28 17 -38 7 -48 -7 -7 -12 -19
-12 -29 0 -9 -10 -29 -22 -45 l-23 -29 -5 45 c-6 54 -30 61 -44 13 -5 -18 -15
-33 -23 -33 -12 0 -12 -3 1 -16 20 -19 20 -33 0 -72 -19 -40 -35 -41 -28 -3 5
24 2 30 -15 36 -27 8 -48 -8 -65 -49 -7 -17 -32 -51 -54 -76 -32 -35 -42 -41
-42 -26 0 19 -1 19 -20 1 -20 -18 -21 -18 -15 1 7 19 6 19 -9 0 -9 -11 -16
-32 -16 -48 0 -15 -4 -28 -10 -28 -5 0 -10 -8 -10 -17 0 -13 -3 -14 -11 -6 -9
9 -9 23 -1 55 6 24 14 59 17 79 3 20 34 79 70 134 36 54 65 103 65 109 1 18
34 52 66 69 16 8 40 27 53 41 13 14 36 28 52 31 16 4 31 11 34 16 4 5 14 9 23
9 13 0 17 -9 17 -39z m-3000 -8 c-4 -10 -11 -47 -16 -82 -8 -55 -28 -114 -29
-86 -1 30 35 185 43 185 5 0 6 -8 2 -17z m-3655 -33 c-34 -11 -60 -11 -35 0
11 5 29 8 40 8 16 0 15 -2 -5 -8z m2615 -22 c-7 -33 -25 -62 -25 -41 0 15 21
73 27 73 2 0 2 -15 -2 -32z m178 26 c10 -10 -12 -44 -28 -44 -19 0 -19 -34 0
-50 27 -22 17 -33 -27 -27 -61 7 -99 24 -92 40 7 18 82 73 109 80 31 7 31 7
38 1z m-2867 -61 c-8 -16 -17 -36 -20 -45 -3 -10 -11 -18 -17 -18 -8 0 -9 4 0
13 6 8 8 16 5 20 -7 7 25 57 38 57 5 0 2 -12 -6 -27z m1889 16 c10 -15 2 -19
-24 -12 -17 4 -19 8 -9 14 18 12 26 11 33 -2z m5645 -14 c0 -16 -34 -38 -44
-28 -12 12 -6 32 12 36 30 8 32 7 32 -8z m-4559 -32 c20 -31 20 -33 3 -40 -12
-4 -24 2 -41 23 -12 16 -23 35 -23 42 0 25 41 8 61 -25z m-1131 -10 c0 -8 -5
-13 -12 -11 -18 6 -21 25 -3 25 8 0 15 -7 15 -14z m1787 -5 c-3 -8 -6 -5 -6 6
-1 11 2 17 5 13 3 -3 4 -12 1 -19z m-4019 -66 c2 -7 -2 -12 -8 -12 -7 0 -10
-7 -7 -14 4 -10 1 -13 -9 -9 -9 3 -14 -2 -14 -15 0 -26 -16 -37 -24 -16 -10
25 -7 59 6 72 14 14 50 10 56 -6z m3642 -2 c0 -5 -5 -10 -11 -10 -5 0 -7 5 -4
10 3 6 8 10 11 10 2 0 4 -4 4 -10z m-3567 -75 c-10 -25 -22 -45 -27 -45 -4 0
-5 7 -2 16 3 9 6 31 6 50 0 20 4 33 9 29 5 -3 13 0 17 7 17 27 15 -14 -3 -57z
m9279 43 c-12 -12 -35 -1 -27 12 3 5 13 6 21 3 10 -4 12 -9 6 -15z m-6912 -14
c0 -21 -17 -17 -23 5 -3 14 -1 18 9 14 8 -3 14 -11 14 -19z m476 -35 c-8 -21
-15 -27 -15 -16 -1 17 20 59 27 53 1 -2 -4 -19 -12 -37z m-676 11 c19 -15 22
-22 13 -31 -9 -9 -8 -17 4 -36 14 -21 14 -26 2 -33 -10 -7 -16 -4 -20 8 -4 9
-5 20 -2 25 2 4 -7 7 -21 7 -23 0 -26 4 -26 33 0 52 11 57 50 27z m162 -31
c44 -22 108 -77 108 -91 0 -6 -8 0 -18 12 -20 24 -42 20 -42 -7 0 -10 6 -13
16 -9 8 3 12 2 9 -4 -9 -14 -42 -12 -54 3 -6 6 -24 28 -41 48 -16 20 -30 40
-30 44 0 4 -8 14 -17 22 -16 13 -16 13 7 7 14 -4 42 -15 62 -25z m4581 -86
c-21 -16 -25 -16 -48 0 -29 22 -11 36 30 23 32 -10 34 -12 18 -23z m-4553 -33
c0 -5 -2 -10 -4 -10 -3 0 -8 5 -11 10 -3 6 -1 10 4 10 6 0 11 -4 11 -10z m72
-19 c2 -17 1 -28 -4 -25 -8 5 -12 54 -4 54 2 0 6 -13 8 -29z m6823 -200 c8
-15 -47 -62 -69 -59 -24 4 -41 30 -33 52 5 11 19 16 51 16 25 0 47 -4 51 -9z
m-8015 -105 c0 -3 -4 -8 -10 -11 -5 -3 -10 -1 -10 4 0 6 5 11 10 11 6 0 10 -2
10 -4z m-1003 -26 c1 -12 -4 -20 -13 -20 -12 0 -12 4 -4 20 6 11 12 20 13 20
2 0 3 -9 4 -20z m1106 -367 c-7 -2 -21 -2 -30 0 -10 3 -4 5 12 5 17 0 24 -2
18 -5z"/>
<path d="M5590 3490 c0 -5 5 -10 11 -10 5 0 7 5 4 10 -3 6 -8 10 -11 10 -2 0
-4 -4 -4 -10z"/>
<path d="M4260 3380 c0 -11 5 -20 10 -20 6 0 10 9 10 20 0 11 -4 20 -10 20 -5
0 -10 -9 -10 -20z"/>
<path d="M2900 2901 c0 -5 7 -11 14 -14 10 -4 13 -1 9 9 -6 15 -23 19 -23 5z"/>
<path d="M1173 2366 c-28 -30 -33 -46 -13 -46 3 0 16 18 29 40 12 22 21 40 19
40 -2 0 -17 -16 -35 -34z"/>
<path d="M931 2314 c0 -11 3 -14 6 -6 3 7 2 16 -1 19 -3 4 -6 -2 -5 -13z"/>
<path d="M1190 1930 c-12 -8 -12 -10 5 -9 11 0 29 4 40 9 18 8 18 9 -5 9 -14
0 -32 -4 -40 -9z"/>
<path d="M1170 1768 c0 -10 66 -78 76 -78 11 0 0 19 -29 53 -35 39 -47 45 -47
25z"/>
<path d="M2221 2454 c0 -11 3 -14 6 -6 3 7 2 16 -1 19 -3 4 -6 -2 -5 -13z"/>
<path d="M2192 2439 c-12 -18 -11 -24 2 -37 15 -15 16 -13 16 21 0 20 -1 37
-3 37 -1 0 -8 -10 -15 -21z"/>
<path d="M2246 2367 c3 -10 9 -15 12 -12 3 3 0 11 -7 18 -10 9 -11 8 -5 -6z"/>
<path d="M7862 2555 c0 -16 4 -43 8 -60 7 -29 8 -28 8 10 0 22 -3 49 -8 60 -7
17 -9 15 -8 -10z"/>
<path d="M7705 2489 c-11 -17 0 -20 21 -4 17 13 17 14 2 15 -9 0 -20 -5 -23
-11z"/>
<path d="M7500 2105 c0 -19 5 -35 10 -35 6 0 10 16 10 35 0 19 -4 35 -10 35
-5 0 -10 -16 -10 -35z"/>
<path d="M8455 2739 c-10 -15 1 -23 20 -15 9 3 13 10 10 16 -8 13 -22 13 -30
-1z"/>
<path d="M8605 2680 c-25 -27 -10 -39 16 -13 12 11 17 23 11 27 -5 3 -17 -3
-27 -14z"/>
<path d="M5213 2273 c-18 -9 -33 -20 -33 -25 0 -4 -9 -8 -21 -8 -16 0 -20 -5
-17 -27 2 -17 9 -28 18 -28 21 0 28 -71 12 -120 -17 -51 -18 -52 -42 -30 -19
17 -20 17 -29 -8 -13 -33 -50 -46 -67 -22 -13 18 -44 15 -44 -4 0 -11 38 -35
55 -36 6 0 19 -5 30 -12 26 -15 13 -28 -15 -13 -24 13 -52 6 -71 -16 -10 -12
-9 -13 5 -8 15 6 21 -4 17 -33 -3 -22 34 -31 111 -26 l77 6 16 56 c9 31 22 76
30 100 10 33 11 48 2 62 -8 14 -8 36 1 89 14 81 15 120 5 119 -5 0 -23 -8 -40
-16z"/>
<path d="M5450 2280 c-8 -5 -12 -12 -9 -15 4 -3 12 1 19 10 14 17 11 19 -10 5z"/>
<path d="M5230 1865 c-20 -24 -6 -28 15 -5 10 11 13 20 8 20 -6 0 -16 -7 -23
-15z"/>
<path d="M5277 1838 c-17 -9 -17 -11 2 -27 11 -10 25 -30 31 -46 17 -43 24
-21 10 30 -15 53 -19 57 -43 43z"/>
<path d="M2917 1863 c-4 -3 -7 -13 -7 -22 1 -13 3 -13 11 2 11 19 8 33 -4 20z"/>
<path d="M2852 1780 c0 -14 2 -19 5 -12 2 6 2 18 0 25 -3 6 -5 1 -5 -13z"/>
<path d="M2797 1673 c-12 -11 -8 -23 8 -23 8 0 15 7 15 15 0 16 -12 20 -23 8z"/>
<path d="M2920 1652 c0 -7 -7 -12 -15 -12 -20 0 -19 -19 1 -27 9 -3 20 0 25 8
5 8 6 -17 3 -61 -3 -51 -1 -69 5 -55 15 31 12 118 -4 139 -8 11 -15 14 -15 8z"/>
<path d="M3662 1598 c6 -18 28 -21 28 -4 0 9 -7 16 -16 16 -9 0 -14 -5 -12
-12z"/>
<path d="M3660 1530 c0 -5 5 -10 10 -10 6 0 10 5 10 10 0 6 -4 10 -10 10 -5 0
-10 -4 -10 -10z"/>
<path d="M2475 1430 c4 -6 11 -8 16 -5 14 9 11 15 -7 15 -8 0 -12 -5 -9 -10z"/>
<path d="M3360 1373 c0 -26 0 -26 20 -8 16 14 17 20 8 27 -22 13 -28 9 -28
-19z"/>
<path d="M2952 1350 c0 -14 2 -19 5 -12 2 6 2 18 0 25 -3 6 -5 1 -5 -13z"/>
<path d="M3500 1360 c0 -5 5 -10 10 -10 6 0 10 5 10 10 0 6 -4 10 -10 10 -5 0
-10 -4 -10 -10z"/>
<path d="M2774 1335 c3 -8 -2 -31 -10 -50 -8 -20 -12 -41 -8 -47 4 -7 3 -8 -4
-4 -7 4 -12 3 -12 -1 0 -9 129 -79 133 -72 2 2 14 26 27 53 18 36 22 50 12 54
-7 2 -39 21 -71 43 -64 42 -76 47 -67 24z"/>
<path d="M2946 1245 c-3 -9 -10 -14 -15 -11 -5 3 -11 0 -14 -8 -10 -26 5 -26
25 0 11 14 18 27 15 30 -2 3 -7 -2 -11 -11z"/>
<path d="M2916 1167 c-7 -27 -5 -28 17 -7 15 15 15 18 3 23 -9 4 -16 -2 -20
-16z"/>
<path d="M2471 1170 c0 -8 4 -22 9 -30 12 -18 12 -2 0 25 -6 13 -9 15 -9 5z"/>
<path d="M2956 1155 c-3 -9 -10 -14 -14 -11 -4 3 -13 -8 -19 -24 -9 -24 -8
-28 4 -23 13 5 13 2 4 -15 -17 -32 -14 -49 5 -30 10 9 20 38 24 65 8 50 7 65
-4 38z"/>
<path d="M2530 1136 c0 -8 -3 -21 -6 -30 -10 -26 12 -18 24 8 9 19 8 25 -4 30
-8 3 -14 -1 -14 -8z"/>
<path d="M5530 2300 c0 -6 7 -10 15 -10 8 0 15 2 15 4 0 2 -7 6 -15 10 -8 3
-15 1 -15 -4z"/>
<path d="M6841 1954 c0 -11 3 -14 6 -6 3 7 2 16 -1 19 -3 4 -6 -2 -5 -13z"/>
<path d="M6844 1885 c-4 -15 -4 -55 -2 -90 6 -68 -4 -102 -22 -75 -8 13 -10
12 -11 -5 -1 -11 -3 -25 -3 -31 -1 -6 -7 -18 -14 -27 -9 -10 -10 -17 -2 -22 5
-3 10 -17 10 -31 0 -19 5 -24 24 -24 19 0 25 6 28 28 3 26 6 27 68 32 61 5 63
6 37 18 -16 6 -40 9 -54 6 -16 -4 -28 -2 -33 6 -4 7 -8 62 -9 123 -1 115 -5
138 -17 92z"/>
<path d="M6802 1498 c3 -47 6 -53 26 -56 22 -3 23 -1 20 50 -3 47 -6 53 -26
56 -22 3 -23 1 -20 -50z"/>
<path d="M8121 2004 c-50 -45 -81 -89 -81 -115 0 -8 6 -7 18 4 28 25 123 87
134 87 6 0 8 6 5 14 -3 8 1 20 9 26 21 18 17 30 -10 30 -14 0 -44 -18 -75 -46z"/>
<path d="M8021 1851 c-7 -13 -8 -28 -1 -45 11 -29 25 -34 34 -10 8 20 -1 34
-22 34 -15 1 -15 2 1 11 10 6 25 8 33 5 10 -4 14 -1 12 6 -7 22 -46 21 -57 -1z"/>
<path d="M7957 1790 c-22 -32 -21 -40 4 -35 30 6 34 12 22 37 l-9 22 -17 -24z"/>
<path d="M8120 1771 c0 -5 7 -11 15 -15 9 -3 15 0 15 9 0 8 -7 15 -15 15 -8 0
-15 -4 -15 -9z"/>
<path d="M8080 1765 c0 -5 5 -17 10 -25 5 -8 10 -10 10 -5 0 6 -5 17 -10 25
-5 8 -10 11 -10 5z"/>
<path d="M8030 1746 c0 -6 5 -18 11 -26 9 -13 10 -13 6 1 -3 9 -1 21 4 26 6 6
4 10 -6 10 -8 0 -15 -5 -15 -11z"/>
<path d="M8005 1741 c-3 -5 -1 -12 5 -16 5 -3 10 1 10 9 0 18 -6 21 -15 7z"/>
<path d="M7995 1520 c-3 -5 -2 -10 4 -10 5 0 13 5 16 10 3 6 2 10 -4 10 -5 0
-13 -4 -16 -10z"/>
<path d="M1693 1133 c4 -6 30 -13 59 -16 29 -4 72 -10 96 -13 28 -5 42 -3 42
5 0 6 -15 12 -32 12 -18 1 -42 3 -53 5 -68 12 -117 15 -112 7z"/>
<path d="M1975 990 c-17 -7 -17 -9 -2 -9 9 -1 20 -1 24 -2 4 0 9 4 11 10 4 13
-5 13 -33 1z"/>
<path d="M4354 2000 c3 -30 5 -56 6 -57 0 -2 7 -3 16 -3 12 0 14 7 9 33 -4 17
-14 43 -21 57 -13 23 -14 21 -10 -30z"/>
<path d="M4368 1898 c-14 -14 -15 -18 -4 -18 8 0 17 7 20 16 9 23 4 24 -16 2z"/>
<path d="M6045 1619 c-11 -17 1 -21 15 -4 8 9 8 15 2 15 -6 0 -14 -5 -17 -11z"/>
<path d="M3150 1250 c-8 -5 -12 -12 -9 -15 4 -3 12 1 19 10 14 17 11 19 -10 5z"/>
<path d="M7941 3856 c-19 -22 11 -41 41 -25 17 9 19 13 8 17 -8 3 -20 9 -26
13 -7 6 -16 4 -23 -5z"/>
<path d="M8833 3642 c-30 -5 -29 -25 2 -56 14 -14 25 -34 25 -44 0 -20 -39
-62 -58 -62 -6 0 -16 -9 -22 -21 -15 -27 11 -69 43 -69 33 0 59 -23 72 -61 7
-20 23 -39 38 -47 15 -7 27 -20 27 -28 0 -20 19 -17 20 4 0 9 3 45 6 80 6 60
5 62 -18 62 -12 0 -29 4 -35 8 -11 7 -28 73 -50 194 -6 33 -21 45 -50 40z"/>
<path d="M8956 3221 c-4 -5 3 -7 14 -4 23 6 26 13 6 13 -8 0 -17 -4 -20 -9z"/>
<path d="M8880 3011 c0 -5 7 -14 15 -21 13 -10 15 -9 15 9 0 12 -6 21 -15 21
-8 0 -15 -4 -15 -9z"/>
<path d="M9581 2018 c0 -7 4 -22 9 -33 7 -17 9 -15 9 13 1 17 -3 32 -9 32 -5
0 -10 -6 -9 -12z"/>
<path d="M4613 43 c9 -2 23 -2 30 0 6 3 -1 5 -18 5 -16 0 -22 -2 -12 -5z"/>
<path d="M4610 20 c-24 -8 -23 -8 8 -9 20 -1 31 3 27 9 -3 6 -7 10 -8 9 -1 -1
-13 -5 -27 -9z"/>
</g>
</svg>
